<?xml version="1.0" encoding="UTF-8"?>
<svg width="190px" height="130px" viewBox="0 0 190 130" version="1.1" xmlns="http://www.w3.org/2000/svg" xmlns:xlink="http://www.w3.org/1999/xlink">
    <!-- Generator: Sketch 49 (51002) - http://www.bohemiancoding.com/sketch -->
    <title>passport</title>
    <desc>Created with Sketch.</desc>
    <defs>
        <rect id="path-1" x="0" y="0" width="190" height="130" rx="2"></rect>
    </defs>
    <g id="5.-个人中心" stroke="none" stroke-width="1" fill="none" fill-rule="evenodd" opacity="0.7">
        <g id="46-个人中心-身份认证" transform="translate(-496.000000, -1030.000000)">
            <g id="基本资料" transform="translate(338.000000, 677.000000)">
                <g id="Group-5" transform="translate(158.000000, 0.000000)">
                    <g id="Group-7" transform="translate(0.000000, 306.000000)">
                        <g id="Group-10" transform="translate(0.000000, 47.000000)">
                            <g id="身份证正面">
                                <g id="passport">
                                    <g id="Rectangle-2">
                                        <use fill="#FFFFFF" fill-rule="evenodd" xlink:href="#path-1"></use>
                                        <rect stroke="#EEEEEE" stroke-width="1" x="0.5" y="0.5" width="189" height="129" rx="2"></rect>
                                    </g>
                                    <path d="M54.4612844,16.5115317 C43.8296502,19.278586 34.9699549,26.4857972 26.8512524,33.8538836 C20.8910938,39.2592921 14.9953693,44.9542759 10.9682351,51.9362618 C8.84190827,55.6042175 7.26327167,59.5617486 5.74906921,63.5514548 C3.30057162,69.9542898 0.94872525,76.8397505 2.49514478,83.4999858 C4.58925456,92.5411749 13.1912132,98.4935591 21.5998694,102.45109 C35.5820793,109.079151 50.756321,112.747106 65.8339114,116.286362 C95.5380532,123.203998 126.079839,129.671183 156.363888,125.874527 C162.29183,125.134501 168.380857,123.911849 173.245635,120.404768 C179.914569,115.610686 183.232927,107.212998 183.877269,99.040535 C184.682696,89.0662695 181.55764,78.1589275 173.503371,72.2065433 C163.129474,64.5488814 147.020937,66.4472093 138.547846,56.7303442 C133.521983,50.9710103 132.748773,42.6376723 133.328681,35.0121854 C133.908588,27.3866986 135.64831,19.7290367 134.649581,12.1678999 C134.262976,9.17562028 133.360898,6.08681548 131.170137,4.02761228 C128.109515,1.13185777 123.405822,0.970982524 119.185385,1.00315757 C107.555022,1.06750767 95.4091849,1.19620787 84.487597,5.63636478 C80.0094238,7.47034263 76.175592,10.4304472 71.79407,12.3609502 C66.2849504,14.7419039 60.2281406,15.0314794 54.4612844,16.5115317 Z" id="Shape" fill="#F6FAFF" fill-rule="nonzero" opacity="0.5"></path>
                                    <g id="Group" opacity="0.5" transform="translate(15.000000, 31.000000)" fill-rule="nonzero">
                                        <path d="M6.05029785,76.8227604 C9.41620711,76.5589504 12.7821164,76.2574532 16.1480256,75.8805818 C15.2233253,74.9384033 14.8904331,73.5439791 14.9274212,72.187242 C14.9644092,70.8681921 15.4082653,69.5868293 15.7781455,68.3054665 C16.7028458,65.478931 17.5905582,62.6147083 18.5152585,59.7881727 C18.6262225,63.8960711 18.7001986,67.9662823 18.8111626,72.0741806 C18.8111626,72.4887392 18.8111626,72.9409849 18.7001986,73.3178563 C18.3673064,74.2977219 17.146702,74.863029 16.9617619,75.918269 C23.5456284,75.9936433 30.1294948,76.1067047 36.6763733,76.7850732 C38.8956541,77.0111961 41.262887,77.275006 43.2972277,76.3328275 C43.5561438,76.2197661 43.8150599,76.0690175 43.926024,75.8052076 C44.036988,75.5413976 44,75.2775876 43.963012,75.0137776 C43.6671079,73.4686048 43.4081918,71.8857449 43.1122877,70.3405721 C42.8903596,69.0592094 42.6314435,67.7401594 42.0396353,66.5718581 C41.5218031,65.5543053 40.7820428,64.687501 40.2642106,63.6322611 C39.8573425,62.8408311 39.6354144,61.9363397 39.3025222,61.1072226 C38.9326421,60.127357 38.4887859,59.2228656 37.9709538,58.3560614 C37.5270976,57.6400057 36.9722774,56.8862629 36.2325171,56.5093915 C35.4927568,56.0948329 34.6420325,56.0571458 33.8282962,56.0194586 C30.610339,55.9063972 27.3923818,56.1702072 24.2484006,55.6049001 C23.0277962,55.3787772 21.8441797,55.039593 20.5865873,55.0019058 C18.8851386,54.9642187 17.220678,55.4918387 15.6301934,56.0194586 C14.2616369,56.4717043 12.8560924,56.92395 11.5984999,57.6776928 C11.0436797,58.0168771 10.4888595,58.3937485 9.86006327,58.5821842 C9.30524306,58.7329328 9.00933895,58.6198714 8.82439888,59.2228656 C8.38054272,60.6172898 8.08463861,62.0870883 7.75174649,63.5191997 C7.04897422,66.3457352 6.457166,69.2099579 6.16126189,72.1118678 C6.12427388,72.3756777 5.9023458,76.8227604 6.05029785,76.8227604 Z" id="Shape" fill="#75C6F7"></path>
                                        <path d="M43.7119673,75 C43.6764176,75 43.6764176,75 43.7119673,75 C43.5697684,75 43.4275695,74.8503363 43.4631192,74.7006725 C43.6408678,70.6971677 37.0997192,56.5539452 37.0286197,56.4042815 C36.9575203,56.2546177 37.0286197,56.104954 37.1352689,56.0301221 C37.2774678,55.9552903 37.4196666,56.0301221 37.4907661,56.1423699 C37.7751639,56.7410248 44.1741136,70.547504 43.996365,74.7006725 C43.9608153,74.8877522 43.8541662,75 43.7119673,75 Z" id="Shape" fill="#40527C"></path>
                                        <path d="M15.8080048,75 C15.8080048,75 15.7723791,75 15.7723791,75 C15.7011277,75 15.6298763,74.9269406 15.5942506,74.8538813 L14.0267193,71.7853881 C13.9910936,71.7123288 13.9910936,71.6392694 14.0267193,71.56621 C14.062345,71.4931507 16.8411505,63.2739726 17.019279,61.5205479 C17.019279,61.3744292 17.1617818,61.2648402 17.3042847,61.2648402 C17.4467875,61.2648402 17.5536647,61.4109589 17.5536647,61.5570776 C17.3755361,63.2739726 14.9173621,70.5799087 14.5967307,71.6027397 L15.9861334,74.2694064 L18.4086817,72.0776256 C17.6605418,69.7762557 17.9811732,59.6940639 18.0167989,59.2557078 C18.0167989,59.109589 18.123676,59 18.3018046,59 C18.4443074,59 18.5511846,59.1461187 18.5511846,59.2922374 C18.4086817,63.0913242 18.3374303,70.652968 18.9786931,72.0410959 C19.0143188,72.1506849 19.0143188,72.2968037 18.9074417,72.369863 L16.0930105,74.890411 C15.914882,75 15.8792563,75 15.8080048,75 Z" id="Shape" fill="#40527C"></path>
                                        <path d="M11.2594528,76 C11.1127647,76 11.0027486,75.8902439 11.0027486,75.7439024 C10.8927325,74.2073171 14.1198712,67.8780488 14.4865916,67.1463415 C14.5599356,67 14.7066237,66.9634146 14.8533119,67.0365854 C15,67.1097561 15.036672,67.2560976 14.963328,67.402439 C13.9731831,69.304878 11.442813,74.5365854 11.5528291,75.7073171 C11.5528291,75.8536585 11.442813,75.9634146 11.2594528,76 C11.2961248,75.9634146 11.2961248,76 11.2594528,76 Z" id="Shape" fill="#40527C"></path>
                                        <path d="M5.2822803,77 C5.14501101,77 5.04205904,76.8889332 5.04205904,76.7778664 C4.63025117,74.3714186 7.37563699,59.8586877 7.47858895,59.2293091 C7.51290628,59.08122 7.65017557,58.9701532 7.78744486,59.0071755 C7.92471415,59.0441977 8.02766612,59.1922868 7.9933488,59.3403759 C7.95903147,59.488465 5.17932833,74.3714186 5.55681888,76.6667995 C5.59113621,76.8148886 5.48818424,76.9629777 5.35091495,77 C5.31659762,77 5.2822803,77 5.2822803,77 Z" id="Shape" fill="#40527C"></path>
                                        <path d="M21.9994072,27.2941041 C22.109919,27.4771099 22.2204308,27.6967168 22.1467563,27.9163238 C22.0362445,28.209133 21.6310346,28.2457342 21.3731738,28.3921388 C20.967964,28.6117457 20.7469404,29.0875608 20.5995914,29.5267746 C19.3102872,33.2966938 19.1997755,37.4692256 20.268056,41.3123471 C20.9311267,38.0914453 23.2518741,35.5659655 25.0568998,32.8208787 C25.9409941,31.4666359 26.7145765,30.075792 27.635508,28.7215492 C28.7406258,27.1110983 30.0667672,25.647052 31.5402576,24.3660116 C31.7612812,24.1830058 31.9823047,24 32.2401655,24 C32.5717009,24 32.8295617,24.2562081 33.0874225,24.5124162 C34.1188658,25.6104509 35.2608209,26.6718844 36.5869622,27.3673064 C37.8394291,28.0261272 39.2392449,28.3921388 40.5285491,28.9411561 C41.8178532,29.4901735 43.1071573,30.3686012 43.6597162,31.6496417 C44.3596241,33.2234915 43.8439025,35.0535493 43.3281808,36.7006013 C42.5914356,39.0796765 41.8546904,41.4953529 41.1179452,43.874428 C39.9391529,47.7541506 38.6498488,51.7436767 35.7765425,54.6351681 C35.3713326,55.0377808 34.9661228,55.4037924 34.4504011,55.6600005 C33.8241677,55.9528097 33.1242598,56.026012 32.4611891,56.0992143 C27.9302061,56.5750294 23.3623859,56.721434 18.8314029,56.5384282 C18.278844,56.5018271 17.6526105,56.5018271 17.1737262,56.721434 C15.6265612,57.4900583 15.8844221,60.1619427 14.2635826,60.8573647 C13.2689766,61.2965786 12.1638588,60.6377578 11.2797646,60.0155381 C10.0272977,59.1371103 8.81166813,58.2952837 7.55920128,57.416856 C6.78561882,56.8678386 5.9751991,56.3188213 5.31212842,55.6233993 C4.72273226,55.0011796 4.24384788,54.3057577 3.7649635,53.6103357 C2.58617117,51.9266825 1.37054159,50.169827 1.07584351,48.1201622 C0.744308169,45.8874916 1.55472789,43.6914223 2.43882213,41.6417575 C4.35435966,37.1764164 6.60143252,32.8574799 9.21687799,28.7581504 C9.47473881,28.3555376 9.73259963,27.9163238 10.1378095,27.6601157 C10.5798566,27.3307053 11.1324155,27.2209018 11.6849744,27.0744972 C13.89521,26.562081 16.1054456,26.0862659 18.278844,25.5738497 C18.8682401,25.4274451 19.8996834,24.9516301 20.4890796,25.1346359 C21.2258248,25.390844 21.6678719,26.7084856 21.9994072,27.2941041 Z" id="Shape" fill="#75C6F7"></path>
                                        <path d="M18.0378251,8.03517829 C18.0378251,7.61990589 18.2269504,6.94036924 18.3782506,6.56284888 C18.4917258,6.18532852 18.7565012,5.88331223 18.9834515,5.58129594 C19.3995272,5.05276744 19.3238771,4.56199097 19.7399527,4.03346246 C20.3451537,3.27842174 21.4042553,2.07035658 22.2364066,1.61733215 C23.3711584,0.975547533 25.1489362,0.975547533 26.4349882,1.01329957 C28.0992908,1.08880364 29.6122931,1.466324 31.0496454,2.37237287 C32.108747,3.05190952 32.7895981,4.33547875 33.2813239,5.50579187 C33.7730496,6.67610499 33.9621749,7.95967422 34,9.20549141 C34,9.73401992 33.9621749,10.2625484 33.8486998,10.7533249 C33.7730496,11.0930932 33.6217494,11.4706136 33.4704492,11.8103819 C33.1678487,12.5276706 32.8652482,13.2827113 32.5626478,14 C32.3735225,13.5469756 32.5248227,13.0561991 32.4869976,12.6031747 C32.3735225,11.885886 31.8061466,11.3196054 31.5791962,10.6023167 C31.2387707,9.46975566 31.2387707,9.16773937 31.1631206,7.88417015 C31.1631206,7.77091404 31.1631206,7.35564164 31.0496454,7.3178896 C30.8983452,7.24238553 30.4822695,7.24238553 30.3309693,7.28013757 C27.6453901,7.88417015 25.2624113,6.82711313 22.5390071,6.44959277 C21.820331,6.33633666 20.9881797,6.26083259 20.3829787,6.67610499 C19.5886525,7.2046335 19.5130024,8.75246698 19.3238771,9.69626788 C19.2104019,10.3003005 18.9078014,11.5083656 18.3404255,11.8481339 C18,11.5838697 18,10.3758045 18,9.99828417 C18.0378251,9.35649956 18.0378251,8.6769629 18.0378251,8.03517829 Z" id="Shape" fill="#FFD2B3"></path>
                                        <path d="M8,57 C7.44,57 7,56.56 7,56 C7,55.44 7.44,55 8,55 C8.56,55 9,55.44 9,56 C9,56.56 8.56,57 8,57 Z M8,55.56 C7.76,55.56 7.6,55.76 7.6,55.96 C7.6,56.2 7.8,56.36 8,56.36 C8.2,56.36 8.4,56.16 8.4,55.96 C8.4,55.76 8.2,55.56 8,55.56 Z" id="Shape" fill="#40527C"></path>
                                        <path d="M10,59 C9.44,59 9,58.56 9,58 C9,57.44 9.44,57 10,57 C10.56,57 11,57.44 11,58 C11,58.56 10.52,59 10,59 Z M10,57.6 C9.76,57.6 9.6,57.8 9.6,58 C9.6,58.24 9.8,58.4 10,58.4 C10.2,58.4 10.4,58.2 10.4,58 C10.4,57.76 10.2,57.6 10,57.6 Z" id="Shape" fill="#40527C"></path>
                                        <path d="M12.9988347,60 C12.4394873,60 12,59.56 12,59 C12,58.44 12.4394873,58 12.9988347,58 C13.5581821,58 13.9976694,58.44 13.9976694,59 C14.0376227,59.56 13.5581821,60 12.9988347,60 Z M12.9988347,58.6 C12.7591144,58.6 12.5993008,58.8 12.5993008,59 C12.5993008,59.24 12.7990677,59.4 12.9988347,59.4 C13.1986016,59.4 13.3983686,59.2 13.3983686,59 C13.4383219,58.76 13.238555,58.6 12.9988347,58.6 Z" id="Shape" fill="#40527C"></path>
                                        <path d="M15.9988347,56 C15.4394873,56 15,55.56 15,55 C15,54.44 15.4394873,54 15.9988347,54 C16.5581821,54 16.9976694,54.44 16.9976694,55 C17.0376227,55.52 16.5581821,56 15.9988347,56 Z M15.9988347,54.56 C15.7591144,54.56 15.5993008,54.76 15.5993008,54.96 C15.5993008,55.2 15.7990677,55.36 15.9988347,55.36 C16.238555,55.36 16.3983686,55.16 16.3983686,54.96 C16.4383219,54.76 16.238555,54.56 15.9988347,54.56 Z" id="Shape" fill="#40527C"></path>
                                        <path d="M18,56 C17.44,56 17,55.56 17,55 C17,54.44 17.44,54 18,54 C18.56,54 19,54.44 19,55 C19,55.56 18.56,56 18,56 Z M18,54.6 C17.76,54.6 17.6,54.8 17.6,55 C17.6,55.24 17.8,55.4 18,55.4 C18.24,55.4 18.4,55.2 18.4,55 C18.4,54.76 18.24,54.6 18,54.6 Z" id="Shape" fill="#40527C"></path>
                                        <path d="M21,57 C20.44,57 20,56.56 20,56 C20,55.44 20.44,55 21,55 C21.56,55 22,55.44 22,56 C22,56.56 21.56,57 21,57 Z M21,55.6 C20.76,55.6 20.6,55.8 20.6,56 C20.6,56.24 20.8,56.4 21,56.4 C21.24,56.4 21.4,56.2 21.4,56 C21.44,55.76 21.24,55.6 21,55.6 Z" id="Shape" fill="#40527C"></path>
                                        <path d="M33.3821505,12 C33.3445005,12 33.3445005,12 33.3068505,12 C33.1562504,11.9623218 33.0809504,11.8116092 33.1186004,11.6608965 C33.9092507,9.06110316 32.8550503,5.33096486 32.8550503,5.29328669 C32.02675,2.76884966 30.3701494,1.22404491 27.8852485,0.734228768 C26.0027478,0.357447122 24.3837973,0.734228768 24.3461473,0.734228768 C24.1955472,0.771906933 24.0449471,0.658872439 24.0072971,0.50815978 C23.9696471,0.357447122 24.0825972,0.206734463 24.2331972,0.169056298 C24.3084972,0.169056298 31.2737497,-1.41342662 33.4198005,5.10489587 C33.4574505,5.25560853 34.5116509,9.02342499 33.6833506,11.773931 C33.6080506,11.9246437 33.4951005,12 33.3821505,12 Z" id="Shape" fill="#40527C"></path>
                                        <g transform="translate(17.000000, 0.000000)" fill="#40527C" id="Shape">
                                            <path d="M5.1892562,0.927692308 C5.03884298,0.927692308 4.88842975,0.811730769 4.81322314,0.657115385 C4.77561983,0.463846154 4.88842975,0.231923077 5.07644628,0.193269231 C5.33966942,0.115961538 5.49008264,0.115961538 5.49008264,0.115961538 C5.67809917,0.0773076923 5.8661157,0.231923077 5.90371901,0.425192308 C5.94132231,0.618461538 5.79090909,0.811730769 5.60289256,0.850384615 C5.60289256,0.850384615 5.49008264,0.889038462 5.26446281,0.927692308 C5.26446281,0.927692308 5.2268595,0.927692308 5.1892562,0.927692308 Z"></path>
                                            <path d="M1.12809917,4.02 C1.05289256,4.02 1.01528926,4.02 0.940082645,3.98134615 C0.752066116,3.86538462 0.676859504,3.67211538 0.789669421,3.47884615 C0.902479339,3.24692308 1.05289256,3.015 1.16570248,2.82173077 C1.2785124,2.66711538 1.50413223,2.58980769 1.69214876,2.74442308 C1.84256198,2.86038462 1.9177686,3.09230769 1.76735537,3.28557692 C1.65454545,3.47884615 1.54173554,3.67211538 1.42892562,3.86538462 C1.39132231,3.94269231 1.24090909,4.02 1.12809917,4.02 Z M2.14338843,2.58980769 C2.03057851,2.58980769 1.9553719,2.55115385 1.88016529,2.47384615 C1.72975207,2.31923077 1.72975207,2.08730769 1.88016529,1.93269231 C2.06818182,1.77807692 2.25619835,1.58480769 2.44421488,1.43019231 C2.5946281,1.31423077 2.85785124,1.35288462 2.97066116,1.5075 C3.08347107,1.66211538 3.04586777,1.93269231 2.89545455,2.04865385 C2.70743802,2.20326923 2.55702479,2.31923077 2.40661157,2.47384615 C2.33140496,2.55115385 2.25619835,2.58980769 2.14338843,2.58980769 Z M3.57231405,1.54615385 C3.42190083,1.54615385 3.30909091,1.46884615 3.2338843,1.35288462 C3.12107438,1.15961538 3.19628099,0.927692308 3.38429752,0.850384615 C3.60991736,0.734423077 3.83553719,0.618461538 4.06115702,0.541153846 C4.24917355,0.463846154 4.47479339,0.541153846 4.55,0.734423077 C4.62520661,0.927692308 4.55,1.15961538 4.36198347,1.23692308 C4.17396694,1.31423077 3.94834711,1.43019231 3.76033058,1.5075 C3.68512397,1.54615385 3.60991736,1.54615385 3.57231405,1.54615385 Z"></path>
                                            <path d="M0.639256198,5.41153846 C0.601652893,5.41153846 0.601652893,5.41153846 0.564049587,5.41153846 C0.376033058,5.37288462 0.225619835,5.17961538 0.26322314,4.94769231 C0.300826446,4.79307692 0.338429752,4.67711538 0.376033058,4.56115385 C0.451239669,4.36788462 0.639256198,4.25192308 0.827272727,4.29057692 C1.01528926,4.36788462 1.12809917,4.56115385 1.09049587,4.75442308 C1.05289256,4.87038462 1.01528926,4.98634615 1.01528926,5.10230769 C0.940082645,5.29557692 0.789669421,5.41153846 0.639256198,5.41153846 Z"></path>
                                        </g>
                                        <path d="M17.4118457,12 C17.2829201,12 17.1862259,11.8846154 17.1862259,11.7692308 C16.7672176,8.46153846 17.1862259,6.34615385 17.1862259,6.23076923 C17.2184573,6.07692308 17.3473829,6 17.4763085,6 C17.6052342,6.03846154 17.669697,6.19230769 17.669697,6.34615385 C17.669697,6.38461538 17.2829201,8.46153846 17.669697,11.6538462 C17.7019284,11.8076923 17.6052342,11.9615385 17.4763085,11.9615385 C17.4118457,12 17.4118457,12 17.4118457,12 Z" id="Shape" fill="#40527C"></path>
                                        <path d="M18.3312372,12 C18.2973212,12 18.2294892,12 18.1955733,11.9640045 C18.0259934,11.8920135 17.9581615,11.6760405 18.0259934,11.496063 C18.0938254,11.352081 18.1955733,11.136108 18.2973212,10.848144 C18.3651531,10.6681665 18.5686489,10.56018 18.7382288,10.6681665 C18.9078086,10.7401575 18.9756406,10.9561305 18.9078086,11.136108 C18.8060607,11.424072 18.7043128,11.640045 18.6364809,11.8200225 C18.5686489,11.928009 18.4329851,12 18.3312372,12 Z M18.9078086,10.344207 C18.8738927,10.344207 18.8399767,10.344207 18.8060607,10.344207 C18.6364809,10.3082115 18.534733,10.0922385 18.5686489,9.91226097 C18.6364809,9.66029246 18.6703968,9.44431946 18.7043128,9.26434196 C18.7382288,9.08436445 18.9078086,8.94038245 19.0773885,8.97637795 C19.2469683,9.01237345 19.3826322,9.19235096 19.3487162,9.37232846 C19.3148003,9.58830146 19.2808843,9.84026997 19.2130524,10.128234 C19.2130524,10.2362205 19.0773885,10.344207 18.9078086,10.344207 Z M19.1452204,8.58042745 C19.1113045,8.58042745 19.0773885,8.58042745 19.0434725,8.58042745 C18.8738927,8.50843645 18.7721448,8.32845894 18.8060607,8.14848144 C18.8738927,7.89651294 18.9756406,7.64454443 19.1452204,7.42857143 C19.2469683,7.24859393 19.4504641,7.21259843 19.620044,7.32058493 C19.7896238,7.42857143 19.8235398,7.64454443 19.7217919,7.82452193 C19.620044,8.00449944 19.5182961,8.18447694 19.4843801,8.36445444 C19.4165482,8.47244094 19.2808843,8.58042745 19.1452204,8.58042745 Z M20.0948676,7.14060742 C19.9931197,7.14060742 19.9252877,7.10461192 19.8574558,7.03262092 C19.7217919,6.88863892 19.7557079,6.67266592 19.8913717,6.52868391 C20.1966155,6.24071991 20.4679432,6.06074241 20.4679432,6.06074241 C20.6375231,5.95275591 20.8410189,5.98875141 20.9427668,6.16872891 C21.0445147,6.34870641 21.0105987,6.56467942 20.8410189,6.67266592 C20.8410189,6.67266592 20.6036071,6.81664792 20.3661953,7.06861642 C20.2644474,7.10461192 20.1966155,7.14060742 20.0948676,7.14060742 Z" id="Shape" fill="#40527C"></path>
                                        <path d="M31.6103081,14 C31.5721682,14 31.5721682,14 31.5340282,14 C31.3814682,13.9622986 31.3051883,13.8114931 31.3433282,13.6606876 C31.3433282,13.6606876 31.6484481,12.4542434 30.9237884,11.8133199 C30.0847087,11.0592922 30.0084287,8.42019551 30.0084287,7.47766097 C26.4995501,7.70386926 21.4650719,6.61052919 21.236232,6.57282781 C21.0836721,6.53512643 20.9692521,6.3843209 21.0073921,6.23351538 C21.0455321,6.08270985 21.198092,5.9696057 21.350652,6.00730709 C21.388792,6.00730709 26.8809499,7.2137513 30.2754086,6.87443886 C30.3516886,6.87443886 30.4279686,6.91214025 30.5042486,6.94984163 C30.5805285,6.98754301 30.5805285,7.06294577 30.5805285,7.17604992 C30.5423885,8.53329966 30.6949485,10.8707853 31.3051883,11.3986047 C32.3349679,12.3034378 31.915428,13.7737917 31.915428,13.8114931 C31.8391481,13.8868959 31.7247281,14 31.6103081,14 Z" id="Shape" fill="#40527C"></path>
                                        <path d="M32.1096389,17 C31.8440843,17 31.4647206,16.8880209 31.0853568,16.4401047 C30.9715477,16.3281256 30.9715477,16.1414938 31.0853568,16.0668411 C31.199166,15.9548621 31.3888478,15.9548621 31.4647206,16.0668411 C31.7302752,16.365452 31.9958298,16.477431 32.1855116,16.4027783 C32.6786844,16.2534729 33.2097936,15.0590296 33.3615391,13.6406281 C33.5132846,12.4835111 33.3236028,11.736984 33.1718573,11.6250049 C33.0201118,11.5130259 32.9063027,11.5503522 32.8304299,11.5876786 C32.4510662,11.736984 32.1475752,12.4461847 32.0337661,12.8567746 C31.9958298,13.00608 31.8440843,13.0807328 31.6923388,13.0434064 C31.5405933,13.00608 31.4647206,12.8567746 31.5026569,12.7074692 C31.5405933,12.5581638 31.919957,11.3637204 32.6407481,11.0651096 C32.9063027,10.9531305 33.2097936,10.9904569 33.4753482,11.1397623 C34.1582029,11.5503522 34.0064574,13.1927118 33.9305847,13.6779544 C33.7788392,14.9843768 33.2856664,16.5894101 32.3751935,16.8880209 C32.2993207,16.9626736 32.223448,17 32.1096389,17 Z" id="Shape" fill="#40527C"></path>
                                        <path d="M18.7333333,18 C18.7,18 18.6666667,18 18.6333333,17.9626268 C18.5666667,17.9252537 17.8666667,17.514149 17.8,16.8788053 C17.8,16.7293127 17.6666667,16.1313422 17.5333333,15.5333716 C17.2333333,14.1131917 17,12.991997 17,12.5435191 C17,12.2071607 17.1333333,12.057668 17.2666667,12.0202949 C17.5666667,11.9081754 17.9666667,12.281907 18.2333333,12.6182654 C18.3333333,12.7303849 18.3,12.9172507 18.2,12.991997 C18.1,13.0667433 17.9333333,13.0667433 17.8666667,12.9546238 C17.7666667,12.8051312 17.6333333,12.6930117 17.5333333,12.5808922 C17.5666667,13.0667433 17.8333333,14.4121769 18.0333333,15.383879 C18.2,16.1313422 18.3,16.6171932 18.3,16.804059 C18.3333333,17.0656711 18.7,17.3646563 18.8666667,17.4394026 C19,17.514149 19.0333333,17.6636416 18.9666667,17.8131342 C18.9,17.9626268 18.8333333,18 18.7333333,18 Z" id="Shape" fill="#40527C"></path>
                                        <path d="M23.609649,19 C23.578923,19 23.548197,19 23.486745,19 C23.3023891,18.9611033 23.1794851,18.8444133 23.0873071,18.6110333 C22.7493212,17.7942031 23.486745,14.2546058 23.7018269,13.2043956 C23.7325529,13.0488089 23.8554569,12.9710155 23.9783608,13.0099122 C24.1012648,13.0488089 24.1627168,13.2043956 24.1319908,13.3599823 C23.6711009,15.421506 23.3023891,17.9108931 23.486745,18.3387565 C23.517471,18.4165499 23.548197,18.4165499 23.578923,18.4165499 C23.8247309,18.4554466 24.3470727,18.0275831 24.6236066,17.6775131 C24.7157846,17.5608231 24.8694145,17.5608231 24.9308665,17.6775131 C25.0230445,17.7942031 25.0230445,17.9886865 24.9308665,18.0664798 C24.8079626,18.2609632 24.1627168,19 23.609649,19 Z" id="Shape" fill="#40527C"></path>
                                        <path d="M24.03027,24 C23.9207978,24 23.8113256,24 23.7383441,24 C19.6513821,23.7547514 18.0822805,18.5344608 18.0092991,18.3242478 C17.9728083,18.1841058 18.0457898,18.0439637 18.1917527,18.0089282 C18.3377157,17.9738927 18.4836786,18.0439637 18.5201693,18.1841058 C18.5201693,18.2191413 20.0527801,23.2642543 23.7748349,23.4744674 C25.5263901,23.5795739 27.0225101,22.6686507 27.9347784,21.862834 C29.5403707,20.4964493 30.4161483,18.7797094 30.452639,18.2541768 C30.452639,18.1140348 30.5986019,18.0089282 30.7445649,18.0089282 C30.8905278,18.0089282 31,18.1490703 31,18.2892123 C30.9635093,18.9899224 29.9782595,20.8468043 28.2996858,22.2832601 C27.3509267,23.0540413 25.8548067,24 24.03027,24 Z" id="Shape" fill="#40527C"></path>
                                        <path d="M25.9525791,31.9623531 C25.7689081,31.9623531 25.6219713,31.8494126 25.5852371,31.6611783 C25.5485029,31.4729441 25.4750345,31.247063 25.4015661,31.0588287 C25.3280978,30.8705945 25.4383003,30.6447133 25.6219713,30.5694196 C25.8056423,30.4941259 26.0260475,30.6070665 26.0995159,30.7953007 C26.2097185,31.0588287 26.2831869,31.2847098 26.3199211,31.5482378 C26.3566553,31.736472 26.2464527,31.9623531 26.0260475,32 C25.9893133,31.9623531 25.9893133,31.9623531 25.9525791,31.9623531 Z M25.2546294,30.2682448 C25.1444268,30.2682448 24.99749,30.1929511 24.9240216,30.0800106 C24.813819,29.8917763 24.6668822,29.6658952 24.5566796,29.4776609 C24.446477,29.3270735 24.4832112,29.0635456 24.6668822,28.950605 C24.813819,28.8376645 25.0709584,28.8753113 25.181161,29.0635456 C25.3280978,29.2894267 25.4750345,29.5153078 25.5852371,29.7035421 C25.6954397,29.8917763 25.6219713,30.1176574 25.4383003,30.230598 C25.4015661,30.2682448 25.3280978,30.2682448 25.2546294,30.2682448 Z M24.3730086,28.8376645 C24.1893376,28.8376645 24.0424009,28.7247239 24.0056667,28.5364897 C23.9689325,28.3482554 24.1158693,28.1223743 24.2995402,28.0847274 C24.5199454,28.0470806 24.7403506,27.9717869 24.99749,27.93414 C25.181161,27.8964932 25.4015661,28.0094337 25.4383003,28.197668 C25.4750345,28.3859022 25.364832,28.6117834 25.181161,28.6494302 C24.9240216,28.7247239 24.7036164,28.7623708 24.446477,28.8000176 C24.446477,28.8376645 24.4097428,28.8376645 24.3730086,28.8376645 Z M26.1362501,28.3106085 C25.9893133,28.3106085 25.8423765,28.2353148 25.8056423,28.0847274 C25.7321739,27.8964932 25.8423765,27.6706121 26.0260475,27.5953184 C26.2464527,27.5200247 26.4668579,27.4070841 26.687263,27.3317904 C26.870934,27.2564967 27.0913392,27.3317904 27.1648076,27.5200247 C27.238276,27.7082589 27.1648076,27.93414 26.9811366,28.0094337 C26.7607314,28.1223743 26.5403263,28.2353148 26.2831869,28.3106085 C26.2097185,28.3106085 26.1729843,28.3106085 26.1362501,28.3106085 Z M27.7525548,27.5200247 C27.6423522,27.5200247 27.4954154,27.444731 27.4586812,27.3317904 C27.3484786,27.1435561 27.421947,26.917675 27.5688838,26.8047345 C27.7525548,26.6917939 27.9729599,26.5412065 28.1566309,26.3906191 C28.3035677,26.2776786 28.5607071,26.3153254 28.6709097,26.4659128 C28.7811123,26.6165002 28.7443781,26.8800282 28.5974413,26.9929687 C28.3770361,27.1435561 28.1933651,27.2941436 27.9729599,27.4070841 C27.8994915,27.4823778 27.8260232,27.5200247 27.7525548,27.5200247 Z M29.1851884,26.3906191 C29.0749858,26.3906191 29.0015175,26.3529723 28.9280491,26.2776786 C28.7811123,26.1270912 28.8178465,25.90121 28.9647833,25.7506226 C29.1484542,25.6000352 29.295391,25.411801 29.4423278,25.2612136 C29.5892646,25.1106262 29.8096698,25.1106262 29.9566066,25.2235667 C30.1035434,25.3741541 30.1035434,25.6000352 29.9933408,25.7506226 C29.8096698,25.9388569 29.6259988,26.1270912 29.4423278,26.2776786 C29.3688594,26.3529723 29.295391,26.3906191 29.1851884,26.3906191 Z M30.3974169,24.9976856 C30.3239485,24.9976856 30.2504802,24.9600388 30.1770118,24.9223919 C30.030075,24.8094513 29.9933408,24.5835702 30.1035434,24.395336 C30.2504802,24.2071017 30.3606827,24.0188675 30.5076195,23.7929864 C30.6178221,23.6047521 30.8382273,23.5671052 31.0218983,23.6800458 C31.2055693,23.7929864 31.2423035,24.0188675 31.1321009,24.2071017 C30.9851641,24.4329828 30.8382273,24.6212171 30.6912905,24.8470982 C30.6178221,24.9223919 30.5076195,24.9976856 30.3974169,24.9976856 Z M31.3525061,23.4165178 C31.3157719,23.4165178 31.2423035,23.4165178 31.2055693,23.378871 C31.0218983,23.3035773 30.9484299,23.0776962 31.0218983,22.8894619 C31.2055693,22.5129934 31.2790377,22.2494654 31.2790377,22.2494654 C31.3525061,22.0612312 31.536177,21.9482906 31.7565822,22.0235843 C31.9402532,22.098878 32.0504558,22.2871123 31.9769874,22.4753465 C31.9769874,22.4753465 31.8667848,22.7765214 31.6831138,23.1906367 C31.6096454,23.3412241 31.4994429,23.4165178 31.3525061,23.4165178 Z" id="Shape" fill="#40527C"></path>
                                        <path d="M20.2890876,32 C20.2890876,32 20.2519518,32 20.2519518,32 C20.1034087,31.9629207 19.9920013,31.8146035 20.0291371,31.6662864 C20.2890876,30.1831146 21.4774328,29.1819737 22.1458769,28.7370221 C21.1432107,27.9954363 20.2519518,25.8819165 20.0291371,25.3998857 C19.9548655,25.2515685 20.0291371,25.1032514 20.1776802,25.0290928 C20.3262234,24.9549342 20.4747665,25.0290928 20.5490381,25.1774099 C21.0318033,26.3639473 22.0716053,28.3291499 22.7771853,28.4403878 C22.8885926,28.4774671 23,28.5516257 23,28.6628636 C23,28.7741014 22.9628642,28.8853393 22.8514569,28.9594979 C22.8143211,28.9594979 20.8832602,29.9606388 20.5490381,31.7404449 C20.5490381,31.8887621 20.4376307,32 20.2890876,32 Z" id="Shape" fill="#40527C"></path>
                                        <path d="M44.5964365,35 C44.5601158,35 44.5601158,35 44.5237951,35 C44.3785123,34.9622418 44.3058708,34.8112088 44.3421916,34.6601758 C44.5601158,33.7917362 44.3421916,32.054857 44.3421916,32.0170987 C44.2332294,31.2241756 41.1822896,29.7138458 39.1483297,28.6943732 C38.0950291,28.1657578 37.0780492,27.6749006 36.3879556,27.2595599 C34.1723922,25.9002632 32.1384323,23.5214938 32.0657909,23.4459773 C31.9568288,23.3327026 31.9931495,23.1439113 32.1021116,23.0683948 C32.2110738,22.9551201 32.3926773,22.9928784 32.4653187,23.1061531 C32.5016395,23.1439113 34.4992786,25.5226807 36.6785213,26.806461 C37.3322941,27.2218017 38.3492741,27.7126589 39.4025747,28.203516 C42.6351181,29.7893623 44.7780401,30.9221096 44.8870022,31.9415822 C44.8870022,32.0170987 45.1412472,33.8294944 44.8870022,34.7734505 C44.8143608,34.9244835 44.7053987,35 44.5964365,35 Z" id="Shape" fill="#40527C"></path>
                                        <path d="M27.138229,58 C26.2024577,58 25.2292556,57.9623687 24.1811917,57.9247375 C18.9783033,57.6236873 14.2994468,56.7205368 14.2245851,56.7205368 C14.0748617,56.6829055 14,56.5700117 14,56.4571179 C14,56.1184365 14.262016,47.7266631 17.7056543,45.9203621 C17.8553777,45.8450995 18.0051011,45.9203621 18.0799629,46.0332559 C18.1548246,46.1837809 18.0799629,46.334306 17.9676703,46.4095686 C15.0854947,47.8771881 14.6363245,54.8389732 14.5614628,56.2313303 C16.7324522,56.6452742 33.1645962,59.5052508 37.2071282,54.8389732 C41.549107,49.7963829 44.3938517,35.3836062 44.4312826,35.2330811 C44.4687134,35.082556 44.6184368,34.9696622 44.7681602,35.0072935 C44.9178836,35.0449248 45.0301762,35.1954499 44.9927453,35.3459749 C44.8804528,35.9480753 42.0731389,50.0598018 37.6562984,55.1776547 C36.0093409,57.021587 32.4908408,58 27.138229,58 Z" id="Shape" fill="#40527C"></path>
                                        <path d="M27.9012878,48 C27.8652209,48 27.8652209,48 27.9012878,48 C27.6488198,48 27.4324187,48 27.1799507,47.9674934 C26.9996164,47.9674934 26.8192822,47.8049604 26.855349,47.6424274 C26.855349,47.4798943 27.0356833,47.3498679 27.2160175,47.3498679 C27.4684855,47.3498679 27.6848867,47.3823745 27.9012878,47.3823745 C28.081622,47.3823745 28.2619563,47.5449076 28.2619563,47.7074406 C28.2258895,47.8699736 28.081622,48 27.9012878,48 Z M28.9472265,48 C28.7668923,48 28.6226249,47.8699736 28.586558,47.7074406 C28.586558,47.5449076 28.7308254,47.3823745 28.9111597,47.3498679 C29.1636277,47.3173613 29.3800288,47.3173613 29.5603631,47.2523481 C29.7406973,47.2198415 29.9570985,47.3173613 29.9931653,47.5124009 C30.0292322,47.674934 29.9210316,47.8699736 29.7046305,47.9024802 C29.5242962,47.9349868 29.2718282,47.9674934 28.9472265,48 C28.9832934,48 28.9472265,48 28.9472265,48 Z M26.0979451,47.9024802 C26.0979451,47.9024802 26.0618782,47.9024802 26.0979451,47.9024802 C25.8094102,47.8699736 25.5930091,47.8699736 25.3405411,47.837467 C25.1602069,47.8049604 25.0159394,47.6424274 25.0159394,47.4798943 C25.0520063,47.3173613 25.2323406,47.1873349 25.4126748,47.1873349 C25.6651428,47.2198415 25.8815439,47.2523481 26.0979451,47.2523481 C26.2782793,47.2848547 26.4225468,47.4148811 26.4225468,47.6099208 C26.4225468,47.7724538 26.2782793,47.9024802 26.0979451,47.9024802 Z M24.3306692,47.7074406 C24.3306692,47.7074406 24.2946024,47.7074406 24.2946024,47.7074406 C24.0421344,47.674934 23.8257333,47.6424274 23.5732653,47.6099208 C23.392931,47.5774142 23.2486636,47.4148811 23.2847304,47.2523481 C23.3207973,47.0898151 23.5011316,46.9597887 23.6814658,46.9922953 C23.897867,47.0248019 24.1503349,47.0573085 24.3667361,47.0898151 C24.5470703,47.1223217 24.6913378,47.2848547 24.6552709,47.4473877 C24.6552709,47.6099208 24.5110035,47.7074406 24.3306692,47.7074406 Z M22.5633934,47.4473877 C22.5273265,47.4473877 22.5273265,47.4473877 22.4912597,47.4473877 C22.2387917,47.4148811 22.0223906,47.3823745 21.7699226,47.3173613 C21.5895883,47.2848547 21.4453209,47.1223217 21.4813877,46.9272821 C21.5174546,46.7647491 21.6977889,46.6347227 21.91419,46.6672293 C22.1305911,46.6997359 22.3830591,46.7322425 22.5994602,46.7972557 C22.7797945,46.8297623 22.9240619,46.9922953 22.8879951,47.1548283 C22.8879951,47.3498679 22.7437276,47.4473877 22.5633934,47.4473877 Z M20.8321844,47.1548283 C20.7961175,47.1548283 20.7961175,47.1548283 20.7600507,47.1548283 C20.5075827,47.1223217 20.2911816,47.0573085 20.0747804,47.0248019 C19.8944462,46.9922953 19.7501787,46.8297623 19.7862456,46.6347227 C19.8223125,46.4721896 20.0026467,46.3421632 20.2190478,46.3746698 C20.435449,46.4071764 20.6518501,46.4721896 20.9043181,46.5046962 C21.0846523,46.5372028 21.2289198,46.6997359 21.1928529,46.8947755 C21.1207192,47.0573085 20.9764518,47.1548283 20.8321844,47.1548283 Z M19.0649085,46.7972557 C19.0288417,46.7972557 19.0288417,46.7972557 18.9927748,46.7972557 C18.5599726,46.6997359 18.2714377,46.6347227 18.2714377,46.6347227 C18.0911035,46.6022161 17.946836,46.4071764 18.0189697,46.2446434 C18.0550366,46.0821104 18.2714377,45.952084 18.451772,46.0170972 C18.451772,46.0170972 18.70424,46.0821104 19.1370422,46.1796302 C19.3173765,46.2121368 19.4616439,46.4071764 19.3895102,46.5697095 C19.3895102,46.6997359 19.2452428,46.7972557 19.0649085,46.7972557 Z" id="Shape" fill="#40527C"></path>
                                        <path d="M33.2770609,43 C33.2377086,43 33.1590039,43 33.1196515,42.9653798 C33.0015945,42.8961393 32.9622421,42.723038 33.0409468,42.6191773 C34.4576314,40.8535446 35.4020877,36.2836719 35.4020877,36.2144314 C35.4414401,36.0759504 35.5988495,35.9720897 35.7562588,36.0067099 C35.9136682,36.0413302 36.0317253,36.1798112 35.9923729,36.3182921 C35.9530206,36.5260136 35.0085642,41.0612661 33.513175,42.9307595 C33.4738227,42.9307595 33.3557656,43 33.2770609,43 Z" id="Shape" fill="#40527C"></path>
                                        <path d="M14.3169434,62 C14.2793706,62 14.2417979,62 14.2042252,61.9628981 C14.1666525,61.9628981 10.5972434,60.256213 7.065407,57.7332872 C2.29367063,54.282815 -0.0734111919,50.9436485 0.00173426271,47.7899912 C0.0768797173,44.7105376 1.73007972,40.2954173 4.92376154,34.655936 C7.29084336,30.5005287 9.65792518,27.1613622 9.69549791,27.1242603 C9.73307064,27.0500566 9.84578882,27.0129548 9.92093427,27.0129548 C11.4238434,27.0129548 19.5395525,25.0094548 19.6522706,25.0094548 C19.8025616,24.972353 19.9528525,25.0465567 19.9904252,25.1949641 C20.0279979,25.3433715 19.9528525,25.4917789 19.8025616,25.5288807 C19.464407,25.6030844 11.9498615,27.458177 10.1087979,27.5323807 C9.20705245,28.8309454 0.753188809,40.9632506 0.565325172,47.7528893 C0.415034263,54.3199169 12.438307,60.4417223 14.2417979,61.3321667 L16.9094616,57.1396576 C16.984607,57.028352 17.1724706,56.9541483 17.2851888,57.0654539 C17.397907,57.1396576 17.4730525,57.3251668 17.3603343,57.4364724 L14.5799525,61.8515926 C14.504807,61.9628981 14.4296615,62 14.3169434,62 Z" id="Shape" fill="#40527C"></path>
                                        <path d="M9.84078172,43 C9.76568678,43 9.69059184,42.9231406 9.6655602,42.8078515 C8.66429436,38.8495915 9.08983234,34.430175 9.08983234,34.2380265 C9.11486399,34.0843077 9.18995893,33.9690185 9.29008551,34.0074482 C9.39021209,34.045878 9.46530703,34.1611671 9.44027538,34.3148859 C9.44027538,34.3533156 9.0147374,38.7727321 9.99097159,42.6157029 C10.0160032,42.7694217 9.99097159,42.9231406 9.89084501,43 C9.89084501,42.9615703 9.86581336,43 9.84078172,43 Z" id="Shape" fill="#40527C"></path>
                                        <path d="M20.2802688,43 C20.1662614,43 20.0522539,42.9258383 20.0142515,42.8145958 C19.9382465,42.6291915 18.4561499,38.587379 19.2161994,36.2142046 C19.9382465,33.9522728 19.7862366,26.4619413 19.7482341,26.3877796 C19.7482341,26.2394562 19.8622415,26.0911328 20.0142515,26.0911328 C20.1662614,26.0911328 20.2802688,26.2023754 20.3182713,26.3506988 C20.3182713,26.6473456 20.5082837,33.9893537 19.7482341,36.3254472 C19.2542019,37.845762 19.8242391,40.2189363 20.2042638,41.5538469 C20.9263109,38.7727832 22.9024397,35.13886 26.1326502,30.726239 C28.8688286,27.0181541 31.4909995,24.1258478 31.529002,24.088767 C31.6430094,23.9775244 31.7950193,23.9775244 31.9090267,24.0516861 C32.0230342,24.1629287 32.0230342,24.3112521 31.9470292,24.4224946 C31.8330218,24.5337372 21.4963481,35.9175578 20.5462861,42.6662724 C20.5462861,42.8887575 20.4322787,43 20.2802688,43 C20.3182713,43 20.3182713,43 20.2802688,43 Z" id="Shape" fill="#40527C"></path>
                                        <path d="M20.2621338,49 C20.2621338,49 20.2621338,49 20.2621338,49 C20.1155965,49 19.9690593,48.8494272 20.0056936,48.6988543 C20.2621338,43.2782324 30.812815,32.0605565 32.2049188,30.5924714 L31.5455012,29.1620295 C31.5088669,29.086743 31.5088669,29.0114566 31.5455012,28.9361702 C31.5821355,28.8608838 31.6554042,28.8232406 31.7286728,28.7855974 L33.2306795,28.4091653 L33.4504854,26.2635025 C33.4504854,26.1129296 33.5970226,26 33.7435598,26 C33.8900971,26 34,26.1505728 34,26.3011457 L33.7435598,28.6726678 C33.7435598,28.7855974 33.6336569,28.898527 33.523754,28.898527 L32.1682845,29.2373159 L32.7910678,30.5548282 C32.8277021,30.6677578 32.8277021,30.7806874 32.7544335,30.8559738 C32.6445305,30.9689034 20.8482827,43.2405892 20.5918426,48.7364975 C20.518574,48.8870704 20.408671,49 20.2621338,49 Z" id="Shape" fill="#40527C"></path>
                                        <path d="M18.7531397,47 C18.6830142,47 18.5778258,46.9626894 18.542763,46.8507576 C17.4908791,45.0225375 16.3688697,32.5234824 16.3338069,31.9638232 C16.3338069,31.9265126 16.3338069,31.9265126 16.3338069,31.889202 L16.6493721,30.1356032 L15.0364835,27.4119285 C14.9663579,27.2999967 15.0014207,27.1134436 15.1066091,27.0388224 C15.2117975,26.9642012 15.3871114,27.0015118 15.457237,27.1134436 L17.1051884,29.9490501 C17.1402512,30.0236714 17.1402512,30.060982 17.1402512,30.1356032 L16.824686,31.9265126 C17.2103768,36.4037861 18.192135,45.17178 18.9635165,46.514962 C19.0336421,46.6268939 18.9985793,46.8134469 18.8933909,46.8880682 C18.8583281,46.9626894 18.7882025,47 18.7531397,47 Z" id="Shape" fill="#40527C"></path>
                                        <path d="M27.284637,48 C27.2117595,48 27.1753208,47.9629741 27.1024434,47.9259482 C26.9931272,47.8148704 26.9566885,47.6667667 27.0660047,47.5556889 C27.5032693,47.0003 28.5599921,45.6673668 28.7786244,45.5192631 C28.8879405,45.4081853 29.6167148,44.556589 30.236173,43.7790446 C30.2726117,43.7420187 30.2726117,43.7420187 30.3090505,43.7049928 L31.4386507,43.0385262 C31.5479668,42.9644743 31.7301604,43.0015002 31.8030379,43.112578 C31.8394766,43.1496039 32.0581089,43.5198632 31.9852314,44.0012002 C31.912354,44.4455113 31.4750894,44.7417187 31.3293345,44.8157705 L30.4183666,45.7784445 C30.3090505,45.8895223 30.1268569,45.8895223 30.0539794,45.7784445 C29.9446633,45.6673668 29.9446633,45.4822372 30.0539794,45.4081853 L31.0013861,44.4084854 C31.0378248,44.3714594 31.0378248,44.3714594 31.0742635,44.3344335 C31.1835797,44.2974076 31.4386507,44.112278 31.4750894,43.8901224 C31.4750894,43.7790446 31.4750894,43.7049928 31.4750894,43.6309409 L30.6369989,44.112278 C30.1997343,44.6306409 29.2887664,45.8154705 29.1065728,45.9265482 C28.9972567,46.037626 28.1956049,47.0003 27.5032693,47.8518963 C27.4668306,47.9629741 27.3939531,48 27.284637,48 Z" id="Shape" fill="#40527C"></path>
                                        <path d="M32.5107389,46 C32.4652262,46 32.4197136,46 32.3742009,46 C32.1921502,45.9545455 32.1011249,45.7272727 32.1921502,45.5454545 C32.3286882,45.2272727 32.3286882,44.9545455 32.2376629,44.7727273 C32.1921502,44.6818182 32.1011249,44.6363636 32.0556123,44.6363636 L31.3729223,44.7272727 C31.1908717,44.7727273 31.008821,44.6363636 31.008821,44.4545455 C30.9633084,44.2727273 31.0998464,44.0909091 31.281897,44.0909091 L32.0556123,44 C32.1011249,44 32.1011249,44 32.1466376,44 C32.1921502,44 32.6017642,44.0909091 32.8293275,44.4545455 C33.0568908,44.7727273 33.0568908,45.2272727 32.8293275,45.7727273 C32.7838149,45.9090909 32.6472769,46 32.5107389,46 Z" id="Shape" fill="#40527C"></path>
                                        <path d="M28.2653085,48 C28.1899423,48 28.076893,47.9585786 28.0392099,47.8343146 C27.9638438,47.7100505 28.0015269,47.5029437 28.1145761,47.420101 C28.3783578,47.2544155 29.0943365,46.7573592 29.282752,46.5502524 C29.5465336,46.2603029 30.2248293,45.8875107 30.3755617,45.804668 C31.3930052,44.9348194 31.6191037,44.9762408 31.732153,45.0176621 C31.8075192,45.0176621 31.9582515,45.1005048 31.9959346,45.3904544 C32.0336177,45.804668 31.8075192,46.8816233 31.3930052,47.0887301 C31.1669066,47.2129942 30.6016602,47.5857864 30.4509279,47.6686291 L30.3001955,47.8757359 C30.1871462,48 30.0364138,48 29.9233646,47.8757359 C29.8103153,47.7514718 29.8103153,47.5857864 29.9233646,47.4615223 L30.11178,47.2544155 C30.1494631,47.2129942 30.1494631,47.2129942 30.1871462,47.2129942 C30.1871462,47.2129942 30.903125,46.7573592 31.1669066,46.5916738 C31.2799559,46.5088311 31.3930052,46.0946175 31.4306882,45.7632466 C31.2045897,45.8875107 30.940808,46.1360388 30.6770264,46.3431456 C30.6770264,46.3431456 30.6393433,46.384567 30.6393433,46.384567 C30.4509279,46.5088311 29.8479984,46.8402019 29.6595829,47.0473087 C29.3958013,47.3372583 28.4914071,47.9171573 28.4160409,48 C28.3783578,47.9585786 28.3029916,48 28.2653085,48 Z" id="Shape" fill="#40527C"></path>
                                        <path d="M14.546585,53 C14.0424586,53 13.672766,52.8409091 13.4038986,52.4829545 C12.9669891,51.9659091 13.0005975,51.2102273 13.0005975,51.1704545 C13.0005975,49.0625 15.9917473,46.1988636 16.0925725,46.0795455 C16.126181,46.0397727 16.1933978,46 16.2606147,46 L16.764741,46 C16.8991747,46 17,46.1193182 17,46.2784091 C17,46.4375 16.8991747,46.5568182 16.764741,46.5568182 L16.3614399,46.5568182 C15.5212293,47.3920455 13.5047239,49.6590909 13.5047239,51.1704545 C13.5047239,51.1704545 13.5047239,51.7272727 13.7735912,52.0852273 C13.9416334,52.2840909 14.2105008,52.4034091 14.546585,52.4034091 C14.6810187,52.4034091 14.781844,52.5227273 14.781844,52.6818182 C14.8154524,52.8806818 14.6810187,53 14.546585,53 Z" id="Shape" fill="#40527C"></path>
                                        <path d="M8.29065303,48 C8.18165815,48 8.10899489,47.9595618 8.03633163,47.8382472 C7.96366837,47.6764943 8,47.5147415 8.14532652,47.4338651 C8.21798977,47.3934269 8.43597955,47.2316741 8.32698466,46.827292 C8.21798977,46.4633481 8.29065303,46.2207189 8.36331629,46.058966 C8.43597955,45.9376514 8.54497444,45.8163368 8.65396932,45.7758986 C8.61763769,45.3715165 8.65396932,44.684067 9.08994887,44.2796849 C9.41693353,43.9966175 9.67125494,43.9561793 9.88924471,43.9157411 C10.1072345,43.8753029 10.252561,43.8348646 10.4705508,43.4709208 C11.0518568,42.3790892 12.8684383,43.511359 13.0500964,43.6326736 C13.0500964,43.6326736 13.0864281,43.6326736 13.0864281,43.6731118 C13.5950709,44.1179321 15.048336,45.3310783 15.7749686,45.4928311 C15.9202951,45.5332694 16.02929,45.6950222 15.9929584,45.856775 C15.9566268,46.0185278 15.8113002,46.1398425 15.6659737,46.0994043 C14.6850197,45.8972132 12.9411016,44.3605613 12.7594434,44.1583703 C12.2871322,43.8348646 11.1608517,43.3496062 10.9065303,43.7944264 C10.5795457,44.4009996 10.252561,44.481876 9.96190797,44.5223142 C9.78024982,44.5627524 9.59859168,44.5627524 9.3806019,44.7649434 C9.08994887,45.0075727 9.1262805,45.6950222 9.16261213,45.9376514 C9.16261213,46.0185278 9.16261213,46.0994043 9.1262805,46.1802807 C9.08994887,46.2611571 9.01728561,46.3015953 8.94462236,46.3015953 C8.90829073,46.3015953 8.83562747,46.3420335 8.79929584,46.4229099 C8.76296421,46.5037863 8.79929584,46.5846627 8.79929584,46.6655392 C9.01728561,47.3529887 8.61763769,47.8382472 8.36331629,47.9595618 C8.39964792,48 8.32698466,48 8.29065303,48 Z" id="Shape" fill="#40527C"></path>
                                        <path d="M12.6373287,51 C12.5996543,51 12.5619799,51 12.5243055,50.9602893 C12.4866311,50.9602893 12.4112822,50.9205786 12.3736078,50.8808679 C12.1852358,50.8014465 12.0722125,50.5631823 12.1475614,50.3646289 C12.2229102,50.1660754 12.4489566,50.0469433 12.6373287,50.1263647 C12.6750031,50.1263647 12.7126775,50.1660754 12.7503519,50.1660754 C12.938724,50.2454968 13.0517472,50.483761 12.9763984,50.6823144 C12.938724,50.8808679 12.7880263,51 12.6373287,51 Z M11.5070964,50.4043396 C11.4317475,50.4043396 11.3940731,50.4043396 11.3187243,50.3646289 C11.0926778,50.2454968 10.8666314,50.086654 10.6782593,49.9278112 C10.4898873,49.8086791 10.4522128,49.570415 10.5652361,49.3718615 C10.6782593,49.173308 10.9043058,49.1335973 11.0926778,49.2527294 C11.2810499,49.3718615 11.5070964,49.5307043 11.6954684,49.6498364 C11.8838405,49.7689684 11.9215149,50.0072326 11.8084917,50.2057861 C11.7708172,50.3249182 11.6201196,50.4043396 11.5070964,50.4043396 Z M9.9624455,49.2924401 C9.88709668,49.2924401 9.81174785,49.2527294 9.73639903,49.2130187 C9.35965492,48.9350438 9.13360845,48.6967797 9.13360845,48.6967797 C8.9829108,48.5379369 8.94523639,48.2996727 9.09593404,48.1408299 C9.24663168,47.9819871 9.47267815,47.9422764 9.6233758,48.1011192 C9.6233758,48.1011192 9.84942227,48.2996727 10.188492,48.5776476 C10.3391896,48.6967797 10.376864,48.9747545 10.2638408,49.1335973 C10.188492,49.2527294 10.0754687,49.2924401 9.9624455,49.2924401 Z" id="Shape" fill="#40527C"></path>
                                        <path d="M23.7067552,32 C23.6328555,32 23.5589558,31.961726 23.4850561,31.8851781 C23.2264071,31.6172603 22.3396107,31.6938082 21.9331624,31.6938082 C21.6006137,31.7320822 21.4528143,31.7320822 21.3419647,31.5789863 C21.3050149,31.5407123 21.268065,31.4641644 21.0094161,30.3542192 C20.9724662,30.2011234 21.0463659,30.0480275 21.1941653,30.0097535 C21.3419647,29.9714795 21.4897641,30.0480275 21.526714,30.2011234 C21.6006137,30.5455891 21.7114632,30.9283288 21.785363,31.1579726 C21.8223128,31.1579726 21.8592627,31.1579726 21.8962125,31.1579726 C22.52436,31.1196987 23.1894573,31.0814247 23.6328555,31.3110685 C23.8545546,31.0048768 24.261003,30.5455891 24.7044012,30.5455891 C24.8522006,30.5455891 25,30.660411 25,30.8135069 C25,30.9666028 24.8891504,31.1196987 24.741351,31.1196987 C24.5196519,31.1196987 24.1501534,31.5789863 23.9654042,31.8851781 C23.8915045,31.9234521 23.8176048,31.961726 23.7067552,32 C23.7437051,32 23.7067552,32 23.7067552,32 Z" id="Shape" fill="#40527C"></path>
                                        <path d="M20.234174,36 C20.1003603,36 20,35.8853076 20,35.7323844 C20,35.3500764 20.9366959,32.7503822 21.5054042,31.1829194 C21.572311,31.0299963 21.7061247,30.9535347 21.8399384,31.0299963 C21.9737521,31.1064579 22.040659,31.259381 21.9737521,31.4123042 C21.2712302,33.3238441 20.5352548,35.426538 20.5018014,35.7323844 C20.5018014,35.8853076 20.4014411,36 20.234174,36 C20.2676274,36 20.2676274,36 20.234174,36 Z" id="Shape" fill="#40527C"></path>
                                        <path d="M23.4648373,34 C23.3681431,34 23.3036803,33.9354839 23.2392175,33.8709677 C22.9169034,33.1612903 23.0135976,31.4193548 23.0135976,31.2258065 C23.0135976,31.0967742 23.1425232,31 23.2714489,31 C23.4003745,31 23.4970687,31.1290323 23.4970687,31.2580645 C23.4648373,31.7419355 23.4326059,33.1612903 23.6582257,33.6451613 C23.7226885,33.7741935 23.6582257,33.9032258 23.5615315,33.9677419 C23.5293001,34 23.4970687,34 23.4648373,34 Z" id="Shape" fill="#40527C"></path>
                                        <path d="M21.232,34 C21.168,34 21.104,33.9678715 21.072,33.935743 C20.976,33.8393574 20.976,33.6787149 21.072,33.6144578 L22.608,32.0722892 C22.704,31.9759036 22.864,31.9759036 22.928,32.0722892 C23.024,32.1686747 23.024,32.3293173 22.928,32.3935743 L21.392,33.935743 C21.36,33.9678715 21.296,34 21.232,34 Z" id="Shape" fill="#40527C"></path>
                                        <path d="M20.2377049,37 C20.1721311,37 20.1065574,36.9671233 20.0737705,36.9342466 C19.9754098,36.8356164 19.9754098,36.6712329 20.0737705,36.6054795 L22.5983607,34.0739726 C22.6967213,33.9753425 22.8606557,33.9753425 22.9262295,34.0739726 C23.0245902,34.1726027 23.0245902,34.3369863 22.9262295,34.4027397 L20.4016393,36.9342466 C20.3688525,36.9671233 20.3032787,37 20.2377049,37 Z" id="Shape" fill="#40527C"></path>
                                        <path d="M20.2357724,39 C20.1707317,39 20.1056911,38.9673469 20.0731707,38.9346939 C19.9756098,38.8367347 19.9756098,38.6734694 20.0731707,38.6081633 L21.601626,37.0734694 C21.699187,36.9755102 21.8617886,36.9755102 21.9268293,37.0734694 C22.0243902,37.1714286 22.0243902,37.3346939 21.9268293,37.4 L20.398374,38.9346939 C20.3658537,38.9673469 20.300813,39 20.2357724,39 Z" id="Shape" fill="#40527C"></path>
                                        <path d="M15.268796,72 C15.1952913,72 15.0850342,71.9684113 15.0482819,71.9052338 C14.9747772,71.8104676 14.9747772,71.6525239 15.1217866,71.5893464 L17.5841945,70.0414984 C17.6944516,69.9783209 17.8782134,69.9783209 17.9517181,70.1046759 C18.0252228,70.1994421 18.0252228,70.3573857 17.8782134,70.4205632 L15.4158055,71.9684113 C15.3790531,71.9684113 15.3055484,72 15.268796,72 Z" id="Shape" fill="#40527C"></path>
                                        <path d="M16.3309541,69 C16.2462178,69 16.1614815,68.9543498 16.0767452,68.8630493 C15.9496407,68.7260986 15.9920089,68.4978475 16.1191133,68.406547 L17.5172625,67.0826903 C17.6443669,66.9457396 17.8562077,66.9913898 17.940944,67.1283405 C18.0256803,67.2652912 18.0256803,67.4935424 17.8985759,67.5848428 L16.5004267,68.9086995 C16.4580586,69 16.3733223,69 16.3309541,69 Z" id="Shape" fill="#40527C"></path>
                                        <path d="M16.2453136,74 C16.1782304,74 16.0776055,73.957729 16.0440639,73.8731869 C15.9769807,73.7463737 15.9769807,73.5350185 16.1111471,73.4504764 L17.6205199,72.0555318 C17.7211448,71.9709897 17.8888529,71.9709897 17.9559361,72.1400739 C18.0230193,72.2668871 18.0230193,72.4782423 17.8888529,72.5627844 L16.3794801,73.957729 C16.3459385,73.957729 16.3123968,74 16.2453136,74 Z" id="Shape" fill="#40527C"></path>
                                    </g>
                                    <g id="Group" opacity="0.5" transform="translate(83.000000, 48.000000)" fill-rule="nonzero">
                                        <path d="M0.740959432,5.31847134 C0.676528177,6.71974522 0.90203757,8.31210191 1.73964388,9.01273885 C2.2228783,9.42675159 2.80275959,9.42675159 3.35042526,9.45859873 C13.4339167,9.55414013 23.5174081,9.68152866 33.6331151,9.77707006 C35.2116808,9.8089172 36.8546778,9.77707006 38.2077342,8.63057325 C39.5607906,7.48407643 40.4628281,4.77707006 39.6574374,2.80254777 C38.8198311,0.700636943 36.7902466,0.636942675 35.115034,0.796178344 C28.7363397,1.46496815 22.3576455,1.78343949 15.9467356,1.71974522 C12.8218197,1.68789809 9.66468825,1.56050955 6.53977238,1.36942675 C5.31557854,1.27388535 2.77054396,0.318471338 1.642997,0.987261146 C0.547665667,1.62420382 0.837606315,3.31210191 0.740959432,5.31847134 Z" id="Shape" fill="#EAEFF9"></path>
                                        <path d="M0.676528177,25.0955414 C0.612096922,26.4968153 0.934253197,28.089172 2.12623141,28.7898089 C2.83497522,29.2038217 3.70479716,29.2038217 4.51018785,29.2356688 C19.4904546,29.3312102 34.4707214,29.4585987 49.4509882,29.5541401 C51.7705134,29.5859873 54.2189011,29.5541401 56.2484856,28.4076433 C58.2780701,27.2611465 59.5989108,24.5541401 58.4069326,22.5796178 C57.1505232,20.477707 54.1544698,20.4140127 51.6738665,20.5732484 C42.202472,21.2420382 32.7310775,21.5605096 23.2274674,21.4968153 C18.5562014,21.4649682 13.9171511,21.3375796 9.24588509,21.1464968 C7.40959432,21.0509554 3.64036591,20.0955414 1.9973689,20.7643312 C0.38658753,21.4012739 0.805390687,23.089172 0.676528177,25.0955414 Z" id="Shape" fill="#D4E1F9"></path>
                                        <path d="M88.7862694,45.1592357 C88.9151319,46.5605096 88.3996818,48.1528662 86.5633911,48.8535032 C85.5002753,49.2675159 84.1794346,49.2675159 82.9552408,49.2993631 C60.3076547,49.3949045 37.6600685,49.522293 15.0124824,49.6178344 C11.500979,49.6496815 5.31557854,50.5095541 2.25509392,49.3630573 C-0.805390687,48.2165605 -0.354371902,44.6178344 1.44970324,42.6433121 C3.35042526,40.5414013 7.89282873,40.477707 11.6298415,40.6369427 C25.9335801,41.3057325 40.2695344,41.6242038 54.6054886,41.5605096 C61.660711,41.5286624 68.6837178,41.4012739 75.7067246,41.2101911 C78.4772686,41.1146497 84.147219,40.1592357 86.6600379,40.8280255 C89.2050725,41.4649682 88.5929756,43.1528662 88.7862694,45.1592357 Z" id="Shape" fill="#D4E1F9"></path>
                                        <path d="M0.64431255,5.76433121 C0.38658753,5.76433121 0.193293765,5.57324841 0.193293765,5.31847134 L0.193293765,0.700636943 C0.193293765,0.445859873 0.38658753,0.25477707 0.64431255,0.25477707 L22.7120174,0.25477707 C22.9697424,0.25477707 23.1630362,0.445859873 23.1630362,0.700636943 C23.1630362,0.955414013 22.9697424,1.14649682 22.7120174,1.14649682 L1.09533133,1.14649682 L1.09533133,5.2866242 C1.09533133,5.57324841 0.90203757,5.76433121 0.64431255,5.76433121 Z" id="Shape" fill="#40527C"></path>
                                        <path d="M4.89677538,9.7133758 L3.99473781,9.7133758 C3.73701279,9.7133758 3.54371902,9.52229299 3.54371902,9.26751592 C3.54371902,9.01273885 3.73701279,8.82165605 3.99473781,8.82165605 L4.89677538,8.82165605 C5.1545004,8.82165605 5.34779416,9.01273885 5.34779416,9.26751592 C5.34779416,9.52229299 5.1545004,9.7133758 4.89677538,9.7133758 Z M2.60946583,9.7133758 L1.70742826,9.7133758 C1.44970324,9.7133758 1.25640947,9.52229299 1.25640947,9.26751592 C1.25640947,9.01273885 1.44970324,8.82165605 1.70742826,8.82165605 L2.60946583,8.82165605 C2.86719085,8.82165605 3.06048461,9.01273885 3.06048461,9.26751592 C3.06048461,9.52229299 2.86719085,9.7133758 2.60946583,9.7133758 Z M0.64431255,9.36305732 C0.38658753,9.36305732 0.193293765,9.17197452 0.193293765,8.91719745 L0.193293765,8.02547771 C0.193293765,7.77070064 0.38658753,7.57961783 0.64431255,7.57961783 C0.90203757,7.57961783 1.09533133,7.77070064 1.09533133,8.02547771 L1.09533133,8.91719745 C1.09533133,9.17197452 0.90203757,9.36305732 0.64431255,9.36305732 Z" id="Shape" fill="#40527C"></path>
                                        <path d="M39.8829468,9.7133758 L8.02169124,9.7133758 C7.76396622,9.7133758 7.57067246,9.52229299 7.57067246,9.26751592 C7.57067246,9.01273885 7.76396622,8.82165605 8.02169124,8.82165605 L39.431928,8.82165605 L39.431928,6.94267516 C39.431928,6.68789809 39.6252218,6.49681529 39.8829468,6.49681529 C40.1406718,6.49681529 40.3339656,6.68789809 40.3339656,6.94267516 L40.3339656,9.26751592 C40.3661812,9.49044586 40.1406718,9.7133758 39.8829468,9.7133758 Z" id="Shape" fill="#40527C"></path>
                                        <path d="M39.8829468,4.49044586 C39.6252218,4.49044586 39.431928,4.29936306 39.431928,4.04458599 L39.431928,3.15286624 C39.431928,2.89808917 39.6252218,2.70700637 39.8829468,2.70700637 C40.1406718,2.70700637 40.3339656,2.89808917 40.3339656,3.15286624 L40.3339656,4.04458599 C40.3661812,4.29936306 40.1406718,4.49044586 39.8829468,4.49044586 Z M39.8829468,2.22929936 C39.6252218,2.22929936 39.431928,2.03821656 39.431928,1.78343949 L39.431928,0.891719745 C39.431928,0.636942675 39.6252218,0.445859873 39.8829468,0.445859873 C40.1406718,0.445859873 40.3339656,0.636942675 40.3339656,0.891719745 L40.3339656,1.78343949 C40.3661812,2.03821656 40.1406718,2.22929936 39.8829468,2.22929936 Z M38.6909686,1.14649682 L37.788931,1.14649682 C37.531206,1.14649682 37.3379123,0.955414013 37.3379123,0.700636943 C37.3379123,0.445859873 37.531206,0.25477707 37.788931,0.25477707 L38.6909686,0.25477707 C38.9486936,0.25477707 39.1419874,0.445859873 39.1419874,0.700636943 C39.1419874,0.955414013 38.9486936,1.14649682 38.6909686,1.14649682 Z M36.4036591,1.14649682 L35.5016215,1.14649682 C35.2438965,1.14649682 35.0506027,0.955414013 35.0506027,0.700636943 C35.0506027,0.445859873 35.2438965,0.25477707 35.5016215,0.25477707 L36.4036591,0.25477707 C36.6613841,0.25477707 36.8546778,0.445859873 36.8546778,0.700636943 C36.8546778,0.955414013 36.6613841,1.14649682 36.4036591,1.14649682 Z M34.1163495,1.14649682 L33.1820963,1.14649682 C32.9243713,1.14649682 32.7310775,0.955414013 32.7310775,0.700636943 C32.7310775,0.445859873 32.9243713,0.25477707 33.1820963,0.25477707 L34.0841339,0.25477707 C34.3418589,0.25477707 34.5351527,0.445859873 34.5351527,0.700636943 C34.5351527,0.955414013 34.3418589,1.14649682 34.1163495,1.14649682 Z M31.82904,1.14649682 L30.9270024,1.14649682 C30.6692774,1.14649682 30.4759836,0.955414013 30.4759836,0.700636943 C30.4759836,0.445859873 30.6692774,0.25477707 30.9270024,0.25477707 L31.82904,0.25477707 C32.086765,0.25477707 32.2800587,0.445859873 32.2800587,0.700636943 C32.2800587,0.955414013 32.0545493,1.14649682 31.82904,1.14649682 Z M29.5095148,1.14649682 L28.6074772,1.14649682 C28.3497522,1.14649682 28.1564584,0.955414013 28.1564584,0.700636943 C28.1564584,0.445859873 28.3497522,0.25477707 28.6074772,0.25477707 L29.5095148,0.25477707 C29.7672398,0.25477707 29.9605336,0.445859873 29.9605336,0.700636943 C29.9605336,0.955414013 29.7672398,1.14649682 29.5095148,1.14649682 Z M27.2222052,1.14649682 L26.3201677,1.14649682 C26.0624426,1.14649682 25.8691489,0.955414013 25.8691489,0.700636943 C25.8691489,0.445859873 26.0624426,0.25477707 26.3201677,0.25477707 L27.2222052,0.25477707 C27.4799302,0.25477707 27.673224,0.445859873 27.673224,0.700636943 C27.673224,0.955414013 27.4799302,1.14649682 27.2222052,1.14649682 Z M24.9348957,1.14649682 L24.0328581,1.14649682 C23.7751331,1.14649682 23.5818393,0.955414013 23.5818393,0.700636943 C23.5818393,0.445859873 23.7751331,0.25477707 24.0328581,0.25477707 L24.9348957,0.25477707 C25.1926207,0.25477707 25.3859145,0.445859873 25.3859145,0.700636943 C25.3859145,0.955414013 25.1926207,1.14649682 24.9348957,1.14649682 Z" id="Shape" fill="#40527C"></path>
                                        <path d="M48.1301475,21.2101911 L47.2281099,21.2101911 C46.9703849,21.2101911 46.7770911,21.0191083 46.7770911,20.7643312 C46.7770911,20.5095541 46.9703849,20.3184713 47.2281099,20.3184713 L48.1301475,20.3184713 C48.3878725,20.3184713 48.5811662,20.5095541 48.5811662,20.7643312 C48.5811662,21.0191083 48.3878725,21.2101911 48.1301475,21.2101911 Z M45.8428379,21.2101911 L44.9408003,21.2101911 C44.6830753,21.2101911 44.4897816,21.0191083 44.4897816,20.7643312 C44.4897816,20.5095541 44.6830753,20.3184713 44.9408003,20.3184713 L45.8428379,20.3184713 C46.1005629,20.3184713 46.2938567,20.5095541 46.2938567,20.7643312 C46.2938567,21.0191083 46.1005629,21.2101911 45.8428379,21.2101911 Z M43.5555284,21.2101911 L42.6534908,21.2101911 C42.3957658,21.2101911 42.202472,21.0191083 42.202472,20.7643312 C42.202472,20.5095541 42.3957658,20.3184713 42.6534908,20.3184713 L43.5555284,20.3184713 C43.8132534,20.3184713 44.0065471,20.5095541 44.0065471,20.7643312 C44.0065471,21.0191083 43.8132534,21.2101911 43.5555284,21.2101911 Z M41.2682188,21.2101911 L40.3661812,21.2101911 C40.1084562,21.2101911 39.9151625,21.0191083 39.9151625,20.7643312 C39.9151625,20.5095541 40.1084562,20.3184713 40.3661812,20.3184713 L41.2682188,20.3184713 C41.5259438,20.3184713 41.7192376,20.5095541 41.7192376,20.7643312 C41.7192376,21.0191083 41.5259438,21.2101911 41.2682188,21.2101911 Z M38.9809093,21.2101911 L38.0788717,21.2101911 C37.8211467,21.2101911 37.6278529,21.0191083 37.6278529,20.7643312 C37.6278529,20.5095541 37.8211467,20.3184713 38.0788717,20.3184713 L38.9809093,20.3184713 C39.2386343,20.3184713 39.431928,20.5095541 39.431928,20.7643312 C39.431928,21.0191083 39.2064187,21.2101911 38.9809093,21.2101911 Z M36.6613841,21.2101911 L35.7593465,21.2101911 C35.5016215,21.2101911 35.3083277,21.0191083 35.3083277,20.7643312 C35.3083277,20.5095541 35.5016215,20.3184713 35.7593465,20.3184713 L36.6613841,20.3184713 C36.9191091,20.3184713 37.1124029,20.5095541 37.1124029,20.7643312 C37.1124029,21.0191083 36.9191091,21.2101911 36.6613841,21.2101911 Z M34.3740745,21.2101911 L33.472037,21.2101911 C33.2143119,21.2101911 33.0210182,21.0191083 33.0210182,20.7643312 C33.0210182,20.5095541 33.2143119,20.3184713 33.472037,20.3184713 L34.3740745,20.3184713 C34.6317995,20.3184713 34.8250933,20.5095541 34.8250933,20.7643312 C34.8250933,21.0191083 34.6317995,21.2101911 34.3740745,21.2101911 Z M32.086765,21.2101911 L31.1847274,21.2101911 C30.9270024,21.2101911 30.7337086,21.0191083 30.7337086,20.7643312 C30.7337086,20.5095541 30.9270024,20.3184713 31.1847274,20.3184713 L32.086765,20.3184713 C32.34449,20.3184713 32.5377838,20.5095541 32.5377838,20.7643312 C32.5377838,21.0191083 32.34449,21.2101911 32.086765,21.2101911 Z M29.7994554,21.2101911 L28.8974179,21.2101911 C28.6396928,21.2101911 28.4463991,21.0191083 28.4463991,20.7643312 C28.4463991,20.5095541 28.6396928,20.3184713 28.8974179,20.3184713 L29.7994554,20.3184713 C30.0571804,20.3184713 30.2504742,20.5095541 30.2504742,20.7643312 C30.2504742,21.0191083 30.0571804,21.2101911 29.7994554,21.2101911 Z M27.5121459,21.2101911 L26.6101083,21.2101911 C26.3523833,21.2101911 26.1590895,21.0191083 26.1590895,20.7643312 C26.1590895,20.5095541 26.3523833,20.3184713 26.6101083,20.3184713 L27.5121459,20.3184713 C27.7698709,20.3184713 27.9631647,20.5095541 27.9631647,20.7643312 C27.9631647,21.0191083 27.7698709,21.2101911 27.5121459,21.2101911 Z M25.2248363,21.2101911 L24.3227988,21.2101911 C24.0650737,21.2101911 23.87178,21.0191083 23.87178,20.7643312 C23.87178,20.5095541 24.0650737,20.3184713 24.3227988,20.3184713 L25.2248363,20.3184713 C25.4825613,20.3184713 25.6758551,20.5095541 25.6758551,20.7643312 C25.6758551,21.0191083 25.4825613,21.2101911 25.2248363,21.2101911 Z M22.9375268,21.2101911 L22.0354892,21.2101911 C21.7777642,21.2101911 21.5844704,21.0191083 21.5844704,20.7643312 C21.5844704,20.5095541 21.7777642,20.3184713 22.0354892,20.3184713 L22.9375268,20.3184713 C23.1952518,20.3184713 23.3885456,20.5095541 23.3885456,20.7643312 C23.3885456,21.0191083 23.1952518,21.2101911 22.9375268,21.2101911 Z M20.6502172,21.2101911 L19.7481796,21.2101911 C19.4904546,21.2101911 19.2971609,21.0191083 19.2971609,20.7643312 C19.2971609,20.5095541 19.4904546,20.3184713 19.7481796,20.3184713 L20.6502172,20.3184713 C20.9079422,20.3184713 21.101236,20.5095541 21.101236,20.7643312 C21.101236,21.0191083 20.9079422,21.2101911 20.6502172,21.2101911 Z M18.3629077,21.2101911 L17.4608701,21.2101911 C17.2031451,21.2101911 17.0098513,21.0191083 17.0098513,20.7643312 C17.0098513,20.5095541 17.2031451,20.3184713 17.4608701,20.3184713 L18.3629077,20.3184713 C18.6206327,20.3184713 18.8139265,20.5095541 18.8139265,20.7643312 C18.8139265,21.0191083 18.6206327,21.2101911 18.3629077,21.2101911 Z" id="Shape" fill="#40527C"></path>
                                        <path d="M58.9223827,29.7770701 L0.64431255,29.7770701 C0.38658753,29.7770701 0.193293765,29.5859873 0.193293765,29.3312102 L0.193293765,20.7961783 C0.193293765,20.5414013 0.38658753,20.3503185 0.64431255,20.3503185 L15.656795,20.3503185 C15.91452,20.3503185 16.1078137,20.5414013 16.1078137,20.7961783 C16.1078137,21.0509554 15.91452,21.2420382 15.656795,21.2420382 L1.09533133,21.2420382 L1.09533133,28.8853503 L58.4713639,28.8853503 L58.4713639,21.2420382 L50.7396133,21.2420382 C50.4818883,21.2420382 50.2885945,21.0509554 50.2885945,20.7961783 C50.2885945,20.5414013 50.4818883,20.3503185 50.7396133,20.3503185 L58.9223827,20.3503185 C59.1801077,20.3503185 59.3734015,20.5414013 59.3734015,20.7961783 L59.3734015,29.2993631 C59.3734015,29.5541401 59.1801077,29.7770701 58.9223827,29.7770701 Z" id="Shape" fill="#40527C"></path>
                                        <path d="M88.7862694,49.8089172 L27.930949,49.8089172 C27.673224,49.8089172 27.4799302,49.6178344 27.4799302,49.3630573 C27.4799302,49.1082803 27.673224,48.9171975 27.930949,48.9171975 L88.3352506,48.9171975 L88.3352506,41.2738854 L1.09533133,41.2738854 L1.09533133,42.3248408 C1.09533133,42.5796178 0.90203757,42.7707006 0.64431255,42.7707006 C0.38658753,42.7707006 0.193293765,42.5796178 0.193293765,42.3248408 L0.193293765,40.8280255 C0.193293765,40.5732484 0.38658753,40.3821656 0.64431255,40.3821656 L88.7862694,40.3821656 C89.0439944,40.3821656 89.2372881,40.5732484 89.2372881,40.8280255 L89.2372881,49.3630573 C89.2372881,49.6178344 89.0439944,49.8089172 88.7862694,49.8089172 Z" id="Shape" fill="#40527C"></path>
                                        <path d="M26.8356177,49.8089172 L25.9335801,49.8089172 C25.6758551,49.8089172 25.4825613,49.6178344 25.4825613,49.3630573 C25.4825613,49.1082803 25.6758551,48.9171975 25.9335801,48.9171975 L26.8356177,48.9171975 C27.0933427,48.9171975 27.2866365,49.1082803 27.2866365,49.3630573 C27.3188521,49.6178344 27.0933427,49.8089172 26.8356177,49.8089172 Z M24.5483081,49.8089172 L23.6462706,49.8089172 C23.3885456,49.8089172 23.1952518,49.6178344 23.1952518,49.3630573 C23.1952518,49.1082803 23.3885456,48.9171975 23.6462706,48.9171975 L24.5483081,48.9171975 C24.8060332,48.9171975 24.9993269,49.1082803 24.9993269,49.3630573 C25.0315426,49.6178344 24.8060332,49.8089172 24.5483081,49.8089172 Z M22.2609986,49.8089172 L21.358961,49.8089172 C21.101236,49.8089172 20.9079422,49.6178344 20.9079422,49.3630573 C20.9079422,49.1082803 21.101236,48.9171975 21.358961,48.9171975 L22.2609986,48.9171975 C22.5187236,48.9171975 22.7120174,49.1082803 22.7120174,49.3630573 C22.744233,49.6178344 22.5187236,49.8089172 22.2609986,49.8089172 Z M19.973689,49.8089172 L19.0716515,49.8089172 C18.8139265,49.8089172 18.6206327,49.6178344 18.6206327,49.3630573 C18.6206327,49.1082803 18.8139265,48.9171975 19.0716515,48.9171975 L19.973689,48.9171975 C20.2314141,48.9171975 20.4247078,49.1082803 20.4247078,49.3630573 C20.4247078,49.6178344 20.2314141,49.8089172 19.973689,49.8089172 Z M17.6863795,49.8089172 L16.7843419,49.8089172 C16.5266169,49.8089172 16.3333231,49.6178344 16.3333231,49.3630573 C16.3333231,49.1082803 16.5266169,48.9171975 16.7843419,48.9171975 L17.6863795,48.9171975 C17.9441045,48.9171975 18.1373983,49.1082803 18.1373983,49.3630573 C18.1373983,49.6178344 17.9441045,49.8089172 17.6863795,49.8089172 Z M15.3990699,49.8089172 L14.4970324,49.8089172 C14.2393073,49.8089172 14.0460136,49.6178344 14.0460136,49.3630573 C14.0460136,49.1082803 14.2393073,48.9171975 14.4970324,48.9171975 L15.3990699,48.9171975 C15.656795,48.9171975 15.8500887,49.1082803 15.8500887,49.3630573 C15.8500887,49.6178344 15.656795,49.8089172 15.3990699,49.8089172 Z M13.1117604,49.8089172 L12.2097228,49.8089172 C11.9519978,49.8089172 11.758704,49.6178344 11.758704,49.3630573 C11.758704,49.1082803 11.9519978,48.9171975 12.2097228,48.9171975 L13.1117604,48.9171975 C13.3694854,48.9171975 13.5627792,49.1082803 13.5627792,49.3630573 C13.5627792,49.6178344 13.3694854,49.8089172 13.1117604,49.8089172 Z M10.8244508,49.8089172 L9.92241327,49.8089172 C9.66468825,49.8089172 9.47139448,49.6178344 9.47139448,49.3630573 C9.47139448,49.1082803 9.66468825,48.9171975 9.92241327,48.9171975 L10.8244508,48.9171975 C11.0821759,48.9171975 11.2754696,49.1082803 11.2754696,49.3630573 C11.2754696,49.6178344 11.0821759,49.8089172 10.8244508,49.8089172 Z M8.53714128,49.8089172 L7.63510371,49.8089172 C7.37737869,49.8089172 7.18408493,49.6178344 7.18408493,49.3630573 C7.18408493,49.1082803 7.37737869,48.9171975 7.63510371,48.9171975 L8.53714128,48.9171975 C8.7948663,48.9171975 8.98816007,49.1082803 8.98816007,49.3630573 C8.98816007,49.6178344 8.7948663,49.8089172 8.53714128,49.8089172 Z M6.24983173,49.8089172 L5.34779416,49.8089172 C5.09006914,49.8089172 4.89677538,49.6178344 4.89677538,49.3630573 C4.89677538,49.1082803 5.09006914,48.9171975 5.34779416,48.9171975 L6.24983173,48.9171975 C6.50755675,48.9171975 6.70085052,49.1082803 6.70085052,49.3630573 C6.70085052,49.6178344 6.50755675,49.8089172 6.24983173,49.8089172 Z M3.96252218,49.8089172 L3.06048461,49.8089172 C2.80275959,49.8089172 2.60946583,49.6178344 2.60946583,49.3630573 C2.60946583,49.1082803 2.80275959,48.9171975 3.06048461,48.9171975 L3.96252218,48.9171975 C4.2202472,48.9171975 4.41354097,49.1082803 4.41354097,49.3630573 C4.41354097,49.6178344 4.18803157,49.8089172 3.96252218,49.8089172 Z M1.642997,49.8089172 L0.740959432,49.8089172 C0.483234412,49.8089172 0.289940647,49.6178344 0.289940647,49.3630573 C0.289940647,49.1082803 0.483234412,48.9171975 0.740959432,48.9171975 L1.642997,48.9171975 C1.90072202,48.9171975 2.09401579,49.1082803 2.09401579,49.3630573 C2.12623141,49.6178344 1.90072202,49.8089172 1.642997,49.8089172 Z M0.64431255,48.566879 C0.38658753,48.566879 0.193293765,48.3757962 0.193293765,48.1210191 L0.193293765,47.2292994 C0.193293765,46.9745223 0.38658753,46.7834395 0.64431255,46.7834395 C0.90203757,46.7834395 1.09533133,46.9745223 1.09533133,47.2292994 L1.09533133,48.1210191 C1.09533133,48.343949 0.90203757,48.566879 0.64431255,48.566879 Z M0.64431255,46.3057325 C0.38658753,46.3057325 0.193293765,46.1146497 0.193293765,45.8598726 L0.193293765,44.9681529 C0.193293765,44.7133758 0.38658753,44.522293 0.64431255,44.522293 C0.90203757,44.522293 1.09533133,44.7133758 1.09533133,44.9681529 L1.09533133,45.8598726 C1.09533133,46.0828025 0.90203757,46.3057325 0.64431255,46.3057325 Z M0.64431255,44.0127389 C0.38658753,44.0127389 0.193293765,43.8216561 0.193293765,43.566879 L0.193293765,43.5031847 C0.193293765,43.2484076 0.38658753,43.0573248 0.64431255,43.0573248 C0.90203757,43.0573248 1.09533133,43.2484076 1.09533133,43.5031847 L1.09533133,43.566879 C1.09533133,43.8216561 0.90203757,44.0127389 0.64431255,44.0127389 Z" id="Shape" fill="#40527C"></path>
                                    </g>
                                    <g id="Group" opacity="0.5" transform="translate(84.000000, 113.000000)" fill-rule="nonzero">
                                        <path d="M2.94063927,3.18947368 L2.94063927,2.36842105 C2.94063927,2.11578947 2.81278539,1.89473684 2.5890411,1.76842105 L1.91780822,1.35789474 C1.69406393,1.23157895 1.40639269,1.23157895 1.1826484,1.35789474 L0.511415525,1.76842105 C0.287671233,1.89473684 0.159817352,2.11578947 0.159817352,2.36842105 L0.159817352,3.18947368 C0.159817352,3.44210526 0.287671233,3.66315789 0.511415525,3.78947368 L1.1826484,4.2 C1.40639269,4.32631579 1.69406393,4.32631579 1.91780822,4.2 L2.5890411,3.78947368 C2.78082192,3.69473684 2.94063927,3.44210526 2.94063927,3.18947368 Z" id="Shape" fill="#FFAB9F"></path>
                                        <path d="M6.87214612,3.18947368 L6.87214612,2.36842105 C6.87214612,2.11578947 6.74429224,1.89473684 6.52054795,1.76842105 L5.84931507,1.35789474 C5.62557078,1.23157895 5.33789954,1.23157895 5.11415525,1.35789474 L4.44292237,1.76842105 C4.21917808,1.89473684 4.0913242,2.11578947 4.0913242,2.36842105 L4.0913242,3.18947368 C4.0913242,3.44210526 4.21917808,3.66315789 4.44292237,3.78947368 L5.11415525,4.2 C5.33789954,4.32631579 5.62557078,4.32631579 5.84931507,4.2 L6.52054795,3.78947368 C6.74429224,3.69473684 6.87214612,3.44210526 6.87214612,3.18947368 Z" id="Shape" fill="#FFAB9F"></path>
                                        <path d="M10.803653,3.18947368 L10.803653,2.36842105 C10.803653,2.11578947 10.6757991,1.89473684 10.4520548,1.76842105 L9.78082192,1.35789474 C9.55707763,1.23157895 9.26940639,1.23157895 9.0456621,1.35789474 L8.37442922,1.76842105 C8.15068493,1.89473684 8.02283105,2.11578947 8.02283105,2.36842105 L8.02283105,3.18947368 C8.02283105,3.44210526 8.15068493,3.66315789 8.37442922,3.78947368 L9.0456621,4.2 C9.26940639,4.32631579 9.55707763,4.32631579 9.78082192,4.2 L10.4520548,3.78947368 C10.6757991,3.69473684 10.803653,3.44210526 10.803653,3.18947368 Z" id="Shape" fill="#FFAB9F"></path>
                                        <path d="M14.7671233,3.18947368 L14.7671233,2.36842105 C14.7671233,2.11578947 14.6392694,1.89473684 14.4155251,1.76842105 L13.7442922,1.35789474 C13.5205479,1.23157895 13.2328767,1.23157895 13.0091324,1.35789474 L12.3378995,1.76842105 C12.1141553,1.89473684 11.9863014,2.11578947 11.9863014,2.36842105 L11.9863014,3.18947368 C11.9863014,3.44210526 12.1141553,3.66315789 12.3378995,3.78947368 L13.0091324,4.2 C13.2328767,4.32631579 13.5205479,4.32631579 13.7442922,4.2 L14.4155251,3.78947368 C14.6073059,3.69473684 14.7671233,3.44210526 14.7671233,3.18947368 Z" id="Shape" fill="#FFAB9F"></path>
                                        <path d="M26.5936073,3.18947368 L26.5936073,2.36842105 C26.5936073,2.11578947 26.4657534,1.89473684 26.2420091,1.76842105 L25.5707763,1.35789474 C25.347032,1.23157895 25.0593607,1.23157895 24.8356164,1.35789474 L24.1643836,1.76842105 C23.9406393,1.89473684 23.8127854,2.11578947 23.8127854,2.36842105 L23.8127854,3.18947368 C23.8127854,3.44210526 23.9406393,3.66315789 24.1643836,3.78947368 L24.8356164,4.2 C25.0593607,4.32631579 25.347032,4.32631579 25.5707763,4.2 L26.2420091,3.78947368 C26.4657534,3.69473684 26.5936073,3.44210526 26.5936073,3.18947368 Z" id="Shape" fill="#FFAB9F"></path>
                                        <path d="M30.5251142,3.18947368 L30.5251142,2.36842105 C30.5251142,2.11578947 30.3972603,1.89473684 30.173516,1.76842105 L29.5022831,1.35789474 C29.2785388,1.23157895 28.9908676,1.23157895 28.7671233,1.35789474 L28.0958904,1.76842105 C27.8721461,1.89473684 27.7442922,2.11578947 27.7442922,2.36842105 L27.7442922,3.18947368 C27.7442922,3.44210526 27.8721461,3.66315789 28.0958904,3.78947368 L28.7671233,4.2 C28.9908676,4.32631579 29.2785388,4.32631579 29.5022831,4.2 L30.173516,3.78947368 C30.3972603,3.69473684 30.5251142,3.44210526 30.5251142,3.18947368 Z" id="Shape" fill="#FFAB9F"></path>
                                        <path d="M34.4885845,3.18947368 L34.4885845,2.36842105 C34.4885845,2.11578947 34.3607306,1.89473684 34.1369863,1.76842105 L33.4657534,1.35789474 C33.2420091,1.23157895 32.9543379,1.23157895 32.7305936,1.35789474 L32.0593607,1.76842105 C31.8356164,1.89473684 31.7077626,2.11578947 31.7077626,2.36842105 L31.7077626,3.18947368 C31.7077626,3.44210526 31.8356164,3.66315789 32.0593607,3.78947368 L32.7305936,4.2 C32.9543379,4.32631579 33.2420091,4.32631579 33.4657534,4.2 L34.1369863,3.78947368 C34.3287671,3.69473684 34.4885845,3.44210526 34.4885845,3.18947368 Z" id="Shape" fill="#FFAB9F"></path>
                                        <path d="M38.4200913,3.18947368 L38.4200913,2.36842105 C38.4200913,2.11578947 38.2922374,1.89473684 38.0684932,1.76842105 L37.3972603,1.35789474 C37.173516,1.23157895 36.8858447,1.23157895 36.6621005,1.35789474 L35.9908676,1.76842105 C35.7671233,1.89473684 35.6392694,2.11578947 35.6392694,2.36842105 L35.6392694,3.18947368 C35.6392694,3.44210526 35.7671233,3.66315789 35.9908676,3.78947368 L36.6621005,4.2 C36.8858447,4.32631579 37.173516,4.32631579 37.3972603,4.2 L38.0684932,3.78947368 C38.2922374,3.69473684 38.4200913,3.44210526 38.4200913,3.18947368 Z" id="Shape" fill="#FFAB9F"></path>
                                        <path d="M42.3515982,3.18947368 L42.3515982,2.36842105 C42.3515982,2.11578947 42.2237443,1.89473684 42,1.76842105 L41.3287671,1.35789474 C41.1050228,1.23157895 40.8173516,1.23157895 40.5936073,1.35789474 L39.9223744,1.76842105 C39.6986301,1.89473684 39.5707763,2.11578947 39.5707763,2.36842105 L39.5707763,3.18947368 C39.5707763,3.44210526 39.6986301,3.66315789 39.9223744,3.78947368 L40.5936073,4.2 C40.8173516,4.32631579 41.1050228,4.32631579 41.3287671,4.2 L42,3.78947368 C42.2237443,3.69473684 42.3515982,3.44210526 42.3515982,3.18947368 Z" id="Shape" fill="#FFAB9F"></path>
                                        <path d="M46.3150685,3.18947368 L46.3150685,2.36842105 C46.3150685,2.11578947 46.1872146,1.89473684 45.9634703,1.76842105 L45.2922374,1.35789474 C45.0684932,1.23157895 44.7808219,1.23157895 44.5570776,1.35789474 L43.8858447,1.76842105 C43.6621005,1.89473684 43.5342466,2.11578947 43.5342466,2.36842105 L43.5342466,3.18947368 C43.5342466,3.44210526 43.6621005,3.66315789 43.8858447,3.78947368 L44.5570776,4.2 C44.7808219,4.32631579 45.0684932,4.32631579 45.2922374,4.2 L45.9634703,3.78947368 C46.1552511,3.69473684 46.3150685,3.44210526 46.3150685,3.18947368 Z" id="Shape" fill="#FFAB9F"></path>
                                        <path d="M58.1415525,3.18947368 L58.1415525,2.36842105 C58.1415525,2.11578947 58.0136986,1.89473684 57.7899543,1.76842105 L57.1187215,1.35789474 C56.8949772,1.23157895 56.6073059,1.23157895 56.3835616,1.35789474 L55.7123288,1.76842105 C55.4885845,1.89473684 55.3607306,2.11578947 55.3607306,2.36842105 L55.3607306,3.18947368 C55.3607306,3.44210526 55.4885845,3.66315789 55.7123288,3.78947368 L56.3835616,4.2 C56.6073059,4.32631579 56.8949772,4.32631579 57.1187215,4.2 L57.7899543,3.78947368 C57.9817352,3.69473684 58.1415525,3.44210526 58.1415525,3.18947368 Z" id="Shape" fill="#FFAB9F"></path>
                                        <path d="M62.0730594,3.18947368 L62.0730594,2.36842105 C62.0730594,2.11578947 61.9452055,1.89473684 61.7214612,1.76842105 L61.0502283,1.35789474 C60.826484,1.23157895 60.5388128,1.23157895 60.3150685,1.35789474 L59.6438356,1.76842105 C59.4200913,1.89473684 59.2922374,2.11578947 59.2922374,2.36842105 L59.2922374,3.18947368 C59.2922374,3.44210526 59.4200913,3.66315789 59.6438356,3.78947368 L60.3150685,4.2 C60.5388128,4.32631579 60.826484,4.32631579 61.0502283,4.2 L61.7214612,3.78947368 C61.9452055,3.69473684 62.0730594,3.44210526 62.0730594,3.18947368 Z" id="Shape" fill="#FFAB9F"></path>
                                        <path d="M66.0045662,3.18947368 L66.0045662,2.36842105 C66.0045662,2.11578947 65.8767123,1.89473684 65.652968,1.76842105 L64.9817352,1.35789474 C64.7579909,1.23157895 64.4703196,1.23157895 64.2465753,1.35789474 L63.5753425,1.76842105 C63.3515982,1.89473684 63.2237443,2.11578947 63.2237443,2.36842105 L63.2237443,3.18947368 C63.2237443,3.44210526 63.3515982,3.66315789 63.5753425,3.78947368 L64.2465753,4.2 C64.4703196,4.32631579 64.7579909,4.32631579 64.9817352,4.2 L65.652968,3.78947368 C65.8767123,3.69473684 66.0045662,3.44210526 66.0045662,3.18947368 Z" id="Shape" fill="#FFAB9F"></path>
                                        <path d="M69.9680365,3.18947368 L69.9680365,2.36842105 C69.9680365,2.11578947 69.8401826,1.89473684 69.6164384,1.76842105 L68.9452055,1.35789474 C68.7214612,1.23157895 68.43379,1.23157895 68.2100457,1.35789474 L67.5388128,1.76842105 C67.3150685,1.89473684 67.1872146,2.11578947 67.1872146,2.36842105 L67.1872146,3.18947368 C67.1872146,3.44210526 67.3150685,3.66315789 67.5388128,3.78947368 L68.2100457,4.2 C68.43379,4.32631579 68.7214612,4.32631579 68.9452055,4.2 L69.6164384,3.78947368 C69.8401826,3.69473684 69.9680365,3.44210526 69.9680365,3.18947368 Z" id="Shape" fill="#FFAB9F"></path>
                                        <path d="M18.0593607,5.62105263 C18.0273973,5.62105263 17.9634703,5.62105263 17.9315068,5.58947368 C17.739726,5.52631579 17.6757991,5.30526316 17.739726,5.14736842 L19.7214612,0.378947368 C19.7853881,0.189473684 20.0091324,0.126315789 20.1689498,0.189473684 C20.3607306,0.252631579 20.4246575,0.473684211 20.3607306,0.631578947 L18.3789954,5.4 C18.347032,5.52631579 18.1872146,5.62105263 18.0593607,5.62105263 Z" id="Shape" fill="#40527C"></path>
                                        <path d="M49.8310502,5.96842105 C49.7990868,5.96842105 49.7351598,5.96842105 49.7031963,5.93684211 C49.5114155,5.87368421 49.4474886,5.65263158 49.5114155,5.49473684 L51.4931507,0.726315789 C51.5570776,0.536842105 51.7808219,0.473684211 51.9406393,0.536842105 C52.1324201,0.6 52.196347,0.821052632 52.1324201,0.978947368 L50.1506849,5.74736842 C50.086758,5.90526316 49.9589041,5.96842105 49.8310502,5.96842105 Z" id="Shape" fill="#40527C"></path>
                                    </g>
                                    <g id="Group" opacity="0.5" transform="translate(56.000000, 14.000000)" stroke="#40527C" stroke-linecap="round" stroke-linejoin="round" stroke-width="0.8">
                                        <path d="M0,11 L0,10.2791262 C0.822115537,10.3592233 1.22071701,9.87864078 1.19580442,8.83737864 L1.19580442,2.32281553 C1.27054219,1.22815534 0.896853313,0.694174757 0.0747377761,0.774271845 L0.0747377761,0 L4.18531546,0 C6.75131244,0 8.02185463,1.09466019 7.99694204,3.25728155 C8.07167982,5.5 6.77622503,6.59466019 4.13549028,6.56796117 L3.41302511,6.56796117 L3.41302511,8.78398058 C3.33828733,9.85194175 3.78671399,10.3592233 4.75830508,10.2791262 L4.75830508,11 L0,11 Z M3.41302511,5.74029126 L3.71197621,5.74029126 C4.9825184,5.74029126 5.6302458,4.91262136 5.6302458,3.25728155 C5.6302458,1.60194175 4.9825184,0.774271845 3.71197621,0.774271845 L3.41302511,0.774271845 L3.41302511,5.74029126 Z" id="Shape"></path>
                                        <path d="M9,11 L9,10.2911695 C9.73170732,10.2911695 10.2195122,9.92362768 10.4634146,9.21479714 L13.5365854,0.105011933 L14.8536585,0 L17.7317073,9.16229117 C18,9.84486874 18.4146341,10.2386635 19,10.2911695 L19,11 L14.5121951,11 L14.5121951,10.2911695 C15.3170732,10.3174224 15.6097561,10.0548926 15.3658537,9.47732697 L14.8536585,7.69212411 L12.0243902,7.69212411 L11.4634146,9.47732697 C11.1707317,10.0548926 11.4878049,10.3174224 12.4146341,10.2911695 L12.4146341,11 L9,11 Z M13.5365854,2.91408115 L12.3170732,6.72076372 L14.5853659,6.72076372 L13.5365854,2.91408115 Z" id="Shape"></path>
                                        <path d="M21.1977186,10.587822 L20.2661597,10.8454333 L20.0532319,7.44496487 L20.7718631,7.29039813 C21.1711027,9.37704918 21.9695817,10.4074941 23.1939163,10.3302108 C24.2319392,10.3044496 24.7642586,9.76346604 24.7908745,8.73302108 C24.8707224,7.90866511 23.9923954,7.11007026 22.2091255,6.28571429 C20.7718631,5.64168618 20.0532319,4.61124122 20,3.14285714 C20.1064639,1.15925059 21.2509506,0.103044496 23.4068441,0 C24.0988593,0 24.8174905,0.128805621 25.5627376,0.360655738 L26.3878327,0.103044496 L26.6007605,3.40046838 L25.8288973,3.60655738 C25.3231939,1.62295082 24.5779468,0.669789227 23.6197719,0.721311475 C22.7414449,0.7470726 22.2889734,1.23653396 22.2357414,2.16393443 C22.2091255,3.03981265 22.8479087,3.78688525 24.2053232,4.35362998 C26.0684411,5.1264637 27,6.25995316 27,7.75409836 C26.973384,9.89227166 25.7224335,10.9742389 23.2471483,11 C22.634981,11 21.9429658,10.8711944 21.1977186,10.587822 Z" id="Shape"></path>
                                        <path d="M29.1977186,10.587822 L28.2661597,10.8454333 L28.0532319,7.44496487 L28.7718631,7.29039813 C29.1711027,9.37704918 29.9695817,10.4074941 31.1939163,10.3302108 C32.2319392,10.3044496 32.7642586,9.76346604 32.7908745,8.73302108 C32.8707224,7.90866511 31.9923954,7.11007026 30.2091255,6.28571429 C28.7718631,5.64168618 28.0532319,4.61124122 28,3.14285714 C28.1064639,1.15925059 29.2509506,0.103044496 31.4068441,0 C32.0988593,0 32.8174905,0.128805621 33.5627376,0.360655738 L34.3878327,0.103044496 L34.6007605,3.40046838 L33.8288973,3.60655738 C33.3231939,1.62295082 32.5779468,0.669789227 31.6197719,0.721311475 C30.7414449,0.7470726 30.2889734,1.23653396 30.2357414,2.16393443 C30.2091255,3.03981265 30.8479087,3.78688525 32.2053232,4.35362998 C34.0684411,5.1264637 35,6.25995316 35,7.75409836 C34.973384,9.89227166 33.7224335,10.9742389 31.2471483,11 C30.634981,11 29.9163498,10.8711944 29.1977186,10.587822 Z" id="Shape"></path>
                                        <path d="M36,11 L36,10.2791262 C36.8221155,10.3592233 37.220717,9.87864078 37.1958044,8.83737864 L37.1958044,2.32281553 C37.2705422,1.22815534 36.8968533,0.694174757 36.0747378,0.774271845 L36.0747378,0 L40.1853155,0 C42.7513124,0 44.0218546,1.09466019 43.996942,3.25728155 C44.0716798,5.5 42.776225,6.59466019 40.1354903,6.56796117 L39.4130251,6.56796117 L39.4130251,8.78398058 C39.3382873,9.85194175 39.786714,10.3592233 40.7583051,10.2791262 L40.7583051,11 L36,11 Z M39.4130251,5.74029126 L39.7119762,5.74029126 C40.9825184,5.74029126 41.6302458,4.91262136 41.6302458,3.25728155 C41.6302458,1.60194175 40.9825184,0.774271845 39.7119762,0.774271845 L39.4130251,0.774271845 L39.4130251,5.74029126 Z" id="Shape"></path>
                                        <path d="M49.5,11 C46.5241935,10.9742991 45.0241935,9.14953271 45,5.5771028 C45.0241935,1.92757009 46.5241935,0.0771028037 49.5,0 C52.4758065,0.0771028037 53.9758065,1.92757009 54,5.5771028 C54,9.20093458 52.5,11 49.5,11 Z M49.5,10.3060748 C50.9758065,10.3060748 51.7016129,8.73831776 51.7016129,5.5771028 C51.7258065,2.31308411 51,0.693925234 49.5,0.745327103 C48,0.668224299 47.2741935,2.28738318 47.2983871,5.5771028 C47.2741935,8.76401869 48,10.3574766 49.5,10.3060748 Z" id="Shape"></path>
                                        <path d="M55,11 L55,10.2791617 C55.8360656,10.3592548 56.2295082,9.87869593 56.1803279,8.83748501 L56.1803279,2.32324232 C56.2540984,1.22863597 55.8606557,0.694681652 55,0.7747748 L55,0.000541038222 L58.9098361,0.000541038222 C61.5655738,-0.0261566777 62.8688525,0.934961096 62.8196721,2.93728979 C62.8442623,4.59254818 61.8606557,5.50027052 59.8196721,5.6337591 C61.0983607,5.84734083 61.9836066,6.62157459 62.4754098,7.95646038 C62.7459016,8.51711242 62.9672131,9.05106674 63.1393443,9.61171877 C63.3114754,9.98548679 63.6065574,10.1990685 64,10.2791617 L64,11 L61.147541,11 C61.1229508,10.8932091 61.0737705,10.7330228 61,10.4927434 C60.4344262,8.73069415 60.0163934,7.55599465 59.7704918,7.02204033 C59.5245902,6.35459743 59.1557377,6.03422484 58.6639344,6.03422484 L58.3688525,6.03422484 L58.3688525,8.83748501 C58.295082,9.87869593 58.7131148,10.3592548 59.647541,10.2791617 L59.647541,11 L55,11 Z M58.3442623,5.25999108 L58.6393443,5.25999108 C59.8688525,5.25999108 60.4590164,4.51245503 60.4590164,2.99068522 C60.4590164,1.52231085 59.8442623,0.7747748 58.6393443,0.7747748 L58.3442623,0.7747748 L58.3442623,5.25999108 Z" id="Shape"></path>
                                        <path d="M67.1282051,11 L67.1282051,10.2791262 C68,10.3592233 68.4102564,9.87864078 68.3589744,8.83737864 L68.3589744,0.774271845 L67.8205128,0.774271845 C66.8717949,0.694174757 66.1794872,1.81553398 65.7435897,4.08495146 L65,3.97815534 L65.2051282,0 L73.7948718,0 L74,3.92475728 L73.2564103,4.08495146 C72.7692308,1.84223301 72.0769231,0.747572816 71.1794872,0.774271845 L70.5897436,0.774271845 L70.5897436,8.8907767 C70.5128205,9.87864078 70.9487179,10.3325243 71.8717949,10.2791262 L71.8717949,11 L67.1282051,11 Z" id="Shape"></path>
                                    </g>
                                </g>
                            </g>
                        </g>
                    </g>
                </g>
            </g>
        </g>
    </g>
</svg>