<?xml version="1.0" encoding="UTF-8"?>
<svg width="80px" height="18px" viewBox="0 0 80 18" version="1.1" xmlns="http://www.w3.org/2000/svg" xmlns:xlink="http://www.w3.org/1999/xlink">
    <!-- Generator: Sketch 48.1 (47250) - http://www.bohemiancoding.com/sketch -->
    <title>recommend_en</title>
    <desc>Created with Sketch.</desc>
    <defs></defs>
    <g id="Artboard" stroke="none" stroke-width="1" fill="none" fill-rule="evenodd" transform="translate(-339.000000, -443.000000)">
        <g id="个人中心" transform="translate(99.000000, 443.000000)">
            <g id="recommend_en" transform="translate(240.000000, 0.000000)">
                <path d="M5.80982578,13.6202124 L5.80982578,17 C5.80982578,17.5522847 6.2610887,18 6.81774971,18 L78.9920761,18 C79.5487371,18 80,17.5522847 80,17 L80,1 C80,0.44771525 79.5487371,0 78.9920761,0 L6.81774971,0 C6.2610887,0 5.80982578,0.44771525 5.80982578,1 L5.80982578,5.37978757 C5.80982578,5.75969448 5.59455257,6.10679041 5.25422008,6.27561887 L0.557387435,8.60557281 C0.362326536,8.70233651 0.204160602,8.859259 0.106630152,9.0527864 C-0.142316221,9.5467649 0.0594946889,10.1474379 0.557387435,10.3944272 L5.25422008,12.7243811 C5.59455257,12.8932096 5.80982578,13.2403055 5.80982578,13.6202124 Z" id="Combined-Shape-Copy-3" fill="#2BB789"></path>
                <path d="M14.497,7.167 C14.805,7.167 15.069,7.211 15.278,7.299 L15.278,8.179 C14.992,8.091 14.706,8.058 14.431,8.058 C13.991,8.058 13.617,8.245 13.32,8.641 C13.012,9.015 12.869,9.466 12.869,9.994 L12.869,13.008 L12,13.008 L12,7.321 L12.869,7.321 L12.869,8.311 C13.023,7.981 13.221,7.717 13.463,7.53 C13.76,7.288 14.101,7.167 14.497,7.167 Z M18.402352,7.167 C19.315352,7.167 20.008352,7.475 20.470352,8.091 C20.888352,8.641 21.108352,9.422 21.130352,10.412 L16.642352,10.412 C16.686352,11.05 16.851352,11.545 17.159352,11.897 C17.467352,12.249 17.896352,12.425 18.435352,12.425 C18.897352,12.425 19.282352,12.304 19.568352,12.073 C19.810352,11.875 19.997352,11.578 20.140352,11.182 L21.020352,11.182 C20.888352,11.732 20.635352,12.172 20.250352,12.524 C19.777352,12.942 19.172352,13.162 18.435352,13.162 C17.621352,13.162 16.961352,12.887 16.477352,12.359 C15.971352,11.809 15.729352,11.083 15.729352,10.159 C15.729352,9.323 15.960352,8.619 16.444352,8.058 C16.928352,7.464 17.577352,7.167 18.402352,7.167 Z M18.424352,7.904 C17.918352,7.904 17.511352,8.069 17.203352,8.399 C16.895352,8.729 16.719352,9.169 16.664352,9.73 L20.217352,9.73 C20.107352,8.509 19.502352,7.904 18.424352,7.904 Z M24.661704,7.167 C25.365704,7.167 25.926704,7.332 26.355704,7.662 C26.795704,8.003 27.059704,8.52 27.158704,9.213 L26.289704,9.213 C26.212704,8.773 26.036704,8.443 25.761704,8.223 C25.475704,8.003 25.112704,7.904 24.661704,7.904 C24.111704,7.904 23.671704,8.113 23.352704,8.531 C23.044704,8.938 22.890704,9.488 22.890704,10.181 C22.890704,10.874 23.033704,11.424 23.341704,11.82 C23.638704,12.216 24.078704,12.425 24.650704,12.425 C25.618704,12.425 26.179704,11.93 26.311704,10.951 L27.191704,10.951 C27.059704,11.677 26.784704,12.238 26.344704,12.612 C25.915704,12.975 25.354704,13.162 24.650704,13.162 C23.792704,13.162 23.132704,12.876 22.659704,12.304 C22.208704,11.765 21.988704,11.061 21.988704,10.192 C21.988704,9.323 22.208704,8.619 22.659704,8.069 C23.143704,7.464 23.814704,7.167 24.661704,7.167 Z M30.811056,7.167 C31.658056,7.167 32.340056,7.453 32.846056,8.047 C33.330056,8.608 33.572056,9.312 33.572056,10.17 C33.572056,11.017 33.330056,11.721 32.857056,12.271 C32.340056,12.865 31.658056,13.162 30.811056,13.162 C29.953056,13.162 29.282056,12.865 28.776056,12.271 C28.292056,11.721 28.050056,11.017 28.050056,10.17 C28.050056,9.312 28.292056,8.608 28.776056,8.047 C29.282056,7.453 29.953056,7.167 30.811056,7.167 Z M30.811056,7.904 C30.206056,7.904 29.733056,8.135 29.403056,8.597 C29.095056,9.015 28.952056,9.532 28.952056,10.17 C28.952056,10.797 29.095056,11.314 29.403056,11.732 C29.733056,12.194 30.206056,12.425 30.811056,12.425 C31.405056,12.425 31.878056,12.194 32.230056,11.732 C32.527056,11.314 32.681056,10.786 32.681056,10.17 C32.681056,9.532 32.527056,9.015 32.230056,8.597 C31.878056,8.135 31.405056,7.904 30.811056,7.904 Z M37.246408,7.167 C38.115408,7.167 38.709408,7.519 39.028408,8.245 C39.248408,7.871 39.512408,7.596 39.820408,7.431 C40.095408,7.255 40.425408,7.167 40.821408,7.167 C41.415408,7.167 41.888408,7.354 42.262408,7.728 C42.614408,8.113 42.801408,8.63 42.801408,9.279 L42.801408,13.008 L41.921408,13.008 L41.921408,9.422 C41.921408,8.916 41.811408,8.542 41.602408,8.3 C41.382408,8.036 41.030408,7.915 40.546408,7.915 C40.172408,7.915 39.853408,8.047 39.611408,8.333 C39.347408,8.619 39.226408,8.982 39.226408,9.444 L39.226408,13.008 L38.346408,13.008 L38.346408,9.422 C38.346408,8.41 37.906408,7.915 37.037408,7.915 C36.630408,7.915 36.300408,8.069 36.036408,8.399 C35.772408,8.707 35.640408,9.092 35.640408,9.543 L35.640408,13.008 L34.760408,13.008 L34.760408,7.321 L35.640408,7.321 L35.640408,8.08 C36.069408,7.464 36.608408,7.167 37.246408,7.167 Z M46.69576,7.167 C47.56476,7.167 48.15876,7.519 48.47776,8.245 C48.69776,7.871 48.96176,7.596 49.26976,7.431 C49.54476,7.255 49.87476,7.167 50.27076,7.167 C50.86476,7.167 51.33776,7.354 51.71176,7.728 C52.06376,8.113 52.25076,8.63 52.25076,9.279 L52.25076,13.008 L51.37076,13.008 L51.37076,9.422 C51.37076,8.916 51.26076,8.542 51.05176,8.3 C50.83176,8.036 50.47976,7.915 49.99576,7.915 C49.62176,7.915 49.30276,8.047 49.06076,8.333 C48.79676,8.619 48.67576,8.982 48.67576,9.444 L48.67576,13.008 L47.79576,13.008 L47.79576,9.422 C47.79576,8.41 47.35576,7.915 46.48676,7.915 C46.07976,7.915 45.74976,8.069 45.48576,8.399 C45.22176,8.707 45.08976,9.092 45.08976,9.543 L45.08976,13.008 L44.20976,13.008 L44.20976,7.321 L45.08976,7.321 L45.08976,8.08 C45.51876,7.464 46.05776,7.167 46.69576,7.167 Z M56.002112,7.167 C56.915112,7.167 57.608112,7.475 58.070112,8.091 C58.488112,8.641 58.708112,9.422 58.730112,10.412 L54.242112,10.412 C54.286112,11.05 54.451112,11.545 54.759112,11.897 C55.067112,12.249 55.496112,12.425 56.035112,12.425 C56.497112,12.425 56.882112,12.304 57.168112,12.073 C57.410112,11.875 57.597112,11.578 57.740112,11.182 L58.620112,11.182 C58.488112,11.732 58.235112,12.172 57.850112,12.524 C57.377112,12.942 56.772112,13.162 56.035112,13.162 C55.221112,13.162 54.561112,12.887 54.077112,12.359 C53.571112,11.809 53.329112,11.083 53.329112,10.159 C53.329112,9.323 53.560112,8.619 54.044112,8.058 C54.528112,7.464 55.177112,7.167 56.002112,7.167 Z M56.024112,7.904 C55.518112,7.904 55.111112,8.069 54.803112,8.399 C54.495112,8.729 54.319112,9.169 54.264112,9.73 L57.817112,9.73 C57.707112,8.509 57.102112,7.904 56.024112,7.904 Z M62.470464,7.167 C63.878464,7.167 64.593464,7.948 64.593464,9.51 L64.593464,13.008 L63.713464,13.008 L63.713464,9.576 C63.713464,8.465 63.207464,7.915 62.217464,7.915 C61.821464,7.915 61.480464,8.058 61.194464,8.344 C60.886464,8.652 60.721464,9.059 60.688464,9.576 L60.688464,13.008 L59.808464,13.008 L59.808464,7.321 L60.688464,7.321 L60.688464,8.157 C60.886464,7.838 61.139464,7.596 61.447464,7.431 C61.755464,7.255 62.096464,7.167 62.470464,7.167 Z M70.203816,5 L71.083816,5 L71.083816,13.008 L70.258816,13.008 L70.258816,12.073 C69.862816,12.799 69.224816,13.162 68.366816,13.162 C67.530816,13.162 66.881816,12.854 66.419816,12.26 C65.990816,11.71 65.781816,11.006 65.781816,10.148 C65.781816,9.312 65.990816,8.63 66.419816,8.08 C66.881816,7.464 67.508816,7.167 68.322816,7.167 C69.136816,7.167 69.763816,7.563 70.203816,8.366 L70.203816,5 Z M68.509816,7.893 C67.882816,7.893 67.409816,8.113 67.101816,8.553 C66.815816,8.938 66.683816,9.466 66.683816,10.148 C66.683816,10.83 66.815816,11.369 67.090816,11.765 C67.398816,12.205 67.860816,12.436 68.476816,12.436 C69.048816,12.436 69.488816,12.216 69.807816,11.776 C70.082816,11.38 70.225816,10.863 70.225816,10.225 L70.225816,10.115 C70.225816,9.455 70.060816,8.916 69.752816,8.509 C69.433816,8.091 69.015816,7.893 68.509816,7.893 Z" id="recommend" fill="#2F3335"></path>
            </g>
        </g>
    </g>
</svg>