<?xml version="1.0" encoding="UTF-8"?>
<svg width="44px" height="44px" viewBox="0 0 44 44" version="1.1" xmlns="http://www.w3.org/2000/svg" xmlns:xlink="http://www.w3.org/1999/xlink">
    <!-- Generator: Sketch 49 (51002) - http://www.bohemiancoding.com/sketch -->
    <title>shibai_icon</title>
    <desc>Created with Sketch.</desc>
    <defs></defs>
    <g id="assets" stroke="none" stroke-width="1" fill="none" fill-rule="evenodd">
        <g id="Artboard" transform="translate(-449.000000, -514.000000)" fill="#F25656">
            <g id="个人中心" transform="translate(99.000000, 443.000000)">
                <g id="shibai_icon" transform="translate(350.000000, 71.000000)">
                    <path d="M20.0924868,22.2248678 L11.9619577,30.3553968 C11.3891887,30.9281658 11.3891887,31.8568078 11.9619577,32.4295767 C12.5347267,33.0023457 13.4633686,33.0023457 14.0361376,32.4295767 L22.1666667,24.2990476 L30.3713756,32.5037566 C30.9441446,33.0765256 31.8727866,33.0765256 32.4455555,32.5037566 C33.0183245,31.9309877 33.0183245,31.0023457 32.4455555,30.4295767 L24.2408466,22.2248678 L32.7037566,13.7619577 C33.2765256,13.1891887 33.2765256,12.2605468 32.7037566,11.6877778 C32.1309877,11.1150088 31.2023457,11.1150088 30.6295767,11.6877778 L22.1666667,20.1506879 L13.7779365,11.7619577 C13.2051675,11.1891887 12.2765256,11.1891887 11.7037566,11.7619577 C11.1309877,12.3347267 11.1309877,13.2633686 11.7037566,13.8361376 L20.0924868,22.2248678 Z M22,44 C9.8497355,44 0,34.1502645 0,22 C0,9.8497355 9.8497355,0 22,0 C34.1502645,0 44,9.8497355 44,22 C44,34.1502645 34.1502645,44 22,44 Z" id="Oval-3"></path>
                </g>
            </g>
        </g>
    </g>
</svg>