<?xml version="1.0" encoding="UTF-8"?>
<svg width="9px" height="11px" viewBox="0 0 9 11" version="1.1" xmlns="http://www.w3.org/2000/svg" xmlns:xlink="http://www.w3.org/1999/xlink">
    <!-- Generator: Sketch 50.2 (55047) - http://www.bohemiancoding.com/sketch -->
    <title>icon- xiadie@3x</title>
    <desc>Created with Sketch.</desc>
    <defs></defs>
    <g id="Page-1" stroke="none" stroke-width="1" fill="none" fill-rule="evenodd">
        <g id="王敏1" transform="translate(-219.000000, -625.000000)" fill="#EA3C32" fill-rule="nonzero">
            <g id="Group-2" transform="translate(96.000000, 590.000000)">
                <g id="Group-5" transform="translate(127.286133, 40.313477) rotate(-360.000000) translate(-127.286133, -40.313477) translate(123.286133, 35.313477)">
                    <g id="Group-9" transform="translate(-1.000000, -1.000000)">
                        <g id="Group-13">
                            <path d="M4.33333333,3.22213287 L2.13807119,5.41739502 C1.87772166,5.67774455 1.45561167,5.67774455 1.19526215,5.41739502 C0.934912618,5.15704549 0.934912618,4.73493551 1.19526215,4.47458598 L4.47458598,1.19526215 C4.73493551,0.934912618 5.15704549,0.934912618 5.41739502,1.19526215 L8.75795746,4.53582459 C9.01830699,4.79617411 9.01830699,5.2182841 8.75795746,5.47863363 C8.49760793,5.73898316 8.07549795,5.73898316 7.81514842,5.47863363 L5.66666667,3.33015188 L5.66666667,10.3333333 C5.66666667,10.7015232 5.36818983,11 5,11 C4.63181017,11 4.33333333,10.7015232 4.33333333,10.3333333 L4.33333333,3.22213287 Z" id="Combined-Shape" transform="translate(4.976610, 6.000000) scale(1, -1) translate(-4.976610, -6.000000) "></path>
                        </g>
                    </g>
                </g>
            </g>
        </g>
    </g>
</svg>