<?xml version="1.0" encoding="UTF-8"?>
<svg width="8px" height="10px" viewBox="0 0 8 10" version="1.1" xmlns="http://www.w3.org/2000/svg" xmlns:xlink="http://www.w3.org/1999/xlink">
    <!-- Generator: Sketch 49 (51002) - http://www.bohemiancoding.com/sketch -->
    <title>up</title>
    <desc>Created with Sketch.</desc>
    <defs></defs>
    <g id="assets" stroke="none" stroke-width="1" fill="none" fill-rule="evenodd">
        <g id="Artboard" transform="translate(-582.000000, -80.000000)" fill="#2BB789">
            <g id="首页" transform="translate(99.000000, 63.000000)">
                <path d="M483.707484,21.0013476 L486.333369,18.3819781 L486.333369,26.1259662 C486.348036,26.2099632 486.368696,26.2728803 486.39535,26.3147174 C486.477352,26.4434288 486.623377,26.5182544 486.74763,26.5182544 C486.904277,26.5182544 487.058528,26.4037829 487.104106,26.3147174 C487.149684,26.2256518 487.171199,26.155553 487.171199,26.1101733 C487.171199,26.0799202 487.171199,23.5408781 487.171199,18.4930469 L489.771068,21.0930835 C489.839895,21.137985 489.898362,21.1658933 489.946467,21.1768085 C490.129082,21.2182432 490.283866,21.123471 490.352595,21.036626 C490.502589,20.8470965 490.458827,20.6228381 490.352595,20.504964 C490.281774,20.4263812 489.153519,19.2966306 486.96783,17.1157123 C486.902763,17.0656626 486.852958,17.0347025 486.818416,17.022832 C486.675298,16.9736494 486.540521,17.0064079 486.444758,17.0972339 C486.314326,17.220942 485.200068,18.3348844 483.101985,20.4390613 C483.047566,20.5121267 483.016204,20.5695099 483.007899,20.6112109 C482.9801,20.7508092 483.029046,20.8988864 483.101985,20.9796649 C483.168428,21.0532493 483.263576,21.1237537 483.423244,21.1237537 C483.529689,21.1237537 483.624436,21.0829516 483.707484,21.0013476 Z" id="up"></path>
            </g>
        </g>
    </g>
</svg>