<?xml version="1.0" encoding="UTF-8"?>
<svg width="17px" height="22px" viewBox="0 0 17 22" version="1.1" xmlns="http://www.w3.org/2000/svg" xmlns:xlink="http://www.w3.org/1999/xlink">
    <!-- Generator: Sketch 49 (51002) - http://www.bohemiancoding.com/sketch -->
    <title>top</title>
    <desc>Created with Sketch.</desc>
    <defs></defs>
    <g id="assets" stroke="none" stroke-width="1" fill="none" fill-rule="evenodd">
        <g id="Artboard" transform="translate(-1129.000000, -165.000000)" fill="#2BB789" fill-rule="nonzero">
            <g id="首页" transform="translate(99.000000, 63.000000)">
                <g id="top" transform="translate(1030.000000, 102.000000)">
                    <path d="M16.1204806,11.9462891 C16.4790455,12.3017436 16.4781261,12.8781072 16.116803,13.2317436 C15.9375205,13.4081072 15.7039936,13.4962891 15.468628,13.4962891 C15.2332623,13.4962891 14.9960578,13.4062891 14.8167754,13.2281072 L9.33441005,8.03181818 L9.33441005,21.0909091 C9.33441005,21.5936364 8.92252012,22 8.41501288,22 C7.90750564,22 7.49561571,21.5936364 7.49561571,21.0909091 L7.49561571,8.07636364 L2.83056641,12.6390909 C2.65036456,12.8154545 2.41591828,12.9045455 2.18055261,12.9045455 C1.94426754,12.9045455 1.70890186,12.8154545 1.52961941,12.6372727 C1.17013512,12.2818182 1.17105452,11.7063636 1.53053881,11.3518182 L7.72086802,5.28454545 C7.81464653,5.19181818 7.92497419,5.12545455 8.04081823,5.08181818 C8.15574288,5.03090909 8.28078089,5 8.41501288,5 C8.44719178,5 8.4747737,5.01545455 8.5069526,5.01818182 C8.74507646,5.01636364 8.98411973,5.10363636 9.16707976,5.28545455 L16.1204806,11.9462891 Z M1,0 L16,0 C16.5522847,-1.01453063e-16 17,0.44771525 17,1 C17,1.55228475 16.5522847,2 16,2 L1,2 C0.44771525,2 6.76353751e-17,1.55228475 0,1 C-6.76353751e-17,0.44771525 0.44771525,1.01453063e-16 1,0 Z" id="Combined-Shape"></path>
                </g>
            </g>
        </g>
    </g>
</svg>