<?xml version="1.0" encoding="UTF-8"?>
<svg width="10px" height="10px" viewBox="0 0 10 10" version="1.1" xmlns="http://www.w3.org/2000/svg" xmlns:xlink="http://www.w3.org/1999/xlink">
    <!-- Generator: Sketch 49 (51002) - http://www.bohemiancoding.com/sketch -->
    <title>xia_paixu</title>
    <desc>Created with Sketch.</desc>
    <defs>
        <path d="M0,0 L10,0 L10,10 L0,10 L0,0 Z" id="path-1"></path>
        <mask id="mask-2" maskContentUnits="userSpaceOnUse" maskUnits="objectBoundingBox" x="-0.5" y="-0.5" width="11" height="11">
            <rect x="-0.5" y="-0.5" width="11" height="11" fill="white"></rect>
            <use xlink:href="#path-1" fill="black"></use>
        </mask>
    </defs>
    <g id="组件" stroke="none" stroke-width="1" fill="none" fill-rule="evenodd">
        <g id="icon" transform="translate(-186.000000, -359.000000)">
            <g id="10*10" transform="translate(60.000000, 349.000000)">
                <g id="下_排序" transform="translate(126.000000, 10.000000)">
                    <g id="xia_paixu" transform="translate(2.000000, 0.000000)" fill="#FFFFFF">
                        <path d="M3.17213207,1.06508453 L5.02510421,4.19818931 C5.08133271,4.29326346 5.04984208,4.41591849 4.95476792,4.47214698 C4.92393747,4.49038065 4.88877599,4.5 4.85295723,4.5 L1.14701295,4.5 C1.036556,4.5 0.947012945,4.41045695 0.947012945,4.3 C0.947012945,4.26418124 0.9566323,4.22901977 0.974865964,4.19818931 L2.82783811,1.06508453 C2.8840666,0.970010377 3.00672163,0.938519747 3.10179578,0.994748239 C3.13079044,1.01189618 3.15498413,1.03608987 3.17213207,1.06508453 Z" id="Triangle" fill-opacity="0.5"></path>
                        <path d="M3.17213207,6.09822073 L5.02510421,9.23132551 C5.08133271,9.32639967 5.04984208,9.44905469 4.95476792,9.50528319 C4.92393747,9.52351685 4.88877599,9.5331362 4.85295723,9.5331362 L1.14701295,9.5331362 C1.036556,9.5331362 0.947012945,9.44359315 0.947012945,9.3331362 C0.947012945,9.29731744 0.9566323,9.26215597 0.974865964,9.23132551 L2.82783811,6.09822073 C2.8840666,6.00314658 3.00672163,5.97165595 3.10179578,6.02788444 C3.13079044,6.04503239 3.15498413,6.06922607 3.17213207,6.09822073 Z" id="Triangle-Copy" transform="translate(3.000001, 7.766568) scale(1, -1) translate(-3.000001, -7.766568) "></path>
                    </g>
                    <use id="Rectangle-4-Copy-12" stroke="#D9E3EE" mask="url(#mask-2)" stroke-dasharray="2" xlink:href="#path-1"></use>
                </g>
            </g>
        </g>
    </g>
</svg>