<?xml version="1.0" encoding="UTF-8"?>
<svg width="12px" height="12px" viewBox="0 0 12 12" version="1.1" xmlns="http://www.w3.org/2000/svg" xmlns:xlink="http://www.w3.org/1999/xlink">
    <!-- Generator: Sketch 49 (51002) - http://www.bohemiancoding.com/sketch -->
    <title>phone</title>
    <desc>Created with Sketch.</desc>
    <defs></defs>
    <g id="2.-交易页面" stroke="none" stroke-width="1" fill="none" fill-rule="evenodd">
        <path d="M8.82908333,0.1758 C8.71533333,0.0588 8.566,0 8.41666667,0 L2.58333333,0 C2.434,0 2.28466667,0.0588 2.17091667,0.1758 C2.05716667,0.2928 2,0.4464 2,0.6 L2,11.4 C2,11.5536 2.05716667,11.7072 2.17091667,11.8242 C2.28466667,11.9412 2.434,12 2.58333333,12 L8.41666667,12 C8.566,12 8.71533333,11.9412 8.82908333,11.8242 C8.94283333,11.7072 9,11.5536 9,11.4 L9,0.6 C9,0.4464 8.94283333,0.2928 8.82908333,0.1758 Z M5.5,11.5998 C5.178,11.5998 4.91666667,11.331 4.91666667,10.9998 C4.91666667,10.6686 5.178,10.3998 5.5,10.3998 C5.822,10.3998 6.08333333,10.6686 6.08333333,10.9998 C6.08333333,11.331 5.822,11.5998 5.5,11.5998 Z M8.41666667,10.2 L2.58333333,10.2 L2.58333333,1.2 L8.41666667,1.2 L8.41666667,10.2 Z" id="phone" fill="#1BB0E0" fill-rule="nonzero"></path>
    </g>
</svg>