<?xml version="1.0" encoding="UTF-8"?>
<svg width="68px" height="20px" viewBox="0 0 68 20" version="1.1" xmlns="http://www.w3.org/2000/svg" xmlns:xlink="http://www.w3.org/1999/xlink">
    <!-- Generator: Sketch 49 (51002) - http://www.bohemiancoding.com/sketch -->
    <title>Sign up</title>
    <desc>Created with Sketch.</desc>
    <defs></defs>
    <g id="Page-1" stroke="none" stroke-width="1" fill="none" fill-rule="evenodd">
        <g id="首页-en" transform="translate(-686.000000, -396.000000)" fill="#2BB789">
            <g id="按钮" transform="translate(645.000000, 375.000000)">
                <path d="M41.84,32.98 L43.72,32.66 C44.5,34.68 45.8,35.5 47.46,35.5 C49.46,35.5 50.5,34.2 50.5,33.1 C50.5,31.48 48.34,30.52 46.92,29.94 C44,28.84 42.28,27.7 42.28,25.74 C42.28,23.2 44.56,21.6 47.26,21.6 C49.78,21.6 51.58,23.02 52.24,25.16 L50.4,25.44 C49.84,23.98 48.66,23.2 47.18,23.2 C45.4,23.2 44.16,24.3 44.16,25.56 C44.16,26.96 45.64,27.62 47.56,28.38 C50.68,29.6 52.4,30.98 52.4,32.9 C52.4,35.32 50.46,37.1 47.42,37.1 C44.66,37.1 42.78,35.7 41.84,32.98 Z M54.64,25.92 L56.32,25.92 L56.32,36.74 L54.64,36.74 L54.64,25.92 Z M54.64,21.96 L56.32,21.96 L56.32,24.2 L54.64,24.2 L54.64,21.96 Z M58.46,31.32 C58.46,27.82 60.3,25.64 62.82,25.64 C64.04,25.64 65.16,26.06 66.24,27.34 L66.24,25.92 L67.9,25.92 L67.9,35.64 C67.9,38.8 66.56,40.96 62.96,40.96 C61.04,40.96 59.38,40.06 58.68,38.12 L60.2,37.82 C60.76,39.02 61.84,39.52 63.02,39.52 C65.04,39.52 66.24,38.28 66.24,35.82 L66.24,35.28 C65.12,36.52 63.9,36.96 62.88,36.96 C60.32,36.96 58.46,34.78 58.46,31.32 Z M63.18,35.42 C64.32,35.42 65.46,34.7 66.24,33.74 L66.24,28.98 C65.44,27.9 64.36,27.16 63.18,27.16 C61.26,27.16 60.14,28.94 60.14,31.32 C60.14,33.56 61.18,35.42 63.18,35.42 Z M70.38,25.92 L72.04,25.92 L72.04,27.42 C72.98,26.3 74.2,25.64 75.42,25.64 C77.78,25.64 79.02,26.98 79.02,29.48 L79.02,36.74 L77.32,36.74 L77.32,29.82 C77.32,28.08 76.4,27.08 74.94,27.08 C73.92,27.08 72.92,27.6 72.04,28.62 L72.04,36.74 L70.38,36.74 L70.38,25.92 Z M87.58,25.92 L89.24,25.92 L89.24,32.92 C89.24,34.64 90.24,35.66 91.7,35.66 C92.72,35.66 93.68,35.14 94.54,34.1 L94.54,25.92 L96.2,25.92 L96.2,36.74 L94.54,36.74 L94.54,35.36 C93.6,36.46 92.36,37.1 91.16,37.1 C88.9,37.1 87.58,35.74 87.58,33.24 L87.58,25.92 Z M98.68,25.92 L100.36,25.92 L100.36,27.32 C101.44,26.14 102.64,25.62 103.74,25.62 C106.78,25.62 108.18,28.08 108.18,31.44 C108.18,34.76 106.76,37.1 103.66,37.1 C102.54,37.1 101.28,36.52 100.36,35.64 L100.36,40.62 L98.68,40.62 L98.68,25.92 Z M103.46,27.14 C102.32,27.14 101.2,27.9 100.36,28.9 L100.36,34.12 C101.16,34.98 102.3,35.58 103.46,35.58 C105.6,35.58 106.48,33.58 106.48,31.44 C106.48,29.14 105.62,27.14 103.46,27.14 Z" id="Sign-up"></path>
            </g>
        </g>
    </g>
</svg>