<?xml version="1.0" encoding="UTF-8"?>
<svg width="66px" height="17px" viewBox="0 0 66 17" version="1.1" xmlns="http://www.w3.org/2000/svg" xmlns:xlink="http://www.w3.org/1999/xlink">
    <!-- Generator: Sketch 49 (51002) - http://www.bohemiancoding.com/sketch -->
    <title>立即注册</title>
    <desc>Created with Sketch.</desc>
    <defs></defs>
    <g id="Page-1" stroke="none" stroke-width="1" fill="none" fill-rule="evenodd">
        <g id="r" transform="translate(-142.000000, -81.000000)" fill="#2BB789">
            <path d="M154.474,86.778 C153.7,89.082 152.278,92.862 151.414,95.112 L156.868,95.112 L156.868,96.498 L142,96.498 L142,95.112 L149.902,95.112 C150.802,92.916 152.332,88.632 153.07,86.202 L154.474,86.778 Z M156.382,85.428 L142.486,85.428 L142.486,84.06 L149.236,84.06 C148.948,83.286 148.48,82.17 148.174,81.432 L149.614,81.018 C149.902,81.774 150.37,82.908 150.676,83.682 L149.542,84.06 L156.382,84.06 L156.382,85.428 Z M146.806,93.924 C146.23,92.034 145.024,88.596 144.358,86.832 L145.672,86.346 C146.284,87.984 147.58,91.602 148.192,93.348 L146.806,93.924 Z M165.616,95.868 L164.662,94.212 C163.528,94.734 160.9,95.94 159.802,96.534 L159.118,95.4 C159.676,95.094 159.676,94.77 159.676,94.41 L159.676,82.188 L165.832,82.188 L165.832,90.216 L160.918,90.216 L160.918,94.554 L163.996,93.114 C163.582,92.448 163.204,91.818 162.898,91.35 L163.942,90.756 C164.626,91.782 165.994,93.942 166.768,95.166 L165.616,95.868 Z M167.344,97.326 L167.344,82.548 L172.978,82.548 L172.978,92.664 C172.978,94.158 172.42,94.662 170.998,94.662 L169.378,94.662 L169.108,93.33 L170.458,93.33 C171.502,93.33 171.664,93.006 171.664,92.16 L171.664,83.898 L168.64,83.898 L168.64,97.326 L167.344,97.326 Z M160.918,83.376 L160.918,85.644 L164.572,85.644 L164.572,83.376 L160.918,83.376 Z M160.918,89.028 L164.572,89.028 L164.572,86.796 L160.918,86.796 L160.918,89.028 Z M189.808,90.81 L185.812,90.81 L185.812,95.256 L190.78,95.256 L190.78,96.57 L179.422,96.57 L179.422,95.256 L184.444,95.256 L184.444,90.81 L180.502,90.81 L180.502,89.496 L184.444,89.496 L184.444,85.59 L180.322,85.59 L180.322,84.276 L185.11,84.276 C184.768,83.52 184.282,82.494 183.796,81.594 L184.948,81 C185.434,81.864 185.902,82.818 186.334,83.682 L185.164,84.276 L190.348,84.276 L190.348,85.59 L185.812,85.59 L185.812,89.496 L189.808,89.496 L189.808,90.81 Z M175.822,96.804 C176.218,96.084 178.09,91.494 178.324,90.774 L179.62,91.314 C179.332,92.034 177.514,96.498 177.154,97.344 L175.822,96.804 Z M178.756,89.568 C177.82,88.812 176.218,87.552 175.39,86.94 L176.164,85.842 C177.046,86.472 178.63,87.678 179.548,88.398 L178.756,89.568 Z M179.458,85.248 L176.344,82.836 L177.1,81.738 C177.838,82.296 179.458,83.52 180.214,84.114 L179.458,85.248 Z M195.514,95.634 L196.882,95.634 C197.728,95.634 197.998,95.382 197.998,94.554 L197.998,89.496 L195.694,89.496 C195.658,93.69 195.28,95.13 193.804,97.542 L192.544,96.858 C193.984,94.68 194.344,93.438 194.398,89.496 L192.4,89.496 L192.4,88.2 L194.416,88.2 L194.416,82.224 L199.276,82.224 L199.276,88.2 L200.86,88.2 L200.86,82.224 L205.882,82.224 L205.882,88.2 L207.736,88.2 L207.736,89.496 L205.882,89.496 L205.882,95.148 C205.882,96.696 205.45,97.092 203.884,97.092 L202.354,97.092 L202.084,95.76 L203.488,95.76 C204.442,95.76 204.604,95.526 204.604,94.644 L204.604,89.496 L202.156,89.496 C202.12,93.672 201.76,95.13 200.356,97.542 L199.078,96.876 C200.464,94.662 200.788,93.42 200.842,89.496 L199.276,89.496 L199.276,94.86 C199.276,96.372 198.736,96.894 197.206,96.894 L195.766,96.894 L195.514,95.634 Z M202.156,83.502 L202.156,88.2 L204.604,88.2 L204.604,83.502 L202.156,83.502 Z M195.694,83.502 L195.694,88.2 L197.998,88.2 L197.998,83.502 L195.694,83.502 Z" id="立即注册"></path>
        </g>
    </g>
</svg>