<?xml version="1.0" encoding="UTF-8"?>
<svg width="70px" height="20px" viewBox="0 0 70 20" version="1.1" xmlns="http://www.w3.org/2000/svg" xmlns:xlink="http://www.w3.org/1999/xlink">
    <!-- Generator: Sketch 49.3 (51167) - http://www.bohemiancoding.com/sketch -->
    <title>Sign up_hover</title>
    <desc>Created with Sketch.</desc>
    <defs></defs>
    <g id="assets" stroke="none" stroke-width="1" fill="none" fill-rule="evenodd">
        <path d="M10.04,1.54 C10.9866714,2.3000038 11.5333326,3.4333258 11.68,4.94 L10.06,4.94 C9.8866658,3.9133282 9.4866698,3.1466692 8.86,2.64 C8.2333302,2.1333308 7.3333392,1.88 6.16,1.88 C5.0799946,1.88 4.2533362,2.0533316 3.68,2.4 C2.9999966,2.800002 2.66,3.4066626 2.66,4.22 C2.66,4.9400036 3.0666626,5.5199978 3.88,5.96 C4.2266684,6.160001 5.099993,6.459998 6.5,6.86 C8.3800094,7.4200028 9.619997,7.8799982 10.22,8.24 C11.4066726,8.9600036 12,9.9666602 12,11.26 C12,12.5133396 11.500005,13.4999964 10.5,14.22 C9.4866616,14.9266702 8.1400084,15.28 6.46,15.28 C4.7799916,15.28 3.4600048,14.9200036 2.5,14.2 C1.3799944,13.333329 0.7600006,12.0266754 0.64,10.28 L2.26,10.28 C2.4066674,11.5200062 2.8399964,12.4333304 3.56,13.02 C4.2400034,13.553336 5.2066604,13.82 6.46,13.82 C7.6333392,13.82 8.5799964,13.6000022 9.3,13.16 C10.0200036,12.7199978 10.38,12.1200038 10.38,11.36 C10.38,10.4666622 9.9066714,9.7666692 8.96,9.26 C8.5999982,9.0466656 7.5933416,8.7000024 5.94,8.22 C4.2599916,7.7133308 3.1666692,7.326668 2.66,7.06 C1.5666612,6.4199968 1.02,5.500006 1.02,4.3 C1.02,3.0466604 1.5466614,2.0800034 2.6,1.4 C3.5466714,0.7599968 4.7599926,0.44 6.24,0.44 C7.8666748,0.44 9.1333288,0.806663 10.04,1.54 Z M16.06,1.1 C16.3000012,1.300001 16.42,1.5799982 16.42,1.94 C16.42,2.273335 16.3000012,2.5599988 16.06,2.8 C15.8066654,3.0266678 15.5200016,3.14 15.2,3.14 C14.8799984,3.14 14.5933346,3.0266678 14.34,2.8 C14.1133322,2.5733322 14,2.2866684 14,1.94 C14,1.5666648 14.1133322,1.2866676 14.34,1.1 C14.5666678,0.8733322 14.8533316,0.76 15.2,0.76 C15.5466684,0.76 15.8333322,0.8733322 16.06,1.1 Z M14.4,4.66 L16,4.66 L16,15 L14.4,15 L14.4,4.66 Z M26.74,6.44 L26.74,4.66 L28.34,4.66 L28.34,14.28 C28.34,17.5866832 26.7666824,19.24 23.62,19.24 C22.2066596,19.24 21.1400036,18.9600028 20.42,18.4 C19.686663,17.8399972 19.2266676,17.0000056 19.04,15.88 L20.64,15.88 C20.7600006,16.5866702 21.053331,17.0999984 21.52,17.42 C21.986669,17.7666684 22.686662,17.94 23.62,17.94 C25.7000104,17.94 26.74,16.7933448 26.74,14.5 L26.74,12.68 C25.9799962,14.0666736 24.8200078,14.76 23.26,14.76 C21.8199928,14.76 20.6800042,14.2666716 19.84,13.28 C19.0133292,12.3333286 18.6,11.1066742 18.6,9.6 C18.6,8.0799924 19.0133292,6.8466714 19.84,5.9 C20.6800042,4.8866616 21.8199928,4.38 23.26,4.38 C24.8200078,4.38 25.9799962,5.0666598 26.74,6.44 Z M21.08,6.82 C20.5199972,7.5000034 20.24,8.4266608 20.24,9.6 C20.24,10.7066722 20.4866642,11.59333 20.98,12.26 C21.5533362,13.0333372 22.3866612,13.42 23.48,13.42 C24.5066718,13.42 25.319997,13.0600036 25.92,12.34 C26.4800028,11.6333298 26.76,10.7200056 26.76,9.6 C26.76,8.4266608 26.4800028,7.5000034 25.92,6.82 C25.3333304,6.0733296 24.5266718,5.7 23.5,5.7 C22.4599948,5.7 21.6533362,6.0733296 21.08,6.82 Z M39.52,8.64 L39.52,15 L37.92,15 L37.92,8.76 C37.92,6.7466566 37.0133424,5.74 35.2,5.74 C34.4799964,5.74 33.8600026,5.9999974 33.34,6.52 C32.7933306,7.0666694 32.486667,7.8133286 32.42,8.76 L32.42,15 L30.82,15 L30.82,4.66 L32.42,4.66 L32.42,6.18 C32.7800018,5.5933304 33.2399972,5.1533348 33.8,4.86 C34.3600028,4.5399984 34.9799966,4.38 35.66,4.38 C38.2333462,4.38 39.52,5.7999858 39.52,8.64 Z M48.66,4.66 L50.26,4.66 L50.26,10.98 C50.26,11.980005 50.4666646,12.713331 50.88,13.18 C51.3066688,13.6733358 51.986662,13.92 52.92,13.92 C53.58667,13.92 54.1999972,13.653336 54.76,13.12 C55.3200028,12.5599972 55.6599994,11.8400044 55.78,10.96 L55.78,4.66 L57.38,4.66 L57.38,15 L55.78,15 L55.78,13.4 C54.9266624,14.6533396 53.8066736,15.28 52.42,15.28 C49.9133208,15.28 48.66,13.8733474 48.66,11.06 L48.66,4.66 Z M68.32,6.04 C69.1066706,7.0533384 69.5,8.326659 69.5,9.86 C69.5,11.3666742 69.1133372,12.6266616 68.34,13.64 C67.4866624,14.7333388 66.3333406,15.28 64.88,15.28 C63.3999926,15.28 62.260004,14.5600072 61.46,13.12 L61.46,18.96 L59.86,18.96 L59.86,4.66 L61.36,4.66 L61.36,6.36 C62.1066704,5.0399934 63.2533256,4.38 64.8,4.38 C66.2933408,4.38 67.4666624,4.9333278 68.32,6.04 Z M62.18,6.92 C61.6599974,7.6400036 61.4,8.5866608 61.4,9.76 L61.4,9.96 C61.4,11.1733394 61.6933304,12.1399964 62.28,12.86 C62.8533362,13.593337 63.606662,13.96 64.54,13.96 C65.6466722,13.96 66.4933304,13.5733372 67.08,12.8 C67.6000026,12.0799964 67.86,11.1000062 67.86,9.86 C67.86,8.6466606 67.6133358,7.673337 67.12,6.94 C66.5466638,6.1133292 65.7066722,5.7 64.6,5.7 C63.5466614,5.7 62.7400028,6.1066626 62.18,6.92 Z" id="Sign-up_hover" fill="#000000"></path>
    </g>
</svg>