<?xml version="1.0" encoding="UTF-8"?>
<svg width="80px" height="19px" viewBox="0 0 80 19" version="1.1" xmlns="http://www.w3.org/2000/svg" xmlns:xlink="http://www.w3.org/1999/xlink">
    <!-- Generator: Sketch 49.3 (51167) - http://www.bohemiancoding.com/sketch -->
    <title>立即注册_hover</title>
    <desc>Created with Sketch.</desc>
    <defs></defs>
    <g id="assets" stroke="none" stroke-width="1" fill="none" fill-rule="evenodd">
        <g id="立即注册" transform="translate(-1.000000, -109.000000)" fill="#000000">
            <path d="M2.66,112.88 L10.34,112.88 C10.0199984,111.799995 9.6800018,110.820004 9.32,109.94 L10.98,109.66 C11.2733348,110.513338 11.5799984,111.58666 11.9,112.88 L19.4,112.88 L19.4,114.28 L2.66,114.28 L2.66,112.88 Z M1.98,125.44 L11.9,125.44 C13.100006,122.81332 14.166662,119.48002 15.1,115.44 L16.62,115.84 C15.7933292,119.466685 14.7666728,122.666653 13.54,125.44 L20.08,125.44 L20.08,126.84 L1.98,126.84 L1.98,125.44 Z M6.96,115.52 C7.8533378,118.133346 8.63333,121.10665 9.3,124.44 L7.76,124.82 C7.1733304,121.859985 6.4066714,118.926681 5.46,116.02 L6.96,115.52 Z M24.38,115.68 L24.38,118.44 L29.12,118.44 L29.12,115.68 L24.38,115.68 Z M29.12,114.38 L29.12,111.76 L24.38,111.76 L24.38,114.38 L29.12,114.38 Z M22.3,126.02 C22.7400022,125.859999 22.96,125.600002 22.96,125.24 L22.96,110.46 L30.48,110.46 L30.48,119.78 L24.38,119.78 L24.38,125.54 C26.2600094,124.979997 27.8199938,124.446669 29.06,123.94 C28.6733314,123.23333 28.2600022,122.54667 27.82,121.88 L28.92,121.18 C30.1733396,123.10001 31.13333,124.793326 31.8,126.26 L30.7,127.06 C30.4199986,126.43333 30.1000018,125.793337 29.74,125.14 C27.6866564,126.006671 25.3733462,126.759997 22.8,127.4 L22.3,126.02 Z M35.76,125.24 L35.38,123.84 L37.1,123.88 C37.6466694,123.88 37.92,123.606669 37.92,123.06 L37.92,111.82 L34.28,111.82 L34.28,127.94 L32.84,127.94 L32.84,110.46 L39.36,110.46 L39.36,123.38 C39.36,124.620006 38.7666726,125.24 37.58,125.24 L35.76,125.24 Z M43.54,109.88 C44.9933406,110.933339 46.186662,111.959995 47.12,112.96 L46.1,114 C45.2066622,113.013328 44.0133408,111.966672 42.52,110.86 L43.54,109.88 Z M43.08,114.64 C44.3866732,115.613338 45.5133286,116.626661 46.46,117.68 L45.44,118.7 C44.6266626,117.739995 43.5000072,116.713339 42.06,115.62 L43.08,114.64 Z M46.92,120.72 C46.0133288,123.266679 45.0133388,125.639989 43.92,127.84 L42.48,127.22 C43.7066728,124.899988 44.7599956,122.560012 45.64,120.2 L46.92,120.72 Z M47.88,113.04 L53.26,113.04 C52.8466646,111.919994 52.3933358,110.886671 51.9,109.94 L53.26,109.56 C53.8466696,110.786673 54.2799986,111.839996 54.56,112.72 L53.74,113.04 L59.7,113.04 L59.7,114.46 L54.54,114.46 L54.54,119.26 L59.16,119.26 L59.16,120.64 L54.54,120.64 L54.54,125.9 L60.08,125.9 L60.08,127.32 L47.38,127.32 L47.38,125.9 L53.08,125.9 L53.08,120.64 L48.44,120.64 L48.44,119.26 L53.08,119.26 L53.08,114.46 L47.88,114.46 L47.88,113.04 Z M61.92,117.64 L64.28,117.64 L64.28,110.44 L69.96,110.44 L69.96,117.64 L72.2,117.64 L72.2,110.44 L77.92,110.44 L77.92,117.64 L80.08,117.64 L80.08,119.02 L77.92,119.02 L77.92,126.16 C77.92,127.240005 77.3333392,127.78 76.16,127.78 L74.3,127.78 L73.92,126.42 C74.5600032,126.46 75.1599972,126.48 75.72,126.48 C76.2400026,126.48 76.5,126.200003 76.5,125.64 L76.5,119.02 L73.58,119.02 L73.58,120.04 C73.5399998,123.320016 72.9333392,125.966657 71.76,127.98 L70.7,127.04 C71.6600048,125.239991 72.1599998,122.940014 72.2,120.14 L72.2,119.02 L69.96,119.02 L69.96,126.12 C69.96,127.226672 69.4400052,127.78 68.4,127.78 L66.52,127.78 L66.16,126.42 C66.8000032,126.46 67.3999972,126.48 67.96,126.48 C68.3733354,126.48 68.58,126.200003 68.58,125.64 L68.58,119.02 L65.68,119.02 L65.68,120 C65.6399998,123.29335 64.9600066,125.95999 63.64,128 L62.58,127.02 C63.6733388,125.233324 64.2399998,122.933347 64.28,120.12 L64.28,119.02 L61.92,119.02 L61.92,117.64 Z M76.5,117.64 L76.5,111.76 L73.58,111.76 L73.58,117.64 L76.5,117.64 Z M68.58,117.64 L68.58,111.76 L65.68,111.76 L65.68,117.64 L68.58,117.64 Z" id="立即注册_hover"></path>
        </g>
    </g>
</svg>