<?xml version="1.0" encoding="UTF-8"?>
<svg width="70px" height="20px" viewBox="0 0 70 20" version="1.1" xmlns="http://www.w3.org/2000/svg" xmlns:xlink="http://www.w3.org/1999/xlink">
    <!-- Generator: Sketch 49.3 (51167) - http://www.bohemiancoding.com/sketch -->
    <title>Sign up</title>
    <desc>Created with Sketch.</desc>
    <defs></defs>
    <g id="assets" stroke="none" stroke-width="1" fill="none" fill-rule="evenodd">
        <g id="立即注册" transform="translate(-7.000000, -212.000000)" fill="#2BB789">
            <path d="M17.04,213.54 C17.9866714,214.300004 18.5333326,215.433326 18.68,216.94 L17.06,216.94 C16.8866658,215.913328 16.4866698,215.146669 15.86,214.64 C15.2333302,214.133331 14.3333392,213.88 13.16,213.88 C12.0799946,213.88 11.2533362,214.053332 10.68,214.4 C9.9999966,214.800002 9.66,215.406663 9.66,216.22 C9.66,216.940004 10.0666626,217.519998 10.88,217.96 C11.2266684,218.160001 12.099993,218.459998 13.5,218.86 C15.3800094,219.420003 16.619997,219.879998 17.22,220.24 C18.4066726,220.960004 19,221.96666 19,223.26 C19,224.51334 18.500005,225.499996 17.5,226.22 C16.4866616,226.92667 15.1400084,227.28 13.46,227.28 C11.7799916,227.28 10.4600048,226.920004 9.5,226.2 C8.3799944,225.333329 7.7600006,224.026675 7.64,222.28 L9.26,222.28 C9.4066674,223.520006 9.8399964,224.43333 10.56,225.02 C11.2400034,225.553336 12.2066604,225.82 13.46,225.82 C14.6333392,225.82 15.5799964,225.600002 16.3,225.16 C17.0200036,224.719998 17.38,224.120004 17.38,223.36 C17.38,222.466662 16.9066714,221.766669 15.96,221.26 C15.5999982,221.046666 14.5933416,220.700002 12.94,220.22 C11.2599916,219.713331 10.1666692,219.326668 9.66,219.06 C8.5666612,218.419997 8.02,217.500006 8.02,216.3 C8.02,215.04666 8.5466614,214.080003 9.6,213.4 C10.5466714,212.759997 11.7599926,212.44 13.24,212.44 C14.8666748,212.44 16.1333288,212.806663 17.04,213.54 Z M23.06,213.1 C23.3000012,213.300001 23.42,213.579998 23.42,213.94 C23.42,214.273335 23.3000012,214.559999 23.06,214.8 C22.8066654,215.026668 22.5200016,215.14 22.2,215.14 C21.8799984,215.14 21.5933346,215.026668 21.34,214.8 C21.1133322,214.573332 21,214.286668 21,213.94 C21,213.566665 21.1133322,213.286668 21.34,213.1 C21.5666678,212.873332 21.8533316,212.76 22.2,212.76 C22.5466684,212.76 22.8333322,212.873332 23.06,213.1 Z M21.4,216.66 L23,216.66 L23,227 L21.4,227 L21.4,216.66 Z M33.74,218.44 L33.74,216.66 L35.34,216.66 L35.34,226.28 C35.34,229.586683 33.7666824,231.24 30.62,231.24 C29.2066596,231.24 28.1400036,230.960003 27.42,230.4 C26.686663,229.839997 26.2266676,229.000006 26.04,227.88 L27.64,227.88 C27.7600006,228.58667 28.053331,229.099998 28.52,229.42 C28.986669,229.766668 29.686662,229.94 30.62,229.94 C32.7000104,229.94 33.74,228.793345 33.74,226.5 L33.74,224.68 C32.9799962,226.066674 31.8200078,226.76 30.26,226.76 C28.8199928,226.76 27.6800042,226.266672 26.84,225.28 C26.0133292,224.333329 25.6,223.106674 25.6,221.6 C25.6,220.079992 26.0133292,218.846671 26.84,217.9 C27.6800042,216.886662 28.8199928,216.38 30.26,216.38 C31.8200078,216.38 32.9799962,217.06666 33.74,218.44 Z M28.08,218.82 C27.5199972,219.500003 27.24,220.426661 27.24,221.6 C27.24,222.706672 27.4866642,223.59333 27.98,224.26 C28.5533362,225.033337 29.3866612,225.42 30.48,225.42 C31.5066718,225.42 32.319997,225.060004 32.92,224.34 C33.4800028,223.63333 33.76,222.720006 33.76,221.6 C33.76,220.426661 33.4800028,219.500003 32.92,218.82 C32.3333304,218.07333 31.5266718,217.7 30.5,217.7 C29.4599948,217.7 28.6533362,218.07333 28.08,218.82 Z M46.52,220.64 L46.52,227 L44.92,227 L44.92,220.76 C44.92,218.746657 44.0133424,217.74 42.2,217.74 C41.4799964,217.74 40.8600026,217.999997 40.34,218.52 C39.7933306,219.066669 39.486667,219.813329 39.42,220.76 L39.42,227 L37.82,227 L37.82,216.66 L39.42,216.66 L39.42,218.18 C39.7800018,217.59333 40.2399972,217.153335 40.8,216.86 C41.3600028,216.539998 41.9799966,216.38 42.66,216.38 C45.2333462,216.38 46.52,217.799986 46.52,220.64 Z M55.66,216.66 L57.26,216.66 L57.26,222.98 C57.26,223.980005 57.4666646,224.713331 57.88,225.18 C58.3066688,225.673336 58.986662,225.92 59.92,225.92 C60.58667,225.92 61.1999972,225.653336 61.76,225.12 C62.3200028,224.559997 62.6599994,223.840004 62.78,222.96 L62.78,216.66 L64.38,216.66 L64.38,227 L62.78,227 L62.78,225.4 C61.9266624,226.65334 60.8066736,227.28 59.42,227.28 C56.9133208,227.28 55.66,225.873347 55.66,223.06 L55.66,216.66 Z M75.32,218.04 C76.1066706,219.053338 76.5,220.326659 76.5,221.86 C76.5,223.366674 76.1133372,224.626662 75.34,225.64 C74.4866624,226.733339 73.3333406,227.28 71.88,227.28 C70.3999926,227.28 69.260004,226.560007 68.46,225.12 L68.46,230.96 L66.86,230.96 L66.86,216.66 L68.36,216.66 L68.36,218.36 C69.1066704,217.039993 70.2533256,216.38 71.8,216.38 C73.2933408,216.38 74.4666624,216.933328 75.32,218.04 Z M69.18,218.92 C68.6599974,219.640004 68.4,220.586661 68.4,221.76 L68.4,221.96 C68.4,223.173339 68.6933304,224.139996 69.28,224.86 C69.8533362,225.593337 70.606662,225.96 71.54,225.96 C72.6466722,225.96 73.4933304,225.573337 74.08,224.8 C74.6000026,224.079996 74.86,223.100006 74.86,221.86 C74.86,220.646661 74.6133358,219.673337 74.12,218.94 C73.5466638,218.113329 72.7066722,217.7 71.6,217.7 C70.5466614,217.7 69.7400028,218.106663 69.18,218.92 Z" id="Sign-up"></path>
        </g>
    </g>
</svg>