<?xml version="1.0" encoding="UTF-8"?>
<svg width="80px" height="19px" viewBox="0 0 80 19" version="1.1" xmlns="http://www.w3.org/2000/svg" xmlns:xlink="http://www.w3.org/1999/xlink">
    <!-- Generator: Sketch 49.3 (51167) - http://www.bohemiancoding.com/sketch -->
    <title>立即注册</title>
    <desc>Created with Sketch.</desc>
    <defs></defs>
    <g id="assets" stroke="none" stroke-width="1" fill="none" fill-rule="evenodd">
        <g id="立即注册" fill="#2BB789">
            <path d="M1.66,3.88 L9.34,3.88 C9.0199984,2.7999946 8.6800018,1.8200044 8.32,0.94 L9.98,0.66 C10.2733348,1.5133376 10.5799984,2.5866602 10.9,3.88 L18.4,3.88 L18.4,5.28 L1.66,5.28 L1.66,3.88 Z M0.98,16.44 L10.9,16.44 C12.100006,13.8133202 13.166662,10.4800202 14.1,6.44 L15.62,6.84 C14.7933292,10.4666848 13.7666728,13.6666528 12.54,16.44 L19.08,16.44 L19.08,17.84 L0.98,17.84 L0.98,16.44 Z M5.96,6.52 C6.8533378,9.1333464 7.63333,12.10665 8.3,15.44 L6.76,15.82 C6.1733304,12.8599852 5.4066714,9.9266812 4.46,7.02 L5.96,6.52 Z M23.38,6.68 L23.38,9.44 L28.12,9.44 L28.12,6.68 L23.38,6.68 Z M28.12,5.38 L28.12,2.76 L23.38,2.76 L23.38,5.38 L28.12,5.38 Z M21.3,17.02 C21.7400022,16.8599992 21.96,16.6000018 21.96,16.24 L21.96,1.46 L29.48,1.46 L29.48,10.78 L23.38,10.78 L23.38,16.54 C25.2600094,15.9799972 26.8199938,15.4466692 28.06,14.94 C27.6733314,14.2333298 27.2600022,13.54667 26.82,12.88 L27.92,12.18 C29.1733396,14.1000096 30.13333,15.793326 30.8,17.26 L29.7,18.06 C29.4199986,17.4333302 29.1000018,16.7933366 28.74,16.14 C26.6866564,17.006671 24.3733462,17.7599968 21.8,18.4 L21.3,17.02 Z M34.76,16.24 L34.38,14.84 L36.1,14.88 C36.6466694,14.88 36.92,14.6066694 36.92,14.06 L36.92,2.82 L33.28,2.82 L33.28,18.94 L31.84,18.94 L31.84,1.46 L38.36,1.46 L38.36,14.38 C38.36,15.6200062 37.7666726,16.24 36.58,16.24 L34.76,16.24 Z M42.54,0.88 C43.9933406,1.9333386 45.186662,2.959995 46.12,3.96 L45.1,5 C44.2066622,4.0133284 43.0133408,2.9666722 41.52,1.86 L42.54,0.88 Z M42.08,5.64 C43.3866732,6.6133382 44.5133286,7.6266614 45.46,8.68 L44.44,9.7 C43.6266626,8.7399952 42.5000072,7.7133388 41.06,6.62 L42.08,5.64 Z M45.92,11.72 C45.0133288,14.2666794 44.0133388,16.639989 42.92,18.84 L41.48,18.22 C42.7066728,15.8999884 43.7599956,13.5600118 44.64,11.2 L45.92,11.72 Z M46.88,4.04 L52.26,4.04 C51.8466646,2.9199944 51.3933358,1.8866714 50.9,0.94 L52.26,0.56 C52.8466696,1.7866728 53.2799986,2.8399956 53.56,3.72 L52.74,4.04 L58.7,4.04 L58.7,5.46 L53.54,5.46 L53.54,10.26 L58.16,10.26 L58.16,11.64 L53.54,11.64 L53.54,16.9 L59.08,16.9 L59.08,18.32 L46.38,18.32 L46.38,16.9 L52.08,16.9 L52.08,11.64 L47.44,11.64 L47.44,10.26 L52.08,10.26 L52.08,5.46 L46.88,5.46 L46.88,4.04 Z M60.92,8.64 L63.28,8.64 L63.28,1.44 L68.96,1.44 L68.96,8.64 L71.2,8.64 L71.2,1.44 L76.92,1.44 L76.92,8.64 L79.08,8.64 L79.08,10.02 L76.92,10.02 L76.92,17.16 C76.92,18.2400054 76.3333392,18.78 75.16,18.78 L73.3,18.78 L72.92,17.42 C73.5600032,17.4600002 74.1599972,17.48 74.72,17.48 C75.2400026,17.48 75.5,17.2000028 75.5,16.64 L75.5,10.02 L72.58,10.02 L72.58,11.04 C72.5399998,14.3200164 71.9333392,16.9666566 70.76,18.98 L69.7,18.04 C70.6600048,16.239991 71.1599998,13.940014 71.2,11.14 L71.2,10.02 L68.96,10.02 L68.96,17.12 C68.96,18.2266722 68.4400052,18.78 67.4,18.78 L65.52,18.78 L65.16,17.42 C65.8000032,17.4600002 66.3999972,17.48 66.96,17.48 C67.3733354,17.48 67.58,17.2000028 67.58,16.64 L67.58,10.02 L64.68,10.02 L64.68,11 C64.6399998,14.2933498 63.9600066,16.9599898 62.64,19 L61.58,18.02 C62.6733388,16.2333244 63.2399998,13.9333474 63.28,11.12 L63.28,10.02 L60.92,10.02 L60.92,8.64 Z M75.5,8.64 L75.5,2.76 L72.58,2.76 L72.58,8.64 L75.5,8.64 Z M67.58,8.64 L67.58,2.76 L64.68,2.76 L64.68,8.64 L67.58,8.64 Z"></path>
        </g>
    </g>
</svg>