<?xml version="1.0" encoding="UTF-8"?>
<svg width="832px" height="124px" viewBox="0 0 832 124" version="1.1" xmlns="http://www.w3.org/2000/svg" xmlns:xlink="http://www.w3.org/1999/xlink">
    <!-- Generator: Sketch 49 (51002) - http://www.bohemiancoding.com/sketch -->
    <title>text_en</title>
    <desc>Created with Sketch.</desc>
    <defs></defs>
    <g id="Page-1" stroke="none" stroke-width="1" fill="none" fill-rule="evenodd">
        <g id="确定搞-英文" transform="translate(-304.000000, -199.000000)" fill="#FFFFFF">
            <g id="文案" transform="translate(302.000000, 180.000000)">
                <g id="text_en">
                    <path d="M78.12,123.152 L80.28,123.152 L83.88,137.744 L83.928,137.744 L87.696,123.152 L89.976,123.152 L93.84,137.768 L93.888,137.768 L97.464,123.152 L99.624,123.152 L95.016,140.888 L92.712,140.888 L88.872,126.128 L88.824,126.128 L85.032,140.888 L82.776,140.888 L78.12,123.152 Z M101.472,123.152 L112.68,123.152 L112.68,125.072 L103.44,125.072 L103.44,130.736 L111.84,130.736 L111.84,132.632 L103.44,132.632 L103.44,138.992 L112.824,138.992 L112.824,140.888 L101.472,140.888 L101.472,123.152 Z M122.424,123.152 L128.16,123.152 C132.048,123.152 133.608,125.336 133.608,128.408 C133.608,131.648 131.928,133.784 128.16,133.784 L124.392,133.784 L124.392,140.888 L122.424,140.888 L122.424,123.152 Z M124.392,125.072 L124.392,131.888 L127.872,131.888 C130.368,131.864 131.64,130.64 131.64,128.408 C131.64,126.272 130.344,125.072 127.944,125.072 L124.392,125.072 Z M136.2,123.152 L142.224,123.152 C145.704,123.152 147.312,125.264 147.312,127.976 C147.312,130.232 146.112,131.6 144.72,132.296 L144.72,132.32 C146.064,132.848 146.904,134.24 147,136.256 C147.096,137.888 147.456,139.904 147.792,140.888 L145.728,140.888 C145.416,139.904 145.2,138.368 145.08,136.472 C144.96,134.576 144.072,133.28 142.464,133.28 L138.168,133.28 L138.168,140.888 L136.2,140.888 L136.2,123.152 Z M138.168,125.072 L138.168,131.36 L142.128,131.36 C144.12,131.36 145.32,129.968 145.32,128.12 C145.32,126.272 144.168,125.072 142.008,125.072 L138.168,125.072 Z M151.584,132.032 C151.584,135.92 153.384,139.4 156.768,139.4 C160.272,139.4 161.952,135.992 161.952,132.032 C161.952,128.096 160.176,124.64 156.768,124.64 C153.336,124.64 151.584,128.072 151.584,132.032 Z M149.616,132.032 C149.616,127.112 151.896,122.72 156.768,122.72 C161.664,122.72 163.92,127.16 163.92,132.032 C163.92,136.904 161.736,141.32 156.768,141.32 C151.896,141.32 149.616,136.808 149.616,132.032 Z M165.024,123.152 L167.136,123.152 L171.792,138.104 L171.84,138.104 L176.448,123.152 L178.536,123.152 L172.896,140.888 L170.712,140.888 L165.024,123.152 Z M180.36,123.152 L182.352,123.152 L182.352,140.888 L180.36,140.888 L180.36,123.152 Z M185.808,123.152 L191.52,123.152 C196.68,123.152 198.528,127.712 198.528,132.008 C198.528,137.048 196.32,140.888 191.256,140.888 L185.808,140.888 L185.808,123.152 Z M187.776,125.072 L187.776,138.992 L191.256,138.992 C194.304,138.992 196.536,136.664 196.536,131.984 C196.536,128.696 195.144,125.072 191.208,125.072 L187.776,125.072 Z M201.192,123.152 L212.4,123.152 L212.4,125.072 L203.16,125.072 L203.16,130.736 L211.56,130.736 L211.56,132.632 L203.16,132.632 L203.16,138.992 L212.544,138.992 L212.544,140.888 L201.192,140.888 L201.192,123.152 Z M220.488,140.888 L226.704,123.152 L228.864,123.152 L234.984,140.888 L232.92,140.888 L231.264,136.016 L224.232,136.016 L222.552,140.888 L220.488,140.888 Z M227.76,125.792 L224.88,134.096 L230.616,134.096 L227.808,125.792 L227.76,125.792 Z M236.784,123.152 L238.752,123.152 L238.752,138.992 L247.008,138.992 L247.008,140.888 L236.784,140.888 L236.784,123.152 Z M249.048,123.152 L251.016,123.152 L251.016,138.992 L259.272,138.992 L259.272,140.888 L249.048,140.888 L249.048,123.152 Z M260.52,130.952 L268.944,130.952 L268.944,132.752 L260.52,132.752 L260.52,130.952 Z M271.584,123.152 L277.608,123.152 C281.088,123.152 282.696,125.264 282.696,127.976 C282.696,130.232 281.496,131.6 280.104,132.296 L280.104,132.32 C281.448,132.848 282.288,134.24 282.384,136.256 C282.48,137.888 282.84,139.904 283.176,140.888 L281.112,140.888 C280.8,139.904 280.584,138.368 280.464,136.472 C280.344,134.576 279.456,133.28 277.848,133.28 L273.552,133.28 L273.552,140.888 L271.584,140.888 L271.584,123.152 Z M273.552,125.072 L273.552,131.36 L277.512,131.36 C279.504,131.36 280.704,129.968 280.704,128.12 C280.704,126.272 279.552,125.072 277.392,125.072 L273.552,125.072 Z M286.968,132.032 C286.968,135.92 288.768,139.4 292.152,139.4 C295.656,139.4 297.336,135.992 297.336,132.032 C297.336,128.096 295.56,124.64 292.152,124.64 C288.72,124.64 286.968,128.072 286.968,132.032 Z M285,132.032 C285,127.112 287.28,122.72 292.152,122.72 C297.048,122.72 299.304,127.16 299.304,132.032 C299.304,136.904 297.12,141.32 292.152,141.32 C287.28,141.32 285,136.808 285,132.032 Z M301.968,123.152 L303.936,123.152 L303.936,133.904 C303.936,137.24 305.28,139.4 308.136,139.4 C310.92,139.4 312.288,137.312 312.288,133.904 L312.288,123.152 L314.28,123.152 L314.28,133.976 C314.28,138.92 311.808,141.32 308.136,141.32 C304.416,141.32 301.968,138.92 301.968,133.976 L301.968,123.152 Z M317.664,123.152 L319.704,123.152 L328.344,137.24 L328.392,137.24 L328.392,123.152 L330.36,123.152 L330.36,140.888 L328.32,140.888 L319.68,126.8 L319.632,126.8 L319.632,140.888 L317.664,140.888 L317.664,123.152 Z M333.816,123.152 L339.528,123.152 C344.688,123.152 346.536,127.712 346.536,132.008 C346.536,137.048 344.328,140.888 339.264,140.888 L333.816,140.888 L333.816,123.152 Z M335.784,125.072 L335.784,138.992 L339.264,138.992 C342.312,138.992 344.544,136.664 344.544,131.984 C344.544,128.696 343.152,125.072 339.216,125.072 L335.784,125.072 Z M356.016,123.152 L357.984,123.152 L357.984,130.736 L366.768,130.736 L366.768,123.152 L368.736,123.152 L368.736,140.888 L366.768,140.888 L366.768,132.632 L357.984,132.632 L357.984,140.888 L356.016,140.888 L356.016,123.152 Z M372.192,123.152 L374.184,123.152 L374.184,140.888 L372.192,140.888 L372.192,123.152 Z M377.16,131.984 C377.16,126.488 380.016,122.72 384.336,122.72 C388.272,122.72 389.736,125.24 390.648,127.616 L388.608,127.976 C387.816,125.768 386.4,124.64 384.336,124.64 C381.264,124.64 379.128,127.64 379.128,131.984 C379.128,136.496 381.336,139.4 384.144,139.4 C386.544,139.4 388.296,137.552 388.968,135.032 L388.968,133.232 L384.408,133.232 L384.408,131.336 L390.936,131.336 L390.936,140.888 L389.16,140.888 L389.16,137.672 C388.248,139.736 386.424,141.32 383.904,141.32 C380.4,141.32 377.16,137.96 377.16,131.984 Z M394.32,123.152 L396.288,123.152 L396.288,130.736 L405.072,130.736 L405.072,123.152 L407.04,123.152 L407.04,140.888 L405.072,140.888 L405.072,132.632 L396.288,132.632 L396.288,140.888 L394.32,140.888 L394.32,123.152 Z M416.592,132.032 C416.592,127.112 418.872,122.72 423.744,122.72 C428.64,122.72 430.896,127.16 430.896,132.032 C430.896,134.696 430.248,137.216 428.856,138.968 L430.68,140.816 L429.336,142.352 L427.44,140.264 C426.432,140.936 425.208,141.32 423.744,141.32 C418.872,141.32 416.592,136.808 416.592,132.032 Z M424.512,137.024 L425.688,135.752 L427.416,137.528 C428.424,136.16 428.928,134.192 428.928,132.032 C428.928,128.096 427.152,124.64 423.744,124.64 C420.312,124.64 418.56,128.072 418.56,132.032 C418.56,135.92 420.36,139.4 423.744,139.4 C424.632,139.4 425.424,139.184 426.096,138.776 L424.512,137.024 Z M433.728,123.152 L435.696,123.152 L435.696,133.904 C435.696,137.24 437.04,139.4 439.896,139.4 C442.68,139.4 444.048,137.312 444.048,133.904 L444.048,123.152 L446.04,123.152 L446.04,133.976 C446.04,138.92 443.568,141.32 439.896,141.32 C436.176,141.32 433.728,138.92 433.728,133.976 L433.728,123.152 Z M447.744,140.888 L453.96,123.152 L456.12,123.152 L462.24,140.888 L460.176,140.888 L458.52,136.016 L451.488,136.016 L449.808,140.888 L447.744,140.888 Z M455.016,125.792 L452.136,134.096 L457.872,134.096 L455.064,125.792 L455.016,125.792 Z M464.04,123.152 L466.008,123.152 L466.008,138.992 L474.264,138.992 L474.264,140.888 L464.04,140.888 L464.04,123.152 Z M476.304,123.152 L478.296,123.152 L478.296,140.888 L476.304,140.888 L476.304,123.152 Z M480.12,123.152 L491.928,123.152 L491.928,125.072 L487.008,125.072 L487.008,140.888 L485.016,140.888 L485.016,125.072 L480.12,125.072 L480.12,123.152 Z M492.12,123.152 L494.352,123.152 L498.84,131.504 L498.888,131.504 L503.232,123.152 L505.464,123.152 L499.824,133.712 L499.824,140.888 L497.856,140.888 L497.856,133.712 L492.12,123.152 Z M514.08,123.152 L519.792,123.152 C524.952,123.152 526.8,127.712 526.8,132.008 C526.8,137.048 524.592,140.888 519.528,140.888 L514.08,140.888 L514.08,123.152 Z M516.048,125.072 L516.048,138.992 L519.528,138.992 C522.576,138.992 524.808,136.664 524.808,131.984 C524.808,128.696 523.416,125.072 519.48,125.072 L516.048,125.072 Z M529.464,123.152 L531.456,123.152 L531.456,140.888 L529.464,140.888 L529.464,123.152 Z M534.432,131.984 C534.432,126.488 537.288,122.72 541.608,122.72 C545.544,122.72 547.008,125.24 547.92,127.616 L545.88,127.976 C545.088,125.768 543.672,124.64 541.608,124.64 C538.536,124.64 536.4,127.64 536.4,131.984 C536.4,136.496 538.608,139.4 541.416,139.4 C543.816,139.4 545.568,137.552 546.24,135.032 L546.24,133.232 L541.68,133.232 L541.68,131.336 L548.208,131.336 L548.208,140.888 L546.432,140.888 L546.432,137.672 C545.52,139.736 543.696,141.32 541.176,141.32 C537.672,141.32 534.432,137.96 534.432,131.984 Z M551.592,123.152 L553.584,123.152 L553.584,140.888 L551.592,140.888 L551.592,123.152 Z M555.408,123.152 L567.216,123.152 L567.216,125.072 L562.296,125.072 L562.296,140.888 L560.304,140.888 L560.304,125.072 L555.408,125.072 L555.408,123.152 Z M567.384,140.888 L573.6,123.152 L575.76,123.152 L581.88,140.888 L579.816,140.888 L578.16,136.016 L571.128,136.016 L569.448,140.888 L567.384,140.888 Z M574.656,125.792 L571.776,134.096 L577.512,134.096 L574.704,125.792 L574.656,125.792 Z M583.68,123.152 L585.648,123.152 L585.648,138.992 L593.904,138.992 L593.904,140.888 L583.68,140.888 L583.68,123.152 Z M601.104,140.888 L607.32,123.152 L609.48,123.152 L615.6,140.888 L613.536,140.888 L611.88,136.016 L604.848,136.016 L603.168,140.888 L601.104,140.888 Z M608.376,125.792 L605.496,134.096 L611.232,134.096 L608.424,125.792 L608.376,125.792 Z M616.584,136.376 L618.744,135.992 C619.608,138.416 621.048,139.4 622.92,139.4 C625.128,139.4 626.28,137.864 626.28,136.52 C626.28,134.552 623.856,133.424 622.296,132.728 C619.032,131.408 617.088,130.016 617.088,127.688 C617.088,124.64 619.632,122.72 622.68,122.72 C625.512,122.72 627.552,124.424 628.296,126.992 L626.184,127.352 C625.56,125.576 624.24,124.64 622.608,124.64 C620.616,124.64 619.248,125.96 619.248,127.472 C619.248,129.152 620.904,129.968 623.04,130.88 C626.52,132.344 628.488,134 628.488,136.28 C628.488,139.184 626.28,141.32 622.872,141.32 C619.752,141.32 617.64,139.64 616.584,136.376 Z M630.456,136.376 L632.616,135.992 C633.48,138.416 634.92,139.4 636.792,139.4 C639,139.4 640.152,137.864 640.152,136.52 C640.152,134.552 637.728,133.424 636.168,132.728 C632.904,131.408 630.96,130.016 630.96,127.688 C630.96,124.64 633.504,122.72 636.552,122.72 C639.384,122.72 641.424,124.424 642.168,126.992 L640.056,127.352 C639.432,125.576 638.112,124.64 636.48,124.64 C634.488,124.64 633.12,125.96 633.12,127.472 C633.12,129.152 634.776,129.968 636.912,130.88 C640.392,132.344 642.36,134 642.36,136.28 C642.36,139.184 640.152,141.32 636.744,141.32 C633.624,141.32 631.512,139.64 630.456,136.376 Z M645.144,123.152 L656.352,123.152 L656.352,125.072 L647.112,125.072 L647.112,130.736 L655.512,130.736 L655.512,132.632 L647.112,132.632 L647.112,138.992 L656.496,138.992 L656.496,140.888 L645.144,140.888 L645.144,123.152 Z M657.648,123.152 L669.456,123.152 L669.456,125.072 L664.536,125.072 L664.536,140.888 L662.544,140.888 L662.544,125.072 L657.648,125.072 L657.648,123.152 Z M670.464,136.376 L672.624,135.992 C673.488,138.416 674.928,139.4 676.8,139.4 C679.008,139.4 680.16,137.864 680.16,136.52 C680.16,134.552 677.736,133.424 676.176,132.728 C672.912,131.408 670.968,130.016 670.968,127.688 C670.968,124.64 673.512,122.72 676.56,122.72 C679.392,122.72 681.432,124.424 682.176,126.992 L680.064,127.352 C679.44,125.576 678.12,124.64 676.488,124.64 C674.496,124.64 673.128,125.96 673.128,127.472 C673.128,129.152 674.784,129.968 676.92,130.88 C680.4,132.344 682.368,134 682.368,136.28 C682.368,139.184 680.16,141.32 676.752,141.32 C673.632,141.32 671.52,139.64 670.464,136.376 Z M691.152,136.376 L693.312,135.992 C694.176,138.416 695.616,139.4 697.488,139.4 C699.696,139.4 700.848,137.864 700.848,136.52 C700.848,134.552 698.424,133.424 696.864,132.728 C693.6,131.408 691.656,130.016 691.656,127.688 C691.656,124.64 694.2,122.72 697.248,122.72 C700.08,122.72 702.12,124.424 702.864,126.992 L700.752,127.352 C700.128,125.576 698.808,124.64 697.176,124.64 C695.184,124.64 693.816,125.96 693.816,127.472 C693.816,129.152 695.472,129.968 697.608,130.88 C701.088,132.344 703.056,134 703.056,136.28 C703.056,139.184 700.848,141.32 697.44,141.32 C694.32,141.32 692.208,139.64 691.152,136.376 Z M705.84,123.152 L717.048,123.152 L717.048,125.072 L707.808,125.072 L707.808,130.736 L716.208,130.736 L716.208,132.632 L707.808,132.632 L707.808,138.992 L717.192,138.992 L717.192,140.888 L705.84,140.888 L705.84,123.152 Z M719.976,123.152 L726,123.152 C729.48,123.152 731.088,125.264 731.088,127.976 C731.088,130.232 729.888,131.6 728.496,132.296 L728.496,132.32 C729.84,132.848 730.68,134.24 730.776,136.256 C730.872,137.888 731.232,139.904 731.568,140.888 L729.504,140.888 C729.192,139.904 728.976,138.368 728.856,136.472 C728.736,134.576 727.848,133.28 726.24,133.28 L721.944,133.28 L721.944,140.888 L719.976,140.888 L719.976,123.152 Z M721.944,125.072 L721.944,131.36 L725.904,131.36 C727.896,131.36 729.096,129.968 729.096,128.12 C729.096,126.272 727.944,125.072 725.784,125.072 L721.944,125.072 Z M732.48,123.152 L734.592,123.152 L739.248,138.104 L739.296,138.104 L743.904,123.152 L745.992,123.152 L740.352,140.888 L738.168,140.888 L732.48,123.152 Z M747.816,123.152 L749.808,123.152 L749.808,140.888 L747.816,140.888 L747.816,123.152 Z M752.544,131.984 C752.544,126.992 754.56,122.72 759.48,122.72 C763.056,122.72 765.024,124.976 765.744,127.424 L763.776,127.784 C763.032,125.744 761.52,124.64 759.48,124.64 C756.48,124.64 754.512,127.112 754.512,131.984 C754.512,136.496 756.528,139.4 759.48,139.4 C761.688,139.4 763.128,138.224 763.896,136.016 L765.864,136.376 C764.976,139.232 763.008,141.32 759.48,141.32 C754.872,141.32 752.544,137.144 752.544,131.984 Z M768.432,123.152 L779.64,123.152 L779.64,125.072 L770.4,125.072 L770.4,130.736 L778.8,130.736 L778.8,132.632 L770.4,132.632 L770.4,138.992 L779.784,138.992 L779.784,140.888 L768.432,140.888 L768.432,123.152 Z" id="WE-PROVIDE-ALL-ROUND" opacity="0.800000012"></path>
                    <path d="M42.84,70 L21.07,70 C9.31,70 2.38,60.69 2.38,44.94 C2.38,29.33 9.8,19.11 21.42,19.11 C33.11,19.11 40.32,29.4 40.32,44.45 C40.32,51.17 37.8,58.17 34.93,60.34 L34.93,60.62 L42.84,60.34 L42.84,70 Z M29.05,44.94 C29.05,36.47 26.39,30.1 21.49,30.1 C16.45,30.1 13.86,36.4 13.86,44.94 C13.86,53.41 16.45,59.85 21.49,59.85 C26.6,59.85 29.05,53.13 29.05,44.94 Z M100.5,51.66 C100.5,62.58 95.67,71.33 83.56,71.33 C71.45,71.33 66.97,62.65 66.97,51.66 L66.97,20.44 L78.24,20.44 L78.24,50.68 C78.24,56.28 79.36,60.55 83.77,60.55 C88.18,60.55 89.3,56.28 89.3,50.68 L89.3,20.44 L100.5,20.44 L100.5,51.66 Z M162.15,70 L150.46,70 L148.43,60.97 L137.3,60.97 L135.27,70 L124.07,70 L136.11,20.44 L150.18,20.44 L162.15,70 Z M147.03,52.29 L143.04,31.22 L142.76,31.22 L138.56,52.29 L147.03,52.29 Z M211.06,70 L186.49,70 L186.49,20.44 L197.83,20.44 L197.83,59.64 L211.06,59.64 L211.06,70 Z M247.37,70 L236.1,70 L236.1,20.44 L247.37,20.44 L247.37,70 Z M300.9,29.96 L291.8,29.96 L291.8,70 L280.81,70 L280.81,29.96 L271.71,29.96 L271.71,20.44 L300.9,20.44 L300.9,29.96 Z M356.11,20.44 L343.51,52.15 L343.51,70 L332.52,70 L332.52,52.15 L319.99,20.44 L332.1,20.44 L338.05,40.95 L338.19,40.95 L344.21,20.44 L356.11,20.44 Z M451.41,70 L438.95,70 L436.08,65.87 C434.19,68.74 430.55,71.05 425.44,71.05 C416.83,71.05 411.37,65.73 411.37,56.14 C411.37,49.49 414.8,44.94 419.56,42.42 C417.32,39.41 415.99,36.05 415.99,32.06 C415.99,23.94 421.73,19.04 429.22,19.04 C436.36,19.04 441.47,23.45 441.47,31.29 C441.47,37.59 437.2,41.51 432.44,44.45 L436.57,50.19 L440,42.84 L450.57,42.84 L442.59,57.75 L451.41,70 Z M432.37,31.92 C432.37,29.26 431.32,27.16 429.29,27.16 C427.12,27.16 425.86,29.47 425.86,32.06 C425.86,34.44 426.7,36.61 428.24,38.5 C430.41,37.1 432.37,34.93 432.37,31.92 Z M430.76,58.52 L424.39,49.35 C423.13,50.05 421.45,52.29 421.45,55.44 C421.45,59.29 423.34,61.81 426.35,61.81 C428.73,61.81 430.13,59.99 430.76,58.52 Z M541.32,55.86 C541.32,66.43 533.69,70 526.62,70 L510.17,70 L510.17,20.44 L525.01,20.44 C531.17,20.44 539.64,22.47 539.64,33.18 C539.64,38.99 536.91,42.42 533.48,44.03 L533.48,44.17 C537.26,45.15 541.32,48.93 541.32,55.86 Z M529.77,35 C529.77,31.15 527.25,29.75 524.38,29.75 L520.6,29.75 L520.6,40.46 L524.45,40.46 C527.18,40.46 529.77,38.92 529.77,35 Z M530.68,54.81 C530.68,50.4 527.53,48.65 524.66,48.65 L520.6,48.65 L520.6,60.69 L524.8,60.69 C528.09,60.69 530.68,58.73 530.68,54.81 Z M593.03,70 L568.25,70 L568.25,20.44 L592.19,20.44 L592.19,30.31 L578.96,30.31 L578.96,40.04 L591.14,40.04 L591.14,49.28 L578.96,49.28 L578.96,59.99 L593.03,59.99 L593.03,70 Z M650.48,20.44 L637.88,52.15 L637.88,70 L626.89,70 L626.89,52.15 L614.36,20.44 L626.47,20.44 L632.42,40.95 L632.56,40.95 L638.58,20.44 L650.48,20.44 Z M710.1,45.08 C710.1,60.83 702.82,71.33 691.06,71.33 C679.3,71.33 672.02,60.83 672.02,45.08 C672.02,29.4 679.16,19.11 691.06,19.11 C702.82,19.11 710.1,29.4 710.1,45.08 Z M698.62,45.08 C698.62,36.47 696.1,29.96 691.06,29.96 C685.95,29.96 683.5,36.47 683.5,45.08 C683.5,53.69 685.95,60.34 691.06,60.34 C696.1,60.34 698.62,53.69 698.62,45.08 Z M770.28,70 L758.31,70 L746.83,39.83 L746.62,39.83 L746.9,70 L736.89,70 L736.89,20.44 L749.21,20.44 L760.62,51.03 L760.83,51.03 L760.62,20.44 L770.28,20.44 L770.28,70 Z M833.61,45.36 C833.61,60.34 827.17,70 813.03,70 L799.1,70 L799.1,20.44 L813.03,20.44 C827.24,20.44 833.61,30.1 833.61,45.36 Z M822.34,45.36 C822.34,35.42 818.56,30.24 813.17,30.24 L810.44,30.24 L810.44,60.2 L813.17,60.2 C818.56,60.2 822.34,54.95 822.34,45.36 Z" id="QUALITY-&amp;-BEYOND"></path>
                </g>
            </g>
        </g>
    </g>
</svg>