<?xml version="1.0" encoding="UTF-8"?>
<svg width="947px" height="100px" viewBox="0 0 947 100" version="1.1" xmlns="http://www.w3.org/2000/svg" xmlns:xlink="http://www.w3.org/1999/xlink">
    <!-- Generator: Sketch 49 (51002) - http://www.bohemiancoding.com/sketch -->
    <title>text_en_1@2x</title>
    <desc>Created with Sketch.</desc>
    <defs></defs>
    <g id="Page-1" stroke="none" stroke-width="1" fill="none" fill-rule="evenodd">
        <g id="确定搞-英文" transform="translate(-248.000000, -193.000000)" fill="#FFFFFF">
            <g id="text_en_1" transform="translate(246.000000, 193.000000)">
                <path d="M135.3,29.4 C135.3,19.15 140.35,10 151.2,10 C162.1,10 167.1,19.25 167.1,29.4 C167.1,34.95 165.65,40.2 162.55,43.85 L166.65,47.7 L163.65,50.8 L159.5,46.5 C157.25,47.9 154.5,48.75 151.2,48.75 C140.4,48.75 135.3,39.35 135.3,29.4 Z M153,39.8 L155.6,37.2 L159.45,40.85 C161.7,38 162.85,33.9 162.85,29.4 C162.85,21.2 158.85,14 151.2,14 C143.5,14 139.6,21.15 139.6,29.4 C139.6,37.5 143.6,44.75 151.2,44.75 C153.25,44.75 155,44.3 156.5,43.45 L153,39.8 Z M171.95,20.8 L176.1,20.8 L176.1,38.3 C176.1,42.6 178.6,45.15 182.25,45.15 C184.8,45.15 187.2,43.85 189.35,41.25 L189.35,20.8 L193.5,20.8 L193.5,47.85 L189.35,47.85 L189.35,44.4 C187,47.15 183.9,48.75 180.9,48.75 C175.25,48.75 171.95,45.35 171.95,39.1 L171.95,20.8 Z M197.75,41.85 C197.75,34.8 204.65,31.9 215.4,30.35 L215.4,28.8 C215.4,26.1 213.75,23.65 209.25,23.65 C206.5,23.65 203.75,24.7 202.45,28.3 L198.55,27.7 C200,23.05 203.9,20.1 209.4,20.1 C216.3,20.1 219.6,23.5 219.6,28.75 L219.6,43.8 C219.6,45.55 220.5,45.7 222.4,45.35 L222.4,48.2 C221.35,48.55 220.3,48.75 219.25,48.75 C217.9,48.75 216.2,48 215.85,46.5 C215.75,46.35 215.65,44.45 215.6,44.35 C213.25,46.85 209.75,48.75 205.85,48.75 C201.8,48.75 197.75,46.6 197.75,41.85 Z M201.95,41.4 C201.95,43.8 203.75,45.15 206.7,45.15 C210.25,45.15 213.05,43.3 215.4,41 L215.4,34 C208.25,35 202,36.7 201.95,41.4 Z M225.3,10.9 L229.5,10.9 L229.5,47.85 L225.3,47.85 L225.3,10.9 Z M234.7,20.8 L238.9,20.8 L238.9,47.85 L234.7,47.85 L234.7,20.8 Z M234.7,10.9 L238.9,10.9 L238.9,16.5 L234.7,16.5 L234.7,10.9 Z M241.4,20.8 L245.6,20.8 L245.6,13.75 L249.75,13.75 L249.75,20.8 L255.25,20.8 L255.25,24.4 L249.75,24.4 L249.75,42.05 C249.75,44.3 250.9,45.05 252.95,45.05 C253.7,45.05 254.5,44.85 255.2,44.55 L255.2,48.15 C253.9,48.55 252.55,48.75 251,48.75 C247.85,48.75 245.6,47.25 245.6,43.5 L245.6,24.4 L241.4,24.4 L241.4,20.8 Z M255.35,20.8 L259.85,20.8 L267.75,41.8 C271.05,32.85 275.2,21.4 275.4,20.8 L279.85,20.8 L267.35,54.4 C266.05,57.85 263.75,58.4 261.85,58.4 C260.75,58.4 259.95,58.35 258.8,58.05 L258.8,54.3 C259.4,54.45 260.1,54.55 260.75,54.55 C262.1,54.55 263.4,53.95 263.95,52.35 C264,52.1 264.7,50.15 265.7,47.4 L255.35,20.8 Z M297.35,10.9 L310,10.9 C321.45,10.9 325.6,20.4 325.6,29.35 C325.6,39.85 320.65,47.85 309.4,47.85 L297.35,47.85 L297.35,10.9 Z M301.6,14.9 L301.6,43.9 L309.4,43.9 C316.25,43.9 321.25,39.05 321.25,29.3 C321.25,22.45 318.15,14.9 309.3,14.9 L301.6,14.9 Z M329.8,20.8 L334,20.8 L334,47.85 L329.8,47.85 L329.8,20.8 Z M329.8,10.9 L334,10.9 L334,16.5 L329.8,16.5 L329.8,10.9 Z M338.35,34.3 C338.35,25.55 342.95,20.1 349.25,20.1 C352.3,20.1 355.1,21.15 357.8,24.35 L357.8,20.8 L361.95,20.8 L361.95,45.1 C361.95,53 358.6,58.4 349.6,58.4 C344.8,58.4 340.65,56.15 338.9,51.3 L342.7,50.55 C344.1,53.55 346.8,54.8 349.75,54.8 C354.8,54.8 357.8,51.7 357.8,45.55 L357.8,44.2 C355,47.3 351.95,48.4 349.4,48.4 C343,48.4 338.35,42.95 338.35,34.3 Z M350.15,44.55 C353,44.55 355.85,42.75 357.8,40.35 L357.8,28.45 C355.8,25.75 353.1,23.9 350.15,23.9 C345.35,23.9 342.55,28.35 342.55,34.3 C342.55,39.9 345.15,44.55 350.15,44.55 Z M367.15,20.8 L371.35,20.8 L371.35,47.85 L367.15,47.85 L367.15,20.8 Z M367.15,10.9 L371.35,10.9 L371.35,16.5 L367.15,16.5 L367.15,10.9 Z M373.85,20.8 L378.05,20.8 L378.05,13.75 L382.2,13.75 L382.2,20.8 L387.7,20.8 L387.7,24.4 L382.2,24.4 L382.2,42.05 C382.2,44.3 383.35,45.05 385.4,45.05 C386.15,45.05 386.95,44.85 387.65,44.55 L387.65,48.15 C386.35,48.55 385,48.75 383.45,48.75 C380.3,48.75 378.05,47.25 378.05,43.5 L378.05,24.4 L373.85,24.4 L373.85,20.8 Z M389.7,41.85 C389.7,34.8 396.6,31.9 407.35,30.35 L407.35,28.8 C407.35,26.1 405.7,23.65 401.2,23.65 C398.45,23.65 395.7,24.7 394.4,28.3 L390.5,27.7 C391.95,23.05 395.85,20.1 401.35,20.1 C408.25,20.1 411.55,23.5 411.55,28.75 L411.55,43.8 C411.55,45.55 412.45,45.7 414.35,45.35 L414.35,48.2 C413.3,48.55 412.25,48.75 411.2,48.75 C409.85,48.75 408.15,48 407.8,46.5 C407.7,46.35 407.6,44.45 407.55,44.35 C405.2,46.85 401.7,48.75 397.8,48.75 C393.75,48.75 389.7,46.6 389.7,41.85 Z M393.9,41.4 C393.9,43.8 395.7,45.15 398.65,45.15 C402.2,45.15 405,43.3 407.35,41 L407.35,34 C400.2,35 393.95,36.7 393.9,41.4 Z M417.25,10.9 L421.45,10.9 L421.45,47.85 L417.25,47.85 L417.25,10.9 Z M438.05,47.85 L451.9,10.9 L456.6,10.9 L470.25,47.85 L465.75,47.85 L462.05,37.7 L446.25,37.7 L442.5,47.85 L438.05,47.85 Z M454.2,16.3 L447.75,33.7 L460.6,33.7 L454.3,16.3 L454.2,16.3 Z M471.25,41.7 L475.2,40.8 C476.65,44.45 479.25,45.3 482.1,45.3 C485.25,45.3 487.6,43.35 487.6,40.9 C487.6,38.2 484.6,36.9 481,35.55 C475.2,33.55 472.1,31.35 472.1,27.45 C472.1,23.35 475.8,20.1 481.8,20.1 C486.65,20.1 489.85,22.3 491.55,26.4 L487.55,27.15 C486.45,24.8 484.55,23.5 481.8,23.5 C478.3,23.5 476.3,25.45 476.3,27.7 C476.3,30.2 480.15,31.6 482.55,32.45 C488.4,34.35 492,36.4 492,40.8 C492,45.65 487.9,48.75 482,48.75 C477.5,48.75 473.15,46.75 471.25,41.7 Z M494.75,41.7 L498.7,40.8 C500.15,44.45 502.75,45.3 505.6,45.3 C508.75,45.3 511.1,43.35 511.1,40.9 C511.1,38.2 508.1,36.9 504.5,35.55 C498.7,33.55 495.6,31.35 495.6,27.45 C495.6,23.35 499.3,20.1 505.3,20.1 C510.15,20.1 513.35,22.3 515.05,26.4 L511.05,27.15 C509.95,24.8 508.05,23.5 505.3,23.5 C501.8,23.5 499.8,25.45 499.8,27.7 C499.8,30.2 503.65,31.6 506.05,32.45 C511.9,34.35 515.5,36.4 515.5,40.8 C515.5,45.65 511.4,48.75 505.5,48.75 C501,48.75 496.65,46.75 494.75,41.7 Z M518.65,34.35 C518.65,26.95 522.5,20.1 530.4,20.1 C538.3,20.1 542.05,26.5 542.05,33.7 L542.05,35.75 L522.8,35.75 C522.75,41 525.6,45.15 530.65,45.15 C534.2,45.15 536.8,43.15 538.1,40.45 L541.9,41.2 C540,45.8 536.3,48.75 530.6,48.75 C522.55,48.75 518.65,42.35 518.65,34.35 Z M522.8,32.35 L537.85,32.35 C537.85,28.1 535.2,23.7 530.4,23.7 C525.7,23.7 522.9,28.15 522.8,32.35 Z M543.5,20.8 L547.7,20.8 L547.7,13.75 L551.85,13.75 L551.85,20.8 L557.35,20.8 L557.35,24.4 L551.85,24.4 L551.85,42.05 C551.85,44.3 553,45.05 555.05,45.05 C555.8,45.05 556.6,44.85 557.3,44.55 L557.3,48.15 C556,48.55 554.65,48.75 553.1,48.75 C549.95,48.75 547.7,47.25 547.7,43.5 L547.7,24.4 L543.5,24.4 L543.5,20.8 Z M558.95,41.7 L562.9,40.8 C564.35,44.45 566.95,45.3 569.8,45.3 C572.95,45.3 575.3,43.35 575.3,40.9 C575.3,38.2 572.3,36.9 568.7,35.55 C562.9,33.55 559.8,31.35 559.8,27.45 C559.8,23.35 563.5,20.1 569.5,20.1 C574.35,20.1 577.55,22.3 579.25,26.4 L575.25,27.15 C574.15,24.8 572.25,23.5 569.5,23.5 C566,23.5 564,25.45 564,27.7 C564,30.2 567.85,31.6 570.25,32.45 C576.1,34.35 579.7,36.4 579.7,40.8 C579.7,45.65 575.6,48.75 569.7,48.75 C565.2,48.75 560.85,46.75 558.95,41.7 Z M595.25,10.9 L621.45,10.9 L621.45,14.9 L610.45,14.9 L610.45,47.85 L606.2,47.85 L606.2,14.9 L595.25,14.9 L595.25,10.9 Z M623.8,20.8 L627.95,20.8 L627.95,26.1 C629.8,23.15 633.8,20.25 637.15,20.2 L637.15,23.85 C634.7,23.85 630.6,25.7 627.95,29.75 L627.95,47.9 L623.8,47.9 L623.8,20.8 Z M638.65,41.85 C638.65,34.8 645.55,31.9 656.3,30.35 L656.3,28.8 C656.3,26.1 654.65,23.65 650.15,23.65 C647.4,23.65 644.65,24.7 643.35,28.3 L639.45,27.7 C640.9,23.05 644.8,20.1 650.3,20.1 C657.2,20.1 660.5,23.5 660.5,28.75 L660.5,43.8 C660.5,45.55 661.4,45.7 663.3,45.35 L663.3,48.2 C662.25,48.55 661.2,48.75 660.15,48.75 C658.8,48.75 657.1,48 656.75,46.5 C656.65,46.35 656.55,44.45 656.5,44.35 C654.15,46.85 650.65,48.75 646.75,48.75 C642.7,48.75 638.65,46.6 638.65,41.85 Z M642.85,41.4 C642.85,43.8 644.65,45.15 647.6,45.15 C651.15,45.15 653.95,43.3 656.3,41 L656.3,34 C649.15,35 642.9,36.7 642.85,41.4 Z M665.25,34.35 C665.25,26.1 668.95,20.1 676.35,20.1 C679.2,20.1 682,21.15 684.65,24.1 L684.65,10.95 L688.85,10.95 L688.85,47.85 L684.65,47.85 L684.65,45.1 C681.85,47.85 678.8,48.75 676.45,48.75 C668.95,48.75 665.25,42.55 665.25,34.35 Z M677,44.95 C679.75,44.95 682.65,43.45 684.65,41.25 L684.65,28 C682.6,25.55 679.85,23.9 677,23.9 C671.85,23.9 669.4,28.75 669.4,34.35 C669.4,39.8 671.8,44.95 677,44.95 Z M693.95,20.8 L698.15,20.8 L698.15,47.85 L693.95,47.85 L693.95,20.8 Z M693.95,10.9 L698.15,10.9 L698.15,16.5 L693.95,16.5 L693.95,10.9 Z M703.35,20.8 L707.5,20.8 L707.5,24.55 C709.85,21.75 712.9,20.1 715.95,20.1 C721.85,20.1 724.95,23.45 724.95,29.7 L724.95,47.85 L720.7,47.85 L720.7,30.55 C720.7,26.2 718.4,23.7 714.75,23.7 C712.2,23.7 709.7,25 707.5,27.55 L707.5,47.85 L703.35,47.85 L703.35,20.8 Z M729.25,34.3 C729.25,25.55 733.85,20.1 740.15,20.1 C743.2,20.1 746,21.15 748.7,24.35 L748.7,20.8 L752.85,20.8 L752.85,45.1 C752.85,53 749.5,58.4 740.5,58.4 C735.7,58.4 731.55,56.15 729.8,51.3 L733.6,50.55 C735,53.55 737.7,54.8 740.65,54.8 C745.7,54.8 748.7,51.7 748.7,45.55 L748.7,44.2 C745.9,47.3 742.85,48.4 740.3,48.4 C733.9,48.4 729.25,42.95 729.25,34.3 Z M741.05,44.55 C743.9,44.55 746.75,42.75 748.7,40.35 L748.7,28.45 C746.7,25.75 744,23.9 741.05,23.9 C736.25,23.9 733.45,28.35 733.45,34.3 C733.45,39.9 736.05,44.55 741.05,44.55 Z M773.15,10.9 L785.9,10.9 C794.5,10.9 798,15.45 798,21.85 C798,28.6 794.25,33.05 785.9,33.05 L777.4,33.05 L777.4,47.85 L773.15,47.85 L773.15,10.9 Z M777.4,14.9 L777.4,29.1 L785.25,29.1 C790.85,29.05 793.7,26.5 793.7,21.85 C793.7,17.4 790.75,14.9 785.4,14.9 L777.4,14.9 Z M802.05,10.9 L806.25,10.9 L806.25,47.85 L802.05,47.85 L802.05,10.9 Z M810.5,41.85 C810.5,34.8 817.4,31.9 828.15,30.35 L828.15,28.8 C828.15,26.1 826.5,23.65 822,23.65 C819.25,23.65 816.5,24.7 815.2,28.3 L811.3,27.7 C812.75,23.05 816.65,20.1 822.15,20.1 C829.05,20.1 832.35,23.5 832.35,28.75 L832.35,43.8 C832.35,45.55 833.25,45.7 835.15,45.35 L835.15,48.2 C834.1,48.55 833.05,48.75 832,48.75 C830.65,48.75 828.95,48 828.6,46.5 C828.5,46.35 828.4,44.45 828.35,44.35 C826,46.85 822.5,48.75 818.6,48.75 C814.55,48.75 810.5,46.6 810.5,41.85 Z M814.7,41.4 C814.7,43.8 816.5,45.15 819.45,45.15 C823,45.15 825.8,43.3 828.15,41 L828.15,34 C821,35 814.75,36.7 814.7,41.4 Z M835.35,20.8 L839.55,20.8 L839.55,13.75 L843.7,13.75 L843.7,20.8 L849.2,20.8 L849.2,24.4 L843.7,24.4 L843.7,42.05 C843.7,44.3 844.85,45.05 846.9,45.05 C847.65,45.05 848.45,44.85 849.15,44.55 L849.15,48.15 C847.85,48.55 846.5,48.75 844.95,48.75 C841.8,48.75 839.55,47.25 839.55,43.5 L839.55,24.4 L835.35,24.4 L835.35,20.8 Z M849.55,20.8 L854.55,20.8 L854.55,15.95 C854.55,11.7 857.55,10.15 861.05,10.15 C862.6,10.15 864.2,10.5 865.15,10.9 L865.15,14.65 C864.4,14.15 863.3,13.8 862.2,13.8 C860.5,13.8 858.75,14.65 858.75,17.1 L858.75,20.8 L865.35,20.8 L865.35,24.4 L858.75,24.4 L858.75,47.8 L854.55,47.8 L854.55,24.4 L849.55,24.4 L849.55,20.8 Z M866.8,34.35 C866.8,26.85 870.75,20.1 878.9,20.1 C887.15,20.1 891,26.65 891,34.35 C891,42.3 887.15,48.75 878.9,48.75 C870.8,48.75 866.8,42.15 866.8,34.35 Z M871.05,34.35 C871.05,40.5 873.8,44.95 878.9,44.95 C884.15,44.95 886.8,40.55 886.8,34.35 C886.8,28.1 883.95,23.85 878.9,23.85 C874.05,23.85 871.05,28.2 871.05,34.35 Z M895.15,20.8 L899.3,20.8 L899.3,26.1 C901.15,23.15 905.15,20.25 908.5,20.2 L908.5,23.85 C906.05,23.85 901.95,25.7 899.3,29.75 L899.3,47.9 L895.15,47.9 L895.15,20.8 Z M910.95,20.8 L915.1,20.8 L915.1,24.35 C917.25,21.9 920.2,20.1 923.3,20.1 C926.65,20.1 929.2,21.3 930.85,24.95 L930.95,24.95 C933.3,22.05 936.6,20.1 939.65,20.1 C944.9,20.1 948.05,23.4 948.05,29.55 L948.05,47.85 L943.85,47.85 L943.85,30.1 C943.85,26.15 941.7,23.7 938.35,23.7 C936.05,23.7 933.35,25.7 931.6,28 L931.6,47.85 L927.4,47.85 L927.4,30.3 C927.4,26.05 924.95,23.7 922.1,23.7 C919.6,23.7 917,25.55 915.1,27.95 L915.1,47.85 L910.95,47.85 L910.95,20.8 Z" id="Quality-Digital-Asse"></path>
                <path d="M136.075,77.335 L137.92,77.335 L140.815,82.405 L140.845,82.405 L143.635,77.335 L145.48,77.335 L141.625,84.13 L141.625,88.615 L140.005,88.615 L140.005,84.13 L136.075,77.335 Z M146.285,84.475 C146.285,82.18 147.485,80.11 149.975,80.11 C152.48,80.11 153.635,82.09 153.635,84.31 L153.635,85.045 L147.86,85.045 C147.845,86.41 148.655,87.52 150.065,87.52 C151.07,87.52 151.76,87.01 152.15,86.275 L153.59,86.53 C152.96,88.015 151.835,88.87 150.05,88.87 C147.515,88.87 146.285,86.92 146.285,84.475 Z M147.86,83.77 L152.045,83.77 C152.045,82.69 151.34,81.46 149.975,81.46 C148.625,81.46 147.875,82.69 147.86,83.77 Z M156.54,86.53 C156.54,87.175 157.02,87.52 157.83,87.52 C158.775,87.52 159.585,87.055 160.245,86.455 C160.245,86.185 160.26,84.835 160.26,84.58 C158.295,84.82 156.54,85.3 156.54,86.53 Z M154.95,86.725 C154.95,84.625 156.885,83.665 160.26,83.23 L160.26,82.84 C160.245,82.12 159.795,81.46 158.535,81.46 C157.785,81.46 157.02,81.73 156.63,82.69 L155.175,82.465 C155.655,81.04 156.87,80.11 158.61,80.11 C160.77,80.11 161.835,81.19 161.835,82.87 L161.835,87.16 C161.835,87.655 162.09,87.73 162.66,87.625 L162.66,88.69 C162.3,88.81 161.97,88.87 161.595,88.87 C161.175,88.87 160.59,88.66 160.425,88.225 C160.395,88.18 160.35,87.685 160.335,87.655 C159.66,88.36 158.625,88.87 157.485,88.87 C156.24,88.87 154.95,88.21 154.95,86.725 Z M163.9,80.335 L165.46,80.335 L165.46,81.85 C166.03,80.95 167.245,80.155 168.295,80.14 L168.295,81.505 C167.515,81.505 166.255,81.985 165.46,83.155 L165.46,88.615 L163.9,88.615 L163.9,80.335 Z M168.965,86.695 L170.45,86.365 C170.855,87.325 171.575,87.595 172.4,87.595 C173.3,87.595 173.93,87.07 173.93,86.425 C173.93,85.69 173.075,85.345 172.025,84.97 C170.165,84.37 169.22,83.68 169.22,82.435 C169.22,81.145 170.435,80.11 172.325,80.11 C173.885,80.11 174.905,80.815 175.445,82.12 L173.96,82.39 C173.63,81.715 173.09,81.385 172.325,81.385 C171.365,81.385 170.795,81.91 170.795,82.51 C170.795,83.2 171.8,83.56 172.52,83.8 C174.515,84.385 175.58,85.045 175.58,86.41 C175.58,87.925 174.29,88.87 172.355,88.87 C171.005,88.87 169.58,88.27 168.965,86.695 Z M181.735,84.46 C181.735,82.195 182.98,80.11 185.53,80.11 C188.095,80.11 189.325,82.135 189.325,84.46 C189.325,86.845 188.08,88.87 185.53,88.87 C182.995,88.87 181.735,86.815 181.735,84.46 Z M183.325,84.46 C183.325,86.245 184.135,87.445 185.53,87.445 C186.955,87.445 187.735,86.26 187.735,84.46 C187.735,82.66 186.895,81.535 185.53,81.535 C184.195,81.535 183.325,82.69 183.325,84.46 Z M190.175,80.335 L191.735,80.335 L191.735,78.94 C191.735,77.575 192.77,77.095 193.91,77.095 C194.405,77.095 194.96,77.2 195.305,77.32 L195.305,78.73 C195.065,78.58 194.69,78.475 194.36,78.475 C193.85,78.475 193.31,78.715 193.31,79.39 L193.31,80.335 L195.35,80.335 L195.35,81.67 L193.31,81.67 L193.31,88.6 L191.735,88.6 L191.735,81.67 L190.175,81.67 L190.175,80.335 Z M201.61,77.335 L205.57,77.335 C208.36,77.335 209.425,78.82 209.425,80.785 C209.425,82.855 208.3,84.31 205.57,84.31 L203.23,84.31 L203.23,88.615 L201.61,88.615 L201.61,77.335 Z M203.23,78.835 L203.23,82.81 L205.36,82.81 C207.01,82.81 207.82,82.09 207.82,80.785 C207.82,79.525 206.98,78.835 205.405,78.835 L203.23,78.835 Z M210.965,80.335 L212.525,80.335 L212.525,81.85 C213.095,80.95 214.31,80.155 215.36,80.14 L215.36,81.505 C214.58,81.505 213.32,81.985 212.525,83.155 L212.525,88.615 L210.965,88.615 L210.965,80.335 Z M217.755,86.53 C217.755,87.175 218.235,87.52 219.045,87.52 C219.99,87.52 220.8,87.055 221.46,86.455 C221.46,86.185 221.475,84.835 221.475,84.58 C219.51,84.82 217.755,85.3 217.755,86.53 Z M216.165,86.725 C216.165,84.625 218.1,83.665 221.475,83.23 L221.475,82.84 C221.46,82.12 221.01,81.46 219.75,81.46 C219,81.46 218.235,81.73 217.845,82.69 L216.39,82.465 C216.87,81.04 218.085,80.11 219.825,80.11 C221.985,80.11 223.05,81.19 223.05,82.87 L223.05,87.16 C223.05,87.655 223.305,87.73 223.875,87.625 L223.875,88.69 C223.515,88.81 223.185,88.87 222.81,88.87 C222.39,88.87 221.805,88.66 221.64,88.225 C221.61,88.18 221.565,87.685 221.55,87.655 C220.875,88.36 219.84,88.87 218.7,88.87 C217.455,88.87 216.165,88.21 216.165,86.725 Z M224.83,84.475 C224.83,82.03 226.165,80.11 228.61,80.11 C230.665,80.11 231.685,81.415 232.015,82.555 L230.455,82.78 C230.08,81.955 229.465,81.535 228.61,81.535 C227.26,81.535 226.405,82.69 226.405,84.475 C226.405,86.245 227.2,87.445 228.565,87.445 C229.465,87.445 230.11,86.995 230.5,86.08 L232.045,86.32 C231.625,87.58 230.62,88.87 228.565,88.87 C226.195,88.87 224.83,86.905 224.83,84.475 Z M232.805,80.335 L234.14,80.335 L234.14,78.19 L235.715,78.19 L235.715,80.335 L237.485,80.335 L237.485,81.67 L235.715,81.67 L235.715,86.65 C235.715,87.295 236.105,87.49 236.69,87.49 C236.96,87.49 237.245,87.415 237.455,87.31 L237.455,88.66 C237.005,88.81 236.51,88.87 236,88.87 C234.935,88.87 234.14,88.405 234.14,87.145 L234.14,81.67 L232.805,81.67 L232.805,80.335 Z M238.74,80.335 L240.315,80.335 L240.315,88.615 L238.74,88.615 L238.74,80.335 Z M238.74,77.335 L240.315,77.335 L240.315,79.105 L238.74,79.105 L238.74,77.335 Z M241.93,84.475 C241.93,82.03 243.265,80.11 245.71,80.11 C247.765,80.11 248.785,81.415 249.115,82.555 L247.555,82.78 C247.18,81.955 246.565,81.535 245.71,81.535 C244.36,81.535 243.505,82.69 243.505,84.475 C243.505,86.245 244.3,87.445 245.665,87.445 C246.565,87.445 247.21,86.995 247.6,86.08 L249.145,86.32 C248.725,87.58 247.72,88.87 245.665,88.87 C243.295,88.87 241.93,86.905 241.93,84.475 Z M250.415,84.475 C250.415,82.18 251.615,80.11 254.105,80.11 C256.61,80.11 257.765,82.09 257.765,84.31 L257.765,85.045 L251.99,85.045 C251.975,86.41 252.785,87.52 254.195,87.52 C255.2,87.52 255.89,87.01 256.28,86.275 L257.72,86.53 C257.09,88.015 255.965,88.87 254.18,88.87 C251.645,88.87 250.415,86.92 250.415,84.475 Z M251.99,83.77 L256.175,83.77 C256.175,82.69 255.47,81.46 254.105,81.46 C252.755,81.46 252.005,82.69 251.99,83.77 Z M264.25,80.335 L265.825,80.335 L265.825,88.615 L264.25,88.615 L264.25,80.335 Z M264.25,77.335 L265.825,77.335 L265.825,79.105 L264.25,79.105 L264.25,77.335 Z M267.725,80.335 L269.3,80.335 L269.3,81.37 C270.005,80.575 270.89,80.11 271.79,80.11 C273.635,80.11 274.55,81.16 274.55,83.095 L274.55,88.615 L272.96,88.615 L272.96,83.41 C272.96,82.18 272.33,81.46 271.31,81.46 C270.59,81.46 269.915,81.79 269.3,82.48 L269.3,88.615 L267.725,88.615 L267.725,80.335 Z M281.56,77.335 L289.285,77.335 L289.285,78.835 L283.18,78.835 L283.18,82.315 L288.7,82.315 L288.7,83.8 L283.18,83.8 L283.18,88.615 L281.56,88.615 L281.56,77.335 Z M290.915,80.335 L292.49,80.335 L292.49,88.615 L290.915,88.615 L290.915,80.335 Z M290.915,77.335 L292.49,77.335 L292.49,79.105 L290.915,79.105 L290.915,77.335 Z M294.39,80.335 L295.965,80.335 L295.965,81.37 C296.67,80.575 297.555,80.11 298.455,80.11 C300.3,80.11 301.215,81.16 301.215,83.095 L301.215,88.615 L299.625,88.615 L299.625,83.41 C299.625,82.18 298.995,81.46 297.975,81.46 C297.255,81.46 296.58,81.79 295.965,82.48 L295.965,88.615 L294.39,88.615 L294.39,80.335 Z M304.405,86.53 C304.405,87.175 304.885,87.52 305.695,87.52 C306.64,87.52 307.45,87.055 308.11,86.455 C308.11,86.185 308.125,84.835 308.125,84.58 C306.16,84.82 304.405,85.3 304.405,86.53 Z M302.815,86.725 C302.815,84.625 304.75,83.665 308.125,83.23 L308.125,82.84 C308.11,82.12 307.66,81.46 306.4,81.46 C305.65,81.46 304.885,81.73 304.495,82.69 L303.04,82.465 C303.52,81.04 304.735,80.11 306.475,80.11 C308.635,80.11 309.7,81.19 309.7,82.87 L309.7,87.16 C309.7,87.655 309.955,87.73 310.525,87.625 L310.525,88.69 C310.165,88.81 309.835,88.87 309.46,88.87 C309.04,88.87 308.455,88.66 308.29,88.225 C308.26,88.18 308.215,87.685 308.2,87.655 C307.525,88.36 306.49,88.87 305.35,88.87 C304.105,88.87 302.815,88.21 302.815,86.725 Z M311.765,80.335 L313.34,80.335 L313.34,81.37 C314.045,80.575 314.93,80.11 315.83,80.11 C317.675,80.11 318.59,81.16 318.59,83.095 L318.59,88.615 L317,88.615 L317,83.41 C317,82.18 316.37,81.46 315.35,81.46 C314.63,81.46 313.955,81.79 313.34,82.48 L313.34,88.615 L311.765,88.615 L311.765,80.335 Z M320.19,84.475 C320.19,82.03 321.525,80.11 323.97,80.11 C326.025,80.11 327.045,81.415 327.375,82.555 L325.815,82.78 C325.44,81.955 324.825,81.535 323.97,81.535 C322.62,81.535 321.765,82.69 321.765,84.475 C321.765,86.245 322.56,87.445 323.925,87.445 C324.825,87.445 325.47,86.995 325.86,86.08 L327.405,86.32 C326.985,87.58 325.98,88.87 323.925,88.87 C321.555,88.87 320.19,86.905 320.19,84.475 Z M328.945,80.335 L330.52,80.335 L330.52,88.615 L328.945,88.615 L328.945,80.335 Z M328.945,77.335 L330.52,77.335 L330.52,79.105 L328.945,79.105 L328.945,77.335 Z M333.725,86.53 C333.725,87.175 334.205,87.52 335.015,87.52 C335.96,87.52 336.77,87.055 337.43,86.455 C337.43,86.185 337.445,84.835 337.445,84.58 C335.48,84.82 333.725,85.3 333.725,86.53 Z M332.135,86.725 C332.135,84.625 334.07,83.665 337.445,83.23 L337.445,82.84 C337.43,82.12 336.98,81.46 335.72,81.46 C334.97,81.46 334.205,81.73 333.815,82.69 L332.36,82.465 C332.84,81.04 334.055,80.11 335.795,80.11 C337.955,80.11 339.02,81.19 339.02,82.87 L339.02,87.16 C339.02,87.655 339.275,87.73 339.845,87.625 L339.845,88.69 C339.485,88.81 339.155,88.87 338.78,88.87 C338.36,88.87 337.775,88.66 337.61,88.225 C337.58,88.18 337.535,87.685 337.52,87.655 C336.845,88.36 335.81,88.87 334.67,88.87 C333.425,88.87 332.135,88.21 332.135,86.725 Z M341.085,77.335 L342.66,77.335 L342.66,88.615 L341.085,88.615 L341.085,77.335 Z M348.605,77.335 L356.885,77.335 L356.885,78.835 L353.555,78.835 L353.555,88.615 L351.935,88.615 L351.935,78.835 L348.605,78.835 L348.605,77.335 Z M357.945,80.335 L359.505,80.335 L359.505,81.85 C360.075,80.95 361.29,80.155 362.34,80.14 L362.34,81.505 C361.56,81.505 360.3,81.985 359.505,83.155 L359.505,88.615 L357.945,88.615 L357.945,80.335 Z M364.735,86.53 C364.735,87.175 365.215,87.52 366.025,87.52 C366.97,87.52 367.78,87.055 368.44,86.455 C368.44,86.185 368.455,84.835 368.455,84.58 C366.49,84.82 364.735,85.3 364.735,86.53 Z M363.145,86.725 C363.145,84.625 365.08,83.665 368.455,83.23 L368.455,82.84 C368.44,82.12 367.99,81.46 366.73,81.46 C365.98,81.46 365.215,81.73 364.825,82.69 L363.37,82.465 C363.85,81.04 365.065,80.11 366.805,80.11 C368.965,80.11 370.03,81.19 370.03,82.87 L370.03,87.16 C370.03,87.655 370.285,87.73 370.855,87.625 L370.855,88.69 C370.495,88.81 370.165,88.87 369.79,88.87 C369.37,88.87 368.785,88.66 368.62,88.225 C368.59,88.18 368.545,87.685 368.53,87.655 C367.855,88.36 366.82,88.87 365.68,88.87 C364.435,88.87 363.145,88.21 363.145,86.725 Z M371.825,84.475 C371.825,81.91 372.995,80.11 375.26,80.11 C376.085,80.11 376.895,80.395 377.645,81.175 L377.645,77.35 L379.22,77.35 L379.22,88.615 L377.645,88.615 L377.645,87.91 C376.865,88.615 376.025,88.87 375.32,88.87 C372.98,88.87 371.825,87.04 371.825,84.475 Z M375.53,87.445 C376.295,87.445 377.075,87.055 377.645,86.485 L377.645,82.63 C377.06,81.97 376.325,81.535 375.53,81.535 C374.075,81.535 373.4,82.9 373.4,84.475 C373.4,86.02 374.075,87.445 375.53,87.445 Z M381.09,80.335 L382.665,80.335 L382.665,88.615 L381.09,88.615 L381.09,80.335 Z M381.09,77.335 L382.665,77.335 L382.665,79.105 L381.09,79.105 L381.09,77.335 Z M384.565,80.335 L386.14,80.335 L386.14,81.37 C386.845,80.575 387.73,80.11 388.63,80.11 C390.475,80.11 391.39,81.16 391.39,83.095 L391.39,88.615 L389.8,88.615 L389.8,83.41 C389.8,82.18 389.17,81.46 388.15,81.46 C387.43,81.46 386.755,81.79 386.14,82.48 L386.14,88.615 L384.565,88.615 L384.565,80.335 Z M393.035,84.445 C393.035,81.685 394.55,80.11 396.395,80.11 C397.295,80.11 398.09,80.395 398.84,81.25 L398.84,80.335 L400.43,80.335 L400.43,87.835 C400.43,90.22 399.365,91.81 396.545,91.81 C395.045,91.81 393.725,91.12 393.2,89.59 L394.64,89.335 C395.015,90.13 395.795,90.475 396.605,90.475 C398,90.475 398.84,89.65 398.84,88.045 L398.84,87.595 C398.075,88.405 397.25,88.72 396.455,88.72 C394.565,88.72 393.035,87.205 393.035,84.445 Z M396.74,87.295 C397.55,87.295 398.3,86.815 398.84,86.155 L398.84,82.75 C398.27,82.015 397.55,81.535 396.74,81.535 C395.435,81.535 394.61,82.72 394.61,84.445 C394.61,86.065 395.39,87.295 396.74,87.295 Z M406.885,85.675 C406.885,84.025 408.055,83.095 409.3,82.375 C408.805,81.625 408.31,80.68 408.31,79.93 C408.31,78.355 409.48,77.335 411.19,77.335 C412.9,77.335 413.95,78.415 413.95,79.9 C413.95,81.325 412.72,82.165 411.445,82.87 C412.135,83.725 412.975,84.625 413.815,85.465 C414.175,84.76 414.37,83.905 414.37,82.99 L415.93,82.99 C415.93,84.31 415.585,85.555 414.94,86.56 C415.84,87.43 416.665,88.15 417.175,88.615 L414.97,88.615 L414.01,87.64 C413.14,88.405 411.985,88.87 410.605,88.87 C408.58,88.87 406.885,87.775 406.885,85.675 Z M410.53,87.535 C411.52,87.535 412.345,87.19 412.975,86.605 C411.925,85.54 410.95,84.52 410.185,83.575 C409.24,84.16 408.475,84.79 408.475,85.675 C408.475,87.04 409.51,87.535 410.53,87.535 Z M409.87,79.93 C409.87,80.38 410.14,80.995 410.575,81.685 C411.565,81.16 412.375,80.635 412.375,79.87 C412.375,79.21 411.925,78.67 411.145,78.67 C410.41,78.67 409.87,79.18 409.87,79.93 Z M423.375,77.335 L427.215,77.335 C429.975,77.335 431.01,78.43 431.01,80.275 C431.01,81.52 430.26,82.435 429.225,82.825 C430.71,83.17 431.385,84.25 431.385,85.42 C431.385,87.61 430.065,88.615 427.56,88.615 L423.375,88.615 L423.375,77.335 Z M424.995,83.62 L424.995,87.115 L427.215,87.115 C428.91,87.115 429.765,86.515 429.765,85.345 C429.765,83.995 428.67,83.62 427.2,83.62 L424.995,83.62 Z M424.995,78.835 L424.995,82.12 L427.08,82.12 C428.385,82.12 429.405,81.505 429.405,80.455 C429.405,79.36 428.61,78.835 427.05,78.835 L424.995,78.835 Z M432.985,77.335 L434.56,77.335 L434.56,88.615 L432.985,88.615 L432.985,77.335 Z M436.16,84.46 C436.16,82.195 437.405,80.11 439.955,80.11 C442.52,80.11 443.75,82.135 443.75,84.46 C443.75,86.845 442.505,88.87 439.955,88.87 C437.42,88.87 436.16,86.815 436.16,84.46 Z M437.75,84.46 C437.75,86.245 438.56,87.445 439.955,87.445 C441.38,87.445 442.16,86.26 442.16,84.46 C442.16,82.66 441.32,81.535 439.955,81.535 C438.62,81.535 437.75,82.69 437.75,84.46 Z M445.065,84.475 C445.065,82.03 446.4,80.11 448.845,80.11 C450.9,80.11 451.92,81.415 452.25,82.555 L450.69,82.78 C450.315,81.955 449.7,81.535 448.845,81.535 C447.495,81.535 446.64,82.69 446.64,84.475 C446.64,86.245 447.435,87.445 448.8,87.445 C449.7,87.445 450.345,86.995 450.735,86.08 L452.28,86.32 C451.86,87.58 450.855,88.87 448.8,88.87 C446.43,88.87 445.065,86.905 445.065,84.475 Z M453.82,77.335 L455.395,77.335 L455.395,83.875 L458.755,80.335 L460.66,80.335 L457.39,83.785 L460.915,88.615 L459.085,88.615 L456.34,84.895 L455.395,85.9 L455.395,88.615 L453.82,88.615 L453.82,77.335 Z M461.69,84.475 C461.69,82.03 463.025,80.11 465.47,80.11 C467.525,80.11 468.545,81.415 468.875,82.555 L467.315,82.78 C466.94,81.955 466.325,81.535 465.47,81.535 C464.12,81.535 463.265,82.69 463.265,84.475 C463.265,86.245 464.06,87.445 465.425,87.445 C466.325,87.445 466.97,86.995 467.36,86.08 L468.905,86.32 C468.485,87.58 467.48,88.87 465.425,88.87 C463.055,88.87 461.69,86.905 461.69,84.475 Z M470.445,77.335 L472.02,77.335 L472.02,81.385 C472.725,80.575 473.61,80.11 474.51,80.11 C476.295,80.11 477.27,81.16 477.27,83.095 L477.27,88.615 L475.68,88.615 L475.68,83.41 C475.68,82.18 475.065,81.46 474.045,81.46 C473.325,81.46 472.65,81.79 472.02,82.495 L472.02,88.615 L470.445,88.615 L470.445,77.335 Z M480.46,86.53 C480.46,87.175 480.94,87.52 481.75,87.52 C482.695,87.52 483.505,87.055 484.165,86.455 C484.165,86.185 484.18,84.835 484.18,84.58 C482.215,84.82 480.46,85.3 480.46,86.53 Z M478.87,86.725 C478.87,84.625 480.805,83.665 484.18,83.23 L484.18,82.84 C484.165,82.12 483.715,81.46 482.455,81.46 C481.705,81.46 480.94,81.73 480.55,82.69 L479.095,82.465 C479.575,81.04 480.79,80.11 482.53,80.11 C484.69,80.11 485.755,81.19 485.755,82.87 L485.755,87.16 C485.755,87.655 486.01,87.73 486.58,87.625 L486.58,88.69 C486.22,88.81 485.89,88.87 485.515,88.87 C485.095,88.87 484.51,88.66 484.345,88.225 C484.315,88.18 484.27,87.685 484.255,87.655 C483.58,88.36 482.545,88.87 481.405,88.87 C480.16,88.87 478.87,88.21 478.87,86.725 Z M487.82,80.335 L489.395,80.335 L489.395,88.615 L487.82,88.615 L487.82,80.335 Z M487.82,77.335 L489.395,77.335 L489.395,79.105 L487.82,79.105 L487.82,77.335 Z M491.295,80.335 L492.87,80.335 L492.87,81.37 C493.575,80.575 494.46,80.11 495.36,80.11 C497.205,80.11 498.12,81.16 498.12,83.095 L498.12,88.615 L496.53,88.615 L496.53,83.41 C496.53,82.18 495.9,81.46 494.88,81.46 C494.16,81.46 493.485,81.79 492.87,82.48 L492.87,88.615 L491.295,88.615 L491.295,80.335 Z M505.13,77.335 L506.75,77.335 L506.75,88.615 L505.13,88.615 L505.13,77.335 Z M508.89,80.335 L510.465,80.335 L510.465,81.37 C511.17,80.575 512.055,80.11 512.955,80.11 C514.8,80.11 515.715,81.16 515.715,83.095 L515.715,88.615 L514.125,88.615 L514.125,83.41 C514.125,82.18 513.495,81.46 512.475,81.46 C511.755,81.46 511.08,81.79 510.465,82.48 L510.465,88.615 L508.89,88.615 L508.89,80.335 Z M517.33,84.475 C517.33,81.91 518.5,80.11 520.765,80.11 C521.59,80.11 522.4,80.395 523.15,81.175 L523.15,77.35 L524.725,77.35 L524.725,88.615 L523.15,88.615 L523.15,87.91 C522.37,88.615 521.53,88.87 520.825,88.87 C518.485,88.87 517.33,87.04 517.33,84.475 Z M521.035,87.445 C521.8,87.445 522.58,87.055 523.15,86.485 L523.15,82.63 C522.565,81.97 521.83,81.535 521.035,81.535 C519.58,81.535 518.905,82.9 518.905,84.475 C518.905,86.02 519.58,87.445 521.035,87.445 Z M526.595,80.335 L528.17,80.335 L528.17,85.57 C528.17,86.8 528.86,87.52 529.895,87.52 C530.585,87.52 531.23,87.205 531.83,86.515 L531.83,80.335 L533.42,80.335 L533.42,88.615 L531.83,88.615 L531.83,87.64 C531.125,88.405 530.225,88.87 529.34,88.87 C527.555,88.87 526.595,87.82 526.595,85.885 L526.595,80.335 Z M534.885,86.695 L536.37,86.365 C536.775,87.325 537.495,87.595 538.32,87.595 C539.22,87.595 539.85,87.07 539.85,86.425 C539.85,85.69 538.995,85.345 537.945,84.97 C536.085,84.37 535.14,83.68 535.14,82.435 C535.14,81.145 536.355,80.11 538.245,80.11 C539.805,80.11 540.825,80.815 541.365,82.12 L539.88,82.39 C539.55,81.715 539.01,81.385 538.245,81.385 C537.285,81.385 536.715,81.91 536.715,82.51 C536.715,83.2 537.72,83.56 538.44,83.8 C540.435,84.385 541.5,85.045 541.5,86.41 C541.5,87.925 540.21,88.87 538.275,88.87 C536.925,88.87 535.5,88.27 534.885,86.695 Z M542.29,80.335 L543.625,80.335 L543.625,78.19 L545.2,78.19 L545.2,80.335 L546.97,80.335 L546.97,81.67 L545.2,81.67 L545.2,86.65 C545.2,87.295 545.59,87.49 546.175,87.49 C546.445,87.49 546.73,87.415 546.94,87.31 L546.94,88.66 C546.49,88.81 545.995,88.87 545.485,88.87 C544.42,88.87 543.625,88.405 543.625,87.145 L543.625,81.67 L542.29,81.67 L542.29,80.335 Z M548.225,80.335 L549.785,80.335 L549.785,81.85 C550.355,80.95 551.57,80.155 552.62,80.14 L552.62,81.505 C551.84,81.505 550.58,81.985 549.785,83.155 L549.785,88.615 L548.225,88.615 L548.225,80.335 Z M552.87,80.335 L554.565,80.335 L556.86,86.335 C557.82,83.74 558.975,80.575 559.05,80.335 L560.73,80.335 L556.875,90.58 C556.47,91.63 555.72,91.81 555.075,91.81 C554.7,91.81 554.415,91.81 553.995,91.705 L553.995,90.295 C554.205,90.34 554.445,90.385 554.67,90.385 C555.06,90.385 555.45,90.205 555.615,89.77 L556.095,88.435 L552.87,80.335 Z M561.88,90.295 C562.36,90.085 562.855,89.44 562.855,88.615 L561.925,88.615 L561.925,86.245 L563.8,86.245 L563.8,88.54 C563.8,89.98 562.72,90.805 561.88,91.075 L561.88,90.295 Z M569.865,77.335 L571.635,77.335 L574.05,86.26 L574.08,86.26 L576.585,77.335 L578.445,77.335 L581.025,86.275 L581.055,86.275 L583.44,77.335 L585.21,77.335 L581.97,88.615 L580.125,88.615 L577.545,79.54 L577.515,79.54 L574.98,88.615 L573.15,88.615 L569.865,77.335 Z M586.015,84.475 C586.015,82.18 587.215,80.11 589.705,80.11 C592.21,80.11 593.365,82.09 593.365,84.31 L593.365,85.045 L587.59,85.045 C587.575,86.41 588.385,87.52 589.795,87.52 C590.8,87.52 591.49,87.01 591.88,86.275 L593.32,86.53 C592.69,88.015 591.565,88.87 589.78,88.87 C587.245,88.87 586.015,86.92 586.015,84.475 Z M587.59,83.77 L591.775,83.77 C591.775,82.69 591.07,81.46 589.705,81.46 C588.355,81.46 587.605,82.69 587.59,83.77 Z M600.09,77.335 L604.05,77.335 C606.84,77.335 607.905,78.82 607.905,80.785 C607.905,82.855 606.78,84.31 604.05,84.31 L601.71,84.31 L601.71,88.615 L600.09,88.615 L600.09,77.335 Z M601.71,78.835 L601.71,82.81 L603.84,82.81 C605.49,82.81 606.3,82.09 606.3,80.785 C606.3,79.525 605.46,78.835 603.885,78.835 L601.71,78.835 Z M609.445,80.335 L611.005,80.335 L611.005,81.85 C611.575,80.95 612.79,80.155 613.84,80.14 L613.84,81.505 C613.06,81.505 611.8,81.985 611.005,83.155 L611.005,88.615 L609.445,88.615 L609.445,80.335 Z M614.63,84.46 C614.63,82.195 615.875,80.11 618.425,80.11 C620.99,80.11 622.22,82.135 622.22,84.46 C622.22,86.845 620.975,88.87 618.425,88.87 C615.89,88.87 614.63,86.815 614.63,84.46 Z M616.22,84.46 C616.22,86.245 617.03,87.445 618.425,87.445 C619.85,87.445 620.63,86.26 620.63,84.46 C620.63,82.66 619.79,81.535 618.425,81.535 C617.09,81.535 616.22,82.69 616.22,84.46 Z M622.98,80.335 L624.705,80.335 L626.88,86.965 L626.91,86.965 L629.085,80.335 L630.81,80.335 L627.855,88.615 L625.935,88.615 L622.98,80.335 Z M631.87,80.335 L633.445,80.335 L633.445,88.615 L631.87,88.615 L631.87,80.335 Z M631.87,77.335 L633.445,77.335 L633.445,79.105 L631.87,79.105 L631.87,77.335 Z M635.075,84.475 C635.075,81.91 636.245,80.11 638.51,80.11 C639.335,80.11 640.145,80.395 640.895,81.175 L640.895,77.35 L642.47,77.35 L642.47,88.615 L640.895,88.615 L640.895,87.91 C640.115,88.615 639.275,88.87 638.57,88.87 C636.23,88.87 635.075,87.04 635.075,84.475 Z M638.78,87.445 C639.545,87.445 640.325,87.055 640.895,86.485 L640.895,82.63 C640.31,81.97 639.575,81.535 638.78,81.535 C637.325,81.535 636.65,82.9 636.65,84.475 C636.65,86.02 637.325,87.445 638.78,87.445 Z M644.07,84.475 C644.07,82.18 645.27,80.11 647.76,80.11 C650.265,80.11 651.42,82.09 651.42,84.31 L651.42,85.045 L645.645,85.045 C645.63,86.41 646.44,87.52 647.85,87.52 C648.855,87.52 649.545,87.01 649.935,86.275 L651.375,86.53 C650.745,88.015 649.62,88.87 647.835,88.87 C645.3,88.87 644.07,86.92 644.07,84.475 Z M645.645,83.77 L649.83,83.77 C649.83,82.69 649.125,81.46 647.76,81.46 C646.41,81.46 645.66,82.69 645.645,83.77 Z M657.68,82.975 C657.68,79.9 659.195,77.08 662.57,77.08 C665.96,77.08 667.46,79.915 667.46,82.975 C667.46,84.58 667.055,86.125 666.185,87.22 L667.4,88.39 L666.275,89.545 L665.03,88.225 C664.37,88.63 663.545,88.87 662.57,88.87 C659.195,88.87 657.68,85.975 657.68,82.975 Z M662.99,86.05 L663.965,85.09 L665.015,86.11 C665.57,85.3 665.855,84.19 665.855,82.975 C665.855,80.62 664.73,78.565 662.57,78.565 C660.395,78.565 659.3,80.605 659.3,82.975 C659.3,85.315 660.41,87.37 662.57,87.37 C663.08,87.37 663.545,87.265 663.935,87.07 L662.99,86.05 Z M669.285,80.335 L670.86,80.335 L670.86,85.57 C670.86,86.8 671.55,87.52 672.585,87.52 C673.275,87.52 673.92,87.205 674.52,86.515 L674.52,80.335 L676.11,80.335 L676.11,88.615 L674.52,88.615 L674.52,87.64 C673.815,88.405 672.915,88.87 672.03,88.87 C670.245,88.87 669.285,87.82 669.285,85.885 L669.285,80.335 Z M679.3,86.53 C679.3,87.175 679.78,87.52 680.59,87.52 C681.535,87.52 682.345,87.055 683.005,86.455 C683.005,86.185 683.02,84.835 683.02,84.58 C681.055,84.82 679.3,85.3 679.3,86.53 Z M677.71,86.725 C677.71,84.625 679.645,83.665 683.02,83.23 L683.02,82.84 C683.005,82.12 682.555,81.46 681.295,81.46 C680.545,81.46 679.78,81.73 679.39,82.69 L677.935,82.465 C678.415,81.04 679.63,80.11 681.37,80.11 C683.53,80.11 684.595,81.19 684.595,82.87 L684.595,87.16 C684.595,87.655 684.85,87.73 685.42,87.625 L685.42,88.69 C685.06,88.81 684.73,88.87 684.355,88.87 C683.935,88.87 683.35,88.66 683.185,88.225 C683.155,88.18 683.11,87.685 683.095,87.655 C682.42,88.36 681.385,88.87 680.245,88.87 C679,88.87 677.71,88.21 677.71,86.725 Z M686.66,77.335 L688.235,77.335 L688.235,88.615 L686.66,88.615 L686.66,77.335 Z M690.135,80.335 L691.71,80.335 L691.71,88.615 L690.135,88.615 L690.135,80.335 Z M690.135,77.335 L691.71,77.335 L691.71,79.105 L690.135,79.105 L690.135,77.335 Z M692.83,80.335 L694.165,80.335 L694.165,78.19 L695.74,78.19 L695.74,80.335 L697.51,80.335 L697.51,81.67 L695.74,81.67 L695.74,86.65 C695.74,87.295 696.13,87.49 696.715,87.49 C696.985,87.49 697.27,87.415 697.48,87.31 L697.48,88.66 C697.03,88.81 696.535,88.87 696.025,88.87 C694.96,88.87 694.165,88.405 694.165,87.145 L694.165,81.67 L692.83,81.67 L692.83,80.335 Z M697.925,80.335 L699.62,80.335 L701.915,86.335 C702.875,83.74 704.03,80.575 704.105,80.335 L705.785,80.335 L701.93,90.58 C701.525,91.63 700.775,91.81 700.13,91.81 C699.755,91.81 699.47,91.81 699.05,91.705 L699.05,90.295 C699.26,90.34 699.5,90.385 699.725,90.385 C700.115,90.385 700.505,90.205 700.67,89.77 L701.15,88.435 L697.925,80.335 Z M711.985,77.335 L715.945,77.335 C718.735,77.335 719.8,78.82 719.8,80.785 C719.8,82.855 718.675,84.31 715.945,84.31 L713.605,84.31 L713.605,88.615 L711.985,88.615 L711.985,77.335 Z M713.605,78.835 L713.605,82.81 L715.735,82.81 C717.385,82.81 718.195,82.09 718.195,80.785 C718.195,79.525 717.355,78.835 715.78,78.835 L713.605,78.835 Z M721.34,80.335 L722.9,80.335 L722.9,81.85 C723.47,80.95 724.685,80.155 725.735,80.14 L725.735,81.505 C724.955,81.505 723.695,81.985 722.9,83.155 L722.9,88.615 L721.34,88.615 L721.34,80.335 Z M726.525,84.46 C726.525,82.195 727.77,80.11 730.32,80.11 C732.885,80.11 734.115,82.135 734.115,84.46 C734.115,86.845 732.87,88.87 730.32,88.87 C727.785,88.87 726.525,86.815 726.525,84.46 Z M728.115,84.46 C728.115,86.245 728.925,87.445 730.32,87.445 C731.745,87.445 732.525,86.26 732.525,84.46 C732.525,82.66 731.685,81.535 730.32,81.535 C728.985,81.535 728.115,82.69 728.115,84.46 Z M735.445,84.475 C735.445,81.91 736.615,80.11 738.88,80.11 C739.705,80.11 740.515,80.395 741.265,81.175 L741.265,77.35 L742.84,77.35 L742.84,88.615 L741.265,88.615 L741.265,87.91 C740.485,88.615 739.645,88.87 738.94,88.87 C736.6,88.87 735.445,87.04 735.445,84.475 Z M739.15,87.445 C739.915,87.445 740.695,87.055 741.265,86.485 L741.265,82.63 C740.68,81.97 739.945,81.535 739.15,81.535 C737.695,81.535 737.02,82.9 737.02,84.475 C737.02,86.02 737.695,87.445 739.15,87.445 Z M744.71,80.335 L746.285,80.335 L746.285,85.57 C746.285,86.8 746.975,87.52 748.01,87.52 C748.7,87.52 749.345,87.205 749.945,86.515 L749.945,80.335 L751.535,80.335 L751.535,88.615 L749.945,88.615 L749.945,87.64 C749.24,88.405 748.34,88.87 747.455,88.87 C745.67,88.87 744.71,87.82 744.71,85.885 L744.71,80.335 Z M753.135,84.475 C753.135,82.03 754.47,80.11 756.915,80.11 C758.97,80.11 759.99,81.415 760.32,82.555 L758.76,82.78 C758.385,81.955 757.77,81.535 756.915,81.535 C755.565,81.535 754.71,82.69 754.71,84.475 C754.71,86.245 755.505,87.445 756.87,87.445 C757.77,87.445 758.415,86.995 758.805,86.08 L760.35,86.32 C759.93,87.58 758.925,88.87 756.87,88.87 C754.5,88.87 753.135,86.905 753.135,84.475 Z M761.11,80.335 L762.445,80.335 L762.445,78.19 L764.02,78.19 L764.02,80.335 L765.79,80.335 L765.79,81.67 L764.02,81.67 L764.02,86.65 C764.02,87.295 764.41,87.49 764.995,87.49 C765.265,87.49 765.55,87.415 765.76,87.31 L765.76,88.66 C765.31,88.81 764.815,88.87 764.305,88.87 C763.24,88.87 762.445,88.405 762.445,87.145 L762.445,81.67 L761.11,81.67 L761.11,80.335 Z M766.625,86.695 L768.11,86.365 C768.515,87.325 769.235,87.595 770.06,87.595 C770.96,87.595 771.59,87.07 771.59,86.425 C771.59,85.69 770.735,85.345 769.685,84.97 C767.825,84.37 766.88,83.68 766.88,82.435 C766.88,81.145 768.095,80.11 769.985,80.11 C771.545,80.11 772.565,80.815 773.105,82.12 L771.62,82.39 C771.29,81.715 770.75,81.385 769.985,81.385 C769.025,81.385 768.455,81.91 768.455,82.51 C768.455,83.2 769.46,83.56 770.18,83.8 C772.175,84.385 773.24,85.045 773.24,86.41 C773.24,87.925 771.95,88.87 770.015,88.87 C768.665,88.87 767.24,88.27 766.625,86.695 Z M781,86.53 C781,87.175 781.48,87.52 782.29,87.52 C783.235,87.52 784.045,87.055 784.705,86.455 C784.705,86.185 784.72,84.835 784.72,84.58 C782.755,84.82 781,85.3 781,86.53 Z M779.41,86.725 C779.41,84.625 781.345,83.665 784.72,83.23 L784.72,82.84 C784.705,82.12 784.255,81.46 782.995,81.46 C782.245,81.46 781.48,81.73 781.09,82.69 L779.635,82.465 C780.115,81.04 781.33,80.11 783.07,80.11 C785.23,80.11 786.295,81.19 786.295,82.87 L786.295,87.16 C786.295,87.655 786.55,87.73 787.12,87.625 L787.12,88.69 C786.76,88.81 786.43,88.87 786.055,88.87 C785.635,88.87 785.05,88.66 784.885,88.225 C784.855,88.18 784.81,87.685 784.795,87.655 C784.12,88.36 783.085,88.87 781.945,88.87 C780.7,88.87 779.41,88.21 779.41,86.725 Z M788.36,80.335 L789.935,80.335 L789.935,81.37 C790.64,80.575 791.525,80.11 792.425,80.11 C794.27,80.11 795.185,81.16 795.185,83.095 L795.185,88.615 L793.595,88.615 L793.595,83.41 C793.595,82.18 792.965,81.46 791.945,81.46 C791.225,81.46 790.55,81.79 789.935,82.48 L789.935,88.615 L788.36,88.615 L788.36,80.335 Z M796.8,84.475 C796.8,81.91 797.97,80.11 800.235,80.11 C801.06,80.11 801.87,80.395 802.62,81.175 L802.62,77.35 L804.195,77.35 L804.195,88.615 L802.62,88.615 L802.62,87.91 C801.84,88.615 801,88.87 800.295,88.87 C797.955,88.87 796.8,87.04 796.8,84.475 Z M800.505,87.445 C801.27,87.445 802.05,87.055 802.62,86.485 L802.62,82.63 C802.035,81.97 801.3,81.535 800.505,81.535 C799.05,81.535 798.375,82.9 798.375,84.475 C798.375,86.02 799.05,87.445 800.505,87.445 Z M810.605,85.675 L812.39,85.405 C812.96,86.8 813.875,87.37 815.06,87.37 C816.44,87.37 817.145,86.5 817.145,85.75 C817.145,84.655 815.63,84.01 814.64,83.62 C812.255,82.735 810.935,81.835 810.935,80.305 C810.935,78.295 812.78,77.08 814.85,77.08 C816.815,77.08 818.27,78.115 818.825,79.84 L817.07,80.11 C816.65,79.075 815.825,78.565 814.775,78.565 C813.575,78.565 812.735,79.285 812.735,80.155 C812.735,81.1 813.695,81.55 815.135,82.105 C817.565,83.02 818.945,84.07 818.945,85.585 C818.945,87.415 817.475,88.87 815.015,88.87 C812.87,88.87 811.34,87.775 810.605,85.675 Z M820.65,80.335 L822.225,80.335 L822.225,85.57 C822.225,86.8 822.915,87.52 823.95,87.52 C824.64,87.52 825.285,87.205 825.885,86.515 L825.885,80.335 L827.475,80.335 L827.475,88.615 L825.885,88.615 L825.885,87.64 C825.18,88.405 824.28,88.87 823.395,88.87 C821.61,88.87 820.65,87.82 820.65,85.885 L820.65,80.335 Z M829.36,80.335 L830.935,80.335 L830.935,81.22 C831.685,80.44 832.54,80.095 833.35,80.095 C835.675,80.095 836.785,81.925 836.785,84.535 C836.785,87.115 835.66,88.87 833.275,88.87 C832.465,88.87 831.61,88.495 830.935,87.895 L830.935,91.57 L829.36,91.57 L829.36,80.335 Z M833.065,81.52 C832.285,81.52 831.52,82 830.935,82.675 L830.935,86.485 C831.505,87.055 832.27,87.445 833.065,87.445 C834.565,87.445 835.195,86.05 835.195,84.535 C835.195,82.915 834.58,81.52 833.065,81.52 Z M838.13,84.475 C838.13,82.18 839.33,80.11 841.82,80.11 C844.325,80.11 845.48,82.09 845.48,84.31 L845.48,85.045 L839.705,85.045 C839.69,86.41 840.5,87.52 841.91,87.52 C842.915,87.52 843.605,87.01 843.995,86.275 L845.435,86.53 C844.805,88.015 843.68,88.87 841.895,88.87 C839.36,88.87 838.13,86.92 838.13,84.475 Z M839.705,83.77 L843.89,83.77 C843.89,82.69 843.185,81.46 841.82,81.46 C840.47,81.46 839.72,82.69 839.705,83.77 Z M847.08,80.335 L848.64,80.335 L848.64,81.85 C849.21,80.95 850.425,80.155 851.475,80.14 L851.475,81.505 C850.695,81.505 849.435,81.985 848.64,83.155 L848.64,88.615 L847.08,88.615 L847.08,80.335 Z M852.565,77.35 L854.14,77.35 L854.14,81.22 C854.905,80.44 855.745,80.11 856.54,80.11 C858.925,80.11 859.975,82 859.975,84.535 C859.975,87.115 858.865,88.87 856.48,88.87 C855.655,88.87 854.83,88.54 854.14,87.925 L854.14,88.615 L852.565,88.615 L852.565,77.35 Z M856.27,81.535 C855.49,81.535 854.74,82 854.14,82.675 L854.14,86.485 C854.71,87.055 855.46,87.445 856.27,87.445 C857.755,87.445 858.4,86.05 858.4,84.535 C858.4,83.05 857.83,81.535 856.27,81.535 Z M866.715,77.335 L874.545,77.335 L874.545,78.835 L868.335,78.835 L868.335,82.06 L873.945,82.06 L873.945,83.545 L868.335,83.545 L868.335,87.115 L874.62,87.115 L874.62,88.615 L866.715,88.615 L866.715,77.335 Z M875.575,80.335 L877.33,80.335 L879.28,83.17 L881.245,80.335 L883,80.335 L880.165,84.445 L883.045,88.615 L881.29,88.615 L879.28,85.72 L877.285,88.615 L875.53,88.615 L878.41,84.445 L875.575,80.335 Z M884.12,80.335 L885.695,80.335 L885.695,81.22 C886.445,80.44 887.3,80.095 888.11,80.095 C890.435,80.095 891.545,81.925 891.545,84.535 C891.545,87.115 890.42,88.87 888.035,88.87 C887.225,88.87 886.37,88.495 885.695,87.895 L885.695,91.57 L884.12,91.57 L884.12,80.335 Z M887.825,81.52 C887.045,81.52 886.28,82 885.695,82.675 L885.695,86.485 C886.265,87.055 887.03,87.445 887.825,87.445 C889.325,87.445 889.955,86.05 889.955,84.535 C889.955,82.915 889.34,81.52 887.825,81.52 Z M892.89,84.475 C892.89,82.18 894.09,80.11 896.58,80.11 C899.085,80.11 900.24,82.09 900.24,84.31 L900.24,85.045 L894.465,85.045 C894.45,86.41 895.26,87.52 896.67,87.52 C897.675,87.52 898.365,87.01 898.755,86.275 L900.195,86.53 C899.565,88.015 898.44,88.87 896.655,88.87 C894.12,88.87 892.89,86.92 892.89,84.475 Z M894.465,83.77 L898.65,83.77 C898.65,82.69 897.945,81.46 896.58,81.46 C895.23,81.46 894.48,82.69 894.465,83.77 Z M901.84,80.335 L903.4,80.335 L903.4,81.85 C903.97,80.95 905.185,80.155 906.235,80.14 L906.235,81.505 C905.455,81.505 904.195,81.985 903.4,83.155 L903.4,88.615 L901.84,88.615 L901.84,80.335 Z M907.325,80.335 L908.9,80.335 L908.9,88.615 L907.325,88.615 L907.325,80.335 Z M907.325,77.335 L908.9,77.335 L908.9,79.105 L907.325,79.105 L907.325,77.335 Z M910.53,84.475 C910.53,82.18 911.73,80.11 914.22,80.11 C916.725,80.11 917.88,82.09 917.88,84.31 L917.88,85.045 L912.105,85.045 C912.09,86.41 912.9,87.52 914.31,87.52 C915.315,87.52 916.005,87.01 916.395,86.275 L917.835,86.53 C917.205,88.015 916.08,88.87 914.295,88.87 C911.76,88.87 910.53,86.92 910.53,84.475 Z M912.105,83.77 L916.29,83.77 C916.29,82.69 915.585,81.46 914.22,81.46 C912.87,81.46 912.12,82.69 912.105,83.77 Z M919.48,80.335 L921.055,80.335 L921.055,81.37 C921.76,80.575 922.645,80.11 923.545,80.11 C925.39,80.11 926.305,81.16 926.305,83.095 L926.305,88.615 L924.715,88.615 L924.715,83.41 C924.715,82.18 924.085,81.46 923.065,81.46 C922.345,81.46 921.67,81.79 921.055,82.48 L921.055,88.615 L919.48,88.615 L919.48,80.335 Z M927.905,84.475 C927.905,82.03 929.24,80.11 931.685,80.11 C933.74,80.11 934.76,81.415 935.09,82.555 L933.53,82.78 C933.155,81.955 932.54,81.535 931.685,81.535 C930.335,81.535 929.48,82.69 929.48,84.475 C929.48,86.245 930.275,87.445 931.64,87.445 C932.54,87.445 933.185,86.995 933.575,86.08 L935.12,86.32 C934.7,87.58 933.695,88.87 931.64,88.87 C929.27,88.87 927.905,86.905 927.905,84.475 Z M936.39,84.475 C936.39,82.18 937.59,80.11 940.08,80.11 C942.585,80.11 943.74,82.09 943.74,84.31 L943.74,85.045 L937.965,85.045 C937.95,86.41 938.76,87.52 940.17,87.52 C941.175,87.52 941.865,87.01 942.255,86.275 L943.695,86.53 C943.065,88.015 941.94,88.87 940.155,88.87 C937.62,88.87 936.39,86.92 936.39,84.475 Z M937.965,83.77 L942.15,83.77 C942.15,82.69 941.445,81.46 940.08,81.46 C938.73,81.46 937.98,82.69 937.965,83.77 Z" id="Years-of-Practice-in"></path>
                <rect id="Rectangle-8" x="115" y="0" width="2" height="100"></rect>
                <path d="M10.524,21.704 C10.524,15.964 13.352,10.84 19.428,10.84 C25.532,10.84 28.332,16.02 28.332,21.704 C28.332,24.812 27.52,27.752 25.784,29.796 L28.08,31.952 L26.4,33.688 L24.076,31.28 C22.816,32.064 21.276,32.54 19.428,32.54 C13.38,32.54 10.524,27.276 10.524,21.704 Z M20.436,27.528 L21.892,26.072 L24.048,28.116 C25.308,26.52 25.952,24.224 25.952,21.704 C25.952,17.112 23.712,13.08 19.428,13.08 C15.116,13.08 12.932,17.084 12.932,21.704 C12.932,26.24 15.172,30.3 19.428,30.3 C20.576,30.3 21.556,30.048 22.396,29.572 L20.436,27.528 Z M31.608,16.888 L33.932,16.888 L33.932,26.688 C33.932,29.096 35.332,30.524 37.376,30.524 C38.804,30.524 40.148,29.796 41.352,28.34 L41.352,16.888 L43.676,16.888 L43.676,32.036 L41.352,32.036 L41.352,30.104 C40.036,31.644 38.3,32.54 36.62,32.54 C33.456,32.54 31.608,30.636 31.608,27.136 L31.608,16.888 Z M46.616,28.676 C46.616,24.728 50.48,23.104 56.5,22.236 L56.5,21.368 C56.5,19.856 55.576,18.484 53.056,18.484 C51.516,18.484 49.976,19.072 49.248,21.088 L47.064,20.752 C47.876,18.148 50.06,16.496 53.14,16.496 C57.004,16.496 58.852,18.4 58.852,21.34 L58.852,29.768 C58.852,30.748 59.356,30.832 60.42,30.636 L60.42,32.232 C59.832,32.428 59.244,32.54 58.656,32.54 C57.9,32.54 56.948,32.12 56.752,31.28 C56.696,31.196 56.64,30.132 56.612,30.076 C55.296,31.476 53.336,32.54 51.152,32.54 C48.884,32.54 46.616,31.336 46.616,28.676 Z M48.968,28.424 C48.968,29.768 49.976,30.524 51.628,30.524 C53.616,30.524 55.184,29.488 56.5,28.2 L56.5,24.28 C52.496,24.84 48.996,25.792 48.968,28.424 Z M62.604,11.344 L64.956,11.344 L64.956,32.036 L62.604,32.036 L62.604,11.344 Z M68.428,16.888 L70.78,16.888 L70.78,32.036 L68.428,32.036 L68.428,16.888 Z M68.428,11.344 L70.78,11.344 L70.78,14.48 L68.428,14.48 L68.428,11.344 Z M72.74,16.888 L75.092,16.888 L75.092,12.94 L77.416,12.94 L77.416,16.888 L80.496,16.888 L80.496,18.904 L77.416,18.904 L77.416,28.788 C77.416,30.048 78.06,30.468 79.208,30.468 C79.628,30.468 80.076,30.356 80.468,30.188 L80.468,32.204 C79.74,32.428 78.984,32.54 78.116,32.54 C76.352,32.54 75.092,31.7 75.092,29.6 L75.092,18.904 L72.74,18.904 L72.74,16.888 Z M81.112,16.888 L83.632,16.888 L88.056,28.648 C89.904,23.636 92.228,17.224 92.34,16.888 L94.832,16.888 L87.832,35.704 C87.104,37.636 85.816,37.944 84.752,37.944 C84.136,37.944 83.688,37.916 83.044,37.748 L83.044,35.648 C83.38,35.732 83.772,35.788 84.136,35.788 C84.892,35.788 85.62,35.452 85.928,34.556 C85.956,34.416 86.348,33.324 86.908,31.784 L81.112,16.888 Z M2.516,67.344 L9.488,67.344 C14.248,67.344 16.152,69.36 16.152,72.664 C16.152,74.932 14.668,76.668 12.736,77.396 C15.704,77.984 16.852,80.112 16.852,82.268 C16.852,86.272 14.332,88.036 10.02,88.036 L2.516,88.036 L2.516,67.344 Z M4.924,78.572 L4.924,85.824 L9.488,85.824 C12.792,85.824 14.472,84.48 14.472,82.128 C14.472,79.384 12.232,78.572 9.46,78.572 L4.924,78.572 Z M4.924,69.584 L4.924,76.36 L9.292,76.36 C11.672,76.36 13.744,74.96 13.744,72.916 C13.744,70.732 12.232,69.584 9.208,69.584 L4.924,69.584 Z M19.26,80.476 C19.26,76.332 21.416,72.496 25.84,72.496 C30.264,72.496 32.364,76.08 32.364,80.112 L32.364,81.26 L21.584,81.26 C21.556,84.2 23.152,86.524 25.98,86.524 C27.968,86.524 29.424,85.404 30.152,83.892 L32.28,84.312 C31.216,86.888 29.144,88.54 25.952,88.54 C21.444,88.54 19.26,84.956 19.26,80.476 Z M21.584,79.356 L30.012,79.356 C30.012,76.976 28.528,74.512 25.84,74.512 C23.208,74.512 21.64,77.004 21.584,79.356 Z M33.652,72.888 L36.172,72.888 L40.596,84.648 C42.444,79.636 44.768,73.224 44.88,72.888 L47.372,72.888 L40.372,91.704 C39.644,93.636 38.356,93.944 37.292,93.944 C36.676,93.944 36.228,93.916 35.584,93.748 L35.584,91.648 C35.92,91.732 36.312,91.788 36.676,91.788 C37.432,91.788 38.16,91.452 38.468,90.556 C38.496,90.416 38.888,89.324 39.448,87.784 L33.652,72.888 Z M48.66,80.476 C48.66,76.276 50.872,72.496 55.436,72.496 C60.056,72.496 62.212,76.164 62.212,80.476 C62.212,84.928 60.056,88.54 55.436,88.54 C50.9,88.54 48.66,84.844 48.66,80.476 Z M51.04,80.476 C51.04,83.92 52.58,86.412 55.436,86.412 C58.376,86.412 59.86,83.948 59.86,80.476 C59.86,76.976 58.264,74.596 55.436,74.596 C52.72,74.596 51.04,77.032 51.04,80.476 Z M65.096,72.888 L67.42,72.888 L67.42,74.988 C68.736,73.42 70.444,72.496 72.152,72.496 C75.456,72.496 77.192,74.372 77.192,77.872 L77.192,88.036 L74.812,88.036 L74.812,78.348 C74.812,75.912 73.524,74.512 71.48,74.512 C70.052,74.512 68.652,75.24 67.42,76.668 L67.42,88.036 L65.096,88.036 L65.096,72.888 Z M80.104,80.476 C80.104,75.856 82.176,72.496 86.32,72.496 C87.916,72.496 89.484,73.084 90.968,74.736 L90.968,67.372 L93.32,67.372 L93.32,88.036 L90.968,88.036 L90.968,86.496 C89.4,88.036 87.692,88.54 86.376,88.54 C82.176,88.54 80.104,85.068 80.104,80.476 Z M86.684,86.412 C88.224,86.412 89.848,85.572 90.968,84.34 L90.968,76.92 C89.82,75.548 88.28,74.624 86.684,74.624 C83.8,74.624 82.428,77.34 82.428,80.476 C82.428,83.528 83.772,86.412 86.684,86.412 Z" id="Quality-Beyond"></path>
                <path d="M40,55.5682705 C40,53.2795839 41.6228869,51.9895969 43.3498049,50.9908973 C42.663199,49.9505852 41.976593,48.6397919 41.976593,47.5994798 C41.976593,45.4148244 43.5994798,44 45.9713914,44 C48.343303,44 49.7997399,45.4980494 49.7997399,47.5578674 C49.7997399,49.5344603 48.0936281,50.6996099 46.3250975,51.6775033 C47.2821847,52.863459 48.4473342,54.1118336 49.6124837,55.2769831 C50.1118336,54.2990897 50.3823147,53.1131339 50.3823147,51.8439532 L52.5461638,51.8439532 C52.5461638,53.6749025 52.0676203,55.4018205 51.1729519,56.7958388 C52.4213264,58.0026008 53.5656697,59.0013004 54.2730819,59.6462939 L51.2145644,59.6462939 L49.8829649,58.2938882 C48.6762029,59.3550065 47.0741222,60 45.159948,60 C42.3511053,60 40,58.4811443 40,55.5682705 Z M45.0559168,58.1482445 C46.4291287,58.1482445 47.573472,57.6697009 48.4473342,56.8582575 C46.9908973,55.3810143 45.6384915,53.9661899 44.5773732,52.6553966 C43.26658,53.4668401 42.2054616,54.3407022 42.2054616,55.5682705 C42.2054616,57.4616385 43.6410923,58.1482445 45.0559168,58.1482445 Z M44.1404421,47.5994798 C44.1404421,48.2236671 44.5149545,49.076723 45.1183355,50.0338101 C46.4915475,49.3055917 47.6150845,48.5773732 47.6150845,47.5162549 C47.6150845,46.6007802 46.9908973,45.8517555 45.9089727,45.8517555 C44.8894668,45.8517555 44.1404421,46.5591678 44.1404421,47.5994798 Z" id="&amp;"></path>
            </g>
        </g>
    </g>
</svg>