<?xml version="1.0" encoding="UTF-8"?>
<svg width="441px" height="149px" viewBox="0 0 441 149" version="1.1" xmlns="http://www.w3.org/2000/svg" xmlns:xlink="http://www.w3.org/1999/xlink">
    <!-- Generator: Sketch 49 (51002) - http://www.bohemiancoding.com/sketch -->
    <title>text_cn</title>
    <desc>Created with Sketch.</desc>
    <defs></defs>
    <g id="Page-1" stroke="none" stroke-width="1" fill="none" fill-rule="evenodd">
        <g id="确定搞-中文" transform="translate(-503.000000, -182.000000)" fill="#FFFFFF">
            <g id="文案" transform="translate(495.000000, 176.000000)">
                <g id="text_cn">
                    <path d="M54.4,133.976 L64.144,133.976 L64.144,141.944 L54.4,141.944 L54.4,133.976 Z M56.176,146.288 C56.056,147.128 55.936,147.872 55.792,148.544 C56.56,150.512 57.4,151.472 58.672,151.856 L58.672,145.376 L52.84,145.376 L52.84,143.84 L65.704,143.84 L65.704,145.376 L60.4,145.376 L60.4,147.848 L64.816,147.848 L64.816,149.384 L60.4,149.384 L60.4,152.096 L66.04,152.096 L65.704,153.776 L60.568,153.776 C57.976,153.776 56.416,153.008 55.192,150.56 C54.64,151.976 53.824,153.176 52.624,154.568 L51.256,153.464 C53.44,151.064 54.112,149.408 54.496,146.144 L56.176,146.288 Z M51.16,133.04 L51.16,137.336 L53.368,137.336 L53.368,139.04 L51.16,139.04 L51.16,142.64 L53.056,141.8 L53.176,143.6 L51.16,144.464 L51.16,151.784 C51.16,153.536 50.632,154.016 48.784,154.016 L47.44,154.016 L47.08,152.312 L48.232,152.312 C49.192,152.312 49.432,152.072 49.432,151.184 L49.432,145.208 L46.864,146.288 L46.648,144.488 C47.368,144.224 48.376,143.816 49.432,143.36 L49.432,139.04 L47.008,139.04 L47.008,137.336 L49.432,137.336 L49.432,133.04 L51.16,133.04 Z M56.152,140.552 L62.368,140.552 L62.368,138.632 L56.152,138.632 L56.152,140.552 Z M56.152,135.368 L56.152,137.24 L62.368,137.24 L62.368,135.368 L56.152,135.368 Z M92.824,146.84 L78.928,146.84 L78.928,145.112 L82.096,145.112 L82.096,139.112 L79.744,139.112 L79.744,137.408 L82.096,137.408 L82.096,132.872 L83.92,132.872 L83.92,137.408 L87.976,137.408 L87.976,132.872 L89.8,132.872 L89.8,137.408 L92.344,137.408 L92.344,139.112 L89.8,139.112 L89.8,145.112 L92.824,145.112 L92.824,146.84 Z M76.24,154.232 L76.24,142.016 C75.664,143.048 75.016,144.08 74.32,145.088 L73.456,143.216 C75.232,140.576 76.84,136.784 77.968,132.632 L79.72,133.184 C79.192,135.008 78.664,136.64 78.064,138.152 L78.064,154.232 L76.24,154.232 Z M83.92,139.112 L83.92,145.112 L87.976,145.112 L87.976,139.112 L83.92,139.112 Z M84.952,148.88 C83.632,150.608 81.568,152.888 80.08,154.28 L78.88,152.936 C80.416,151.616 82.36,149.408 83.584,147.752 L84.952,148.88 Z M91.408,154.208 C90.232,152.744 88.096,150.272 86.944,149 L88.168,147.8 C89.392,149.072 91.456,151.4 92.704,152.912 L91.408,154.208 Z M117.568,147.776 L111.472,147.776 L111.472,151.664 L119.416,151.664 L119.416,153.392 L101.608,153.392 L101.608,151.664 L109.552,151.664 L109.552,147.776 L103.456,147.776 L103.456,146.048 L109.552,146.048 L109.552,142.52 L104.032,142.52 L104.032,141.2 C103.288,141.704 102.496,142.184 101.632,142.688 L100.744,141.008 C105.088,138.632 107.824,136.16 109.696,133.016 L111.328,133.016 C113.2,136.208 116.2,138.848 120.232,141.032 L119.296,142.664 C118.48,142.208 117.712,141.752 116.992,141.248 L116.992,142.52 L111.472,142.52 L111.472,146.048 L117.568,146.048 L117.568,147.776 Z M110.536,134.792 C109.12,137 107.224,138.944 104.608,140.792 L116.344,140.792 C113.848,139.016 111.928,137 110.536,134.792 Z M136.216,151.784 L139.336,151.784 C141.328,151.784 141.832,151.304 141.952,149.384 C142,148.808 142.264,144.032 142.288,143.456 L135.04,143.456 C134.536,148.112 133.168,151.04 129.28,154.568 L127.912,153.056 C132.064,149.384 133,146.696 133.336,140.816 L133.456,137.936 L128.224,137.936 L128.224,136.16 L137.128,136.16 C136.768,135.2 136.096,133.592 135.952,133.208 L137.752,132.536 C137.92,132.992 138.88,135.296 139.192,136.16 L146.848,136.16 L146.848,137.936 L135.352,137.936 C135.328,138.776 135.256,139.856 135.208,141.056 L135.16,141.68 L144.28,141.68 C144.256,142.496 143.872,149.216 143.8,150.032 C143.584,152.84 142.672,153.584 140.008,153.584 L136.576,153.584 L136.216,151.784 Z M157.504,154.208 L157.504,142.016 C156.88,143.144 156.184,144.224 155.44,145.28 L154.384,143.696 C156.256,140.888 158.032,136.88 159.088,132.8 L160.96,133.232 C160.456,135.032 159.904,136.688 159.28,138.248 L159.28,154.208 L157.504,154.208 Z M173.968,153.176 L160.24,153.176 L160.24,151.448 L167.176,151.448 C168.016,148.64 169.528,142.784 170.248,139.64 L172.048,140.192 C171.232,143.288 169.84,148.472 168.976,151.448 L173.968,151.448 L173.968,153.176 Z M173.56,138.488 L160.864,138.488 L160.864,136.76 L166.576,136.76 C166.24,135.728 165.616,134.048 165.184,133.016 L167.056,132.512 C167.488,133.568 168.112,135.2 168.472,136.256 L166.768,136.76 L173.56,136.76 L173.56,138.488 Z M164.488,149.744 C163.936,147.464 162.664,142.544 162.064,140.264 L163.792,139.784 C164.44,142.112 165.616,146.816 166.216,149.264 L164.488,149.744 Z M183.424,154.208 L183.424,144.152 L199.672,144.152 L199.672,151.448 C199.672,153.44 199.096,154.016 197.152,154.016 L194.872,154.016 L194.536,152.48 L196.48,152.48 C197.656,152.48 197.872,152.192 197.872,150.992 L197.872,145.544 L185.2,145.544 L185.2,154.208 L183.424,154.208 Z M185.152,138.08 L197.92,138.08 L197.92,142.472 L185.152,142.472 L185.152,138.08 Z M187.36,147.2 L195.736,147.2 L195.736,151.784 L187.36,151.784 L187.36,147.2 Z M200.872,136.424 L182.2,136.424 L182.2,134.984 L190.84,134.984 C190.576,134.336 190.24,133.616 190.024,133.136 L191.872,132.488 C192.16,133.088 192.616,134.192 192.928,134.984 L200.872,134.984 L200.872,136.424 Z M186.928,139.352 L186.928,141.2 L196.12,141.2 L196.12,139.352 L186.928,139.352 Z M189.088,148.544 L189.088,150.44 L194.008,150.44 L194.008,148.544 L189.088,148.544 Z M211.72,133.76 L225.04,133.76 L225.04,141.368 L211.72,141.368 L211.72,133.76 Z M219.232,153.896 L219.232,143.96 L226.912,143.96 L226.912,153.896 L225.208,153.896 L225.208,152.48 L220.96,152.48 L220.96,153.896 L219.232,153.896 Z M209.896,153.896 L209.896,143.96 L217.312,143.96 L217.312,153.896 L215.608,153.896 L215.608,152.48 L211.624,152.48 L211.624,153.896 L209.896,153.896 Z M213.568,135.44 L213.568,139.688 L223.216,139.688 L223.216,135.44 L213.568,135.44 Z M220.96,145.616 L220.96,150.8 L225.208,150.8 L225.208,145.616 L220.96,145.616 Z M211.624,145.616 L211.624,150.8 L215.608,150.8 L215.608,145.616 L211.624,145.616 Z M241.744,149.744 L241.744,142.568 L246.544,142.568 L246.544,140.144 L240.52,140.144 L240.52,138.56 L246.544,138.56 L246.544,136.352 L248.32,136.352 L248.32,138.56 L254.896,138.56 L254.896,140.144 L248.32,140.144 L248.32,142.568 L253.144,142.568 L253.144,149.696 L251.392,149.696 L251.392,144.176 L243.472,144.176 L243.472,149.744 L241.744,149.744 Z M254.104,135.128 C250.192,135.584 243.688,136.088 239.944,136.208 L239.944,141.656 C239.944,148.04 239.464,150.536 237.448,154.352 L235.744,153.464 C237.808,149.6 238.192,147.68 238.192,141.776 L238.192,134.6 C242.608,134.504 249.448,133.952 253.768,133.448 L254.104,135.128 Z M248.392,144.872 L248.272,146.672 C248.2,147.632 248.08,148.448 247.84,149.144 C249.904,150.176 253.312,151.88 254.92,152.744 L254.08,154.304 C252.472,153.392 249.136,151.616 247.12,150.608 C245.968,152.24 243.856,153.224 240.328,154.304 L239.656,152.672 C244.984,151.088 246.232,150.032 246.52,146.648 C246.568,146.168 246.592,145.304 246.616,144.872 L248.392,144.872 Z M281.896,138.584 L280.36,138.584 C280,142.808 279.304,145.784 277.864,148.352 C278.896,149.984 280.288,151.496 282.064,153.056 L280.936,154.52 C279.256,152.984 277.936,151.496 276.88,149.912 C275.776,151.448 274.312,152.888 272.416,154.448 L271.36,153.104 L271.288,153.248 C270.544,152.792 269.728,152.312 268.864,151.832 C267.592,152.768 265.888,153.608 263.488,154.472 L262.72,152.96 C264.712,152.264 266.176,151.64 267.28,150.968 C266.176,150.344 265.048,149.744 264.016,149.24 C264.4,148.544 264.784,147.824 265.12,147.104 L263.032,147.104 L263.032,145.664 L265.744,145.664 C266.032,145.016 266.248,144.392 266.44,143.84 L268.096,144.272 C267.928,144.752 267.784,145.208 267.592,145.664 L272.296,145.664 L272.296,147.032 C271.768,148.448 271.144,149.624 270.136,150.704 C270.784,151.04 271.432,151.4 272.128,151.784 L271.528,152.816 C273.424,151.328 274.84,149.888 275.896,148.232 C274.936,146.36 274.312,144.392 273.952,142.136 L273.496,143 L272.2,141.8 C273.592,139.328 274.84,135.704 275.344,132.896 L277.048,133.208 C276.808,134.384 276.496,135.608 276.112,136.808 L281.896,136.808 L281.896,138.584 Z M272.008,144.128 C271.096,143.288 269.824,142.088 269.104,141.44 L269.104,143.912 L267.496,143.912 L267.496,141.2 C266.392,142.496 265,143.696 263.368,144.704 L262.624,143.312 C264.448,142.256 266.008,140.96 267.184,139.544 L263.104,139.544 L263.104,138.08 L267.496,138.08 L267.496,133.04 L269.104,133.04 L269.104,138.08 L272.992,138.08 L272.992,139.544 L269.104,139.544 L269.104,141.128 L269.92,140.192 C270.64,140.84 272.008,142.088 272.968,143 L272.008,144.128 Z M275.128,139.52 C275.416,142.256 275.944,144.488 276.856,146.48 C277.84,144.344 278.392,141.848 278.68,138.584 L275.488,138.584 L275.128,139.52 Z M270.472,147.104 L267.016,147.104 C266.776,147.656 266.536,148.184 266.296,148.664 C267.016,149.024 267.808,149.432 268.696,149.912 C269.512,149.12 270.064,148.232 270.472,147.104 Z M273.016,134.384 C272.488,135.248 271.576,136.712 270.976,137.576 L269.8,136.76 C270.376,135.896 271.288,134.456 271.792,133.592 L273.016,134.384 Z M265.504,137.456 C265.048,136.568 264.16,135.128 263.656,134.336 L264.784,133.568 L266.728,136.712 L265.504,137.456 Z M308.824,147.608 L300.568,147.608 L300.568,151.016 C300.568,153.464 300.136,153.968 297.904,153.968 L295.024,153.968 L294.664,152.24 L297.256,152.24 C298.504,152.24 298.696,151.952 298.696,150.512 L298.696,147.608 L290.152,147.608 L290.152,145.88 L298.696,145.88 L298.696,144.584 L302.488,141.8 L293.464,141.8 L293.464,140.096 L305.656,140.096 L305.656,141.776 L300.568,145.28 L300.568,145.88 L308.824,145.88 L308.824,147.608 Z M290.92,140.768 L290.92,135.656 L299.032,135.656 C298.576,134.672 298,133.424 297.784,132.992 L299.68,132.488 L301.12,135.656 L308.08,135.656 L308.08,140.792 L306.208,140.792 L306.208,137.384 L292.768,137.384 L292.768,140.768 L290.92,140.768 Z M327.592,146.12 C327.544,146.504 327.52,147.272 327.472,147.656 C327.424,148.232 327.328,148.736 327.136,149.216 C329.536,150.2 333.568,151.952 335.536,152.816 L334.768,154.496 C332.824,153.56 328.648,151.64 326.344,150.584 C325.048,152.096 322.576,153.2 318.352,154.448 L317.488,152.72 C323.872,151.088 325.312,149.72 325.48,147.608 C325.528,147.248 325.576,146.504 325.624,146.12 L327.592,146.12 Z M319.792,150.152 L319.792,143.84 L333.304,143.84 L333.304,150.152 L331.504,150.152 L331.504,145.472 L321.568,145.472 L321.568,150.152 L319.792,150.152 Z M331.72,138.416 C332.128,137.864 332.92,136.736 333.16,136.304 L325.624,136.304 C325.024,137.312 324.328,138.272 323.56,139.16 L322.192,138.128 C323.68,136.448 324.664,134.624 325.432,132.608 L327.184,132.968 C326.968,133.592 326.728,134.168 326.44,134.744 L335.032,134.744 L335.032,136.28 C334.672,136.856 333.712,138.32 333.232,139.04 L331.72,138.416 Z M335.272,143.408 C331.672,142.496 329.608,141.44 328.408,139.904 C327.352,141.464 325.24,142.52 321.832,143.432 L321.112,141.944 C325.384,140.816 326.992,139.664 327.328,137.936 L327.544,136.976 L329.344,136.976 L329.176,137.912 L329.104,138.248 C330.16,139.928 332.152,140.984 336.04,141.8 L335.272,143.408 Z M317.008,141.848 C317.728,141.272 320.704,138.632 321.376,137.912 L321.904,138.608 L322.36,139.208 C321.664,139.904 318.688,142.64 317.92,143.336 L317.008,141.848 Z M321.352,137.264 C320.368,136.472 318.664,135.056 317.752,134.36 L318.64,133.04 C319.576,133.712 321.424,135.128 322.288,135.824 L321.352,137.264 Z M362.464,143.816 L347.824,143.816 L347.824,145.64 C347.824,149.672 347.248,151.928 345.352,154.76 L343.672,153.728 C345.64,151.04 346.048,149.216 346.048,145.28 L346.048,142.064 L355.168,142.064 C355.936,140.696 356.944,138.776 357.568,137.36 L349.984,137.36 C350.56,138.368 351.448,140.072 351.952,141.032 L350.272,142.016 C349.792,141.032 348.832,139.136 348.304,138.176 L349.768,137.36 L344.512,137.36 L344.512,135.608 L353.08,135.608 C352.744,134.792 352.36,133.952 352.024,133.184 L353.752,132.44 C354.16,133.304 354.568,134.216 354.976,135.152 L353.728,135.608 L362.944,135.608 L362.944,137.36 L357.688,137.36 L359.248,138.104 C358.696,139.28 357.952,140.768 357.232,142.064 L362.464,142.064 L362.464,143.816 Z M379.936,154.496 L379.936,134.096 L388.768,134.096 C388.768,134.624 388.696,136.784 388.648,137.864 C388.576,139.664 388,140.144 386.2,140.144 L383.32,140.144 L382.984,138.584 L385.48,138.584 C386.584,138.584 386.92,138.368 386.944,137.432 C386.968,137.048 387.016,136.232 387.016,135.776 L381.568,135.776 L381.568,141.848 L389.032,141.848 L389.032,143.456 C388.576,145.736 387.76,147.68 386.44,149.528 C387.424,150.68 388.624,151.64 390.16,152.72 L389.104,154.184 C387.568,153.104 386.368,152.024 385.408,150.848 C384.568,151.832 383.56,152.792 382.36,153.776 L381.568,152.864 L381.568,154.496 L379.936,154.496 Z M374.152,152.288 L375.76,152.288 C376.792,152.288 376.96,152.072 376.96,151.04 L376.96,146.792 L373.936,146.792 C373.792,149.624 373.36,152 372.208,154.544 L370.672,153.752 C372.04,151.016 372.4,149.432 372.4,143.024 L372.4,134.12 L378.592,134.12 L378.592,151.712 C378.592,153.416 378.04,153.92 376.288,153.92 L374.488,153.92 L374.152,152.288 Z M383.632,143.696 C384.112,145.544 384.664,146.96 385.408,148.136 C386.416,146.696 387.04,145.16 387.424,143.456 L381.568,143.456 L381.568,152.12 C382.696,151.232 383.632,150.344 384.4,149.456 C383.464,147.944 382.792,146.264 382.216,144.2 L383.632,143.696 Z M374.008,143.744 C374.008,144.272 374.008,144.752 373.984,145.232 L376.96,145.232 L376.96,141.248 L374.008,141.248 L374.008,143.744 Z M374.008,135.776 L374.008,139.688 L376.96,139.688 L376.96,135.776 L374.008,135.776 Z M416.776,144.728 C412.888,143.936 409.984,143.024 407.584,141.776 C405.088,143.024 402.112,144.08 398.416,145.04 L397.816,143.336 C400.912,142.616 403.576,141.752 405.832,140.744 C404.56,139.904 403.432,138.92 402.328,137.768 C401.392,138.728 400.384,139.64 399.28,140.48 L398.272,139.232 C400.576,137.408 403,134.624 404.2,132.512 L405.808,133.232 C405.448,133.832 405.064,134.408 404.656,134.984 L414.736,134.984 L414.736,136.448 C413.128,138.152 411.4,139.592 409.288,140.84 C411.376,141.728 413.944,142.424 417.232,143.024 L416.776,144.728 Z M406.552,152.336 L409.792,152.336 C411.544,152.336 411.976,151.976 412.144,150.488 C412.24,149.816 412.408,148.232 412.504,147.416 L406.216,147.416 C405.448,150.728 403.576,152.48 399.16,154.592 L398.128,153.104 C402.04,151.352 403.672,149.936 404.344,147.416 L399.04,147.416 L399.04,145.856 L404.632,145.856 L404.632,145.832 C404.776,144.848 404.848,143.912 404.896,143.432 L406.768,143.456 C406.696,143.936 406.624,144.872 406.504,145.856 L414.448,145.856 C414.4,146.624 414.04,150.32 413.92,151.208 C413.728,153.176 412.912,153.896 410.416,153.896 L406.888,153.896 L406.552,152.336 Z M403.48,136.472 C403.48,136.496 403.48,136.496 403.456,136.496 C404.584,137.888 405.856,138.992 407.488,139.928 C409.36,138.92 410.872,137.768 412.072,136.472 L403.48,136.472 Z" id="提供全方位高品质数字资产服务" opacity="0.800000012"></path>
                    <path d="M19.26,41.38 L19.26,11.05 L70.74,11.05 L70.74,41.38 L19.26,41.38 Z M48.33,88.09 L48.33,48.58 L81.72,48.58 L81.72,88.09 L72.45,88.09 L72.45,82.78 L57.6,82.78 L57.6,88.09 L48.33,88.09 Z M8.37,88.09 L8.37,48.58 L41.4,48.58 L41.4,88.09 L32.13,88.09 L32.13,82.78 L17.64,82.78 L17.64,88.09 L8.37,88.09 Z M29.16,32.65 L60.93,32.65 L60.93,19.78 L29.16,19.78 L29.16,32.65 Z M57.6,57.13 L57.6,74.23 L72.45,74.23 L72.45,57.13 L57.6,57.13 Z M17.64,57.13 L17.64,74.23 L32.13,74.23 L32.13,57.13 L17.64,57.13 Z M110.52,88.09 C107.879987,85.6299877 104.940016,83.800006 101.7,82.6 C109.500039,73.4199541 113.250001,60.6400819 112.95,44.26 L112.95,11.86 C138.390127,11.86 158.639925,10.5100135 173.7,7.81 L180.09,15.82 C174.269971,16.7800048 166.920044,17.7099955 158.04,18.61 L157.23,27.88 L183.06,27.88 L183.06,35.8 L156.51,35.8 L155.88,43.09 L177.12,43.09 L177.12,70.9 L167.4,70.9 L167.4,50.74 L138.96,50.74 L138.96,70.9 L129.24,70.9 L129.24,43.09 L146.34,43.09 L146.97,35.8 L123.03,35.8 L123.03,44.98 C123.270001,62.7400888 119.100043,77.1099451 110.52,88.09 Z M180.9,88.45 C172.739959,84.0099778 163.230054,79.7800201 152.37,75.76 C147.509976,81.8800306 138.900062,86.1099883 126.54,88.45 C125.039992,85.6299859 122.880014,83.020012 120.06,80.62 C137.460087,78.219988 146.789994,72.2500477 148.05,62.71 C148.530002,60.5499892 148.77,57.9400153 148.77,54.88 L158.22,56.05 C158.22,59.050015 157.950003,61.8999865 157.41,64.6 C157.109999,65.8600063 156.780002,67.0599943 156.42,68.2 C165.660046,71.3200156 174.899954,75.0699781 184.14,79.45 L180.9,88.45 Z M123.03,20.68 L123.03,27.88 L147.69,27.88 L148.41,19.42 C141.509965,19.9600027 133.05005,20.3799985 123.03,20.68 Z" id="品质"></path>
                    <circle id="Oval-3" cx="228.5" cy="48" r="8"></circle>
                    <path d="M331.29,40.75 C329.36999,40.75 327.600008,40.6600009 325.98,40.48 C325.859999,37.1799835 325.110007,34.330012 323.73,31.93 C326.370013,32.3500021 328.379993,32.56 329.76,32.56 C332.580014,32.6200003 334.049999,31.0600159 334.17,27.88 L334.71,19.69 L323.73,19.69 C322.709995,29.9500513 318.270039,37.8999718 310.41,43.54 C308.42999,41.4399895 306.030014,39.7600063 303.21,38.5 L303.21,43.36 L293.31,43.36 L293.31,53.08 L302.31,53.08 L302.31,61.09 L293.31,61.09 L293.31,73.78 C297.990023,75.8800105 304.379959,77.0499988 312.48,77.29 C317.940027,77.5300012 324.119965,77.5900006 331.02,77.47 C337.860034,77.2899991 343.679976,76.9900021 348.48,76.57 C346.919992,79.8700165 346.020001,83.1399838 345.78,86.38 C339.77997,86.5000006 333.870029,86.5300003 328.05,86.47 C322.349971,86.47 317.640019,86.3800009 313.92,86.2 C296.579913,86.0799994 284.310036,81.3400468 277.11,71.98 C275.789993,77.5000276 273.840013,82.5999766 271.26,87.28 C268.679987,84.9999886 265.830016,83.5000036 262.71,82.78 C268.290028,73.5999541 271.229999,62.3200669 271.53,48.94 L279.81,50.38 C279.75,54.2800195 279.480002,58.0899814 279,61.81 C280.620008,63.9700108 282.299991,65.8599919 284.04,67.48 L284.04,43.36 L266.76,43.36 L266.76,35.26 L282.42,35.26 L282.42,25.9 L269.46,25.9 L269.46,17.8 L282.42,17.8 L282.42,6.55 L291.69,6.55 L291.69,17.8 L302.4,17.8 L302.4,25.9 L291.69,25.9 L291.69,35.26 L303.21,35.26 L303.21,37.78 C310.470036,32.979976 314.459996,26.9500363 315.18,19.69 L304.83,19.69 L304.83,11.23 L343.98,11.23 L343.08,28.96 C342.599998,36.8200393 338.670037,40.75 331.29,40.75 Z M306.45,71.26 L306.45,44.17 L342.45,44.17 L342.45,71.26 L306.45,71.26 Z M315.45,62.98 L333.45,62.98 L333.45,52.45 L315.45,52.45 L315.45,62.98 Z M369.46,25.99 L369.46,17.8 L382.6,17.8 L382.6,6.55 L391.87,6.55 L391.87,17.8 L402.67,17.8 L402.67,25.99 L391.87,25.99 L391.87,35.26 L403.12,35.26 L403.12,43.45 L393.31,43.45 L393.31,53.08 L401.68,53.08 L401.68,61.09 L393.31,61.09 L393.31,73.78 C398.050024,75.8800105 404.43996,77.0499988 412.48,77.29 C418.360029,77.5300012 424.749966,77.5900006 431.65,77.47 C438.370034,77.3499994 443.979978,77.0500024 448.48,76.57 C446.979992,79.7500159 446.080001,83.0199832 445.78,86.38 C443.319988,86.38 440.470016,86.4099997 437.23,86.47 C434.049984,86.47 430.960015,86.4400003 427.96,86.38 C422.01997,86.38 417.370017,86.3200006 414.01,86.2 C396.549913,85.9599988 384.280035,81.1900465 377.2,71.89 C375.639992,78.0100306 373.660012,83.1399793 371.26,87.28 C368.559987,85.1799895 365.740015,83.6800045 362.8,82.78 C368.380028,73.4199532 371.319998,62.1700657 371.62,49.03 L379.9,50.38 C379.84,54.4000201 379.540003,58.2999811 379,62.08 C380.680008,64.1200102 382.359992,65.9499919 384.04,67.57 L384.04,43.45 L366.76,43.45 L366.76,35.26 L382.6,35.26 L382.6,25.99 L369.46,25.99 Z M418.24,75.49 C416.079989,73.7499913 413.530015,72.4000048 410.59,71.44 C416.110028,67.2999793 420.579983,62.8000243 424,57.94 C421.89999,50.6799637 420.490004,40.9600609 419.77,28.78 L413.65,28.78 L413.65,53.71 L418.69,50.11 L421.3,56.77 L409.87,65.95 C408.849995,66.7300039 407.560008,67.8999922 406,69.46 L402.67,61 C404.410009,59.7399937 405.28,57.5200159 405.28,54.34 L405.28,20.68 L419.41,20.68 C419.229999,16.479979 419.14,11.9500243 419.14,7.09 L427.69,6.46 C427.509999,11.4400249 427.479999,16.1799775 427.6,20.68 L436.33,20.68 C433.929988,17.7399853 431.080016,14.7100156 427.78,11.59 L433.81,7.99 C436.930016,10.6300132 439.629989,13.4199853 441.91,16.36 L436.96,20.68 L444.43,20.68 L444.43,28.78 L427.87,28.78 C428.230002,36.1600369 428.859995,42.6099724 429.76,48.13 C431.920011,43.4499766 433.569994,38.11003 434.71,32.11 L441.91,35.8 C439.629989,45.2200471 436.48002,53.1399679 432.46,59.56 C433.660006,62.5000147 434.919993,63.97 436.24,63.97 C437.320005,64.0900006 438.249996,62.6800147 439.03,59.74 C439.390002,58.4799937 439.809998,56.6800117 440.29,54.34 C441.910008,56.6200114 443.889988,58.3899937 446.23,59.65 C446.049999,60.5500045 445.660003,62.0799892 445.06,64.24 C445,64.3600006 444.97,64.4499997 444.97,64.51 C443.289992,70.1500282 440.50002,72.9100006 436.6,72.79 C432.819981,72.7299997 429.760012,70.6600204 427.42,66.58 C424.959988,69.5200147 421.900018,72.489985 418.24,75.49 Z" id="超越"></path>
                </g>
            </g>
        </g>
    </g>
</svg>