<?xml version="1.0" encoding="UTF-8"?>
<svg width="690px" height="75px" viewBox="0 0 690 75" version="1.1" xmlns="http://www.w3.org/2000/svg" xmlns:xlink="http://www.w3.org/1999/xlink">
    <!-- Generator: Sketch 49 (51002) - http://www.bohemiancoding.com/sketch -->
    <title>text_cn_1@2x</title>
    <desc>Created with Sketch.</desc>
    <defs></defs>
    <g id="Page-1" stroke="none" stroke-width="1" fill="none" fill-rule="evenodd">
        <g id="首页-cn-" transform="translate(-374.000000, -205.000000)" fill="#FFFFFF">
            <g id="text_cn_1" transform="translate(374.000000, 151.000000)">
                <path d="M251.116,55.744 L250.924,66.592 L250.924,66.736 L266.524,66.736 L266.524,70.288 L250.78,70.288 C250.156,82.672 247.18,89.68 238.972,98.752 L235.9,96.304 C243.772,88.048 246.22,81.856 246.988,70.288 L238.396,70.288 L238.396,66.736 L247.18,66.736 C247.18,66.592 247.228,66.448 247.228,66.256 C247.324,63.904 247.372,58.48 247.42,55.744 L251.116,55.744 Z M232.204,98.656 L232.204,74.176 C230.812,76.576 229.324,78.88 227.692,80.944 L225.964,77.2 C229.804,72.208 233.692,63.76 235.948,55.792 L239.5,56.8 C238.396,60.4 237.196,63.808 235.756,67.12 L235.756,98.656 L232.204,98.656 Z M266.62,84.352 C266.572,86.176 266.476,89.824 266.38,92.128 C266.284,96.544 264.892,97.408 260.764,97.408 L257.5,97.408 C254.38,97.408 252.652,96.16 252.652,91.888 L252.652,72.016 L256.252,72.016 L256.252,90.928 C256.252,93.28 256.828,93.904 258.748,93.904 L260.62,93.904 C262.636,93.904 262.972,93.424 262.972,91.024 L263.164,83.584 L266.62,84.352 Z M261.292,65.92 C259.708,64.192 256.012,60.448 254.668,59.152 L256.924,56.8 C258.46,58.24 261.868,61.6 263.644,63.424 L261.292,65.92 Z M285.996,89.488 L285.996,75.136 L296.268,75.136 L296.268,70.288 L283.212,70.288 L283.212,67.12 L296.268,67.12 L296.268,62.704 L299.82,62.704 L299.82,67.12 L313.98,67.12 L313.98,70.288 L299.82,70.288 L299.82,75.136 L310.092,75.136 L310.092,89.392 L306.588,89.392 L306.588,78.352 L289.452,78.352 L289.452,89.488 L285.996,89.488 Z M312.252,60.256 C303.852,61.168 289.932,62.176 281.868,62.416 L281.868,73.312 C281.868,86.08 280.908,91.072 276.54,98.704 L273.132,96.928 C277.596,89.2 278.364,85.36 278.364,73.552 L278.364,59.2 C287.772,59.008 302.364,57.904 311.58,56.896 L312.252,60.256 Z M299.964,79.744 L299.724,83.344 C299.58,85.216 299.292,86.848 298.812,88.24 C303.18,90.304 310.524,93.76 313.98,95.488 L312.3,98.608 C308.796,96.736 301.596,93.136 297.276,91.168 C294.828,94.432 290.364,96.448 282.78,98.608 L281.436,95.344 C292.86,92.176 295.596,90.064 296.22,83.296 C296.316,82.336 296.364,80.608 296.412,79.744 L299.964,79.744 Z M361.004,67.168 L357.596,67.168 C356.828,75.568 355.388,81.52 352.316,86.656 C354.572,89.92 357.452,92.992 361.292,96.112 L359.036,99.04 C355.388,95.92 352.556,92.848 350.3,89.632 C347.9,92.8 344.732,95.728 340.652,98.896 L338.54,96.208 L338.396,96.496 C336.764,95.584 334.988,94.576 333.116,93.616 C330.428,95.488 326.78,97.216 321.596,98.944 L320.06,95.92 C324.332,94.528 327.5,93.28 329.9,91.936 C327.5,90.688 325.1,89.488 322.94,88.48 C323.756,87.088 324.524,85.648 325.244,84.208 L320.636,84.208 L320.636,81.328 L326.636,81.328 C327.212,80.032 327.692,78.784 328.076,77.68 L331.388,78.544 C331.052,79.504 330.716,80.416 330.332,81.328 L340.364,81.328 L340.364,84.064 C339.212,86.848 337.916,89.248 335.804,91.36 L340.076,93.568 L338.876,95.632 C342.908,92.704 345.98,89.776 348.284,86.464 C346.22,82.672 344.828,78.64 344.06,74.032 C343.724,74.704 343.34,75.376 342.956,76 L340.364,73.6 C343.34,68.656 346.028,61.408 347.132,55.792 L350.54,56.416 C350.06,58.768 349.388,61.216 348.572,63.616 L361.004,63.616 L361.004,67.168 Z M339.932,78.256 C337.964,76.48 335.084,74.032 333.548,72.736 L333.548,77.824 L330.332,77.824 L330.332,72.208 C327.932,74.848 324.908,77.344 321.308,79.408 L319.82,76.624 C323.708,74.512 327.068,71.92 329.564,69.088 L320.828,69.088 L320.828,66.16 L330.332,66.16 L330.332,56.08 L333.548,56.08 L333.548,66.16 L341.948,66.16 L341.948,69.088 L333.548,69.088 L333.548,72.448 L335.324,70.384 C336.86,71.68 339.836,74.176 341.852,76 L339.932,78.256 Z M346.412,69.088 C347.036,74.608 348.236,79.12 350.252,83.152 C352.46,78.832 353.66,73.792 354.284,67.168 L347.228,67.168 L346.412,69.088 Z M336.716,84.208 L329.036,84.208 C328.556,85.312 328.028,86.368 327.5,87.328 C329.084,88.048 330.86,88.912 332.828,89.872 C334.652,88.288 335.804,86.464 336.716,84.208 Z M341.948,58.768 C340.844,60.496 338.876,63.424 337.58,65.152 L335.228,63.52 C336.476,61.792 338.444,58.912 339.5,57.184 L341.948,58.768 Z M326.06,64.912 C325.052,63.136 323.18,60.256 322.076,58.672 L324.332,57.136 C325.388,58.672 327.308,61.6 328.508,63.424 L326.06,64.912 Z M407.836,85.216 L390.076,85.216 L390.076,92.032 C390.076,96.928 389.164,97.936 384.508,97.936 L378.316,97.936 L377.596,94.48 L383.212,94.48 C385.9,94.48 386.332,93.904 386.332,91.024 L386.332,85.216 L367.948,85.216 L367.948,81.76 L386.332,81.76 L386.332,79.168 L394.54,73.6 L375.052,73.6 L375.052,70.192 L400.876,70.192 L400.876,73.552 L390.076,80.56 L390.076,81.76 L407.836,81.76 L407.836,85.216 Z M369.724,71.536 L369.724,61.312 L387.004,61.312 L384.412,55.984 L388.204,54.976 L391.276,61.312 L406.156,61.312 L406.156,71.584 L402.412,71.584 L402.412,64.768 L373.42,64.768 L373.42,71.536 L369.724,71.536 Z M437.148,82.24 C437.052,83.008 437.004,84.544 436.908,85.312 C436.812,86.464 436.572,87.472 436.236,88.432 C441.324,90.4 450.012,93.904 454.236,95.632 L452.7,98.992 C448.524,97.12 439.5,93.184 434.556,91.12 C431.868,94.192 426.54,96.4 417.468,98.896 L415.74,95.44 C429.42,92.176 432.54,89.44 432.924,85.216 C433.02,84.496 433.116,83.008 433.212,82.24 L437.148,82.24 Z M420.732,90.304 L420.732,77.68 L449.388,77.68 L449.388,90.304 L445.788,90.304 L445.788,80.944 L424.284,80.944 L424.284,90.304 L420.732,90.304 Z M446.22,66.832 C447.084,65.728 448.812,63.472 449.34,62.608 L432.972,62.608 C431.676,64.624 430.236,66.544 428.604,68.32 L425.868,66.256 C429.036,62.896 431.148,59.248 432.78,55.216 L436.284,55.936 C435.804,57.184 435.276,58.336 434.7,59.488 L453.084,59.488 L453.084,62.56 C452.316,63.712 450.252,66.64 449.244,68.08 L446.22,66.832 Z M453.756,76.816 C445.98,74.944 441.564,72.832 438.972,69.664 C436.764,72.88 432.3,75.04 424.908,76.864 L423.468,73.888 C432.636,71.632 436.14,69.328 436.812,65.872 L437.292,63.952 L440.892,63.952 L440.556,65.824 L440.412,66.448 C442.668,69.856 446.94,71.968 455.292,73.6 L453.756,76.816 Z M414.732,73.696 C416.268,72.544 422.604,67.264 424.092,65.824 L425.148,67.216 L426.06,68.416 C424.524,69.808 418.188,75.28 416.556,76.672 L414.732,73.696 Z M423.996,64.528 C421.932,62.944 418.236,60.112 416.316,58.72 L418.092,56.08 C420.06,57.424 424.044,60.256 425.868,61.648 L423.996,64.528 Z M501.116,77.632 L469.724,77.632 L469.724,81.28 C469.724,89.344 468.524,93.856 464.444,99.52 L461.084,97.456 C465.308,92.08 466.172,88.432 466.172,80.56 L466.172,74.128 L485.66,74.128 C487.34,71.392 489.452,67.552 490.796,64.72 L474.332,64.72 C475.58,66.736 477.5,70.144 478.556,72.064 L475.196,74.032 C474.188,72.064 472.124,68.272 470.972,66.352 L473.9,64.72 L462.812,64.72 L462.812,61.216 L481.196,61.216 C480.524,59.584 479.66,57.904 478.988,56.368 L482.444,54.88 C483.26,56.608 484.172,58.432 485.036,60.304 L482.54,61.216 L502.172,61.216 L502.172,64.72 L491.036,64.72 L494.156,66.208 C493.004,68.56 491.372,71.536 489.884,74.128 L501.116,74.128 L501.116,77.632 Z M548.14,98.992 C539.452,96.448 533.548,93.952 528.988,90.352 C524.524,93.904 518.62,96.64 510.076,99.424 L508.396,95.776 C516.412,93.376 522.028,90.976 526.204,87.808 C523.516,85.12 521.308,81.856 519.1,77.68 L522.268,75.856 C524.332,79.792 526.444,82.864 528.988,85.36 C531.58,82.768 533.548,79.696 535.372,75.808 L538.78,77.44 C536.764,81.616 534.556,84.928 531.82,87.76 C536.092,90.976 541.612,93.136 549.628,95.152 L548.14,98.992 Z M548.38,65.632 L509.644,65.632 L509.644,62.032 L528.268,62.032 C527.452,60.304 526.348,58.192 525.34,56.464 L529.132,55.168 C530.188,57.136 531.196,59.104 532.204,61.12 L529.564,62.032 L548.38,62.032 L548.38,65.632 Z M525.1,69.472 C521.548,73.648 516.844,77.968 512.236,81.376 L510.076,78.208 C514.636,75.04 519.052,71.008 522.364,67.072 L525.1,69.472 Z M545.644,80.752 C542.428,77.92 535.708,72.304 532.396,69.664 L534.604,66.976 C537.916,69.52 544.54,74.848 547.9,77.632 L545.644,80.752 Z M578.364,93.856 L583.452,93.856 C587.244,93.856 588.108,93.184 588.492,90.064 C588.876,87.52 589.5,82.336 589.548,81.184 L584.124,81.184 C581.82,89.008 577.644,94.288 568.956,99.328 L566.652,96.64 C574.716,92.032 578.268,88 580.476,81.184 L574.668,81.184 C571.404,87.568 566.604,91.888 557.388,96.256 L555.516,93.376 C563.82,89.776 568.284,85.984 570.876,81.184 L564.444,81.184 C562.62,83.152 560.508,84.976 558.012,86.848 L555.852,84.256 C560.172,81.328 563.484,77.824 565.788,73.888 L562.188,73.888 L562.188,57.712 L590.556,57.712 L590.556,73.888 L566.46,73.888 L569.148,75.088 C568.476,76.144 567.756,77.152 567.036,78.112 L593.196,78.112 C593.148,79.312 592.188,90.16 591.996,91.408 C591.468,95.92 589.788,97.168 584.844,97.168 L579.036,97.168 L578.364,93.856 Z M565.692,60.688 L565.692,64.384 L587.052,64.384 L587.052,60.688 L565.692,60.688 Z M565.692,70.912 L587.052,70.912 L587.052,67.264 L565.692,67.264 L565.692,70.912 Z M621.212,98.608 L621.212,83.44 L602.972,83.44 L602.972,79.84 L621.212,79.84 L621.212,61.696 L604.796,61.696 L604.796,58.144 L641.324,58.144 L641.324,61.696 L624.956,61.696 L624.956,79.84 L643.1,79.84 L643.1,83.44 L624.956,83.44 L624.956,98.608 L621.212,98.608 Z M639.404,66.352 C637.82,68.848 633.932,74.608 631.772,77.488 L628.892,75.424 C631.148,72.592 634.892,66.928 636.476,64.336 L639.404,66.352 Z M614.204,77.44 C612.188,74.32 608.54,68.944 606.716,66.4 L609.5,64.384 C611.42,67.072 615.164,72.448 617.18,75.424 L614.204,77.44 Z M655.084,98.848 L655.084,79.168 L684.988,79.168 L684.988,98.848 L681.292,98.848 L681.292,96.208 L658.78,96.208 L658.78,98.848 L655.084,98.848 Z M686.476,76.048 C685.66,75.088 684.7,73.936 683.596,72.688 C678.748,72.832 658.924,73.456 651.964,74.08 L651.004,70.48 C653.116,70.096 653.884,69.808 654.556,69.28 C658.3,66.16 664.252,59.344 667.084,54.976 L670.348,56.896 C667.276,61.216 662.476,66.976 659.116,70 L680.524,69.28 L674.236,62.416 L676.828,60.016 C679.708,63.088 685.804,69.712 689.164,73.6 L686.476,76.048 Z M658.78,82.672 L658.78,92.704 L681.292,92.704 L681.292,82.672 L658.78,82.672 Z" id="优质数字资产交易平台"></path>
                <path d="M233.944,119.264 C233.544,119.744 233.128,120.192 232.664,120.624 L238.44,120.624 L238.44,121.408 C235.976,124.272 233.24,126.048 226.392,127.6 L225.928,126.8 C232.488,125.328 235.176,123.76 237.224,121.408 L231.784,121.408 C231.4,121.728 231.016,122.032 230.584,122.32 L232.84,123.696 L232.232,124.32 C231.56,123.872 230.584,123.248 229.848,122.8 C228.984,123.344 228.008,123.872 226.92,124.384 L226.456,123.68 C229.384,122.32 231.784,120.608 233.224,118.88 L233.944,119.264 Z M233.08,113.44 C232.712,113.888 232.296,114.336 231.8,114.768 L238.04,114.768 L238.04,115.568 C235.432,118.016 231.784,119.76 226.408,120.976 L226.024,120.224 C230.76,119.2 234.264,117.728 236.712,115.568 L230.856,115.568 C230.536,115.824 230.216,116.048 229.864,116.288 C230.504,116.656 231.336,117.136 231.944,117.472 L231.336,118.08 C230.808,117.728 229.848,117.168 229.128,116.784 C228.456,117.2 227.752,117.6 227.016,117.968 L226.52,117.264 C228.872,116.096 231.016,114.512 232.28,113.056 L233.08,113.44 Z M245.468,113.152 C245.244,113.68 245.004,114.208 244.732,114.704 L254.012,114.704 L254.012,115.552 L248.924,115.552 L248.924,118.56 L253.628,118.56 L253.628,119.392 L248.924,119.392 L248.924,122.816 L254.572,122.816 L254.572,123.68 L248.924,123.68 L248.924,127.392 L248.044,127.392 L248.044,123.68 L241.052,123.68 L241.052,122.816 L243.404,122.816 L243.404,118.56 L248.044,118.56 L248.044,115.552 L244.252,115.552 C243.532,116.752 242.668,117.904 241.66,119.008 L241.084,118.24 C242.604,116.672 243.772,114.816 244.572,112.896 L245.468,113.152 Z M244.3,119.392 L244.3,122.816 L248.044,122.816 L248.044,119.392 L244.3,119.392 Z M270.064,126.832 L257.008,126.832 L257.008,126 L263.072,126 L263.072,121.936 L257.824,121.936 L257.824,121.104 L263.072,121.104 L263.072,118.88 L259.552,118.88 L259.552,118.064 L267.504,118.064 L267.504,118.88 L263.968,118.88 L263.968,121.104 L269.248,121.104 L269.248,121.936 L263.968,121.936 L263.968,126 L270.064,126 L270.064,126.832 Z M270,119.056 C267.408,117.952 265.072,116.272 263.552,114.368 C262.112,116.208 259.968,117.856 257.104,119.184 L256.704,118.368 C259.664,117.056 261.696,115.472 263.088,113.552 L264.048,113.552 C265.456,115.472 267.6,117.072 270.384,118.224 L270,119.056 Z M268.288,122.8 C267.712,123.584 266.8,124.768 266.144,125.52 L265.52,124.928 C266.144,124.192 267.04,123.072 267.584,122.304 L268.288,122.8 Z M260.848,125.488 C260.32,124.768 259.296,123.472 258.8,122.896 L259.408,122.352 C259.904,122.912 260.96,124.224 261.504,124.944 L260.848,125.488 Z M284.948,127.456 C284.868,127.088 284.74,126.592 284.596,126.048 C283.508,126.144 280.18,126.432 279.412,126.512 L279.332,125.696 C279.78,125.664 280.884,125.584 282.004,125.488 L282.004,121.792 L279.892,121.792 L279.892,115.984 L282.004,115.984 L282.004,113.248 L282.756,113.248 L282.756,115.984 L284.868,115.984 L284.868,121.792 L282.756,121.792 L282.756,125.424 C283.38,125.36 283.972,125.312 284.372,125.28 C284.148,124.432 283.892,123.6 283.748,123.104 L284.5,122.896 C284.756,123.84 285.428,126.24 285.684,127.232 L284.948,127.456 Z M272.676,127.344 L272.676,120.288 L278.884,120.288 L278.884,125.888 C278.884,126.896 278.564,127.2 277.54,127.2 L276.708,127.2 L276.58,126.496 L277.252,126.496 C277.86,126.496 278.148,126.304 278.148,125.6 L278.148,120.992 L273.396,120.992 L273.396,127.344 L272.676,127.344 Z M273.236,116.256 L278.276,116.256 L278.276,119.04 L273.236,119.04 L273.236,116.256 Z M277.46,121.648 C277.252,122.144 276.836,122.96 276.5,123.6 L277.684,123.6 L277.684,124.272 L276.132,124.272 L276.132,127.088 L275.428,127.088 L275.428,124.272 L273.892,124.272 L273.892,123.6 L275.828,123.6 C276.196,122.912 276.644,121.968 276.852,121.408 L277.46,121.648 Z M284.132,116.752 L282.756,116.752 L282.756,121.024 L284.132,121.024 L284.132,116.752 Z M280.628,116.752 L280.628,121.024 L282.004,121.024 L282.004,116.752 L280.628,116.752 Z M273.988,116.944 L273.988,118.352 L277.524,118.352 L277.524,116.944 L273.988,116.944 Z M279.22,114.944 L272.244,114.944 L272.244,114.24 L279.22,114.24 L279.22,114.944 Z M274.964,123.232 C274.804,122.864 274.324,121.984 274.132,121.648 L274.644,121.36 C274.852,121.728 275.316,122.576 275.508,122.96 L274.964,123.232 Z M300.968,127.504 C298.024,126.656 296.04,125.824 294.52,124.576 C293.032,125.792 291.048,126.704 288.136,127.648 L287.736,126.752 C290.52,125.92 292.408,125.072 293.832,123.952 C292.888,123.04 292.12,121.92 291.352,120.48 L292.152,120.032 C292.872,121.408 293.624,122.48 294.52,123.344 C295.448,122.448 296.152,121.376 296.792,120.016 L297.64,120.4 C296.936,121.84 296.184,122.976 295.224,123.936 C296.68,125.072 298.568,125.824 301.336,126.544 L300.968,127.504 Z M300.984,116.4 L288.072,116.4 L288.072,115.504 L300.984,115.504 L300.984,116.4 Z M293.112,117.728 C291.928,119.104 290.376,120.528 288.84,121.664 L288.312,120.864 C289.832,119.808 291.32,118.448 292.424,117.12 L293.112,117.728 Z M300.168,121.456 C299.096,120.512 296.856,118.656 295.752,117.776 L296.296,117.104 C297.4,117.952 299.608,119.744 300.728,120.672 L300.168,121.456 Z M294.504,115.408 C294.2,114.8 293.832,114.048 293.464,113.424 L294.408,113.12 C294.76,113.76 295.096,114.432 295.432,115.104 L294.504,115.408 Z M305.564,114.032 L314.732,114.032 L314.732,119.168 L305.564,119.168 L305.564,114.032 Z M307.596,119.632 C307.324,120.064 307.052,120.464 306.764,120.832 L315.596,120.832 C315.58,121.232 315.276,124.608 315.212,125.072 C315.036,126.528 314.508,126.912 312.908,126.912 L311.004,126.912 L310.844,126.096 L312.572,126.096 C313.884,126.096 314.204,125.84 314.348,124.752 C314.46,123.952 314.684,121.984 314.7,121.6 L312.604,121.6 C311.868,124.224 310.492,125.984 307.58,127.664 L307.004,126.992 C309.788,125.408 310.972,124 311.708,121.6 L309.484,121.6 C308.428,123.728 306.828,125.168 303.74,126.624 L303.276,125.92 C306.156,124.656 307.66,123.312 308.54,121.6 L306.092,121.6 C305.484,122.272 304.78,122.896 303.932,123.504 L303.404,122.864 C304.892,121.84 306.012,120.656 306.796,119.28 L307.596,119.632 Z M306.444,114.768 L306.444,116.256 L313.852,116.256 L313.852,114.768 L306.444,114.768 Z M306.444,118.432 L313.852,118.432 L313.852,116.96 L306.444,116.96 L306.444,118.432 Z M325.968,127.152 L325.968,114.944 L331.376,114.944 L331.376,127.056 L330.496,127.056 L330.496,125.696 L326.864,125.696 L326.864,127.152 L325.968,127.152 Z M326.864,115.872 L326.864,124.768 L330.496,124.768 L330.496,115.872 L326.864,115.872 Z M324.752,123.216 C324.24,122.656 323.136,121.408 322.56,120.784 L322.56,127.6 L321.68,127.6 L321.68,120.352 C320.992,121.872 320.048,123.504 319.12,124.624 L318.672,123.744 C319.824,122.352 320.96,120.384 321.664,118.624 L318.896,118.624 L318.896,117.744 L321.68,117.744 L321.68,115.248 C320.784,115.408 319.904,115.552 319.2,115.648 L319.104,114.816 C320.72,114.592 323.168,114.144 324.784,113.696 L324.944,114.528 C324.272,114.72 323.424,114.912 322.56,115.088 L322.56,117.744 L325.28,117.744 L325.28,118.624 L322.56,118.624 L322.56,120.56 L323.04,120.096 C323.552,120.624 324.8,121.952 325.36,122.592 L324.752,123.216 Z M347.7,126.72 L335.652,126.72 L335.652,114.288 L347.428,114.288 L347.428,115.184 L336.612,115.184 L336.612,125.824 L347.7,125.824 L347.7,126.72 Z M345.828,116.512 C344.932,117.776 343.876,119.088 342.724,120.352 C344.1,121.76 345.444,123.184 346.42,124.24 L345.716,124.944 C344.74,123.872 343.412,122.448 342.084,121.056 C340.724,122.464 339.284,123.808 337.844,124.896 L337.236,124.112 C338.66,123.056 340.084,121.76 341.412,120.368 C340.068,118.96 338.756,117.632 337.908,116.784 L338.532,116.128 C339.412,116.976 340.724,118.288 342.068,119.664 C343.172,118.448 344.196,117.184 345.044,115.952 L345.828,116.512 Z M358.312,113.232 C358.312,113.488 358.312,114.64 358.296,115.904 L361.8,115.904 L361.8,120.624 L363.336,120.624 L363.336,121.488 L358.456,121.488 C359.112,123.872 360.584,125.424 363.24,126.624 L362.76,127.488 C360.328,126.352 358.76,124.784 357.944,122.576 C357.352,124.528 355.928,126.016 353.336,127.6 L352.84,126.784 C355.656,125.184 356.952,123.68 357.304,121.488 L353.912,121.488 L353.912,120.624 L357.384,120.624 C357.384,120.464 357.4,120.304 357.4,120.128 L357.4,116.768 L354.568,116.768 L354.568,115.904 L357.416,115.904 L357.416,113.232 L358.312,113.232 Z M349.64,124.816 C350.056,124.704 350.92,124.432 351.816,124.144 L351.816,118.544 L349.928,118.544 L349.928,117.68 L351.816,117.68 L351.816,113.36 L352.68,113.36 L352.68,117.68 L354.568,117.68 L354.568,118.544 L352.68,118.544 L352.68,123.856 C353.528,123.568 354.312,123.312 354.68,123.168 L354.744,123.584 L354.808,124.064 C353.992,124.32 350.808,125.408 349.832,125.744 L349.64,124.816 Z M360.92,116.768 L358.296,116.768 C358.296,118.304 358.28,119.808 358.28,120.08 C358.28,120.272 358.264,120.448 358.264,120.624 L360.92,120.624 L360.92,116.768 Z M375.292,125.472 L375.292,123.264 L372.188,123.264 L372.188,122.464 L375.292,122.464 L375.292,120.144 L372.876,120.144 L372.876,119.36 C373.18,118.48 373.564,117.296 373.916,116.112 L372.38,116.112 L372.38,115.296 L374.14,115.296 C374.364,114.544 374.556,113.808 374.7,113.2 L375.484,113.312 C375.356,113.904 375.18,114.576 374.972,115.296 L378.62,115.296 L378.62,116.112 L374.748,116.112 C374.412,117.264 374.028,118.432 373.708,119.344 L375.292,119.344 L375.292,116.944 L376.06,116.944 L376.06,119.344 L378.316,119.344 L378.316,120.144 L376.06,120.144 L376.06,122.464 L378.748,122.464 L378.748,123.264 L376.06,123.264 L376.06,125.472 L375.292,125.472 Z M378.748,126.896 L374.588,126.896 C372.988,126.896 372.06,126.448 371.148,125.024 L369.468,127.184 L369.004,126.448 L370.716,124.192 L370.716,119.76 L369.548,119.76 L369.548,118.88 L371.516,118.88 L371.516,124.192 C372.284,125.648 373.18,126.08 374.684,126.08 L378.892,126.08 L378.748,126.896 Z M369.612,125.008 C369.356,125.2 367.948,126.288 367.02,127.088 L366.62,126.464 C367.004,126.224 367.004,125.984 367.004,125.648 L367.004,122.064 L365.372,122.064 L365.372,121.248 L367.004,121.248 L367.004,118.944 L365.916,118.944 L365.916,118.144 L369.228,118.144 L369.228,118.944 L367.788,118.944 L367.788,121.248 L369.676,121.248 L369.676,122.064 L367.788,122.064 L367.788,125.52 L369.356,124.256 L369.612,125.008 Z M369.724,116.096 L366.876,116.096 C366.492,116.928 366.044,117.728 365.596,118.4 L365.052,117.792 C365.884,116.464 366.732,114.656 367.196,113.104 L367.996,113.264 C367.788,113.92 367.532,114.624 367.244,115.296 L369.724,115.296 L369.724,116.096 Z M371.196,117.04 L369.916,113.904 L370.62,113.616 L371.916,116.72 L371.196,117.04 Z M389.6,116.816 C389.6,117.376 389.536,119.312 389.52,119.888 C389.488,120.896 389.392,121.76 389.2,122.512 L394.176,122.512 L394.176,123.328 L388.928,123.328 C388.8,123.616 388.672,123.872 388.512,124.128 C390.08,124.816 392.704,125.968 393.968,126.56 L393.536,127.376 C392.08,126.672 389.456,125.424 388,124.784 C386.816,126.016 384.832,126.784 381.552,127.488 L381.248,126.608 C385.248,125.808 387.088,124.912 387.936,123.328 L380.976,123.328 L380.976,122.512 L388.256,122.512 C388.496,121.76 388.576,120.864 388.608,119.792 L388.688,116.816 L389.6,116.816 Z M381.664,118.176 L381.664,115.2 L393.52,115.2 L393.52,118.208 L392.624,118.208 L392.624,116 L382.56,116 L382.56,118.176 L381.664,118.176 Z M386.16,122.048 C385.248,121.488 383.472,120.4 382.576,119.904 L382.96,119.2 C383.872,119.728 385.68,120.784 386.56,121.344 L386.16,122.048 Z M387.232,119.664 C386.368,119.088 384.688,118.048 383.872,117.568 L384.256,116.864 C385.072,117.344 386.72,118.336 387.616,118.896 L387.232,119.664 Z M387.6,115.136 C387.408,114.736 386.88,113.744 386.624,113.36 L387.504,112.976 C387.68,113.296 388.304,114.416 388.496,114.8 L387.6,115.136 Z M397.268,114.304 L401.412,114.304 L401.412,118.944 L400.26,118.944 L400.26,121.488 L402.132,121.488 L402.132,122.288 L400.26,122.288 L400.26,125.248 L401.7,124.992 L401.7,125.2 L401.732,125.808 C400.916,125.936 397.108,126.576 396.372,126.704 L396.276,125.904 C396.452,125.888 396.772,125.84 397.156,125.776 L397.156,120.064 L397.94,120.064 L397.94,125.632 C398.42,125.552 398.948,125.472 399.46,125.376 L399.46,118.944 L397.268,118.944 L397.268,114.304 Z M409.828,119.776 L405.092,120.448 C405.268,121.6 405.492,122.576 405.732,123.392 C406.772,122.624 407.668,121.76 408.468,120.752 L409.012,121.248 C408.1,122.384 407.124,123.344 406.004,124.192 C406.164,124.592 406.324,124.944 406.5,125.232 C406.996,126.048 407.396,126.272 407.764,126.272 C408.132,126.272 408.436,125.968 408.66,124.992 C408.788,124.496 408.948,123.664 409.012,123.168 L409.764,123.52 C409.652,124.064 409.46,124.944 409.316,125.456 C408.964,126.848 408.436,127.232 407.78,127.232 C407.108,127.232 406.452,126.832 405.748,125.616 C405.588,125.344 405.444,125.04 405.3,124.704 C404.388,125.312 403.364,125.872 402.196,126.368 L401.812,125.568 C403.028,125.072 404.084,124.528 405.028,123.904 C404.74,122.992 404.5,121.888 404.292,120.56 L401.956,120.88 L401.876,120.112 L404.196,119.792 C404.1,119.12 404.02,118.4 403.956,117.616 L402.02,117.856 L401.94,117.072 L403.892,116.832 C403.876,116.768 403.876,116.688 403.876,116.608 C403.812,115.616 403.732,114 403.7,113.184 L404.5,113.184 C404.532,113.872 404.612,115.232 404.708,116.704 L404.708,116.736 L409.46,116.16 L409.54,116.928 L404.772,117.52 C404.836,118.288 404.9,119.008 404.996,119.68 L409.748,118.992 L409.828,119.776 Z M398.068,115.104 L398.068,118.144 L400.612,118.144 L400.612,115.104 L398.068,115.104 Z M407.604,115.904 C407.108,115.328 406.244,114.416 405.668,113.872 L406.148,113.392 C406.724,113.936 407.572,114.752 408.132,115.376 L407.604,115.904 Z M424.968,120.72 C423.896,120.032 422.168,118.944 421.048,118.272 C419.848,119.264 418.488,120.112 417.08,120.736 L416.616,119.936 C418.824,118.928 421.304,117.232 422.584,115.296 L417.4,115.296 L417.4,114.432 L423.8,114.432 L423.8,115.232 C423.24,116.096 422.52,116.928 421.704,117.696 C422.824,118.336 424.52,119.344 425.464,119.936 L424.968,120.72 Z M416.776,122.4 C416.392,122.448 413.912,122.8 412.36,123.088 L412.168,122.24 C412.616,122.096 412.76,122.016 412.984,121.744 C413.528,121.04 414.232,119.936 414.92,118.784 C414.136,118.832 412.984,118.928 412.008,119.024 L411.816,118.224 C412.136,118.096 412.296,117.936 412.376,117.84 C413.128,116.752 414.136,114.88 414.728,113.376 L415.528,113.68 C414.968,115.072 414.008,116.88 413.256,118.08 L415.4,117.984 C415.784,117.312 416.152,116.64 416.456,116.064 L417.192,116.448 C416.296,118.208 414.68,120.752 413.832,121.952 L416.776,121.52 L416.776,122.4 Z M424.488,122.432 L421.4,122.432 L421.4,125.84 L425.304,125.84 L425.304,126.688 L416.52,126.688 L416.52,125.84 L420.536,125.84 L420.536,122.432 L417.48,122.432 L417.48,121.584 L424.488,121.584 L424.488,122.432 Z M411.672,125.552 C412.184,125.488 415.752,124.848 416.312,124.736 L416.312,125.04 L416.344,125.632 L411.768,126.432 L411.672,125.552 Z M428.348,126.288 L429.708,126.288 C430.78,126.288 431.036,126.064 431.068,125.04 L431.212,120.944 L428.092,120.944 L428.412,115.776 L429.18,115.776 L428.892,120.192 L430.572,120.192 L430.924,114.976 L427.516,114.976 L427.516,114.192 L431.724,114.192 L431.356,120.192 L432.012,120.192 C431.964,121.392 431.9,123.728 431.82,125.312 C431.772,126.672 431.356,127.008 429.916,127.008 L428.492,127.008 L428.348,126.288 Z M439.724,120.368 C439.276,121.872 438.508,124.288 437.996,125.856 L440.604,125.856 L440.604,126.704 L432.22,126.704 L432.22,125.856 L437.196,125.856 C437.772,124.192 438.508,121.792 438.972,120.144 L439.724,120.368 Z M440.572,119.36 C438.732,117.888 437.404,116.208 436.428,114.336 C435.436,116.208 434.108,117.872 432.268,119.36 L431.756,118.672 C433.66,117.168 435.052,115.408 435.98,113.44 L436.876,113.44 C437.788,115.488 439.212,117.2 441.068,118.672 L440.572,119.36 Z M439.212,119.248 L433.628,119.248 L433.628,118.416 L439.212,118.416 L439.212,119.248 Z M434.172,124.816 C433.9,123.632 433.324,121.44 433.004,120.352 L433.708,120.144 C434.028,121.248 434.604,123.44 434.892,124.608 L434.172,124.816 Z M436.46,124.272 C436.236,123.184 435.724,121.2 435.436,120.176 L436.156,119.984 C436.428,120.96 436.956,122.992 437.196,124.08 L436.46,124.272 Z M427.164,123.36 C427.628,123.296 430.332,122.816 430.716,122.736 L430.748,123.504 C430.428,123.536 427.644,124.08 427.228,124.16 L427.164,123.36 Z M445.056,128.128 C445.424,127.888 445.744,127.344 445.76,126.544 L445.104,126.544 L445.104,124.384 L446.416,124.384 L446.416,126.512 C446.416,127.696 445.76,128.384 445.056,128.72 L445.056,128.128 Z M463.812,114.096 L470.372,114.096 L470.372,119.184 L463.812,119.184 L463.812,114.096 Z M464.692,122.176 C464.628,122.72 464.548,123.2 464.436,123.648 C465.06,125.184 465.732,125.872 466.836,126.096 L466.836,121.456 L462.516,121.456 L462.516,120.688 L471.684,120.688 L471.684,121.456 L467.7,121.456 L467.7,123.36 L471.044,123.36 L471.044,124.128 L467.7,124.128 L467.7,126.192 C467.796,126.192 467.908,126.208 468.02,126.208 L471.876,126.208 L471.716,127.04 L468.02,127.04 C466.1,127.04 465.012,126.48 464.148,124.64 C463.748,125.728 463.156,126.592 462.212,127.616 L461.524,127.072 C463.076,125.456 463.588,124.336 463.86,122.112 L464.692,122.176 Z M461.124,113.36 L461.124,116.368 L462.884,116.368 L462.884,117.216 L461.124,117.216 L461.124,119.984 L462.676,119.36 L462.708,119.92 L462.724,120.256 L461.124,120.896 L461.124,125.808 C461.124,126.896 460.772,127.2 459.556,127.2 L458.628,127.2 L458.452,126.352 L459.284,126.352 C460.068,126.352 460.26,126.176 460.26,125.52 L460.26,121.248 L458.212,122.048 L458.116,121.152 C458.66,120.96 459.444,120.656 460.26,120.336 L460.26,117.216 L458.34,117.216 L458.34,116.368 L460.26,116.368 L460.26,113.36 L461.124,113.36 Z M464.692,118.48 L469.476,118.48 L469.476,116.976 L464.692,116.976 L464.692,118.48 Z M464.692,114.8 L464.692,116.272 L469.476,116.272 L469.476,114.8 L464.692,114.8 Z M487.272,122.416 L477.368,122.416 L477.368,121.552 L479.816,121.552 L479.816,117.264 L477.944,117.264 L477.944,116.416 L479.816,116.416 L479.816,113.248 L480.712,113.248 L480.712,116.416 L484.008,116.416 L484.008,113.248 L484.904,113.248 L484.904,116.416 L486.936,116.416 L486.936,117.264 L484.904,117.264 L484.904,121.552 L487.272,121.552 L487.272,122.416 Z M475.656,127.488 L475.656,118.624 C475.16,119.52 474.616,120.368 473.992,121.232 L473.576,120.304 C474.904,118.464 476.04,115.968 476.856,113.136 L477.736,113.408 C477.368,114.64 476.984,115.728 476.552,116.752 L476.552,127.488 L475.656,127.488 Z M480.712,117.264 L480.712,121.552 L484.008,121.552 L484.008,117.264 L480.712,117.264 Z M481.512,123.824 C480.568,124.976 479.128,126.48 478.072,127.408 L477.464,126.736 C478.552,125.856 479.944,124.368 480.824,123.264 L481.512,123.824 Z M486.408,127.36 C485.544,126.384 484.04,124.752 483.208,123.904 L483.816,123.296 C484.68,124.144 486.152,125.712 487.048,126.72 L486.408,127.36 Z M497.388,113.248 L497.324,116.848 C497.324,116.928 497.308,116.992 497.308,117.056 L502.684,117.056 L502.684,117.952 L497.292,117.952 C497.084,122.128 496.124,124.448 493.372,127.472 L492.604,126.864 C495.276,124.064 496.092,121.936 496.348,117.952 L493.308,117.952 L493.308,117.056 L496.396,117.056 C496.396,116.96 496.412,116.864 496.412,116.768 C496.444,115.984 496.46,114.176 496.476,113.248 L497.388,113.248 Z M491.388,127.552 L491.388,118.816 C490.86,119.776 490.284,120.688 489.66,121.488 L489.244,120.56 C490.572,118.832 491.868,116.016 492.636,113.312 L493.532,113.552 C493.18,114.736 492.764,115.888 492.284,116.976 L492.284,127.552 L491.388,127.552 Z M502.572,122.752 C502.556,123.376 502.524,124.576 502.492,125.328 C502.46,126.72 502.044,126.992 500.748,126.992 L499.74,126.992 C498.732,126.992 498.204,126.592 498.204,125.248 L498.204,118.672 L499.1,118.672 L499.1,125.024 C499.1,125.888 499.34,126.112 500.028,126.112 L500.732,126.112 C501.484,126.112 501.644,125.936 501.644,125.056 L501.708,122.56 L502.572,122.752 Z M501.036,116.528 C500.508,115.952 499.276,114.72 498.828,114.288 L499.388,113.696 C499.884,114.176 501.036,115.312 501.628,115.92 L501.036,116.528 Z M509.152,124.496 L509.152,119.856 L512.576,119.856 L512.576,117.968 L508.08,117.968 L508.08,117.168 L512.576,117.168 L512.576,115.568 L513.472,115.568 L513.472,117.168 L518.336,117.168 L518.336,117.968 L513.472,117.968 L513.472,119.856 L516.896,119.856 L516.896,124.464 L516.016,124.464 L516.016,120.656 L510.016,120.656 L510.016,124.496 L509.152,124.496 Z M517.728,114.608 C514.896,114.912 510.224,115.264 507.488,115.344 L507.488,119.12 C507.488,123.328 507.168,124.944 505.712,127.488 L504.864,127.056 C506.352,124.48 506.608,123.152 506.608,119.168 L506.608,114.544 C509.696,114.464 514.528,114.112 517.568,113.776 L517.728,114.608 Z M513.52,121.248 L513.44,122.448 C513.392,123.12 513.28,123.664 513.088,124.16 C514.528,124.832 517.072,126.032 518.256,126.624 L517.856,127.408 C516.656,126.768 514.144,125.536 512.72,124.88 C511.936,126 510.448,126.656 507.872,127.392 L507.552,126.592 C511.392,125.52 512.352,124.784 512.56,122.448 C512.592,122.096 512.608,121.52 512.624,121.248 L513.52,121.248 Z M533.588,127.504 C530.644,126.656 528.66,125.824 527.14,124.576 C525.652,125.792 523.668,126.704 520.756,127.648 L520.356,126.752 C523.14,125.92 525.028,125.072 526.452,123.952 C525.508,123.04 524.74,121.92 523.972,120.48 L524.772,120.032 C525.492,121.408 526.244,122.48 527.14,123.344 C528.068,122.448 528.772,121.376 529.412,120.016 L530.26,120.4 C529.556,121.84 528.804,122.976 527.844,123.936 C529.3,125.072 531.188,125.824 533.956,126.544 L533.588,127.504 Z M533.604,116.4 L520.692,116.4 L520.692,115.504 L533.604,115.504 L533.604,116.4 Z M525.732,117.728 C524.548,119.104 522.996,120.528 521.46,121.664 L520.932,120.864 C522.452,119.808 523.94,118.448 525.044,117.12 L525.732,117.728 Z M532.788,121.456 C531.716,120.512 529.476,118.656 528.372,117.776 L528.916,117.104 C530.02,117.952 532.228,119.744 533.348,120.672 L532.788,121.456 Z M527.124,115.408 C526.82,114.8 526.452,114.048 526.084,113.424 L527.028,113.12 C527.38,113.76 527.716,114.432 528.052,115.104 L527.124,115.408 Z M538.184,114.032 L547.352,114.032 L547.352,119.168 L538.184,119.168 L538.184,114.032 Z M540.216,119.632 C539.944,120.064 539.672,120.464 539.384,120.832 L548.216,120.832 C548.2,121.232 547.896,124.608 547.832,125.072 C547.656,126.528 547.128,126.912 545.528,126.912 L543.624,126.912 L543.464,126.096 L545.192,126.096 C546.504,126.096 546.824,125.84 546.968,124.752 C547.08,123.952 547.304,121.984 547.32,121.6 L545.224,121.6 C544.488,124.224 543.112,125.984 540.2,127.664 L539.624,126.992 C542.408,125.408 543.592,124 544.328,121.6 L542.104,121.6 C541.048,123.728 539.448,125.168 536.36,126.624 L535.896,125.92 C538.776,124.656 540.28,123.312 541.16,121.6 L538.712,121.6 C538.104,122.272 537.4,122.896 536.552,123.504 L536.024,122.864 C537.512,121.84 538.632,120.656 539.416,119.28 L540.216,119.632 Z M539.064,114.768 L539.064,116.256 L546.472,116.256 L546.472,114.768 L539.064,114.768 Z M539.064,118.432 L546.472,118.432 L546.472,116.96 L539.064,116.96 L539.064,118.432 Z M553.532,113.984 L562.636,113.984 L562.636,118.768 L553.532,118.768 L553.532,113.984 Z M558.876,127.264 L558.876,120.784 L563.964,120.784 L563.964,127.264 L563.116,127.264 L563.116,126.176 L559.74,126.176 L559.74,127.264 L558.876,127.264 Z M552.204,127.264 L552.204,120.784 L557.132,120.784 L557.132,127.264 L556.284,127.264 L556.284,126.176 L553.068,126.176 L553.068,127.264 L552.204,127.264 Z M554.444,114.816 L554.444,117.936 L561.74,117.936 L561.74,114.816 L554.444,114.816 Z M559.74,121.6 L559.74,125.344 L563.116,125.344 L563.116,121.6 L559.74,121.6 Z M553.068,121.6 L553.068,125.344 L556.284,125.344 L556.284,121.6 L553.068,121.6 Z M574.144,120.976 L574.144,122.288 L579.856,122.288 L579.856,123.072 L574.128,123.072 C574.928,124.608 576.928,126 580.304,126.672 L580.08,127.632 C576.864,126.816 574.752,125.664 573.712,124.048 C572.88,125.648 570.8,126.656 567.232,127.568 L566.944,126.672 C570.592,125.84 572.544,124.688 573.056,123.072 L567.504,123.072 L567.504,122.288 L573.2,122.288 L573.2,120.976 L574.144,120.976 Z M573.216,120.544 L573.216,118.512 C571.744,119.792 570.08,120.64 567.44,121.6 L567.152,120.736 C569.6,119.968 571.472,118.96 572.944,117.664 L567.472,117.664 L567.472,116.912 L573.216,116.912 L573.216,113.312 L574.112,113.312 L574.112,116.912 L579.872,116.912 L579.872,117.664 L574.112,117.664 L574.112,120.544 L573.216,120.544 Z M579.84,121.392 C578.448,120.752 575.824,119.6 574.416,119.04 L574.704,118.336 C576.064,118.864 578.784,120.016 580.128,120.592 L579.84,121.392 Z M578.784,114.256 C578.192,114.848 577.024,115.968 576.288,116.624 L575.712,116.016 C576.448,115.376 577.584,114.288 578.176,113.664 L578.784,114.256 Z M571.04,116.592 C570.416,115.952 569.152,114.8 568.56,114.272 L569.104,113.664 C569.712,114.192 570.944,115.296 571.616,115.968 L571.04,116.592 Z M584.628,128.128 C584.996,127.888 585.316,127.344 585.332,126.544 L584.676,126.544 L584.676,124.384 L585.988,124.384 L585.988,126.512 C585.988,127.696 585.332,128.384 584.628,128.72 L584.628,128.128 Z M599.896,117.056 L603.976,117.056 L603.976,113.2 L604.888,113.2 L604.888,114.672 L610.84,114.672 L610.84,115.44 L604.888,115.44 L604.888,117.056 L609.512,117.056 L609.512,122.448 L605.144,122.448 L605.144,124.16 L611.352,124.16 L611.352,124.944 L605.144,124.944 L605.144,127.6 L604.248,127.6 L604.248,124.944 L598.056,124.944 L598.056,124.16 L604.248,124.16 L604.248,122.448 L599.896,122.448 L599.896,117.056 Z M600.792,117.824 L600.792,119.392 L608.6,119.392 L608.6,117.824 L600.792,117.824 Z M600.792,121.68 L608.6,121.68 L608.6,120.112 L600.792,120.112 L600.792,121.68 Z M615.26,120.688 C615.26,121.424 615.244,122.064 615.212,122.656 C615.564,124.128 616.044,124.992 616.78,125.504 L616.78,119.504 L613.58,119.504 L613.58,118.704 L616.46,118.704 L616.46,116.24 L614.06,116.24 L614.06,115.44 L616.46,115.44 L616.46,113.328 L617.276,113.328 L617.276,115.44 L619.468,115.44 L619.468,116.24 L617.276,116.24 L617.276,118.704 L619.708,118.704 L619.708,119.504 L617.58,119.504 L617.58,122.192 L619.484,122.192 L619.484,122.992 L617.58,122.992 L617.58,125.888 C618.156,126.064 618.876,126.128 619.74,126.128 L627.036,126.128 L626.892,126.96 L619.644,126.96 C617.164,126.96 615.756,126.304 615.036,124.336 C614.86,125.44 614.556,126.416 614.06,127.584 L613.308,127.328 C614.252,125.136 614.492,123.76 614.492,120.688 L615.26,120.688 Z M626.796,121.712 C626.732,122.176 626.588,123.04 626.476,123.52 C626.252,124.528 625.932,124.896 625.356,124.896 C624.86,124.88 624.3,124.576 623.804,123.088 C623.772,123.024 623.756,122.96 623.74,122.88 C623.084,123.712 622.284,124.512 621.292,125.408 L620.764,124.816 C621.932,123.792 622.796,122.928 623.5,122 C623.164,120.592 622.988,118.8 622.876,116.752 L620.94,116.752 L620.94,121.824 L622.396,120.512 L622.636,121.28 C622.38,121.488 621.004,122.672 620.188,123.52 L619.74,122.928 C620.14,122.704 620.14,122.48 620.14,122.08 L620.14,115.968 L622.828,115.968 C622.796,115.12 622.764,114.24 622.764,113.312 L623.564,113.312 C623.564,114.208 623.596,115.104 623.628,115.968 L626.828,115.968 L626.828,116.752 L623.676,116.752 C623.788,118.352 623.948,119.824 624.156,121.024 C624.684,120.112 625.116,119.104 625.548,117.792 L626.204,118.016 C625.66,119.664 625.1,120.896 624.348,122.032 C624.428,122.352 624.508,122.64 624.588,122.896 C624.844,123.68 625.148,123.888 625.356,123.904 C625.5,123.904 625.708,123.696 625.804,123.056 C625.884,122.672 626.028,121.888 626.06,121.488 L626.796,121.712 Z M625.644,115.504 C625.324,115.12 624.604,114.272 624.22,113.888 L624.732,113.408 C625.116,113.776 625.884,114.608 626.204,114.992 L625.644,115.504 Z M642.08,120.4 L631.472,120.4 L631.472,121.728 C631.472,124.4 631.072,125.872 629.712,127.744 L628.88,127.248 C630.272,125.44 630.576,124.192 630.576,121.552 L630.576,119.52 L637.024,119.52 C637.6,118.592 638.336,117.264 638.8,116.288 L639.616,116.672 C639.2,117.52 638.608,118.608 638.064,119.52 L642.08,119.52 L642.08,120.4 Z M642.432,116.096 L629.312,116.096 L629.312,115.216 L642.432,115.216 L642.432,116.096 Z M633.584,119.264 C633.248,118.592 632.56,117.344 632.176,116.704 L632.976,116.256 C633.376,116.912 634.064,118.112 634.416,118.784 L633.584,119.264 Z M635.664,115.152 C635.408,114.56 635.104,113.936 634.848,113.392 L635.712,113.024 C635.984,113.6 636.288,114.208 636.56,114.832 L635.664,115.152 Z M646.58,113.984 L655.684,113.984 L655.684,118.768 L646.58,118.768 L646.58,113.984 Z M651.924,127.264 L651.924,120.784 L657.012,120.784 L657.012,127.264 L656.164,127.264 L656.164,126.176 L652.788,126.176 L652.788,127.264 L651.924,127.264 Z M645.252,127.264 L645.252,120.784 L650.18,120.784 L650.18,127.264 L649.332,127.264 L649.332,126.176 L646.116,126.176 L646.116,127.264 L645.252,127.264 Z M647.492,114.816 L647.492,117.936 L654.788,117.936 L654.788,114.816 L647.492,114.816 Z M652.788,121.6 L652.788,125.344 L656.164,125.344 L656.164,121.6 L652.788,121.6 Z M646.116,121.6 L646.116,125.344 L649.332,125.344 L649.332,121.6 L646.116,121.6 Z M667.832,127.632 L667.832,124.752 L665.176,124.752 L665.176,123.92 L667.832,123.92 L667.832,117.696 C666.92,120.384 665.528,122.64 663.352,124.928 L662.744,124.096 C664.856,122.016 666.344,119.712 667.304,117.008 L663.752,117.008 L663.752,116.112 L667.832,116.112 L667.832,113.232 L668.728,113.232 L668.728,116.112 L673.176,116.112 L673.176,117.008 L669.208,117.008 C670.152,119.632 671.752,122.064 673.72,123.92 L673.16,124.816 C671.24,122.912 669.64,120.448 668.728,117.84 L668.728,123.92 L671.368,123.92 L671.368,124.752 L668.728,124.752 L668.728,127.632 L667.832,127.632 Z M661.816,127.52 L661.816,118.912 C661.304,119.904 660.744,120.816 660.136,121.616 L659.72,120.624 C660.968,118.848 662.216,116.096 662.952,113.36 L663.896,113.52 C663.56,114.704 663.16,115.872 662.712,116.976 L662.712,127.52 L661.816,127.52 Z M676.476,126.288 L677.836,126.288 C678.908,126.288 679.164,126.064 679.196,125.04 L679.34,120.944 L676.22,120.944 L676.54,115.776 L677.308,115.776 L677.02,120.192 L678.7,120.192 L679.052,114.976 L675.644,114.976 L675.644,114.192 L679.852,114.192 L679.484,120.192 L680.14,120.192 C680.092,121.392 680.028,123.728 679.948,125.312 C679.9,126.672 679.484,127.008 678.044,127.008 L676.62,127.008 L676.476,126.288 Z M687.852,120.368 C687.404,121.872 686.636,124.288 686.124,125.856 L688.732,125.856 L688.732,126.704 L680.348,126.704 L680.348,125.856 L685.324,125.856 C685.9,124.192 686.636,121.792 687.1,120.144 L687.852,120.368 Z M688.7,119.36 C686.86,117.888 685.532,116.208 684.556,114.336 C683.564,116.208 682.236,117.872 680.396,119.36 L679.884,118.672 C681.788,117.168 683.18,115.408 684.108,113.44 L685.004,113.44 C685.916,115.488 687.34,117.2 689.196,118.672 L688.7,119.36 Z M687.34,119.248 L681.756,119.248 L681.756,118.416 L687.34,118.416 L687.34,119.248 Z M682.3,124.816 C682.028,123.632 681.452,121.44 681.132,120.352 L681.836,120.144 C682.156,121.248 682.732,123.44 683.02,124.608 L682.3,124.816 Z M684.588,124.272 C684.364,123.184 683.852,121.2 683.564,120.176 L684.284,119.984 C684.556,120.96 685.084,122.992 685.324,124.08 L684.588,124.272 Z M675.292,123.36 C675.756,123.296 678.46,122.816 678.844,122.736 L678.876,123.504 C678.556,123.536 675.772,124.08 675.356,124.16 L675.292,123.36 Z" id="多年金融交易和区块链实践经验，提供优质交"></path>
                <rect id="Rectangle-8" opacity="0.800000012" x="201" y="62" width="1" height="58"></rect>
                <g id="品质" transform="translate(0.000000, 51.000000)">
                    <g id="Group-10">
                        <circle id="Oval-3" cx="89" cy="22" r="2"></circle>
                        <path d="M115.22,23.89 C115.22,25.51 115.16,26.89 115.07,28.15 C115.55,30.22 116.3,31.63 117.47,32.56 L117.47,22.06 L111.59,22.06 L111.59,20.05 L116.84,20.05 L116.84,15.88 L112.49,15.88 L112.49,13.87 L116.84,13.87 L116.84,10.18 L118.94,10.18 L118.94,13.87 L122.75,13.87 L122.75,15.88 L118.94,15.88 L118.94,20.05 L122.78,20.05 L122.78,20.89 C125.24,18.64 126.14,16.06 126.44,13.69 L122.87,13.69 L122.87,11.65 L135.05,11.65 C135.02,12.43 134.75,16.66 134.69,17.29 C134.57,19.96 133.76,20.59 131.3,20.59 L128.78,20.59 L128.36,18.55 L130.31,18.55 C131.99,18.55 132.53,18.22 132.59,16.57 C132.62,15.88 132.68,14.47 132.74,13.69 L128.39,13.69 C128.03,16.33 127.34,19.18 124.1,22.54 L122.78,21.28 L122.78,22.06 L119.54,22.06 L119.54,26.5 L122.99,26.5 L122.99,28.51 L119.54,28.51 L119.54,33.55 C120.53,33.85 121.73,33.97 123.2,33.97 L137,33.97 L136.55,36.1 L122.96,36.1 C118.46,36.1 116.12,35.11 114.56,31.84 C114.2,33.55 113.69,35.11 112.91,36.97 L110.99,36.25 C112.79,32.14 113.27,29.68 113.27,23.89 L115.22,23.89 Z M124.1,22.75 L134.72,22.75 L134.72,31.12 L124.1,31.12 L124.1,22.75 Z M126.14,24.67 L126.14,29.2 L132.59,29.2 L132.59,24.67 L126.14,24.67 Z M152.18,24.04 C152.18,25.45 152.15,26.68 152.09,27.82 C152.69,30.13 153.44,31.6 154.52,32.53 L154.52,22.06 L148.79,22.06 L148.79,20.08 L153.92,20.08 L153.92,15.94 L149.69,15.94 L149.69,13.96 L153.92,13.96 L153.92,10.24 L155.99,10.24 L155.99,13.96 L159.83,13.96 L159.83,15.94 L155.99,15.94 L155.99,20.08 L160.28,20.08 L160.28,22.06 L156.56,22.06 L156.56,26.59 L159.86,26.59 L159.86,28.6 L156.56,28.6 L156.56,33.58 C157.61,33.88 158.84,33.97 160.37,33.97 L174.08,33.97 L173.69,36.07 L160.13,36.07 C155.69,36.07 153.02,34.93 151.61,31.72 C151.28,33.49 150.74,35.14 149.93,37.06 L148.04,36.4 C149.81,32.29 150.26,29.77 150.26,24.01 L152.18,24.04 Z M173.81,26.05 C173.69,26.92 173.42,28.57 173.18,29.5 C172.73,31.51 172.1,32.23 170.9,32.23 C169.85,32.23 168.71,31.66 167.69,28.69 C166.52,30.13 165.14,31.54 163.43,33.07 L162.08,31.6 C164.24,29.74 165.83,28.18 167.09,26.5 C166.49,23.86 166.16,20.62 165.95,16.9 L162.86,16.9 L162.86,25.57 L165.23,23.47 L165.86,25.39 C165.41,25.75 162.62,28.12 161.24,29.53 L160.1,28.06 C160.85,27.64 160.85,27.19 160.85,26.35 L160.85,14.95 L165.86,14.95 C165.8,13.45 165.77,11.86 165.74,10.21 L167.78,10.21 C167.78,11.83 167.84,13.42 167.9,14.95 L173.63,14.95 L173.63,16.9 L168.02,16.9 C168.2,19.48 168.44,21.88 168.77,23.92 C169.61,22.39 170.3,20.68 171.02,18.52 L172.67,19.12 C171.65,22.15 170.63,24.46 169.25,26.56 C169.4,27.13 169.52,27.64 169.67,28.09 C170.09,29.35 170.6,29.71 170.84,29.74 C170.99,29.74 171.35,29.41 171.53,28.33 C171.65,27.64 171.89,26.2 171.95,25.45 L173.81,26.05 Z M171.23,14.5 C170.63,13.78 169.28,12.19 168.56,11.47 L169.88,10.21 C170.6,10.9 172.04,12.46 172.64,13.18 L171.23,14.5 Z" id="超越"></path>
                        <path d="M5.07,11.2 L22.74,11.2 L22.74,20.71 L5.07,20.71 L5.07,11.2 Z M15.12,36.37 L15.12,23.95 L25.2,23.95 L25.2,36.37 L23.07,36.37 L23.07,34.6 L17.28,34.6 L17.28,36.37 L15.12,36.37 Z M2.61,36.37 L2.61,23.95 L12.39,23.95 L12.39,36.37 L10.26,36.37 L10.26,34.6 L4.77,34.6 L4.77,36.37 L2.61,36.37 Z M7.38,13.3 L7.38,18.61 L20.46,18.61 L20.46,13.3 L7.38,13.3 Z M17.28,26.02 L17.28,32.5 L23.07,32.5 L23.07,26.02 L17.28,26.02 Z M4.77,26.02 L4.77,32.5 L10.26,32.5 L10.26,26.02 L4.77,26.02 Z M46.26,31.18 L46.26,22.21 L52.68,22.21 L52.68,19.18 L44.52,19.18 L44.52,17.2 L52.68,17.2 L52.68,14.44 L54.9,14.44 L54.9,17.2 L63.75,17.2 L63.75,19.18 L54.9,19.18 L54.9,22.21 L61.32,22.21 L61.32,31.12 L59.13,31.12 L59.13,24.22 L48.42,24.22 L48.42,31.18 L46.26,31.18 Z M62.67,12.91 C57.42,13.48 48.72,14.11 43.68,14.26 L43.68,21.07 C43.68,29.05 43.08,32.17 40.35,36.94 L38.22,35.83 C41.01,31 41.49,28.6 41.49,21.22 L41.49,12.25 C47.37,12.13 56.49,11.44 62.25,10.81 L62.67,12.91 Z M54.99,25.09 L54.84,27.34 C54.75,28.51 54.57,29.53 54.27,30.4 C57,31.69 61.59,33.85 63.75,34.93 L62.7,36.88 C60.51,35.71 56.01,33.46 53.31,32.23 C51.78,34.27 48.99,35.53 44.25,36.88 L43.41,34.84 C50.55,32.86 52.26,31.54 52.65,27.31 C52.71,26.71 52.74,25.63 52.77,25.09 L54.99,25.09 Z" id="品质"></path>
                    </g>
                </g>
                <path d="M0.94,112.4 C0.94,108.32 2.96,104.78 7.14,104.78 C11.34,104.78 13.34,108.36 13.34,112.4 C13.34,114.72 12.7,116.88 11.38,118.3 L13.04,119.86 L12.16,120.8 L10.46,119.08 C9.56,119.68 8.46,120.04 7.14,120.04 C3,120.04 0.94,116.36 0.94,112.4 Z M8.02,116.64 L8.78,115.86 L10.44,117.44 C11.54,116.24 12.08,114.4 12.08,112.4 C12.08,109 10.38,105.96 7.14,105.96 C3.9,105.96 2.22,108.96 2.22,112.4 C2.22,115.78 3.94,118.84 7.14,118.84 C8.08,118.84 8.88,118.6 9.54,118.18 L8.02,116.64 Z M17.5,109.06 L18.74,109.06 L18.74,116.08 C18.74,117.86 19.8,118.94 21.36,118.94 C22.42,118.94 23.52,118.34 24.42,117.24 L24.42,109.06 L25.66,109.06 L25.66,119.68 L24.42,119.68 L24.42,118.18 C23.48,119.32 22.22,120.04 21,120.04 C18.84,120.04 17.5,118.72 17.5,116.3 L17.5,109.06 Z M30.8999999,117.26 C30.8999999,118.32 31.6799999,118.96 32.9799999,118.96 C34.5199999,118.96 35.6999999,118.08 36.6799999,117.06 C36.6799999,116.54 36.6999999,114.48 36.6999999,113.94 C33.5599999,114.44 30.9199999,115.16 30.8999999,117.26 Z M29.6399999,117.38 C29.6399999,114.54 32.5799999,113.48 36.6999999,112.86 L36.6999999,112.12 C36.6799999,110.9 35.9799999,109.86 34.0399999,109.86 C32.8599999,109.86 31.6799999,110.32 31.1599999,111.92 L29.9799999,111.74 C30.5199999,109.92 31.9999999,108.78 34.0799999,108.78 C36.6999999,108.78 37.9399999,110.1 37.9399999,112.04 L37.9399999,118.36 C37.9399999,119.08 38.3199999,119.12 39.0799999,118.96 L39.0799999,119.84 C38.6999999,119.96 38.3399999,120.04 37.9799999,120.04 C37.4599999,120.04 36.8999999,119.7 36.7999999,119.1 C36.7799999,119.06 36.7399999,118.16 36.7399999,118.14 C35.7799999,119.22 34.3599999,120.04 32.7399999,120.04 C31.1599999,120.04 29.6399999,119.22 29.6399999,117.38 Z M42.4799999,105.14 L43.7399999,105.14 L43.7399999,119.68 L42.4799999,119.68 L42.4799999,105.14 Z M48.0799998,109.06 L49.3399998,109.06 L49.3399998,119.68 L48.0799998,119.68 L48.0799998,109.06 Z M48.0799998,105.14 L49.3399998,105.14 L49.3399998,107.26 L48.0799998,107.26 L48.0799998,105.14 Z M52.5799998,109.06 L54.1399998,109.06 L54.1399998,106.28 L55.3599998,106.28 L55.3599998,109.06 L57.3999998,109.06 L57.3999998,110.14 L55.3599998,110.14 L55.3599998,117.66 C55.3599998,118.6 55.7399998,118.92 56.5999998,118.92 C56.8399998,118.92 57.1399998,118.86 57.3999998,118.76 L57.3999998,119.84 C56.9599998,119.98 56.5199998,120.04 55.9799998,120.04 C54.8799998,120.04 54.1399998,119.44 54.1399998,118.16 L54.1399998,110.14 L52.5799998,110.14 L52.5799998,109.06 Z M59.6599997,109.06 L60.9999997,109.06 L64.2799997,117.86 C65.6199997,114.18 67.4199997,109.24 67.4599997,109.06 L68.7999997,109.06 L63.9399997,122.3 C63.4399997,123.62 62.5799997,123.82 61.9399997,123.82 C61.5599997,123.82 61.2999997,123.82 60.8999997,123.72 L60.8999997,122.6 C61.1199997,122.66 61.3599997,122.68 61.5999997,122.68 C62.1199997,122.68 62.6399997,122.42 62.8799997,121.74 L63.6599997,119.56 L59.6599997,109.06 Z M79.1399996,115.94 C79.1399996,113.86 80.7999996,112.6 82.4999996,111.54 C81.8399996,110.62 80.9199996,109.2 80.9199996,108.16 C80.9199996,106.42 82.2199996,105.14 84.2199996,105.14 C86.1799996,105.14 87.3799996,106.42 87.3799996,108.06 C87.3799996,109.78 85.7999996,110.88 84.1799996,111.9 C85.2799996,113.28 86.6399996,114.8 87.8999996,116.16 C88.4399996,115.14 88.7199996,113.9 88.7199996,112.6 L89.9399996,112.6 C89.9399996,114.28 89.5199996,115.84 88.7599996,117.08 C89.7799996,118.16 90.6799996,119.08 91.2599996,119.68 L89.5599996,119.68 C89.0399996,119.1 88.5399996,118.56 88.0799996,118.02 C86.9799996,119.26 85.4599996,120.04 83.5799996,120.04 C81.1199996,120.04 79.1399996,118.5 79.1399996,115.94 Z M83.5399996,118.96 C85.0999996,118.96 86.3799996,118.26 87.2799996,117.14 C85.5799996,115.26 84.2199996,113.74 83.2199996,112.48 C81.6999996,113.46 80.3799996,114.48 80.3799996,115.94 C80.3799996,118.2 82.0999996,118.96 83.5399996,118.96 Z M82.1599996,108.16 C82.1599996,108.8 82.6399996,109.82 83.4599996,110.96 C84.9199996,110.08 86.1599996,109.24 86.1599996,108.06 C86.1599996,107.06 85.4599996,106.2 84.1999996,106.2 C83.0199996,106.2 82.1599996,107.02 82.1599996,108.16 Z M102.36,105.14 L107.18,105.14 C110.32,105.14 111.64,106.54 111.64,108.8 C111.64,110.4 110.54,111.64 109.16,112.16 C111.4,112.58 112.18,114.16 112.18,115.66 C112.18,118.46 110.34,119.68 107.5,119.68 L102.36,119.68 L102.36,105.14 Z M103.62,112.8 L103.62,118.48 L107.18,118.48 C109.66,118.48 110.9,117.38 110.9,115.6 C110.9,113.46 109.18,112.8 107.18,112.8 L103.62,112.8 Z M103.62,106.32 L103.62,111.62 L107.12,111.62 C108.78,111.62 110.36,110.46 110.36,108.94 C110.36,107.28 109.26,106.32 107.04,106.32 L103.62,106.32 Z M115.739999,114.38 C115.739999,111.52 117.219999,108.78 120.239999,108.78 C123.219999,108.78 124.659999,111.3 124.659999,114.08 L124.659999,114.74 L116.979999,114.74 C116.939999,117.12 118.159999,118.94 120.299999,118.94 C121.819999,118.94 122.959999,118.04 123.499999,116.86 L124.619999,117.1 C123.939999,118.84 122.459999,120.04 120.279999,120.04 C117.199999,120.04 115.739999,117.52 115.739999,114.38 Z M116.979999,113.72 L123.399999,113.72 C123.399999,111.78 122.259999,109.88 120.239999,109.88 C118.259999,109.88 116.999999,111.8 116.979999,113.72 Z M127.419999,109.06 L128.759999,109.06 L132.039999,117.86 C133.379999,114.18 135.179999,109.24 135.219999,109.06 L136.559999,109.06 L131.699999,122.3 C131.199999,123.62 130.339999,123.82 129.699999,123.82 C129.319999,123.82 129.059999,123.82 128.659999,123.72 L128.659999,122.6 C128.879999,122.66 129.119999,122.68 129.359999,122.68 C129.879999,122.68 130.399999,122.42 130.639999,121.74 L131.419999,119.56 L127.419999,109.06 Z M139.319999,114.38 C139.319999,111.42 140.799999,108.78 143.939999,108.78 C147.099999,108.78 148.559999,111.34 148.559999,114.38 C148.559999,117.56 147.099999,120.04 143.939999,120.04 C140.819999,120.04 139.319999,117.48 139.319999,114.38 Z M140.579999,114.38 C140.579999,116.94 141.699999,118.9 143.939999,118.9 C146.219999,118.9 147.299999,116.94 147.299999,114.38 C147.299999,111.8 146.139999,109.9 143.939999,109.9 C141.799999,109.9 140.579999,111.84 140.579999,114.38 Z M152.439999,109.06 L153.679999,109.06 L153.679999,110.62 C154.659999,109.46 155.859999,108.78 157.099999,108.78 C159.379999,108.78 160.599999,110.08 160.599999,112.5 L160.599999,119.68 L159.359999,119.68 L159.359999,112.74 C159.359999,110.94 158.359999,109.88 156.779999,109.88 C155.719999,109.88 154.619999,110.5 153.679999,111.56 L153.679999,119.68 L152.439999,119.68 L152.439999,109.06 Z M164.559999,114.38 C164.559999,111.22 165.959999,108.78 168.839999,108.78 C170.019999,108.78 171.219999,109.24 172.339999,110.58 L172.339999,105.16 L173.579999,105.16 L173.579999,119.68 L172.339999,119.68 L172.339999,118.42 C171.139999,119.68 169.799999,120.04 168.879999,120.04 C165.959999,120.04 164.559999,117.52 164.559999,114.38 Z M169.019999,118.88 C170.199999,118.88 171.499999,118.2 172.339999,117.22 L172.339999,111.8 C171.499999,110.7 170.279999,109.92 169.019999,109.92 C166.839999,109.92 165.799999,112.02 165.799999,114.38 C165.799999,116.68 166.799999,118.88 169.019999,118.88 Z" id="Quality-&amp;-Beyond"></path>
            </g>
        </g>
    </g>
</svg>