<?xml version="1.0" encoding="UTF-8"?>
<svg width="864px" height="67px" viewBox="0 0 864 67" version="1.1" xmlns="http://www.w3.org/2000/svg" xmlns:xlink="http://www.w3.org/1999/xlink">
    <!-- Generator: Sketch 49 (51002) - http://www.bohemiancoding.com/sketch -->
    <title>text_en@2x</title>
    <desc>Created with Sketch.</desc>
    <defs></defs>
    <g id="Page-1" stroke="none" stroke-width="1" fill="none" fill-rule="evenodd">
        <g id="首页-en" transform="translate(-293.000000, -211.000000)" fill="#FFFFFF">
            <g id="text_en" transform="translate(283.000000, 211.000000)">
                <path d="M144.609375,15.34375 C144.984377,22.0000333 148.078096,25.5624977 153.890625,26.03125 C159.890655,25.6562481 163.078123,22.0937838 163.453125,15.34375 C162.984373,8.49996578 159.890654,4.84375234 154.171875,4.375 C148.265595,4.84375234 145.078127,8.49996578 144.609375,15.34375 Z M159.375,29.125 L166.546875,35.59375 L160.5,36.859375 L154.453125,29.96875 L154.03125,29.96875 C144.937455,29.4999977 140.156252,24.6719209 139.6875,15.484375 C140.062502,5.73432625 144.937453,0.625002344 154.3125,0.15625 C163.218795,0.812503281 167.999997,5.87495266 168.65625,15.34375 C168.468749,22.6562866 165.37503,27.2499906 159.375,29.125 Z M187.078125,8.3125 L191.578125,8.3125 L191.578125,29.828125 L187.078125,29.828125 L187.078125,27.578125 C185.765618,29.2656334 183.750014,30.1562495 181.03125,30.25 C175.593723,30.3437505 172.968749,27.6719022 173.15625,22.234375 L173.15625,8.3125 L177.796875,8.3125 L177.796875,21.8125 C177.703125,25.0937664 179.015611,26.6875005 181.734375,26.59375 C185.015641,26.3124986 186.796874,24.67189 187.078125,21.671875 L187.078125,8.3125 Z M210.703125,21.25 L210.703125,19.28125 C209.859371,20.1250042 208.031264,20.6874986 205.21875,20.96875 C202.031234,21.2500014 200.531249,22.2812411 200.71875,24.0625 C200.625,25.5625075 201.843737,26.3125 204.375,26.3125 C208.31252,26.0312486 210.421874,24.3437655 210.703125,21.25 Z M217.171875,29.828125 L212.53125,29.828125 C211.781246,29.2656222 211.359375,28.3750061 211.265625,27.15625 C209.671867,29.2187603 207.140642,30.25 203.671875,30.25 C198.7031,30.1562495 196.125001,28.1406447 195.9375,24.203125 C196.03125,19.9843539 198.796848,17.5937528 204.234375,17.03125 C208.078144,16.6562481 210.234373,16.1875028 210.703125,15.625 C210.984376,12.9062364 209.57814,11.6406241 206.484375,11.828125 C203.203109,11.6406241 201.375002,12.8593619 201,15.484375 L196.5,14.21875 C197.531255,9.7187275 200.906221,7.56249906 206.625,7.75 C212.53128,7.65624953 215.4375,10.4687214 215.34375,16.1875 L215.34375,24.34375 C215.34375,26.7812622 215.953119,28.6093689 217.171875,29.828125 Z M220.6875,0.71875 L225.328125,0.71875 L225.328125,29.828125 L220.6875,29.828125 L220.6875,0.71875 Z M230.671875,8.3125 L235.3125,8.3125 L235.3125,29.828125 L230.671875,29.828125 L230.671875,8.3125 Z M230.671875,0.71875 L235.3125,0.71875 L235.3125,5.921875 L230.671875,5.921875 L230.671875,0.71875 Z M249.375,26.453125 L250.21875,29.40625 C248.906243,29.8750023 247.593757,30.1562495 246.28125,30.25 C242.812483,30.3437505 241.125,28.6093928 241.21875,25.046875 L241.21875,12.109375 L238.265625,12.109375 L238.265625,8.3125 L241.21875,8.3125 L241.21875,2.96875 L245.71875,0.71875 L245.859375,8.3125 L249.65625,8.3125 L249.515625,12.109375 L245.859375,12.109375 L245.859375,24.90625 C245.765625,26.312507 246.187495,26.9218759 247.125,26.734375 C247.875004,26.734375 248.624996,26.6406259 249.375,26.453125 Z M250.921875,8.3125 L255.984375,8.3125 C258.328137,14.5000309 259.968745,18.9062369 260.90625,21.53125 C260.90625,21.7187509 260.999999,21.9999981 261.1875,22.375 C261.375001,23.0312533 261.515625,23.4999986 261.609375,23.78125 C261.796876,23.0312463 262.031249,22.2343792 262.3125,21.390625 C263.250005,18.7656119 264.890613,14.4062805 267.234375,8.3125 L272.296875,8.3125 L263.015625,30.109375 C261.609368,34.703148 259.218767,36.7656273 255.84375,36.296875 C254.531243,36.2031245 253.171882,35.8750028 251.765625,35.3125 L252.75,32.078125 C253.593754,32.3593764 254.437496,32.5 255.28125,32.5 C256.593757,32.5937505 257.531247,31.843758 258.09375,30.25 L259.21875,28.421875 L250.921875,8.3125 Z M296.34375,4.9375 L290.4375,4.9375 L290.4375,25.75 L296.203125,25.75 C302.765658,25.8437505 306,22.3750352 305.90625,15.34375 C305.8125,8.49996578 302.625031,5.03125047 296.34375,4.9375 Z M296.203125,29.6875 L285.65625,29.6875 L285.65625,0.578125 L296.484375,0.578125 C305.953172,0.671875469 310.734375,5.54682672 310.828125,15.203125 C311.109376,25.1406747 306.234425,29.9687514 296.203125,29.6875 Z M315.609375,8.3125 L320.25,8.3125 L320.25,29.828125 L315.609375,29.828125 L315.609375,8.3125 Z M315.609375,0.71875 L320.25,0.71875 L320.25,5.921875 L315.609375,5.921875 L315.609375,0.71875 Z M339.375,19.984375 L339.375,16.890625 C339.093749,13.7968595 337.45314,12.1562509 334.453125,11.96875 C330.703106,12.0625005 328.78125,14.406227 328.6875,19 C328.78125,23.3125216 330.562483,25.5624991 334.03125,25.75 C337.593768,25.75 339.375,23.8281442 339.375,19.984375 Z M339.375,8.453125 L344.015625,8.453125 L344.015625,26.734375 C344.296876,33.4844088 340.781287,36.7656259 333.46875,36.578125 C329.906232,36.578125 327.140635,35.5468853 325.171875,33.484375 L327.5625,30.8125 C329.250008,31.9375056 331.171864,32.5468745 333.328125,32.640625 C337.640647,32.8281259 339.656251,30.9531447 339.375,27.015625 C338.249994,28.609383 336.187515,29.40625 333.1875,29.40625 C327.374971,29.1249986 324.328126,25.6562833 324.046875,19 C324.328126,11.9687148 327.515595,8.31250141 333.609375,8.03125 C336.421889,8.21875094 338.343745,9.24999062 339.375,11.125 L339.375,8.453125 Z M349.21875,8.3125 L353.859375,8.3125 L353.859375,29.828125 L349.21875,29.828125 L349.21875,8.3125 Z M349.21875,0.71875 L353.859375,0.71875 L353.859375,5.921875 L349.21875,5.921875 L349.21875,0.71875 Z M367.921875,26.453125 L368.765625,29.40625 C367.453118,29.8750023 366.140632,30.1562495 364.828125,30.25 C361.359358,30.3437505 359.671875,28.6093928 359.765625,25.046875 L359.765625,12.109375 L356.8125,12.109375 L356.8125,8.3125 L359.765625,8.3125 L359.765625,2.96875 L364.265625,0.71875 L364.40625,8.3125 L368.203125,8.3125 L368.0625,12.109375 L364.40625,12.109375 L364.40625,24.90625 C364.3125,26.312507 364.73437,26.9218759 365.671875,26.734375 C366.421879,26.734375 367.171871,26.6406259 367.921875,26.453125 Z M385.21875,21.25 L385.21875,19.28125 C384.374996,20.1250042 382.546889,20.6874986 379.734375,20.96875 C376.546859,21.2500014 375.046874,22.2812411 375.234375,24.0625 C375.140625,25.5625075 376.359362,26.3125 378.890625,26.3125 C382.828145,26.0312486 384.937499,24.3437655 385.21875,21.25 Z M391.6875,29.828125 L387.046875,29.828125 C386.296871,29.2656222 385.875,28.3750061 385.78125,27.15625 C384.187492,29.2187603 381.656267,30.25 378.1875,30.25 C373.218725,30.1562495 370.640626,28.1406447 370.453125,24.203125 C370.546875,19.9843539 373.312473,17.5937528 378.75,17.03125 C382.593769,16.6562481 384.749998,16.1875028 385.21875,15.625 C385.500001,12.9062364 384.093765,11.6406241 381,11.828125 C377.718734,11.6406241 375.890627,12.8593619 375.515625,15.484375 L371.015625,14.21875 C372.04688,9.7187275 375.421846,7.56249906 381.140625,7.75 C387.046905,7.65624953 389.953125,10.4687214 389.859375,16.1875 L389.859375,24.34375 C389.859375,26.7812622 390.468744,28.6093689 391.6875,29.828125 Z M395.203125,0.71875 L399.84375,0.71875 L399.84375,29.828125 L395.203125,29.828125 L395.203125,0.71875 Z M422.34375,18.578125 L432.046875,18.578125 L428.109375,8.3125 C427.640623,7.09374391 427.40625,6.15625328 427.40625,5.5 L427.265625,5.5 C427.171875,6.34375422 426.890627,7.28124484 426.421875,8.3125 L422.34375,18.578125 Z M436.546875,29.828125 L433.734375,22.796875 L420.65625,22.796875 L417.703125,29.828125 L412.640625,29.828125 L424.875,0.578125 L429.515625,0.578125 L441.75,29.828125 L436.546875,29.828125 Z M460.875,13.796875 L456.234375,14.921875 C455.765623,12.8593647 454.453136,11.8749995 452.296875,11.96875 C449.953113,11.96875 448.734375,12.7187425 448.640625,14.21875 C448.453124,15.5312566 450.093733,16.4687472 453.5625,17.03125 C459.187528,17.8750042 461.953125,20.1249817 461.859375,23.78125 C461.671874,28.0000211 458.578155,30.1562495 452.578125,30.25 C447.5156,30.25 444.375006,28.1406461 443.15625,23.921875 L447.65625,22.65625 C448.218753,25.3750136 449.859361,26.6875005 452.578125,26.59375 C455.57814,26.59375 457.078125,25.7031339 457.078125,23.921875 C457.265626,22.515618 455.765641,21.5781273 452.578125,21.109375 C446.484345,20.1718703 443.578124,17.8750183 443.859375,14.21875 C444.140626,10.1874798 446.906224,8.07812594 452.15625,7.890625 C457.125025,7.98437547 460.031246,9.95310578 460.875,13.796875 Z M482.953125,13.796875 L478.3125,14.921875 C477.843748,12.8593647 476.531261,11.8749995 474.375,11.96875 C472.031238,11.96875 470.8125,12.7187425 470.71875,14.21875 C470.531249,15.5312566 472.171858,16.4687472 475.640625,17.03125 C481.265653,17.8750042 484.03125,20.1249817 483.9375,23.78125 C483.749999,28.0000211 480.65628,30.1562495 474.65625,30.25 C469.593725,30.25 466.453131,28.1406461 465.234375,23.921875 L469.734375,22.65625 C470.296878,25.3750136 471.937486,26.6875005 474.65625,26.59375 C477.656265,26.59375 479.15625,25.7031339 479.15625,23.921875 C479.343751,22.515618 477.843766,21.5781273 474.65625,21.109375 C468.56247,20.1718703 465.656249,17.8750183 465.9375,14.21875 C466.218751,10.1874798 468.984349,8.07812594 474.234375,7.890625 C479.20315,7.98437547 482.109371,9.95310578 482.953125,13.796875 Z M498,12.109375 C494.906235,12.3906264 493.125002,13.9843605 492.65625,16.890625 L503.203125,16.890625 C502.828123,13.7968595 501.093765,12.2031255 498,12.109375 Z M503.34375,22.65625 L508.125,23.921875 C506.812493,28.328147 503.484402,30.4843755 498.140625,30.390625 C491.296841,30.1093736 487.734376,26.4531602 487.453125,19.421875 C487.734376,12.1093384 491.249966,8.26562687 498,7.890625 C504.656283,8.07812594 508.078124,11.968712 508.265625,19.5625 L508.265625,20.828125 L492.375,20.828125 C492.843752,24.4843933 494.718734,26.4062491 498,26.59375 C500.906265,26.6875005 502.687497,25.3750136 503.34375,22.65625 Z M521.34375,26.453125 L522.1875,29.40625 C520.874993,29.8750023 519.562507,30.1562495 518.25,30.25 C514.781233,30.3437505 513.09375,28.6093928 513.1875,25.046875 L513.1875,12.109375 L510.234375,12.109375 L510.234375,8.3125 L513.1875,8.3125 L513.1875,2.96875 L517.6875,0.71875 L517.828125,8.3125 L521.625,8.3125 L521.484375,12.109375 L517.828125,12.109375 L517.828125,24.90625 C517.734375,26.312507 518.156245,26.9218759 519.09375,26.734375 C519.843754,26.734375 520.593746,26.6406259 521.34375,26.453125 Z M541.3125,13.796875 L536.671875,14.921875 C536.203123,12.8593647 534.890636,11.8749995 532.734375,11.96875 C530.390613,11.96875 529.171875,12.7187425 529.078125,14.21875 C528.890624,15.5312566 530.531233,16.4687472 534,17.03125 C539.625028,17.8750042 542.390625,20.1249817 542.296875,23.78125 C542.109374,28.0000211 539.015655,30.1562495 533.015625,30.25 C527.9531,30.25 524.812506,28.1406461 523.59375,23.921875 L528.09375,22.65625 C528.656253,25.3750136 530.296861,26.6875005 533.015625,26.59375 C536.01564,26.59375 537.515625,25.7031339 537.515625,23.921875 C537.703126,22.515618 536.203141,21.5781273 533.015625,21.109375 C526.921845,20.1718703 524.015624,17.8750183 524.296875,14.21875 C524.578126,10.1874798 527.343724,8.07812594 532.59375,7.890625 C537.562525,7.98437547 540.468746,9.95310578 541.3125,13.796875 Z M579.5625,4.9375 L569.859375,4.9375 L569.859375,29.828125 L565.078125,29.828125 L565.078125,4.9375 L555.234375,4.9375 L555.234375,0.71875 L579.5625,0.71875 L579.5625,4.9375 Z M596.15625,9.296875 L594.1875,13.375 C593.437496,12.7187467 592.453131,12.390625 591.234375,12.390625 C588.703112,12.2968745 587.484375,14.2656048 587.578125,18.296875 L587.578125,29.828125 L582.9375,29.828125 L582.9375,8.3125 L587.578125,8.3125 L587.578125,11.40625 C588.328129,9.24998922 589.734365,8.07812594 591.796875,7.890625 C593.671884,7.890625 595.124995,8.35937031 596.15625,9.296875 Z M612.609375,21.25 L612.609375,19.28125 C611.765621,20.1250042 609.937514,20.6874986 607.125,20.96875 C603.937484,21.2500014 602.437499,22.2812411 602.625,24.0625 C602.53125,25.5625075 603.749987,26.3125 606.28125,26.3125 C610.21877,26.0312486 612.328124,24.3437655 612.609375,21.25 Z M619.078125,29.828125 L614.4375,29.828125 C613.687496,29.2656222 613.265625,28.3750061 613.171875,27.15625 C611.578117,29.2187603 609.046892,30.25 605.578125,30.25 C600.60935,30.1562495 598.031251,28.1406447 597.84375,24.203125 C597.9375,19.9843539 600.703098,17.5937528 606.140625,17.03125 C609.984394,16.6562481 612.140623,16.1875028 612.609375,15.625 C612.890626,12.9062364 611.48439,11.6406241 608.390625,11.828125 C605.109359,11.6406241 603.281252,12.8593619 602.90625,15.484375 L598.40625,14.21875 C599.437505,9.7187275 602.812471,7.56249906 608.53125,7.75 C614.43753,7.65624953 617.34375,10.4687214 617.25,16.1875 L617.25,24.34375 C617.25,26.7812622 617.859369,28.6093689 619.078125,29.828125 Z M636.234375,20.40625 L636.234375,17.59375 C636.140625,13.9374817 634.453141,12.0625005 631.171875,11.96875 C627.703108,11.8749995 625.96875,14.3593497 625.96875,19.421875 C625.875,24.3906498 627.609357,26.8281255 631.171875,26.734375 C634.546892,26.734375 636.234375,24.6250211 636.234375,20.40625 Z M636.234375,0.71875 L640.875,0.71875 L640.875,29.96875 L636.234375,29.96875 L636.234375,27.578125 C635.109369,29.3593839 633.093765,30.2968745 630.1875,30.390625 C624.28122,30.2968745 621.328125,26.6406611 621.328125,19.421875 C621.328125,11.7343366 624.468719,7.890625 630.75,7.890625 C633.187512,8.07812594 635.015619,9.01561656 636.234375,10.703125 L636.234375,0.71875 Z M646.21875,8.3125 L650.859375,8.3125 L650.859375,29.828125 L646.21875,29.828125 L646.21875,8.3125 Z M646.21875,0.71875 L650.859375,0.71875 L650.859375,5.921875 L646.21875,5.921875 L646.21875,0.71875 Z M674.34375,16.1875 L674.34375,29.828125 L669.703125,29.828125 L669.703125,16.609375 C669.703125,13.4218591 668.437513,11.828125 665.90625,11.828125 C662.531233,12.1093764 660.703126,13.749985 660.421875,16.75 L660.421875,29.828125 L655.921875,29.828125 L655.921875,8.3125 L660.421875,8.3125 L660.421875,10.984375 C661.734382,8.92186469 663.749986,7.890625 666.46875,7.890625 C671.906277,7.70312406 674.531251,10.4687214 674.34375,16.1875 Z M693.609375,19.984375 L693.609375,16.890625 C693.328124,13.7968595 691.687515,12.1562509 688.6875,11.96875 C684.937481,12.0625005 683.015625,14.406227 682.921875,19 C683.015625,23.3125216 684.796858,25.5624991 688.265625,25.75 C691.828143,25.75 693.609375,23.8281442 693.609375,19.984375 Z M693.609375,8.453125 L698.25,8.453125 L698.25,26.734375 C698.531251,33.4844088 695.015662,36.7656259 687.703125,36.578125 C684.140607,36.578125 681.37501,35.5468853 679.40625,33.484375 L681.796875,30.8125 C683.484383,31.9375056 685.406239,32.5468745 687.5625,32.640625 C691.875022,32.8281259 693.890626,30.9531447 693.609375,27.015625 C692.484369,28.609383 690.42189,29.40625 687.421875,29.40625 C681.609346,29.1249986 678.562501,25.6562833 678.28125,19 C678.562501,11.9687148 681.74997,8.31250141 687.84375,8.03125 C690.656264,8.21875094 692.57812,9.24999062 693.609375,11.125 L693.609375,8.453125 Z M726.234375,4.9375 L718.78125,4.9375 L718.78125,14.359375 L726.234375,14.359375 C730.265645,14.359375 732.28125,12.7187664 732.28125,9.4375 C732.093749,6.53123547 730.078144,5.03125047 726.234375,4.9375 Z M726.65625,18.578125 L718.78125,18.578125 L718.78125,29.828125 L713.859375,29.828125 L713.859375,0.578125 L726.9375,0.578125 C733.312532,0.859376406 736.734373,3.81247188 737.203125,9.4375 C737.109375,15.43753 733.593785,18.4843745 726.65625,18.578125 Z M741.421875,0.71875 L746.0625,0.71875 L746.0625,29.828125 L741.421875,29.828125 L741.421875,0.71875 Z M765.046875,21.25 L765.046875,19.28125 C764.203121,20.1250042 762.375014,20.6874986 759.5625,20.96875 C756.374984,21.2500014 754.874999,22.2812411 755.0625,24.0625 C754.96875,25.5625075 756.187487,26.3125 758.71875,26.3125 C762.65627,26.0312486 764.765624,24.3437655 765.046875,21.25 Z M771.515625,29.828125 L766.875,29.828125 C766.124996,29.2656222 765.703125,28.3750061 765.609375,27.15625 C764.015617,29.2187603 761.484392,30.25 758.015625,30.25 C753.04685,30.1562495 750.468751,28.1406447 750.28125,24.203125 C750.375,19.9843539 753.140598,17.5937528 758.578125,17.03125 C762.421894,16.6562481 764.578123,16.1875028 765.046875,15.625 C765.328126,12.9062364 763.92189,11.6406241 760.828125,11.828125 C757.546859,11.6406241 755.718752,12.8593619 755.34375,15.484375 L750.84375,14.21875 C751.875005,9.7187275 755.249971,7.56249906 760.96875,7.75 C766.87503,7.65624953 769.78125,10.4687214 769.6875,16.1875 L769.6875,24.34375 C769.6875,26.7812622 770.296869,28.6093689 771.515625,29.828125 Z M784.03125,26.453125 L784.875,29.40625 C783.562493,29.8750023 782.250007,30.1562495 780.9375,30.25 C777.468733,30.3437505 775.78125,28.6093928 775.875,25.046875 L775.875,12.109375 L772.921875,12.109375 L772.921875,8.3125 L775.875,8.3125 L775.875,2.96875 L780.375,0.71875 L780.515625,8.3125 L784.3125,8.3125 L784.171875,12.109375 L780.515625,12.109375 L780.515625,24.90625 C780.421875,26.312507 780.843745,26.9218759 781.78125,26.734375 C782.531254,26.734375 783.281246,26.6406259 784.03125,26.453125 Z M792.890625,6.203125 L792.890625,8.3125 L797.25,8.3125 L797.109375,12.25 L792.890625,12.25 L792.890625,29.828125 L788.25,29.828125 L788.25,12.25 L785.015625,12.25 L785.015625,8.3125 L788.25,8.3125 L788.25,6.34375 C788.34375,2.31247984 790.218732,0.296875 793.875,0.296875 C795.84376,0.296875 797.578117,0.578122187 799.078125,1.140625 L797.953125,4.796875 C796.828119,4.42187313 795.79688,4.234375 794.859375,4.234375 C793.453118,4.14062453 792.796875,4.79686797 792.890625,6.203125 Z M809.765625,26.734375 C813.328143,26.6406245 815.15625,24.1562744 815.25,19.28125 C815.15625,14.4062256 813.328143,11.9218755 809.765625,11.828125 C806.015606,11.9218755 804.09375,14.4531002 804,19.421875 C804.09375,24.1093984 806.015606,26.5468741 809.765625,26.734375 Z M810.046875,7.890625 C816.515657,8.17187641 819.890624,11.9218389 820.171875,19.140625 C820.078125,26.4531616 816.562535,30.2031241 809.625,30.390625 C803.062467,30.0156231 799.593752,26.4062842 799.21875,19.5625 C799.406251,11.968712 803.01559,8.07812594 810.046875,7.890625 Z M837.46875,9.296875 L835.5,13.375 C834.749996,12.7187467 833.765631,12.390625 832.546875,12.390625 C830.015612,12.2968745 828.796875,14.2656048 828.890625,18.296875 L828.890625,29.828125 L824.25,29.828125 L824.25,8.3125 L828.890625,8.3125 L828.890625,11.40625 C829.640629,9.24998922 831.046865,8.07812594 833.109375,7.890625 C834.984384,7.890625 836.437495,8.35937031 837.46875,9.296875 Z M869.8125,16.1875 L869.8125,29.828125 L865.171875,29.828125 L865.171875,16.609375 C865.265625,13.3281086 864.140637,11.7812491 861.796875,11.96875 C858.984361,12.1562509 857.484376,13.749985 857.296875,16.75 L857.296875,29.828125 L852.65625,29.828125 L852.65625,16.609375 C852.75,13.3281086 851.625012,11.7812491 849.28125,11.96875 C846.656237,12.1562509 845.156252,13.7031105 844.78125,16.609375 L844.78125,29.828125 L840.140625,29.828125 L840.140625,8.453125 L844.78125,8.453125 L844.78125,10.84375 C846.000006,8.96874063 847.640615,7.98437547 849.703125,7.890625 C852.890641,7.890625 855.140618,9.06248828 856.453125,11.40625 C857.953133,9.06248828 859.828114,7.890625 862.078125,7.890625 C867.234401,7.79687453 869.8125,10.5624719 869.8125,16.1875 Z" id="Quality-Digital-Asse"></path>
                <path d="M146.084,53.032 L143.144,58.884 L143.144,63 L142.08,63 L142.08,58.884 L139.112,53.032 L140.26,53.032 L142.612,57.806 L144.936,53.032 L146.084,53.032 Z M151.964,59.822 L147.316,59.822 C147.316,61.334 148.03,62.202 149.346,62.202 C150.144,62.202 150.606,61.964 151.152,61.418 L151.838,62.02 C151.138,62.72 150.494,63.084 149.318,63.084 C147.498,63.084 146.308,61.992 146.308,59.556 C146.308,57.33 147.386,56.028 149.136,56.028 C150.914,56.028 151.964,57.316 151.964,59.36 L151.964,59.822 Z M150.956,59.066 C150.928,58.506 150.9,58.296 150.746,57.918 C150.48,57.288 149.864,56.882 149.136,56.882 C148.408,56.882 147.792,57.288 147.526,57.918 C147.372,58.296 147.344,58.506 147.316,59.066 L150.956,59.066 Z M159.37,63 L158.362,63 L158.362,62.342 C157.802,62.902 157.298,63.084 156.374,63.084 C155.422,63.084 154.862,62.902 154.428,62.454 C154.092,62.118 153.91,61.6 153.91,61.054 C153.91,59.85 154.75,59.066 156.29,59.066 L158.362,59.066 L158.362,58.408 C158.362,57.4 157.858,56.896 156.598,56.896 C155.716,56.896 155.268,57.106 154.862,57.68 L154.176,57.05 C154.792,56.252 155.492,56.028 156.612,56.028 C158.46,56.028 159.37,56.826 159.37,58.324 L159.37,63 Z M158.362,60.564 L158.362,59.822 L156.43,59.822 C155.394,59.822 154.89,60.242 154.89,61.04 C154.89,61.838 155.38,62.216 156.472,62.216 C157.06,62.216 157.578,62.174 158.012,61.754 C158.25,61.53 158.362,61.138 158.362,60.564 Z M166.762,56.672 L166.02,57.428 C165.642,57.05 165.362,56.924 164.83,56.924 C163.822,56.924 163.178,57.722 163.178,58.772 L163.178,63 L162.17,63 L162.17,56.112 L163.178,56.112 L163.178,56.952 C163.556,56.378 164.312,56.028 165.11,56.028 C165.768,56.028 166.272,56.182 166.762,56.672 Z M173.244,60.984 C173.244,62.314 172.11,63.084 170.444,63.084 C169.282,63.084 168.372,62.818 167.616,62.09 L168.288,61.418 C168.834,61.992 169.576,62.216 170.43,62.216 C171.564,62.216 172.264,61.81 172.264,60.998 C172.264,60.396 171.914,60.06 171.116,59.99 L169.982,59.892 C168.638,59.78 167.924,59.178 167.924,58.044 C167.924,56.784 168.988,56.028 170.458,56.028 C171.438,56.028 172.32,56.266 172.936,56.77 L172.278,57.428 C171.788,57.05 171.158,56.882 170.444,56.882 C169.436,56.882 168.904,57.316 168.904,58.016 C168.904,58.604 169.24,58.954 170.108,59.024 L171.214,59.122 C172.418,59.234 173.244,59.696 173.244,60.984 Z M184.668,59.556 C184.668,60.62 184.528,61.586 183.828,62.3 C183.352,62.776 182.694,63.084 181.854,63.084 C181.014,63.084 180.356,62.776 179.88,62.3 C179.18,61.586 179.04,60.62 179.04,59.556 C179.04,58.492 179.18,57.526 179.88,56.812 C180.356,56.336 181.014,56.028 181.854,56.028 C182.694,56.028 183.352,56.336 183.828,56.812 C184.528,57.526 184.668,58.492 184.668,59.556 Z M183.66,59.556 C183.66,58.786 183.618,57.932 183.114,57.428 C182.792,57.106 182.344,56.924 181.854,56.924 C181.364,56.924 180.93,57.106 180.608,57.428 C180.104,57.932 180.048,58.786 180.048,59.556 C180.048,60.326 180.104,61.18 180.608,61.684 C180.93,62.006 181.364,62.188 181.854,62.188 C182.344,62.188 182.792,62.006 183.114,61.684 C183.618,61.18 183.66,60.326 183.66,59.556 Z M189.876,56.924 L188.406,56.924 L188.406,63 L187.398,63 L187.398,56.924 L186.516,56.924 L186.516,56.154 L187.398,56.154 L187.398,54.852 C187.398,53.83 187.972,53.004 189.148,53.004 L189.876,53.004 L189.876,53.872 L189.33,53.872 C188.686,53.872 188.406,54.25 188.406,54.88 L188.406,56.154 L189.876,56.154 L189.876,56.924 Z M202.728,55.958 C202.728,57.75 201.468,58.898 199.648,58.898 L197.002,58.898 L197.002,63 L195.938,63 L195.938,53.032 L199.648,53.032 C201.468,53.032 202.728,54.166 202.728,55.958 Z M201.664,55.958 C201.664,54.642 200.796,53.984 199.55,53.984 L197.002,53.984 L197.002,57.946 L199.55,57.946 C200.796,57.946 201.664,57.274 201.664,55.958 Z M209.518,56.672 L208.776,57.428 C208.398,57.05 208.118,56.924 207.586,56.924 C206.578,56.924 205.934,57.722 205.934,58.772 L205.934,63 L204.926,63 L204.926,56.112 L205.934,56.112 L205.934,56.952 C206.312,56.378 207.068,56.028 207.866,56.028 C208.524,56.028 209.028,56.182 209.518,56.672 Z M215.944,63 L214.936,63 L214.936,62.342 C214.376,62.902 213.872,63.084 212.948,63.084 C211.996,63.084 211.436,62.902 211.002,62.454 C210.666,62.118 210.484,61.6 210.484,61.054 C210.484,59.85 211.324,59.066 212.864,59.066 L214.936,59.066 L214.936,58.408 C214.936,57.4 214.432,56.896 213.172,56.896 C212.29,56.896 211.842,57.106 211.436,57.68 L210.75,57.05 C211.366,56.252 212.066,56.028 213.186,56.028 C215.034,56.028 215.944,56.826 215.944,58.324 L215.944,63 Z M214.936,60.564 L214.936,59.822 L213.004,59.822 C211.968,59.822 211.464,60.242 211.464,61.04 C211.464,61.838 211.954,62.216 213.046,62.216 C213.634,62.216 214.152,62.174 214.586,61.754 C214.824,61.53 214.936,61.138 214.936,60.564 Z M223.686,62.062 C222.972,62.832 222.37,63.084 221.418,63.084 C219.682,63.084 218.366,61.908 218.366,59.556 C218.366,57.204 219.682,56.028 221.418,56.028 C222.37,56.028 222.972,56.28 223.686,57.05 L223,57.694 C222.482,57.12 222.076,56.924 221.418,56.924 C220.746,56.924 220.186,57.19 219.822,57.708 C219.5,58.156 219.374,58.688 219.374,59.556 C219.374,60.424 219.5,60.956 219.822,61.404 C220.186,61.922 220.746,62.188 221.418,62.188 C222.076,62.188 222.482,61.978 223,61.404 L223.686,62.062 Z M228.6,63 L227.886,63 C226.71,63 226.122,62.174 226.122,61.152 L226.122,56.924 L225.254,56.924 L225.254,56.154 L226.122,56.154 L226.122,53.998 L227.13,53.998 L227.13,56.154 L228.6,56.154 L228.6,56.924 L227.13,56.924 L227.13,61.124 C227.13,61.754 227.424,62.132 228.068,62.132 L228.6,62.132 L228.6,63 Z M232.03,54.152 L230.896,54.152 L230.896,53.018 L232.03,53.018 L232.03,54.152 Z M231.96,63 L230.952,63 L230.952,56.112 L231.96,56.112 L231.96,63 Z M239.786,62.062 C239.072,62.832 238.47,63.084 237.518,63.084 C235.782,63.084 234.466,61.908 234.466,59.556 C234.466,57.204 235.782,56.028 237.518,56.028 C238.47,56.028 239.072,56.28 239.786,57.05 L239.1,57.694 C238.582,57.12 238.176,56.924 237.518,56.924 C236.846,56.924 236.286,57.19 235.922,57.708 C235.6,58.156 235.474,58.688 235.474,59.556 C235.474,60.424 235.6,60.956 235.922,61.404 C236.286,61.922 236.846,62.188 237.518,62.188 C238.176,62.188 238.582,61.978 239.1,61.404 L239.786,62.062 Z M247.122,59.822 L242.474,59.822 C242.474,61.334 243.188,62.202 244.504,62.202 C245.302,62.202 245.764,61.964 246.31,61.418 L246.996,62.02 C246.296,62.72 245.652,63.084 244.476,63.084 C242.656,63.084 241.466,61.992 241.466,59.556 C241.466,57.33 242.544,56.028 244.294,56.028 C246.072,56.028 247.122,57.316 247.122,59.36 L247.122,59.822 Z M246.114,59.066 C246.086,58.506 246.058,58.296 245.904,57.918 C245.638,57.288 245.022,56.882 244.294,56.882 C243.566,56.882 242.95,57.288 242.684,57.918 C242.53,58.296 242.502,58.506 242.474,59.066 L246.114,59.066 Z M254.528,54.152 L253.394,54.152 L253.394,53.018 L254.528,53.018 L254.528,54.152 Z M254.458,63 L253.45,63 L253.45,56.112 L254.458,56.112 L254.458,63 Z M262.76,63 L261.752,63 L261.752,58.758 C261.752,57.54 261.094,56.924 260.058,56.924 C259.022,56.924 258.35,57.554 258.35,58.758 L258.35,63 L257.342,63 L257.342,56.112 L258.35,56.112 L258.35,56.868 C258.84,56.308 259.512,56.028 260.282,56.028 C261.024,56.028 261.626,56.252 262.046,56.672 C262.536,57.148 262.76,57.792 262.76,58.59 L262.76,63 Z M275.766,53.984 L270.642,53.984 L270.642,57.652 L275.01,57.652 L275.01,58.604 L270.642,58.604 L270.642,63 L269.578,63 L269.578,53.032 L275.766,53.032 L275.766,53.984 Z M278.944,54.152 L277.81,54.152 L277.81,53.018 L278.944,53.018 L278.944,54.152 Z M278.874,63 L277.866,63 L277.866,56.112 L278.874,56.112 L278.874,63 Z M287.176,63 L286.168,63 L286.168,58.758 C286.168,57.54 285.51,56.924 284.474,56.924 C283.438,56.924 282.766,57.554 282.766,58.758 L282.766,63 L281.758,63 L281.758,56.112 L282.766,56.112 L282.766,56.868 C283.256,56.308 283.928,56.028 284.698,56.028 C285.44,56.028 286.042,56.252 286.462,56.672 C286.952,57.148 287.176,57.792 287.176,58.59 L287.176,63 Z M294.89,63 L293.882,63 L293.882,62.342 C293.322,62.902 292.818,63.084 291.894,63.084 C290.942,63.084 290.382,62.902 289.948,62.454 C289.612,62.118 289.43,61.6 289.43,61.054 C289.43,59.85 290.27,59.066 291.81,59.066 L293.882,59.066 L293.882,58.408 C293.882,57.4 293.378,56.896 292.118,56.896 C291.236,56.896 290.788,57.106 290.382,57.68 L289.696,57.05 C290.312,56.252 291.012,56.028 292.132,56.028 C293.98,56.028 294.89,56.826 294.89,58.324 L294.89,63 Z M293.882,60.564 L293.882,59.822 L291.95,59.822 C290.914,59.822 290.41,60.242 290.41,61.04 C290.41,61.838 290.9,62.216 291.992,62.216 C292.58,62.216 293.098,62.174 293.532,61.754 C293.77,61.53 293.882,61.138 293.882,60.564 Z M303.108,63 L302.1,63 L302.1,58.758 C302.1,57.54 301.442,56.924 300.406,56.924 C299.37,56.924 298.698,57.554 298.698,58.758 L298.698,63 L297.69,63 L297.69,56.112 L298.698,56.112 L298.698,56.868 C299.188,56.308 299.86,56.028 300.63,56.028 C301.372,56.028 301.974,56.252 302.394,56.672 C302.884,57.148 303.108,57.792 303.108,58.59 L303.108,63 Z M310.85,62.062 C310.136,62.832 309.534,63.084 308.582,63.084 C306.846,63.084 305.53,61.908 305.53,59.556 C305.53,57.204 306.846,56.028 308.582,56.028 C309.534,56.028 310.136,56.28 310.85,57.05 L310.164,57.694 C309.646,57.12 309.24,56.924 308.582,56.924 C307.91,56.924 307.35,57.19 306.986,57.708 C306.664,58.156 306.538,58.688 306.538,59.556 C306.538,60.424 306.664,60.956 306.986,61.404 C307.35,61.922 307.91,62.188 308.582,62.188 C309.24,62.188 309.646,61.978 310.164,61.404 L310.85,62.062 Z M314.196,54.152 L313.062,54.152 L313.062,53.018 L314.196,53.018 L314.196,54.152 Z M314.126,63 L313.118,63 L313.118,56.112 L314.126,56.112 L314.126,63 Z M321.924,63 L320.916,63 L320.916,62.342 C320.356,62.902 319.852,63.084 318.928,63.084 C317.976,63.084 317.416,62.902 316.982,62.454 C316.646,62.118 316.464,61.6 316.464,61.054 C316.464,59.85 317.304,59.066 318.844,59.066 L320.916,59.066 L320.916,58.408 C320.916,57.4 320.412,56.896 319.152,56.896 C318.27,56.896 317.822,57.106 317.416,57.68 L316.73,57.05 C317.346,56.252 318.046,56.028 319.166,56.028 C321.014,56.028 321.924,56.826 321.924,58.324 L321.924,63 Z M320.916,60.564 L320.916,59.822 L318.984,59.822 C317.948,59.822 317.444,60.242 317.444,61.04 C317.444,61.838 317.934,62.216 319.026,62.216 C319.614,62.216 320.132,62.174 320.566,61.754 C320.804,61.53 320.916,61.138 320.916,60.564 Z M327.174,63 L326.446,63 C325.242,63 324.696,62.216 324.696,61.166 L324.696,53.032 L325.704,53.032 L325.704,61.124 C325.704,61.796 325.928,62.132 326.628,62.132 L327.174,62.132 L327.174,63 Z M339.06,53.984 L336.176,53.984 L336.176,63 L335.112,63 L335.112,53.984 L332.228,53.984 L332.228,53.032 L339.06,53.032 L339.06,53.984 Z M344.926,56.672 L344.184,57.428 C343.806,57.05 343.526,56.924 342.994,56.924 C341.986,56.924 341.342,57.722 341.342,58.772 L341.342,63 L340.334,63 L340.334,56.112 L341.342,56.112 L341.342,56.952 C341.72,56.378 342.476,56.028 343.274,56.028 C343.932,56.028 344.436,56.182 344.926,56.672 Z M351.352,63 L350.344,63 L350.344,62.342 C349.784,62.902 349.28,63.084 348.356,63.084 C347.404,63.084 346.844,62.902 346.41,62.454 C346.074,62.118 345.892,61.6 345.892,61.054 C345.892,59.85 346.732,59.066 348.272,59.066 L350.344,59.066 L350.344,58.408 C350.344,57.4 349.84,56.896 348.58,56.896 C347.698,56.896 347.25,57.106 346.844,57.68 L346.158,57.05 C346.774,56.252 347.474,56.028 348.594,56.028 C350.442,56.028 351.352,56.826 351.352,58.324 L351.352,63 Z M350.344,60.564 L350.344,59.822 L348.412,59.822 C347.376,59.822 346.872,60.242 346.872,61.04 C346.872,61.838 347.362,62.216 348.454,62.216 C349.042,62.216 349.56,62.174 349.994,61.754 C350.232,61.53 350.344,61.138 350.344,60.564 Z M359.262,63 L358.268,63 L358.268,62.174 C357.708,62.902 357.064,63.084 356.308,63.084 C355.608,63.084 354.992,62.846 354.628,62.482 C353.928,61.782 353.788,60.634 353.788,59.556 C353.788,58.478 353.928,57.33 354.628,56.63 C354.992,56.266 355.608,56.028 356.308,56.028 C357.064,56.028 357.694,56.196 358.254,56.91 L358.254,53.032 L359.262,53.032 L359.262,63 Z M358.254,59.556 C358.254,58.212 358.03,56.924 356.532,56.924 C355.034,56.924 354.796,58.212 354.796,59.556 C354.796,60.9 355.034,62.188 356.532,62.188 C358.03,62.188 358.254,60.9 358.254,59.556 Z M363.21,54.152 L362.076,54.152 L362.076,53.018 L363.21,53.018 L363.21,54.152 Z M363.14,63 L362.132,63 L362.132,56.112 L363.14,56.112 L363.14,63 Z M371.442,63 L370.434,63 L370.434,58.758 C370.434,57.54 369.776,56.924 368.74,56.924 C367.704,56.924 367.032,57.554 367.032,58.758 L367.032,63 L366.024,63 L366.024,56.112 L367.032,56.112 L367.032,56.868 C367.522,56.308 368.194,56.028 368.964,56.028 C369.706,56.028 370.308,56.252 370.728,56.672 C371.218,57.148 371.442,57.792 371.442,58.59 L371.442,63 Z M379.324,63.21 C379.324,64.918 378.26,66.164 376.454,66.164 C375.418,66.164 374.844,65.898 374.116,65.24 L374.774,64.596 C375.278,65.044 375.628,65.282 376.426,65.282 C377.756,65.282 378.316,64.344 378.316,63.168 L378.316,62.09 C377.756,62.804 377.126,62.986 376.384,62.986 C375.684,62.986 375.082,62.734 374.718,62.37 C374.032,61.684 373.878,60.62 373.878,59.5 C373.878,58.38 374.032,57.316 374.718,56.63 C375.082,56.266 375.698,56.028 376.398,56.028 C377.154,56.028 377.77,56.196 378.33,56.924 L378.33,56.112 L379.324,56.112 L379.324,63.21 Z M378.316,59.5 C378.316,58.212 378.106,56.924 376.608,56.924 C375.11,56.924 374.886,58.212 374.886,59.5 C374.886,60.788 375.11,62.076 376.608,62.076 C378.106,62.076 378.316,60.788 378.316,59.5 Z M394.164,63 L392.834,63 L391.938,61.908 C391.532,62.286 390.594,63.084 388.998,63.084 C387.066,63.084 385.848,61.922 385.848,60.186 C385.848,58.688 386.912,57.932 388.004,57.204 C387.514,56.616 386.926,55.93 386.926,55.034 C386.926,53.844 387.85,52.948 389.124,52.948 C390.37,52.948 391.294,53.858 391.294,55.048 C391.294,55.846 390.818,56.392 390.188,56.826 C390.188,56.826 389.684,57.162 389.446,57.33 L391.994,60.396 C392.4,59.78 392.54,59.234 392.554,58.114 L393.562,58.114 C393.548,59.374 393.282,60.396 392.638,61.166 L394.164,63 Z M390.3,55.048 C390.3,54.376 389.796,53.858 389.124,53.858 C388.438,53.858 387.976,54.348 387.976,55.02 C387.976,55.482 388.214,55.86 388.872,56.658 C389.04,56.546 389.404,56.294 389.404,56.294 C389.866,55.972 390.3,55.622 390.3,55.048 Z M391.336,61.18 L388.592,57.876 C387.738,58.464 386.884,59.024 386.884,60.158 C386.884,61.348 387.752,62.146 388.984,62.146 C389.726,62.146 390.482,61.95 391.336,61.18 Z M407.59,60.242 C407.59,62.048 406.386,63 404.622,63 L400.744,63 L400.744,53.032 L404.496,53.032 C406.232,53.032 407.436,54.026 407.436,55.692 C407.436,56.742 406.806,57.568 405.966,57.876 C406.918,58.226 407.59,59.052 407.59,60.242 Z M406.372,55.706 C406.372,54.516 405.518,53.984 404.412,53.984 L401.808,53.984 L401.808,57.442 L404.412,57.442 C405.518,57.442 406.372,56.896 406.372,55.706 Z M406.526,60.214 C406.526,59.094 405.756,58.394 404.524,58.394 L401.808,58.394 L401.808,62.048 L404.524,62.048 C405.756,62.048 406.526,61.334 406.526,60.214 Z M412.714,63 L411.986,63 C410.782,63 410.236,62.216 410.236,61.166 L410.236,53.032 L411.244,53.032 L411.244,61.124 C411.244,61.796 411.468,62.132 412.168,62.132 L412.714,62.132 L412.714,63 Z M419.756,59.556 C419.756,60.62 419.616,61.586 418.916,62.3 C418.44,62.776 417.782,63.084 416.942,63.084 C416.102,63.084 415.444,62.776 414.968,62.3 C414.268,61.586 414.128,60.62 414.128,59.556 C414.128,58.492 414.268,57.526 414.968,56.812 C415.444,56.336 416.102,56.028 416.942,56.028 C417.782,56.028 418.44,56.336 418.916,56.812 C419.616,57.526 419.756,58.492 419.756,59.556 Z M418.748,59.556 C418.748,58.786 418.706,57.932 418.202,57.428 C417.88,57.106 417.432,56.924 416.942,56.924 C416.452,56.924 416.018,57.106 415.696,57.428 C415.192,57.932 415.136,58.786 415.136,59.556 C415.136,60.326 415.192,61.18 415.696,61.684 C416.018,62.006 416.452,62.188 416.942,62.188 C417.432,62.188 417.88,62.006 418.202,61.684 C418.706,61.18 418.748,60.326 418.748,59.556 Z M427.204,62.062 C426.49,62.832 425.888,63.084 424.936,63.084 C423.2,63.084 421.884,61.908 421.884,59.556 C421.884,57.204 423.2,56.028 424.936,56.028 C425.888,56.028 426.49,56.28 427.204,57.05 L426.518,57.694 C426,57.12 425.594,56.924 424.936,56.924 C424.264,56.924 423.704,57.19 423.34,57.708 C423.018,58.156 422.892,58.688 422.892,59.556 C422.892,60.424 423.018,60.956 423.34,61.404 C423.704,61.922 424.264,62.188 424.936,62.188 C425.594,62.188 426,61.978 426.518,61.404 L427.204,62.062 Z M435.254,63 L434.008,63 L431.824,59.472 L430.48,61.012 L430.48,63 L429.472,63 L429.472,53.032 L430.48,53.032 L430.48,59.696 L433.588,56.112 L434.848,56.112 L432.51,58.744 L435.254,63 Z M441.988,62.062 C441.274,62.832 440.672,63.084 439.72,63.084 C437.984,63.084 436.668,61.908 436.668,59.556 C436.668,57.204 437.984,56.028 439.72,56.028 C440.672,56.028 441.274,56.28 441.988,57.05 L441.302,57.694 C440.784,57.12 440.378,56.924 439.72,56.924 C439.048,56.924 438.488,57.19 438.124,57.708 C437.802,58.156 437.676,58.688 437.676,59.556 C437.676,60.424 437.802,60.956 438.124,61.404 C438.488,61.922 439.048,62.188 439.72,62.188 C440.378,62.188 440.784,61.978 441.302,61.404 L441.988,62.062 Z M449.674,63 L448.666,63 L448.666,58.744 C448.666,57.54 448.022,56.924 446.986,56.924 C445.95,56.924 445.264,57.554 445.264,58.744 L445.264,63 L444.256,63 L444.256,53.032 L445.264,53.032 L445.264,56.868 C445.768,56.294 446.426,56.028 447.196,56.028 C448.75,56.028 449.674,57.022 449.674,58.576 L449.674,63 Z M457.388,63 L456.38,63 L456.38,62.342 C455.82,62.902 455.316,63.084 454.392,63.084 C453.44,63.084 452.88,62.902 452.446,62.454 C452.11,62.118 451.928,61.6 451.928,61.054 C451.928,59.85 452.768,59.066 454.308,59.066 L456.38,59.066 L456.38,58.408 C456.38,57.4 455.876,56.896 454.616,56.896 C453.734,56.896 453.286,57.106 452.88,57.68 L452.194,57.05 C452.81,56.252 453.51,56.028 454.63,56.028 C456.478,56.028 457.388,56.826 457.388,58.324 L457.388,63 Z M456.38,60.564 L456.38,59.822 L454.448,59.822 C453.412,59.822 452.908,60.242 452.908,61.04 C452.908,61.838 453.398,62.216 454.49,62.216 C455.078,62.216 455.596,62.174 456.03,61.754 C456.268,61.53 456.38,61.138 456.38,60.564 Z M461.266,54.152 L460.132,54.152 L460.132,53.018 L461.266,53.018 L461.266,54.152 Z M461.196,63 L460.188,63 L460.188,56.112 L461.196,56.112 L461.196,63 Z M469.498,63 L468.49,63 L468.49,58.758 C468.49,57.54 467.832,56.924 466.796,56.924 C465.76,56.924 465.088,57.554 465.088,58.758 L465.088,63 L464.08,63 L464.08,56.112 L465.088,56.112 L465.088,56.868 C465.578,56.308 466.25,56.028 467.02,56.028 C467.762,56.028 468.364,56.252 468.784,56.672 C469.274,57.148 469.498,57.792 469.498,58.59 L469.498,63 Z M477.38,63 L476.316,63 L476.316,53.032 L477.38,53.032 L477.38,63 Z M485.85,63 L484.842,63 L484.842,58.758 C484.842,57.54 484.184,56.924 483.148,56.924 C482.112,56.924 481.44,57.554 481.44,58.758 L481.44,63 L480.432,63 L480.432,56.112 L481.44,56.112 L481.44,56.868 C481.93,56.308 482.602,56.028 483.372,56.028 C484.114,56.028 484.716,56.252 485.136,56.672 C485.626,57.148 485.85,57.792 485.85,58.59 L485.85,63 Z M493.76,63 L492.766,63 L492.766,62.174 C492.206,62.902 491.562,63.084 490.806,63.084 C490.106,63.084 489.49,62.846 489.126,62.482 C488.426,61.782 488.286,60.634 488.286,59.556 C488.286,58.478 488.426,57.33 489.126,56.63 C489.49,56.266 490.106,56.028 490.806,56.028 C491.562,56.028 492.192,56.196 492.752,56.91 L492.752,53.032 L493.76,53.032 L493.76,63 Z M492.752,59.556 C492.752,58.212 492.528,56.924 491.03,56.924 C489.532,56.924 489.294,58.212 489.294,59.556 C489.294,60.9 489.532,62.188 491.03,62.188 C492.528,62.188 492.752,60.9 492.752,59.556 Z M501.978,63 L500.984,63 L500.984,62.23 C500.494,62.79 499.808,63.084 499.038,63.084 C498.296,63.084 497.68,62.86 497.26,62.44 C496.77,61.964 496.56,61.306 496.56,60.508 L496.56,56.112 L497.568,56.112 L497.568,60.354 C497.568,61.572 498.212,62.188 499.248,62.188 C500.284,62.188 500.97,61.558 500.97,60.354 L500.97,56.112 L501.978,56.112 L501.978,63 Z M509.818,60.984 C509.818,62.314 508.684,63.084 507.018,63.084 C505.856,63.084 504.946,62.818 504.19,62.09 L504.862,61.418 C505.408,61.992 506.15,62.216 507.004,62.216 C508.138,62.216 508.838,61.81 508.838,60.998 C508.838,60.396 508.488,60.06 507.69,59.99 L506.556,59.892 C505.212,59.78 504.498,59.178 504.498,58.044 C504.498,56.784 505.562,56.028 507.032,56.028 C508.012,56.028 508.894,56.266 509.51,56.77 L508.852,57.428 C508.362,57.05 507.732,56.882 507.018,56.882 C506.01,56.882 505.478,57.316 505.478,58.016 C505.478,58.604 505.814,58.954 506.682,59.024 L507.788,59.122 C508.992,59.234 509.818,59.696 509.818,60.984 Z M514.648,63 L513.934,63 C512.758,63 512.17,62.174 512.17,61.152 L512.17,56.924 L511.302,56.924 L511.302,56.154 L512.17,56.154 L512.17,53.998 L513.178,53.998 L513.178,56.154 L514.648,56.154 L514.648,56.924 L513.178,56.924 L513.178,61.124 C513.178,61.754 513.472,62.132 514.116,62.132 L514.648,62.132 L514.648,63 Z M521.592,56.672 L520.85,57.428 C520.472,57.05 520.192,56.924 519.66,56.924 C518.652,56.924 518.008,57.722 518.008,58.772 L518.008,63 L517,63 L517,56.112 L518.008,56.112 L518.008,56.952 C518.386,56.378 519.142,56.028 519.94,56.028 C520.598,56.028 521.102,56.182 521.592,56.672 Z M528.088,56.112 L524.952,64.666 C524.812,65.044 524.658,65.296 524.462,65.478 C524.098,65.828 523.608,65.954 523.118,65.954 L522.684,65.954 L522.684,65.058 L522.992,65.058 C523.692,65.058 523.902,64.834 524.126,64.204 L524.616,62.86 L522.138,56.112 L523.23,56.112 L525.12,61.642 L526.996,56.112 L528.088,56.112 Z M531.056,63.91 L529.824,65.016 L529.824,61.768 L531.056,61.768 L531.056,63.91 Z M548.206,53.032 L545.658,63 L544.664,63 L542.452,55.02 L540.24,63 L539.246,63 L536.698,53.032 L537.832,53.032 L539.778,61.068 L541.976,53.032 L542.928,53.032 L545.126,61.068 L547.072,53.032 L548.206,53.032 Z M554.758,59.822 L550.11,59.822 C550.11,61.334 550.824,62.202 552.14,62.202 C552.938,62.202 553.4,61.964 553.946,61.418 L554.632,62.02 C553.932,62.72 553.288,63.084 552.112,63.084 C550.292,63.084 549.102,61.992 549.102,59.556 C549.102,57.33 550.18,56.028 551.93,56.028 C553.708,56.028 554.758,57.316 554.758,59.36 L554.758,59.822 Z M553.75,59.066 C553.722,58.506 553.694,58.296 553.54,57.918 C553.274,57.288 552.658,56.882 551.93,56.882 C551.202,56.882 550.586,57.288 550.32,57.918 C550.166,58.296 550.138,58.506 550.11,59.066 L553.75,59.066 Z M568.058,55.958 C568.058,57.75 566.798,58.898 564.978,58.898 L562.332,58.898 L562.332,63 L561.268,63 L561.268,53.032 L564.978,53.032 C566.798,53.032 568.058,54.166 568.058,55.958 Z M566.994,55.958 C566.994,54.642 566.126,53.984 564.88,53.984 L562.332,53.984 L562.332,57.946 L564.88,57.946 C566.126,57.946 566.994,57.274 566.994,55.958 Z M574.848,56.672 L574.106,57.428 C573.728,57.05 573.448,56.924 572.916,56.924 C571.908,56.924 571.264,57.722 571.264,58.772 L571.264,63 L570.256,63 L570.256,56.112 L571.264,56.112 L571.264,56.952 C571.642,56.378 572.398,56.028 573.196,56.028 C573.854,56.028 574.358,56.182 574.848,56.672 Z M581.288,59.556 C581.288,60.62 581.148,61.586 580.448,62.3 C579.972,62.776 579.314,63.084 578.474,63.084 C577.634,63.084 576.976,62.776 576.5,62.3 C575.8,61.586 575.66,60.62 575.66,59.556 C575.66,58.492 575.8,57.526 576.5,56.812 C576.976,56.336 577.634,56.028 578.474,56.028 C579.314,56.028 579.972,56.336 580.448,56.812 C581.148,57.526 581.288,58.492 581.288,59.556 Z M580.28,59.556 C580.28,58.786 580.238,57.932 579.734,57.428 C579.412,57.106 578.964,56.924 578.474,56.924 C577.984,56.924 577.55,57.106 577.228,57.428 C576.724,57.932 576.668,58.786 576.668,59.556 C576.668,60.326 576.724,61.18 577.228,61.684 C577.55,62.006 577.984,62.188 578.474,62.188 C578.964,62.188 579.412,62.006 579.734,61.684 C580.238,61.18 580.28,60.326 580.28,59.556 Z M588.498,56.112 L585.964,63 L585.068,63 L582.548,56.112 L583.64,56.112 L585.516,61.642 L587.406,56.112 L588.498,56.112 Z M591.34,54.152 L590.206,54.152 L590.206,53.018 L591.34,53.018 L591.34,54.152 Z M591.27,63 L590.262,63 L590.262,56.112 L591.27,56.112 L591.27,63 Z M599.264,63 L598.27,63 L598.27,62.174 C597.71,62.902 597.066,63.084 596.31,63.084 C595.61,63.084 594.994,62.846 594.63,62.482 C593.93,61.782 593.79,60.634 593.79,59.556 C593.79,58.478 593.93,57.33 594.63,56.63 C594.994,56.266 595.61,56.028 596.31,56.028 C597.066,56.028 597.696,56.196 598.256,56.91 L598.256,53.032 L599.264,53.032 L599.264,63 Z M598.256,59.556 C598.256,58.212 598.032,56.924 596.534,56.924 C595.036,56.924 594.798,58.212 594.798,59.556 C594.798,60.9 595.036,62.188 596.534,62.188 C598.032,62.188 598.256,60.9 598.256,59.556 Z M607.412,59.822 L602.764,59.822 C602.764,61.334 603.478,62.202 604.794,62.202 C605.592,62.202 606.054,61.964 606.6,61.418 L607.286,62.02 C606.586,62.72 605.942,63.084 604.766,63.084 C602.946,63.084 601.756,61.992 601.756,59.556 C601.756,57.33 602.834,56.028 604.584,56.028 C606.362,56.028 607.412,57.316 607.412,59.36 L607.412,59.822 Z M606.404,59.066 C606.376,58.506 606.348,58.296 606.194,57.918 C605.928,57.288 605.312,56.882 604.584,56.882 C603.856,56.882 603.24,57.288 602.974,57.918 C602.82,58.296 602.792,58.506 602.764,59.066 L606.404,59.066 Z M620.922,62.846 L620.278,63.49 L619.172,62.384 C618.57,62.846 617.828,63.084 617.03,63.084 C616.036,63.084 615.154,62.72 614.482,62.048 C613.544,61.11 613.544,60.13 613.544,58.016 C613.544,55.902 613.544,54.922 614.482,53.984 C615.154,53.312 616.036,52.948 617.03,52.948 C618.024,52.948 618.906,53.312 619.578,53.984 C620.516,54.922 620.516,55.902 620.516,58.016 C620.516,59.92 620.516,60.9 619.83,61.754 L620.922,62.846 Z M619.452,58.016 C619.452,55.93 619.382,55.258 618.752,54.614 C618.318,54.166 617.688,53.9 617.03,53.9 C616.372,53.9 615.742,54.166 615.308,54.614 C614.678,55.258 614.608,55.93 614.608,58.016 C614.608,60.102 614.678,60.774 615.308,61.418 C615.742,61.866 616.372,62.132 617.03,62.132 C617.562,62.132 618.038,61.964 618.444,61.656 L617.184,60.396 L617.828,59.752 L619.046,60.97 C619.41,60.382 619.452,59.612 619.452,58.016 Z M628.524,63 L627.53,63 L627.53,62.23 C627.04,62.79 626.354,63.084 625.584,63.084 C624.842,63.084 624.226,62.86 623.806,62.44 C623.316,61.964 623.106,61.306 623.106,60.508 L623.106,56.112 L624.114,56.112 L624.114,60.354 C624.114,61.572 624.758,62.188 625.794,62.188 C626.83,62.188 627.516,61.558 627.516,60.354 L627.516,56.112 L628.524,56.112 L628.524,63 Z M636.308,63 L635.3,63 L635.3,62.342 C634.74,62.902 634.236,63.084 633.312,63.084 C632.36,63.084 631.8,62.902 631.366,62.454 C631.03,62.118 630.848,61.6 630.848,61.054 C630.848,59.85 631.688,59.066 633.228,59.066 L635.3,59.066 L635.3,58.408 C635.3,57.4 634.796,56.896 633.536,56.896 C632.654,56.896 632.206,57.106 631.8,57.68 L631.114,57.05 C631.73,56.252 632.43,56.028 633.55,56.028 C635.398,56.028 636.308,56.826 636.308,58.324 L636.308,63 Z M635.3,60.564 L635.3,59.822 L633.368,59.822 C632.332,59.822 631.828,60.242 631.828,61.04 C631.828,61.838 632.318,62.216 633.41,62.216 C633.998,62.216 634.516,62.174 634.95,61.754 C635.188,61.53 635.3,61.138 635.3,60.564 Z M641.558,63 L640.83,63 C639.626,63 639.08,62.216 639.08,61.166 L639.08,53.032 L640.088,53.032 L640.088,61.124 C640.088,61.796 640.312,62.132 641.012,62.132 L641.558,62.132 L641.558,63 Z M644.694,54.152 L643.56,54.152 L643.56,53.018 L644.694,53.018 L644.694,54.152 Z M644.624,63 L643.616,63 L643.616,56.112 L644.624,56.112 L644.624,63 Z M650.154,63 L649.44,63 C648.264,63 647.676,62.174 647.676,61.152 L647.676,56.924 L646.808,56.924 L646.808,56.154 L647.676,56.154 L647.676,53.998 L648.684,53.998 L648.684,56.154 L650.154,56.154 L650.154,56.924 L648.684,56.924 L648.684,61.124 C648.684,61.754 648.978,62.132 649.622,62.132 L650.154,62.132 L650.154,63 Z M657.35,56.112 L654.214,64.666 C654.074,65.044 653.92,65.296 653.724,65.478 C653.36,65.828 652.87,65.954 652.38,65.954 L651.946,65.954 L651.946,65.058 L652.254,65.058 C652.954,65.058 653.164,64.834 653.388,64.204 L653.878,62.86 L651.4,56.112 L652.492,56.112 L654.382,61.642 L656.258,56.112 L657.35,56.112 Z M669.922,55.958 C669.922,57.75 668.662,58.898 666.842,58.898 L664.196,58.898 L664.196,63 L663.132,63 L663.132,53.032 L666.842,53.032 C668.662,53.032 669.922,54.166 669.922,55.958 Z M668.858,55.958 C668.858,54.642 667.99,53.984 666.744,53.984 L664.196,53.984 L664.196,57.946 L666.744,57.946 C667.99,57.946 668.858,57.274 668.858,55.958 Z M676.712,56.672 L675.97,57.428 C675.592,57.05 675.312,56.924 674.78,56.924 C673.772,56.924 673.128,57.722 673.128,58.772 L673.128,63 L672.12,63 L672.12,56.112 L673.128,56.112 L673.128,56.952 C673.506,56.378 674.262,56.028 675.06,56.028 C675.718,56.028 676.222,56.182 676.712,56.672 Z M683.152,59.556 C683.152,60.62 683.012,61.586 682.312,62.3 C681.836,62.776 681.178,63.084 680.338,63.084 C679.498,63.084 678.84,62.776 678.364,62.3 C677.664,61.586 677.524,60.62 677.524,59.556 C677.524,58.492 677.664,57.526 678.364,56.812 C678.84,56.336 679.498,56.028 680.338,56.028 C681.178,56.028 681.836,56.336 682.312,56.812 C683.012,57.526 683.152,58.492 683.152,59.556 Z M682.144,59.556 C682.144,58.786 682.102,57.932 681.598,57.428 C681.276,57.106 680.828,56.924 680.338,56.924 C679.848,56.924 679.414,57.106 679.092,57.428 C678.588,57.932 678.532,58.786 678.532,59.556 C678.532,60.326 678.588,61.18 679.092,61.684 C679.414,62.006 679.848,62.188 680.338,62.188 C680.828,62.188 681.276,62.006 681.598,61.684 C682.102,61.18 682.144,60.326 682.144,59.556 Z M690.767999,63 L689.773999,63 L689.773999,62.174 C689.213999,62.902 688.569999,63.084 687.813999,63.084 C687.113999,63.084 686.497999,62.846 686.133999,62.482 C685.433999,61.782 685.293999,60.634 685.293999,59.556 C685.293999,58.478 685.433999,57.33 686.133999,56.63 C686.497999,56.266 687.113999,56.028 687.813999,56.028 C688.569999,56.028 689.199999,56.196 689.759999,56.91 L689.759999,53.032 L690.767999,53.032 L690.767999,63 Z M689.759999,59.556 C689.759999,58.212 689.535999,56.924 688.037999,56.924 C686.539999,56.924 686.301999,58.212 686.301999,59.556 C686.301999,60.9 686.539999,62.188 688.037999,62.188 C689.535999,62.188 689.759999,60.9 689.759999,59.556 Z M698.985999,63 L697.991999,63 L697.991999,62.23 C697.501999,62.79 696.815999,63.084 696.045999,63.084 C695.303999,63.084 694.687999,62.86 694.267999,62.44 C693.777999,61.964 693.567999,61.306 693.567999,60.508 L693.567999,56.112 L694.575999,56.112 L694.575999,60.354 C694.575999,61.572 695.219999,62.188 696.255999,62.188 C697.291999,62.188 697.977999,61.558 697.977999,60.354 L697.977999,56.112 L698.985999,56.112 L698.985999,63 Z M706.797999,62.062 C706.083999,62.832 705.481999,63.084 704.529999,63.084 C702.793999,63.084 701.477999,61.908 701.477999,59.556 C701.477999,57.204 702.793999,56.028 704.529999,56.028 C705.481999,56.028 706.083999,56.28 706.797999,57.05 L706.111999,57.694 C705.593999,57.12 705.187999,56.924 704.529999,56.924 C703.857999,56.924 703.297999,57.19 702.933999,57.708 C702.611999,58.156 702.485999,58.688 702.485999,59.556 C702.485999,60.424 702.611999,60.956 702.933999,61.404 C703.297999,61.922 703.857999,62.188 704.529999,62.188 C705.187999,62.188 705.593999,61.978 706.111999,61.404 L706.797999,62.062 Z M711.711999,63 L710.997999,63 C709.821999,63 709.233999,62.174 709.233999,61.152 L709.233999,56.924 L708.365999,56.924 L708.365999,56.154 L709.233999,56.154 L709.233999,53.998 L710.241999,53.998 L710.241999,56.154 L711.711999,56.154 L711.711999,56.924 L710.241999,56.924 L710.241999,61.124 C710.241999,61.754 710.535999,62.132 711.179999,62.132 L711.711999,62.132 L711.711999,63 Z M719.033999,60.984 C719.033999,62.314 717.899999,63.084 716.233999,63.084 C715.071999,63.084 714.161999,62.818 713.405999,62.09 L714.077999,61.418 C714.623999,61.992 715.365999,62.216 716.219999,62.216 C717.353999,62.216 718.053999,61.81 718.053999,60.998 C718.053999,60.396 717.703999,60.06 716.905999,59.99 L715.771999,59.892 C714.427999,59.78 713.713999,59.178 713.713999,58.044 C713.713999,56.784 714.777999,56.028 716.247999,56.028 C717.227999,56.028 718.109999,56.266 718.725999,56.77 L718.067999,57.428 C717.577999,57.05 716.947999,56.882 716.233999,56.882 C715.225999,56.882 714.693999,57.316 714.693999,58.016 C714.693999,58.604 715.029999,58.954 715.897999,59.024 L717.003999,59.122 C718.207999,59.234 719.033999,59.696 719.033999,60.984 Z M730.107999,63 L729.099999,63 L729.099999,62.342 C728.539999,62.902 728.035999,63.084 727.111999,63.084 C726.159999,63.084 725.599999,62.902 725.165999,62.454 C724.829999,62.118 724.647999,61.6 724.647999,61.054 C724.647999,59.85 725.487999,59.066 727.027999,59.066 L729.099999,59.066 L729.099999,58.408 C729.099999,57.4 728.595999,56.896 727.335999,56.896 C726.453999,56.896 726.005999,57.106 725.599999,57.68 L724.913999,57.05 C725.529999,56.252 726.229999,56.028 727.349999,56.028 C729.197999,56.028 730.107999,56.826 730.107999,58.324 L730.107999,63 Z M729.099999,60.564 L729.099999,59.822 L727.167999,59.822 C726.131999,59.822 725.627999,60.242 725.627999,61.04 C725.627999,61.838 726.117999,62.216 727.209999,62.216 C727.797999,62.216 728.315999,62.174 728.749999,61.754 C728.987999,61.53 729.099999,61.138 729.099999,60.564 Z M738.325999,63 L737.317999,63 L737.317999,58.758 C737.317999,57.54 736.659999,56.924 735.623999,56.924 C734.587999,56.924 733.915999,57.554 733.915999,58.758 L733.915999,63 L732.907999,63 L732.907999,56.112 L733.915999,56.112 L733.915999,56.868 C734.405999,56.308 735.077999,56.028 735.847999,56.028 C736.589999,56.028 737.191999,56.252 737.611999,56.672 C738.101999,57.148 738.325999,57.792 738.325999,58.59 L738.325999,63 Z M746.235999,63 L745.241999,63 L745.241999,62.174 C744.681999,62.902 744.037999,63.084 743.281999,63.084 C742.581999,63.084 741.965999,62.846 741.601999,62.482 C740.901999,61.782 740.761999,60.634 740.761999,59.556 C740.761999,58.478 740.901999,57.33 741.601999,56.63 C741.965999,56.266 742.581999,56.028 743.281999,56.028 C744.037999,56.028 744.667999,56.196 745.227999,56.91 L745.227999,53.032 L746.235999,53.032 L746.235999,63 Z M745.227999,59.556 C745.227999,58.212 745.003999,56.924 743.505999,56.924 C742.007999,56.924 741.769999,58.212 741.769999,59.556 C741.769999,60.9 742.007999,62.188 743.505999,62.188 C745.003999,62.188 745.227999,60.9 745.227999,59.556 Z M759.129999,60.256 C759.129999,62.006 757.757999,63.084 755.685999,63.084 C754.187999,63.084 753.207999,62.706 752.269999,61.768 L752.997999,61.04 C753.823999,61.866 754.593999,62.132 755.713999,62.132 C757.169999,62.132 758.065999,61.446 758.065999,60.284 C758.065999,59.766 757.911999,59.318 757.589999,59.038 C757.267999,58.758 757.015999,58.674 756.287999,58.562 L755.125999,58.38 C754.341999,58.254 753.725999,58.002 753.291999,57.624 C752.787999,57.176 752.535999,56.56 752.535999,55.762 C752.535999,54.068 753.753999,52.948 755.727999,52.948 C757.001999,52.948 757.841999,53.27 758.695999,54.04 L758.009999,54.726 C757.393999,54.166 756.735999,53.872 755.685999,53.872 C754.355999,53.872 753.585999,54.614 753.585999,55.72 C753.585999,56.21 753.725999,56.602 754.033999,56.868 C754.341999,57.134 754.859999,57.33 755.377999,57.414 L756.469999,57.582 C757.407999,57.722 757.869999,57.918 758.289999,58.282 C758.835999,58.744 759.129999,59.43 759.129999,60.256 Z M766.871999,63 L765.877999,63 L765.877999,62.23 C765.387999,62.79 764.701999,63.084 763.931999,63.084 C763.189999,63.084 762.573999,62.86 762.153999,62.44 C761.663999,61.964 761.453999,61.306 761.453999,60.508 L761.453999,56.112 L762.461999,56.112 L762.461999,60.354 C762.461999,61.572 763.105999,62.188 764.141999,62.188 C765.177999,62.188 765.863999,61.558 765.863999,60.354 L765.863999,56.112 L766.871999,56.112 L766.871999,63 Z M775.215999,59.556 C775.215999,60.634 775.075999,61.782 774.375999,62.482 C774.011999,62.846 773.395999,63.084 772.695999,63.084 C771.939999,63.084 771.309999,62.902 770.749999,62.188 L770.749999,66.08 L769.741999,66.08 L769.741999,56.112 L770.749999,56.112 L770.749999,56.924 C771.309999,56.196 771.939999,56.028 772.695999,56.028 C773.395999,56.028 774.011999,56.266 774.375999,56.63 C775.075999,57.33 775.215999,58.478 775.215999,59.556 Z M774.207999,59.556 C774.207999,58.212 773.983999,56.924 772.485999,56.924 C770.987999,56.924 770.749999,58.212 770.749999,59.556 C770.749999,60.9 770.987999,62.188 772.485999,62.188 C773.983999,62.188 774.207999,60.9 774.207999,59.556 Z M782.999999,59.822 L778.351999,59.822 C778.351999,61.334 779.065999,62.202 780.381999,62.202 C781.179999,62.202 781.641999,61.964 782.187999,61.418 L782.873999,62.02 C782.173999,62.72 781.529999,63.084 780.353999,63.084 C778.533999,63.084 777.343999,61.992 777.343999,59.556 C777.343999,57.33 778.421999,56.028 780.171999,56.028 C781.949999,56.028 782.999999,57.316 782.999999,59.36 L782.999999,59.822 Z M781.991999,59.066 C781.963999,58.506 781.935999,58.296 781.781999,57.918 C781.515999,57.288 780.899999,56.882 780.171999,56.882 C779.443999,56.882 778.827999,57.288 778.561999,57.918 C778.407999,58.296 778.379999,58.506 778.351999,59.066 L781.991999,59.066 Z M790.083999,56.672 L789.341999,57.428 C788.963999,57.05 788.683999,56.924 788.151999,56.924 C787.143999,56.924 786.499999,57.722 786.499999,58.772 L786.499999,63 L785.491999,63 L785.491999,56.112 L786.499999,56.112 L786.499999,56.952 C786.877999,56.378 787.633999,56.028 788.431999,56.028 C789.089999,56.028 789.593999,56.182 790.083999,56.672 Z M797.209999,59.556 C797.209999,60.634 797.069999,61.782 796.369999,62.482 C796.005999,62.846 795.389999,63.084 794.689999,63.084 C793.933999,63.084 793.303999,62.902 792.743999,62.174 L792.743999,63 L791.735999,63 L791.735999,53.032 L792.743999,53.032 L792.743999,56.91 C793.303999,56.196 793.933999,56.028 794.689999,56.028 C795.389999,56.028 796.005999,56.266 796.369999,56.63 C797.069999,57.33 797.209999,58.478 797.209999,59.556 Z M796.201999,59.556 C796.201999,58.212 795.977999,56.924 794.479999,56.924 C792.981999,56.924 792.743999,58.212 792.743999,59.556 C792.743999,60.9 792.981999,62.188 794.479999,62.188 C795.977999,62.188 796.201999,60.9 796.201999,59.556 Z M809.921999,63 L803.733999,63 L803.733999,53.032 L809.921999,53.032 L809.921999,53.984 L804.797999,53.984 L804.797999,57.498 L809.165999,57.498 L809.165999,58.45 L804.797999,58.45 L804.797999,62.048 L809.921999,62.048 L809.921999,63 Z M817.271999,63 L816.053999,63 L814.401999,60.326 L812.721999,63 L811.503999,63 L813.841999,59.486 L811.601999,56.112 L812.819999,56.112 L814.401999,58.66 L815.955999,56.112 L817.173999,56.112 L814.933999,59.486 L817.271999,63 Z M824.817999,59.556 C824.817999,60.634 824.677999,61.782 823.977999,62.482 C823.613999,62.846 822.997999,63.084 822.297999,63.084 C821.541999,63.084 820.911999,62.902 820.351999,62.188 L820.351999,66.08 L819.343999,66.08 L819.343999,56.112 L820.351999,56.112 L820.351999,56.924 C820.911999,56.196 821.541999,56.028 822.297999,56.028 C822.997999,56.028 823.613999,56.266 823.977999,56.63 C824.677999,57.33 824.817999,58.478 824.817999,59.556 Z M823.809999,59.556 C823.809999,58.212 823.585999,56.924 822.087999,56.924 C820.589999,56.924 820.351999,58.212 820.351999,59.556 C820.351999,60.9 820.589999,62.188 822.087999,62.188 C823.585999,62.188 823.809999,60.9 823.809999,59.556 Z M832.601999,59.822 L827.953999,59.822 C827.953999,61.334 828.667999,62.202 829.983999,62.202 C830.781999,62.202 831.243999,61.964 831.789999,61.418 L832.475999,62.02 C831.775999,62.72 831.131999,63.084 829.955999,63.084 C828.135999,63.084 826.945999,61.992 826.945999,59.556 C826.945999,57.33 828.023999,56.028 829.773999,56.028 C831.551999,56.028 832.601999,57.316 832.601999,59.36 L832.601999,59.822 Z M831.593999,59.066 C831.565999,58.506 831.537999,58.296 831.383999,57.918 C831.117999,57.288 830.501999,56.882 829.773999,56.882 C829.045999,56.882 828.429999,57.288 828.163999,57.918 C828.009999,58.296 827.981999,58.506 827.953999,59.066 L831.593999,59.066 Z M839.685999,56.672 L838.943999,57.428 C838.565999,57.05 838.285999,56.924 837.753999,56.924 C836.745999,56.924 836.101999,57.722 836.101999,58.772 L836.101999,63 L835.093999,63 L835.093999,56.112 L836.101999,56.112 L836.101999,56.952 C836.479999,56.378 837.235999,56.028 838.033999,56.028 C838.691999,56.028 839.195999,56.182 839.685999,56.672 Z M842.415999,54.152 L841.281999,54.152 L841.281999,53.018 L842.415999,53.018 L842.415999,54.152 Z M842.345999,63 L841.337999,63 L841.337999,56.112 L842.345999,56.112 L842.345999,63 Z M850.507999,59.822 L845.859999,59.822 C845.859999,61.334 846.573999,62.202 847.889999,62.202 C848.687999,62.202 849.149999,61.964 849.695999,61.418 L850.381999,62.02 C849.681999,62.72 849.037999,63.084 847.861999,63.084 C846.041999,63.084 844.851999,61.992 844.851999,59.556 C844.851999,57.33 845.929999,56.028 847.679999,56.028 C849.457999,56.028 850.507999,57.316 850.507999,59.36 L850.507999,59.822 Z M849.499999,59.066 C849.471999,58.506 849.443999,58.296 849.289999,57.918 C849.023999,57.288 848.407999,56.882 847.679999,56.882 C846.951999,56.882 846.335999,57.288 846.069999,57.918 C845.915999,58.296 845.887999,58.506 845.859999,59.066 L849.499999,59.066 Z M858.417999,63 L857.409999,63 L857.409999,58.758 C857.409999,57.54 856.751999,56.924 855.715999,56.924 C854.679999,56.924 854.007999,57.554 854.007999,58.758 L854.007999,63 L852.999999,63 L852.999999,56.112 L854.007999,56.112 L854.007999,56.868 C854.497999,56.308 855.169999,56.028 855.939999,56.028 C856.681999,56.028 857.283999,56.252 857.703999,56.672 C858.193999,57.148 858.417999,57.792 858.417999,58.59 L858.417999,63 Z M866.159999,62.062 C865.445999,62.832 864.843999,63.084 863.891999,63.084 C862.155999,63.084 860.839999,61.908 860.839999,59.556 C860.839999,57.204 862.155999,56.028 863.891999,56.028 C864.843999,56.028 865.445999,56.28 866.159999,57.05 L865.473999,57.694 C864.955999,57.12 864.549999,56.924 863.891999,56.924 C863.219999,56.924 862.659999,57.19 862.295999,57.708 C861.973999,58.156 861.847999,58.688 861.847999,59.556 C861.847999,60.424 861.973999,60.956 862.295999,61.404 C862.659999,61.922 863.219999,62.188 863.891999,62.188 C864.549999,62.188 864.955999,61.978 865.473999,61.404 L866.159999,62.062 Z M873.705999,59.822 L869.057999,59.822 C869.057999,61.334 869.771999,62.202 871.087999,62.202 C871.885999,62.202 872.347999,61.964 872.893999,61.418 L873.579999,62.02 C872.879999,62.72 872.235999,63.084 871.059999,63.084 C869.239999,63.084 868.049999,61.992 868.049999,59.556 C868.049999,57.33 869.127999,56.028 870.877999,56.028 C872.655999,56.028 873.705999,57.316 873.705999,59.36 L873.705999,59.822 Z M872.697999,59.066 C872.669999,58.506 872.641999,58.296 872.487999,57.918 C872.221999,57.288 871.605999,56.882 870.877999,56.882 C870.149999,56.882 869.533999,57.288 869.267999,57.918 C869.113999,58.296 869.085999,58.506 869.057999,59.066 L872.697999,59.066 Z" id="Years-of-Practice-in"></path>
                <rect id="Rectangle-8" opacity="0.800000012" x="119" y="1" width="1" height="60"></rect>
                <path d="M28.6474609,21.3710938 L28.2666016,23.8466797 C23.8316836,23.8466797 20.9244861,22.6152467 19.5449219,20.1523438 C19.2825508,20.2623703 18.7197309,20.3173828 17.8564453,20.3173828 C15.5120325,20.3173828 13.6775782,19.4033295 12.3530273,17.5751953 C11.0284765,15.7470612 10.3662109,13.4026836 10.3662109,10.5419922 C10.3662109,7.85903606 11.0390558,5.60987236 12.3847656,3.79443359 C13.7304755,1.97899483 15.5543505,1.07128906 17.8564453,1.07128906 C20.4378384,1.07128906 22.4161715,1.90493958 23.7915039,3.57226562 C25.1668363,5.23959167 25.8544922,7.56281062 25.8544922,10.5419922 C25.8544922,14.8161021 24.5765102,17.74869 22.0205078,19.3398438 C22.9430385,20.6940172 24.4918511,21.3710938 26.6669922,21.3710938 L28.6474609,21.3710938 Z M17.8564453,3.35644531 C16.2822187,3.35644531 15.0846395,3.99966805 14.2636719,5.28613281 C13.4427042,6.57259758 13.0322266,8.32453318 13.0322266,10.5419922 C13.0322266,12.6748154 13.4532835,14.4563731 14.2954102,15.8867188 C15.1375368,17.3170644 16.3245366,18.0322266 17.8564453,18.0322266 C19.5999436,18.0322266 20.9244746,17.369961 21.8300781,16.0454102 C22.7356816,14.7208593 23.1884766,12.886405 23.1884766,10.5419922 C23.1884766,5.75160365 21.4111506,3.35644531 17.8564453,3.35644531 Z M31.9199219,6.40332031 L31.9199219,15.0742188 C31.9199219,17.1731876 32.8297435,18.2226562 34.6494141,18.2226562 C35.444991,18.2226562 36.1728483,17.9941429 36.8330078,17.5371094 C37.4931674,17.0800758 37.9290354,16.5511098 38.140625,15.9501953 L38.140625,6.40332031 L40.5527344,6.40332031 L40.5527344,20 L38.140625,20 L38.140625,18.1210938 C37.8697903,18.6542995 37.3260132,19.1430642 36.5092773,19.5874023 C35.6925415,20.0317405 34.8948607,20.2539062 34.1162109,20.2539062 C32.6266202,20.2539062 31.4861693,19.8265017 30.6948242,18.9716797 C29.9034791,18.1168577 29.5078125,16.9023516 29.5078125,15.328125 L29.5078125,6.40332031 L31.9199219,6.40332031 Z M52.5214844,18.4384766 C51.5566358,19.6487691 50.0797625,20.2539062 48.0908203,20.2539062 C47.0244087,20.2539062 46.099776,19.8667031 45.3168945,19.0922852 C44.534013,18.3178672 44.1425781,17.355149 44.1425781,16.2041016 C44.1425781,14.8245374 44.7455994,13.6586962 45.9516602,12.706543 C47.1577209,11.7543898 48.6959542,11.2783203 50.5664062,11.2783203 C51.0742213,11.2783203 51.6497364,11.3883453 52.2929688,11.6083984 C52.2929688,9.4078666 51.3112077,8.30761719 49.3476562,8.30761719 C47.8411383,8.30761719 46.6816447,8.71386313 45.8691406,9.52636719 L44.8535156,7.5078125 C45.3105492,7.1354148 45.9431926,6.8159193 46.7514648,6.54931641 C47.5597371,6.28271351 48.3320276,6.14941406 49.0683594,6.14941406 C51.0403744,6.14941406 52.4728145,6.59797729 53.3657227,7.49511719 C54.2586308,8.39225709 54.7050781,9.8183496 54.7050781,11.7734375 L54.7050781,16.6484375 C54.7050781,17.8418028 55.0605433,18.6373678 55.7714844,19.0351562 L55.7714844,20.2412109 C54.7897086,20.2412109 54.0555037,20.1015639 53.5688477,19.8222656 C53.0821916,19.5429674 52.733074,19.0817089 52.5214844,18.4384766 Z M52.2929688,13.3222656 C51.5312462,13.1529939 50.9980484,13.0683594 50.6933594,13.0683594 C49.4746033,13.0683594 48.4801471,13.3815073 47.7099609,14.0078125 C46.9397748,14.6341177 46.5546875,15.3746702 46.5546875,16.2294922 C46.5546875,17.6429107 47.388338,18.3496094 49.0556641,18.3496094 C50.2744202,18.3496094 51.3535109,17.7698626 52.2929688,16.6103516 L52.2929688,13.3222656 Z M59.6914062,16.1533203 L59.6914062,0.830078125 L62.1035156,0.830078125 L62.1035156,15.7470703 C62.1035156,16.4749385 62.3129862,17.0483377 62.7319336,17.4672852 C63.150881,17.8862326 63.6988898,18.0957031 64.3759766,18.0957031 L64.3759766,20.2539062 C61.2529141,20.2539062 59.6914062,18.8870579 59.6914062,16.1533203 Z M70.6572266,1.26171875 C71.0719422,1.26171875 71.4252915,1.40771338 71.7172852,1.69970703 C72.0092788,1.99170068 72.1552734,2.34081828 72.1552734,2.74707031 C72.1552734,3.16178593 72.0092788,3.51513526 71.7172852,3.80712891 C71.4252915,4.09912255 71.0719422,4.24511719 70.6572266,4.24511719 C70.2509745,4.24511719 69.9018569,4.09912255 69.6098633,3.80712891 C69.3178696,3.51513526 69.171875,3.16178593 69.171875,2.74707031 C69.171875,2.3323547 69.3157538,1.98112123 69.6035156,1.69335938 C69.8912775,1.40559752 70.2425109,1.26171875 70.6572266,1.26171875 Z M69.3369141,20 L69.3369141,8.43457031 L67.4707031,8.43457031 L67.4707031,6.40332031 L71.7490234,6.40332031 L71.7490234,20 L69.3369141,20 Z M77.4462891,8.30761719 L75.8720703,8.30761719 L75.8720703,6.40332031 L77.4462891,6.40332031 L77.4462891,3.55957031 L79.8583984,2.6328125 L79.8583984,6.40332031 L83.5908203,6.40332031 L83.5908203,8.30761719 L79.8583984,8.30761719 L79.8583984,15.0615234 C79.8583984,16.2041073 80.0509421,17.0165992 80.4360352,17.4990234 C80.8211282,17.9814477 81.4410765,18.2226562 82.2958984,18.2226562 C82.9137401,18.2226562 83.5527311,18.0660823 84.2128906,17.7529297 L84.5683594,19.8730469 C83.5696565,20.1269544 82.4736388,20.2539062 81.2802734,20.2539062 C80.2053983,20.2539062 79.2976925,19.8540079 78.5571289,19.0541992 C77.8165653,18.2543905 77.4462891,17.2451233 77.4462891,16.0263672 L77.4462891,8.30761719 Z M93.0839844,22.3105469 C92.7708318,23.1738324 92.112798,23.8932263 91.1098633,24.46875 C90.1069286,25.0442737 88.9876364,25.3320312 87.7519531,25.3320312 L87.7519531,23.1738281 C88.7591196,23.1738281 89.6223922,22.9389672 90.3417969,22.4692383 C91.0612015,21.9995094 91.4208984,21.4261102 91.4208984,20.7490234 C91.4208984,20.004228 91.2897149,19.2700231 91.0273438,18.5463867 C90.7649726,17.8227503 90.4264344,16.9277397 90.0117188,15.8613281 L86.3300781,6.40332031 L88.7929688,6.40332031 L92.7919922,16.9150391 L96.3847656,6.40332031 L98.8476563,6.40332031 L93.0839844,22.3105469 Z M17.8505859,60 L12.5439453,60 L12.5439453,41.4013672 C14.8037222,41.2913406 16.4329377,41.2363281 17.4316406,41.2363281 C19.2682383,41.2363281 20.6900991,41.6319947 21.6972656,42.4233398 C22.7044321,43.2146849 23.2080078,44.3466723 23.2080078,45.8193359 C23.2080078,46.6826215 22.8863964,47.469723 22.2431641,48.1806641 C21.5999317,48.8916051 20.8890013,49.3359366 20.1103516,49.5136719 C21.5830152,49.8691424 22.6557584,50.4573527 23.3286133,51.2783203 C24.0014682,52.099288 24.3378906,53.2164643 24.3378906,54.6298828 C24.3378906,56.2633545 23.739101,57.5667269 22.5415039,58.5400391 C21.3439068,59.5133512 19.7802831,60 17.8505859,60 Z M15.0830078,43.4326172 L15.0830078,48.7773438 C15.6162136,48.8281253 16.2763633,48.8535156 17.0634766,48.8535156 C19.4671344,48.8535156 20.6689453,47.8759863 20.6689453,45.9208984 C20.6689453,44.2027909 19.5644642,43.34375 17.3554688,43.34375 C16.5091104,43.34375 15.7516309,43.3733721 15.0830078,43.4326172 Z M15.0830078,50.7451172 L15.0830078,57.8417969 C15.954757,57.9264327 16.6233701,57.96875 17.0888672,57.96875 C18.680021,57.96875 19.8416305,57.6704131 20.5737305,57.0737305 C21.3058305,56.4770478 21.671875,55.5270247 21.671875,54.2236328 C21.671875,53.0133403 21.3227574,52.1204456 20.6245117,51.5449219 C19.926266,50.9693982 18.7604248,50.6816406 17.1269531,50.6816406 L15.0830078,50.7451172 Z M39.5185547,53.4365234 L29.7177734,53.4365234 C29.7177734,55.0276772 30.1536415,56.2506468 31.0253906,57.1054688 C31.7955768,57.8502641 32.7858012,58.2226562 33.9960938,58.2226562 C35.3756579,58.2226562 36.5266881,57.820642 37.4492188,57.0166016 L38.4648438,58.7558594 C38.0924461,59.1282571 37.5211627,59.4498684 36.7509766,59.7207031 C35.786128,60.0761737 34.7112689,60.2539062 33.5263672,60.2539062 C31.8167232,60.2539062 30.3652403,59.6741594 29.171875,58.5146484 C27.8430923,57.2366473 27.1787109,55.5185655 27.1787109,53.3603516 C27.1787109,51.1175018 27.8600192,49.3190172 29.2226562,47.9648438 C30.4414123,46.7545512 31.8844318,46.1494141 33.5517578,46.1494141 C35.4899185,46.1494141 37.0091091,46.695307 38.109375,47.7871094 C39.1757866,48.8365938 39.7089844,50.2288325 39.7089844,51.9638672 C39.7089844,52.497073 39.6455084,52.9879535 39.5185547,53.4365234 Z M33.6660156,48.1806641 C32.5911405,48.1806641 31.6897823,48.5276658 30.9619141,49.2216797 C30.2679002,49.8818392 29.8743494,50.7027946 29.78125,51.6845703 L37.3095703,51.6845703 C37.3095703,50.7112582 37.0048859,49.8987663 36.3955078,49.2470703 C35.7268847,48.5361293 34.817063,48.1806641 33.6660156,48.1806641 Z M48.4404297,62.3105469 C48.1272771,63.1738324 47.4692433,63.8932263 46.4663086,64.46875 C45.4633739,65.0442737 44.3440817,65.3320312 43.1083984,65.3320312 L43.1083984,63.1738281 C44.1155649,63.1738281 44.9788375,62.9389672 45.6982422,62.4692383 C46.4176468,61.9995094 46.7773438,61.4261102 46.7773438,60.7490234 C46.7773438,60.004228 46.6461602,59.2700231 46.3837891,58.5463867 C46.121418,57.8227503 45.7828797,56.9277397 45.3681641,55.8613281 L41.6865234,46.4033203 L44.1494141,46.4033203 L48.1484375,56.9150391 L51.7412109,46.4033203 L54.2041016,46.4033203 L48.4404297,62.3105469 Z M56.1816406,53.1699219 C56.1816406,51.070953 56.7465764,49.3761458 57.8764648,48.0854492 C59.0063533,46.7947527 60.4938059,46.1494141 62.3388672,46.1494141 C64.2854915,46.1494141 65.7962186,46.7693623 66.8710938,48.0092773 C67.9459689,49.2491924 68.4833984,50.96939 68.4833984,53.1699219 C68.4833984,55.3619901 67.9332737,57.0906512 66.8330078,58.355957 C65.7327419,59.6212628 64.23471,60.2539062 62.3388672,60.2539062 C60.4007065,60.2539062 58.8899794,59.6149152 57.8066406,58.3369141 C56.7233019,57.0589129 56.1816406,55.3365994 56.1816406,53.1699219 Z M58.7207031,53.1699219 C58.7207031,56.5807462 59.9267458,58.2861328 62.3388672,58.2861328 C63.4645239,58.2861328 64.3468393,57.8291061 64.9858398,56.9150391 C65.6248404,56.000972 65.9443359,54.7526121 65.9443359,53.1699219 C65.9443359,49.8014154 64.742525,48.1171875 62.3388672,48.1171875 C61.2386013,48.1171875 60.3605176,48.5657507 59.7045898,49.4628906 C59.0486621,50.3600305 58.7207031,51.5956953 58.7207031,53.1699219 Z M80.3886719,60 L80.3886719,52.0908203 C80.3886719,50.6435475 80.1707379,49.6300485 79.7348633,49.050293 C79.2989887,48.4705375 78.5690155,48.1806641 77.5449219,48.1806641 C76.9947889,48.1806641 76.4192738,48.3457015 75.8183594,48.6757812 C75.2174449,49.005861 74.7561865,49.412107 74.4345703,49.8945312 L74.4345703,60 L72.0224609,60 L72.0224609,46.4033203 L73.6728516,46.4033203 L74.4345703,48.1552734 C75.2301472,46.8180272 76.5292879,46.1494141 78.3320312,46.1494141 C81.3112128,46.1494141 82.8007812,47.9605939 82.8007812,51.5830078 L82.8007812,60 L80.3886719,60 Z M95.8486328,59.9873047 L95.8486328,58.984375 C95.010738,59.8222698 93.7920002,60.2412109 92.1923828,60.2412109 C90.4912024,60.2412109 89.1116589,59.631842 88.0537109,58.4130859 C86.9957629,57.1943298 86.4667969,55.5693461 86.4667969,53.5380859 C86.4667969,51.4983622 87.0761658,49.7570059 88.2949219,48.3139648 C89.513678,46.8709238 90.9651608,46.1494141 92.6494141,46.1494141 C94.054369,46.1494141 95.1207646,46.4794889 95.8486328,47.1396484 L95.8486328,40.8300781 L98.2607422,40.8300781 L98.2607422,59.9873047 L95.8486328,59.9873047 Z M95.8486328,49.5517578 C95.2392548,48.6376907 94.4056042,48.1806641 93.3476562,48.1806641 C92.0527279,48.1806641 91.0053751,48.6630811 90.2055664,49.6279297 C89.4057577,50.5927783 89.0058594,51.8199795 89.0058594,53.3095703 C89.0058594,56.5849773 90.4954278,58.2226562 93.4746094,58.2226562 C93.8554707,58.2226562 94.3124973,58.102052 94.8457031,57.8608398 C95.3789089,57.6196277 95.7132155,57.3636081 95.8486328,57.0927734 L95.8486328,49.5517578 Z" id="Quality-Beyond"></path>
            </g>
        </g>
    </g>
</svg>