<?xml version="1.0" encoding="UTF-8"?>
<svg width="17px" height="26px" viewBox="0 0 17 26" version="1.1" xmlns="http://www.w3.org/2000/svg" xmlns:xlink="http://www.w3.org/1999/xlink">
    <!-- Generator: Sketch 49.3 (51167) - http://www.bohemiancoding.com/sketch -->
    <title>app</title>
    <desc>Created with Sketch.</desc>
    <defs></defs>
    <g id="assets" stroke="none" stroke-width="1" fill="none" fill-rule="evenodd">
        <g id="Artboard" transform="translate(-1174.000000, -163.000000)" fill="#2BB789" fill-rule="nonzero">
            <g id="首页" transform="translate(99.000000, 50.000000)">
                <path d="M1091.58492,113.3809 C1091.30867,113.1274 1090.946,113 1090.58333,113 L1076.41667,113 C1076.054,113 1075.69133,113.1274 1075.41508,113.3809 C1075.13883,113.6344 1075,113.9672 1075,114.3 L1075,137.7 C1075,138.0328 1075.13883,138.3656 1075.41508,138.6191 C1075.69133,138.8726 1076.054,139 1076.41667,139 L1090.58333,139 C1090.946,139 1091.30867,138.8726 1091.58492,138.6191 C1091.86117,138.3656 1092,138.0328 1092,137.7 L1092,114.3 C1092,113.9672 1091.86117,113.6344 1091.58492,113.3809 Z M1083.5,138.1329 C1082.718,138.1329 1082.08333,137.5505 1082.08333,136.8329 C1082.08333,136.1153 1082.718,135.5329 1083.5,135.5329 C1084.282,135.5329 1084.91667,136.1153 1084.91667,136.8329 C1084.91667,137.5505 1084.282,138.1329 1083.5,138.1329 Z M1090.58333,135.1 L1076.41667,135.1 L1076.41667,115.6 L1090.58333,115.6 L1090.58333,135.1 Z" id="app"></path>
            </g>
        </g>
    </g>
</svg>