<?xml version="1.0" encoding="UTF-8"?>
<svg width="9px" height="19px" viewBox="0 0 9 19" version="1.1" xmlns="http://www.w3.org/2000/svg" xmlns:xlink="http://www.w3.org/1999/xlink">
    <!-- Generator: Sketch 49 (51002) - http://www.bohemiancoding.com/sketch -->
    <title>F</title>
    <desc>Created with Sketch.</desc>
    <defs></defs>
    <g id="assets" stroke="none" stroke-width="1" fill="none" fill-rule="evenodd">
        <g id="Artboard" transform="translate(-1057.000000, -74.000000)" fill="#9A9AA2">
            <g id="首页" transform="translate(99.000000, 63.000000)">
                <g id="Group" transform="translate(885.000000, 3.000000)">
                    <g id="F" transform="translate(60.000000, 0.000000)">
                        <path d="M18.4379754,8.75 C17.8851695,8.75 17.3630898,8.81186824 16.7488521,9.05921821 C15.4896911,9.58481127 14.8754941,10.7597749 14.8754941,12.6457927 L14.8754941,14.4700039 L13.125,14.4700039 L13.125,17.5000307 L14.8754941,17.5000307 L14.8754941,26.25 L18.437955,26.25 L18.437955,17.5000307 L20.8641188,17.5000307 L21.2019231,14.4700039 L18.4379143,14.4700039 L18.4379143,13.1095791 C18.4379143,12.6767269 18.46862,12.3675497 18.5914432,12.2128996 C18.7449721,11.9346565 19.0521113,11.810961 19.5434649,11.810961 L21.1711359,11.810961 L21.1711359,8.78093412 L18.4378532,8.78093412 L18.4379754,8.75 Z" id="Path"></path>
                    </g>
                </g>
            </g>
        </g>
    </g>
</svg>