<?xml version="1.0" encoding="UTF-8"?>
<svg width="20px" height="20px" viewBox="0 0 20 20" version="1.1" xmlns="http://www.w3.org/2000/svg" xmlns:xlink="http://www.w3.org/1999/xlink">
    <!-- Generator: Sketch 50.2 (55047) - http://www.bohemiancoding.com/sketch -->
    <title>Fill 1</title>
    <desc>Created with Sketch.</desc>
    <defs></defs>
    <g id="Page-1" stroke="none" stroke-width="1" fill="none" fill-rule="evenodd">
        <g id="王敏1" transform="translate(-200.000000, -1835.000000)" fill="#858AA7">
            <g id="Group-7" transform="translate(0.000000, 816.000000)">
                <g id="Group-15" transform="translate(0.000000, 40.000000)">
                    <g id="14" transform="translate(0.000000, 650.000000)">
                        <g id="底部" transform="translate(0.000000, 208.000000)">
                            <g id="Group" transform="translate(120.000000, 121.000000)">
                                <path d="M89.9902927,0 C84.4727561,0 80,4.4727561 80,9.99029268 C80,15.5077073 84.4727561,19.9804634 89.9902927,19.9804634 C95.5077073,19.9804634 99.9804634,15.5077073 99.9804634,9.99029268 C99.9804634,4.4727561 95.5077073,0 89.9902927,0 Z M84.5705122,15.1476829 L86.9432195,15.1476829 L86.9432195,8.27943902 L84.5705122,8.27943902 L84.5705122,15.1476829 Z M85.7942927,7.34280488 C85.4461707,7.37080488 85.1022195,7.25160976 84.8460488,7.01439024 C84.5897561,6.77704878 84.444561,6.44331707 84.4456829,6.09402439 C84.444561,5.7447561 84.5897561,5.41102439 84.8460488,5.17378049 C85.1022195,4.93646341 85.4461707,4.81736585 85.7942927,4.84526829 C86.142439,4.81736585 86.4863659,4.93646341 86.7426585,5.17378049 C86.9989512,5.41102439 87.1441463,5.7447561 87.143,6.09402439 C87.1441463,6.44331707 86.9989512,6.77704878 86.7426585,7.01439024 C86.4863659,7.25160976 86.142439,7.37080488 85.7942927,7.34280488 Z M95.534878,15.0852683 L93.1496829,15.0852683 L93.1496829,11.2390488 C93.1496829,10.5493415 92.5906098,9.99029268 91.9009268,9.99029268 C91.3018293,9.97695122 90.7778293,10.3909024 90.6520488,10.9767561 L90.6520488,15.1726341 L88.3418537,15.1726341 L88.3418537,8.27943902 L90.714561,8.27943902 L90.714561,9.52819512 C90.8509024,8.85956098 91.3796585,8.34070732 92.0506829,8.21695122 C92.5851707,8.14329268 93.1271951,8.14329268 93.6616829,8.21695122 C94.7442927,8.3565122 95.550122,9.28592683 95.534878,10.3773902 L95.534878,15.0852683 Z" id="Fill-1"></path>
                            </g>
                        </g>
                    </g>
                </g>
            </g>
        </g>
    </g>
</svg>
