<?xml version="1.0" encoding="UTF-8"?>
<svg width="18px" height="15px" viewBox="0 0 18 15" version="1.1" xmlns="http://www.w3.org/2000/svg" xmlns:xlink="http://www.w3.org/1999/xlink">
    <!-- Generator: Sketch 49 (51002) - http://www.bohemiancoding.com/sketch -->
    <title>twitter</title>
    <desc>Created with Sketch.</desc>
    <defs></defs>
    <g id="assets" stroke="none" stroke-width="1" fill="none" fill-rule="evenodd">
        <g id="Artboard" transform="translate(-994.000000, -76.000000)" fill="#8E8F97">
            <g id="首页" transform="translate(99.000000, 63.000000)">
                <g id="Group" transform="translate(885.000000, 3.000000)">
                    <g id="twitter">
                        <path d="M28.1078909,11.9710241 C27.6094023,12.708704 26.9861585,13.3538588 26.2661358,13.8775284 L26.2661358,14.3523559 C26.2645029,15.3512016 26.1191256,16.3446135 25.8344745,17.3020419 C25.5379775,18.3009635 25.0968428,19.2510997 24.5251017,20.1222294 C23.9477872,21.0143364 23.2451358,21.8187511 22.4387384,22.5107556 C21.5712718,23.237287 20.5791653,23.8003744 19.5106356,24.1726518 C18.3330144,24.5912035 17.0912708,24.8005955 15.841514,24.7913664 C13.8428246,24.8067087 11.8837789,24.2337567 10.2083333,23.1438589 C10.5022645,23.1747603 10.7976959,23.1891716 11.0932391,23.187025 C12.7463585,23.2029999 14.3545439,22.6491541 15.6472664,21.6186555 C14.0767442,21.5900332 12.6979063,20.5667447 12.2155586,19.0718534 C12.4535263,19.1095719 12.6940566,19.1288144 12.9349942,19.1294083 C13.260258,19.1301615 13.5842666,19.0890559 13.8990379,19.0071042 C13.0694642,18.8457594 12.3231838,18.3974817 11.7910916,17.7408976 C11.2413789,17.0897033 10.9450568,16.2620449 10.9565464,15.4099263 L10.9565464,15.3667601 C11.4643377,15.6552332 12.0347299,15.8157332 12.6184426,15.8343933 C12.1200346,15.5043198 11.710012,15.057247 11.4241795,14.5322148 C10.8138618,13.4053811 10.8356796,12.0417687 11.4817343,10.9350369 C12.3910799,12.0527295 13.5229883,12.9690363 14.8055268,13.625726 C16.1131324,14.3013201 17.5511987,14.686604 19.0214194,14.7552399 C18.9612282,14.4666152 18.932284,14.1723493 18.9350871,13.8775284 C18.9179294,12.900829 19.3059902,11.9606282 20.0070461,11.280366 C20.7108817,10.5790926 21.668596,10.192563 22.6620265,10.2088266 C23.6554571,10.2250901 24.6000057,10.6427618 25.2805091,11.3666982 C26.1007942,11.220826 26.8895075,10.9335785 27.6114804,10.5177642 C27.3433909,11.3680595 26.7690891,12.0885006 25.9999447,12.5393782 C26.7296165,12.4576631 27.4427301,12.2660442 28.1150853,11.9710241 L28.1078909,11.9710241 Z" id="Path"></path>
                    </g>
                </g>
            </g>
        </g>
    </g>
</svg>