<?xml version="1.0" encoding="UTF-8"?>
<svg width="20px" height="20px" viewBox="0 0 20 20" version="1.1" xmlns="http://www.w3.org/2000/svg" xmlns:xlink="http://www.w3.org/1999/xlink">
    <!-- Generator: Sketch 50.2 (55047) - http://www.bohemiancoding.com/sketch -->
    <title>Shape</title>
    <desc>Created with Sketch.</desc>
    <defs></defs>
    <g id="Page-1" stroke="none" stroke-width="1" fill="none" fill-rule="evenodd">
        <g id="王敏1" transform="translate(-82.000000, -1349.000000)" fill="#ADADB5" fill-rule="nonzero">
            <g id="Group-17" transform="translate(82.000000, 285.000000)">
                <g id="微博" transform="translate(0.000000, 1064.000000)">
                    <path d="M10.00003,0 C4.47717782,0 0,4.47717782 0,10.00009 C0,15.5228822 4.47717782,20.00006 10.00003,20.00006 C15.5228822,20.00006 20,15.5228822 20,10.00009 C20,4.47717782 15.5228822,0 10.00003,0 Z M9.07281993,14.9843518 C6.51699598,14.9843518 3.90450042,13.7457379 3.90450042,11.7084802 C3.90450042,10.6434019 4.57927875,9.41174941 5.74137698,8.24941113 C7.29307508,6.69813312 9.10260603,5.99148826 9.78314554,6.67244785 C10.0834271,6.97228932 10.1124931,7.49189584 9.9194935,8.11206297 C9.81889287,8.42448702 10.2127136,8.25149156 10.2127136,8.2521717 C11.4669307,7.72706405 12.561155,7.6961177 12.961077,8.26757485 C13.1745008,8.57209728 13.1540766,8.99910482 12.9573763,9.49396626 C12.8663976,9.721933 12.985362,9.75726024 13.1588576,9.80935092 C13.8655624,10.0284358 14.6521037,10.5583445 14.6521037,11.4921359 C14.6520837,13.0376727 12.4233468,14.9843518 9.07281993,14.9843518 Z M13.6998085,8.50660385 C13.7824654,8.2512315 13.7306748,7.96015183 13.5379753,7.74654804 C13.3454558,7.53336434 13.0609375,7.45246776 12.7985437,7.50793913 L12.7985437,7.50747903 C12.5796788,7.5551088 12.3639346,7.41462 12.317005,7.19595517 C12.2699553,6.97637016 12.409784,6.76044589 12.629169,6.71369631 C13.165939,6.59957291 13.7474582,6.76550693 14.141239,7.20239649 C14.5358599,7.63922604 14.6413815,8.23428803 14.4727069,8.75629504 C14.4038528,8.97001885 14.1749059,9.0863627 13.9614821,9.0180487 C13.7481184,8.94897454 13.6314344,8.71974755 13.7002085,8.50660385 L13.6998085,8.50660385 Z M16.0660335,9.2707405 C16.0658935,9.27116059 16.0658935,9.27210078 16.0658935,9.27256087 C15.985597,9.52015163 15.7195225,9.65573943 15.4720318,9.575603 C15.2235608,9.49538655 15.087793,9.22989213 15.1679894,8.98170125 L15.1678494,8.98154122 C15.4139799,8.21964503 15.2578879,7.35050685 14.6832301,6.71331623 C14.1080522,6.07606559 13.2599583,5.83265569 12.4762776,5.99906981 C12.2213654,6.05342095 11.970694,5.8907076 11.9163429,5.63605539 C11.8617717,5.38162323 12.024265,5.13085182 12.2791772,5.07630064 L12.2796373,5.07630064 C13.3812031,4.84209263 14.5746678,5.18406273 15.3838137,6.08114664 C16.1931796,6.97729034 16.4113443,8.1990208 16.0660335,9.2707405 Z M12.5130452,11.297476 C12.3808381,9.9590216 10.6202772,9.03713261 8.58061903,9.23879395 C6.54140099,9.44045529 4.99496397,10.6890713 5.12743112,12.0277857 C5.25991828,13.3668402 7.02039918,14.2887292 9.05983727,14.0874679 C11.0995354,13.8856866 12.6453123,12.6369506 12.5130452,11.297476 Z M10.3700059,12.3964813 C9.95380053,13.3378943 8.75665511,13.8397972 7.74104691,13.51225 C6.7605059,13.1957851 6.34540081,12.2276667 6.77470882,11.3555279 C7.19623523,10.5004326 8.29314009,10.0167734 9.26361904,10.2692452 C10.2679849,10.5288384 10.78051,11.4762926 10.3700059,12.3964813 Z M8.29476043,11.6793143 C7.97897569,11.5469271 7.570752,11.683055 7.37587205,11.9886377 C7.17859161,12.2955406 7.27115059,12.6610355 7.58473487,12.8038248 C7.90288009,12.9490946 8.32528668,12.8111863 8.52258713,12.4964618 C8.71628684,12.1786366 8.61428593,11.8155022 8.29476043,11.6793143 Z M9.07311999,11.3566281 C8.95193515,11.3085383 8.80042409,11.3667502 8.72936952,11.4859546 C8.66033537,11.6057592 8.69842318,11.7422072 8.81986807,11.7921774 C8.9434134,11.8430278 9.10108572,11.7843158 9.17242035,11.6624308 C9.2404943,11.5396056 9.19624523,11.4016573 9.07311999,11.3566281 Z" id="Shape"></path>
                </g>
            </g>
        </g>
    </g>
</svg>
