<?xml version="1.0" encoding="UTF-8"?>
<svg width="16px" height="20px" viewBox="0 0 16 20" version="1.1" xmlns="http://www.w3.org/2000/svg" xmlns:xlink="http://www.w3.org/1999/xlink">
    <!-- Generator: Sketch 49 (51002) - http://www.bohemiancoding.com/sketch -->
    <title>add</title>
    <desc>Created with Sketch.</desc>
    <defs></defs>
    <g id="assets" stroke="none" stroke-width="1" fill="none" fill-rule="evenodd">
        <g id="Artboard" transform="translate(-882.000000, -290.000000)" fill="#2BB789">
            <g id="资产管理" transform="translate(99.000000, 290.000000)">
                <g id="add" transform="translate(783.000000, 0.000000)">
                    <g id="添加文件">
                        <path d="M8.55707521,8.56264624 C8.55707521,8.13481894 8.27189415,7.84963788 7.84406685,7.84963788 C7.41610028,7.84963788 7.13091922,8.13481894 7.13091922,8.56264624 L7.13091922,11.4150975 L4.27860724,11.4150975 C3.85064067,11.4150975 3.56545961,11.7002786 3.56545961,12.1281058 C3.56545961,12.555961 3.85064067,12.8412535 4.27860724,12.8412535 L7.13091922,12.8412535 L7.13091922,15.6935655 C7.13091922,16.1214206 7.41610028,16.4067131 7.84406685,16.4067131 C8.27189415,16.4067131 8.55707521,16.1214206 8.55707521,15.6935655 L8.55707521,12.8412535 L11.4095265,12.8412535 C11.8373538,12.8412535 12.1225348,12.555961 12.1225348,12.1281058 C12.1225348,11.7002786 11.8373538,11.4150975 11.4095265,11.4150975 L8.55707521,11.4150975 L8.55707521,8.56264624 Z" id="Fill-1"></path>
                        <path d="M15.4740947,5.21111421 L10.4824513,0.219498607 C10.339805,0.0768523677 10.1971588,0.00557103064 9.9832312,0.00557103064 L2.13930362,0.00557103064 C0.927047354,0.00557103064 0,0.932618384 0,2.14487465 L0,17.8328691 C0,19.0451253 0.927047354,19.9721727 2.13930362,19.9721727 L13.5486908,19.9721727 C14.7610585,19.9721727 15.6879944,19.0451253 15.6879944,17.8328691 L15.6879944,5.71033426 C15.6879944,5.49640669 15.6167409,5.35376045 15.4740947,5.21111421 Z M9.9832312,1.7170195 L13.9766574,5.71033426 L9.9832312,5.71033426 L9.9832312,1.7170195 Z M14.2618384,17.8328691 C14.2618384,18.2606964 13.9766574,18.5460167 13.5486908,18.5460167 L2.13930362,18.5460167 C1.71144847,18.5460167 1.42615599,18.2606964 1.42615599,17.8328691 L1.42615599,2.14487465 C1.42615599,1.7170195 1.71144847,1.43172702 2.13930362,1.43172702 L8.55707521,1.43172702 L8.55707521,5.71033426 C8.55707521,6.49473538 9.19883008,7.13649025 9.9832312,7.13649025 L14.2618384,7.13649025 L14.2618384,17.8328691 Z" id="Fill-2"></path>
                    </g>
                </g>
            </g>
        </g>
    </g>
</svg>