<?xml version="1.0" encoding="UTF-8"?>
<svg width="40px" height="40px" viewBox="0 0 40 40" version="1.1" xmlns="http://www.w3.org/2000/svg" xmlns:xlink="http://www.w3.org/1999/xlink">
    <!-- Generator: Sketch 49 (51002) - http://www.bohemiancoding.com/sketch -->
    <title>message</title>
    <desc>Created with Sketch.</desc>
    <defs></defs>
    <g id="组件" stroke="none" stroke-width="1" fill="none" fill-rule="evenodd">
        <g id="icon" transform="translate(-483.000000, -732.000000)">
            <g id="弹框" transform="translate(60.000000, 732.000000)">
                <g id="message" transform="translate(423.000000, 0.000000)">
                    <path d="M20,0 C17.2435754,0 14.6474462,0.520830769 12.2115385,1.56249846 C9.77563077,2.60417231 7.65225231,4.03043692 5.84134646,5.84134769 C4.03043938,7.65225231 2.60417169,9.77563077 1.56249969,12.2115385 C0.520828123,14.6474462 0,17.2435754 0,20 C0,22.7564246 0.520828123,25.3525538 1.56249969,27.7884615 C2.60417169,30.2243692 4.03043938,32.3477477 5.84134646,34.1586535 C7.65225231,35.9695606 9.77563077,37.3958283 12.2115385,38.4375003 C14.6474462,39.4791719 17.2435754,40 20,40 C22.7564246,40 25.3525538,39.4791719 27.7884615,38.4375003 C30.2243692,37.3958283 32.3477477,35.9695606 34.1586523,34.1586535 C35.9695631,32.3477477 37.3958277,30.2243692 38.4375015,27.7884615 C39.4791692,25.3525538 40,22.7564246 40,20 C40,17.2435754 39.4791692,14.6474462 38.4375015,12.2115385 C37.3958277,9.77563077 35.9695631,7.65225231 34.1586523,5.84134769 C32.3477477,4.03043692 30.2243692,2.60417231 27.7884615,1.56249846 C25.3525538,0.520830769 22.7564246,0 20,0 L20,0 Z" id="信息-icon" fill="#50BFFF" transform="translate(20.000000, 20.000000) scale(1, -1) translate(-20.000000, -20.000000) "></path>
                    <rect id="Rectangle-9" stroke="#FFFFFF" fill="#FFFFFF" stroke-linecap="square" stroke-linejoin="round" transform="translate(20.000000, 24.500000) scale(1, -1) translate(-20.000000, -24.500000) " x="18" y="17" width="4" height="15"></rect>
                    <rect id="Rectangle" stroke="#FFFFFF" fill="#FFFFFF" stroke-linecap="square" stroke-linejoin="round" transform="translate(20.000000, 10.500000) scale(1, -1) translate(-20.000000, -10.500000) " x="18" y="9" width="4" height="3"></rect>
                </g>
            </g>
        </g>
    </g>
</svg>