<?xml version="1.0" encoding="UTF-8"?>
<svg width="16px" height="16px" viewBox="0 0 16 16" version="1.1" xmlns="http://www.w3.org/2000/svg" xmlns:xlink="http://www.w3.org/1999/xlink">
    <!-- Generator: Sketch 49 (51002) - http://www.bohemiancoding.com/sketch -->
    <title>rank_up</title>
    <desc>Created with Sketch.</desc>
    <defs></defs>
    <g id="组件" stroke="none" stroke-width="1" fill="none" fill-rule="evenodd">
        <g id="icon" transform="translate(-429.000000, -289.000000)">
            <g id="16*16" transform="translate(60.000000, 287.000000)">
                <g id="up_paixu" transform="translate(369.000000, 2.000000)">
                    <g transform="translate(3.000000, 0.000000)">
                        <path d="M5.43033763,0.275706739 L8.96096041,6.24547327 C9.10153164,6.48315866 9.02280506,6.78979622 8.78511968,6.93036745 C8.70804353,6.97595161 8.62013985,7 8.53059295,7 L1.4693474,7 C1.19320503,7 0.969347402,6.77614237 0.969347402,6.5 C0.969347402,6.4104531 0.993395789,6.32254942 1.03897995,6.24547327 L4.56960272,0.275706739 C4.71017395,0.0380213571 5.01681152,-0.0407052181 5.2544969,0.0998660114 C5.32698356,0.142735871 5.38746777,0.203220078 5.43033763,0.275706739 Z" id="Triangle-Copy-4" fill="#0080D0"></path>
                        <path d="M5.43033763,15.7242933 C5.38746777,15.7967799 5.32698356,15.8572641 5.2544969,15.900134 C5.01681152,16.0407052 4.71017395,15.9619786 4.56960272,15.7242933 L1.03897995,9.75452673 C0.993395789,9.67745058 0.969347402,9.5895469 0.969347402,9.5 C0.969347402,9.22385763 1.19320503,9 1.4693474,9 L8.53059295,9 C8.62013985,9 8.70804353,9.02404839 8.78511968,9.06963255 C9.02280506,9.21020378 9.10153164,9.51684134 8.96096041,9.75452673 L5.43033763,15.7242933 Z" id="Triangle-Copy-5" fill="#D9E3EE"></path>
                    </g>
                </g>
            </g>
        </g>
    </g>
</svg>