<?xml version="1.0" encoding="UTF-8"?>
<svg width="16px" height="16px" viewBox="0 0 16 16" version="1.1" xmlns="http://www.w3.org/2000/svg" xmlns:xlink="http://www.w3.org/1999/xlink">
    <!-- Generator: Sketch 49 (51002) - http://www.bohemiancoding.com/sketch -->
    <title>rank_down</title>
    <desc>Created with Sketch.</desc>
    <defs></defs>
    <g id="组件" stroke="none" stroke-width="1" fill="none" fill-rule="evenodd">
        <g id="icon" transform="translate(-381.000000, -289.000000)">
            <g id="16*16" transform="translate(60.000000, 287.000000)">
                <g id="down_paixu" transform="translate(321.000000, 2.000000)">
                    <g transform="translate(4.000000, 0.000000)">
                        <path d="M4.43033763,0.275706739 L7.96096041,6.24547327 C8.10153164,6.48315866 8.02280506,6.78979622 7.78511968,6.93036745 C7.70804353,6.97595161 7.62013985,7 7.53059295,7 L0.469347402,7 C0.193205027,7 -0.0306525979,6.77614237 -0.0306525979,6.5 C-0.0306525979,6.4104531 -0.00660421099,6.32254942 0.0389799481,6.24547327 L3.56960272,0.275706739 C3.71017395,0.0380213571 4.01681152,-0.0407052181 4.2544969,0.0998660114 C4.32698356,0.142735871 4.38746777,0.203220078 4.43033763,0.275706739 Z" id="Triangle-Copy-2" fill="#D9E3EE"></path>
                        <path d="M4.43033763,9.27570674 L7.96096041,15.2454733 C8.10153164,15.4831587 8.02280506,15.7897962 7.78511968,15.9303675 C7.70804353,15.9759516 7.62013985,16 7.53059295,16 L0.469347402,16 C0.193205027,16 -0.0306525979,15.7761424 -0.0306525979,15.5 C-0.0306525979,15.4104531 -0.00660421099,15.3225494 0.0389799481,15.2454733 L3.56960272,9.27570674 C3.71017395,9.03802136 4.01681152,8.95929478 4.2544969,9.09986601 C4.32698356,9.14273587 4.38746777,9.20322008 4.43033763,9.27570674 Z" id="Triangle-Copy-3" fill="#0080D0" transform="translate(4.000000, 12.500000) scale(1, -1) translate(-4.000000, -12.500000) "></path>
                    </g>
                </g>
            </g>
        </g>
    </g>
</svg>