<?xml version="1.0" encoding="UTF-8"?>
<svg width="79px" height="60px" viewBox="0 0 79 60" version="1.1" xmlns="http://www.w3.org/2000/svg" xmlns:xlink="http://www.w3.org/1999/xlink">
    <!-- Generator: Sketch 49 (51002) - http://www.bohemiancoding.com/sketch -->
    <title>muti</title>
    <desc>Created with Sketch.</desc>
    <defs>
        <filter x="-25.0%" y="-26.1%" width="145.2%" height="161.4%" filterUnits="objectBoundingBox" id="filter-1">
            <feOffset dx="0" dy="1" in="SourceAlpha" result="shadowOffsetOuter1"></feOffset>
            <feGaussianBlur stdDeviation="4" in="shadowOffsetOuter1" result="shadowBlurOuter1"></feGaussianBlur>
            <feColorMatrix values="0 0 0 0 0   0 0 0 0 0   0 0 0 0 0  0 0 0 0.3 0" type="matrix" in="shadowBlurOuter1" result="shadowMatrixOuter1"></feColorMatrix>
            <feMerge>
                <feMergeNode in="shadowMatrixOuter1"></feMergeNode>
                <feMergeNode in="SourceGraphic"></feMergeNode>
            </feMerge>
        </filter>
        <linearGradient x1="50%" y1="0%" x2="50%" y2="100%" id="linearGradient-2">
            <stop stop-color="#7E8487" offset="0%"></stop>
            <stop stop-color="#484D4F" offset="100%"></stop>
        </linearGradient>
        <linearGradient x1="0%" y1="100%" x2="100%" y2="16.5080841%" id="linearGradient-3">
            <stop stop-color="#5C6265" stop-opacity="0.529891304" offset="0%"></stop>
            <stop stop-color="#2F3335" offset="100%"></stop>
        </linearGradient>
        <linearGradient x1="0%" y1="100%" x2="136.205363%" y2="-31.7618075%" id="linearGradient-4">
            <stop stop-color="#2BB789" offset="0%"></stop>
            <stop stop-color="#2F3335" offset="100%"></stop>
        </linearGradient>
        <filter x="-26.3%" y="-14.3%" width="152.6%" height="135.7%" filterUnits="objectBoundingBox" id="filter-5">
            <feOffset dx="0" dy="1" in="SourceAlpha" result="shadowOffsetOuter1"></feOffset>
            <feGaussianBlur stdDeviation="1.5" in="shadowOffsetOuter1" result="shadowBlurOuter1"></feGaussianBlur>
            <feColorMatrix values="0 0 0 0 0   0 0 0 0 0   0 0 0 0 0  0 0 0 0.3 0" type="matrix" in="shadowBlurOuter1" result="shadowMatrixOuter1"></feColorMatrix>
            <feMerge>
                <feMergeNode in="shadowMatrixOuter1"></feMergeNode>
                <feMergeNode in="SourceGraphic"></feMergeNode>
            </feMerge>
        </filter>
        <linearGradient x1="130.732996%" y1="-15.0483631%" x2="50%" y2="50%" id="linearGradient-6">
            <stop stop-color="#5C6265" offset="0%"></stop>
            <stop stop-color="#2F3335" offset="100%"></stop>
        </linearGradient>
        <linearGradient x1="10.707%" y1="70.7098824%" x2="82.694%" y2="15.6734694%" id="linearGradient-7">
            <stop stop-color="#5C6265" offset="0%"></stop>
            <stop stop-color="#2F3335" stop-opacity="0.822576993" offset="100%"></stop>
        </linearGradient>
    </defs>
    <g id="assets" stroke="none" stroke-width="1" fill="none" fill-rule="evenodd">
        <g id="Artboard" transform="translate(-591.000000, -149.000000)">
            <g id="首页" transform="translate(99.000000, 63.000000)">
                <g id="muti" filter="url(#filter-1)" transform="translate(501.000000, 93.000000)">
                    <g id="mac" transform="translate(10.000000, 0.000000)">
                        <path d="M24.8711436,33.2682927 L29.002874,33.2682927 L29.002874,38.9683651 C29.002874,40.1520283 34.005911,41.9053753 33.175218,43.1287996 C32.3445251,44.3522238 20.3902439,44.2268872 20.3902439,43.1287996 C20.3902439,42.0307119 24.8711436,40.1498364 24.8711436,38.9683651 L24.8711436,33.2682927 Z" id="Shape" fill="url(#linearGradient-2)" fill-rule="nonzero"></path>
                        <rect id="Rectangle-path" fill="url(#linearGradient-3)" fill-rule="nonzero" x="0" y="0" width="51.5121951" height="36.4878049" rx="4"></rect>
                        <path d="M1.07317073,30.0487805 L51.5121951,30.0487805 L51.5121951,33.5609756 C51.5121951,35.7701146 49.7213341,37.5609756 47.5121951,37.5609756 L1.07317073,37.5609756 L1.07317073,30.0487805 Z" id="Rectangle-14" fill="url(#linearGradient-4)"></path>
                        <circle id="c" fill="#25292B" fill-rule="nonzero" cx="26.2926829" cy="33.804878" r="1.6097561"></circle>
                    </g>
                    <g id="mobile" filter="url(#filter-5)" transform="translate(0.000000, 14.000000)" fill-rule="nonzero">
                        <path d="M0,22.6153846 L0,1.8911984 C0,0.846718365 0.812460267,0 1.80907206,0 L16.4986202,0 C17.4977431,0 18.3076923,0.852035584 18.3076923,1.8911984 L18.3076923,22.6153846 C16.0885781,22.6153846 2.21911422,22.6153846 0,22.6153846 Z" id="Shape" fill="url(#linearGradient-6)"></path>
                        <rect id="Rectangle-path" fill="url(#linearGradient-7)" x="0" y="2.15384615" width="15.9145299" height="20.4615385"></rect>
                        <path d="M0,22.6153846 L18.3076923,22.6153846 L18.3076923,26.5286302 C18.3076923,27.3412453 17.5673343,28 16.6426035,28 L1.66508878,28 C0.745485625,28 0,27.3397405 0,26.5286302 L0,22.6153846 Z" id="Shape" fill="#484D4F"></path>
                        <circle id="c" fill="#2BB789" opacity="0.5" cx="9.15384615" cy="25.3076923" r="1.61538462"></circle>
                    </g>
                </g>
            </g>
        </g>
    </g>
</svg>