<?xml version="1.0" encoding="UTF-8"?>
<svg width="38px" height="38px" viewBox="0 0 38 38" version="1.1" xmlns="http://www.w3.org/2000/svg" xmlns:xlink="http://www.w3.org/1999/xlink">
    <!-- Generator: Sketch 49 (51002) - http://www.bohemiancoding.com/sketch -->
    <title>search</title>
    <desc>Created with Sketch.</desc>
    <defs>
        <path d="M0,0 L26,0 C28.209139,-4.05812251e-16 30,1.790861 30,4 L30,26 C30,28.209139 28.209139,30 26,30 L0,30 L0,0 Z" id="path-1"></path>
        <filter x="-20.1%" y="-19.9%" width="140.2%" height="140.2%" filterUnits="objectBoundingBox" id="filter-2">
            <feOffset dx="0" dy="0.05" in="SourceAlpha" result="shadowOffsetOuter1"></feOffset>
            <feGaussianBlur stdDeviation="2" in="shadowOffsetOuter1" result="shadowBlurOuter1"></feGaussianBlur>
            <feColorMatrix values="0 0 0 0 0   0 0 0 0 0   0 0 0 0 0  0 0 0 0.3 0" type="matrix" in="shadowBlurOuter1"></feColorMatrix>
        </filter>
        <linearGradient x1="-89.0755208%" y1="-77.5260417%" x2="100%" y2="50%" id="linearGradient-3">
            <stop stop-color="#5C6265" offset="0%"></stop>
            <stop stop-color="#2F3335" offset="100%"></stop>
        </linearGradient>
    </defs>
    <g id="assets" stroke="none" stroke-width="1" fill="none" fill-rule="evenodd">
        <g id="Artboard" transform="translate(-367.000000, -66.000000)">
            <g id="首页" transform="translate(99.000000, 63.000000)">
                <g id="search" transform="translate(272.000000, 7.000000)">
                    <g id="Combined-Shape">
                        <use fill="black" fill-opacity="1" filter="url(#filter-2)" xlink:href="#path-1"></use>
                        <use fill="#2F3335" fill-rule="evenodd" xlink:href="#path-1"></use>
                    </g>
                    <path d="M0,0 L26,0 C28.209139,-4.05812251e-16 30,1.790861 30,4 L30,26 C30,28.209139 28.209139,30 26,30 L0,30 L0,0 Z" id="Combined-Shape" fill="url(#linearGradient-3)"></path>
                    <g id="Group-3" transform="translate(16.710804, 15.801820) rotate(-45.000000) translate(-16.710804, -15.801820) translate(9.710804, 6.301820)" opacity="0.5" stroke="#2BB789">
                        <g id="Group-5" transform="translate(0.828427, 0.828427)">
                            <circle id="Oval" cx="6.32198224" cy="6.73619581" r="6"></circle>
                            <path d="M6.0385254,12.5517332 C6.0385254,15.2442846 6.0385254,16.5905603 6.0385254,16.5905603" id="Line-4" stroke-linecap="square"></path>
                        </g>
                    </g>
                </g>
            </g>
        </g>
    </g>
</svg>