<?xml version="1.0" encoding="UTF-8"?>
<svg width="127px" height="26px" viewBox="0 0 127 26" version="1.1" xmlns="http://www.w3.org/2000/svg" xmlns:xlink="http://www.w3.org/1999/xlink">
    <!-- Generator: Sketch 49.3 (51167) - http://www.bohemiancoding.com/sketch -->
    <title>logo_exchange</title>
    <desc>Created with Sketch.</desc>
    <defs></defs>
    <g id="Symbols" stroke="none" stroke-width="1" fill="none" fill-rule="evenodd">
        <g id="nav-交易" transform="translate(-30.000000, -12.000000)" fill-rule="nonzero">
            <g id="nav">
                <g id="logo_exchange" transform="translate(30.000000, 12.000000)">
                    <g id="q" transform="translate(0.000000, 0.590909)">
                        <path d="M16.4509091,21.1072727 C11.7606114,23.1955122 6.24880231,21.4969306 3.54754824,17.1308268 C0.846294169,12.764723 1.78661232,7.07429055 5.74886983,3.80930182 C9.71112735,0.544313088 15.4763704,0.709213239 19.2455294,4.19533953 C23.0146884,7.68146581 23.6282146,13.416342 20.6818182,17.6209091 C20.4724542,17.9123525 20.5049695,18.3125415 20.7586364,18.5663636 C20.9094336,18.7163407 21.1179548,18.7933969 21.3300415,18.7775187 C21.5421282,18.7616405 21.7368515,18.6543949 21.8636364,18.4836364 C25.2311251,13.6893439 24.5378387,7.1442527 20.2406803,3.16183517 C15.9435218,-0.820582362 9.36468627,-1.01497399 4.83988496,2.706772 C0.315083653,6.428518 -0.763444866,12.9212556 2.31509211,17.9060154 C5.39362909,22.8907752 11.6819949,24.8337938 17.0359091,22.4545455 C17.2539895,22.3555262 17.4099107,22.1561745 17.4534803,21.9206632 C17.4970499,21.6851519 17.4227676,21.4432125 17.2545455,21.2727273 C17.0463835,21.057191 16.727283,20.9914939 16.4509091,21.1072727 Z" id="Shape" fill="#FFFFFF"></path>
                        <rect id="Rectangle-path" fill="#2BB789" transform="translate(19.497594, 20.292465) rotate(-45.000000) translate(-19.497594, -20.292465) " x="18.7648667" y="14.4336012" width="1.46545455" height="11.7177273" rx="0.732727273"></rect>
                    </g>
                    <g id="b" transform="translate(27.772727, 0.590909)" fill="#FFFFFF">
                        <rect id="Rectangle-path" x="0.165454545" y="0.00590909091" width="1.46545455" height="23.4413636" rx="0.732727273"></rect>
                        <path d="M13.1063636,10.27 L3.82909091,10.27 C3.42441681,10.27 3.09636364,10.5980532 3.09636364,11.0027273 C3.09636364,11.4074014 3.42441681,11.7354545 3.82909091,11.7354545 L13,11.7354545 C15.7903892,11.709646 18.1048576,13.8885824 18.2472727,16.6754545 C18.2986166,18.0672067 17.7817996,19.4200035 16.8155728,20.4230071 C15.849346,21.4260107 14.5167897,21.9929786 13.1240909,21.9936364 L3.82909091,21.9936364 C3.42441681,21.9936364 3.09636364,22.3216895 3.09636364,22.7263636 C3.09636364,22.920695 3.17356147,23.107067 3.31097449,23.2444801 C3.4483875,23.3818931 3.63475955,23.4590909 3.82909091,23.4590909 L13.1063636,23.4590909 C16.7420804,23.4461075 19.6852759,20.5002724 19.695,16.8645455 C19.6852759,13.2288185 16.7420804,10.2829834 13.1063636,10.27 Z" id="Shape"></path>
                        <path d="M12.3736364,-4.54182146e-16 L3.82909091,-4.54182146e-16 C3.42441681,-4.78961288e-16 3.09636364,0.328053174 3.09636364,0.732727273 C3.09636364,1.13740137 3.42441681,1.46545455 3.82909091,1.46545455 L12.3736364,1.46545455 C14.801681,1.46545455 16.77,3.43377359 16.77,5.86181818 C16.77,8.28986277 14.801681,10.2581818 12.3736364,10.2581818 L3.82909091,10.2581818 C3.42441681,10.2581818 3.09636364,10.586235 3.09636364,10.9909091 C3.09636364,11.3955832 3.42441681,11.7236364 3.82909091,11.7236364 L12.3736364,11.7236364 C15.600319,11.6979245 18.2097427,9.08850077 18.2354545,5.86181818 C18.2097427,2.63513559 15.600319,0.0257118394 12.3736364,-4.54182146e-16 Z" id="Shape"></path>
                    </g>
                    <circle id="点" fill="#FFFFFF" cx="50.0913636" cy="22.8740909" r="1.17"></circle>
                    <g id="o" transform="translate(76.818182, 0.590909)" fill="#FFFFFF">
                        <path d="M11.1622727,22.6081818 C11.1711101,22.2312504 10.8924607,21.9091419 10.5181818,21.8636364 C5.43032641,21.178951 1.63325728,16.8366731 1.63325728,11.7029545 C1.63325728,6.56923595 5.43032641,2.22695807 10.5181818,1.54227273 C10.8833116,1.49476205 11.1564723,1.18366239 11.1563636,0.815454545 C11.149439,0.611082507 11.0574259,0.418902077 10.9025628,0.285360702 C10.7476997,0.151819326 10.5440775,0.0890679441 10.3409091,0.112272727 C4.52154868,0.890555294 0.176483337,5.85541732 0.176483337,11.7265909 C0.176483337,17.5977645 4.52154868,22.5626265 10.3409091,23.3409091 C10.5490512,23.3662739 10.7580873,23.3012517 10.9151168,23.1622975 C11.0721463,23.0233434 11.1621216,22.8237728 11.1622727,22.6140909 L11.1622727,22.6081818 Z" id="Shape"></path>
                        <path d="M12.6277273,0.839090909 C12.6276186,1.20729875 12.9007793,1.51839842 13.2659091,1.56590909 C18.3537645,2.25059443 22.1508336,6.59287231 22.1508336,11.7265909 C22.1508336,16.8603095 18.3537645,21.2025874 13.2659091,21.8872727 C12.9007793,21.9347834 12.6276186,22.2458831 12.6277273,22.6140909 C12.6278784,22.8237728 12.7178537,23.0233434 12.8748832,23.1622975 C13.0319127,23.3012517 13.2409488,23.3662739 13.4490909,23.3409091 C19.2684513,22.5626265 23.6135167,17.5977645 23.6135167,11.7265909 C23.6135167,5.85541732 19.2684513,0.890555294 13.4490909,0.112272727 C13.2409488,0.0869079188 13.0319127,0.15193013 12.8748832,0.290884298 C12.7178537,0.429838466 12.6278784,0.629408998 12.6277273,0.839090909 Z" id="Shape"></path>
                    </g>
                    <g id="m" transform="translate(102.818182, 0.590909)" fill="#FFFFFF">
                        <rect id="Rectangle-path" x="0.543636364" y="0.00590909091" width="1.46545455" height="23.4413636" rx="0.732727273"></rect>
                        <rect id="Rectangle-path" x="22.5195455" y="0" width="1.46545455" height="23.4413636" rx="0.732727273"></rect>
                        <path d="M20.5813636,0.0531818182 C20.2034404,-0.0741506317 19.7912476,0.111336102 19.6359091,0.478636364 L13.0590909,15.2513636 C13.0171081,15.3442548 12.9949697,15.4448841 12.9940909,15.5468182 C12.9970014,15.8908621 13.2388915,16.1865432 13.5755376,16.2575656 C13.9121836,16.328588 14.2529026,16.1558202 14.3945455,15.8422727 L20.9890909,1.03409091 C21.0704053,0.850488358 21.0728064,0.641559797 20.9957331,0.456136973 C20.9186597,0.27071415 20.7688664,0.125047106 20.5813636,0.0531818182 Z" id="Shape"></path>
                        <path d="M11.4636364,15.2454545 L4.89272727,0.478636364 C4.73738873,0.111336102 4.32519599,-0.0741506317 3.94727273,0.0531818182 C3.76083375,0.12622142 3.61240786,0.272378424 3.53650519,0.457670251 C3.46060251,0.642962079 3.46383625,0.851244712 3.54545455,1.03409091 L10.14,15.8422727 C10.2816429,16.1558202 10.6223619,16.328588 10.9590079,16.2575656 C11.2956539,16.1865432 11.537544,15.8908621 11.5404545,15.5468182 C11.5367076,15.4420242 11.5105116,15.3392551 11.4636364,15.2454545 Z" id="Shape"></path>
                    </g>
                    <path d="M53.5540909,11.6645455 C53.9242839,11.6642786 54.2361278,11.3879291 54.2809091,11.0204545 C54.8066884,6.88006071 57.7899009,3.47166558 61.8241686,2.40209138 C65.8584363,1.33251719 70.1384041,2.8152815 72.6463636,6.15136364 C72.7838107,6.3219934 72.9795849,6.43566876 73.1959091,6.47045455 C73.480941,6.49753765 73.7556373,6.35611909 73.899192,6.10839194 C74.0427468,5.86066478 74.028859,5.55201547 73.8636364,5.31818182 C71.0102229,1.47390588 66.1051587,-0.247883118 61.4749926,0.969486376 C56.8448266,2.18685587 53.420915,6.09851044 52.8272727,10.8490909 C52.8017598,11.056687 52.8669166,11.2652118 53.0060841,11.4213509 C53.1452516,11.5774901 53.3449388,11.6661073 53.5540909,11.6645455 Z" id="Shape" fill="#FFFFFF"></path>
                    <path d="M73.1663636,18.1940909 C72.9500394,18.2288767 72.7542652,18.3425521 72.6168182,18.5131818 C70.1196103,21.8084905 65.8873655,23.2812625 61.8839039,22.2481111 C57.8804423,21.2149597 54.8893899,17.8781111 54.2986364,13.7859091 C54.2484262,13.4231255 53.9380596,13.1531318 53.5718182,13.1536364 C53.3609678,13.1535741 53.1603099,13.2443465 53.0211439,13.4027469 C52.8819778,13.5611473 52.8177935,13.7718213 52.845,13.9809091 C53.5105025,18.668493 56.9315678,22.4949896 61.5156808,23.6791541 C66.0997937,24.8633186 70.9461021,23.1724438 73.7986364,19.3936364 C73.9894506,19.1655832 74.0235206,18.8448252 73.8848697,18.5817771 C73.7462188,18.3187291 73.4623437,18.1655579 73.1663636,18.1940909 Z" id="Shape" fill="#FFFFFF"></path>
                </g>
            </g>
        </g>
    </g>
</svg>