<?xml version="1.0" encoding="UTF-8"?>
<svg width="137px" height="28px" viewBox="0 0 137 28" version="1.1" xmlns="http://www.w3.org/2000/svg" xmlns:xlink="http://www.w3.org/1999/xlink">
    <!-- Generator: Sketch 49.3 (51167) - http://www.bohemiancoding.com/sketch -->
    <title>logo</title>
    <desc>Created with Sketch.</desc>
    <defs></defs>
    <g id="1.首页" stroke="none" stroke-width="1" fill="none" fill-rule="evenodd">
        <g id="首页-英文" transform="translate(-120.000000, -24.000000)" fill-rule="nonzero">
            <g id="logo" transform="translate(120.000000, 24.000000)">
                <g id="q" transform="translate(0.000000, 0.636364)">
                    <path d="M17.7163636,22.7309091 C12.6652739,24.9797823 6.72947941,23.1505406 3.82043657,18.4485827 C0.91139372,13.7466247 1.92404404,7.61846675 6.19109059,4.10232504 C10.4581371,0.586183326 16.6668604,0.763768103 20.7259547,4.51805795 C24.785049,8.2723478 25.4457695,14.4483683 22.2727273,18.9763636 C22.0472583,19.2902258 22.0822749,19.7211985 22.3554545,19.9945455 C22.5178515,20.1560592 22.7424128,20.2390428 22.9708139,20.2219432 C23.199215,20.2048437 23.408917,20.0893484 23.5454545,19.9054545 C27.1719808,14.7423704 26.4253648,7.6938106 21.7976557,3.40505326 C17.1699466,-0.883704082 10.0850468,-1.09304892 5.2121838,2.91498523 C0.339320857,6.92301938 -0.822171394,13.9151983 2.49317612,19.2834012 C5.80852363,24.651604 12.5806098,26.7440856 18.3463636,24.1818182 C18.5812195,24.0751821 18.7491346,23.8604956 18.7960557,23.606868 C18.8429768,23.3532405 18.7629805,23.0926904 18.5818182,22.9090909 C18.3576438,22.676975 18.0139971,22.6062242 17.7163636,22.7309091 Z" id="Shape" fill="#FFFFFF"></path>
                    <rect id="Rectangle-path" fill="#2BB789" transform="translate(20.997409, 21.853424) rotate(-45.000000) translate(-20.997409, -21.853424) " x="20.208318" y="15.5438782" width="1.57818182" height="12.6190909" rx="0.789090909"></rect>
                </g>
                <g id="b" transform="translate(29.909091, 0.636364)" fill="#FFFFFF">
                    <rect id="Rectangle-path" x="0.178181818" y="0.00636363636" width="1.57818182" height="25.2445455" rx="0.789090909"></rect>
                    <path d="M14.1145455,11.06 L4.12363636,11.06 C3.68783349,11.06 3.33454545,11.413288 3.33454545,11.8490909 C3.33454545,12.2848938 3.68783349,12.6381818 4.12363636,12.6381818 L14,12.6381818 C17.0050346,12.610388 19.4975389,14.9569349 19.6509091,17.9581818 C19.7062025,19.4569919 19.1496303,20.91385 18.1090784,21.9940076 C17.0685265,23.0741653 15.6334658,23.6847462 14.1336364,23.6854545 L4.12363636,23.6854545 C3.68783349,23.6854545 3.33454545,24.0387426 3.33454545,24.4745455 C3.33454545,24.6838254 3.41768158,24.8845337 3.56566483,25.032517 C3.71364808,25.1805002 3.91435644,25.2636364 4.12363636,25.2636364 L14.1145455,25.2636364 C18.0299328,25.2496543 21.1995279,22.0772165 21.21,18.1618182 C21.1995279,14.2464199 18.0299328,11.0739821 14.1145455,11.06 Z" id="Shape"></path>
                    <path d="M13.3254545,-4.03717464e-16 L4.12363636,-4.03717464e-16 C3.68783349,-4.30402693e-16 3.33454545,0.353288034 3.33454545,0.789090909 C3.33454545,1.22489378 3.68783349,1.57818182 4.12363636,1.57818182 L13.3254545,1.57818182 C15.9402718,1.57818182 18.06,3.69791002 18.06,6.31272727 C18.06,8.92754452 15.9402718,11.0472727 13.3254545,11.0472727 L4.12363636,11.0472727 C3.68783349,11.0472727 3.33454545,11.4005608 3.33454545,11.8363636 C3.33454545,12.2721665 3.68783349,12.6254545 4.12363636,12.6254545 L13.3254545,12.6254545 C16.8003435,12.5977649 19.6104921,9.78761621 19.6381818,6.31272727 C19.6104921,2.83783833 16.8003435,0.0276896732 13.3254545,-4.03717464e-16 Z" id="Shape"></path>
                </g>
                <circle id="点" fill="#FFFFFF" cx="53.9445455" cy="24.6336364" r="1.26"></circle>
                <g id="o" transform="translate(82.727273, 0.636364)" fill="#FFFFFF">
                    <path d="M12.0209091,24.3472727 C12.0304263,23.9413465 11.7303423,23.5944605 11.3272727,23.5454545 C5.84804383,22.8081011 1.75889245,18.1318018 1.75889245,12.6031818 C1.75889245,7.07456179 5.84804383,2.39826253 11.3272727,1.66090909 C11.7204894,1.60974375 12.0146625,1.27471334 12.0145455,0.878181818 C12.0070881,0.658088853 11.9079971,0.451125314 11.7412215,0.307311525 C11.5744458,0.163497736 11.3551604,0.0959193245 11.1363636,0.120909091 C4.86936012,0.959059547 0.190058979,6.30583404 0.190058979,12.6286364 C0.190058979,18.9514387 4.86936012,24.2982132 11.1363636,25.1363636 C11.3605167,25.1636796 11.5856324,25.0936557 11.7547411,24.9440127 C11.9238498,24.7943698 12.0207463,24.5794477 12.0209091,24.3536364 L12.0209091,24.3472727 Z" id="Shape"></path>
                    <path d="M13.5990909,0.903636364 C13.5989739,1.30016789 13.8931469,1.63519829 14.2863636,1.68636364 C19.7655925,2.42371708 23.8547439,7.10001633 23.8547439,12.6286364 C23.8547439,18.1572564 19.7655925,22.8335556 14.2863636,23.5709091 C13.8931469,23.6220744 13.5989739,23.9571048 13.5990909,24.3536364 C13.5992537,24.5794477 13.6961502,24.7943698 13.8652589,24.9440127 C14.0343676,25.0936557 14.2594833,25.1636796 14.4836364,25.1363636 C20.7506399,24.2982132 25.429941,18.9514387 25.429941,12.6286364 C25.429941,6.30583404 20.7506399,0.959059547 14.4836364,0.120909091 C14.2594833,0.0935931434 14.0343676,0.163617063 13.8652589,0.313260013 C13.6961502,0.462902964 13.5992537,0.677825074 13.5990909,0.903636364 Z" id="Shape"></path>
                </g>
                <g id="m" transform="translate(110.727273, 0.636364)" fill="#FFFFFF">
                    <rect id="Rectangle-path" x="0.585454545" y="0.00636363636" width="1.57818182" height="25.2445455" rx="0.789090909"></rect>
                    <rect id="Rectangle-path" x="24.2518182" y="0" width="1.57818182" height="25.2445455" rx="0.789090909"></rect>
                    <path d="M22.1645455,0.0572727273 C21.7575512,-0.0798545264 21.3136513,0.119900418 21.1463636,0.515454545 L14.0636364,16.4245455 C14.0184241,16.5245821 13.9945828,16.6329521 13.9936364,16.7427273 C13.9967708,17.1132362 14.2572678,17.4316619 14.6198097,17.5081476 C14.9823515,17.5846332 15.3492797,17.3985756 15.5018182,17.0609091 L22.6036364,1.11363636 C22.6912057,0.91591054 22.6937915,0.69091055 22.6107894,0.491224433 C22.5277874,0.291538315 22.3664716,0.134666115 22.1645455,0.0572727273 Z" id="Shape"></path>
                    <path d="M12.3454545,16.4181818 L5.26909091,0.515454545 C5.10180325,0.119900418 4.65790337,-0.0798545264 4.25090909,0.0572727273 C4.05012865,0.13593076 3.89028539,0.29333061 3.80854405,0.492875655 C3.7268027,0.6924207 3.73028519,0.916725074 3.81818182,1.11363636 L10.92,17.0609091 C11.0725385,17.3985756 11.4394666,17.5846332 11.8020085,17.5081476 C12.1645504,17.4316619 12.4250474,17.1132362 12.4281818,16.7427273 C12.4241467,16.6298722 12.3959356,16.5191978 12.3454545,16.4181818 Z" id="Shape"></path>
                </g>
                <path d="M57.6736364,12.5618182 C58.0723058,12.5615307 58.4081376,12.2639237 58.4563636,11.8681818 C59.0225875,7.40929615 62.2352779,3.73871677 66.5798739,2.58686764 C70.9244699,1.43501851 75.533666,3.03184161 78.2345455,6.62454545 C78.3825653,6.80830059 78.5933991,6.9307202 78.8263636,6.96818182 C79.1333211,6.99734824 79.4291479,6.84505133 79.5837453,6.57826824 C79.7383427,6.31148515 79.7233866,5.97909358 79.5454545,5.72727273 C76.4725477,1.58728326 71.1901709,-0.266951051 66.2038382,1.04406225 C61.2175056,2.35507555 57.5302161,6.56762663 56.8909091,11.6836364 C56.8634337,11.9072014 56.9336025,12.1317665 57.0834752,12.2999164 C57.2333479,12.4680663 57.4483956,12.5635002 57.6736364,12.5618182 Z" id="Shape" fill="#FFFFFF"></path>
                <path d="M78.7945455,19.5936364 C78.5615809,19.631098 78.3507472,19.7535176 78.2027273,19.9372727 C75.5134265,23.4860667 70.9556244,25.0721288 66.6442042,23.9595043 C62.332784,22.8468797 59.1116506,19.2533504 58.4754545,14.8463636 C58.421382,14.4556736 58.0871411,14.1649112 57.6927273,14.1654545 C57.4656576,14.1653875 57.2495646,14.2631423 57.0996934,14.4337274 C56.9498223,14.6043124 56.8807007,14.8311922 56.91,15.0563636 C57.626695,20.104531 61.3109192,24.2253734 66.2476562,25.5006275 C71.1843932,26.7758816 76.4034946,24.9549394 79.4754545,20.8854545 C79.6809468,20.6398588 79.7176376,20.2944271 79.5683212,20.0111446 C79.4190048,19.7278621 79.1132932,19.5629085 78.7945455,19.5936364 Z" id="Shape" fill="#FFFFFF"></path>
            </g>
        </g>
    </g>
</svg>