<?xml version="1.0" encoding="UTF-8"?>
<svg width="243px" height="48px" viewBox="0 0 243 48" version="1.1" xmlns="http://www.w3.org/2000/svg" xmlns:xlink="http://www.w3.org/1999/xlink">
    <!-- Generator: Sketch 49.3 (51167) - http://www.bohemiancoding.com/sketch -->
    <title>logo_footer</title>
    <desc>Created with Sketch.</desc>
    <defs></defs>
    <g id="1.首页" stroke="none" stroke-width="1" fill="none" fill-rule="evenodd">
        <g id="首页-英文" transform="translate(-599.000000, -2514.000000)" fill-rule="nonzero">
            <g id="footer" transform="translate(0.000000, 2420.000000)">
                <g id="logo_footer" transform="translate(599.000000, 94.000000)">
                    <g id="q" transform="translate(0.000000, 0.136364)">
                        <path d="M30.6363636,40.5909091 C21.6165605,44.6067542 11.0169275,41.3402511 5.82220815,32.9438976 C0.627488786,24.5475442 2.43579293,13.6044049 10.0555189,7.32558042 C17.6752449,1.04675594 28.7622507,1.36387161 36.0106334,8.06796063 C43.2590161,14.7720496 44.4388741,25.8006577 38.7727273,33.8863636 C38.3701042,34.4468317 38.4326337,35.216426 38.9204545,35.7045455 C39.2104492,35.9929628 39.6114515,36.1411478 40.0193106,36.1106129 C40.4271697,36.080078 40.8016374,35.8738364 41.0454545,35.5454545 C47.5213944,26.3256614 46.1881514,13.7389475 37.9243851,6.08045225 C29.6606189,-1.578043 17.0090121,-1.95187306 8.30747108,5.20533077 C-0.394069898,12.3625346 -2.4681632,24.8485684 3.45210021,34.434645 C9.37236363,44.0207215 21.4653747,47.7572957 31.7613636,43.1818182 C32.1807491,42.9913966 32.4805975,42.6080279 32.5643852,42.1551215 C32.6481729,41.7022151 32.5053223,41.2369471 32.1818182,40.9090909 C31.7815067,40.4945982 31.1678519,40.3682575 30.6363636,40.5909091 Z" id="Shape" fill="#959798"></path>
                        <rect id="Rectangle-path" fill="#2BB789" transform="translate(36.495373, 39.023971) rotate(-45.000000) translate(-36.495373, -39.023971) " x="35.0862822" y="27.7569254" width="2.81818182" height="22.5340909" rx="1.24"></rect>
                    </g>
                    <g id="b" transform="translate(52.409091, 0.136364)" fill="#959798">
                        <rect id="Rectangle-path" x="0.318181818" y="0.0113636364" width="2.81818182" height="45.0795455" rx="1.24"></rect>
                        <path d="M25.2045455,19.75 L7.36363636,19.75 C6.58541694,19.75 5.95454545,20.3808715 5.95454545,21.1590909 C5.95454545,21.9373103 6.58541694,22.5681818 7.36363636,22.5681818 L25,22.5681818 C30.3661332,22.5185501 34.8170338,26.7088124 35.0909091,32.0681818 C35.1896473,34.7446283 34.1957684,37.3461606 32.33764,39.2750136 C30.4795116,41.2038666 27.9169032,42.2941897 25.2386364,42.2954545 L7.36363636,42.2954545 C6.58541694,42.2954545 5.95454545,42.926326 5.95454545,43.7045455 C5.95454545,44.0782596 6.10300282,44.4366674 6.36725863,44.7009232 C6.63151443,44.965179 6.98992222,45.1136364 7.36363636,45.1136364 L25.2045455,45.1136364 C32.1963085,45.0886683 37.8562998,39.4236008 37.875,32.4318182 C37.8562998,25.4400356 32.1963085,19.774968 25.2045455,19.75 Z" id="Shape"></path>
                        <path d="M23.7954545,1.51394049e-16 L7.36363636,1.51394049e-16 C6.58541694,1.03741853e-16 5.95454545,0.630871489 5.95454545,1.40909091 C5.95454545,2.18731033 6.58541694,2.81818182 7.36363636,2.81818182 L23.7954545,2.81818182 C28.4647711,2.81818182 32.25,6.60341075 32.25,11.2727273 C32.25,15.9420438 28.4647711,19.7272727 23.7954545,19.7272727 L7.36363636,19.7272727 C6.58541694,19.7272727 5.95454545,20.3581442 5.95454545,21.1363636 C5.95454545,21.9145831 6.58541694,22.5454545 7.36363636,22.5454545 L23.7954545,22.5454545 C30.0006134,22.4960087 35.018736,17.4778861 35.0681818,11.2727273 C35.018736,5.06756845 30.0006134,0.049445845 23.7954545,1.51394049e-16 Z" id="Shape"></path>
                    </g>
                    <circle id="点" fill="#959798" cx="95.3295455" cy="42.9886364" r="2.25"></circle>
                    <g id="o" transform="translate(146.727273, 0.136364)" fill="#959798">
                        <path d="M21.4659091,43.4772727 C21.4829041,42.7524045 20.9470398,42.1329651 20.2272727,42.0454545 C10.4429354,40.728752 3.14087938,32.3782176 3.14087938,22.5056818 C3.14087938,12.6331461 10.4429354,4.28261166 20.2272727,2.96590909 C20.9294454,2.87454241 21.4547544,2.27627382 21.4545455,1.56818182 C21.4412288,1.17515867 21.2642806,0.805580918 20.9664669,0.54877058 C20.6686533,0.291960242 20.2770722,0.171284508 19.8863636,0.215909091 C8.69528593,1.71260633 0.339391033,11.2604179 0.339391033,22.5511364 C0.339391033,33.8418548 8.69528593,43.3896664 19.8863636,44.8863636 C20.286637,44.9351421 20.6886294,44.8100994 20.9906092,44.5428798 C21.292589,44.2756603 21.4656184,43.8918708 21.4659091,43.4886364 L21.4659091,43.4772727 Z" id="Shape"></path>
                        <path d="M24.2840909,1.61363636 C24.283882,2.32172837 24.809191,2.91999695 25.5113636,3.01136364 C35.295701,4.32806621 42.597757,12.6786006 42.597757,22.5511364 C42.597757,32.4236721 35.295701,40.7742065 25.5113636,42.0909091 C24.809191,42.1822758 24.283882,42.7805444 24.2840909,43.4886364 C24.2843816,43.8918708 24.457411,44.2756603 24.7593908,44.5428798 C25.0613706,44.8100994 25.463363,44.9351421 25.8636364,44.8863636 C37.0547141,43.3896664 45.410609,33.8418548 45.410609,22.5511364 C45.410609,11.2604179 37.0547141,1.71260633 25.8636364,0.215909091 C25.463363,0.167130613 25.0613706,0.292173327 24.7593908,0.559392881 C24.457411,0.826612435 24.2843816,1.21040192 24.2840909,1.61363636 Z" id="Shape"></path>
                    </g>
                    <g id="m" transform="translate(197.727273, 0.136364)" fill="#959798">
                        <rect id="Rectangle-path" x="0.0454545455" y="0.0113636364" width="2.81818182" height="45.0795455" rx="1.24"></rect>
                        <rect id="Rectangle-path" x="42.3068182" y="0" width="2.81818182" height="45.0795455" rx="1.24"></rect>
                        <path d="M38.5795455,0.102272727 C37.85277,-0.142597369 37.0600916,0.214107889 36.7613636,0.920454545 L24.1136364,29.3295455 C24.0329003,29.5081824 23.9903263,29.7017002 23.9886364,29.8977273 C23.9942335,30.5593503 24.4594068,31.1279677 25.106803,31.2645492 C25.7541992,31.4011307 26.409428,31.068885 26.6818182,30.4659091 L39.3636364,1.98863636 C39.5200102,1.63555454 39.5246277,1.23376884 39.3764097,0.877186487 C39.2281918,0.520604134 38.9401278,0.240475205 38.5795455,0.102272727 Z" id="Shape"></path>
                        <path d="M21.0454545,29.3181818 L8.40909091,0.920454545 C8.11036294,0.214107889 7.31768459,-0.142597369 6.59090909,0.102272727 C6.23237259,0.242733501 5.9469382,0.523804661 5.80097151,0.880135098 C5.65500483,1.23646554 5.66122356,1.63700906 5.81818182,1.98863636 L18.5,30.4659091 C18.7723902,31.068885 19.427619,31.4011307 20.0750152,31.2645492 C20.7224114,31.1279677 21.1875847,30.5593503 21.1931818,29.8977273 C21.1859762,29.6962003 21.1355992,29.4985675 21.0454545,29.3181818 Z" id="Shape"></path>
                    </g>
                    <path d="M101.988636,21.4318182 C102.700546,21.4313049 103.300246,20.8998637 103.386364,20.1931818 C104.397478,12.230886 110.134425,5.67627995 117.892632,3.6194065 C125.650839,1.56253305 133.881546,4.41400288 138.704545,10.8295455 C138.968867,11.1576796 139.345356,11.3762861 139.761364,11.4431818 C140.309502,11.4952647 140.837764,11.223306 141.113831,10.7469076 C141.389898,10.2705092 141.36319,9.67695283 141.045455,9.22727273 C135.558121,1.83443438 126.125305,-1.4766983 117.22114,0.864396877 C108.316974,3.20549206 101.732529,10.7279047 100.590909,19.8636364 C100.541846,20.2628596 100.667147,20.6638688 100.934777,20.9641364 C101.202407,21.2644041 101.586421,21.4348217 101.988636,21.4318182 Z" id="Shape" fill="#959798"></path>
                    <path d="M139.704545,33.9886364 C139.288537,34.0555321 138.912049,34.2741386 138.647727,34.6022727 C133.845404,40.9394049 125.706472,43.7716586 118.007507,41.784829 C110.308543,39.7979994 104.556519,33.3809828 103.420455,25.5113636 C103.323896,24.8137029 102.727038,24.2944842 102.022727,24.2954545 C101.617246,24.2953349 101.231365,24.469897 100.963738,24.7745132 C100.696111,25.0791294 100.57268,25.4842718 100.625,25.8863636 C101.904813,34.9009482 108.483784,42.2595953 117.299386,44.5368348 C126.114988,46.8140743 135.434812,43.5623919 140.920455,36.2954545 C141.287405,35.8568908 141.352924,35.2400484 141.086288,34.7341868 C140.819651,34.2283253 140.273738,33.9337652 139.704545,33.9886364 Z" id="Shape" fill="#959798"></path>
                </g>
            </g>
        </g>
    </g>
</svg>