<?xml version="1.0" encoding="UTF-8"?>
<svg width="7px" height="14px" viewBox="0 0 7 14" version="1.1" xmlns="http://www.w3.org/2000/svg" xmlns:xlink="http://www.w3.org/1999/xlink">
    <!-- Generator: Sketch 49 (51002) - http://www.bohemiancoding.com/sketch -->
    <title>rank_normal</title>
    <desc>Created with Sketch.</desc>
    <defs></defs>
    <g id="assets" stroke="none" stroke-width="1" fill="none" fill-rule="evenodd">
        <g id="Artboard" transform="translate(-441.000000, -79.000000)" fill="#535658">
            <g id="首页" transform="translate(99.000000, 63.000000)">
                <g id="rank_normal" transform="translate(342.000000, 16.000000)">
                    <path d="M3.85891332,0.340275547 L6.75993176,5.24547327 C6.90050299,5.48315866 6.82177642,5.78979622 6.58409103,5.93036745 C6.50701489,5.97595161 6.41911121,6 6.32956431,6 L0.527527424,6 C0.25138505,6 0.0275274245,5.77614237 0.0275274245,5.5 C0.0275274245,5.4104531 0.0515758114,5.32254942 0.0971599705,5.24547327 L2.99817841,0.340275547 C3.13874964,0.102590165 3.44538721,0.0238635901 3.68307259,0.16443482 C3.75555925,0.20730468 3.81604346,0.267788886 3.85891332,0.340275547 Z" id="Triangle"></path>
                    <path d="M3.85891332,8.34027555 L6.75993176,13.2454733 C6.90050299,13.4831587 6.82177642,13.7897962 6.58409103,13.9303675 C6.50701489,13.9759516 6.41911121,14 6.32956431,14 L0.527527424,14 C0.25138505,14 0.0275274245,13.7761424 0.0275274245,13.5 C0.0275274245,13.4104531 0.0515758114,13.3225494 0.0971599705,13.2454733 L2.99817841,8.34027555 C3.13874964,8.10259017 3.44538721,8.02386359 3.68307259,8.16443482 C3.75555925,8.20730468 3.81604346,8.26778889 3.85891332,8.34027555 Z" id="Triangle-Copy" transform="translate(3.428571, 11.000000) scale(1, -1) translate(-3.428571, -11.000000) "></path>
                </g>
            </g>
        </g>
    </g>
</svg>