<?xml version="1.0" encoding="UTF-8"?>
<svg width="190px" height="130px" viewBox="0 0 190 130" version="1.1" xmlns="http://www.w3.org/2000/svg" xmlns:xlink="http://www.w3.org/1999/xlink">
    <!-- Generator: Sketch 49 (51002) - http://www.bohemiancoding.com/sketch -->
    <title>ID_2</title>
    <desc>Created with Sketch.</desc>
    <defs>
        <rect id="path-1" x="0" y="0" width="190" height="130" rx="2"></rect>
        <polygon id="path-2" points="0 0.17731 178.917063 0.17731 178.917063 117.5125 0 117.5125"></polygon>
        <polygon id="path-4" points="0 117.63269 178.917063 117.63269 178.917063 0.2975 0 0.2975"></polygon>
    </defs>
    <g id="assets" stroke="none" stroke-width="1" fill="none" fill-rule="evenodd" opacity="0.26">
        <g id="Artboard" transform="translate(-493.000000, -605.000000)">
            <g id="个人中心" transform="translate(99.000000, 443.000000)">
                <g id="ID_2" transform="translate(394.000000, 162.000000)">
                    <g id="Rectangle-2-Copy">
                        <use fill="#FFFFFF" fill-rule="evenodd" xlink:href="#path-1"></use>
                        <rect stroke="#EEEEEE" stroke-width="1" x="0.5" y="0.5" width="189" height="129" rx="2"></rect>
                    </g>
                    <g id="Group-11" opacity="0.5" transform="translate(3.000000, 6.000000)">
                        <g id="Group-3" transform="translate(0.000000, 0.120190)">
                            <mask id="mask-3" fill="white">
                                <use xlink:href="#path-2"></use>
                            </mask>
                            <g id="Clip-2"></g>
                            <path d="M31.7015563,33.5341405 C18.8013247,41.3143605 6.08158467,51.1038955 1.363443,64.7436755 C0.197854666,68.112863 -0.439087,71.737603 0.348513,75.2008005 C2.153728,83.1369105 10.5446513,87.9385605 17.994333,92.1220055 C27.4765597,97.446958 36.6825297,103.271115 46.7268163,107.607773 C70.2581563,117.767695 97.241213,119.19272 122.941138,115.990133 C133.554645,114.667745 144.1953,112.545083 153.764043,108.060865 C163.333383,103.57635 171.81679,96.5202455 176.108315,87.3655755 C180.39984,78.2115005 179.947865,66.8678255 173.544736,58.8591255 C168.321516,52.3266205 159.424918,47.921538 157.379843,39.997923 C156.495583,36.5716155 157.079123,32.9831705 156.95979,29.4607705 C156.663545,20.6958255 151.762823,12.244743 144.308965,6.904618 C136.854808,1.5641955 127.03278,-0.673302 117.714935,0.4676105 C104.538446,2.080953 92.0290313,10.0417555 78.9844063,7.668598 C74.7644813,6.901048 70.580953,5.110098 67.4069847,8.4757155 C64.271203,11.800278 61.4549363,14.825258 57.6380597,17.611048 C49.472378,23.5696755 40.389023,28.294273 31.7015563,33.5341405" id="Fill-1" fill="#F6FAFF" mask="url(#mask-3)"></path>
                        </g>
                        <path d="M56.430287,111.512758 C56.356897,111.512758 56.2927553,111.458613 56.2829103,111.383941 C56.271872,111.302426 56.3288537,111.227456 56.410597,111.216746 C78.3196003,108.264058 95.3389203,103.723911 106.9954,97.722443 C116.516709,92.820238 122.533794,86.9163505 124.879589,80.1750005 C127.374849,73.004358 125.202385,66.149958 122.940422,61.662468 C120.483945,56.788823 117.393809,53.574038 117.362782,53.5422055 C117.305502,53.483003 117.307292,53.3886955 117.366362,53.331873 C117.426327,53.274753 117.520302,53.2762405 117.577284,53.3351455 C117.60831,53.367573 120.725595,56.6088355 123.202657,61.520263 C125.492664,66.060708 127.691679,72.999003 125.16211,80.270498 C122.790957,87.086818 116.725244,93.047528 107.134125,97.9857305 C95.446917,104.003858 78.394482,108.554418 56.4505737,111.511271 C56.443712,111.512461 56.4368503,111.512758 56.430287,111.512758" id="Fill-4" fill="#E9EEF4"></path>
                        <path d="M144.687997,106.352115 C144.68024,106.352115 144.672185,106.35152 144.664429,106.35033 C144.582984,106.33724 144.527494,106.26108 144.540322,106.18016 C147.530517,87.3629872 141.619937,74.0581922 136.13478,66.2104397 C130.192875,57.7087822 123.464265,53.6065547 123.39714,53.5657972 C123.326137,53.5235522 123.303762,53.4322197 123.346424,53.3620097 C123.389085,53.2915022 123.481569,53.2688922 123.550782,53.3114347 C123.618802,53.3521922 130.401709,57.4874422 136.379414,66.0402697 C141.896194,73.9329447 147.840784,87.3118172 144.835075,106.22657 C144.82344,106.299755 144.759895,106.352115 144.687997,106.352115" id="Fill-6" fill="#E9EEF4"></path>
                        <path d="M105.862151,109.944219 C105.787568,109.944219 105.723128,109.888586 105.714178,109.812724 C105.70493,109.730911 105.763403,109.657131 105.845146,109.647611 C117.414811,108.301721 126.505028,90.0667565 126.92717,89.205494 L126.92717,77.464954 C126.92717,77.382844 126.993996,77.316204 127.076336,77.316204 C127.158975,77.316204 127.225503,77.382844 127.225503,77.464954 L127.225503,89.2397065 C127.225503,89.262019 127.22073,89.284034 127.211183,89.3039665 C127.1187,89.496449 117.830986,108.552811 105.879753,109.943326 C105.873786,109.943921 105.868118,109.944219 105.862151,109.944219" id="Fill-8" fill="#E9EEF4"></path>
                        <path d="M107.863938,66.0388418 C107.781598,66.0388418 107.714771,65.9722018 107.714771,65.8900918 L107.714771,40.0944618 L104.599575,40.0944618 L102.809276,62.5093018 C102.802713,62.5911143 102.732605,62.6515068 102.648773,62.6455568 C102.566433,62.6390118 102.505275,62.5673143 102.512136,62.4855018 L104.313175,39.9338118 C104.319141,39.8564618 104.38388,39.7969618 104.461745,39.7969618 L107.863938,39.7969618 C107.946278,39.7969618 108.013105,39.8636018 108.013105,39.9457118 L108.013105,65.8900918 C108.013105,65.9722018 107.946278,66.0388418 107.863938,66.0388418" id="Fill-10" fill="#E9EEF4"></path>
                        <path d="M122.148108,57.0830505 C122.065768,57.0830505 121.998942,57.0164105 121.998942,56.9343005 L121.998942,40.0946105 L120.458647,40.0946105 L119.739663,42.5323255 C119.720272,42.5983705 119.660307,42.6483505 119.588408,42.6388305 C119.518897,42.6352605 119.461617,42.584388 119.449683,42.5162605 L119.020978,40.0946105 L116.565993,40.0946105 L116.065092,42.5204255 C116.051667,42.5864705 115.994983,42.6352605 115.927262,42.6388305 C115.85954,42.648053 115.798382,42.600453 115.777498,42.5364905 L114.985125,40.0946105 L111.681083,40.0946105 L111.035192,42.528458 C111.017292,42.594503 110.94957,42.6435905 110.889008,42.639128 C110.820392,42.6382355 110.761322,42.590933 110.745808,42.524293 L110.172113,40.0946105 L108.939698,40.0946105 C108.85706,40.0946105 108.790532,40.0279705 108.790532,39.9458605 C108.790532,39.863453 108.85706,39.7971105 108.939698,39.7971105 L110.290552,39.7971105 C110.359765,39.7971105 110.41973,39.844413 110.435542,39.911648 L110.89945,41.8772305 L111.42213,39.9077805 C111.439135,39.8423305 111.498802,39.7971105 111.566225,39.7971105 L115.093718,39.7971105 C115.158158,39.7971105 115.215737,39.838463 115.235427,39.899748 L115.887285,41.9081705 L116.298687,39.915813 C116.31241,39.846793 116.373867,39.7971105 116.444572,39.7971105 L119.14598,39.7971105 C119.218475,39.7971105 119.280528,39.848578 119.293058,39.919978 L119.63286,41.840043 L120.20387,39.903913 C120.222665,39.8405455 120.28084,39.7971105 120.34707,39.7971105 L122.148108,39.7971105 C122.230448,39.7971105 122.297275,39.863453 122.297275,39.9458605 L122.297275,56.9343005 C122.297275,57.0164105 122.230448,57.0830505 122.148108,57.0830505" id="Fill-12" fill="#E9EEF4"></path>
                        <path d="M119.146129,53.0668005 C119.063789,53.0668005 118.996962,53.0001605 118.996962,52.9180505 L118.996962,48.484408 C118.720109,48.066718 118.395224,47.8403205 118.030959,47.8105705 C117.374924,47.7594005 116.751407,48.339823 116.593589,48.4995805 L116.593589,51.4710105 C116.593589,51.5531205 116.527061,51.6197605 116.444422,51.6197605 C116.362082,51.6197605 116.295256,51.5531205 116.295256,51.4710105 L116.295256,48.4400805 C116.295256,48.403488 116.308681,48.368383 116.333144,48.341013 C116.366557,48.304123 117.155649,47.445538 118.053931,47.513963 C118.527087,47.552043 118.936997,47.8367505 119.272026,48.3603505 C119.287241,48.3841505 119.295296,48.411818 119.295296,48.4400805 L119.295296,52.9180505 C119.295296,53.0001605 119.228469,53.0668005 119.146129,53.0668005" id="Fill-14" fill="#E9EEF4"></path>
                        <path d="M114.117005,66.0388417 C113.952325,66.0388417 113.818672,65.9722017 113.818672,65.8900917 L113.818672,46.1575117 C113.818672,46.0754017 113.952325,46.0087617 114.117005,46.0087617 C114.281685,46.0087617 114.415338,46.0754017 114.415338,46.1575117 L114.415338,65.8900917 C114.415338,65.9722017 114.281685,66.0388417 114.117005,66.0388417" id="Fill-16" fill="#E9EEF4"></path>
                        <path d="M117.344196,69.431621 C117.179516,69.431621 117.045863,69.364981 117.045863,69.282871 L117.045863,55.0632635 C117.045863,54.9811535 117.179516,54.9145135 117.344196,54.9145135 C117.508876,54.9145135 117.642529,54.9811535 117.642529,55.0632635 L117.642529,69.282871 C117.642529,69.364981 117.508876,69.431621 117.344196,69.431621" id="Fill-18" fill="#E9EEF4"></path>
                        <path d="M137.469733,49.6420698 C136.042506,49.6420698 134.423153,49.5453823 132.614059,49.3511148 C127.856538,48.8411998 123.483269,47.8136348 123.439713,47.8029248 C123.359461,47.7841823 123.309938,47.7038573 123.329031,47.6241273 C123.347826,47.5438023 123.427183,47.4935248 123.508329,47.5137548 C123.681661,47.5542148 140.872821,51.5657048 144.374956,47.5607598 C145.658386,46.0925973 145.831419,43.3303098 144.861836,39.7820273 C143.666414,35.4049098 140.984994,30.8891573 139.237059,30.3081398 C139.158896,30.2819598 139.116831,30.1977673 139.142488,30.1198223 C139.169039,30.0418773 139.253468,30.0002273 139.331333,30.0258123 C141.158624,30.6333073 143.931931,35.2460448 145.149728,39.7040823 C146.146459,43.3511348 145.951051,46.2110023 144.599899,47.7559198 C143.502331,49.0116673 141.111488,49.6420698 137.469733,49.6420698" id="Fill-20" fill="#E9EEF4"></path>
                        <path d="M132.235206,49.08512 C130.749804,49.08512 129.034984,48.932205 127.050769,48.58651 C126.969622,48.5725275 126.915326,48.495475 126.929646,48.414555 C126.943667,48.3333375 127.020637,48.2768125 127.102082,48.29377 C139.060476,50.374485 140.897612,45.237255 141.589447,43.30291 C141.649412,43.1354175 141.701024,42.9926175 141.748757,42.8807575 C142.220721,41.782685 139.452486,34.81345 138.346266,32.2207375 C138.314046,32.1451725 138.349249,32.058005 138.425324,32.0255775 C138.500504,31.99315 138.588512,32.0285525 138.620732,32.104415 C139.033029,33.0703975 142.630929,41.58336 142.023224,42.9979725 C141.976684,43.1050725 141.927757,43.24222 141.870477,43.40287 C140.951611,45.971485 138.936966,49.0848225 132.235206,49.08512" id="Fill-22" fill="#E9EEF4"></path>
                        <path d="M27.3119095,61.1492805 C27.3035562,61.1492805 27.2946062,61.1486855 27.2862528,61.147198 C27.2051062,61.132918 27.1505112,61.056163 27.1645328,60.975243 L28.5655062,52.892763 C28.5798262,52.811843 28.6588845,52.757698 28.7379428,52.771383 C28.8193878,52.785663 28.8736845,52.8627155 28.8596628,52.943338 L27.4586895,61.025818 C27.4458612,61.0981105 27.3829128,61.1492805 27.3119095,61.1492805" id="Fill-24" fill="#E9EEF4"></path>
                        <path d="M33.1154177,57.8564315 C33.0330777,57.8564315 32.966251,57.7897915 32.966251,57.7076815 L32.966251,54.613979 L30.9563793,55.206004 C30.878216,55.228614 30.7946827,55.1842865 30.7711143,55.105449 C30.747546,55.0266115 30.7928927,54.9439065 30.8716527,54.9207015 L33.0730543,54.2721515 C33.1186993,54.259359 33.1670293,54.267689 33.2049177,54.295654 C33.2425077,54.3239165 33.2645843,54.3679465 33.2645843,54.4149515 L33.2645843,57.7076815 C33.2645843,57.7897915 33.1977577,57.8564315 33.1154177,57.8564315" id="Fill-26" fill="#E9EEF4"></path>
                        <path d="M30.462757,62.321847 C30.298077,62.321847 30.1644237,62.255207 30.1644237,62.173097 L30.1644237,56.9344195 C30.1644237,56.852012 30.298077,56.7856695 30.462757,56.7856695 C30.627437,56.7856695 30.7610903,56.852012 30.7610903,56.9344195 L30.7610903,62.173097 C30.7610903,62.255207 30.627437,62.321847 30.462757,62.321847" id="Fill-28" fill="#E9EEF4"></path>
                        <path d="M34.8669625,57.8564315 C34.8565208,57.8564315 34.8463775,57.8552415 34.8359358,57.853159 C34.7550875,57.8362015 34.7034758,57.7570665 34.7207792,57.6767415 L35.0611775,56.076489 L34.3788892,54.472964 C34.3466692,54.397399 34.3821708,54.309934 34.4579475,54.2781015 C34.5328292,54.245674 34.6217325,54.280779 34.6533558,54.3566415 L35.3541408,56.003304 C35.3660742,56.031269 35.3693558,56.0625065 35.3627925,56.091959 L35.0125492,57.7386215 C34.9976325,57.808534 34.9355792,57.8564315 34.8669625,57.8564315" id="Fill-30" fill="#E9EEF4"></path>
                        <path d="M32.0147467,53.8849255 L29.9132867,53.8849255 C29.8309467,53.8849255 29.76412,53.7516455 29.76412,53.5874255 C29.76412,53.4232055 29.8309467,53.2899255 29.9132867,53.2899255 L32.0147467,53.2899255 C32.0970867,53.2899255 32.1639133,53.4232055 32.1639133,53.5874255 C32.1639133,53.7516455 32.0970867,53.8849255 32.0147467,53.8849255" id="Fill-32" fill="#E9EEF4"></path>
                        <path d="M36.4174903,74.6204375 C36.393027,74.6204375 36.3682653,74.61419 36.3452937,74.6019925 C36.2733953,74.5621275 36.247142,74.4716875 36.2871187,74.3996925 C38.8307087,69.814325 36.2984553,59.2456375 36.2725003,59.1397275 C36.2531087,59.0597 36.3020353,58.979375 36.382287,58.95974 C36.4634337,58.9421875 36.5430887,58.9897875 36.5624803,59.0695175 C36.6692837,59.507735 39.147837,69.8568675 36.547862,74.5436825 C36.521012,74.59277 36.469997,74.6204375 36.4174903,74.6204375" id="Fill-34" fill="#E9EEF4"></path>
                        <path d="M30.3135903,75.3188782 C30.2527303,75.3188782 30.1954503,75.2816907 30.1733737,75.2212982 C30.1453303,75.1442457 30.1847103,75.0588632 30.262277,75.0303032 C36.0714237,72.9067482 33.0024687,60.5625807 32.9708453,60.4382257 C32.9505587,60.3587932 32.9988887,60.2775757 33.078842,60.2576432 C33.1590937,60.2365207 33.2396437,60.2856082 33.2599303,60.3650407 C33.2679853,60.3968732 34.0654303,63.5646532 34.1149537,66.9606157 C34.1817803,71.5013582 32.884627,74.3882982 30.3649037,75.3099532 C30.3478987,75.3159032 30.3308937,75.3188782 30.3135903,75.3188782" id="Fill-36" fill="#E9EEF4"></path>
                        <path d="M23.8583432,82.2040695 C23.6936632,82.2040695 23.5600098,82.1374295 23.5600098,82.0553195 L23.5600098,76.467377 C23.5600098,76.3849695 23.6936632,76.318627 23.8583432,76.318627 C24.0230232,76.318627 24.1566765,76.3849695 24.1566765,76.467377 L24.1566765,82.0553195 C24.1566765,82.1374295 24.0230232,82.2040695 23.8583432,82.2040695" id="Fill-38" fill="#E9EEF4"></path>
                        <path d="M52.4727163,87.405381 C51.4533113,87.405381 50.430028,87.3378485 49.4049547,87.191776 C36.8677947,85.4058835 35.1535713,82.593021 35.0867447,82.474021 C35.0760047,82.4546835 35.0697397,82.433561 35.0679497,82.4118435 C34.8665747,79.546621 41.9663113,78.1528335 42.652478,78.025206 C42.929928,77.7690585 44.9985713,75.803476 44.6164063,74.4846585 C44.4481463,73.9033435 43.8022547,73.514511 42.6966313,73.328871 C37.9677497,72.5336535 25.6683613,76.345521 25.2978313,76.587686 C25.2301097,76.631716 25.1376263,76.6165435 25.0910863,76.550796 C25.0448447,76.4850485 25.0564797,76.3963935 25.1206213,76.3481985 C25.698493,75.9162285 38.137203,72.2623335 42.7461547,73.0352385 C43.9746913,73.242001 44.700238,73.7016385 44.9031047,74.4025485 C45.3619413,75.9870335 42.9248563,78.1819885 42.820738,78.2748085 C42.8004513,78.292956 42.775093,78.3051535 42.7479447,78.310211 C42.6727647,78.323896 35.2484413,79.6956685 35.3632997,82.3529385 C35.5652713,82.631101 37.7422097,85.230061 49.4467213,86.897251 C58.847503,88.237786 68.2151697,82.885761 74.4148347,79.3452135 C76.5410563,78.1308185 78.377298,77.0824285 79.7910997,76.528186 C82.952538,75.2896935 83.106478,74.336801 83.3191897,73.0179835 C83.4773063,72.036531 83.6742063,70.814996 85.1378297,69.1838035 C86.6706663,67.4755585 86.9767563,66.9912285 87.0922113,66.808861 C87.1829047,66.665466 87.2031913,66.650591 87.395318,66.534566 C87.5659647,66.4313335 87.8833913,66.239446 88.5665747,65.7679085 C89.6340113,65.0307035 90.5606347,64.4981785 91.3777697,64.0287235 C92.5356013,63.3635135 93.449993,62.8381285 94.1448113,62.073256 C95.2930963,60.808286 95.3065213,59.121461 95.3065213,59.1045035 C95.3065213,59.0223935 95.373348,58.9557535 95.455688,58.9557535 L99.058063,58.9557535 C99.1407013,58.9557535 99.2072297,59.0223935 99.2072297,59.1045035 C99.2072297,59.1866135 99.1407013,59.2532535 99.058063,59.2532535 L95.5994847,59.2532535 C95.571143,59.713486 95.3996013,61.134346 94.3658763,62.2728785 C93.6394347,63.0725585 92.707143,63.608356 91.526638,64.2863585 C90.7145747,64.753136 89.793918,65.2823885 88.7363263,66.0124535 C88.0456847,66.4890485 87.7231863,66.6842085 87.5498547,66.7889285 C87.4000913,66.8793685 87.4000913,66.8793685 87.3446013,66.9674285 C87.2255663,67.155746 86.9096313,67.6552485 85.3603863,69.3819385 C83.9546397,70.9485735 83.7735513,72.072826 83.6136447,73.065286 C83.393773,74.4281335 83.220143,75.504786 79.9002897,76.805456 C78.5067747,77.3513685 76.6791847,78.3949985 74.5631063,79.6034435 C69.0006813,82.779851 60.9009313,87.4050835 52.4727163,87.405381" id="Fill-40" fill="#E9EEF4"></path>
                        <path d="M135.159409,54.0766642 C130.918601,54.0766642 127.096653,53.5911442 127.057273,53.5863842 C126.975529,53.5756742 126.917951,53.5010017 126.928393,53.4194867 C126.939133,53.3382692 127.011628,53.2808517 127.095758,53.2909667 C127.255366,53.3120892 143.059276,55.2922492 146.239808,51.0725092 L146.239808,44.8354217 C146.239808,44.7530142 146.306336,44.6866717 146.388974,44.6866717 C146.471314,44.6866717 146.538141,44.7530142 146.538141,44.8354217 L146.538141,51.1215967 C146.538141,51.1531317 146.527998,51.1837742 146.509501,51.2090617 C145.152084,53.0705192 141.459016,54.0347167 135.532923,54.0754742 C135.408219,54.0763667 135.283516,54.0766642 135.159409,54.0766642" id="Fill-42" fill="#E9EEF4"></path>
                        <path d="M108.939877,71.2276583 L108.939579,71.2276583 L108.939877,71.2276583 Z M93.5548273,90.9852283 C93.5172373,90.9852283 93.479349,90.9709483 93.4504107,90.9429833 C93.391639,90.8852683 93.3904457,90.7912583 93.448024,90.7326508 C95.262189,88.8854733 98.1873473,85.8340158 98.3147357,85.5064683 C98.4149757,85.1051408 101.851477,80.3275883 102.539434,79.3741008 C102.553157,79.3550608 102.571057,79.3398883 102.591941,79.3288808 C102.796597,79.2226733 107.617664,76.7248633 108.362602,76.5234558 C108.381696,76.5181008 108.406159,76.5062008 108.430324,76.4588983 C108.655864,76.0147308 108.117074,74.2460933 107.725064,73.2357833 C107.711639,73.2015708 107.711341,73.1637883 107.724467,73.1292783 C108.561292,70.9301583 108.846201,70.9301583 108.939579,70.9301583 C109.021919,70.9301583 109.088746,70.9967983 109.088746,71.0789083 C109.088746,71.1520933 109.035642,71.2130808 108.965832,71.2252783 C108.801152,71.3430883 108.357232,72.3132358 108.023696,73.1816383 C108.197624,73.6371108 109.038626,75.9189358 108.696736,76.5930708 C108.639456,76.7055258 108.551149,76.7804958 108.440766,76.8105433 C107.756687,76.9955883 103.187414,79.3559533 102.760797,79.5764008 C101.194249,81.7490433 98.697199,85.2773933 98.6020307,85.5853058 C98.5005973,85.9905008 94.7947007,89.7868983 93.6613323,90.9406033 C93.6317973,90.9703533 93.5936107,90.9852283 93.5548273,90.9852283 Z" id="Fill-44" fill="#E9EEF4"></path>
                        <path d="M87.0502358,93.7789615 C86.9881825,93.7789615 86.9303058,93.739989 86.9088258,93.678109 C86.8473692,93.498419 85.4007508,89.248929 85.2011658,87.2744215 C85.0135142,85.4192115 87.8357475,83.8585265 88.7632658,83.345934 C88.8649975,83.289409 88.9368958,83.2498415 88.9691158,83.228719 C89.1919708,83.0761015 92.6571125,79.646224 94.9387658,77.370944 C95.1496875,77.0487515 97.9525292,72.769214 98.3522958,72.370564 C98.5676925,72.1554715 98.4990758,70.003059 98.3114242,68.1225615 L96.6192775,64.151829 C96.5870575,64.076264 96.6222608,63.988799 96.6983358,63.9569665 C96.7738142,63.9242415 96.8615242,63.9599415 96.8937442,64.0355065 L98.5948408,68.027064 C98.6008075,68.040749 98.6043875,68.055624 98.6058792,68.070499 C98.7016442,69.023094 98.9808842,72.1643965 98.5632175,72.5808965 C98.2440008,72.8992215 96.0130642,76.273169 95.1804158,77.546469 C95.1744492,77.554799 95.1681842,77.5628315 95.1610242,77.570269 C94.5762908,78.1536665 89.4380958,83.2742365 89.1343925,83.476239 C89.0988908,83.4997415 89.0204292,83.544069 88.9079575,83.605949 C86.5338208,84.9188165 85.3864308,86.143029 85.4977092,87.2446715 C85.6940125,89.1855615 87.1764308,93.538284 87.1916458,93.582314 C87.2178992,93.6599615 87.1764308,93.7444515 87.0982675,93.7712265 C87.0821575,93.776284 87.0663458,93.7789615 87.0502358,93.7789615" id="Fill-46" fill="#E9EEF4"></path>
                        <path d="M54.684858,109.497672 L54.684858,108.483792 C54.684858,108.172904 54.5198797,107.884924 54.2513797,107.727249 L53.414853,107.235482 C53.1388947,107.073642 52.7967063,107.073642 52.520748,107.235482 L51.6842213,107.727249 C51.4157213,107.884924 51.2504447,108.172904 51.2504447,108.483792 L51.2504447,109.497672 C51.2504447,109.808857 51.4157213,110.096539 51.6842213,110.254512 L52.520748,110.745684 C52.7967063,110.907822 53.1388947,110.907822 53.414853,110.745684 L54.2513797,110.254512 C54.5198797,110.096539 54.684858,109.808857 54.684858,109.497672" id="Fill-48" fill="#FFAB9F"></path>
                        <path d="M59.5112052,109.497672 L59.5112052,108.483792 C59.5112052,108.172904 59.3462268,107.884924 59.0774285,107.727249 L58.2409018,107.235482 C57.9649435,107.073642 57.6227552,107.073642 57.3467968,107.235482 L56.5102702,107.727249 C56.2417702,107.884924 56.0767918,108.172904 56.0767918,108.483792 L56.0767918,109.497672 C56.0767918,109.808857 56.2417702,110.096539 56.5102702,110.254512 L57.3467968,110.745684 C57.6227552,110.907822 57.9649435,110.907822 58.2409018,110.745684 L59.0774285,110.254512 C59.3462268,110.096539 59.5112052,109.808857 59.5112052,109.497672" id="Fill-50" fill="#FFAB9F"></path>
                        <path d="M64.3372838,109.497672 L64.3372838,108.483792 C64.3372838,108.172904 64.1723055,107.884924 63.9038055,107.727249 L63.0672788,107.235482 C62.7913205,107.073642 62.4488338,107.073642 62.1728755,107.235482 L61.3363488,107.727249 C61.0678488,107.884924 60.9028705,108.172904 60.9028705,108.483792 L60.9028705,109.497672 C60.9028705,109.808857 61.0678488,110.096539 61.3363488,110.254512 L62.1728755,110.745684 C62.4488338,110.907822 62.7913205,110.907822 63.0672788,110.745684 L63.9038055,110.254512 C64.1723055,110.096539 64.3372838,109.808857 64.3372838,109.497672" id="Fill-52" fill="#FFAB9F"></path>
                        <path d="M69.1633625,109.497672 L69.1633625,108.483792 C69.1633625,108.172904 68.9983842,107.884924 68.7298842,107.727249 L67.8933575,107.235482 C67.6173992,107.073642 67.2752108,107.073642 66.9992525,107.235482 L66.1627258,107.727249 C65.8939275,107.884924 65.7289492,108.172904 65.7289492,108.483792 L65.7289492,109.497672 C65.7289492,109.808857 65.8939275,110.096539 66.1627258,110.254512 L66.9992525,110.745684 C67.2752108,110.907822 67.6173992,110.907822 67.8933575,110.745684 L68.7298842,110.254512 C68.9983842,110.096539 69.1633625,109.808857 69.1633625,109.497672" id="Fill-54" fill="#FFAB9F"></path>
                        <path d="M83.6418372,109.497672 L83.6418372,108.483792 C83.6418372,108.172904 83.4768588,107.884924 83.2083588,107.727249 L82.3718322,107.235482 C82.0958738,107.073642 81.7536855,107.073642 81.4777272,107.235482 L80.6412005,107.727249 C80.3724022,107.884924 80.2074238,108.172904 80.2074238,108.483792 L80.2074238,109.497672 C80.2074238,109.808857 80.3724022,110.096539 80.6412005,110.254512 L81.4777272,110.745684 C81.7536855,110.907822 82.0958738,110.907822 82.3718322,110.745684 L83.2083588,110.254512 C83.4768588,110.096539 83.6418372,109.808857 83.6418372,109.497672" id="Fill-56" fill="#FFAB9F"></path>
                        <path d="M88.4679158,109.497672 L88.4679158,108.483792 C88.4679158,108.172904 88.3029375,107.884924 88.0344375,107.727249 L87.1979108,107.235482 C86.9219525,107.073642 86.5797642,107.073642 86.3038058,107.235482 L85.4672792,107.727249 C85.1987792,107.884924 85.0335025,108.172904 85.0335025,108.483792 L85.0335025,109.497672 C85.0335025,109.808857 85.1987792,110.096539 85.4672792,110.254512 L86.3038058,110.745684 C86.5797642,110.907822 86.9219525,110.907822 87.1979108,110.745684 L88.0344375,110.254512 C88.3029375,110.096539 88.4679158,109.808857 88.4679158,109.497672" id="Fill-58" fill="#FFAB9F"></path>
                        <path d="M93.294263,109.497672 L93.294263,108.483792 C93.294263,108.172904 93.1292847,107.884924 92.8604863,107.726952 L92.0239597,107.235482 C91.7480013,107.073642 91.405813,107.073642 91.1298547,107.235482 L90.293328,107.726952 C90.024828,107.884924 89.8598497,108.172904 89.8598497,108.483792 L89.8598497,109.497672 C89.8598497,109.808857 90.024828,110.096539 90.293328,110.254512 L91.1298547,110.745684 C91.405813,110.907822 91.7480013,110.907822 92.0239597,110.745684 L92.8604863,110.254512 C93.1292847,110.096539 93.294263,109.808857 93.294263,109.497672" id="Fill-60" fill="#FFAB9F"></path>
                        <path d="M98.1203417,109.497672 L98.1203417,108.483792 C98.1203417,108.172904 97.9553633,107.884924 97.6868633,107.726952 L96.8503367,107.235482 C96.5743783,107.073642 96.2318917,107.073642 95.9559333,107.235482 L95.1194067,107.726952 C94.8509067,107.884924 94.6859283,108.172904 94.6859283,108.483792 L94.6859283,109.497672 C94.6859283,109.808857 94.8509067,110.096539 95.1194067,110.254512 L95.9559333,110.745684 C96.2318917,110.907822 96.5743783,110.907822 96.8503367,110.745684 L97.6868633,110.254512 C97.9553633,110.096539 98.1203417,109.808857 98.1203417,109.497672" id="Fill-62" fill="#FFAB9F"></path>
                        <path d="M102.946391,109.497672 L102.946391,108.483792 C102.946391,108.172904 102.781412,107.884924 102.512912,107.726952 L101.676386,107.235482 C101.400427,107.073642 101.058239,107.073642 100.782281,107.235482 L99.9457538,107.726952 C99.6769555,107.884924 99.5119772,108.172904 99.5119772,108.483792 L99.5119772,109.497672 C99.5119772,109.808857 99.6769555,110.096539 99.9457538,110.254512 L100.782281,110.745684 C101.058239,110.907822 101.400427,110.907822 101.676386,110.745684 L102.512912,110.254512 C102.781412,110.096539 102.946391,109.808857 102.946391,109.497672" id="Fill-64" fill="#FFAB9F"></path>
                        <path d="M107.772767,109.497672 L107.772767,108.483792 C107.772767,108.172904 107.607491,107.884924 107.338991,107.726952 L106.502464,107.235482 C106.226506,107.073642 105.884317,107.073642 105.608359,107.235482 L104.771832,107.726952 C104.503332,107.884924 104.338354,108.172904 104.338354,108.483792 L104.338354,109.497672 C104.338354,109.808857 104.503332,110.096539 104.771832,110.254512 L105.608359,110.745684 C105.884317,110.907822 106.226506,110.907822 106.502464,110.745684 L107.338991,110.254512 C107.607491,110.096539 107.772767,109.808857 107.772767,109.497672" id="Fill-66" fill="#FFAB9F"></path>
                        <path d="M122.250944,109.497672 L122.250944,108.483792 C122.250944,108.172904 122.085966,107.884924 121.817466,107.726952 L120.980939,107.235482 C120.704981,107.073642 120.362792,107.073642 120.086834,107.235482 L119.250307,107.726952 C118.981807,107.884924 118.816531,108.172904 118.816531,108.483792 L118.816531,109.497672 C118.816531,109.808857 118.981807,110.096539 119.250307,110.254512 L120.086834,110.745684 C120.362792,110.907822 120.704981,110.907822 120.980939,110.745684 L121.817466,110.254512 C122.085966,110.096539 122.250944,109.808857 122.250944,109.497672" id="Fill-68" fill="#FFAB9F"></path>
                        <path d="M127.077321,109.497672 L127.077321,108.483792 C127.077321,108.172904 126.912342,107.884924 126.643544,107.726952 L125.807017,107.235482 C125.531059,107.073642 125.188871,107.073642 124.912912,107.235482 L124.076386,107.726952 C123.807886,107.884924 123.642907,108.172904 123.642907,108.483792 L123.642907,109.497672 C123.642907,109.808857 123.807886,110.096539 124.076386,110.254512 L124.912912,110.745684 C125.188871,110.907822 125.531059,110.907822 125.807017,110.745684 L126.643544,110.254512 C126.912342,110.096539 127.077321,109.808857 127.077321,109.497672" id="Fill-70" fill="#FFAB9F"></path>
                        <path d="M131.90337,109.497672 L131.90337,108.483792 C131.90337,108.172904 131.738391,107.884924 131.469891,107.726952 L130.633365,107.235482 C130.357406,107.073642 130.01492,107.073642 129.738961,107.235482 L128.902435,107.726952 C128.633935,107.884924 128.468956,108.172904 128.468956,108.483792 L128.468956,109.497672 C128.468956,109.808857 128.633935,110.096539 128.902435,110.254512 L129.738961,110.745684 C130.01492,110.907822 130.357406,110.907822 130.633365,110.745684 L131.469891,110.254512 C131.738391,110.096539 131.90337,109.808857 131.90337,109.497672" id="Fill-72" fill="#FFAB9F"></path>
                        <path d="M136.729448,109.497672 L136.729448,108.483792 C136.729448,108.172904 136.56447,107.884924 136.29597,107.726952 L135.459443,107.235482 C135.183485,107.073642 134.841297,107.073642 134.565338,107.235482 L133.728812,107.726952 C133.460013,107.884924 133.295035,108.172904 133.295035,108.483792 L133.295035,109.497672 C133.295035,109.808857 133.460013,110.096539 133.728812,110.254512 L134.565338,110.745684 C134.841297,110.907822 135.183485,110.907822 135.459443,110.745684 L136.29597,110.254512 C136.56447,110.096539 136.729448,109.808857 136.729448,109.497672" id="Fill-74" fill="#FFAB9F"></path>
                        <path d="M73.20921,112.341058 C73.1713217,112.341058 73.133135,112.334215 73.0961417,112.318745 C72.943395,112.256568 72.8706017,112.082828 72.9332517,111.930805 L75.3619833,106.02424 C75.424335,105.871623 75.5994567,105.799033 75.75101,105.861805 C75.9034583,105.923983 75.9762517,106.097723 75.9136017,106.249448 L73.4851683,112.15631 C73.4380317,112.27174 73.3267533,112.341058 73.20921,112.341058" id="Fill-76" fill="#40527C"></path>
                        <path d="M112.080223,112.796887 C112.042335,112.796887 112.004148,112.790045 111.966857,112.774575 C111.814408,112.712397 111.741615,112.538657 111.804265,112.386337 L114.233295,106.479772 C114.295647,106.327452 114.469575,106.254565 114.622322,106.317635 C114.77477,106.379812 114.847563,106.553552 114.784913,106.705575 L112.356182,112.612437 C112.309045,112.72757 112.197767,112.796887 112.080223,112.796887" id="Fill-78" fill="#40527C"></path>
                        <path d="M52.3209243,58.5911673 C52.2072593,59.9123648 52.6735543,61.4325898 54.4173127,62.1013698 C55.4295577,62.4896073 56.6643593,62.5053748 57.8371077,62.5113248 C79.2899593,62.6130698 100.743109,62.7145173 122.195663,62.8162623 C125.531029,62.8323273 129.045396,62.8189398 131.940423,61.7336598 C134.835151,60.6483798 136.727181,58.0910698 135.039808,56.2067048 C133.243244,54.2003648 128.928449,54.1432448 125.386636,54.3101423 C111.834844,54.9488748 98.2454627,55.2410198 84.6590643,55.1868748 C77.9895243,55.1600998 71.320581,55.0503223 64.6576043,54.8563523 C62.0352543,54.7798948 56.649741,53.8627023 54.272621,54.4817998 C51.9002743,55.1000048 52.4841127,56.6928198 52.3209243,58.5911673" id="Fill-80" fill="#D4E1F9"></path>
                        <path d="M76.9077677,54.7785858 L76.311101,54.7785858 C76.1461227,54.7785858 76.0127677,54.6456033 76.0127677,54.4810858 C76.0127677,54.3165683 76.1461227,54.1835858 76.311101,54.1835858 L76.9077677,54.1835858 C77.072746,54.1835858 77.206101,54.3165683 77.206101,54.4810858 C77.206101,54.6456033 77.072746,54.7785858 76.9077677,54.7785858 M78.3994343,54.7785858 L77.8027677,54.7785858 C77.6377893,54.7785858 77.5044343,54.6456033 77.5044343,54.4810858 C77.5044343,54.3165683 77.6377893,54.1835858 77.8027677,54.1835858 L78.3994343,54.1835858 C78.5644127,54.1835858 78.6977677,54.3165683 78.6977677,54.4810858 C78.6977677,54.6456033 78.5644127,54.7785858 78.3994343,54.7785858 M79.891101,54.7785858 L79.2944343,54.7785858 C79.129456,54.7785858 78.996101,54.6456033 78.996101,54.4810858 C78.996101,54.3165683 79.129456,54.1835858 79.2944343,54.1835858 L79.891101,54.1835858 C80.0560793,54.1835858 80.1894343,54.3165683 80.1894343,54.4810858 C80.1894343,54.6456033 80.0560793,54.7785858 79.891101,54.7785858 M81.3827677,54.7785858 L80.786101,54.7785858 C80.6211227,54.7785858 80.4877677,54.6456033 80.4877677,54.4810858 C80.4877677,54.3165683 80.6211227,54.1835858 80.786101,54.1835858 L81.3827677,54.1835858 C81.547746,54.1835858 81.681101,54.3165683 81.681101,54.4810858 C81.681101,54.6456033 81.547746,54.7785858 81.3827677,54.7785858 M82.8744343,54.7785858 L82.2777677,54.7785858 C82.1127893,54.7785858 81.9794343,54.6456033 81.9794343,54.4810858 C81.9794343,54.3165683 82.1127893,54.1835858 82.2777677,54.1835858 L82.8744343,54.1835858 C83.0394127,54.1835858 83.1727677,54.3165683 83.1727677,54.4810858 C83.1727677,54.6456033 83.0394127,54.7785858 82.8744343,54.7785858 M84.366101,54.7785858 L83.7694343,54.7785858 C83.604456,54.7785858 83.471101,54.6456033 83.471101,54.4810858 C83.471101,54.3165683 83.604456,54.1835858 83.7694343,54.1835858 L84.366101,54.1835858 C84.5310793,54.1835858 84.6644343,54.3165683 84.6644343,54.4810858 C84.6644343,54.6456033 84.5310793,54.7785858 84.366101,54.7785858 M85.8577677,54.7785858 L85.261101,54.7785858 C85.0961227,54.7785858 84.9627677,54.6456033 84.9627677,54.4810858 C84.9627677,54.3165683 85.0961227,54.1835858 85.261101,54.1835858 L85.8577677,54.1835858 C86.022746,54.1835858 86.156101,54.3165683 86.156101,54.4810858 C86.156101,54.6456033 86.022746,54.7785858 85.8577677,54.7785858 M87.3494343,54.7785858 L86.7527677,54.7785858 C86.5877893,54.7785858 86.4544343,54.6456033 86.4544343,54.4810858 C86.4544343,54.3165683 86.5877893,54.1835858 86.7527677,54.1835858 L87.3494343,54.1835858 C87.5144127,54.1835858 87.6477677,54.3165683 87.6477677,54.4810858 C87.6477677,54.6456033 87.5144127,54.7785858 87.3494343,54.7785858 M88.841101,54.7785858 L88.2444343,54.7785858 C88.079456,54.7785858 87.946101,54.6456033 87.946101,54.4810858 C87.946101,54.3165683 88.079456,54.1835858 88.2444343,54.1835858 L88.841101,54.1835858 C89.0060793,54.1835858 89.1394343,54.3165683 89.1394343,54.4810858 C89.1394343,54.6456033 89.0060793,54.7785858 88.841101,54.7785858 M90.3327677,54.7785858 L89.736101,54.7785858 C89.5711227,54.7785858 89.4377677,54.6456033 89.4377677,54.4810858 C89.4377677,54.3165683 89.5711227,54.1835858 89.736101,54.1835858 L90.3327677,54.1835858 C90.497746,54.1835858 90.631101,54.3165683 90.631101,54.4810858 C90.631101,54.6456033 90.497746,54.7785858 90.3327677,54.7785858 M91.8244343,54.7785858 L91.2277677,54.7785858 C91.0627893,54.7785858 90.9294343,54.6456033 90.9294343,54.4810858 C90.9294343,54.3165683 91.0627893,54.1835858 91.2277677,54.1835858 L91.8244343,54.1835858 C91.9894127,54.1835858 92.1227677,54.3165683 92.1227677,54.4810858 C92.1227677,54.6456033 91.9894127,54.7785858 91.8244343,54.7785858 M93.316101,54.7785858 L92.7194343,54.7785858 C92.554456,54.7785858 92.421101,54.6456033 92.421101,54.4810858 C92.421101,54.3165683 92.554456,54.1835858 92.7194343,54.1835858 L93.316101,54.1835858 C93.4810793,54.1835858 93.6144343,54.3165683 93.6144343,54.4810858 C93.6144343,54.6456033 93.4810793,54.7785858 93.316101,54.7785858 M94.8077677,54.7785858 L94.211101,54.7785858 C94.0461227,54.7785858 93.9127677,54.6456033 93.9127677,54.4810858 C93.9127677,54.3165683 94.0461227,54.1835858 94.211101,54.1835858 L94.8077677,54.1835858 C94.972746,54.1835858 95.106101,54.3165683 95.106101,54.4810858 C95.106101,54.6456033 94.972746,54.7785858 94.8077677,54.7785858 M96.2994343,54.7785858 L95.7027677,54.7785858 C95.5377893,54.7785858 95.4044343,54.6456033 95.4044343,54.4810858 C95.4044343,54.3165683 95.5377893,54.1835858 95.7027677,54.1835858 L96.2994343,54.1835858 C96.4644127,54.1835858 96.5977677,54.3165683 96.5977677,54.4810858 C96.5977677,54.6456033 96.4644127,54.7785858 96.2994343,54.7785858 M97.791101,54.7785858 L97.1944343,54.7785858 C97.029456,54.7785858 96.896101,54.6456033 96.896101,54.4810858 C96.896101,54.3165683 97.029456,54.1835858 97.1944343,54.1835858 L97.791101,54.1835858 C97.9560793,54.1835858 98.0894343,54.3165683 98.0894343,54.4810858 C98.0894343,54.6456033 97.9560793,54.7785858 97.791101,54.7785858 M99.2827677,54.7785858 L98.686101,54.7785858 C98.5211227,54.7785858 98.3877677,54.6456033 98.3877677,54.4810858 C98.3877677,54.3165683 98.5211227,54.1835858 98.686101,54.1835858 L99.2827677,54.1835858 C99.447746,54.1835858 99.581101,54.3165683 99.581101,54.4810858 C99.581101,54.6456033 99.447746,54.7785858 99.2827677,54.7785858 M100.774434,54.7785858 L100.177768,54.7785858 C100.012789,54.7785858 99.8794343,54.6456033 99.8794343,54.4810858 C99.8794343,54.3165683 100.012789,54.1835858 100.177768,54.1835858 L100.774434,54.1835858 C100.939413,54.1835858 101.072768,54.3165683 101.072768,54.4810858 C101.072768,54.6456033 100.939413,54.7785858 100.774434,54.7785858 M102.266101,54.7785858 L101.669434,54.7785858 C101.504456,54.7785858 101.371101,54.6456033 101.371101,54.4810858 C101.371101,54.3165683 101.504456,54.1835858 101.669434,54.1835858 L102.266101,54.1835858 C102.431079,54.1835858 102.564434,54.3165683 102.564434,54.4810858 C102.564434,54.6456033 102.431079,54.7785858 102.266101,54.7785858 M103.757768,54.7785858 L103.161101,54.7785858 C102.996123,54.7785858 102.862768,54.6456033 102.862768,54.4810858 C102.862768,54.3165683 102.996123,54.1835858 103.161101,54.1835858 L103.757768,54.1835858 C103.922746,54.1835858 104.056101,54.3165683 104.056101,54.4810858 C104.056101,54.6456033 103.922746,54.7785858 103.757768,54.7785858 M105.249434,54.7785858 L104.652768,54.7785858 C104.487789,54.7785858 104.354434,54.6456033 104.354434,54.4810858 C104.354434,54.3165683 104.487789,54.1835858 104.652768,54.1835858 L105.249434,54.1835858 C105.414413,54.1835858 105.547768,54.3165683 105.547768,54.4810858 C105.547768,54.6456033 105.414413,54.7785858 105.249434,54.7785858 M106.741101,54.7785858 L106.144434,54.7785858 C105.979456,54.7785858 105.846101,54.6456033 105.846101,54.4810858 C105.846101,54.3165683 105.979456,54.1835858 106.144434,54.1835858 L106.741101,54.1835858 C106.906079,54.1835858 107.039434,54.3165683 107.039434,54.4810858 C107.039434,54.6456033 106.906079,54.7785858 106.741101,54.7785858 M108.232768,54.7785858 L107.636101,54.7785858 C107.471123,54.7785858 107.337768,54.6456033 107.337768,54.4810858 C107.337768,54.3165683 107.471123,54.1835858 107.636101,54.1835858 L108.232768,54.1835858 C108.397746,54.1835858 108.531101,54.3165683 108.531101,54.4810858 C108.531101,54.6456033 108.397746,54.7785858 108.232768,54.7785858 M109.724434,54.7785858 L109.127768,54.7785858 C108.962789,54.7785858 108.829434,54.6456033 108.829434,54.4810858 C108.829434,54.3165683 108.962789,54.1835858 109.127768,54.1835858 L109.724434,54.1835858 C109.889413,54.1835858 110.022768,54.3165683 110.022768,54.4810858 C110.022768,54.6456033 109.889413,54.7785858 109.724434,54.7785858 M111.216101,54.7785858 L110.619434,54.7785858 C110.454456,54.7785858 110.321101,54.6456033 110.321101,54.4810858 C110.321101,54.3165683 110.454456,54.1835858 110.619434,54.1835858 L111.216101,54.1835858 C111.381079,54.1835858 111.514434,54.3165683 111.514434,54.4810858 C111.514434,54.6456033 111.381079,54.7785858 111.216101,54.7785858 M112.707768,54.7785858 L112.111101,54.7785858 C111.946123,54.7785858 111.812768,54.6456033 111.812768,54.4810858 C111.812768,54.3165683 111.946123,54.1835858 112.111101,54.1835858 L112.707768,54.1835858 C112.872746,54.1835858 113.006101,54.3165683 113.006101,54.4810858 C113.006101,54.6456033 112.872746,54.7785858 112.707768,54.7785858 M114.199434,54.7785858 L113.602768,54.7785858 C113.437789,54.7785858 113.304434,54.6456033 113.304434,54.4810858 C113.304434,54.3165683 113.437789,54.1835858 113.602768,54.1835858 L114.199434,54.1835858 C114.364413,54.1835858 114.497768,54.3165683 114.497768,54.4810858 C114.497768,54.6456033 114.364413,54.7785858 114.199434,54.7785858 M115.691101,54.7785858 L115.094434,54.7785858 C114.929456,54.7785858 114.796101,54.6456033 114.796101,54.4810858 C114.796101,54.3165683 114.929456,54.1835858 115.094434,54.1835858 L115.691101,54.1835858 C115.856079,54.1835858 115.989434,54.3165683 115.989434,54.4810858 C115.989434,54.6456033 115.856079,54.7785858 115.691101,54.7785858 M117.182768,54.7785858 L116.586101,54.7785858 C116.421123,54.7785858 116.287768,54.6456033 116.287768,54.4810858 C116.287768,54.3165683 116.421123,54.1835858 116.586101,54.1835858 L117.182768,54.1835858 C117.347746,54.1835858 117.481101,54.3165683 117.481101,54.4810858 C117.481101,54.6456033 117.347746,54.7785858 117.182768,54.7785858 M118.674434,54.7785858 L118.077768,54.7785858 C117.912789,54.7785858 117.779434,54.6456033 117.779434,54.4810858 C117.779434,54.3165683 117.912789,54.1835858 118.077768,54.1835858 L118.674434,54.1835858 C118.839413,54.1835858 118.972768,54.3165683 118.972768,54.4810858 C118.972768,54.6456033 118.839413,54.7785858 118.674434,54.7785858 M120.166101,54.7785858 L119.569434,54.7785858 C119.404456,54.7785858 119.271101,54.6456033 119.271101,54.4810858 C119.271101,54.3165683 119.404456,54.1835858 119.569434,54.1835858 L120.166101,54.1835858 C120.331079,54.1835858 120.464434,54.3165683 120.464434,54.4810858 C120.464434,54.6456033 120.331079,54.7785858 120.166101,54.7785858 M121.559616,54.7785858 L121.061101,54.7785858 C120.896123,54.7785858 120.762768,54.6456033 120.762768,54.4810858 C120.762768,54.3165683 120.896123,54.1835858 121.061101,54.1835858 L121.559616,54.1835858 C121.724594,54.1835858 121.857949,54.3165683 121.857949,54.4810858 C121.857949,54.6456033 121.724594,54.7785858 121.559616,54.7785858" id="Fill-82" fill="#40527C"></path>
                        <path d="M135.719351,62.8863235 L52.2608997,62.8863235 C52.0959213,62.8863235 51.9625663,62.753341 51.9625663,62.5888235 L51.9625663,54.481056 C51.9625663,54.3165385 52.0959213,54.183556 52.2608997,54.183556 L73.7656613,54.183556 C73.9306397,54.183556 74.0639947,54.3165385 74.0639947,54.481056 C74.0639947,54.6455735 73.9306397,54.778556 73.7656613,54.778556 L52.559233,54.778556 L52.559233,62.2913235 L135.421018,62.2913235 L135.421018,54.778556 L124.005293,54.778556 C123.840613,54.778556 123.70696,54.6455735 123.70696,54.481056 C123.70696,54.3165385 123.840613,54.183556 124.005293,54.183556 L135.719351,54.183556 C135.88433,54.183556 136.017685,54.3165385 136.017685,54.481056 L136.017685,62.5888235 C136.017685,62.753341 135.88433,62.8863235 135.719351,62.8863235" id="Fill-84" fill="#40527C"></path>
                        <path d="M135.703331,76.5902147 C135.816101,77.9117097 135.353386,79.4319347 133.622157,80.1007147 C132.617371,80.4886547 131.391817,80.5047197 130.227422,80.5103722 C108.930599,80.6124147 87.6340742,80.7138622 66.3372508,80.8156072 C63.0263475,80.8313747 57.2246592,81.6732997 54.3511125,80.5880197 C51.4772675,79.5027397 51.9116408,76.0904147 53.5867825,74.2060497 C55.3705175,72.1997097 59.6533908,72.1425897 63.1695475,72.3094872 C76.6225908,72.9482197 90.1132242,73.2403647 103.600874,73.1862197 C110.221786,73.1594447 116.842101,73.0493697 123.456747,72.8556972 C126.060004,72.7792397 131.406137,71.8620472 133.765954,72.4811447 C136.120997,73.0993497 135.541336,74.6921647 135.703331,76.5902147" id="Fill-86" fill="#D4E1F9"></path>
                        <path d="M135.719351,80.8856685 L78.4799247,80.8856685 C78.3149463,80.8856685 78.1815913,80.752686 78.1815913,80.5881685 C78.1815913,80.423651 78.3149463,80.2906685 78.4799247,80.2906685 L135.421018,80.2906685 L135.421018,72.777901 L53.114133,72.777901 L53.114133,73.908996 C53.114133,74.0735135 52.980778,74.206496 52.8157997,74.206496 C52.6511197,74.206496 52.5174663,74.0735135 52.5174663,73.908996 L52.5174663,72.480401 C52.5174663,72.3158835 52.6511197,72.182901 52.8157997,72.182901 L135.719351,72.182901 C135.88433,72.182901 136.017685,72.3158835 136.017685,72.480401 L136.017685,80.5881685 C136.017685,80.752686 135.88433,80.8856685 135.719351,80.8856685" id="Fill-88" fill="#40527C"></path>
                        <path d="M52.815919,75.7142855 C52.6509407,75.7142855 52.5175857,75.581303 52.5175857,75.4167855 L52.5175857,75.0205155 C52.5175857,74.855998 52.6509407,74.7230155 52.815919,74.7230155 C52.9808973,74.7230155 53.1142523,74.855998 53.1142523,75.0205155 L53.1142523,75.4167855 C53.1142523,75.581303 52.9808973,75.7142855 52.815919,75.7142855 M52.815919,77.2017855 C52.6509407,77.2017855 52.5175857,77.068803 52.5175857,76.9042855 L52.5175857,76.3092855 C52.5175857,76.144768 52.6509407,76.0117855 52.815919,76.0117855 C52.9808973,76.0117855 53.1142523,76.144768 53.1142523,76.3092855 L53.1142523,76.9042855 C53.1142523,77.068803 52.9808973,77.2017855 52.815919,77.2017855 M52.815919,78.6892855 C52.6509407,78.6892855 52.5175857,78.556303 52.5175857,78.3917855 L52.5175857,77.7967855 C52.5175857,77.632268 52.6509407,77.4992855 52.815919,77.4992855 C52.9808973,77.4992855 53.1142523,77.632268 53.1142523,77.7967855 L53.1142523,78.3917855 C53.1142523,78.556303 52.9808973,78.6892855 52.815919,78.6892855 M52.815919,80.1767855 C52.6509407,80.1767855 52.5175857,80.043803 52.5175857,79.8792855 L52.5175857,79.2842855 C52.5175857,79.119768 52.6509407,78.9867855 52.815919,78.9867855 C52.9808973,78.9867855 53.1142523,79.119768 53.1142523,79.2842855 L53.1142523,79.8792855 C53.1142523,80.043803 52.9808973,80.1767855 52.815919,80.1767855 M53.5966573,80.885728 L52.9999907,80.885728 C52.8350123,80.885728 52.7016573,80.7527455 52.7016573,80.588228 C52.7016573,80.4237105 52.8350123,80.290728 52.9999907,80.290728 L53.5966573,80.290728 C53.7616357,80.290728 53.8949907,80.4237105 53.8949907,80.588228 C53.8949907,80.7527455 53.7616357,80.885728 53.5966573,80.885728 M55.088324,80.885728 L54.4916573,80.885728 C54.326679,80.885728 54.193324,80.7527455 54.193324,80.588228 C54.193324,80.4237105 54.326679,80.290728 54.4916573,80.290728 L55.088324,80.290728 C55.2533023,80.290728 55.3866573,80.4237105 55.3866573,80.588228 C55.3866573,80.7527455 55.2533023,80.885728 55.088324,80.885728 M56.5799907,80.885728 L55.983324,80.885728 C55.8183457,80.885728 55.6849907,80.7527455 55.6849907,80.588228 C55.6849907,80.4237105 55.8183457,80.290728 55.983324,80.290728 L56.5799907,80.290728 C56.744969,80.290728 56.878324,80.4237105 56.878324,80.588228 C56.878324,80.7527455 56.744969,80.885728 56.5799907,80.885728 M58.0716573,80.885728 L57.4749907,80.885728 C57.3100123,80.885728 57.1766573,80.7527455 57.1766573,80.588228 C57.1766573,80.4237105 57.3100123,80.290728 57.4749907,80.290728 L58.0716573,80.290728 C58.2366357,80.290728 58.3699907,80.4237105 58.3699907,80.588228 C58.3699907,80.7527455 58.2366357,80.885728 58.0716573,80.885728 M59.563324,80.885728 L58.9666573,80.885728 C58.801679,80.885728 58.668324,80.7527455 58.668324,80.588228 C58.668324,80.4237105 58.801679,80.290728 58.9666573,80.290728 L59.563324,80.290728 C59.7283023,80.290728 59.8616573,80.4237105 59.8616573,80.588228 C59.8616573,80.7527455 59.7283023,80.885728 59.563324,80.885728 M61.0549907,80.885728 L60.458324,80.885728 C60.2933457,80.885728 60.1599907,80.7527455 60.1599907,80.588228 C60.1599907,80.4237105 60.2933457,80.290728 60.458324,80.290728 L61.0549907,80.290728 C61.219969,80.290728 61.353324,80.4237105 61.353324,80.588228 C61.353324,80.7527455 61.219969,80.885728 61.0549907,80.885728 M62.5466573,80.885728 L61.9499907,80.885728 C61.7850123,80.885728 61.6516573,80.7527455 61.6516573,80.588228 C61.6516573,80.4237105 61.7850123,80.290728 61.9499907,80.290728 L62.5466573,80.290728 C62.7116357,80.290728 62.8449907,80.4237105 62.8449907,80.588228 C62.8449907,80.7527455 62.7116357,80.885728 62.5466573,80.885728 M64.038324,80.885728 L63.4416573,80.885728 C63.276679,80.885728 63.143324,80.7527455 63.143324,80.588228 C63.143324,80.4237105 63.276679,80.290728 63.4416573,80.290728 L64.038324,80.290728 C64.2033023,80.290728 64.3366573,80.4237105 64.3366573,80.588228 C64.3366573,80.7527455 64.2033023,80.885728 64.038324,80.885728 M65.5299907,80.885728 L64.933324,80.885728 C64.7683457,80.885728 64.6349907,80.7527455 64.6349907,80.588228 C64.6349907,80.4237105 64.7683457,80.290728 64.933324,80.290728 L65.5299907,80.290728 C65.694969,80.290728 65.828324,80.4237105 65.828324,80.588228 C65.828324,80.7527455 65.694969,80.885728 65.5299907,80.885728 M67.0216573,80.885728 L66.4249907,80.885728 C66.2600123,80.885728 66.1266573,80.7527455 66.1266573,80.588228 C66.1266573,80.4237105 66.2600123,80.290728 66.4249907,80.290728 L67.0216573,80.290728 C67.1866357,80.290728 67.3199907,80.4237105 67.3199907,80.588228 C67.3199907,80.7527455 67.1866357,80.885728 67.0216573,80.885728 M68.513324,80.885728 L67.9166573,80.885728 C67.751679,80.885728 67.618324,80.7527455 67.618324,80.588228 C67.618324,80.4237105 67.751679,80.290728 67.9166573,80.290728 L68.513324,80.290728 C68.6783023,80.290728 68.8116573,80.4237105 68.8116573,80.588228 C68.8116573,80.7527455 68.6783023,80.885728 68.513324,80.885728 M70.0049907,80.885728 L69.408324,80.885728 C69.2433457,80.885728 69.1099907,80.7527455 69.1099907,80.588228 C69.1099907,80.4237105 69.2433457,80.290728 69.408324,80.290728 L70.0049907,80.290728 C70.169969,80.290728 70.303324,80.4237105 70.303324,80.588228 C70.303324,80.7527455 70.169969,80.885728 70.0049907,80.885728 M71.4966573,80.885728 L70.8999907,80.885728 C70.7350123,80.885728 70.6016573,80.7527455 70.6016573,80.588228 C70.6016573,80.4237105 70.7350123,80.290728 70.8999907,80.290728 L71.4966573,80.290728 C71.6616357,80.290728 71.7949907,80.4237105 71.7949907,80.588228 C71.7949907,80.7527455 71.6616357,80.885728 71.4966573,80.885728 M72.988324,80.885728 L72.3916573,80.885728 C72.226679,80.885728 72.093324,80.7527455 72.093324,80.588228 C72.093324,80.4237105 72.226679,80.290728 72.3916573,80.290728 L72.988324,80.290728 C73.1533023,80.290728 73.2866573,80.4237105 73.2866573,80.588228 C73.2866573,80.7527455 73.1533023,80.885728 72.988324,80.885728 M74.4799907,80.885728 L73.883324,80.885728 C73.7183457,80.885728 73.5849907,80.7527455 73.5849907,80.588228 C73.5849907,80.4237105 73.7183457,80.290728 73.883324,80.290728 L74.4799907,80.290728 C74.644969,80.290728 74.778324,80.4237105 74.778324,80.588228 C74.778324,80.7527455 74.644969,80.885728 74.4799907,80.885728 M75.9716573,80.885728 L75.3749907,80.885728 C75.2100123,80.885728 75.0766573,80.7527455 75.0766573,80.588228 C75.0766573,80.4237105 75.2100123,80.290728 75.3749907,80.290728 L75.9716573,80.290728 C76.1366357,80.290728 76.2699907,80.4237105 76.2699907,80.588228 C76.2699907,80.7527455 76.1366357,80.885728 75.9716573,80.885728 M77.463324,80.885728 L76.8666573,80.885728 C76.701679,80.885728 76.568324,80.7527455 76.568324,80.588228 C76.568324,80.4237105 76.701679,80.290728 76.8666573,80.290728 L77.463324,80.290728 C77.6283023,80.290728 77.7616573,80.4237105 77.7616573,80.588228 C77.7616573,80.7527455 77.6283023,80.885728 77.463324,80.885728" id="Fill-90" fill="#40527C"></path>
                        <mask id="mask-5" fill="white">
                            <use xlink:href="#path-4"></use>
                        </mask>
                        <g id="Clip-93"></g>
                        <path d="M52.80142,25.677225 L59.1058,25.677225 L59.1058,24.132605 L52.80142,24.132605 L52.80142,25.677225 Z M59.64638,26.1481675 C59.6815833,26.1969575 59.7024667,26.2570525 59.7024667,26.32161 L59.7024667,26.82617 C60.2081417,26.800585 60.742755,26.7098475 61.2955667,26.5557425 C61.3098867,26.551875 61.3248033,26.5489 61.3394217,26.547115 C61.4125133,26.53819 61.4575617,26.525695 61.4835167,26.516175 L61.4835167,26.5152825 C61.4447333,25.9375375 61.4253417,25.366635 61.4253417,24.8183425 L61.4253417,24.18199 C61.4253417,24.073105 61.4850083,23.9728475 61.5807733,23.9210825 C61.89999,23.74764 62.03245,23.6110875 62.0876417,23.5254075 C62.0622833,23.5129125 62.026185,23.49774 61.97696,23.48108 L59.8292583,22.7501225 L59.3722117,23.537605 L59.4041333,23.537605 C59.5688133,23.537605 59.7024667,23.670885 59.7024667,23.835105 L59.7024667,25.974725 C59.7024667,26.03958 59.6815833,26.0993775 59.64638,26.1481675 Z M52.7169917,28.33747 L55.218815,28.33747 C55.21434,27.73414 55.195545,27.18079 55.1627283,26.688725 C55.1612367,26.6652225 55.16243,26.6420175 55.16601,26.61911 L52.8002267,26.61911 C52.79426,27.220655 52.766515,27.79602 52.7169917,28.33747 Z M58.19469,28.33747 L59.5419633,28.33747 L60.2436433,27.3750575 C59.956945,27.411055 59.67681,27.428905 59.4041333,27.428905 C59.239155,27.428905 59.1058,27.2959225 59.1058,27.131405 L59.1058,26.61911 L58.5288233,26.61911 C58.782705,26.67623 58.94828,26.887455 58.94828,27.18912 C58.94828,27.5583175 58.5753633,27.81982 58.19469,28.0123025 L58.19469,28.33747 Z M60.0264567,28.6846525 L62.1261267,28.6846525 L60.69711,27.7653775 L60.0264567,28.6846525 Z M54.9186917,30.997715 L55.2200083,30.997715 L55.2200083,29.2796525 L52.60094,29.2796525 C52.5627533,29.6467675 52.508755,30.0043625 52.438945,30.352735 L54.9186917,30.997715 Z M55.8124983,31.3446 L57.6022,31.3446 C57.599515,31.328535 57.5980233,31.3121725 57.5980233,31.295215 L57.5980233,28.9821525 C57.5980233,28.9172975 57.6186083,28.8575 57.6538117,28.80871 C57.6186083,28.7596225 57.5980233,28.699825 57.5980233,28.63497 L57.5980233,27.8254725 C57.5980233,27.7094475 57.6654467,27.6041325 57.771355,27.5553425 C58.17142,27.3714875 58.2997033,27.2459425 58.3384867,27.19626 L55.77819,26.9924725 C55.8038467,27.49138 55.816675,28.0420525 55.816675,28.63497 C55.816675,28.699825 55.79609,28.7596225 55.7608867,28.80871 C55.79609,28.8575 55.816675,28.9172975 55.816675,28.9821525 L55.816675,31.295215 C55.816675,31.3121725 55.8151833,31.328535 55.8124983,31.3446 Z M54.8891567,34.004845 L58.6418917,34.004845 L58.6418917,31.9398975 L54.8891567,31.9398975 L54.8891567,34.004845 Z M50.3112317,23.2386175 C50.3180933,23.6652325 50.3362917,24.17009 50.3655283,24.74605 L50.3658267,26.5533625 C50.4365317,29.8859575 50.027815,32.7443375 49.14982,35.05859 C50.860165,33.50683 51.828555,31.458245 52.0314217,28.958055 C52.0373883,28.88368 52.0708017,28.817635 52.1206233,28.768845 C52.0949667,28.7179725 52.0839283,28.6602575 52.0904917,28.6019475 C52.1662683,27.9194825 52.2047533,27.1715675 52.2047533,26.37992 L52.2047533,26.32161 C52.2047533,26.2570525 52.2253383,26.1969575 52.2605417,26.1481675 C52.2253383,26.0993775 52.2047533,26.03958 52.2047533,25.974725 L52.2047533,23.835105 C52.2047533,23.8008925 52.2104217,23.76787 52.2211617,23.7372275 L50.3112317,23.2386175 Z M52.532025,30.9920625 C52.5567867,31.53262 52.5693167,32.0803175 52.5693167,32.6253375 L52.5693167,33.4928475 C52.5693167,34.0801125 52.5549967,34.716465 52.52576,35.387625 C52.9482,35.3748325 53.4953433,35.3385375 54.1579417,35.27874 C54.2510217,35.26684 54.3196383,35.257915 54.29428,35.02884 C54.2930867,35.01813 54.29249,35.0071225 54.29249,34.9964125 L54.29249,34.6495275 C54.29249,34.5846725 54.313075,34.524875 54.3482783,34.476085 C54.313075,34.4269975 54.29249,34.3669025 54.29249,34.302345 L54.29249,31.6421 C54.29249,31.576055 54.3142683,31.5144725 54.3509633,31.46479 L52.532025,30.9920625 Z M59.1824717,34.476085 C59.2179733,34.524875 59.2385583,34.5846725 59.2385583,34.6495275 L59.2385583,35.4501 C60.0792617,35.3748325 60.665785,35.2998625 60.955765,35.228165 C61.1353617,35.200795 61.1353617,35.1653925 61.1353617,35.1118425 C61.0968767,34.16371 61.077485,33.497905 61.077485,33.145665 L61.077485,32.047295 C61.077485,31.94793 61.1273067,31.8548125 61.2102433,31.7994775 C61.686085,31.483235 61.7194983,31.33627 61.7197967,31.3347825 C61.716515,31.3163375 61.7153217,31.3145525 61.7153217,31.297 L61.7150233,31.2972975 C61.7096533,31.2972975 61.664605,31.23869 61.49008,31.1640175 L59.3871283,30.39736 L58.9551417,31.3448975 C59.11296,31.35293 59.2385583,31.4829375 59.2385583,31.6421 L59.2385583,34.302345 C59.2385583,34.3669025 59.2179733,34.4269975 59.1824717,34.476085 Z M48.79182,36.0459925 C48.7151483,36.0459925 48.6390733,36.01654 48.5811967,35.9591225 L48.40697,35.78568 C48.3198567,35.6991075 48.295095,35.5682075 48.3440217,35.45605 C49.3652167,33.117105 49.8449367,30.1239575 49.76916,26.55961 L49.76916,24.7606275 C49.730675,24.0055725 49.710985,23.3582125 49.710985,22.852165 C49.710985,22.75994 49.753945,22.67307 49.8270367,22.616545 C49.9004267,22.5603175 49.99649,22.54098 50.0847967,22.5644825 L52.483695,23.19072 L58.8841383,23.19072 L59.4357567,22.240505 C59.5070583,22.1176375 59.6556283,22.0617075 59.7901767,22.1081175 L62.1681917,22.917615 C62.5324567,23.03959 62.71802,23.231775 62.71802,23.48822 C62.71802,23.5045825 62.7165283,23.520945 62.7138433,23.5373075 C62.66432,23.83213 62.437885,24.100475 62.0220083,24.353945 L62.0220083,24.8183425 C62.0220083,25.34819 62.0408033,25.9000525 62.0777967,26.459055 C62.1088233,26.6461825 62.0473667,26.7800575 61.9891917,26.8603825 C61.8814933,27.008835 61.7001067,27.09868 61.4351867,27.1346775 C61.2854233,27.1757325 61.1368533,27.21292 60.9894767,27.245645 L62.5813833,28.2693425 C63.0074033,28.5243 63.0005417,28.77539 62.9185,28.9405025 C62.9128317,28.9518075 62.9065667,28.962815 62.8994067,28.973525 C62.7615767,29.179395 62.5097833,29.2796525 62.1294083,29.2796525 L58.19469,29.2796525 L58.19469,30.997715 L58.4581183,30.997715 L58.9584233,29.89994 C59.0228633,29.75833 59.1860517,29.691095 59.3325333,29.743455 L61.7105483,30.610965 C62.101365,30.7784575 62.2985633,30.99712 62.3113917,31.2669525 C62.3636,31.63734 62.0246933,31.95507 61.6741517,32.20378 L61.6741517,33.145665 C61.6741517,33.49017 61.6935433,34.147645 61.73173,35.0999425 C61.7320283,35.4902625 61.48471,35.751765 61.070325,35.811265 C60.77408,35.886235 60.1714467,35.96418 59.25616,36.0448025 L58.940225,36.0459925 C58.7752467,36.0459925 58.6418917,35.91301 58.6418917,35.7484925 L58.6418917,34.9470275 L54.8891567,34.9470275 L54.8891567,34.98124 C54.9374867,35.4795525 54.6892733,35.811265 54.221785,35.87017 C53.3417017,35.9499 52.6880533,35.98798 52.2131067,35.98798 C52.1316617,35.98798 52.0534983,35.9543625 51.996815,35.8954575 C51.9407283,35.8365525 51.9111933,35.75712 51.9150717,35.6759025 C51.9532583,34.8970475 51.97265,34.16252 51.97265,33.4928475 L51.97265,32.6253375 C51.97265,32.4129225 51.97086,32.20021 51.9669817,31.987795 C51.359575,33.5666275 50.3592633,34.9035925 48.9755933,35.9829225 C48.921595,36.0251675 48.8565583,36.0459925 48.79182,36.0459925 Z" id="Fill-92" fill="#40527C" mask="url(#mask-5)"></path>
                        <path d="M71.4920033,26.1404325 L77.0421967,26.1404325 L77.0421967,24.24863 L71.4920033,24.24863 L71.4920033,26.1404325 Z M77.583075,26.611375 C77.6182783,26.660165 77.6391617,26.7199625 77.6391617,26.7848175 L77.6391617,27.3583975 C77.6513933,27.356315 77.6639233,27.355125 77.676155,27.35453 C78.4604733,27.32121 79.0654933,27.271825 79.4774917,27.207565 C79.4780883,27.2019125 79.4783867,27.1959625 79.4783867,27.18912 C79.4399017,26.202015 79.4202117,25.380915 79.4202117,24.7606275 L79.4202117,24.35573 C79.4202117,24.253985 79.47242,24.15938 79.55834,24.10464 C79.82147,23.9377425 79.9882383,23.77501 80.0401483,23.6360775 L77.9336167,22.7647 L77.418395,23.663745 C77.545485,23.6979575 77.6391617,23.813685 77.6391617,23.95113 L77.6391617,26.4379325 C77.6391617,26.5027875 77.6182783,26.562585 77.583075,26.611375 Z M71.4920033,29.0315375 L73.457125,29.0315375 C73.37389,28.45171 73.3005,27.7984 73.2390433,27.0823175 L71.4920033,27.0823175 L71.4920033,29.0315375 Z M76.632585,29.0315375 L77.8840933,29.0315375 L78.70809,27.890625 C78.4222867,27.9129375 78.0974017,27.93168 77.731645,27.947745 C77.5666667,27.9879075 77.4386817,28.007245 77.3408283,28.007245 C77.17585,28.007245 77.042495,27.8742625 77.042495,27.709745 L77.042495,27.0823175 L76.3205283,27.0823175 C76.365875,27.82577 76.47059,28.47908 76.632585,29.0315375 Z M78.3685867,29.37872 L80.6875317,29.37872 L79.15022,28.296415 L78.3685867,29.37872 Z M71.4920033,29.97372 L71.4920033,32.23948 L74.2844033,31.9654825 C74.03619,31.388035 73.83213,30.7207425 73.6752067,29.97372 L71.4920033,29.97372 Z M75.0293417,32.238885 C75.08692,32.2653625 75.13525,32.309095 75.1662767,32.3653225 C75.533525,33.0257725 75.9995217,33.6017325 76.550245,34.077435 C77.6024667,34.909245 78.7301667,35.3349675 79.8924733,35.3349675 C81.1189217,35.3349675 81.2761433,34.8452825 81.2761433,34.41837 C81.2761433,34.377315 81.2522767,34.2151775 80.9435017,33.8617475 C80.697675,33.568115 80.5801317,33.1650025 80.5801317,32.6253375 L80.5404533,31.2925375 L79.9357317,32.739875 C79.8172933,33.0650425 79.64784,33.25812 79.4220017,33.3173225 C79.2910333,33.3500475 79.0899567,33.350345 78.8569583,33.1638125 C77.604555,32.5099075 76.725665,31.365425 76.24326,29.7616025 C76.2247633,29.7003175 76.2268517,29.6354625 76.2480333,29.576855 C76.1937367,29.5408575 76.1516717,29.487605 76.1301917,29.4230475 C75.889735,28.70518 75.748325,27.8213075 75.708945,26.7961225 C75.70805,26.7758925 75.7095417,26.755365 75.7128233,26.7354325 L73.8076667,26.7354325 C73.8091583,26.7437625 73.8100533,26.75239 73.8109483,26.7610175 C73.88762,27.7183725 73.9845783,28.566545 74.0982433,29.28233 C74.1062983,29.3320125 74.101525,29.3819925 74.0851167,29.4287 C74.1495567,29.47154 74.1969917,29.53937 74.212505,29.6199925 C74.398665,30.5892475 74.6632867,31.41957 74.998315,32.0874575 C75.0221817,32.1350575 75.032325,32.1874175 75.0293417,32.238885 Z M68.387845,33.420555 L69.15128,35.349545 C69.1676883,35.3807825 69.1829033,35.4039875 69.19603,35.420945 C69.2052783,35.369775 69.2136317,35.2903425 69.2136317,35.169855 C69.2136317,35.0499625 69.2858283,34.94197 69.39651,34.89556 C71.3049483,34.0943925 72.9234067,33.313455 74.21877,32.569705 L71.2229067,32.8639325 C71.1393733,32.871965 71.05584,32.8442975 70.99319,32.7883675 C70.9308383,32.7318425 70.8953367,32.651815 70.8953367,32.56792 L70.8953367,29.67622 C70.8953367,29.611365 70.9159217,29.5515675 70.9514233,29.50248 C70.9159217,29.45369 70.8953367,29.3938925 70.8953367,29.3290375 L70.8953367,26.7848175 C70.8953367,26.7199625 70.9159217,26.660165 70.9514233,26.611375 C70.9159217,26.562585 70.8953367,26.5027875 70.8953367,26.4379325 L70.8953367,23.95113 C70.8953367,23.88925 70.91443,23.8318325 70.94665,23.7842325 L69.0582,23.343635 C69.0632717,24.05704 69.0820667,24.8195325 69.1142867,25.615345 L69.114585,31.988985 C69.1533683,32.650625 68.903365,33.143285 68.387845,33.420555 Z M69.2321283,35.45962 C69.2360067,35.462595 69.2374983,35.463785 69.2377967,35.463785 C69.2610667,35.4581325 69.2562933,35.4509925 69.2798617,35.4509925 C69.2625583,35.4509925 69.2464483,35.4545625 69.2321283,35.45962 Z M69.2133333,36.054025 C69.0355267,36.054025 68.79686,35.968345 68.6074183,35.592305 L67.7267383,33.37117 C67.6963083,33.2953075 67.6989933,33.2102225 67.7336,33.136145 C67.768505,33.0620675 67.83205,33.0055425 67.9096167,32.97966 C68.3612933,32.8294225 68.548945,32.5295425 68.518515,32.00624 L68.5179183,25.6275425 C68.4794333,24.6939875 68.4600417,23.79524 68.4600417,22.9678925 C68.4600417,22.877155 68.5018083,22.791475 68.57311,22.73495 C68.6444117,22.6781275 68.73779,22.6573025 68.826395,22.678425 L71.518555,23.306745 L76.93599,23.306745 L77.5460817,22.2419925 C77.620665,22.1116875 77.78087,22.0575425 77.9192967,22.1146625 L80.25107,23.07886 C80.495405,23.10742 80.654715,23.2880025 80.654715,23.5462325 C80.654715,23.8931175 80.4458817,24.2108475 80.0168783,24.5142975 L80.0168783,24.7606275 C80.0168783,25.3734775 80.0365683,26.186545 80.074755,27.177815 C80.0750533,27.38428 80.00405,27.5571275 79.8703967,27.689515 C79.8280333,27.73176 79.7734383,27.7600225 79.7143683,27.7707325 C79.6448567,27.783525 79.5702733,27.7957225 79.49032,27.807325 L81.2245317,29.028265 C81.2949383,29.08122 81.4885567,29.2261025 81.5043683,29.44893 C81.5115283,29.5539475 81.478115,29.6548 81.4094983,29.7378025 C81.2522767,29.97372 80.899945,29.97372 80.7624133,29.97372 L76.9416583,29.97372 C77.3972133,31.22798 78.1418533,32.1273225 79.15917,32.6503275 C79.1800533,32.66074 79.1991467,32.67383 79.2170467,32.6890025 C79.2421067,32.7104225 79.2612,32.723215 79.2743267,32.730355 C79.29521,32.70596 79.33459,32.648245 79.380235,32.5235925 L80.2549483,30.4291925 C80.3175983,30.2786575 80.4906317,30.2072575 80.6406933,30.2673525 L80.9306733,30.3827825 C81.0410567,30.426515 81.1150433,30.53183 81.1186233,30.650235 L81.1767983,32.61671 C81.1767983,33.0144675 81.2510833,33.3006625 81.3972667,33.4755925 C81.7203617,33.8450875 81.87281,34.146455 81.87281,34.41837 C81.87281,35.1082725 81.5294283,35.9299675 79.8924733,35.9299675 C78.5920383,35.9299675 77.339635,35.46081 76.16987,34.5352875 C75.6322733,34.0717825 75.1749283,33.5315225 74.7999233,32.92016 C73.4762183,33.7034775 71.7974967,34.5263625 69.801945,35.37037 C69.7560017,35.892185 69.52539,36.0311175 69.3165567,36.0448025 C69.28553,36.050455 69.250625,36.054025 69.2133333,36.054025 Z" id="Fill-94" fill="#40527C" mask="url(#mask-5)"></path>
                        <path d="M92.0048067,25.9666925 L95.2936333,25.9666925 L95.2936333,24.9424 L92.0048067,24.9424 L92.0048067,25.9666925 Z M92.0048067,27.990585 L95.2936333,27.990585 L95.2936333,26.908875 L92.0048067,26.908875 L92.0048067,27.990585 Z M92.0048067,29.95706 L95.1387983,29.95706 C95.1695267,29.9359375 95.2041333,29.9151125 95.2417233,29.894585 C95.2581317,29.879115 95.275435,29.8639425 95.2936333,29.8490675 L95.2936333,28.93247 L92.0048067,28.93247 L92.0048067,29.95706 Z M89.5650367,30.303945 L91.4123167,30.303945 C91.4096317,30.28788 91.40814,30.2715175 91.40814,30.25456 L91.40814,28.63497 C91.40814,28.570115 91.428725,28.5103175 91.4639283,28.4615275 C91.428725,28.4127375 91.40814,28.35294 91.40814,28.288085 L91.40814,26.611375 C91.40814,26.54652 91.428725,26.4867225 91.4639283,26.437635 C91.428725,26.388845 91.40814,26.3290475 91.40814,26.2641925 L91.40814,24.6449 C91.40814,24.4803825 91.541495,24.3474 91.7064733,24.3474 L92.2980683,24.3474 C92.2938917,24.336095 92.2900133,24.3244925 92.28703,24.312295 C92.253915,24.1799075 92.3150733,24.0418675 92.4358983,23.9776075 C93.0036267,23.6759425 93.4806617,23.3903425 93.8547717,23.12884 C93.8902733,23.1041475 93.9305483,23.0874875 93.97321,23.0797525 C94.1605633,23.0458375 94.30257,22.9940725 94.375065,22.93606 C94.3497067,22.9292175 94.3162933,22.92178 94.273035,22.9155325 L91.8863683,22.7132325 C91.8801033,23.1517475 91.86101,23.61198 91.8299833,24.086195 C91.8240167,24.175445 91.7780733,24.2572575 91.70528,24.3090225 C91.63189,24.3607875 91.5391083,24.3768525 91.4531883,24.3536475 L89.533115,23.8270725 C89.5569817,24.427725 89.5692133,25.379725 89.5692133,26.6687925 L89.5692133,30.25456 C89.5692133,30.2715175 89.5677217,30.28788 89.5650367,30.303945 Z M95.592265,30.320605 L95.5919667,30.320605 L95.592265,30.320605 Z M94.2733333,33.0602825 L94.9976867,33.079025 C95.12776,33.0620675 95.262905,33.004055 95.2948267,32.65598 L95.2948267,32.556615 C94.965765,32.7348175 94.62477,32.9026075 94.2733333,33.0602825 Z M93.7649733,33.6421925 C94.673995,34.026265 95.155505,34.5989525 95.20294,35.3528175 C96.43267,35.18592 97.7521983,34.827135 97.7877,34.0575025 C97.7874017,32.4849175 97.7677117,31.2639775 97.7292267,30.441985 C97.7247517,30.3399425 97.772485,30.2429575 97.8563167,30.18435 C98.6105033,29.657775 99.3363483,29.02886 100.014758,28.3151575 C100.075917,28.2506 100.163627,28.2187675 100.251038,28.222635 C100.484335,28.238105 100.63201,28.230965 100.722107,28.2193625 L98.9643267,27.01776 C98.6895617,27.408675 98.4529833,27.722835 98.25668,27.9581575 C98.17613,28.0545475 98.0439683,28.08995 97.9261267,28.047705 C97.8076883,28.0051625 97.7289283,27.8933025 97.7289283,27.768055 L97.7289283,24.991785 C97.7289283,24.8855775 97.7856117,24.7877 97.8774983,24.7344475 C98.237885,24.525305 98.347075,24.37596 98.3673617,24.3131875 C98.3521467,24.3030725 98.3303683,24.2899825 98.2990433,24.274215 L96.1271767,23.3986725 L95.5839117,24.3474 L95.5919667,24.3474 C95.756945,24.3474 95.8903,24.4803825 95.8903,24.6449 L95.8903,26.2641925 C95.8903,26.3290475 95.869715,26.388845 95.8345117,26.437635 C95.869715,26.4867225 95.8903,26.54652 95.8903,26.611375 L95.8903,28.288085 C95.8903,28.35294 95.869715,28.4127375 95.8345117,28.4615275 C95.869715,28.5103175 95.8903,28.570115 95.8903,28.63497 L95.8903,30.023105 C95.8903,30.1602525 95.7975183,30.275385 95.671025,30.3101925 C95.662075,30.31763 95.6480533,30.3298275 95.6286617,30.3488675 C95.6059883,30.371775 95.579735,30.3905175 95.551095,30.405095 C95.479495,30.4402 95.4574183,30.462215 95.4565233,30.463405 C95.4004367,30.5202275 95.323765,30.55206 95.2438117,30.55206 L95.0161833,30.55206 C95.0349783,30.6636225 94.9884383,30.77816 94.8938667,30.8448 C93.417415,31.881885 91.21124,33.0745625 88.3233733,34.397545 C90.2282317,33.8950675 91.6432267,33.45923 92.5212217,33.101635 C92.5570217,33.087355 92.5943133,33.0799175 92.6313067,33.07962 C92.654875,33.062365 92.6814267,33.0483825 92.710365,33.0382675 C93.693075,32.69882 94.611345,32.279345 95.4404133,31.79085 C95.5328967,31.7370025 95.64686,31.73611 95.73994,31.7887675 C95.83302,31.8417225 95.8903,31.940195 95.8903,32.047295 L95.8903,32.6830525 C95.8187,33.4755925 95.3294333,33.641895 95.0439283,33.672835 C95.0308017,33.6743225 95.0173767,33.6743225 95.0039517,33.67462 L93.7649733,33.6421925 Z M94.895955,35.98798 C94.8174933,35.98798 94.7414183,35.9567425 94.6850333,35.9008125 C94.6208917,35.83685 94.5895667,35.7473025 94.5994117,35.6574575 C94.6349133,35.3373475 94.7435067,34.3633325 92.5713417,33.898935 C92.50004,33.8837625 92.43918,33.8438975 92.397115,33.78886 C91.32401,34.191675 89.7109217,34.66351 87.4883383,35.2266775 C87.195375,35.27636 87.0572467,35.31325 86.9883317,35.3361575 C86.8388667,35.3873275 86.6747833,35.311465 86.6160117,35.1647975 L86.5002583,34.8750325 C86.44089,34.725985 86.509805,34.557005 86.6568833,34.4924475 C89.6858617,33.1614325 92.060595,31.9553675 93.7354383,30.898945 L87.472825,30.898945 C87.3078467,30.898945 87.1744917,30.7659625 87.1744917,30.601445 L87.1744917,30.25456 C87.1744917,30.0900425 87.3078467,29.95706 87.472825,29.95706 L88.9725467,29.95706 L88.9725467,26.6687925 C88.9725467,25.0367075 88.953155,23.9547 88.9152667,23.453115 C88.9081067,23.356725 88.9483817,23.2624175 89.0232633,23.2011325 C89.0984433,23.13955 89.1989817,23.11813 89.2917633,23.143715 L91.2562883,23.6824875 C91.280155,23.23356 91.2920883,22.799805 91.2920883,22.3895525 C91.2920883,22.3062525 91.3269933,22.22682 91.3887483,22.1705925 C91.4505033,22.1140675 91.5340367,22.0866975 91.61578,22.0932425 L94.341055,22.3246975 C94.95592,22.41246 95.0200617,22.7632125 95.0200617,22.9101775 C95.0200617,22.92654 95.01857,22.9429025 95.0161833,22.959265 C94.956815,23.3121 94.6638517,23.5450425 94.1447517,23.6527375 C94.0078167,23.7467475 93.8589483,23.8437325 93.6987433,23.9428 L95.128655,23.9428 L95.7387467,22.8780475 C95.8127333,22.7483375 95.971745,22.6935975 96.109575,22.749825 L98.5454667,23.7330625 C98.8172483,23.8687225 98.9506033,24.0269925 98.9625367,24.2126325 C99.02101,24.6565025 98.5970783,24.9873225 98.325595,25.159575 L98.325595,26.887455 C98.3754167,26.818435 98.4264317,26.74644 98.4789383,26.6717675 C98.59141,26.50249 98.651375,26.43585 98.68628,26.4010425 C98.7880117,26.299595 98.9470233,26.285315 99.0660583,26.3659375 L101.095918,27.7534775 C101.110835,27.76389 101.125155,27.77579 101.138282,27.78888 C101.250455,27.9010375 101.399622,28.0747775 101.399622,28.288085 C101.399622,28.417795 101.346817,28.5388775 101.250753,28.628425 C101.089057,28.779555 100.808623,28.842625 100.352173,28.8238825 C99.7143367,29.4837375 99.0359267,30.0727875 98.3324567,30.5767525 C98.366765,31.4026125 98.3840683,32.576845 98.3840683,34.0711875 C98.3366333,35.111545 97.2062483,35.73332 94.92907,35.986195 C94.9180317,35.987385 94.9069933,35.98798 94.895955,35.98798 Z" id="Fill-95" fill="#40527C" mask="url(#mask-5)"></path>
                        <path d="M115.576034,22.6788117 C115.588862,22.7243292 115.601392,22.7716317 115.613624,22.8213142 C115.644352,22.7668717 115.692086,22.7231392 115.749664,22.6972567 L115.576034,22.6788117 Z M111.341192,23.1411267 L111.341192,23.1417217 L111.341192,23.1411267 Z M112.476649,27.9329592 L115.402404,27.9329592 L115.956409,26.8777267 C115.984751,26.8238792 116.027711,26.7819317 116.077532,26.7548592 C115.754437,26.0744767 115.489517,25.2492117 115.285159,24.2873942 C115.102579,24.4798767 114.827217,24.5932242 114.639864,24.6565917 C114.054236,25.9245367 113.328689,27.0232042 112.476649,27.9329592 Z M110.139804,27.1603517 L110.139804,28.4651867 C111.072394,26.7414717 111.668762,25.0308467 111.918169,23.3636567 C111.850447,23.5948142 111.621327,23.8322192 111.042859,23.9762092 C110.743929,24.6765242 110.420237,25.3259667 110.077154,25.9153142 C110.552399,26.0114067 110.603712,26.3127742 110.603712,26.4380217 C110.603712,26.6697742 110.455739,26.9015267 110.139804,27.1603517 Z M112.531841,23.2874967 C112.284821,25.0951067 111.646984,26.9479367 110.631457,28.8093942 C110.857892,28.6258367 111.027346,28.4779792 111.138624,28.3670117 C111.194412,28.3113792 111.270189,28.2798442 111.349546,28.2798442 L111.461421,28.2798442 C111.445012,28.1825617 111.478127,28.0814117 111.552711,28.0126892 C112.601054,27.0413517 113.475171,25.7894717 114.151194,24.2915592 C114.186397,24.2136142 114.253522,24.1544117 114.335564,24.1291242 C114.617191,24.0428492 114.759794,23.9586567 114.826322,23.9015367 C114.800666,23.9012392 114.775009,23.8979667 114.750247,23.8911242 L112.531841,23.2874967 Z M113.774399,33.0588842 L114.850786,33.1380192 C115.098999,33.1734217 115.180742,33.1055917 115.207592,33.0838742 C115.317677,32.9940292 115.384206,32.7896467 115.401211,32.4930392 C115.507716,31.2854867 115.565294,30.0722817 115.573349,28.8748442 L114.978472,28.8748442 C114.761584,30.6161117 114.357342,32.0194192 113.774399,33.0588842 Z M110.139804,29.8580817 L110.139804,34.5496567 C111.316132,33.0648342 111.950687,31.1617267 112.029746,28.8748442 L111.469774,28.8748442 C111.258852,29.0717892 110.935459,29.3368617 110.487064,29.6807717 C110.463496,29.6989192 110.438137,29.7129017 110.411586,29.7230167 C110.380559,29.7462217 110.346847,29.7715092 110.310451,29.7988792 C110.259436,29.8369592 110.199769,29.8562967 110.139804,29.8580817 Z M112.629694,28.5279592 C112.632677,28.5455117 112.634169,28.5633617 112.633871,28.5815092 C112.598071,31.2685292 111.848956,33.4795492 110.405022,35.1657792 C111.428902,34.6906717 112.232911,34.1048942 112.801236,33.4188592 C112.844196,33.3667967 112.902371,33.3322867 112.965021,33.3180067 C112.965319,33.2596967 112.982622,33.2019817 113.016632,33.1522992 C113.719804,32.1181892 114.190872,30.5682142 114.416412,28.5446192 C114.417009,28.5389667 114.417904,28.5336117 114.418799,28.5279592 L112.629694,28.5279592 Z M107.637981,28.5690142 C107.673482,28.5690142 107.709282,28.5752617 107.743889,28.5883517 C107.859642,28.6323817 107.936314,28.7430517 107.936314,28.8665142 L107.936314,30.6015342 C107.936314,32.3909967 107.919607,33.9567392 107.887089,35.2618717 C108.177666,35.2377742 108.598912,35.1869017 109.145757,35.1089567 C109.261212,35.0792067 109.563722,34.9884692 109.546121,34.8644117 C109.544032,34.8507267 109.543137,34.8367442 109.543137,34.8227617 L109.543137,27.0157667 C109.543137,26.9223517 109.587589,26.8339942 109.662769,26.7777667 C109.831626,26.6516267 109.918441,26.5608892 109.962892,26.5037692 L109.552087,26.5037692 C109.443196,26.5037692 109.342956,26.4448642 109.290747,26.3499617 C109.238241,26.2550592 109.241821,26.1393317 109.299697,26.0474042 C109.750777,25.3357842 110.172024,24.5140892 110.552101,23.6052267 C110.590287,23.5138942 110.671732,23.4472542 110.769287,23.4279167 C111.099244,23.3621692 111.247516,23.2845217 111.307779,23.2336492 C111.280034,23.2217492 111.243637,23.2077667 111.196501,23.1919992 L108.762399,22.6371617 C108.718246,22.9569742 108.653806,23.3559217 108.569974,23.8292442 C108.530594,24.1032417 108.490617,24.3210117 108.449447,24.4855292 C107.996876,26.1176142 107.322344,27.8538242 106.440769,29.6620292 C106.859032,29.2586192 107.185707,28.9260142 107.415126,28.6689742 C107.472704,28.6041192 107.554149,28.5690142 107.637981,28.5690142 Z M113.778576,33.6553717 C114.415219,34.0608642 114.767551,34.5987442 114.829604,35.2627642 C116.708507,35.1381117 117.655119,34.4764717 117.720454,33.2463092 C117.796827,32.1744167 117.874991,30.7565317 117.952557,29.0265692 C117.957629,28.9081642 118.032809,28.8046342 118.143491,28.7620917 C118.241642,28.7246067 118.351131,28.7415642 118.432277,28.8040392 C118.778344,28.0379767 119.223159,27.5057492 119.760159,27.2133067 C117.989551,26.4174942 116.629449,25.1078992 115.710582,23.3118917 C115.973712,24.9389192 116.386307,26.2089467 116.937627,27.0898442 C117.008631,27.2028942 116.995206,27.3489667 116.905109,27.4474392 C116.815012,27.5465067 116.670022,27.5729842 116.551286,27.5134842 L116.349314,27.4126317 L115.893461,28.2804392 C116.048594,28.2911492 116.171209,28.4199667 116.171209,28.5773442 C116.171209,29.8881292 116.112437,31.2200367 115.996087,32.5358792 C115.970132,33.0008717 115.831407,33.3432942 115.585282,33.5441067 C115.377642,33.7136817 115.109739,33.7767517 114.786346,33.7291517 L113.778576,33.6553717 Z M109.783892,36.0460817 C109.674106,36.0460817 109.568794,35.9850942 109.516884,35.8815642 L109.403219,35.6545717 C109.362944,35.6667692 109.320581,35.6786692 109.276427,35.6896767 C109.266582,35.6923542 109.256141,35.6944367 109.245997,35.6959242 C108.411261,35.8146267 107.866206,35.8726392 107.580104,35.8726392 C107.499554,35.8726392 107.422584,35.8399142 107.366199,35.7824967 C107.310112,35.7250792 107.279682,35.6471342 107.281771,35.5665117 C107.320256,34.2054492 107.339647,32.5349867 107.339647,30.6015342 L107.339647,29.6135367 C107.141852,29.8125642 106.914522,30.0347967 106.657956,30.2784492 C106.587549,30.3492542 106.498347,30.4316617 106.390649,30.5307292 C106.352462,30.5658342 106.307712,30.5890392 106.260576,30.6006417 C106.154966,30.6866192 106.003412,30.6895942 105.893626,30.6080792 L105.661522,30.4346367 C105.545172,30.3477667 105.508477,30.1903892 105.574707,30.0612742 C106.603659,28.0477942 107.376939,26.1205892 107.872471,24.3343992 C107.906182,24.1987392 107.943474,23.9946542 107.980766,23.7352342 C108.095922,23.0846017 108.172892,22.5850992 108.211079,22.2411892 C108.220924,22.1569967 108.265674,22.0805392 108.335186,22.0314517 C108.404399,21.9823642 108.490617,21.9645142 108.574449,21.9841492 L111.358496,22.6202042 C111.546744,22.6817867 111.918169,22.8064392 111.936964,23.1164342 C111.939947,23.1432092 111.941737,23.1705792 111.941737,23.1985442 C111.956356,23.0914442 111.969482,22.9846417 111.981117,22.8778392 C111.990664,22.7912667 112.037801,22.7133217 112.109997,22.6642342 C112.181597,22.6151467 112.271396,22.5999742 112.356421,22.6231792 L114.871967,23.3074292 C114.963556,23.3107017 115.043509,23.3246842 115.111827,23.3469967 C115.024117,22.8317267 114.928352,22.5931317 114.863017,22.4842467 C114.805141,22.3875592 114.806931,22.2661792 114.867791,22.1712767 C114.928949,22.0763742 115.036946,22.0243117 115.150312,22.0356167 L116.238334,22.1501542 C116.552181,22.1575917 116.693292,22.3613792 116.693292,22.5630842 C116.693292,22.7978117 116.507431,22.9676842 116.273239,23.1015592 C117.203741,24.8871542 118.605907,26.1485542 120.445132,26.8536292 C120.560587,26.8979567 120.636662,27.0083292 120.636662,27.1314942 L120.636662,27.3049367 C120.636662,27.4414892 120.543582,27.5601917 120.410824,27.5935117 C119.742259,27.7607067 119.207347,28.3792092 118.820409,29.4311692 C118.785802,29.5263692 118.704954,29.5968767 118.606206,29.6191892 C118.578162,29.6257342 118.550716,29.6272217 118.522374,29.6260317 C118.453459,31.1034167 118.383947,32.3317942 118.316226,33.2831992 C118.229411,34.9152842 116.962091,35.7881492 114.549767,35.8723417 C114.463847,35.8771017 114.385982,35.8431867 114.327211,35.7845792 C114.268737,35.7256742 114.237711,35.6453492 114.240992,35.5623467 C114.270826,34.8632217 113.901787,34.3402167 113.113292,33.9689367 C112.354034,34.8126467 111.270786,35.5040367 109.889502,36.0264467 C109.854896,36.0398342 109.819096,36.0460817 109.783892,36.0460817 Z" id="Fill-96" fill="#40527C" mask="url(#mask-5)"></path>
                        <path d="M126.908046,23.00508 C127.142835,23.5146975 127.321238,24.1451 127.440273,24.887065 C127.462051,25.007255 127.509486,25.2681625 128.115998,25.272625 C128.695063,25.207175 128.984446,24.9016425 129.050975,24.28433 C129.038445,23.7515075 128.300666,23.3123975 126.908046,23.00508 Z M128.13181,25.867625 C127.157155,25.867625 126.911925,25.31606 126.852258,24.987025 C126.703688,24.0626925 126.464723,23.34185 126.141031,22.8393725 C126.095088,22.76827 126.081663,22.6811025 126.104635,22.5995875 C126.12701,22.5180725 126.183096,22.449945 126.259171,22.4121625 L126.375223,22.354745 C126.432801,22.326185 126.49933,22.316665 126.56198,22.328565 C128.63838,22.70877 129.64794,23.353155 129.64794,24.2983125 C129.64794,24.30813 129.647343,24.318245 129.646448,24.3280625 C129.553965,25.2425775 129.040831,25.77421 128.162836,25.86584 C128.152395,25.86703 128.142251,25.867625 128.13181,25.867625 Z M136.637293,23.8270725 L138.618525,23.8270725 L137.306156,22.8679325 L136.637293,23.8270725 Z M136.52512,28.9161075 L138.424011,28.9161075 L137.185331,28.010815 L136.52512,28.9161075 Z M133.127401,34.2943125 L133.458253,34.2943125 L133.458253,27.913235 C133.36577,27.9771975 133.255088,28.0361025 133.127401,28.0896525 L133.127401,34.2943125 Z M130.9618,34.6989125 L132.550425,34.6989125 C132.537596,34.6655925 132.530735,34.629595 132.530735,34.5918125 L132.530735,27.8831875 C132.530735,27.7552625 132.612776,27.64132 132.734795,27.60086 C132.921253,27.5392775 133.040586,27.4791825 133.114871,27.428905 C133.104728,27.4286075 133.094286,27.4280125 133.084441,27.4268225 L130.936441,27.177815 C130.966573,28.0396725 130.98149,29.0142825 130.98149,30.0811175 L130.98149,31.295215 C130.98149,31.3722675 130.951955,31.443965 130.901835,31.4978125 C130.951955,31.55166 130.98149,31.6233575 130.98149,31.70041 L130.98149,34.5918125 C130.98149,34.629595 130.974628,34.6655925 130.9618,34.6989125 Z M134.03523,34.6989125 L135.739906,34.6989125 C135.727376,34.6655925 135.720216,34.629595 135.720216,34.5918125 L135.720216,29.2136075 C135.720216,29.1487525 135.740801,29.088955 135.776303,29.0398675 C135.740801,28.9910775 135.720216,28.93128 135.720216,28.866425 L135.720216,24.1245725 C135.720216,24.1079125 135.721708,24.0912525 135.724393,24.0751875 L134.050743,24.0751875 C134.053428,24.0912525 134.05492,24.1079125 134.05492,24.1245725 L134.05492,34.5918125 C134.05492,34.629595 134.048058,34.6655925 134.03523,34.6989125 Z M136.661458,34.6989125 L138.860175,34.6989125 C138.883445,34.6989125 138.904328,34.69802 138.923123,34.69683 L137.469643,33.66867 L136.661458,34.6989125 Z M126.43131,33.0953875 L127.517541,34.9012125 C127.539916,34.944945 127.556325,34.9666625 127.570645,34.977075 C127.596301,34.936615 127.65925,34.799765 127.65925,34.41837 C127.65925,34.3312025 127.697436,34.2484975 127.763965,34.1919725 C128.698643,33.397945 129.534871,32.5765475 130.252661,31.7465225 L128.977286,32.1570725 C128.887488,32.1856325 128.787845,32.17046 128.70998,32.1142325 C128.63301,32.0583025 128.587365,31.968755 128.587365,31.8738525 L128.587365,28.23037 C128.587365,28.131005 128.637186,28.038185 128.720123,27.98285 C129.12168,27.71629 129.236836,27.5458225 129.269653,27.4684725 C129.243996,27.4541925 129.202528,27.4351525 129.138386,27.4131375 L127.21712,26.637555 L126.707268,27.5279725 L126.740383,27.5279725 C126.905063,27.5279725 127.038418,27.660955 127.038418,27.8254725 L127.038418,31.758125 C127.038418,32.2730975 126.834656,32.722025 126.43131,33.0953875 Z M127.609726,35.582785 C127.341525,35.582785 127.123443,35.4426625 126.99516,35.187705 L125.788401,33.1834475 C125.709641,33.0525475 125.743055,32.883865 125.865073,32.792235 C126.253205,32.501875 126.44205,32.1636175 126.44205,31.758125 L126.44205,28.1229725 L125.115958,28.1229725 C124.95098,28.1229725 124.817625,27.98999 124.817625,27.8254725 L124.817625,27.47829 C124.817625,27.3137725 124.95098,27.18079 125.115958,27.18079 L126.218896,27.18079 L126.828391,26.1166325 C126.902378,25.9869225 127.060793,25.93248 127.199816,25.98841 L129.346026,26.8556225 C129.69448,26.9728375 129.879446,27.164725 129.879446,27.4208725 C129.879446,27.7380075 129.657785,28.0474075 129.184031,28.3865575 L129.184031,31.4650875 L130.384823,31.078635 L130.384823,30.0811175 C130.384823,28.8762425 130.365431,27.790665 130.327245,26.8544325 C130.323665,26.7675625 130.358271,26.68337 130.422413,26.6241675 C130.486256,26.5652625 130.572475,26.5349175 130.659588,26.5468175 L133.136948,26.833905 C133.266425,26.8353925 133.372333,26.84997 133.458253,26.8740675 L133.458253,24.4220725 L130.161371,24.4220725 C129.996691,24.4220725 129.863038,24.2887925 129.863038,24.1245725 L129.863038,23.7776875 C129.863038,23.61317 129.996691,23.4801875 130.161371,23.4801875 L136.152501,23.4801875 L136.991116,22.2776925 C137.03706,22.2116475 137.107466,22.16732 137.187121,22.15423 C137.267075,22.140545 137.347625,22.16018 137.412363,22.2074825 L139.134343,23.4668 C139.2853,23.5486125 139.379573,23.6574975 139.414478,23.7907775 C139.43745,23.8770525 139.444013,24.0103325 139.348546,24.16057 C139.200573,24.4220725 138.828253,24.4220725 138.685948,24.4220725 L136.316883,24.4220725 L136.316883,28.1902075 L136.878943,27.4196825 C136.925483,27.35572 136.995591,27.3125825 137.074053,27.300385 C137.154006,27.28908 137.232766,27.30812 137.296311,27.35453 L139.03649,28.62664 C139.313641,28.81228 139.327066,29.0606925 139.243831,29.229375 C139.229213,29.2588275 139.209821,29.285305 139.18685,29.3082125 C139.049915,29.444765 138.848241,29.5111075 138.569896,29.5111075 L136.316883,29.5111075 L136.316883,34.172635 L137.17489,33.07843 C137.273041,32.95348 137.452936,32.926705 137.582413,33.0192275 L139.380766,34.2913375 C139.451173,34.3436975 139.6433,34.48858 139.659708,34.7102175 C139.667763,34.8191025 139.631068,34.92412 139.556783,35.0098 C139.418356,35.1981175 139.183866,35.2939125 138.860175,35.2939125 L129.00175,35.2939125 C128.836771,35.2939125 128.703416,35.1606325 128.703416,34.9964125 L128.703416,34.5918125 C128.703416,34.4275925 128.836771,34.2943125 129.00175,34.2943125 L130.384823,34.2943125 L130.384823,32.4956275 C129.749671,33.1953475 129.03576,33.8861425 128.252933,34.5578975 C128.227575,35.173425 128.02799,35.5170375 127.65925,35.5789175 C127.642841,35.5812975 127.626135,35.582785 127.609726,35.582785 Z" id="Fill-97" fill="#40527C" mask="url(#mask-5)"></path>
                    </g>
                </g>
            </g>
        </g>
    </g>
</svg>