<?xml version="1.0" encoding="UTF-8"?>
<svg width="190px" height="130px" viewBox="0 0 190 130" version="1.1" xmlns="http://www.w3.org/2000/svg" xmlns:xlink="http://www.w3.org/1999/xlink">
    <!-- Generator: Sketch 49 (51002) - http://www.bohemiancoding.com/sketch -->
    <title>ID</title>
    <desc>Created with Sketch.</desc>
    <defs>
        <rect id="path-1" x="0" y="0" width="190" height="130" rx="2"></rect>
        <polygon id="path-2" points="0 0.062756208 183.767816 0.062756208 183.767816 113.801927 0 113.801927"></polygon>
        <polygon id="path-4" points="0.0238644683 0.158953595 42.7873363 0.158953595 42.7873363 18.3911722 0.0238644683 18.3911722"></polygon>
        <polygon id="path-6" points="-0.000150082706 0.189289538 7.57724126 0.189289538 7.57724126 16.8898275 -0.000150082706 16.8898275"></polygon>
        <polygon id="path-8" points="0.244993148 0.0297566517 5.38828842 0.0297566517 5.38828842 12.6860623 0.244993148 12.6860623"></polygon>
        <polygon id="path-10" points="0.0109368674 0.22300974 3.9230721 0.22300974 3.9230721 4.57880103 0.0109368674 4.57880103"></polygon>
        <polygon id="path-12" points="0.252191946 0.106295204 3.24770506 0.106295204 3.24770506 13.2866002 0.252191946 13.2866002"></polygon>
        <polygon id="path-14" points="0.134683197 0.160433693 2.90819054 0.160433693 2.90819054 0.975573779 0.134683197 0.975573779"></polygon>
    </defs>
    <g id="assets" stroke="none" stroke-width="1" fill="none" fill-rule="evenodd" opacity="0.26">
        <g id="Artboard" transform="translate(-261.000000, -605.000000)">
            <g id="个人中心" transform="translate(99.000000, 443.000000)">
                <g id="ID" transform="translate(162.000000, 162.000000)">
                    <g id="Rectangle-2">
                        <use fill="#FFFFFF" fill-rule="evenodd" xlink:href="#path-1"></use>
                        <rect stroke="#EEEEEE" stroke-width="1" x="0.5" y="0.5" width="189" height="129" rx="2"></rect>
                    </g>
                    <g id="Group-8" opacity="0.5" transform="translate(2.000000, 3.000000)">
                        <g id="Group-3" transform="translate(0.000000, 0.237513)">
                            <mask id="mask-3" fill="white">
                                <use xlink:href="#path-2"></use>
                            </mask>
                            <g id="Clip-2"></g>
                            <path d="M30.4749024,32.4212983 C27.5387067,33.0479596 24.5403772,33.6653125 21.93286,35.1543462 C19.3913788,36.6061465 17.3625762,38.8107211 15.5889122,41.1399072 C9.82668059,48.7078855 6.41832822,57.7621951 3.08801827,66.6726758 C1.33356476,71.3673806 -0.450604895,76.2788796 0.102295594,81.260041 C1.1093429,90.332667 9.48659576,96.7896502 17.8974669,100.329821 C28.0711961,104.611956 39.1391113,106.253226 50.1076724,107.486731 C72.6535256,110.022202 95.3419563,110.994773 118.009075,111.965543 C131.584854,112.546863 145.160331,113.128184 158.73611,113.709805 C162.801819,113.883961 167.085147,114.012176 170.691007,112.124685 C174.244038,110.26542 176.593415,106.708434 178.269826,103.06467 C182.752462,93.3200427 183.426028,82.3025748 183.680566,71.57877 C183.956716,59.9643674 183.785323,48.0959374 179.997265,37.113601 C176.209206,26.1312646 168.208358,16.0242122 157.151849,12.4696285 C150.711849,10.3995744 143.79549,10.6656127 137.054726,10.1050106 C128.135079,9.36304607 119.458563,7.08730779 111.243398,3.56034885 C105.906198,1.26899658 97.1570427,-3.11613098 93.2798356,3.77534141 C90.6942303,8.37125777 92.5201227,12.8305518 87.2474571,16.0110003 C79.7031569,20.5609756 69.0419628,22.439458 60.6301912,24.8653308 C50.6713788,27.7374032 40.6114114,30.2584612 30.4749024,32.4212983" id="Fill-1" fill="#F6FAFF" mask="url(#mask-3)"></path>
                        </g>
                        <g id="Group-111" transform="translate(106.557912, 20.655800)">
                            <g id="Group-6" transform="translate(6.003263, 60.654325)">
                                <mask id="mask-5" fill="white">
                                    <use xlink:href="#path-4"></use>
                                </mask>
                                <g id="Clip-5"></g>
                                <path d="M0.0649252855,24.3823482 C3.85688613,24.0979935 7.64344405,23.7457781 11.422798,23.3266026 C10.3896365,22.2792646 10.0024261,20.7274747 10.0639595,19.2576582 C10.125493,17.7872413 10.5853429,16.3669692 11.0409905,14.9680162 C12.064847,11.8272031 13.0884033,8.68669029 14.1119595,5.54617747 C14.2203184,10.0724314 14.3289775,14.5986854 14.4370362,19.1249394 C14.4481423,19.5897557 14.4574473,20.0665828 14.3019628,20.5046751 C13.9099498,21.6063619 12.5685207,22.2240151 12.3599073,23.3746456 C19.7658323,23.4764368 27.182263,23.5794291 34.5524685,24.311785 C37.0657344,24.5613085 39.7227785,24.862178 42.0160248,23.8028291 C42.292475,23.6755151 42.57763,23.511268 42.7073005,23.2356211 C42.8354701,22.9635775 42.7838421,22.6452924 42.7301129,22.3495275 C42.4134408,20.6220803 42.0967687,18.8946331 41.7803967,17.1668856 C41.5186545,15.7379058 41.2488078,14.2858052 40.5914506,12.990445 C40.0178388,11.8608332 39.1677768,10.8894632 38.5947654,9.76015174 C38.1412189,8.8653503 37.8707719,7.89157814 37.5189808,6.95203663 C37.1197638,5.88578164 36.6136887,4.85946241 36.010661,3.89409777 C35.5039856,3.08337164 34.9018584,2.29066165 34.060201,1.83785609 C33.2407556,1.39736156 32.2796333,1.32319513 31.3503282,1.28806366 C27.7477703,1.1523421 24.1070917,1.46492207 20.5576626,0.832255415 C19.1904196,0.589037575 17.8384848,0.204993604 16.4502303,0.162955952 C14.5429938,0.104703779 12.6822825,0.69233009 10.8647948,1.27305022 C9.30994976,1.76999531 7.7406969,2.27324605 6.32782904,3.09207944 C5.70168874,3.45450405 5.08455334,3.88629078 4.38127113,4.08747097 C3.74312431,4.27003448 3.44086003,4.12020028 3.21243589,4.80271158 C2.70035759,6.33318235 2.39539184,7.97775532 2.00878173,9.54515918 C1.2355615,12.6763637 0.541584339,15.8387961 0.216207504,19.051974 C0.171483197,19.4927688 -0.0713487765,24.3925573 0.0649252855,24.3823482" id="Fill-4" fill="#75C6F7" mask="url(#mask-5)"></path>
                            </g>
                            <g id="Group-9" transform="translate(40.822186, 62.155670)">
                                <mask id="mask-7" fill="white">
                                    <use xlink:href="#path-6"></use>
                                </mask>
                                <g id="Clip-8"></g>
                                <path d="M-0.000150082706,0.189289538 C-0.000150082706,0.189289538 7.80649266,16.1047443 7.57206525,20.7009609" id="Stroke-7" stroke="#40527C" stroke-width="0.6" stroke-linecap="round" stroke-linejoin="round" mask="url(#mask-7)"></path>
                            </g>
                            <g id="Group-12" transform="translate(15.308320, 66.359435)">
                                <mask id="mask-9" fill="white">
                                    <use xlink:href="#path-8"></use>
                                </mask>
                                <g id="Clip-11"></g>
                                <path d="M4.86840587,0.0297566517 C4.86840587,0.0297566517 4.42806656,12.6344461 5.38828842,14.7102053 L2.09669951,17.5912857 L0.244993148,14.0928523 C0.244993148,14.0928523 3.54258532,4.62597328 3.7454956,2.56792998" id="Stroke-10" stroke="#40527C" stroke-width="0.6" stroke-linecap="round" stroke-linejoin="round" mask="url(#mask-9)"></path>
                            </g>
                            <g id="Group-15" transform="translate(11.706362, 74.466697)">
                                <mask id="mask-11" fill="white">
                                    <use xlink:href="#path-10"></use>
                                </mask>
                                <g id="Clip-14"></g>
                                <path d="M3.9230721,0.22300974 C3.9230721,0.22300974 -0.122826754,8.11197554 0.0143477977,9.82711171" id="Stroke-13" stroke="#40527C" stroke-width="0.6" stroke-linecap="round" stroke-linejoin="round" mask="url(#mask-11)"></path>
                            </g>
                            <g id="Group-18" transform="translate(5.703100, 65.758897)">
                                <mask id="mask-13" fill="white">
                                    <use xlink:href="#path-12"></use>
                                </mask>
                                <g id="Clip-17"></g>
                                <path d="M3.24770506,0.106295204 C3.24770506,0.106295204 -0.181958891,17.0507716 0.298302121,19.7261679" id="Stroke-16" stroke="#40527C" stroke-width="0.6" stroke-linecap="round" stroke-linejoin="round" mask="url(#mask-13)"></path>
                            </g>
                            <path d="M24.4141886,30.8111362 C24.5351543,31.0225255 24.659722,31.2693466 24.5771772,31.4984518 C24.4565116,31.8326511 24.0134708,31.8752893 23.6961984,32.0344318 C23.2270434,32.2701429 23.0046225,32.8073241 22.8377318,33.3054702 C21.3945475,37.610426 21.2642767,42.3459674 22.4685312,46.7238885 C23.2039308,43.0783234 25.8315589,40.167216 27.8696666,37.0567301 C28.8719113,35.5268598 29.7465866,33.9156167 30.7812489,32.4076661 C32.0383321,30.5757253 33.5292424,28.9041282 35.2056535,27.4466227 C35.4394806,27.2433407 35.7042245,27.0337529 36.014293,27.0316511 C36.397001,27.0292489 36.6992653,27.3394267 36.9577057,27.6219798 C38.1127334,28.8831093 39.3935295,30.058362 40.9048509,30.8579781 C42.3225214,31.6077497 43.8980777,32.0044049 45.3664757,32.6493826 C46.8345736,33.2943603 48.2639504,34.2708349 48.9020972,35.7427532 C49.6798199,37.5359593 49.117014,39.5976058 48.5464039,41.4670802 C47.7158525,44.1902192 46.885001,46.9127577 46.0544496,49.6355964 C44.7142212,54.028531 43.2659341,58.6070317 40.031076,61.8664511 C39.5853338,62.3156534 39.101771,62.7402337 38.5326617,63.0161808 C37.8350825,63.3545839 37.0486551,63.4518711 36.2778362,63.5356461 C31.1615556,64.092645 26.0032522,64.2586937 20.8617579,64.0319906 C20.2203093,64.0037654 19.5467432,63.9755401 18.9707302,64.2595945 C17.2105736,65.127672 17.5041331,68.1883133 15.6977514,68.956101 C14.5679374,69.4365313 13.3192587,68.7002718 12.3140124,67.9952403 C10.9182538,67.0166639 9.52249527,66.0380874 8.1267367,65.0598112 C7.2409553,64.4385548 6.3494708,63.8127943 5.59486069,63.0374999 C4.92429625,62.3489832 4.37379706,61.5544716 3.82659967,60.7641638 C2.49717716,58.8439439 1.13053442,56.8315415 0.79885416,54.519771 C0.437157586,51.9972116 1.35895856,49.4812582 2.35219837,47.1343562 C4.50256705,42.0526047 7.06656052,37.1465105 10.0105605,32.4800309 C10.3035197,32.0155149 10.6102865,31.5425913 11.0521266,31.2167995 C11.5524985,30.8474687 12.1783387,30.701538 12.7849684,30.5643151 C15.2751217,30.00041 17.7655752,29.4386069 20.2551282,28.8729002 C20.9016796,28.7260687 22.0711152,28.1534558 22.736877,28.3723519 C23.5326095,28.6335858 24.0320809,30.1427375 24.4141886,30.8111362" id="Fill-19" fill="#75C6F7"></path>
                            <path d="M19.2700829,8.30621952 C19.2700829,7.86001987 19.4949051,7.10094 19.6473879,6.68176456 C19.7917664,6.28480903 20.0619132,5.94820755 20.3272574,5.61971333 C20.8000144,5.03478944 20.703662,4.48379594 21.1764189,3.89857178 C21.8373781,3.08093946 23.0029116,1.73843704 23.9193096,1.22317554 C25.1577827,0.527152147 27.1121449,0.506733859 28.5313162,0.57159195 C30.3566082,0.654766446 32.0471269,1.08204914 33.5884646,2.0636283 C34.7666049,2.81370011 35.4896979,4.23547353 36.0356946,5.52122512 C36.5816914,6.80697671 36.8008104,8.21433722 36.8158186,9.61148859 C36.8224222,10.1871041 36.7939067,10.767524 36.6540307,11.3263245 C36.5555772,11.7205776 36.402494,12.0992167 36.2500111,12.4763545 C35.9234336,13.2843782 35.5968561,14.0924019 35.2702786,14.9001254 C35.0784744,14.418494 35.2426636,13.871404 35.1733259,13.3576439 C35.0652672,12.5538239 34.40791,11.9292645 34.1830878,11.1503669 C33.8249931,9.90785403 33.8285951,9.57966008 33.7256392,8.15188128 C33.7166343,8.02306591 33.7256392,7.58016922 33.6109768,7.52041571 C33.4500894,7.4363404 32.9947419,7.42643153 32.8170454,7.46576676 C29.857737,8.12185439 27.2313096,6.98623727 24.2323798,6.54784462 C23.4234401,6.42953866 22.5283537,6.34876631 21.8541873,6.81118048 C20.9786114,7.41141808 20.9062721,9.10073113 20.6961579,10.141163 C20.5634858,10.8002533 20.2303047,12.1253401 19.6332803,12.508183 C19.2571759,12.2232278 19.2700829,10.8774224 19.2700829,10.4501397 C19.2700829,9.75021284 19.270383,9.00614641 19.2700829,8.30621952" id="Fill-21" fill="#FFD2B3"></path>
                            <path d="M8.81891289,61.8080488 C9.22773507,61.8080488 9.55941533,62.1395457 9.55941533,62.5488122 C9.55941533,62.9580788 9.22773507,63.289876 8.81891289,63.289876 C8.40979054,63.289876 8.07811028,62.9580788 8.07811028,62.5488122 C8.07811028,62.1395457 8.40979054,61.8080488 8.81891289,61.8080488 Z" id="Stroke-23" stroke="#40527C" stroke-width="0.5" stroke-linecap="round" stroke-linejoin="round"></path>
                            <path d="M11.1882506,63.612605 C11.5970728,63.612605 11.928753,63.9444022 11.928753,64.3536688 C11.928753,64.7629353 11.5970728,65.0947325 11.1882506,65.0947325 C10.7791282,65.0947325 10.447448,64.7629353 10.447448,64.3536688 C10.447448,63.9444022 10.7791282,63.612605 11.1882506,63.612605 Z" id="Stroke-25" stroke="#40527C" stroke-width="0.5" stroke-linecap="round" stroke-linejoin="round"></path>
                            <path d="M13.6733912,65.2373903 C14.0822134,65.2373903 14.4138936,65.5688872 14.4138936,65.978454 C14.4138936,66.3874203 14.0822134,66.7192175 13.6733912,66.7192175 C13.2642688,66.7192175 12.9325886,66.3874203 12.9325886,65.978454 C12.9325886,65.5688872 13.2642688,65.2373903 13.6733912,65.2373903 Z" id="Stroke-27" stroke="#40527C" stroke-width="0.5" stroke-linecap="round" stroke-linejoin="round"></path>
                            <path d="M17.384398,60.4993566 C17.7932202,60.4993566 18.1252007,60.8308535 18.1252007,61.2404204 C18.1252007,61.6493866 17.7932202,61.9811838 17.384398,61.9811838 C16.9752757,61.9811838 16.6435954,61.6493866 16.6435954,61.2404204 C16.6435954,60.8308535 16.9752757,60.4993566 17.384398,60.4993566 Z" id="Stroke-29" stroke="#40527C" stroke-width="0.5" stroke-linecap="round" stroke-linejoin="round"></path>
                            <path d="M20.1576953,60.8632525 C20.5668176,60.8632525 20.8984979,61.1947494 20.8984979,61.6043163 C20.8984979,62.0132826 20.5668176,62.3450797 20.1576953,62.3450797 C19.7488731,62.3450797 19.4171928,62.0132826 19.4171928,61.6043163 C19.4171928,61.1947494 19.7488731,60.8632525 20.1576953,60.8632525 Z" id="Stroke-31" stroke="#40527C" stroke-width="0.5" stroke-linecap="round" stroke-linejoin="round"></path>
                            <path d="M23.2012294,61.4039768 C23.6103517,61.4039768 23.942032,61.7354738 23.942032,62.1450406 C23.942032,62.5540069 23.6103517,62.8858041 23.2012294,62.8858041 C22.7924072,62.8858041 22.4607269,62.5540069 22.4607269,62.1450406 C22.4607269,61.7354738 22.7924072,61.4039768 23.2012294,61.4039768 Z" id="Stroke-33" stroke="#40527C" stroke-width="0.5" stroke-linecap="round" stroke-linejoin="round"></path>
                            <path d="M26.5393736,0.240004962 C26.5393736,0.240004962 34.0227406,-1.535185 36.3114845,5.48810545 C36.3114845,5.48810545 37.5199413,9.6810609 36.5942382,12.691257" id="Stroke-35" stroke="#40527C" stroke-width="0.6" stroke-linecap="round" stroke-linejoin="round"></path>
                            <path d="M25.3619507,0.433558319 C25.3619507,0.433558319 25.2332702,0.453649041 25.0117533,0.505310896" id="Stroke-37" stroke="#40527C" stroke-width="0.6" stroke-linecap="round" stroke-linejoin="round"></path>
                            <path d="M24.1157964,0.763133505 C22.8371015,1.2300517 20.8782369,2.29870885 20.0638943,4.60507456" id="Stroke-39" stroke="#40527C" stroke-width="0.6" stroke-linecap="round" stroke-linejoin="round" stroke-dasharray="0.6236999988555908,0.935699987411499"></path>
                            <path d="M19.937802,5.05547797 C19.9073345,5.1692058 19.8790176,5.28580374 19.8532098,5.4041955" id="Stroke-41" stroke="#40527C" stroke-width="0.6" stroke-linecap="round" stroke-linejoin="round"></path>
                            <path d="M19.4368909,6.54274004 C19.4368909,6.54274004 18.7916961,8.83229069 19.4368909,12.4078932" id="Stroke-43" stroke="#40527C" stroke-width="0.6" stroke-linecap="round" stroke-linejoin="round"></path>
                            <path d="M22.8618049,6.3656114 C22.8618049,6.3656114 20.8816287,7.64866057 20.9587706,9.11517406 C21.0359126,10.5816876 19.8532698,12.7937688 19.8532698,12.7937688" id="Stroke-45" stroke="#40527C" stroke-width="0.6" stroke-linecap="round" stroke-linejoin="round" stroke-dasharray="0.6,0.8999999999999999"></path>
                            <path d="M23.787478,6.54274004 C23.787478,6.54274004 29.8051485,7.88043816 33.611217,7.52041571 C33.611217,7.52041571 33.508261,11.5335101 34.4855922,12.4078932 C35.4626232,13.2825766 35.0510995,14.7749132 35.0510995,14.7749132" id="Stroke-47" stroke="#40527C" stroke-width="0.6" stroke-linecap="round" stroke-linejoin="round"></path>
                            <path d="M35.7028437,14.345919 C35.7028437,14.345919 36.3199791,12.1338377 37.4170754,12.7938289 C38.5144718,13.4541203 37.3834571,20.6575721 35.1373364,18.1878601" id="Stroke-49" stroke="#40527C" stroke-width="0.6" stroke-linecap="round" stroke-linejoin="round"></path>
                            <path d="M19.3902682,13.5228218 C19.3902682,13.5228218 18.4213416,12.4253388 18.4213416,13.248376 C18.4213416,14.0717134 19.3302356,17.5016855 19.3902682,18.0505771 C19.4500007,18.5991685 20.273048,19.0108372 20.273048,19.0108372" id="Stroke-51" stroke="#40527C" stroke-width="0.6" stroke-linecap="round" stroke-linejoin="round"></path>
                            <path d="M26.1706232,14.0717434 C26.1706232,14.0717434 24.8508059,18.805183 25.3049527,19.6282201 C25.7590995,20.4515576 27.3364568,19.0108672 27.3364568,19.0108672" id="Stroke-53" stroke="#40527C" stroke-width="0.6" stroke-linecap="round" stroke-linejoin="round"></path>
                            <path d="M20.273168,20.1771118 C20.273168,20.1771118 22.0390277,26.419703 26.5393736,26.6941488 C31.0394192,26.9685946 34.3997455,21.5490405 34.4684829,20.1771118" id="Stroke-55" stroke="#40527C" stroke-width="0.6" stroke-linecap="round" stroke-linejoin="round"></path>
                            <path d="M34.8797364,24.778493 C34.8797364,24.778493 33.0109207,30.3986267 26.5394036,31.5648713 C26.5394036,31.5648713 28.0909468,33.3484688 28.433433,34.9948433" id="Stroke-57" stroke="#40527C" stroke-width="0.6" stroke-linecap="round" stroke-linejoin="round" stroke-dasharray="0.6,0.8999999999999999"></path>
                            <path d="M22.5789312,27.517276 C22.5789312,27.517276 24.0704418,31.1532326 25.3050127,31.3589168 C25.3050127,31.3589168 22.9646408,32.5254616 22.5789312,34.7204276" id="Stroke-59" stroke="#40527C" stroke-width="0.6" stroke-linecap="round" stroke-linejoin="round"></path>
                            <path d="M35.1373964,25.7338587 C35.1373964,25.7338587 37.4855726,28.4143595 40.0228515,29.8865781 C42.5601305,31.3587967 49.0751713,33.8285087 49.280783,35.3376604 C49.280783,35.3376604 49.5551321,37.3272424 49.280783,38.356264" id="Stroke-61" stroke="#40527C" stroke-width="0.6" stroke-linecap="round" stroke-linejoin="round"></path>
                            <path d="M49.0067641,39.5224785 C49.0067641,39.5224785 45.8520496,55.6436175 40.9146662,61.3373171 C35.9772829,67.031317 15.19849,62.9152304 15.19849,62.9152304 C15.19849,62.9152304 15.4212111,53.4483513 19.1501377,51.5275309" id="Stroke-63" stroke="#40527C" stroke-width="0.6" stroke-linecap="round" stroke-linejoin="round"></path>
                            <path d="M19.8531197,51.9381787 C19.8531197,51.9381787 29.8737657,54.4090918 33.1656548,53.4482312" id="Stroke-65" stroke="#40527C" stroke-width="0.6" stroke-linecap="round" stroke-linejoin="round" stroke-dasharray="0.6,0.8999999999999999"></path>
                            <path d="M38.857198,40.1400116 C38.857198,40.1400116 37.8408457,45.7481346 36.3061116,47.9533097" id="Stroke-67" stroke="#40527C" stroke-width="0.6" stroke-linecap="round" stroke-linejoin="round"></path>
                            <path d="M21.7133207,28.4092849 C21.7133207,28.4092849 12.5925638,30.6730125 10.878032,30.6730125 C10.878032,30.6730125 0.38582969,45.4540512 0.180217945,53.6700099 C-0.0256939641,61.8862688 15.7469781,69.2951046 15.7469781,69.2951046 L18.8329553,64.3535787" id="Stroke-69" stroke="#40527C" stroke-width="0.6" stroke-linecap="round" stroke-linejoin="round"></path>
                            <path d="M9.71234845,38.356294 C9.71234845,38.356294 8.9922571,43.2203506 10.6374512,47.4946789" id="Stroke-71" stroke="#40527C" stroke-width="0.6" stroke-linecap="round" stroke-linejoin="round"></path>
                            <path d="M35.1373964,26.7041477 C35.1373964,26.7041477 23.6504535,39.59109 22.5788711,47.3428329 C22.5788711,47.3428329 20.8901533,42.7469165 21.7132007,40.1399816 C22.536248,37.5330467 22.3303361,29.0264277 22.3303361,29.0264277" id="Stroke-73" stroke="#40527C" stroke-width="0.6" stroke-linecap="round" stroke-linejoin="round"></path>
                            <path d="M37.8409357,29.4382465 L37.5542799,32.0451815 L35.6341364,32.5253115 L36.489001,34.308909 C36.489001,34.308909 22.8961135,48.0290976 22.5788411,54.2716888" id="Stroke-75" stroke="#40527C" stroke-width="0.6" stroke-linecap="round" stroke-linejoin="round"></path>
                            <path d="M17.1871308,30.604431 L19.1501977,33.7602576 L18.7644881,35.8180006 C18.7644881,35.8180006 20.1359334,50.2969688 21.3575974,52.2844489" id="Stroke-77" stroke="#40527C" stroke-width="0.6" stroke-linecap="round" stroke-linejoin="round"></path>
                            <path d="M29.7825462,53.1225295 C29.7825462,53.1225295 31.451153,51.0443682 31.6738741,50.89003 C31.8968953,50.735992 33.4001122,48.8521047 33.4001122,48.8521047 L34.7085233,48.0948264 C34.7085233,48.0948264 34.9483537,48.440436 34.8796163,48.8866356 C34.8111791,49.332535 34.2453716,49.6066805 34.2453716,49.6066805 L33.1656848,50.7215791" id="Stroke-79" stroke="#40527C" stroke-width="0.5" stroke-linecap="round" stroke-linejoin="round"></path>
                            <path d="M34.6135817,49.343675 L35.3084594,49.2466881 C35.3084594,49.2466881 36.1140972,49.3496803 35.7028737,50.481394" id="Stroke-81" stroke="#40527C" stroke-width="0.5" stroke-linecap="round" stroke-linejoin="round"></path>
                            <path d="M31.673814,53.1225295 C31.673814,53.1225295 32.7144796,52.4850586 33.0056378,52.2106128 C33.2970962,51.9364672 34.1543622,51.5076832 34.1543622,51.5076832 C34.1543622,51.5076832 35.2004307,50.7071662 35.4228515,50.7585122 C35.6455726,50.8101584 35.3084894,52.1151272 34.9999217,52.2844789 C34.691354,52.4535303 33.9196346,52.89973 33.9196346,52.89973 L33.7140228,53.1225295" id="Stroke-83" stroke="#40527C" stroke-width="0.5" stroke-linecap="round" stroke-linejoin="round"></path>
                            <path d="M18.3101011,51.2531752 L17.6926656,51.2531752 C17.6926656,51.2531752 13.9640392,54.263071 13.9640392,56.3724603 C13.9640392,56.3724603 13.8868972,57.9674889 15.5840196,57.9674889" id="Stroke-85" stroke="#40527C" stroke-width="0.6" stroke-linecap="round" stroke-linejoin="round"></path>
                            <path d="M8.67819641,53.0026021 C8.67819641,53.0026021 9.24460424,52.6948264 9.0128783,52.0261275 C8.78175269,51.3574286 9.41209527,51.2532353 9.41209527,51.2532353 C9.41209527,51.2532353 9.22689462,50.1869803 9.76718825,49.7663035 C10.4968848,49.1984949 10.8813938,49.7437833 11.4213873,48.8522848 C11.9613808,47.9604861 13.9634688,49.1177226 13.9634688,49.1177226 C13.9634688,49.1177226 16.0640104,50.8415666 17.1872209,51.0472508" id="Stroke-87" stroke="#40527C" stroke-width="0.6" stroke-linecap="round" stroke-linejoin="round"></path>
                            <path d="M9.69505905,53.7714707 C9.69505905,53.7714707 11.7268633,55.4980171 13.2955158,56.0640241" id="Stroke-89" stroke="#40527C" stroke-width="0.6" stroke-linecap="round" stroke-linejoin="round" stroke-dasharray="0.6,0.8999999999999999"></path>
                            <path d="M23.7221325,33.0312046 C23.7221325,33.0312046 24.0307002,34.2142642 24.0820281,34.3004414 C24.1336561,34.386018 25.9337344,34.0088803 26.4479139,34.5917023 C26.4479139,34.5917023 27.0482401,33.6485575 27.579829,33.6314422" id="Stroke-91" stroke="#40527C" stroke-width="0.6" stroke-linecap="round" stroke-linejoin="round"></path>
                            <path d="M23.8762962,34.7205176 C23.8762962,34.7205176 22.02489,39.1365729 22.0419993,39.5224185" id="Stroke-93" stroke="#40527C" stroke-width="0.6" stroke-linecap="round" stroke-linejoin="round"></path>
                            <path d="M26.1450797,34.7205176 C26.1450797,34.7205176 25.9604823,37.1130605 26.4519056,37.9703284" id="Stroke-95" stroke="#40527C" stroke-width="0.6" stroke-linecap="round" stroke-linejoin="round"></path>
                            <path d="M23.3278682,37.7302333 L25.3104457,35.746957" id="Stroke-97" stroke="#40527C" stroke-width="0.6" stroke-linecap="round" stroke-linejoin="round"></path>
                            <path d="M22.2649905,40.8516791 L25.4536235,37.6616219" id="Stroke-99" stroke="#40527C" stroke-width="0.6" stroke-linecap="round" stroke-linejoin="round"></path>
                            <path d="M22.2649905,43.0641206 L24.2022434,41.1261849" id="Stroke-101" stroke="#40527C" stroke-width="0.6" stroke-linecap="round" stroke-linejoin="round"></path>
                            <g id="Group-105" transform="translate(16.508972, 78.069924)">
                                <mask id="mask-15" fill="white">
                                    <use xlink:href="#path-14"></use>
                                </mask>
                                <g id="Clip-104"></g>
                                <path d="M0.134683197,2.19295413 L2.90819054,0.160433693" id="Stroke-103" stroke="#40527C" stroke-width="0.6" stroke-linecap="round" stroke-linejoin="round" mask="url(#mask-15)"></path>
                            </g>
                            <path d="M17.8501912,75.9151339 L19.239046,74.6897363" id="Stroke-106" stroke="#40527C" stroke-width="0.6" stroke-linecap="round" stroke-linejoin="round"></path>
                            <g id="Group-110" transform="translate(17.409462, 80.472075)" stroke="#40527C" stroke-linecap="round" stroke-linejoin="round" stroke-width="0.6">
                                <path d="M0.132341925,1.59151545 L2.00776117,0.227994204" id="Stroke-108"></path>
                            </g>
                        </g>
                        <g id="Group-166" transform="translate(11.406199, 33.267096)">
                            <path d="M1.38693377,4.24261993 C1.33890767,5.50885404 1.53581468,6.96515839 2.27271517,7.6059323 C2.70044763,7.97796551 3.22213116,7.99327923 3.71770049,7.99868407 C12.7817266,8.09627147 21.8460529,8.19355861 30.910079,8.29114602 C32.319645,8.30615946 33.8042519,8.29354817 35.0274166,7.25371684 C36.2502812,6.21358524 37.050216,3.76369097 36.3370284,1.95817385 C35.5779158,0.0358521112 33.7550251,-0.0187968355 32.2584117,0.140946239 C26.5324998,0.752894334 20.7906793,1.03304525 15.0503595,0.981098727 C12.2321279,0.955275598 9.41449657,0.849881201 6.59926656,0.664314998 C5.49136444,0.591349646 3.21582773,-0.287537535 2.21148189,0.305793886 C1.20923719,0.897623962 1.45567113,2.42389097 1.38693377,4.24261993" id="Fill-112" fill="#EAEFF9"></path>
                            <path d="M1.32786166,22.2238649 C1.256723,23.490099 1.54908189,24.9464034 2.64287635,25.5871773 C3.27802153,25.9592105 4.05244241,25.9745242 4.78844241,25.9802294 C18.2459563,26.0775165 31.7037703,26.1748036 45.1615843,26.272391 C47.2537214,26.2877047 49.4584196,26.2747932 51.2744065,25.2349618 C53.0906936,24.1951305 54.2775387,21.744936 53.2185631,19.9397191 C52.0917507,18.0170971 49.3851798,17.9624482 47.1633723,18.1224915 C38.6618519,18.7341393 30.1372189,19.0142903 21.6140868,18.9623437 C17.4304131,18.9368209 13.2467393,18.8311262 9.06666754,18.64556 C7.42177357,18.5725947 4.04343752,17.6937075 2.55222708,18.2870389 C1.06401827,18.878869 1.43021729,20.405136 1.32786166,22.2238649" id="Fill-114" fill="#D4E1F9"></path>
                            <path d="M80.4591178,40.4543632 C80.5665762,41.7205973 80.1247361,43.1769017 78.4714375,43.8176756 C77.5115158,44.1897088 76.3408796,44.2050225 75.228475,44.2107276 C54.8876202,44.3080147 34.5461651,44.4053019 14.2050101,44.5028893 C11.0421912,44.5179027 5.50117977,45.3247254 2.75648809,44.284894 C0.011496248,43.2450627 0.426321697,39.9754342 2.02649135,38.1699171 C3.72991713,36.2475954 7.82084046,36.1929464 11.1793657,36.3529898 C24.0287491,36.9646376 36.914152,37.2447885 49.7965533,37.192842 C56.1206904,37.1673191 62.4439269,37.0616245 68.7617605,36.8760583 C71.2480117,36.8030929 76.3543869,35.9242057 78.6086121,36.5175372 C80.8580346,37.1093672 80.3042336,38.6356342 80.4591178,40.4543632" id="Fill-116" fill="#D4E1F9"></path>
                            <polyline id="Stroke-118" stroke="#40527C" stroke-width="0.6" stroke-linecap="round" stroke-linejoin="round" points="1.29019119 4.24261993 1.29019119 0.055669861 21.121369 0.055669861"></polyline>
                            <path d="M5.10481436,7.82386749 L1.29034127,7.82386749 L1.29034127,5.99763182" id="Stroke-120" stroke="#40527C" stroke-width="0.6" stroke-linecap="round" stroke-linejoin="round" stroke-dasharray="0.6,0.8999999999999999"></path>
                            <polyline id="Stroke-122" stroke="#40527C" stroke-width="0.6" stroke-linecap="round" stroke-linejoin="round" points="36.5526356 5.71552915 36.5526356 7.82371736 7.92307602 7.82371736"></polyline>
                            <path d="M22.2954571,0.0555797804 L36.5526055,0.0555797804 L36.5526055,3.93985876" id="Stroke-124" stroke="#40527C" stroke-width="0.6" stroke-linecap="round" stroke-linejoin="round" stroke-dasharray="0.6,0.8999999999999999"></path>
                            <polyline id="Stroke-128" stroke="#40527C" stroke-width="0.6" stroke-linecap="round" stroke-linejoin="round" points="46.2968013 18.286078 53.6450949 18.286078 53.6450949 26.0543357 1.29034127 26.0543357 1.29034127 18.286078 14.7802728 18.286078"></polyline>
                            <polyline id="Stroke-130" stroke="#40527C" stroke-width="0.6" stroke-linecap="round" stroke-linejoin="round" points="1.29019119 37.8853522 1.29019119 36.5164262 80.4744261 36.5164262 80.4744261 44.2846838 25.8024131 44.2846838"></polyline>
                            <path d="M24.8318956,44.284834 L1.29010114,44.284834 L1.29010114,38.950256" id="Stroke-132" stroke="#40527C" stroke-width="0.6" stroke-linecap="round" stroke-linejoin="round" stroke-dasharray="0.6,0.8999999999999999"></path>
                            <path d="M3.52208418,58.7270793 L3.52208418,57.7557093 C3.52208418,57.4575422 3.36449853,57.1818953 3.10785905,57.0305598 L2.3088248,56.5594378 C2.04558173,56.404499 1.71840392,56.404499 1.45486069,56.5594378 L0.656126591,57.0305598 C0.399186949,57.1818953 0.241901468,57.4575422 0.241901468,57.7557093 L0.241901468,58.7270793 C0.241901468,59.0249461 0.399186949,59.3008932 0.656126591,59.4522287 L1.45486069,59.9230504 C1.71840392,60.0782895 2.04558173,60.0782895 2.3088248,59.9230504 L3.10785905,59.4522287 C3.36449853,59.3008932 3.52208418,59.0249461 3.52208418,58.7270793" id="Fill-134" fill="#FFAB9F"></path>
                            <path d="M8.13165938,58.7270793 L8.13165938,57.7557093 C8.13165938,57.4575422 7.97407374,57.1818953 7.71743426,57.0305598 L6.9184,56.5594378 C6.65515693,56.404499 6.32797912,56.404499 6.06443589,56.5594378 L5.26570179,57.0305598 C5.00906232,57.1818953 4.85147667,57.4575422 4.85147667,57.7557093 L4.85147667,58.7270793 C4.85147667,59.0249461 5.00906232,59.3008932 5.26570179,59.4522287 L6.06443589,59.9230504 C6.32797912,60.0782895 6.65515693,60.0782895 6.9184,59.9230504 L7.71743426,59.4522287 C7.97407374,59.3008932 8.13165938,59.0249461 8.13165938,58.7270793" id="Fill-136" fill="#FFAB9F"></path>
                            <path d="M12.7412646,58.7270793 L12.7412646,57.7557093 C12.7412646,57.4575422 12.5839791,57.1818953 12.3270395,57.0305598 L11.5280052,56.5594378 C11.2647622,56.404499 10.9375843,56.404499 10.6740411,56.5594378 L9.87530701,57.0305598 C9.61866754,57.1818953 9.46108189,57.4575422 9.46108189,57.7557093 L9.46108189,58.7270793 C9.46108189,59.0249461 9.61866754,59.3008932 9.87530701,59.4522287 L10.6740411,59.9230504 C10.9375843,60.0782895 11.2647622,60.0782895 11.5280052,59.9230504 L12.3270395,59.4522287 C12.5839791,59.3008932 12.7412646,59.0249461 12.7412646,58.7270793" id="Fill-138" fill="#FFAB9F"></path>
                            <path d="M17.3509899,58.7270793 L17.3509899,57.7557093 C17.3509899,57.4575422 17.1934042,57.1818953 16.9367648,57.0305598 L16.1377305,56.5594378 C15.8744874,56.404499 15.5473096,56.404499 15.2837664,56.5594378 L14.4850323,57.0305598 C14.2283928,57.1818953 14.0708072,57.4575422 14.0708072,57.7557093 L14.0708072,58.7270793 C14.0708072,59.0249461 14.2283928,59.3008932 14.4850323,59.4522287 L15.2837664,59.9230504 C15.5473096,60.0782895 15.8744874,60.0782895 16.1377305,59.9230504 L16.9367648,59.4522287 C17.1934042,59.3008932 17.3509899,59.0249461 17.3509899,58.7270793" id="Fill-140" fill="#FFAB9F"></path>
                            <path d="M31.1798956,58.7270793 L31.1798956,57.7557093 C31.1798956,57.4575422 31.0226101,57.1818953 30.7656705,57.0305598 L29.9666362,56.5594378 C29.703093,56.404499 29.3762153,56.404499 29.1126721,56.5594378 L28.3136378,57.0305598 C28.0572985,57.1818953 27.8994127,57.4575422 27.8994127,57.7557093 L27.8994127,58.7270793 C27.8994127,59.0249461 28.0572985,59.3008932 28.3136378,59.4522287 L29.1126721,59.9227502 C29.3762153,60.0782895 29.703093,60.0782895 29.9666362,59.9227502 L30.7656705,59.4522287 C31.0226101,59.3008932 31.1798956,59.0249461 31.1798956,58.7270793" id="Fill-142" fill="#FFAB9F"></path>
                            <path d="M35.7896209,58.7270793 L35.7896209,57.7557093 C35.7896209,57.4575422 35.6320352,57.1818953 35.3753958,57.0305598 L34.5763615,56.5594378 C34.3128183,56.404499 33.9859406,56.404499 33.7223974,56.5594378 L32.9233631,57.0305598 C32.6670238,57.1818953 32.509138,57.4575422 32.509138,57.7557093 L32.509138,58.7270793 C32.509138,59.0249461 32.6670238,59.3008932 32.9233631,59.4522287 L33.7223974,59.9227502 C33.9859406,60.0782895 34.3128183,60.0782895 34.5763615,59.9227502 L35.3753958,59.4522287 C35.6320352,59.3008932 35.7896209,59.0249461 35.7896209,58.7270793" id="Fill-144" fill="#FFAB9F"></path>
                            <path d="M40.399046,58.7270793 L40.399046,57.7557093 C40.399046,57.4575422 40.2417605,57.1818953 39.9848209,57.0305598 L39.1860868,56.5594378 C38.9225436,56.404499 38.5953657,56.404499 38.3318225,56.5594378 L37.5330884,57.0305598 C37.2764489,57.1818953 37.1188633,57.4575422 37.1188633,57.7557093 L37.1188633,58.7270793 C37.1188633,59.0249461 37.2764489,59.3008932 37.5330884,59.4522287 L38.3318225,59.9227502 C38.5953657,60.0782895 38.9225436,60.0782895 39.1860868,59.9227502 L39.9848209,59.4522287 C40.2417605,59.3008932 40.399046,59.0249461 40.399046,58.7270793" id="Fill-146" fill="#FFAB9F"></path>
                            <path d="M45.0088013,58.7270793 L45.0088013,57.7557093 C45.0088013,57.4575422 44.8515158,57.1818953 44.5945762,57.0305598 L43.7958421,56.5594378 C43.5322989,56.404499 43.205121,56.404499 42.9415778,56.5594378 L42.1425436,57.0305598 C41.8862042,57.1818953 41.7283184,57.4575422 41.7283184,57.7557093 L41.7283184,58.7270793 C41.7283184,59.0249461 41.8862042,59.3008932 42.1425436,59.4522287 L42.9415778,59.9227502 C43.205121,60.0782895 43.5322989,60.0782895 43.7958421,59.9227502 L44.5945762,59.4522287 C44.8515158,59.3008932 45.0088013,59.0249461 45.0088013,58.7270793" id="Fill-148" fill="#FFAB9F"></path>
                            <path d="M49.6185266,58.7270793 L49.6185266,57.7557093 C49.6185266,57.4575422 49.4609409,57.1818953 49.2043015,57.0305598 L48.4052672,56.5594378 C48.141724,56.404499 47.8148463,56.404499 47.5513031,56.5594378 L46.7522688,57.0305598 C46.4959295,57.1818953 46.3380437,57.4575422 46.3380437,57.7557093 L46.3380437,58.7270793 C46.3380437,59.0249461 46.4959295,59.3008932 46.7522688,59.4522287 L47.5513031,59.9227502 C47.8148463,60.0782895 48.141724,60.0782895 48.4052672,59.9227502 L49.2043015,59.4522287 C49.4609409,59.3008932 49.6185266,59.0249461 49.6185266,58.7270793" id="Fill-150" fill="#FFAB9F"></path>
                            <path d="M54.2279517,58.7270793 L54.2279517,57.7557093 C54.2279517,57.4575422 54.0706662,57.1818953 53.8137266,57.0305598 L53.0149925,56.5594378 C52.7514493,56.404499 52.4242715,56.404499 52.1607282,56.5594378 L51.3619941,57.0305598 C51.1053546,57.1818953 50.947769,57.4575422 50.947769,57.7557093 L50.947769,58.7270793 C50.947769,59.0249461 51.1053546,59.3008932 51.3619941,59.4522287 L52.1607282,59.9227502 C52.4242715,60.0782895 52.7514493,60.0782895 53.0149925,59.9227502 L53.8137266,59.4522287 C54.0706662,59.3008932 54.2279517,59.0249461 54.2279517,58.7270793" id="Fill-152" fill="#FFAB9F"></path>
                            <path d="M68.0568574,58.7270793 L68.0568574,57.7557093 C68.0568574,57.4575422 67.8995719,57.1818953 67.6426323,57.0305598 L66.8438982,56.5594378 C66.580355,56.404499 66.2531772,56.404499 65.9896339,56.5594378 L65.1908998,57.0305598 C64.9342604,57.1818953 64.7766747,57.4575422 64.7766747,57.7557093 L64.7766747,58.7270793 C64.7766747,59.0249461 64.9342604,59.3008932 65.1908998,59.4522287 L65.9896339,59.9227502 C66.2531772,60.0782895 66.580355,60.0782895 66.8438982,59.9227502 L67.6426323,59.4522287 C67.8995719,59.3008932 68.0568574,59.0249461 68.0568574,58.7270793" id="Fill-154" fill="#FFAB9F"></path>
                            <path d="M72.6665827,58.7270793 L72.6665827,57.7557093 C72.6665827,57.4575422 72.5092972,57.1818953 72.2523576,57.0305598 L71.4536235,56.5594378 C71.1900803,56.404499 70.8629024,56.404499 70.5993592,56.5594378 L69.8006251,57.0305598 C69.5439856,57.1818953 69.3864,57.4575422 69.3864,57.7557093 L69.3864,58.7270793 C69.3864,59.0249461 69.5439856,59.3008932 69.8006251,59.4522287 L70.5993592,59.9227502 C70.8629024,60.0782895 71.1900803,60.0782895 71.4536235,59.9227502 L72.2523576,59.4522287 C72.5092972,59.3008932 72.6665827,59.0249461 72.6665827,58.7270793" id="Fill-156" fill="#FFAB9F"></path>
                            <path d="M77.276338,58.7270793 L77.276338,57.7557093 C77.276338,57.4575422 77.1187524,57.1818953 76.8621129,57.0305598 L76.0630786,56.5594378 C75.7995354,56.404499 75.4726577,56.404499 75.2091145,56.5594378 L74.4100803,57.0305598 C74.1537409,57.1818953 73.9958551,57.4575422 73.9958551,57.7557093 L73.9958551,58.7270793 C73.9958551,59.0249461 74.1537409,59.3008932 74.4100803,59.4522287 L75.2091145,59.9227502 C75.4726577,60.0782895 75.7995354,60.0782895 76.0630786,59.9227502 L76.8621129,59.4522287 C77.1187524,59.3008932 77.276338,59.0249461 77.276338,58.7270793" id="Fill-158" fill="#FFAB9F"></path>
                            <path d="M81.8860633,58.7270793 L81.8860633,57.7557093 C81.8860633,57.4575422 81.7284777,57.1818953 81.4718382,57.0305598 L80.6728039,56.5594378 C80.4092607,56.404499 80.0820829,56.404499 79.8185396,56.5594378 L79.0198055,57.0305598 C78.7631661,57.1818953 78.6055804,57.4575422 78.6055804,57.7557093 L78.6055804,58.7270793 C78.6055804,59.0249461 78.7631661,59.3008932 79.0198055,59.4522287 L79.8185396,59.9227502 C80.0820829,60.0782895 80.4092607,60.0782895 80.6728039,59.9227502 L81.4718382,59.4522287 C81.7284777,59.3008932 81.8860633,59.0249461 81.8860633,58.7270793" id="Fill-160" fill="#FFAB9F"></path>
                            <path d="M21.21514,61.1664641 L23.5348007,55.5066949" id="Stroke-162" stroke="#40527C" stroke-width="0.6" stroke-linecap="round" stroke-linejoin="round"></path>
                            <path d="M58.3425879,61.6033854 L60.6622486,55.9436162" id="Stroke-164" stroke="#40527C" stroke-width="0.6" stroke-linecap="round" stroke-linejoin="round"></path>
                        </g>
                    </g>
                </g>
            </g>
        </g>
    </g>
</svg>