<?xml version="1.0" encoding="UTF-8"?>
<svg width="190px" height="130px" viewBox="0 0 190 130" version="1.1" xmlns="http://www.w3.org/2000/svg" xmlns:xlink="http://www.w3.org/1999/xlink">
    <!-- Generator: Sketch 49 (51002) - http://www.bohemiancoding.com/sketch -->
    <title>passport_2</title>
    <desc>Created with Sketch.</desc>
    <defs>
        <rect id="path-1" x="0" y="0" width="190" height="130" rx="2"></rect>
    </defs>
    <g id="assets" stroke="none" stroke-width="1" fill="none" fill-rule="evenodd" opacity="0.26">
        <g id="Artboard" transform="translate(-733.000000, -768.000000)">
            <g id="个人中心" transform="translate(99.000000, 443.000000)">
                <g id="passport_2" transform="translate(634.000000, 325.000000)">
                    <g id="Rectangle-2-Copy">
                        <use fill="#FFFFFF" fill-rule="evenodd" xlink:href="#path-1"></use>
                        <rect stroke="#EEEEEE" stroke-width="1" x="0.5" y="0.5" width="189" height="129" rx="2"></rect>
                    </g>
                    <path d="M46.866304,20.9314113 C37.6423963,22.1480031 27.4836332,23.2398162 21.0331302,29.9466682 C13.4608006,37.8389173 13.9905521,50.5663388 17.32487,60.9853554 C20.659188,71.404372 26.268321,81.2618847 27.3278239,92.1800159 C27.6394424,95.299482 27.5771187,98.4813374 28.6989454,101.413635 C29.7896101,104.18996 31.8774541,106.46717 34.1211073,108.432434 C47.8323214,120.3176 67.464287,121.627775 85.6004838,122.345253 C106.4166,123.187508 127.232716,124.060959 148.048831,124.903215 C156.088589,125.246356 165.405982,124.996799 170.329554,118.664283 C172.136942,116.355878 173.071797,113.485969 173.975491,110.67845 C175.502421,105.936861 177.060514,101.101689 176.99819,96.1105432 C176.873543,87.2200649 171.700676,79.2342318 165.935733,72.4649905 C159.48523,64.9158826 152.037548,58.2090306 143.873144,52.5627971 C136.082681,47.1973155 126.734126,41.4263033 125.674623,32.0367105 C124.802091,24.4252133 129.507531,15.0668151 121.311964,10.2316427 C115.453536,6.80023009 105.793363,6.30111552 99.280536,7.79845923 C81.5806051,11.8225704 65.15831,18.5294224 46.866304,20.9314113 Z" id="Shape" fill="#F6FAFF" fill-rule="nonzero" opacity="0.5"></path>
                    <g id="Group" opacity="0.5" transform="translate(65.000000, 108.000000)" fill-rule="nonzero">
                        <path d="M2.97136564,3.12 L2.97136564,2.31 C2.97136564,2.07 2.84625551,1.83 2.62731278,1.71 L1.93920705,1.32 C1.72026432,1.2 1.43876652,1.2 1.18854626,1.32 L0.500440529,1.71 C0.281497797,1.83 0.156387665,2.07 0.156387665,2.31 L0.156387665,3.12 C0.156387665,3.36 0.281497797,3.6 0.500440529,3.72 L1.18854626,4.11 C1.40748899,4.23 1.68898678,4.23 1.93920705,4.11 L2.62731278,3.72 C2.81497797,3.6 2.97136564,3.36 2.97136564,3.12 Z" id="Shape" fill="#FFAB9F"></path>
                        <path d="M6.94361233,3.12 L6.94361233,2.31 C6.94361233,2.07 6.8185022,1.83 6.59955947,1.71 L5.91145374,1.32 C5.69251101,1.2 5.41101322,1.2 5.16079295,1.32 L4.47268722,1.71 C4.25374449,1.83 4.12863436,2.07 4.12863436,2.31 L4.12863436,3.12 C4.12863436,3.36 4.25374449,3.6 4.47268722,3.72 L5.16079295,4.11 C5.37973568,4.23 5.66123348,4.23 5.91145374,4.11 L6.59955947,3.72 C6.8185022,3.6 6.94361233,3.36 6.94361233,3.12 Z" id="Shape" fill="#FFAB9F"></path>
                        <path d="M10.9471366,3.12 L10.9471366,2.31 C10.9471366,2.07 10.8220264,1.83 10.6030837,1.71 L9.91497797,1.32 C9.69603524,1.2 9.41453744,1.2 9.16431718,1.32 L8.47621145,1.71 C8.25726872,1.83 8.13215859,2.07 8.13215859,2.31 L8.13215859,3.12 C8.13215859,3.36 8.25726872,3.6 8.47621145,3.72 L9.16431718,4.11 C9.38325991,4.23 9.66475771,4.23 9.91497797,4.11 L10.6030837,3.72 C10.7907489,3.6 10.9471366,3.36 10.9471366,3.12 Z" id="Shape" fill="#FFAB9F"></path>
                        <path d="M14.9193833,3.12 L14.9193833,2.31 C14.9193833,2.07 14.7942731,1.83 14.5753304,1.71 L13.8872247,1.32 C13.6682819,1.2 13.3867841,1.2 13.1365639,1.32 L12.4484581,1.71 C12.2295154,1.83 12.1044053,2.07 12.1044053,2.31 L12.1044053,3.12 C12.1044053,3.36 12.2295154,3.6 12.4484581,3.72 L13.1365639,4.11 C13.3555066,4.23 13.6370044,4.23 13.8872247,4.11 L14.5753304,3.72 C14.7942731,3.6 14.9193833,3.36 14.9193833,3.12 Z" id="Shape" fill="#FFAB9F"></path>
                        <path d="M26.8986784,3.12 L26.8986784,2.31 C26.8986784,2.07 26.7735683,1.83 26.5546256,1.71 L25.8665198,1.32 C25.6475771,1.2 25.3660793,1.2 25.115859,1.32 L24.4277533,1.71 C24.2088106,1.83 24.0837004,2.07 24.0837004,2.31 L24.0837004,3.12 C24.0837004,3.36 24.2088106,3.6 24.4277533,3.72 L25.115859,4.11 C25.3348018,4.23 25.6162996,4.23 25.8665198,4.11 L26.5546256,3.72 C26.7735683,3.6 26.8986784,3.36 26.8986784,3.12 Z" id="Shape" fill="#FFAB9F"></path>
                        <path d="M30.8709251,3.12 L30.8709251,2.31 C30.8709251,2.07 30.745815,1.83 30.5268722,1.71 L29.8387665,1.32 C29.6198238,1.2 29.338326,1.2 29.0881057,1.32 L28.4,1.71 C28.1810573,1.83 28.0559471,2.07 28.0559471,2.31 L28.0559471,3.12 C28.0559471,3.36 28.1810573,3.6 28.4,3.72 L29.0881057,4.11 C29.3070485,4.23 29.5885463,4.23 29.8387665,4.11 L30.5268722,3.72 C30.745815,3.6 30.8709251,3.36 30.8709251,3.12 Z" id="Shape" fill="#FFAB9F"></path>
                        <path d="M34.8744493,3.12 L34.8744493,2.31 C34.8744493,2.07 34.7493392,1.83 34.5303965,1.71 L33.8422907,1.32 C33.623348,1.2 33.3418502,1.2 33.09163,1.32 L32.4035242,1.71 C32.1845815,1.83 32.0594714,2.07 32.0594714,2.31 L32.0594714,3.12 C32.0594714,3.36 32.1845815,3.6 32.4035242,3.72 L33.09163,4.11 C33.3105727,4.23 33.5920705,4.23 33.8422907,4.11 L34.5303965,3.72 C34.7493392,3.6 34.8744493,3.36 34.8744493,3.12 Z" id="Shape" fill="#FFAB9F"></path>
                        <path d="M38.846696,3.12 L38.846696,2.31 C38.846696,2.07 38.7215859,1.83 38.5026432,1.71 L37.8145374,1.32 C37.5955947,1.2 37.3140969,1.2 37.0638767,1.32 L36.3757709,1.71 C36.1568282,1.83 36.0317181,2.07 36.0317181,2.31 L36.0317181,3.12 C36.0317181,3.36 36.1568282,3.6 36.3757709,3.72 L37.0638767,4.11 C37.2828194,4.23 37.5643172,4.23 37.8145374,4.11 L38.5026432,3.72 C38.7215859,3.6 38.846696,3.36 38.846696,3.12 Z" id="Shape" fill="#FFAB9F"></path>
                        <path d="M42.8502203,3.12 L42.8502203,2.31 C42.8502203,2.07 42.7251101,1.83 42.5061674,1.71 L41.8180617,1.32 C41.5991189,1.2 41.3176211,1.2 41.0674009,1.32 L40.3792952,1.71 C40.1603524,1.83 40.0352423,2.07 40.0352423,2.31 L40.0352423,3.12 C40.0352423,3.36 40.1603524,3.6 40.3792952,3.72 L41.0674009,4.11 C41.2863436,4.23 41.5678414,4.23 41.8180617,4.11 L42.5061674,3.72 C42.7251101,3.6 42.8502203,3.36 42.8502203,3.12 Z" id="Shape" fill="#FFAB9F"></path>
                        <path d="M46.8537445,3.12 L46.8537445,2.31 C46.8537445,2.07 46.7286344,1.83 46.5096916,1.71 L45.8215859,1.32 C45.6026432,1.2 45.3211454,1.2 45.0709251,1.32 L44.3828194,1.71 C44.1638767,1.83 44.0387665,2.07 44.0387665,2.31 L44.0387665,3.12 C44.0387665,3.36 44.1638767,3.6 44.3828194,3.72 L45.0709251,4.11 C45.2898678,4.23 45.5713656,4.23 45.8215859,4.11 L46.5096916,3.72 C46.6973568,3.6 46.8537445,3.36 46.8537445,3.12 Z" id="Shape" fill="#FFAB9F"></path>
                        <path d="M58.8017621,3.12 L58.8017621,2.31 C58.8017621,2.07 58.676652,1.83 58.4577093,1.71 L57.7696035,1.32 C57.5506608,1.2 57.269163,1.2 57.0189427,1.32 L56.330837,1.71 C56.1118943,1.83 55.9867841,2.07 55.9867841,2.31 L55.9867841,3.12 C55.9867841,3.36 56.1118943,3.6 56.330837,3.72 L57.0189427,4.11 C57.2378855,4.23 57.5193833,4.23 57.7696035,4.11 L58.4577093,3.72 C58.676652,3.6 58.8017621,3.36 58.8017621,3.12 Z" id="Shape" fill="#FFAB9F"></path>
                        <path d="M62.8052863,3.12 L62.8052863,2.31 C62.8052863,2.07 62.6801762,1.83 62.4612335,1.71 L61.7731278,1.32 C61.554185,1.2 61.2726872,1.2 61.022467,1.32 L60.3343612,1.71 C60.1154185,1.83 59.9903084,2.07 59.9903084,2.31 L59.9903084,3.12 C59.9903084,3.36 60.1154185,3.6 60.3343612,3.72 L61.022467,4.11 C61.2414097,4.23 61.5229075,4.23 61.7731278,4.11 L62.4612335,3.72 C62.6488987,3.6 62.8052863,3.36 62.8052863,3.12 Z" id="Shape" fill="#FFAB9F"></path>
                        <path d="M66.777533,3.12 L66.777533,2.31 C66.777533,2.07 66.6524229,1.83 66.4334802,1.71 L65.7453744,1.32 C65.5264317,1.2 65.2449339,1.2 64.9947137,1.32 L64.3066079,1.71 C64.0876652,1.83 63.9625551,2.07 63.9625551,2.31 L63.9625551,3.12 C63.9625551,3.36 64.0876652,3.6 64.3066079,3.72 L64.9947137,4.11 C65.2136564,4.23 65.4951542,4.23 65.7453744,4.11 L66.4334802,3.72 C66.6524229,3.6 66.777533,3.36 66.777533,3.12 Z" id="Shape" fill="#FFAB9F"></path>
                        <path d="M70.7810573,3.12 L70.7810573,2.31 C70.7810573,2.07 70.6559471,1.83 70.4370044,1.71 L69.7488987,1.32 C69.5299559,1.2 69.2484581,1.2 68.9982379,1.32 L68.3101322,1.71 C68.0911894,1.83 67.9660793,2.07 67.9660793,2.31 L67.9660793,3.12 C67.9660793,3.36 68.0911894,3.6 68.3101322,3.72 L68.9982379,4.11 C69.2171806,4.23 69.4986784,4.23 69.7488987,4.11 L70.4370044,3.72 C70.6246696,3.6 70.7810573,3.36 70.7810573,3.12 Z" id="Shape" fill="#FFAB9F"></path>
                        <path d="M18.2660793,5.49 C18.2348018,5.49 18.1722467,5.49 18.1409692,5.46 C17.953304,5.4 17.8594714,5.19 17.953304,5.01 L19.9550661,0.3 C20.0176211,0.12 20.2365639,0.03 20.4242291,0.12 C20.6118943,0.18 20.7057269,0.39 20.6118943,0.57 L18.6101322,5.28 C18.5475771,5.4 18.422467,5.49 18.2660793,5.49 Z" id="Shape" fill="#40527C"></path>
                        <path d="M50.3881057,5.85 C50.3568282,5.85 50.2942731,5.85 50.2629956,5.82 C50.0753304,5.76 49.9814978,5.55 50.0753304,5.37 L52.0770925,0.66 C52.1396476,0.48 52.3585903,0.39 52.5462555,0.48 C52.7339207,0.54 52.8277533,0.75 52.7339207,0.93 L50.7321586,5.64 C50.6696035,5.76 50.5444934,5.85 50.3881057,5.85 Z" id="Shape" fill="#40527C"></path>
                    </g>
                    <g id="Group" opacity="0.5" transform="translate(54.000000, 44.000000)">
                        <path d="M0.124414716,5.0625 C-5.55111512e-16,6.53125 0.528762542,8.25 2.45719064,9 C3.57692308,9.4375 4.94548495,9.4375 6.25183946,9.46875 C30.1083612,9.59375 53.9648829,9.6875 77.8214047,9.8125 C81.5227425,9.84375 85.441806,9.8125 88.6454849,8.59375 C91.8491639,7.375 93.964214,4.5 92.0979933,2.40625 C90.1073579,0.15625 85.3173913,0.09375 81.3672241,0.28125 C66.3130435,1 51.1966555,1.3125 36.0802676,1.25 C28.677592,1.21875 21.2438127,1.09375 13.8411371,0.875 C10.9173913,0.78125 4.94548495,-0.25 2.30167224,0.46875 C-0.342140468,1.15625 0.311036789,2.9375 0.124414716,5.0625 Z" id="Shape" fill="#D4E1F9" fill-rule="nonzero"></path>
                        <path d="M26.7802676,0.46875 L77.1060201,0.46875" id="Shape" stroke="#40527C" stroke-width="0.6" stroke-linecap="round" stroke-linejoin="round" stroke-dasharray="2,3"></path>
                        <polyline id="Shape" stroke="#40527C" stroke-width="0.6" stroke-linecap="round" stroke-linejoin="round" points="79.8120401 0.46875 92.8444816 0.46875 92.8444816 9.53125 0.0622073579 9.53125 0.0622073579 0.46875 23.9498328 0.46875"></polyline>
                    </g>
                    <g id="Group" opacity="0.5" transform="translate(54.000000, 63.000000)">
                        <path d="M92.8133779,4.96969697 C92.9377926,6.39393939 92.4090301,8.06060606 90.5117057,8.78787879 C89.3919732,9.21212121 88.0234114,9.21212121 86.7481605,9.24242424 C63.0782609,9.36363636 39.3772575,9.45454545 15.7073579,9.57575758 C12.0371237,9.60606061 5.56755853,10.5151515 2.39498328,9.33333333 C-0.777591973,8.15151515 -0.311036789,4.45454545 1.55518395,2.39393939 C3.5458194,0.212121212 8.30468227,0.151515152 12.2237458,0.333333333 C27.1846154,1.03030303 42.1765886,1.33333333 57.1685619,1.27272727 C64.5401338,1.24242424 71.880602,1.12121212 79.2521739,0.909090909 C82.1448161,0.818181818 88.0856187,-0.181818182 90.7294314,0.515151515 C93.2799331,1.15151515 92.6578595,2.90909091 92.8133779,4.96969697 Z" id="Shape" fill="#D4E1F9" fill-rule="nonzero"></path>
                        <polyline id="Shape" stroke="#40527C" stroke-width="0.6" stroke-linecap="round" stroke-linejoin="round" points="0.684280936 2.06060606 0.684280936 0.484848485 92.8444816 0.484848485 92.8444816 9.3030303 29.2063545 9.3030303"></polyline>
                        <path d="M28.0866221,9.3030303 L0.684280936,9.3030303 L0.684280936,3.24242424" id="Shape" stroke="#40527C" stroke-width="0.6" stroke-linecap="round" stroke-linejoin="round" stroke-dasharray="2,3"></path>
                    </g>
                    <g id="Group" opacity="0.5" transform="translate(54.000000, 83.000000)">
                        <path d="M0.124414716,5.06451613 C-5.55111512e-16,6.58064516 0.528762542,8.35483871 2.45719064,9.12903226 C3.57692308,9.58064516 4.94548495,9.58064516 6.25183946,9.61290323 C30.1083612,9.74193548 53.9648829,9.83870968 77.8214047,9.96774194 C81.5227425,10 85.441806,9.96774194 88.6454849,8.70967742 C91.8491639,7.4516129 93.964214,4.48387097 92.0979933,2.32258065 C90.1073579,2.15036322e-14 85.3173913,-0.064516129 81.3672241,0.129032258 C66.3130435,0.870967742 51.1966555,1.19354839 36.0802676,1.12903226 C28.677592,1.09677419 21.2438127,0.967741935 13.8411371,0.741935484 C10.9173913,0.64516129 4.94548495,-0.419354839 2.30167224,0.322580645 C-0.342140468,1.03225806 0.311036789,2.87096774 0.124414716,5.06451613 Z" id="Shape" fill="#D4E1F9" fill-rule="nonzero"></path>
                        <path d="M26.7802676,0.290322581 L77.1060201,0.290322581" id="Shape" stroke="#40527C" stroke-width="0.6" stroke-linecap="round" stroke-linejoin="round" stroke-dasharray="2,3"></path>
                        <polyline id="Shape" stroke="#40527C" stroke-width="0.6" stroke-linecap="round" stroke-linejoin="round" points="79.8120401 0.290322581 92.8444816 0.290322581 92.8444816 9.67741935 0.0622073579 9.67741935 0.0622073579 0.290322581 23.9498328 0.290322581"></polyline>
                    </g>
                    <g id="Group" opacity="0.5" transform="translate(57.000000, 16.000000)" stroke="#40527C" stroke-linecap="round" stroke-linejoin="round" stroke-width="0.8">
                        <path d="M0,12 L0,11.2197309 C0.882758621,11.2197309 1.46206897,10.8161435 1.76551724,10.0358744 L5.46206897,0.107623318 L7.03448276,0 L10.4827586,9.98206278 C10.8137931,10.735426 11.3103448,11.1390135 12,11.2197309 L12,12 L6.62068966,12 L6.62068966,11.2197309 C7.5862069,11.2466368 7.94482759,10.9775785 7.64137931,10.3318386 L7.03448276,8.39461883 L3.64137931,8.39461883 L2.97931034,10.3318386 C2.62068966,10.9506726 3.00689655,11.2466368 4.13793103,11.2197309 L4.13793103,12 L0,12 Z M5.43448276,3.20179372 L4,7.34529148 L6.73103448,7.34529148 L5.43448276,3.20179372 Z" id="Shape"></path>
                        <path d="M16.7341772,3.87692308 L16.7341772,2.76923077 C16.7594937,1.84615385 16.4303797,1.3978022 15.721519,1.45054945 L15.721519,0.632967033 L19.164557,0 C19.164557,0.237362637 19.1392405,0.58021978 19.1139241,1.05494505 C19.0886076,2.21538462 19.0632911,2.95384615 19.0632911,3.24395604 L19.0632911,9.54725275 C19.0379747,10.5494505 19.3417722,11.0241758 20,10.9978022 L20,11.7626374 L16.8860759,11.8681319 L16.8860759,11.2351648 C16.3291139,11.7362637 15.6708861,12 14.8860759,12 C12.9873418,11.9736264 12.0253165,10.6021978 12,7.93846154 C12.0759494,5.03736264 13.1392405,3.56043956 15.164557,3.48131868 C15.8481013,3.45494505 16.3544304,3.58681319 16.7341772,3.87692308 Z M15.5696203,11.2087912 C16.3797468,11.1824176 16.7848101,10.021978 16.7848101,7.78021978 C16.7848101,5.45934066 16.4050633,4.2989011 15.6202532,4.24615385 C14.835443,4.24615385 14.4556962,5.45934066 14.4556962,7.88571429 C14.4556962,10.1274725 14.8101266,11.2087912 15.5696203,11.2087912 Z" id="Shape"></path>
                        <path d="M26.7341772,3.87692308 L26.7341772,2.76923077 C26.7594937,1.84615385 26.4303797,1.3978022 25.721519,1.45054945 L25.721519,0.632967033 L29.164557,0 C29.164557,0.237362637 29.1392405,0.58021978 29.1139241,1.05494505 C29.0886076,2.21538462 29.0632911,2.95384615 29.0632911,3.24395604 L29.0632911,9.54725275 C29.0379747,10.5494505 29.3417722,11.0241758 30,10.9978022 L30,11.7626374 L26.8860759,11.8681319 L26.8860759,11.2351648 C26.3291139,11.7362637 25.6708861,12 24.8860759,12 C22.9873418,11.9736264 22.0253165,10.6021978 22,7.93846154 C22.0759494,5.03736264 23.1392405,3.56043956 25.164557,3.48131868 C25.8481013,3.45494505 26.3797468,3.58681319 26.7341772,3.87692308 Z M25.5696203,11.2087912 C26.3797468,11.1824176 26.7848101,10.021978 26.7848101,7.78021978 C26.7848101,5.45934066 26.4050633,4.2989011 25.6202532,4.24615385 C24.835443,4.24615385 24.4556962,5.45934066 24.4556962,7.88571429 C24.4556962,10.1274725 24.835443,11.2087912 25.5696203,11.2087912 Z" id="Shape"></path>
                        <path d="M31.1106719,11 L31.1106719,10.2611465 C31.7470356,10.2866242 32.0513834,9.82802548 32.0237154,8.85987261 L32.0237154,5.85350318 C32.0513834,4.8089172 31.7193676,4.32484076 31,4.40127389 L31,3.61146497 L34.6521739,3 L34.6521739,4.22292994 C35.1778656,3.40764331 35.8142292,3 36.5335968,3 C37.4743083,3.02547771 37.944664,3.45859873 38,4.22292994 C37.972332,5.03821656 37.5019763,5.47133758 36.6719368,5.49681529 C35.9525692,5.49681529 35.5652174,5.26751592 35.5098814,4.8343949 C35.5098814,4.68152866 35.5375494,4.57961783 35.5652174,4.50318471 C35.5652174,4.35031847 35.5098814,4.27388535 35.3715415,4.27388535 C35.0118577,4.52866242 34.7628458,5.24203822 34.6521739,6.38853503 L34.6521739,8.96178344 C34.6245059,9.9044586 34.9565217,10.3121019 35.6758893,10.2356688 L35.6758893,10.9745223 L31.1106719,10.9745223 L31.1106719,11 Z" id="Shape"></path>
                        <path d="M46,10.9748284 L46,10.2448513 C46.9261536,10.3203661 47.3759996,9.84210526 47.3230765,8.81006865 L47.3230765,2.31578947 C47.4024611,1.20823799 46.9790766,0.704805492 46.0529231,0.780320366 L46.0529231,0 L50.7101525,0 C53.6209208,0 55.0498435,1.08237986 54.9969204,3.24713959 C55.076305,5.48741419 53.6209208,6.59496568 50.6307679,6.56979405 L49.8104604,6.56979405 L49.8104604,8.78489703 C49.7310758,9.84210526 50.2338449,10.3455378 51.3187677,10.2700229 L51.3187677,11 L46,11 L46,10.9748284 Z M49.8369219,5.73913043 L50.1809218,5.73913043 C51.6098445,5.73913043 52.3243058,4.90846682 52.3243058,3.24713959 C52.3243058,1.58581236 51.6098445,0.755148741 50.1809218,0.755148741 L49.8369219,0.755148741 L49.8369219,5.73913043 Z" id="Shape"></path>
                        <path d="M55.1106719,11 L55.1106719,10.2611465 C55.7470356,10.2866242 56.0513834,9.82802548 56.0237154,8.85987261 L56.0237154,5.85350318 C56.0513834,4.8089172 55.7193676,4.32484076 55,4.40127389 L55,3.61146497 L58.6521739,3 L58.6521739,4.22292994 C59.1778656,3.40764331 59.8142292,3 60.5335968,3 C61.4743083,3.02547771 61.944664,3.45859873 62,4.22292994 C61.972332,5.03821656 61.5019763,5.47133758 60.6719368,5.49681529 C59.9525692,5.49681529 59.5652174,5.26751592 59.5098814,4.8343949 C59.5098814,4.68152866 59.5375494,4.57961783 59.5652174,4.50318471 C59.5652174,4.35031847 59.5098814,4.27388535 59.3715415,4.27388535 C59.0118577,4.52866242 58.7628458,5.24203822 58.6521739,6.38853503 L58.6521739,8.96178344 C58.6245059,9.9044586 58.9565217,10.3121019 59.6758893,10.2356688 L59.6758893,10.9745223 L55.1106719,10.9745223 L55.1106719,11 Z" id="Shape"></path>
                        <path d="M67.027027,11 C64.3783784,10.9752322 63.027027,9.6873065 63,7.13622291 C63.0810811,4.48606811 64.4324324,3.12383901 67.027027,3 C69.6486486,3.0247678 70.972973,4.41176471 71,7.13622291 C70.972973,9.6873065 69.6486486,10.9752322 67.027027,11 Z M67.027027,10.2817337 C67.9459459,10.2817337 68.3783784,9.24148607 68.3783784,7.13622291 C68.4054054,4.78328173 67.972973,3.66873065 67.027027,3.76780186 C66.027027,3.66873065 65.5675676,4.78328173 65.5945946,7.13622291 C65.5675676,9.31578947 66.027027,10.3560372 67.027027,10.2817337 Z" id="Shape"></path>
                        <path d="M74.6,12 L72.1076923,5.8031746 C71.8584615,5.14285714 71.4984615,4.78730159 71,4.78730159 L71,4 L75.3753846,4 L75.3753846,4.78730159 C74.6830769,4.78730159 74.4615385,5.09206349 74.7107692,5.67619048 L76.1784615,9.63809524 L77.5630769,5.72698413 C77.84,5.06666667 77.4523077,4.73650794 76.4,4.78730159 L76.4,4 L80,4 L80,4.78730159 C79.2246154,4.78730159 78.7538462,5.11746032 78.5323077,5.8031746 L76.1507692,12 L74.6,12 Z" id="Shape"></path>
                        <path d="M87.9487179,7.0123839 L83.5128205,7.0123839 C83.5384615,8.99380805 84.1282051,10.0092879 85.2564103,10.0092879 C86,10.0092879 86.7179487,9.51393189 87.3846154,8.54798762 L88,9.04334365 C87.2051282,10.3560372 86.1025641,11 84.6666667,11 C82.3076923,10.9256966 81.0769231,9.6625387 81,7.18575851 C81.0769231,4.46130031 82.2564103,3.07430341 84.5384615,3 C86.7692308,3.0495356 87.8974359,4.3869969 87.9487179,7.0123839 Z M83.4871795,6.29411765 L85.5128205,6.29411765 C85.5384615,4.56037152 85.2051282,3.69349845 84.4358974,3.74303406 C83.7692308,3.66873065 83.4615385,4.53560372 83.4871795,6.29411765 Z" id="Shape"></path>
                    </g>
                </g>
            </g>
        </g>
    </g>
</svg>