<?xml version="1.0" encoding="UTF-8"?>
<svg width="20px" height="20px" viewBox="0 0 20 20" version="1.1" xmlns="http://www.w3.org/2000/svg" xmlns:xlink="http://www.w3.org/1999/xlink">
    <!-- Generator: Sketch 50.2 (55047) - http://www.bohemiancoding.com/sketch -->
    <title>FaceBook</title>
    <desc>Created with Sketch.</desc>
    <defs></defs>
    <g id="Page-1" stroke="none" stroke-width="1" fill="none" fill-rule="evenodd">
        <g id="王敏1" transform="translate(-160.000000, -1836.000000)" fill="#858AA7">
            <g id="Group-7" transform="translate(0.000000, 816.000000)">
                <g id="Group-15" transform="translate(0.000000, 40.000000)">
                    <g id="14" transform="translate(0.000000, 650.000000)">
                        <g id="底部" transform="translate(0.000000, 208.000000)">
                            <g id="Group" transform="translate(120.000000, 121.000000)">
                                <path d="M49.9845514,1.03079324 C44.466632,1.03079324 40,5.49752926 40,11.0153446 C40,16.5331599 44.466736,21 49.9845514,21 C55.5025748,21 59.9692068,16.5331599 59.9692068,11.0153446 C59.9692068,5.49742523 55.5023667,1.03079324 49.9845514,1.03079324 Z M52.6640832,10.9630429 L50.9306892,10.9630429 L50.9306892,17.2163849 L48.3557087,17.2163849 L48.3557087,10.9630429 L47.0417165,10.9630429 L47.0417165,8.80876463 L48.3557087,8.80876463 L48.3557087,7.49485046 C48.3557087,5.76148244 49.0914434,4.71009103 51.1403901,4.71009103 L52.8738622,4.71009103 L52.8738622,6.86436931 L51.8225748,6.86436931 C51.0347204,6.86436931 50.9822107,7.17992198 50.9822107,7.70462939 L50.9822107,8.75591678 L52.9260858,8.75591678 L52.663459,10.9630429 L52.6640832,10.9630429 Z" id="FaceBook"></path>
                            </g>
                        </g>
                    </g>
                </g>
            </g>
        </g>
    </g>
</svg>
