<?xml version="1.0" encoding="UTF-8"?>
<svg width="20px" height="20px" viewBox="0 0 20 20" version="1.1" xmlns="http://www.w3.org/2000/svg" xmlns:xlink="http://www.w3.org/1999/xlink">
    <!-- Generator: Sketch 50.2 (55047) - http://www.bohemiancoding.com/sketch -->
    <title>Shape</title>
    <desc>Created with Sketch.</desc>
    <defs></defs>
    <g id="Page-1" stroke="none" stroke-width="1" fill="none" fill-rule="evenodd">
        <g id="王敏1" transform="translate(-320.000000, -1778.000000)" fill="#858AA7" fill-rule="nonzero">
            <path d="M333.350126,1792.48456 L335.000133,1784.7884 C335.145955,1784.11104 334.753027,1783.8445 334.30407,1784.01082 L324.606593,1787.70893 C323.944292,1787.9641 323.955785,1788.33085 324.494534,1788.49717 L326.974933,1789.26338 L332.733079,1785.67614 C333.002453,1785.49845 333.249559,1785.59867 333.047708,1785.77636 L328.390046,1789.94073 L328.210463,1792.47319 C328.468344,1792.47319 328.581122,1792.36231 328.71545,1792.22869 L329.927276,1791.07369 L332.441436,1792.90605 C332.901887,1793.16121 333.227291,1793.0283 333.350844,1792.48385 L333.350126,1792.48456 Z M340,1788 C340,1793.52429 335.524286,1798 330,1798 C324.475714,1798 320,1793.52429 320,1788 C320,1782.47571 324.475714,1778 330,1778 C335.524286,1778 340,1782.47571 340,1788 Z" id="Shape"></path>
        </g>
    </g>
</svg>
