<?xml version="1.0" encoding="UTF-8"?>
<svg width="20px" height="20px" viewBox="0 0 20 20" version="1.1" xmlns="http://www.w3.org/2000/svg" xmlns:xlink="http://www.w3.org/1999/xlink">
    <!-- Generator: Sketch 50.2 (55047) - http://www.bohemiancoding.com/sketch -->
    <title>twitter (1)</title>
    <desc>Created with Sketch.</desc>
    <defs></defs>
    <g id="Page-1" stroke="none" stroke-width="1" fill="none" fill-rule="evenodd">
        <g id="王敏1" transform="translate(-120.000000, -1836.000000)" fill="#858AA7">
            <g id="Group-7" transform="translate(0.000000, 816.000000)">
                <g id="Group-15" transform="translate(0.000000, 40.000000)">
                    <g id="14" transform="translate(0.000000, 650.000000)">
                        <g id="底部" transform="translate(0.000000, 208.000000)">
                            <g id="Group" transform="translate(120.000000, 121.000000)">
                                <path d="M9.97861777,1 C4.46722144,1 0,5.46724965 0,10.978646 C0,16.4900141 4.46722144,20.9571509 9.97861777,20.9571509 C15.4900141,20.9571509 19.9571227,16.4900141 19.9571227,10.978646 C19.9571227,5.46724965 15.4900141,1 9.97861777,1 Z M15.0537659,9.06637518 C14.9974612,13.3255853 12.2735684,16.2429901 8.20787024,16.4264598 C6.53108604,16.5030183 5.31647391,15.9613258 4.25918195,15.2898449 C5.4983921,15.4876164 7.03511989,14.9923272 7.85689704,14.2888575 C6.64228491,14.1705219 5.92307475,13.5523554 5.58654443,12.5572073 C5.93748942,12.6178279 6.30719323,12.6019464 6.64084626,12.5312271 C5.54468265,12.1644006 4.76177715,11.4869394 4.72132581,10.0672496 C5.02897038,10.2073061 5.34964739,10.3387588 5.77574048,10.3647673 C4.95537377,9.89822285 4.34877292,8.1925811 5.04341326,7.06456982 C6.26101551,8.39906911 7.72544429,9.48809591 10.1302398,9.63540197 C9.52651622,7.05441467 12.9466008,5.65500705 14.3778561,7.38950635 C14.9830183,7.27260931 15.4755712,7.04296192 15.9492807,6.79306065 C15.7542454,7.39238364 15.3787306,7.81131171 14.9208745,8.14629055 C15.4235825,8.07842031 15.8684062,7.95565585 16.248237,7.76789845 C16.0128632,8.25760226 15.4971791,8.69658674 15.0537659,9.06637518 Z" id="twitter-(1)"></path>
                            </g>
                        </g>
                    </g>
                </g>
            </g>
        </g>
    </g>
</svg>
