<?xml version="1.0" encoding="UTF-8"?>
<svg width="20px" height="15px" viewBox="0 0 20 15" version="1.1" xmlns="http://www.w3.org/2000/svg" xmlns:xlink="http://www.w3.org/1999/xlink">
    <!-- Generator: Sketch 49 (51002) - http://www.bohemiancoding.com/sketch -->
    <title>微信</title>
    <desc>Created with Sketch.</desc>
    <defs></defs>
    <g id="assets" stroke="none" stroke-width="1" fill="none" fill-rule="evenodd">
        <g id="Artboard" transform="translate(-1315.000000, -76.000000)" fill="#ADADB5" fill-rule="nonzero">
            <g id="首页" transform="translate(99.000000, 63.000000)">
                <g id="Group" transform="translate(885.000000, 3.000000)">
                    <g id="微信" transform="translate(323.000000, 0.000000)">
                        <g transform="translate(8.750000, 10.208333)" id="Shape">
                            <path d="M12.4958441,4.44817345 C12.707619,4.44817345 12.9171546,4.46337671 13.125,4.48599571 C12.5596892,1.91226489 9.7454523,0 6.53314431,0 C2.94182162,0 0,2.39343995 0,5.43270874 C0,7.18705386 0.978741011,8.62768706 2.61427182,9.74506499 L1.96084119,11.6666667 L4.24471106,10.5468719 C5.06193773,10.7050189 5.71760781,10.8676484 6.53316545,10.8676484 C6.73817986,10.8676484 6.94146189,10.8577539 7.14305375,10.8422614 C7.01542679,10.415186 6.94146187,9.96786718 6.94146187,9.50375449 C6.94144075,6.71298469 9.39250807,4.44817345 12.4958441,4.44817345 Z M8.98304966,2.7162201 C9.47496595,2.7162201 9.80084675,3.03263803 9.80084675,3.51331733 C9.80084675,3.99207555 9.47496593,4.312914 8.98304966,4.312914 C8.49339395,4.312914 8.00206921,3.99207555 8.00206921,3.51331733 C8.00206921,3.03263803 8.49339395,2.7162201 8.98304966,2.7162201 Z M4.41074654,4.31291398 C3.92113307,4.31291398 3.42697736,3.99207553 3.42697736,3.51331731 C3.42697736,3.03263803 3.92115421,2.71622008 4.41074654,2.71622008 C4.90040225,2.71622008 5.22628307,3.03263801 5.22628307,3.51331731 C5.22628307,3.99207553 4.90040225,4.31291398 4.41074654,4.31291398 Z"></path>
                            <path d="M18.9583333,9.15010961 C18.9583333,6.51937664 16.2126335,4.375 13.1288617,4.375 C9.86350352,4.375 7.29166667,6.51937664 7.29166667,9.15010961 C7.29166667,11.7853748 9.86348131,13.9252192 13.1288617,13.9252192 C13.8123072,13.9252192 14.5016561,13.7599725 15.1880755,13.5950238 L17.0704969,14.5833333 L16.5543673,12.9389311 C17.9319334,11.9480681 18.9583333,10.6340953 18.9583333,9.15010961 Z M11.2362758,8.3267488 C10.8945419,8.3267488 10.5498564,8.000809 10.5498564,7.66833677 C10.5498564,7.34046066 10.8945641,7.01028649 11.2362758,7.01028649 C11.7554014,7.01028649 12.0953598,7.34048195 12.0953598,7.66833677 C12.0953598,8.000809 11.7553792,8.3267488 11.2362758,8.3267488 Z M15.011283,8.3267488 C14.6719238,8.3267488 14.3295908,8.000809 14.3295908,7.66833677 C14.3295908,7.34046066 14.6719238,7.01028649 15.011283,7.01028649 C15.5256592,7.01028649 15.8703004,7.34048195 15.8703004,7.66833677 C15.8703004,8.000809 15.5256592,8.3267488 15.011283,8.3267488 Z"></path>
                        </g>
                    </g>
                </g>
            </g>
        </g>
    </g>
</svg>