<?xml version="1.0" encoding="UTF-8"?>
<svg width="20px" height="21px" viewBox="0 0 20 21" version="1.1" xmlns="http://www.w3.org/2000/svg" xmlns:xlink="http://www.w3.org/1999/xlink">
    <!-- Generator: Sketch 50.2 (55047) - http://www.bohemiancoding.com/sketch -->
    <title>Shape</title>
    <desc>Created with Sketch.</desc>
    <defs></defs>
    <g id="Page-1" stroke="none" stroke-width="1" fill="none" fill-rule="evenodd">
        <g id="王敏1" transform="translate(-321.000000, -1811.000000)" fill="#858AA7" fill-rule="nonzero">
            <g id="Group-17" transform="translate(82.000000, 285.000000)">
                <g id="微信-(1)" transform="translate(239.000000, 1526.000000)">
                    <path d="M11.3196943,10.6622629 C11.091666,10.6622629 10.8635709,10.8740178 10.8635709,11.1346819 C10.8635709,11.3464813 11.0915548,11.5582584 11.3196943,11.5582584 C11.6619036,11.5582584 11.9062721,11.3464591 11.9062721,11.1346819 C11.9062721,10.87404 11.661948,10.6622629 11.3196943,10.6622629 Z M9.82078088,8.46267972 C10.1792191,8.46267972 10.4073586,8.23465138 10.4073586,7.89241989 C10.4073586,7.53398166 10.1792414,7.32220453 9.82078088,7.32220453 C9.47863832,7.32220453 9.15276921,7.53400389 9.15276921,7.89241989 C9.15274698,8.23469584 9.47866055,8.46267972 9.82078088,8.46267972 Z M10.0000111,0.67036626 C4.47710991,0.67036626 0,5.14747617 0,10.6703774 C0,16.1932341 4.47710991,20.6703663 10.0000111,20.6703663 C15.5228679,20.6703663 20,16.1932564 20,10.6703774 C20.0000222,5.14747617 15.5229123,0.67036626 10.0000111,0.67036626 Z M8.11006808,13.2038774 C7.50717243,13.2038774 7.06727803,13.1061923 6.49704043,12.9432133 L4.85148812,13.7742262 L5.3240628,12.3729534 C4.16724746,11.5583918 3.48289565,10.5319419 3.48289565,9.27737474 C3.48289565,7.06156259 5.56838683,5.36710101 8.11009032,5.36710101 C10.3584716,5.36710101 12.3625066,6.70314658 12.753514,8.59317854 C12.5906016,8.56052049 12.4439183,8.54429151 12.3135973,8.54429151 C10.0977852,8.54429151 8.38709462,10.206095 8.38709462,12.2101301 C8.38709462,12.5522281 8.43598166,12.8618016 8.51743782,13.1876929 C8.38709462,13.2038774 8.24041128,13.2038774 8.11006808,13.2038774 Z M14.9041656,14.8005427 L15.229968,15.9736982 L13.991741,15.2731396 C13.5192775,15.3708248 13.0630652,15.5174637 12.5906016,15.5174637 C10.4073364,15.5174637 8.68032791,14.0185725 8.68032791,12.1612208 C8.68032791,10.3038469 10.4073809,8.80493344 12.5906016,8.80493344 C14.6597304,8.80493344 16.5171043,10.3038469 16.5171043,12.1612208 C16.5171043,13.2038774 15.8165458,14.1325533 14.9041656,14.800565 L14.9041656,14.8005427 Z M6.59481451,7.32220453 C6.25267195,7.32220453 5.89425594,7.53400389 5.89425594,7.89241989 C5.89425594,8.23467361 6.25267195,8.46279088 6.59481451,8.46279088 C6.92072808,8.46279088 7.18139225,8.23467361 7.18139225,7.89241989 C7.18139225,7.53400389 6.92072808,7.32220453 6.59481451,7.32220453 Z M13.8777379,10.6622629 C13.6333028,10.6622629 13.4215034,10.8740178 13.4215034,11.1346819 C13.4215034,11.3464813 13.6333028,11.5582584 13.8777379,11.5582584 C14.2035404,11.5582584 14.4479533,11.3464591 14.4479533,11.1346819 C14.4479533,10.87404 14.2035404,10.6622629 13.8777379,10.6622629 Z" id="Shape"></path>
                </g>
            </g>
        </g>
    </g>
</svg>
