<svg xmlns="http://www.w3.org/2000/svg" viewBox="0 0 20.02 14.03"><defs><style>.cls-1{fill:#01247e;}.cls-1,.cls-2,.cls-3{isolation:isolate;}.cls-2{fill:#fff;}.cls-3{fill:#d1132d;}</style></defs><title>yg</title><g id="图层_2" data-name="图层 2"><g id="图层_1-2" data-name="图层 1"><rect class="cls-1" x="0.02" y="0.03" width="20" height="14"/><rect class="cls-2" x="7.99" width="3.98" height="14"/><rect class="cls-2" y="4.73" width="20" height="4.54"/><polygon class="cls-2" points="0 1.92 17.95 14 20.02 14 20.02 12.38 1.62 0 0 0 0 1.92"/><polygon class="cls-2" points="18.02 0 0 12.13 0 14 1.7 14 20.02 1.67 20.02 0 18.02 0"/><rect class="cls-3" x="8.73" width="2.5" height="14"/><polygon class="cls-3" points="19.05 0 0 12.82 0 13.89 20.02 0.41 20.02 0 19.05 0"/><polygon class="cls-3" points="0 0 0 0.67 19.81 14 20.02 14 20.02 13.07 0.6 0 0 0"/><rect class="cls-3" y="5.55" width="20" height="2.91"/></g></g></svg>