<?xml version="1.0" encoding="UTF-8"?>
<svg width="126px" height="20px" viewBox="0 0 126 20" version="1.1" xmlns="http://www.w3.org/2000/svg" xmlns:xlink="http://www.w3.org/1999/xlink">
    <!-- Generator: Sketch 50.2 (55047) - http://www.bohemiancoding.com/sketch -->
    <title>logo_Beta</title>
    <desc>Created with Sketch.</desc>
    <defs></defs>
    <g id="Page-1" stroke="none" stroke-width="1" fill="none" fill-rule="evenodd">
        <g id="logo_Beta" fill-rule="nonzero">
            <g id="q">
                <path d="M12.9836735,17.4857143 C9.37441479,19.0291598 5.17766226,17.7852059 2.99247404,14.524236 C0.807285823,11.2632661 1.25247075,6.90873242 4.05232481,4.15740736 C6.85217887,1.40608231 11.2138301,1.03709521 14.4360983,3.27896059 C17.6583664,5.52082597 18.8287588,9.73868499 17.222449,13.3204082 C17.0975408,13.5874668 17.1263391,13.9011266 17.2977885,14.1409754 C17.4692378,14.3808243 17.7566946,14.5095892 18.0498059,14.4778381 C18.3429172,14.4460869 18.5961329,14.2587539 18.7122449,13.9877551 C20.6388282,9.69611367 19.2383637,4.64090528 15.3780511,1.95243065 C11.5177384,-0.73604398 6.2905684,-0.296582818 2.93332426,2.99868972 C-0.423919888,6.29396227 -0.960683868,11.5120383 1.65540886,15.4217657 C4.27150158,19.331493 9.29974285,20.82589 13.6265306,18.9795918 C13.9031579,18.8705211 14.098597,18.6196611 14.136696,18.3247585 C14.174795,18.0298559 14.0495267,17.7375631 13.8097014,17.5617709 C13.569876,17.3859788 13.2534332,17.3544968 12.9836735,17.4795918 L12.9836735,17.4857143 Z" id="Shape" fill="#FFFFFF"></path>
                <path d="M12.3346939,12.544898 C12.6533286,12.227034 13.1691204,12.227034 13.4877551,12.544898 L19.2530612,18.3122449 C19.5709251,18.6308796 19.5709251,19.1466714 19.2530612,19.4653061 C18.9344265,19.78317 18.4186347,19.78317 18.1,19.4653061 L12.3346939,13.6979592 C12.01683,13.3793245 12.01683,12.8635326 12.3346939,12.544898 Z" id="Rectangle-path" fill="#2BB789"></path>
            </g>
            <g id="b" transform="translate(22.653061, 0.204082)" fill="#FFFFFF">
                <path d="M0.987755102,0 C1.4385998,2.76062756e-17 1.80408163,0.365481837 1.80408163,0.816326531 L1.80408163,18.7530612 C1.80408163,19.2039059 1.4385998,19.5693878 0.987755102,19.5693878 C0.536910408,19.5693878 0.171428571,19.2039059 0.171428571,18.7530612 L0.171428571,0.816326531 C0.171428571,0.365481837 0.536910408,8.28188267e-17 0.987755102,0 Z" id="Rectangle-path-2"></path>
                <path d="M10.7714286,8.16326531 L4.24081633,8.16326531 C3.78997163,8.16326531 3.4244898,8.52874714 3.4244898,8.97959184 C3.4244898,9.43043653 3.78997163,9.79591837 4.24081633,9.79591837 L11.0265306,9.79591837 C12.0376008,9.79591837 13.0072602,10.1975644 13.7221948,10.912499 C14.4371294,11.6274336 14.8387755,12.5970931 14.8387755,13.6081633 L14.8387755,14.1346939 C14.8387755,16.2401386 13.1319753,17.9469388 11.0265306,17.9469388 L4.24897959,17.9469388 C3.7981349,17.9469388 3.43265306,18.3124206 3.43265306,18.7632653 C3.43265306,19.21411 3.7981349,19.5795918 4.24897959,19.5795918 L10.7795918,19.5795918 C12.8910227,19.6925737 14.892258,18.6303775 15.9819448,16.8183378 C17.0716316,15.0062981 17.0716316,12.7406407 15.9819448,10.928601 C14.892258,9.11656124 12.8910227,8.05436512 10.7795918,8.16734694 L10.7714286,8.16326531 Z" id="Shape-2"></path>
                <path d="M9.95714286,0 L4.24285714,0 C3.79201245,-2.76062756e-17 3.42653061,0.365481837 3.42653061,0.816326531 C3.42653061,1.26717122 3.79201245,1.63265306 4.24285714,1.63265306 L9.85918367,1.63265306 C11.6208064,1.61579211 13.0893334,2.97686592 13.2061224,4.73469388 C13.2479916,5.62690933 12.9225431,6.49732946 12.3055828,7.14320979 C11.6886225,7.78909012 10.8340131,8.15404309 9.94081633,8.15306122 L4.22653061,8.15306122 C3.77568592,8.15306122 3.41020408,8.51854306 3.41020408,8.96938776 C3.41020408,9.42023245 3.77568592,9.78571429 4.22653061,9.78571429 L9.94081633,9.78571429 C12.5393438,9.64522405 14.5743519,7.4972205 14.5743519,4.89489796 C14.5743519,2.29257542 12.5393438,0.144571864 9.94081633,0.00408163265 L9.95714286,0 Z" id="Shape-3"></path>
            </g>
            <circle id="Oval" fill="#FFFFFF" cx="41.7816327" cy="18.7979592" r="1"></circle>
            <path d="M54.9632653,16.7122449 C53.523086,18.3850491 51.1977131,18.9915324 49.1239864,18.2351941 C47.0502596,17.4788559 45.6613699,15.5176913 45.6363244,13.3104842 C45.611279,11.1032772 46.9553098,9.11110189 49.0113403,8.30790285 C51.0673709,7.50470381 53.4059069,8.0582652 54.8836735,9.69795918 C55.0501916,9.8833562 55.2875356,9.98941932 55.5367347,9.98979592 C55.7525143,9.98767561 55.9476651,9.86114294 56.0376503,9.66501031 C56.1276354,9.46887768 56.0962706,9.23842026 55.9571429,9.07346939 C54.2047379,6.96872661 51.3252122,6.18101144 48.7454625,7.10066185 C46.1657128,8.02031227 44.4338434,10.4519356 44.4080508,13.1905849 C44.3822582,15.9292342 46.0680223,18.3930448 48.6299933,19.36112 C51.1919644,20.3291952 54.0858154,19.5958538 55.877551,17.5244898 C56.0391141,17.3438724 56.0789412,17.0849587 55.9791291,16.8641357 C55.8793171,16.6433126 55.6586517,16.5021415 55.4163265,16.5040816 C55.2426125,16.5060485 55.0779128,16.5817214 54.9632653,16.7122449 Z" id="Shape-4" fill="#FFFFFF"></path>
            <path d="M64.2020408,6.73469388 C61.085828,6.73324967 58.4027321,8.93370121 57.7941517,11.9899103 C57.1855712,15.0461194 58.8210758,18.1065304 61.7001366,19.2989202 C64.5791974,20.4913099 67.8996177,19.4834413 69.6301124,16.8918834 C71.3606072,14.3003256 71.0190062,10.8471677 68.8142857,8.64489796 C67.5905098,7.42248232 65.9317596,6.73549552 64.2020408,6.73469388 Z M64.2020408,18.5571429 C61.2715503,18.5571429 58.8959184,16.1815109 58.8959184,13.2510204 C58.8959184,10.3205299 61.2715503,7.94489796 64.2020408,7.94489796 C67.1325313,7.94489796 69.5081633,10.3205299 69.5081633,13.2510204 C69.5081633,16.1815109 67.1325313,18.5571429 64.2020408,18.5571429 Z" id="Shape-5" fill="#FFFFFF"></path>
            <g id="m" transform="translate(72.448980, 6.530612)" fill="#FFFFFF">
                <path d="M0.720408163,0.204081633 C1.05854168,0.204081633 1.33265306,0.47819301 1.33265306,0.816326531 L1.33265306,12.6285714 C1.33265306,12.9667049 1.05854168,13.2408163 0.720408163,13.2408163 C0.382274643,13.2408163 0.108163265,12.9667049 0.108163265,12.6285714 L0.108163265,0.816326531 C0.108163265,0.47819301 0.382274643,0.204081633 0.720408163,0.204081633 Z" id="Rectangle-path-3"></path>
                <rect id="Rectangle-path-4" x="11.9306122" y="0.197959184" width="1.22244898" height="13.0428571" rx="0.61122449"></rect>
                <path d="M7.14285714,8.84285714 L1.32653061,0.53877551 C1.14234463,0.259208826 0.773122003,0.170024617 0.481632653,0.334693878 C0.337764868,0.427267018 0.238174464,0.574808357 0.206122449,0.742857143 C0.173607481,0.907062867 0.209744056,1.07742101 0.306122449,1.21428571 L6.12244898,9.53673469 C6.32604919,9.77756808 6.67928171,9.82434691 6.93855162,9.64481173 C7.19782154,9.46527656 7.27830088,9.11816772 7.1244898,8.84285714 L7.14285714,8.84285714 Z" id="Shape-6"></path>
                <path d="M12.7918367,0.340816327 C12.5003474,0.176147066 12.1311248,0.265331275 11.9469388,0.544897959 L6.13265306,8.84081633 C6.00632646,9.02769292 5.99298895,9.26889448 6.09794129,9.4685599 C6.20289362,9.66822532 6.40913319,9.79400817 6.63469388,9.79591837 C6.83569013,9.79946755 7.02562238,9.70412004 7.14285714,9.54081633 L12.977551,1.21020408 C13.0735039,1.07264683 13.1088253,0.901749169 13.0752659,0.737424136 C13.0417066,0.573099103 12.9422051,0.429735692 12.8,0.340816327 L12.7918367,0.340816327 Z" id="Shape-7"></path>
            </g>
            <path d="M123.963476,1.21020408 C124.5326,1.22907176 124.979513,1.70425834 124.963476,2.27346939 L124.963476,17.7265306 C124.979513,18.2957417 124.5326,18.7709282 123.963476,18.7897959 L96.9981697,18.7897959 C96.4293526,18.7709344 95.9830265,18.2954008 96.0002105,17.7265306 L96.0002105,2.27346939 C95.9830265,1.70459915 96.4293526,1.22906556 96.9981697,1.21020408 L123.963476,1.21020408 Z M123.963476,0.212244898 L96.9981697,0.212244898 C95.8798454,0.235676451 94.9887794,1.15495804 95.0002105,2.27346939 L95.0002105,17.7265306 C94.9842605,18.8482075 95.8766244,19.7724742 96.9981697,19.7959184 L123.963476,19.7959184 C125.083416,19.7702669 125.97333,18.8466505 125.957353,17.7265306 L125.957353,2.27346939 C125.97333,1.15334952 125.083416,0.229733071 123.963476,0.204081633 L123.963476,0.212244898 Z" id="Rectangle-path-5" fill="#2BB789"></path>
            <g id="Group-31" transform="translate(99.500000, 6.000000)" fill="#2BB789">
                <path d="M3.85714286,0.367346939 C4.55510204,0.367346939 5.09591837,0.526530612 5.48979592,0.865306122 C5.87080981,1.18609669 6.08119187,1.66567731 6.05918367,2.16326531 C6.07035393,2.52636262 5.96602873,2.88364071 5.76122449,3.18367347 C5.54732998,3.45657946 5.25876881,3.66147916 4.93061224,3.77346939 C5.80041448,3.85849198 6.43849549,4.62965846 6.35918367,5.5 C6.35918367,6.21836735 6.11020408,6.73673469 5.62040816,7.0755102 C5.2,7.35714286 4.6122449,7.49591837 3.85306122,7.49591837 L0.591836735,7.49591837 L0.591836735,0.367346939 L3.85714286,0.367346939 Z M1.6877551,3.3877551 L3.56326531,3.3877551 C4.06326531,3.3877551 4.42244898,3.29795918 4.64285714,3.12857143 C4.87654718,2.91507438 4.99792721,2.60521603 4.97142857,2.28979592 C4.99847933,1.99144303 4.87530365,1.6991877 4.64285714,1.51020408 C4.42244898,1.34081633 4.06326531,1.26122449 3.58367347,1.26122449 L1.6877551,1.26122449 L1.6877551,3.3877551 Z M1.6877551,6.59183673 L3.70408163,6.59183673 C4.07590444,6.60783494 4.44595555,6.53214267 4.78163265,6.37142857 C5.10061193,6.18787739 5.28980108,5.84103063 5.27142857,5.47346939 C5.29995033,5.12411523 5.15869406,4.78236618 4.89183673,4.55510204 C4.64285714,4.36530612 4.25306122,4.2755102 3.73265306,4.2755102 L1.69183673,4.2755102 L1.6877551,6.59183673 Z" id="Shape"></path>
                <path d="M11.4734694,3.05102041 C11.8816327,3.57142857 12.0857143,4.28979592 12.0857143,5.20816327 L8.17959184,5.20816327 C8.18619265,5.62800045 8.32948716,6.03424041 8.5877551,6.36530612 C8.84249427,6.63902411 9.20391947,6.78806543 9.57755102,6.77346939 C9.89703007,6.78651074 10.212119,6.6955646 10.4755102,6.51428571 C10.6808634,6.32977454 10.8414016,6.10083317 10.944898,5.84489796 L12.0020408,5.84489796 C11.8951746,6.31059509 11.6479977,6.73229163 11.2938776,7.05306122 C10.817588,7.45351604 10.2096277,7.6629569 9.5877551,7.64081633 C8.91149661,7.67419874 8.25330944,7.41642115 7.77959184,6.93265306 C7.30204082,6.43469388 7.06122449,5.76530612 7.06122449,4.91632653 C7.03151833,4.20863352 7.27231213,3.51616893 7.73469388,2.97959184 C8.18145509,2.4504015 8.84902507,2.15923538 9.54081633,2.19183673 C10.3877551,2.19387755 11.0346939,2.47346939 11.4734694,3.05102041 Z M8.62857143,3.41020408 C8.38315572,3.68957453 8.23305052,4.03981998 8.2,4.41020408 L10.9836735,4.41020408 C10.8829932,3.51088435 10.4142857,3.06122449 9.57755102,3.06122449 C9.22650897,3.04086418 8.88278728,3.16726506 8.62857143,3.41020408 Z" id="Shape"></path>
                <path d="M14.5612245,2.33265306 L15.7387755,2.33265306 L15.7387755,3.21020408 L14.5612245,3.21020408 L14.5612245,6.20612245 C14.5535246,6.31688988 14.5853408,6.42680052 14.6510204,6.51632653 C14.7269793,6.58570789 14.8279611,6.6210884 14.9306122,6.61428571 L15.6081633,6.61428571 L15.6081633,7.49387755 L14.7612245,7.49387755 C14.4026802,7.52436762 14.0486746,7.39692562 13.7918367,7.14489796 C13.5799395,6.87991025 13.4763821,6.54444263 13.5020408,6.20612245 L13.5020408,3.21020408 L12.544898,3.21020408 L12.544898,2.33265306 L13.5020408,2.33265306 L13.5020408,1.10816327 L14.5612245,0.669387755 L14.5612245,2.33265306 Z" id="Shape"></path>
                <path d="M20.5918367,2.76326531 C20.9020408,3.09183673 21.0612245,3.57959184 21.0612245,4.19183673 L21.0612245,7.49387755 L20.0816327,7.49387755 L20.0816327,6.76530612 C19.8826426,7.02371947 19.6271369,7.23315035 19.3346939,7.37755102 C18.9609667,7.54906962 18.5540484,7.63616687 18.1428571,7.63265306 C17.6873162,7.66012103 17.2382375,7.51431624 16.8857143,7.2244898 C16.5653575,6.97227217 16.3836208,6.58305282 16.3959184,6.1755102 C16.3734468,5.63983633 16.6347692,5.13192473 17.0836735,4.83877551 C17.5040816,4.53877551 18.1040816,4.38979592 18.8612245,4.36938776 L20.0183673,4.33877551 L20.0183673,4.13469388 C20.0183673,3.41428571 19.6306122,3.05510204 18.8510204,3.05510204 C18.5738181,3.04318688 18.29843,3.10516682 18.0530612,3.23469388 C17.8152503,3.36999817 17.6499642,3.60409115 17.6020408,3.87346939 L16.555102,3.78367347 C16.6352033,3.26933534 16.9384726,2.81667219 17.3836735,2.54693878 C17.8530757,2.28885441 18.3855772,2.16792777 18.9204082,2.19795918 C19.6755102,2.1952381 20.2326531,2.38367347 20.5918367,2.76326531 Z M18.9244898,5.13877551 C17.955102,5.15714286 17.477551,5.49795918 17.477551,6.13673469 C17.4740674,6.33121376 17.5673576,6.51473535 17.7265306,6.62653061 C17.9131436,6.76679114 18.1422078,6.83882391 18.3755102,6.83061224 C18.7954289,6.8390155 19.2039801,6.69388187 19.5244898,6.42244898 C19.832346,6.17838884 20.0119544,5.8071479 20.0122449,5.41428571 L20.0122449,5.10816327 L18.9244898,5.13877551 Z" id="Shape"></path>
            </g>
        </g>
    </g>
</svg>