<?xml version="1.0" encoding="UTF-8"?>
<svg width="110px" height="32px" viewBox="0 0 110 32" version="1.1" xmlns="http://www.w3.org/2000/svg" xmlns:xlink="http://www.w3.org/1999/xlink">
    <!-- Generator: Sketch 50.2 (55047) - http://www.bohemiancoding.com/sketch -->
    <title>资源 1</title>
    <desc>Created with Sketch.</desc>
    <defs></defs>
    <g id="Page-1" stroke="none" stroke-width="1" fill="none" fill-rule="evenodd">
        <g id="06.20-首页" transform="translate(-82.000000, -20.000000)" fill="#1B2533" fill-rule="nonzero">
            <g id="资源-1" transform="translate(82.000000, 20.000000)">
                <g id="Group-2">
                    <polygon id="Shape" points="31.7858268 31.584252 20.7395276 23.4607874 20.616063 17.3984252 31.7883465 25.9023622"></polygon>
                    <path d="M15.8740157,31.7480315 C7.10703893,31.7480315 1.07364501e-15,24.6409926 0,15.8740157 C-1.07364501e-15,7.10703893 7.10703893,1.61046751e-15 15.8740157,0 C24.6409926,-1.61046751e-15 31.7480315,7.10703893 31.7480315,15.8740157 C31.7383111,24.6369631 24.6369631,31.7383111 15.8740157,31.7480315 Z M15.8740157,5.03937008 C9.89020618,5.03937008 5.03937008,9.89020618 5.03937008,15.8740157 C5.03937008,21.8578253 9.89020618,26.7086614 15.8740157,26.7086614 C21.8578253,26.7086614 26.7086614,21.8578253 26.7086614,15.8740157 C26.7086614,13.0004891 25.5671574,10.2446545 23.5352672,8.21276432 C21.503377,6.18087411 18.7475424,5.03937008 15.8740157,5.03937008 Z" id="Shape"></path>
                    <path d="M47.7253543,31.4607874 L35.2755906,31.4607874 L35.2755906,0.456062992 L47.2012598,0.456062992 C56.9045669,0.456062992 57.9527559,6.5511811 57.9527559,9.1792126 C57.9315346,11.3831765 57.0005434,13.4804143 55.3801575,14.9744882 C56.1177804,15.4467201 56.7745803,16.0346071 57.3253543,16.7155906 C58.5274005,18.2319023 59.1675243,20.1175522 59.1370079,22.0522835 C59.1370079,27.9458268 54.8711811,31.4607874 47.7253543,31.4607874 Z M41.1086614,25.8872441 L47.2113386,25.8872441 C49.5193701,25.8872441 53.392126,25.3833071 53.392126,22.0144882 C53.392126,20.7269291 52.9285039,19.880315 51.880315,19.2705512 C50.832126,18.6607874 49.1716535,18.3029921 47.1659843,18.3029921 L41.1086614,18.3029921 L41.1086614,25.8872441 Z M41.1086614,12.7294488 L47.1710236,12.7294488 C49.5974803,12.7294488 52.1675591,10.9656693 52.1675591,9.30015748 C52.1675591,8.49133858 52.1675591,6.02456693 46.9744882,6.02456693 L41.1086614,6.02456693 L41.1086614,12.7294488 Z" id="Shape"></path>
                    <polygon id="Shape" points="63.2592126 28.7244094 63.2592126 31.6094488 60.5026772 31.6094488 60.5026772 28.7244094"></polygon>
                    <path d="M71.7329134,18.335748 C74.9631496,18.335748 76.8302362,20.0415748 77.528189,21.9817323 L75.0412598,22.3269291 C74.3710236,21.0393701 73.3177953,20.3867717 71.7404724,20.3867717 C69.3820472,20.3867717 67.8752756,22.0925984 67.8752756,25.103622 C67.8752756,27.9886614 69.3870866,29.8582677 71.7404724,29.8582677 C73.4085039,29.8582677 74.4970079,29.1325984 75.0966929,27.8274016 L77.5634646,28.1549606 C76.7823622,30.2765354 74.9505512,31.911811 71.7404724,31.911811 C67.3688189,31.911811 65.4261417,28.7193701 65.4261417,25.1086614 C65.4185827,21.5634646 67.2327559,18.335748 71.7329134,18.335748 Z" id="Shape"></path>
                    <path d="M85.5735433,18.335748 C90.0737008,18.335748 92.0138583,21.6365354 92.0138583,25.1212598 C92.0138583,28.6059843 90.144252,31.9067717 85.5735433,31.9067717 C81.0733858,31.9067717 79.1508661,28.568189 79.1508661,25.1212598 C79.1508661,21.6743307 81.0935433,18.335748 85.5735433,18.335748 Z M85.5735433,29.855748 C88.2948031,29.855748 89.5647244,27.696378 89.5647244,25.1212598 C89.5647244,22.5461417 88.224252,20.384252 85.5735433,20.384252 C82.9228346,20.384252 81.6,22.5612598 81.6,25.1187402 C81.6,27.6762205 82.9253543,29.855748 85.5735433,29.855748 Z" id="Shape"></path>
                    <polygon id="Shape" points="97.783937 18.6255118 102.193386 28.5858268 106.565039 18.6255118 109.994331 18.6255118 109.994331 31.6170079 107.545197 31.6170079 107.545197 22.3269291 103.390236 31.6170079 101.014173 31.6170079 96.8390551 22.3269291 96.8037795 31.6170079 94.3546457 31.6170079 94.3546457 18.6255118"></polygon>
                </g>
            </g>
        </g>
    </g>
</svg>