<?xml version="1.0" encoding="UTF-8"?>
<svg width="199px" height="46px" viewBox="0 0 199 46" version="1.1" xmlns="http://www.w3.org/2000/svg" xmlns:xlink="http://www.w3.org/1999/xlink">
    <!-- Generator: Sketch 49 (51002) - http://www.bohemiancoding.com/sketch -->
    <title>logo_底部</title>
    <desc>Created with Sketch.</desc>
    <defs></defs>
    <g id="确定" stroke="none" stroke-width="1" fill="none" fill-rule="evenodd">
        <g id="首页-cn-" transform="translate(-621.000000, -1983.000000)" fill-rule="nonzero">
            <g id="底部" transform="translate(0.000000, 1905.000000)">
                <g id="logo_底部" transform="translate(621.000000, 78.000000)">
                    <g id="logo" opacity="0.699999988" transform="translate(0.000000, 0.441290)" fill="#FFFFFF">
                        <g id="q">
                            <path d="M30.3740816,39.7946939 C22.0726635,43.3392059 12.4238647,40.4748683 7.40109248,32.9749438 C2.37832029,25.4750193 3.40327361,15.4623663 9.84142125,9.13564813 C16.2795689,2.80892996 26.3085891,1.9589282 33.7196859,7.1118645 C41.1307826,12.2648008 43.8262404,21.9621333 40.1373469,30.2004082 C39.8105326,30.9124636 39.9602225,31.7525984 40.5128571,32.3079592 C40.9519123,32.7480597 41.5803416,32.9423069 42.191159,32.8267214 C42.8019764,32.711136 43.315982,32.300705 43.5638776,31.7306122 C47.9849297,21.8418638 44.7433447,10.2066428 35.8460145,4.0284099 C26.9486843,-2.14982304 14.9141392,-1.12222108 7.19306477,6.47501899 C-0.528009694,14.0722591 -1.75004095,26.0886179 4.28354056,35.0846693 C10.3171221,44.0807208 21.8984154,47.5099898 31.8573469,43.2493878 C32.4346797,43.007446 32.8534635,42.4936917 32.9740531,41.8794385 C33.0946427,41.2651853 32.9011752,40.6312344 32.4581633,40.1889796 C31.9113483,39.6401633 31.0835898,39.4835603 30.3740816,39.7946939 Z" id="Shape"></path>
                        </g>
                        <g id="b" transform="translate(53.040816, 0.000000)">
                            <rect id="Rectangle-path" x="0" y="0" width="3.75510204" height="45.0612245" rx="1.87755102"></rect>
                            <path d="M24.4081633,18.7755102 L9.3877551,18.7755102 C8.35081231,18.7755102 7.51020408,19.6161184 7.51020408,20.6530612 C7.51020408,21.690004 8.35081231,22.5306122 9.3877551,22.5306122 L25.0136735,22.5306122 C29.8639734,22.5306122 33.7959184,26.4625572 33.7959184,31.3128571 L33.7959184,32.5238776 C33.7959184,34.8530737 32.8706488,37.0868721 31.2236584,38.7338625 C29.576668,40.3808529 27.3428696,41.3061224 25.0136735,41.3061224 L9.3877551,41.3061224 C8.35081231,41.3061224 7.51020408,42.1467307 7.51020408,43.1836735 C7.51020408,44.2206163 8.35081231,45.0612245 9.3877551,45.0612245 L24.4081633,45.0612245 C31.6667628,45.0612245 37.5510204,39.1769669 37.5510204,31.9183673 C37.5510204,24.6597678 31.6667628,18.7755102 24.4081633,18.7755102 Z" id="Shape"></path>
                            <path d="M22.5306122,0 L9.3877551,0 C8.35081231,-6.34944338e-17 7.51020408,0.840608225 7.51020408,1.87755102 C7.51020408,2.91449382 8.35081231,3.75510204 9.3877551,3.75510204 L22.3193878,3.75510204 C26.3655102,3.75510204 29.8295918,6.86244898 30.0314286,10.9038776 C30.1302981,12.9559295 29.3842105,14.9589016 27.966962,16.4462143 C26.5497135,17.933527 24.5850446,18.7753226 22.5306122,18.7755102 L9.3877551,18.7755102 C8.35081231,18.7755102 7.51020408,19.6161184 7.51020408,20.6530612 C7.51020408,21.690004 8.35081231,22.5306122 9.3877551,22.5306122 L22.5306122,22.5306122 C28.752269,22.5306122 33.7959184,17.4869629 33.7959184,11.2653061 C33.7959184,5.04364935 28.752269,3.80966603e-16 22.5306122,0 Z" id="Shape"></path>
                        </g>
                        <circle id="Oval" cx="96.6938776" cy="42.817551" r="2.25306122"></circle>
                        <path d="M127.049184,38.0204082 C123.734272,41.8626822 118.387594,43.252689 113.621088,41.5113881 C108.854582,39.7700873 105.663005,35.2608837 105.605494,30.1865954 C105.547982,25.1123071 108.636538,20.531925 113.362354,18.683039 C118.088169,16.834153 123.464977,18.1026207 126.866122,21.8687755 C127.252245,22.2924381 127.799642,22.5328836 128.372857,22.5306122 C128.872826,22.5288014 129.326085,22.236369 129.53381,21.781592 C129.741535,21.326815 129.665788,20.7927525 129.339796,20.4136735 C125.302854,15.5854621 118.68395,13.7859133 112.758059,15.9054274 C106.832167,18.0249416 102.855963,23.6140436 102.796836,29.9072965 C102.737709,36.2005494 106.608197,41.8633737 112.493219,44.0938552 C118.378241,46.3243367 125.029788,44.6494681 129.156735,39.8979592 C129.52833,39.4825392 129.619932,38.8870378 129.390364,38.3791447 C129.160797,37.8712516 128.653266,37.5465581 128.095918,37.5510204 C127.695293,37.5475523 127.313072,37.7189522 127.049184,38.0204082 Z" id="Shape"></path>
                        <path d="M148.326531,15.0204082 C140.030988,15.0204082 133.306122,21.745274 133.306122,30.0408163 C133.306122,38.3363587 140.030988,45.0612245 148.326531,45.0612245 C156.622073,45.0612245 163.346939,38.3363587 163.346939,30.0408163 C163.346939,26.0571564 161.764436,22.2366568 158.947563,19.4197839 C156.13069,16.6029109 152.310191,15.0204082 148.326531,15.0204082 Z M148.326531,42.244898 C141.586402,42.244898 136.122449,36.7809445 136.122449,30.0408163 C136.122449,23.3006882 141.586402,17.8367347 148.326531,17.8367347 C155.066659,17.8367347 160.530612,23.3006882 160.530612,30.0408163 C160.530612,33.27754 159.244829,36.3816959 156.956119,38.6704052 C154.66741,40.9591145 151.563254,42.244898 148.326531,42.244898 Z" id="Shape"></path>
                        <g id="m" transform="translate(168.102041, 15.020408)">
                            <rect id="Rectangle-path" x="0" y="0" width="2.81632653" height="30.0408163" rx="1.40816327"></rect>
                            <rect id="Rectangle-path" x="27.2244898" y="0" width="2.81632653" height="30.0408163" rx="1.40816327"></rect>
                            <path d="M16.175102,19.9114286 L2.77877551,0.779183673 C2.35658181,0.13414316 1.50558964,-0.0714105041 0.835510204,0.309795918 C0.507062233,0.514297802 0.27722797,0.844933358 0.199983279,1.22405385 C0.122738589,1.60317434 0.204889403,1.99737595 0.427142857,2.31408163 L13.8657143,21.5073469 C14.1293634,21.8827365 14.5593367,22.106177 15.0180612,22.106177 C15.4767857,22.106177 15.9067591,21.8827365 16.1704082,21.5073469 C16.5023717,21.0276945 16.5042384,20.3930254 16.175102,19.9114286 Z" id="Shape"></path>
                            <path d="M29.2053061,0.328571429 C28.5352267,-0.0526349939 27.6842345,0.15291867 27.2620408,0.797959184 L13.8704082,19.9067347 C13.5311764,20.391514 13.5311764,21.0366493 13.8704082,21.5214286 C14.1340573,21.8968181 14.5640306,22.1202586 15.0227551,22.1202586 C15.4814796,22.1202586 15.9114529,21.8968181 16.175102,21.5214286 L29.6136735,2.34693878 C29.8406538,2.02928848 29.9255714,1.63166166 29.8481497,1.24900298 C29.7707281,0.866344291 29.5379168,0.533002155 29.2053061,0.328571429 Z" id="Shape"></path>
                        </g>
                    </g>
                    <rect id="Rectangle-path" fill="#2BB789" transform="translate(37.293403, 36.734694) rotate(-45.000000) translate(-37.293403, -36.734694) " x="35.4158524" y="25.4693878" width="3.75510204" height="22.5306122" rx="1.87755102"></rect>
                </g>
            </g>
        </g>
    </g>
</svg>