<?xml version="1.0" encoding="UTF-8"?>
<svg width="20px" height="20px" viewBox="0 0 20 20" version="1.1" xmlns="http://www.w3.org/2000/svg" xmlns:xlink="http://www.w3.org/1999/xlink">
    <!-- Generator: Sketch 49 (51002) - http://www.bohemiancoding.com/sketch -->
    <title>calendar</title>
    <desc>Created with Sketch.</desc>
    <defs></defs>
    <g id="组件" stroke="none" stroke-width="1" fill="none" fill-rule="evenodd">
        <g id="icon" transform="translate(-377.000000, -159.000000)" fill="#0080D0">
            <g id="20*20" transform="translate(60.000000, 156.000000)">
                <g id="rili" transform="translate(317.000000, 3.000000)">
                    <g id="calendar" transform="translate(2.000000, 1.000000)">
                        <path d="M6.28819444,10.5885417 L6.28819444,9.35807292 C6.85069726,9.10025913 7.37803573,8.79557467 7.87022569,8.44401042 L9.13585069,8.44401042 L9.13585069,14.6666667 L7.76475694,14.6666667 L7.76475694,9.77994792 C7.31944222,10.1080746 6.82725964,10.3776031 6.28819444,10.5885417 Z" id="1"></path>
                        <path d="M2,5.51605903 L2,16 L14.2222222,16 L14.2222222,5.51605903 L2,5.51605903 Z M13.6666667,2.66666667 L15.2222222,2.66666667 L16.2222222,3.66666667 L16.2222222,17 L15.2222222,18 L1,18 L0,17 L0,3.66666667 L1,2.66666667 L2.55555556,2.66666667 L2.55555556,5.51605903 L6.55555556,5.51605903 L6.55555556,2.66666667 L9.66666667,2.66666667 L9.66666667,5.51605903 L13.6666667,5.51605903 L13.6666667,2.66666667 Z" id="Combined-Shape" fill-rule="nonzero"></path>
                        <polygon id="Rectangle" points="1.88888889 5.48205566 14.3333333 5.48205566 14.3333333 7.22222222 1.88888889 7.22222222"></polygon>
                        <polygon id="Line-2" fill-rule="nonzero" points="3.55555556 0 5.55555556 0 5.55555556 4.51605903 3.55555556 4.51605903"></polygon>
                        <polygon id="Line-2" fill-rule="nonzero" points="10.6666667 0 12.6666667 0 12.6666667 4.51605903 10.6666667 4.51605903"></polygon>
                    </g>
                </g>
            </g>
        </g>
    </g>
</svg>