<?xml version="1.0" encoding="UTF-8"?>
<svg width="22px" height="22px" viewBox="0 0 22 22" version="1.1" xmlns="http://www.w3.org/2000/svg" xmlns:xlink="http://www.w3.org/1999/xlink">
    <!-- Generator: Sketch 51.1 (57501) - http://www.bohemiancoding.com/sketch -->
    <title>calendar_normal</title>
    <desc>Created with Sketch.</desc>
    <defs></defs>
    <g id="assets" stroke="none" stroke-width="1" fill="none" fill-rule="evenodd" opacity="0.5">
        <g id="Artboard" transform="translate(-1015.000000, -290.000000)" fill-rule="nonzero">
            <g id="资产管理" transform="translate(99.000000, 290.000000)">
                <g id="calendar_normal" transform="translate(917.000000, 0.000000)">
                    <path d="M3.7869873,3.11669922 L2.01513672,3.11669922 C0.767903646,3.12915039 0.144287109,3.75020345 0.144287109,4.9798584 C0.144287109,6.20951335 0.144287109,11.1032715 0.144287109,19.6611328 C0.235432943,20.7126465 0.859049479,21.2384033 2.01513672,21.2384033 C3.17122396,21.2384033 8.54720052,21.2384033 18.1430664,21.2384033 C19.3857422,21.0167236 19.9337565,20.3329264 19.7871094,19.1870117 C19.6404622,18.041097 19.6404622,13.1575521 19.7871094,4.53637695 C19.5727539,3.58992513 19.0247396,3.11669922 18.1430664,3.11669922 C17.2613932,3.11669922 16.6150716,3.11669922 16.2041016,3.11669922" id="Path-3" stroke="#FFFFFF" stroke-width="1.5"></path>
                    <path d="M0.662963867,8.84289551 L19.2171631,8.84289551" id="Path-4" stroke="#FFFFFF" stroke-width="1.5"></path>
                    <path d="M5.71881104,0 L5.71881104,0 C6.26229779,-9.98368975e-17 6.70288086,0.440583068 6.70288086,0.984069824 L6.70288086,5.30456543 C6.70288086,5.84805219 6.26229779,6.28863525 5.71881104,6.28863525 L5.71881104,6.28863525 C5.17532428,6.28863525 4.73474121,5.84805219 4.73474121,5.30456543 L4.73474121,0.984069824 C4.73474121,0.440583068 5.17532428,9.98368975e-17 5.71881104,0 Z" id="Rectangle" fill="#FFFFFF"></path>
                    <path d="M14.2901306,0 L14.2901306,0 C14.8353197,-1.00149604e-16 15.2772827,0.441963049 15.2772827,0.9871521 L15.2772827,5.30148315 C15.2772827,5.8466722 14.8353197,6.28863525 14.2901306,6.28863525 L14.2901306,6.28863525 C13.7449416,6.28863525 13.3029785,5.8466722 13.3029785,5.30148315 L13.3029785,0.9871521 C13.3029785,0.441963049 13.7449416,1.00149604e-16 14.2901306,0 Z" id="Rectangle" fill="#FFFFFF"></path>
                    <path d="M7.57159424,3.10046387 L12.4091797,3.10046387" id="Path-5" stroke="#FFFFFF" stroke-width="1.5"></path>
                    <path d="M4.70593262,13.9528198 C5.53435974,13.9528198 6.20593262,13.2812469 6.20593262,12.4528198 C6.20593262,11.6243927 5.53435974,10.9528198 4.70593262,10.9528198 C3.87750549,10.9528198 3.20593262,11.6243927 3.20593262,12.4528198 C3.20593262,13.2812469 3.87750549,13.9528198 4.70593262,13.9528198 Z" id="Oval-5" fill="#FFFFFF"></path>
                    <path d="M9.9744873,14 C10.8029144,14 11.4744873,13.3284271 11.4744873,12.5 C11.4744873,11.6715729 10.8029144,11 9.9744873,11 C9.14606018,11 8.4744873,11.6715729 8.4744873,12.5 C8.4744873,13.3284271 9.14606018,14 9.9744873,14 Z" id="Oval-5" fill="#FFFFFF"></path>
                    <path d="M4.70593262,19.1624756 C5.53435974,19.1624756 6.20593262,18.4909027 6.20593262,17.6624756 C6.20593262,16.8340485 5.53435974,16.1624756 4.70593262,16.1624756 C3.87750549,16.1624756 3.20593262,16.8340485 3.20593262,17.6624756 C3.20593262,18.4909027 3.87750549,19.1624756 4.70593262,19.1624756 Z" id="Oval-5" fill="#FFFFFF"></path>
                    <path d="M9.9744873,19.2096558 C10.8029144,19.2096558 11.4744873,18.5380829 11.4744873,17.7096558 C11.4744873,16.8812286 10.8029144,16.2096558 9.9744873,16.2096558 C9.14606018,16.2096558 8.4744873,16.8812286 8.4744873,17.7096558 C8.4744873,18.5380829 9.14606018,19.2096558 9.9744873,19.2096558 Z" id="Oval-5" fill="#FFFFFF"></path>
                    <path d="M15.2470093,14 C16.0754364,14 16.7470093,13.3284271 16.7470093,12.5 C16.7470093,11.6715729 16.0754364,11 15.2470093,11 C14.4185822,11 13.7470093,11.6715729 13.7470093,12.5 C13.7470093,13.3284271 14.4185822,14 15.2470093,14 Z" id="Oval-5" fill="#FFFFFF"></path>
                </g>
            </g>
        </g>
    </g>
</svg>