<?xml version="1.0" encoding="UTF-8"?>
<svg width="64px" height="70px" viewBox="0 0 64 70" version="1.1" xmlns="http://www.w3.org/2000/svg" xmlns:xlink="http://www.w3.org/1999/xlink">
    <!-- Generator: Sketch 49 (51002) - http://www.bohemiancoding.com/sketch -->
    <title>安全</title>
    <desc>Created with Sketch.</desc>
    <defs>
        <filter x="-35.2%" y="-28.4%" width="170.5%" height="160.8%" filterUnits="objectBoundingBox" id="filter-1">
            <feOffset dx="0" dy="1" in="SourceAlpha" result="shadowOffsetOuter1"></feOffset>
            <feGaussianBlur stdDeviation="5" in="shadowOffsetOuter1" result="shadowBlurOuter1"></feGaussianBlur>
            <feColorMatrix values="0 0 0 0 0   0 0 0 0 0   0 0 0 0 0  0 0 0 0.5 0" type="matrix" in="shadowBlurOuter1" result="shadowMatrixOuter1"></feColorMatrix>
            <feMerge>
                <feMergeNode in="shadowMatrixOuter1"></feMergeNode>
                <feMergeNode in="SourceGraphic"></feMergeNode>
            </feMerge>
        </filter>
        <linearGradient x1="10.707%" y1="70.7098824%" x2="82.694%" y2="15.6734694%" id="linearGradient-2">
            <stop stop-color="#5C6265" offset="0%"></stop>
            <stop stop-color="#2F3335" offset="100%"></stop>
        </linearGradient>
        <linearGradient x1="10.707%" y1="70.7098824%" x2="100%" y2="-11.1174152%" id="linearGradient-3">
            <stop stop-color="#5C6265" offset="0%"></stop>
            <stop stop-color="#2F3335" offset="100%"></stop>
        </linearGradient>
        <path d="M24.1748047,47.7480469 L24.1748047,50.4602789 L22.1485056,50.9962981 C21.8144736,50.9378965 21.6474576,50.9086957 21.6474576,50.9086957 C20.5127119,50.6630435 19.1968432,50.2130435 17.6976695,49.5565217 C16.1984957,48.9 14.6425847,48.073913 13.0277542,47.0804348 C11.4129237,46.0891304 9.82864407,44.9586957 8.27055084,43.6891304 C6.71463982,42.4217391 5.32457625,41.076087 4.10254235,39.6565217 C2.88050844,38.2347826 1.89197035,36.7717391 1.13692796,35.2565217 C0.377521193,33.7456522 0,32.226087 0,30.6978261 C0,30.6978261 0,5.21739131 0,5.21739131 C0,5.21739131 1.78940678,4.94130435 1.78940678,4.94130435 C1.78940678,4.94130435 8.49046389,3.62542035 21.8925781,0.993652344 L24.1748047,1.45666504 L24.1748047,47.7480469 Z" id="path-4"></path>
        <linearGradient x1="128.259327%" y1="-11.859375%" x2="-38.8352586%" y2="136.629349%" id="linearGradient-5">
            <stop stop-color="#5C6265" offset="0%"></stop>
            <stop stop-color="#2F3335" offset="100%"></stop>
        </linearGradient>
    </defs>
    <g id="assets" stroke="none" stroke-width="1" fill="none" fill-rule="evenodd">
        <g id="Artboard" transform="translate(-354.000000, -140.000000)">
            <g id="首页" transform="translate(99.000000, 63.000000)">
                <g id="安全" filter="url(#filter-1)" transform="translate(265.000000, 85.000000)">
                    <path d="M43.6440678,5.21739131 C43.6440678,5.21739131 43.6440678,30.6978261 43.6440678,30.6978261 C43.6440678,32.226087 43.2796399,33.7456522 42.5529661,35.2565217 C41.8241102,36.7717391 40.8726695,38.2347826 39.6942796,39.6565217 C38.5158898,41.076087 37.1694703,42.4217391 35.6572034,43.6891304 C34.1427542,44.9586957 32.6086653,46.0891304 31.0527543,47.0804348 C29.494661,48.073913 27.9823941,48.9 26.5137712,49.5565217 C25.0451483,50.2130435 23.7576483,50.6630435 22.6512712,50.9086957 C22.6512712,50.9086957 22.1275423,51 22.1275423,51 C22.1275423,51 21.6474576,50.9086957 21.6474576,50.9086957 C20.5127119,50.6630435 19.1968432,50.2130435 17.6976695,49.5565217 C16.1984957,48.9 14.6425847,48.073913 13.0277542,47.0804348 C11.4129237,46.0891304 9.82864407,44.9586957 8.27055084,43.6891304 C6.71463982,42.4217391 5.32457625,41.076087 4.10254235,39.6565217 C2.88050844,38.2347826 1.89197035,36.7717391 1.13692796,35.2565217 C0.377521193,33.7456522 0,32.226087 0,30.6978261 C0,30.6978261 0,5.21739131 0,5.21739131 C0,5.21739131 1.78940678,4.94130435 1.78940678,4.94130435 C1.78940678,4.94130435 21.865678,1 21.865678,1 C21.865678,1 42.3347458,4.94130435 42.3347458,4.94130435 C42.3347458,4.94130435 43.6440678,5.21739131 43.6440678,5.21739131 C43.6440678,5.21739131 43.6440678,5.21739131 43.6440678,5.21739131 Z" id="Shape" fill="url(#linearGradient-2)" fill-rule="nonzero"></path>
                    <g id="Shape" fill-rule="nonzero">
                        <use fill="url(#linearGradient-3)" fill-rule="evenodd" xlink:href="#path-4"></use>
                        <path stroke="#2BB789" stroke-width="2" d="M23.1748047,2.27415957 L21.8893871,2.01337711 C12.8710155,3.78431126 12.8294652,3.79247048 7.00788921,4.93565111 C2.81972852,5.75807861 2.81972852,5.75807861 1.94189213,5.92961008 C1.71821628,5.96412095 1.71821628,5.96412095 1.04718874,6.06765356 C1.03107641,6.07013952 1.01535096,6.0725658 1,6.07493429 C1,6.55474104 1,7.32643392 1,9.19870924 C1,13.1800272 1,13.1800272 1,17.9576087 C1,22.7351902 1,22.7351902 1,26.7165081 C1,29.9015625 1,29.9015625 1,30.6978261 C1,32.0682711 1.34047414,33.4347684 2.03196069,34.8105213 C2.74639857,36.2442536 3.6870245,37.6389724 4.86040868,39.0041119 C6.04484079,40.3799973 7.39294899,41.6844924 8.90222612,42.9138973 C10.4302923,44.1589959 11.9785235,45.2629487 13.5517508,46.2287144 C15.1335119,47.2018477 16.6483453,48.0053142 18.098813,48.6405065 C19.5392465,49.2713046 20.7942281,49.7008227 21.8196836,49.9236382 C21.8852803,49.935107 21.8993499,49.9375669 22.1047439,49.9734777 L23.1748047,49.6904133 L23.1748047,2.27415957 Z"></path>
                    </g>
                    <path d="M43.6264648,31.1342163 C43.5316003,32.6986348 43.1204675,34.1704976 42.3930664,35.5498047 C41.3019647,37.6187654 40.7291711,38.4122453 39.5507812,39.8339844 C38.3723914,41.2535496 37.0588978,42.4990882 35.5466309,43.7664795 C34.0321817,45.0360447 32.5739774,46.1034222 31.0180664,47.0947266 C29.4599732,48.0882048 27.9457078,48.9155395 26.4770848,49.5720612 C25.008462,50.228583 24.6140747,50.34729 23.9016724,50.5623779 C23.3498549,50.7557884 22.7608785,50.9000045 22.1347429,50.9950263 L21.8842812,50.9527162 C21.8842812,17.6509054 21.8842812,1 21.8842812,1 C21.8842812,1 42.1450195,4.91784668 42.1450195,4.91784668 C42.1450195,4.91784668 42.6388346,5.01985677 43.6264648,5.22387695 L43.6264648,31.1342163 Z" id="Shape" fill="url(#linearGradient-5)" fill-rule="nonzero"></path>
                    <rect id="Rectangle-9" fill="#2BB789" x="13" y="24" width="16" height="2"></rect>
                    <rect id="Rectangle-15" fill="#2BB789" x="20" y="11" width="2" height="30"></rect>
                </g>
            </g>
        </g>
    </g>
</svg>