<?xml version="1.0" encoding="UTF-8"?>
<svg width="106px" height="119px" viewBox="0 0 106 119" version="1.1" xmlns="http://www.w3.org/2000/svg" xmlns:xlink="http://www.w3.org/1999/xlink">
    <!-- Generator: Sketch 49 (51002) - http://www.bohemiancoding.com/sketch -->
    <title>安全@2x</title>
    <desc>Created with Sketch.</desc>
    <defs>
        <filter x="-18.0%" y="-14.5%" width="136.0%" height="131.0%" filterUnits="objectBoundingBox" id="filter-1">
            <feOffset dx="0" dy="1" in="SourceAlpha" result="shadowOffsetOuter1"></feOffset>
            <feGaussianBlur stdDeviation="5" in="shadowOffsetOuter1" result="shadowBlurOuter1"></feGaussianBlur>
            <feColorMatrix values="0 0 0 0 0   0 0 0 0 0   0 0 0 0 0  0 0 0 0.5 0" type="matrix" in="shadowBlurOuter1" result="shadowMatrixOuter1"></feColorMatrix>
            <feMerge>
                <feMergeNode in="shadowMatrixOuter1"></feMergeNode>
                <feMergeNode in="SourceGraphic"></feMergeNode>
            </feMerge>
        </filter>
        <linearGradient x1="10.707%" y1="70.7098824%" x2="82.694%" y2="15.6734694%" id="linearGradient-2">
            <stop stop-color="#5C6265" offset="0%"></stop>
            <stop stop-color="#2F3335" offset="100%"></stop>
        </linearGradient>
        <linearGradient x1="10.707%" y1="70.7098824%" x2="100%" y2="-11.1174152%" id="linearGradient-3">
            <stop stop-color="#5C6265" offset="0%"></stop>
            <stop stop-color="#2F3335" offset="100%"></stop>
        </linearGradient>
        <path d="M47.4015778,92.662837 C47.4015778,92.662837 43.3873379,99.0392157 43.3873379,99.0392157 C43.3873379,99.0392157 42.4459954,98.8601876 42.4459954,98.8601876 C40.2210037,98.3785166 37.6408691,97.4961636 34.7013127,96.2088661 C31.7617564,94.9215686 28.7109504,93.3017903 25.5446161,91.3537937 C22.3782818,89.4100596 19.2718511,87.1935209 16.2167663,84.7041773 C13.1659604,82.2190963 10.4403456,79.5805627 8.04420068,76.7971014 C5.64805577,74.0093777 3.70974578,71.1406649 2.22927051,68.1696504 C0.740237634,65.2071612 0,62.2276215 0,59.2310315 C0,59.2310315 0,9.26939472 0,9.26939472 C0,9.26939472 3.50864074,8.72804774 3.50864074,8.72804774 C3.50864074,8.72804774 18.1396198,6.20724271 47.4015778,1.16563266 C48.8478224,61.8426549 48.8478224,92.341723 47.4015778,92.662837 Z" id="path-4"></path>
        <linearGradient x1="128.259327%" y1="-11.859375%" x2="-38.8352586%" y2="136.629349%" id="linearGradient-5">
            <stop stop-color="#5C6265" offset="0%"></stop>
            <stop stop-color="#2F3335" offset="100%"></stop>
        </linearGradient>
    </defs>
    <g id="确定" stroke="none" stroke-width="1" fill="none" fill-rule="evenodd">
        <g id="首页-cn-" transform="translate(-484.000000, -1589.000000)">
            <g id="优势" transform="translate(183.000000, 1597.000000)">
                <g id="安全" filter="url(#filter-1)" transform="translate(311.000000, 0.000000)">
                    <path d="M85.5766035,9.26939472 C85.5766035,9.26939472 85.5766035,59.2310315 85.5766035,59.2310315 C85.5766035,62.2276215 84.8620389,65.2071612 83.4371885,68.1696504 C82.0080592,71.1406649 80.1424893,74.0093777 77.8319209,76.7971014 C75.5213526,79.5805627 72.8813144,82.2190963 69.9160851,84.7041773 C66.9465769,87.1935209 63.9385594,89.4100596 60.8877535,91.3537937 C57.8326687,93.3017903 54.8674394,94.9215686 51.9877866,96.2088661 C49.108134,97.4961636 46.5836242,98.3785166 44.4142572,98.8601876 C44.4142572,98.8601876 43.3873379,99.0392157 43.3873379,99.0392157 C43.3873379,99.0392157 42.4459954,98.8601876 42.4459954,98.8601876 C40.2210037,98.3785166 37.6408691,97.4961636 34.7013127,96.2088661 C31.7617564,94.9215686 28.7109504,93.3017903 25.5446161,91.3537937 C22.3782818,89.4100596 19.2718511,87.1935209 16.2167663,84.7041773 C13.1659604,82.2190963 10.4403456,79.5805627 8.04420068,76.7971014 C5.64805577,74.0093777 3.70974578,71.1406649 2.22927051,68.1696504 C0.740237634,65.2071612 0,62.2276215 0,59.2310315 C0,59.2310315 0,9.26939472 0,9.26939472 C0,9.26939472 3.50864074,8.72804774 3.50864074,8.72804774 C3.50864074,8.72804774 42.8738784,1 42.8738784,1 C42.8738784,1 83.0093055,8.72804774 83.0093055,8.72804774 C83.0093055,8.72804774 85.5766035,9.26939472 85.5766035,9.26939472 C85.5766035,9.26939472 85.5766035,9.26939472 85.5766035,9.26939472 Z" id="Shape" fill="url(#linearGradient-2)" fill-rule="nonzero"></path>
                    <g id="Shape" fill-rule="nonzero">
                        <use fill="url(#linearGradient-3)" fill-rule="evenodd" xlink:href="#path-4"></use>
                        <path stroke="#2BB789" stroke-width="2" d="M46.728181,91.855484 C46.7799701,91.6571217 46.8338012,91.3661265 46.8855018,90.9912184 C47.016163,90.0437263 47.1270886,88.6155479 47.2161896,86.7167615 C47.3960875,82.8830489 47.4862613,77.158149 47.4862613,69.5477004 C47.4862613,54.5023848 47.133984,32.1014998 46.4293836,2.34786801 C27.4490086,5.61804048 27.2068195,5.65976779 14.6516657,7.82292412 C9.62226661,8.68945085 9.62226661,8.68945085 6.42173995,9.24087695 C4.13564948,9.63475274 4.13564948,9.63475274 3.66112609,9.71635347 C3.222546,9.78402184 3.222546,9.78402184 1.90680572,9.98702696 C1.49217409,10.0510003 1.20820608,10.0948137 1,10.1269377 C1,11.1118659 1,12.1558239 1,17.0759005 C1,24.8824062 1,24.8824062 1,34.2502131 C1,43.61802 1,43.61802 1,51.4245258 C1,57.6697304 1,57.6697304 1,59.2310315 C1,62.0719093 1.70422998,64.8983453 3.12430325,67.72365 C4.56168301,70.6081805 6.45048401,73.4088116 8.80206701,76.1446916 C11.1619945,78.8860811 13.8460239,81.4832786 16.8484416,83.9289442 C19.8771715,86.3968133 22.9476505,88.5861916 26.0686127,90.5020733 C29.2065945,92.4326268 32.2159323,94.0287775 35.1024563,95.2928509 C37.9814809,96.5536403 40.5011572,97.4160008 42.6328303,97.8777962 C42.7223516,97.8948217 42.7437654,97.8988943 42.9043359,97.9294322 C43.1728161,97.5029675 43.4851628,97.0068235 44.5481941,95.3182622 C46.0535341,92.9271202 46.0535341,92.9271202 46.555314,92.1300729 L46.728181,91.855484 Z"></path>
                    </g>
                    <path d="M85.0996208,60.0658967 C84.6232444,64.0499831 83.910106,67.0295228 82.9602058,69.0045156 C81.5310765,71.9755301 79.6655065,74.8442429 77.3549381,77.6319666 C75.0443699,80.4154279 72.4043316,83.0539615 69.4391024,85.5390425 C66.4695942,88.0283861 63.4615766,90.2449248 60.4107707,92.1886589 C57.355686,94.1366555 54.3904567,95.7564338 51.5108039,97.0437313 C48.6311512,98.3310288 46.1066414,99.2133818 43.9372745,99.6950528 C43.9372745,99.6950528 42.9103552,99.8740809 42.9103552,99.8740809 C42.9103552,99.8740809 41.9690126,99.6950528 41.9690126,99.6950528 C40.4856849,99.3739388 40.8190182,66.1466491 42.9690126,0.0131835938 C69.3445527,6.37966982 82.5323227,9.56291293 82.5323227,9.56291293 C82.5323227,9.56291293 85.0996208,10.1042599 85.0996208,10.1042599 C85.0996208,10.1042599 85.0996208,26.7581389 85.0996208,60.0658967 Z" id="Shape" fill="url(#linearGradient-5)" fill-rule="nonzero"></path>
                    <rect id="Rectangle-13" fill="#2BB789" x="26" y="44" width="31" height="2"></rect>
                    <rect id="Rectangle-20" fill="#2BB789" x="40" y="21" width="2" height="56"></rect>
                </g>
            </g>
        </g>
    </g>
</svg>