<?xml version="1.0" encoding="UTF-8"?>
<svg width="8px" height="10px" viewBox="0 0 8 10" version="1.1" xmlns="http://www.w3.org/2000/svg" xmlns:xlink="http://www.w3.org/1999/xlink">
    <!-- Generator: Sketch 49 (51002) - http://www.bohemiancoding.com/sketch -->
    <title>down</title>
    <desc>Created with Sketch.</desc>
    <defs></defs>
    <g id="assets" stroke="none" stroke-width="1" fill="none" fill-rule="evenodd">
        <g id="Artboard" transform="translate(-613.000000, -80.000000)" fill="#F25656">
            <g id="首页" transform="translate(99.000000, 63.000000)">
                <path d="M514.707484,21.0013476 L517.333369,18.3819781 L517.333369,26.1259662 C517.348036,26.2099632 517.368696,26.2728803 517.39535,26.3147174 C517.477352,26.4434288 517.623377,26.5182544 517.74763,26.5182544 C517.904277,26.5182544 518.058528,26.4037829 518.104106,26.3147174 C518.149684,26.2256518 518.171199,26.155553 518.171199,26.1101733 C518.171199,26.0799202 518.171199,23.5408781 518.171199,18.4930469 L520.771068,21.0930835 C520.839895,21.137985 520.898362,21.1658933 520.946467,21.1768085 C521.129082,21.2182432 521.283866,21.123471 521.352595,21.036626 C521.502589,20.8470965 521.458827,20.6228381 521.352595,20.504964 C521.281774,20.4263812 520.153519,19.2966306 517.96783,17.1157123 C517.902763,17.0656626 517.852958,17.0347025 517.818416,17.022832 C517.675298,16.9736494 517.540521,17.0064079 517.444758,17.0972339 C517.314326,17.220942 516.200068,18.3348844 514.101985,20.4390613 C514.047566,20.5121267 514.016204,20.5695099 514.007899,20.6112109 C513.9801,20.7508092 514.029046,20.8988864 514.101985,20.9796649 C514.168428,21.0532493 514.263576,21.1237537 514.423244,21.1237537 C514.529689,21.1237537 514.624436,21.0829516 514.707484,21.0013476 Z" id="down" transform="translate(517.724685, 21.759127) scale(1, -1) translate(-517.724685, -21.759127) "></path>
            </g>
        </g>
    </g>
</svg>