<?xml version="1.0" encoding="UTF-8"?>
<svg width="7px" height="14px" viewBox="0 0 7 14" version="1.1" xmlns="http://www.w3.org/2000/svg" xmlns:xlink="http://www.w3.org/1999/xlink">
    <!-- Generator: Sketch 49 (51002) - http://www.bohemiancoding.com/sketch -->
    <title>rank</title>
    <desc>Created with Sketch.</desc>
    <defs></defs>
    <g id="assets" stroke="none" stroke-width="1" fill="none" fill-rule="evenodd">
        <g id="Artboard" transform="translate(-480.000000, -79.000000)">
            <g id="首页" transform="translate(99.000000, 63.000000)">
                <g id="rank" transform="translate(381.000000, 16.000000)">
                    <path d="M3.93409944,0.242584273 L6.93959839,5.24531522 C7.08180676,5.48202473 7.00519844,5.78919836 6.76848893,5.93140672 C6.69072516,5.978125 6.60171617,6.00280624 6.51099791,6.00280624 L0.5,6.00280624 C0.223857625,6.00280624 -6.61137811e-14,5.77894862 -6.61692923e-14,5.50280624 C-6.61692923e-14,5.41208799 0.0246812449,5.323079 0.0713995174,5.24531522 L3.07689847,0.242584273 C3.21910684,0.00587476295 3.52628047,-0.0707335521 3.76298998,0.0714748124 C3.8331763,0.113640765 3.89193349,0.172397951 3.93409944,0.242584273 Z" id="Triangle" fill="#535658"></path>
                    <path d="M3.93409944,8.24258427 L6.93959839,13.2453152 C7.08180676,13.4820247 7.00519844,13.7891984 6.76848893,13.9314067 C6.69072516,13.978125 6.60171617,14.0028062 6.51099791,14.0028062 L0.5,14.0028062 C0.223857625,14.0028062 -6.61137811e-14,13.7789486 -6.61692923e-14,13.5028062 C-6.61692923e-14,13.412088 0.0246812449,13.323079 0.0713995174,13.2453152 L3.07689847,8.24258427 C3.21910684,8.00587476 3.52628047,7.92926645 3.76298998,8.07147481 C3.8331763,8.11364077 3.89193349,8.17239795 3.93409944,8.24258427 Z" id="Triangle-Copy" fill="#2BB789" transform="translate(3.505537, 11.001403) scale(1, -1) translate(-3.505537, -11.001403) "></path>
                </g>
            </g>
        </g>
    </g>
</svg>