<?xml version="1.0" encoding="UTF-8"?>
<svg width="740px" height="40px" viewBox="0 0 740 40" version="1.1" xmlns="http://www.w3.org/2000/svg" xmlns:xlink="http://www.w3.org/1999/xlink">
    <!-- Generator: Sketch 49 (51002) - http://www.bohemiancoding.com/sketch -->
    <title>Quality Digital Asse@2x</title>
    <desc>Created with Sketch.</desc>
    <defs></defs>
    <g id="确定" stroke="none" stroke-width="1" fill="none" fill-rule="evenodd">
        <g id="首页-en" transform="translate(-242.000000, -144.000000)" fill="#2BB789">
            <g id="text_en_1" transform="translate(240.000000, 138.000000)">
                <path d="M25.284,35.194 L22.218,38.26 L19.572,35.614 C17.892,36.706 15.876,37.252 13.524,37.252 C10.122,37.252 7.518,36.076 5.418,33.976 C2.394,30.952 2.478,27.214 2.478,22.048 C2.478,16.882 2.394,13.144 5.418,10.12 C7.518,8.02 10.122,6.844 13.524,6.844 C16.926,6.844 19.488,8.02 21.588,10.12 C24.612,13.144 24.57,16.882 24.57,22.048 C24.57,26.542 24.612,29.86 22.722,32.632 L25.284,35.194 Z M18.732,22.048 C18.732,16.294 18.396,14.908 17.262,13.648 C16.422,12.682 15.12,12.052 13.524,12.052 C11.928,12.052 10.584,12.682 9.744,13.648 C8.61,14.908 8.316,16.294 8.316,22.048 C8.316,27.802 8.61,29.188 9.744,30.448 C10.584,31.414 11.928,32.044 13.524,32.044 C14.238,32.044 14.91,31.876 15.456,31.498 L12.852,28.936 L15.96,25.87 L18.186,28.096 C18.648,26.794 18.732,25.072 18.732,22.048 Z M48.006,37 L42.672,37 L42.672,34.984 C41.244,36.496 39.228,37.252 37.212,37.252 C35.028,37.252 33.264,36.538 32.046,35.32 C30.282,33.556 29.82,31.498 29.82,29.104 L29.82,15.118 L35.28,15.118 L35.28,28.348 C35.28,31.33 37.17,32.338 38.892,32.338 C40.614,32.338 42.546,31.33 42.546,28.348 L42.546,15.118 L48.006,15.118 L48.006,37 Z M70.686,37 L65.352,37 L65.352,35.11 C63.882,36.58 62.496,37.21 59.976,37.21 C57.498,37.21 55.692,36.58 54.39,35.278 C53.214,34.06 52.584,32.296 52.584,30.364 C52.584,26.878 54.978,24.022 60.06,24.022 L65.226,24.022 L65.226,22.93 C65.226,20.536 64.05,19.486 61.152,19.486 C59.052,19.486 58.086,19.99 56.952,21.292 L53.466,17.89 C55.608,15.538 57.708,14.866 61.362,14.866 C67.494,14.866 70.686,17.47 70.686,22.594 L70.686,37 Z M65.226,28.936 L65.226,27.76 L60.9,27.76 C58.926,27.76 57.834,28.684 57.834,30.238 C57.834,31.75 58.842,32.758 60.984,32.758 C62.496,32.758 63.462,32.632 64.428,31.708 C65.016,31.162 65.226,30.28 65.226,28.936 Z M85.848,37 L82.74,37 C78.246,37 76.356,33.85 76.356,30.742 L76.356,7.096 L81.816,7.096 L81.816,30.406 C81.816,31.708 82.362,32.38 83.748,32.38 L85.848,32.38 L85.848,37 Z M95.718,11.38 L90.132,11.38 L90.132,6.928 L95.718,6.928 L95.718,11.38 Z M95.676,37 L90.216,37 L90.216,15.118 L95.676,15.118 L95.676,37 Z M111.594,37 L108.612,37 C104.16,37 102.27,33.85 102.27,30.742 L102.27,19.906 L99.96,19.906 L99.96,15.748 L102.27,15.748 L102.27,9.28 L107.73,9.28 L107.73,15.748 L111.594,15.748 L111.594,19.906 L107.73,19.906 L107.73,30.406 C107.73,31.666 108.318,32.38 109.62,32.38 L111.594,32.38 L111.594,37 Z M134.064,15.118 L124.698,40.528 C124.236,41.746 123.732,42.67 123.06,43.342 C121.8,44.602 120.162,45.022 118.356,45.022 L116.214,45.022 L116.214,40.108 L117.474,40.108 C119.028,40.108 119.658,39.73 120.204,38.134 L121.128,35.446 L113.652,15.118 L119.406,15.118 L123.942,28.642 L128.31,15.118 L134.064,15.118 Z M169.176,21.922 C169.176,26.416 169.512,30.784 166.152,34.144 C164.178,36.118 161.364,37 158.256,37 L147.462,37 L147.462,7.096 L158.256,7.096 C161.364,7.096 164.178,7.978 166.152,9.952 C169.512,13.312 169.176,17.428 169.176,21.922 Z M163.338,21.922 C163.338,17.386 163.17,15.496 162.078,14.152 C161.07,12.934 159.726,12.304 157.71,12.304 L153.3,12.304 L153.3,31.792 L157.71,31.792 C159.726,31.792 161.07,31.162 162.078,29.944 C163.17,28.6 163.338,26.458 163.338,21.922 Z M180.222,11.38 L174.636,11.38 L174.636,6.928 L180.222,6.928 L180.222,11.38 Z M180.18,37 L174.72,37 L174.72,15.118 L180.18,15.118 L180.18,37 Z M203.448,36.202 C203.448,41.452 199.71,45.274 193.83,45.274 C190.47,45.274 188.16,44.602 185.892,42.418 L189.294,38.974 C190.512,40.15 191.73,40.654 193.578,40.654 C196.854,40.654 197.988,38.344 197.988,36.118 L197.988,33.892 C196.56,35.488 194.922,36.076 192.78,36.076 C190.638,36.076 188.79,35.362 187.572,34.144 C185.514,32.086 185.346,29.272 185.346,25.45 C185.346,21.628 185.514,18.856 187.572,16.798 C188.79,15.58 190.68,14.866 192.822,14.866 C195.132,14.866 196.644,15.496 198.156,17.176 L198.156,15.118 L203.448,15.118 L203.448,36.202 Z M197.988,25.45 C197.988,22.552 197.61,19.78 194.376,19.78 C191.142,19.78 190.806,22.552 190.806,25.45 C190.806,28.348 191.142,31.162 194.376,31.162 C197.61,31.162 197.988,28.348 197.988,25.45 Z M215.082,11.38 L209.496,11.38 L209.496,6.928 L215.082,6.928 L215.082,11.38 Z M215.04,37 L209.58,37 L209.58,15.118 L215.04,15.118 L215.04,37 Z M230.958,37 L227.976,37 C223.524,37 221.634,33.85 221.634,30.742 L221.634,19.906 L219.324,19.906 L219.324,15.748 L221.634,15.748 L221.634,9.28 L227.094,9.28 L227.094,15.748 L230.958,15.748 L230.958,19.906 L227.094,19.906 L227.094,30.406 C227.094,31.666 227.682,32.38 228.984,32.38 L230.958,32.38 L230.958,37 Z M252.462,37 L247.128,37 L247.128,35.11 C245.658,36.58 244.272,37.21 241.752,37.21 C239.274,37.21 237.468,36.58 236.166,35.278 C234.99,34.06 234.36,32.296 234.36,30.364 C234.36,26.878 236.754,24.022 241.836,24.022 L247.002,24.022 L247.002,22.93 C247.002,20.536 245.826,19.486 242.928,19.486 C240.828,19.486 239.862,19.99 238.728,21.292 L235.242,17.89 C237.384,15.538 239.484,14.866 243.138,14.866 C249.27,14.866 252.462,17.47 252.462,22.594 L252.462,37 Z M247.002,28.936 L247.002,27.76 L242.676,27.76 C240.702,27.76 239.61,28.684 239.61,30.238 C239.61,31.75 240.618,32.758 242.76,32.758 C244.272,32.758 245.238,32.632 246.204,31.708 C246.792,31.162 247.002,30.28 247.002,28.936 Z M267.624,37 L264.516,37 C260.022,37 258.132,33.85 258.132,30.742 L258.132,7.096 L263.592,7.096 L263.592,30.406 C263.592,31.708 264.138,32.38 265.524,32.38 L267.624,32.38 L267.624,37 Z M305.256,37 L299.166,37 L297.402,31.708 L286.776,31.708 L284.97,37 L278.88,37 L289.758,7.096 L294.336,7.096 L305.256,37 Z M295.848,26.794 L292.194,15.916 L288.414,26.794 L295.848,26.794 Z M324.996,30.112 C324.996,34.942 320.88,37.252 315.714,37.252 C312.27,37.252 309.162,36.874 306.39,34.102 L309.96,30.532 C311.766,32.338 314.118,32.59 315.798,32.59 C317.688,32.59 319.662,31.96 319.662,30.322 C319.662,29.23 319.074,28.474 317.352,28.306 L313.908,27.97 C309.96,27.592 307.524,25.87 307.524,21.838 C307.524,17.302 311.514,14.866 315.966,14.866 C319.368,14.866 322.224,15.454 324.324,17.428 L320.964,20.83 C319.704,19.696 317.772,19.36 315.882,19.36 C313.698,19.36 312.774,20.368 312.774,21.46 C312.774,22.258 313.11,23.182 315.042,23.35 L318.486,23.686 C322.812,24.106 324.996,26.416 324.996,30.112 Z M346.038,30.112 C346.038,34.942 341.922,37.252 336.756,37.252 C333.312,37.252 330.204,36.874 327.432,34.102 L331.002,30.532 C332.808,32.338 335.16,32.59 336.84,32.59 C338.73,32.59 340.704,31.96 340.704,30.322 C340.704,29.23 340.116,28.474 338.394,28.306 L334.95,27.97 C331.002,27.592 328.566,25.87 328.566,21.838 C328.566,17.302 332.556,14.866 337.008,14.866 C340.41,14.866 343.266,15.454 345.366,17.428 L342.006,20.83 C340.746,19.696 338.814,19.36 336.924,19.36 C334.74,19.36 333.816,20.368 333.816,21.46 C333.816,22.258 334.152,23.182 336.084,23.35 L339.528,23.686 C343.854,24.106 346.038,26.416 346.038,30.112 Z M368.592,27.76 L354.9,27.76 C354.9,30.574 356.622,32.632 359.688,32.632 C362.082,32.632 363.258,31.96 364.644,30.574 L367.962,33.808 C365.736,36.034 363.594,37.252 359.646,37.252 C354.48,37.252 349.524,34.9 349.524,26.038 C349.524,18.898 353.388,14.866 359.058,14.866 C365.148,14.866 368.592,19.318 368.592,25.324 L368.592,27.76 Z M363.216,24.022 C363.174,23.056 363.048,22.468 362.712,21.67 C362.124,20.368 360.906,19.402 359.058,19.402 C357.21,19.402 355.992,20.368 355.404,21.67 C355.068,22.468 354.942,23.056 354.9,24.022 L363.216,24.022 Z M383.46,37 L380.478,37 C376.026,37 374.136,33.85 374.136,30.742 L374.136,19.906 L371.826,19.906 L371.826,15.748 L374.136,15.748 L374.136,9.28 L379.596,9.28 L379.596,15.748 L383.46,15.748 L383.46,19.906 L379.596,19.906 L379.596,30.406 C379.596,31.666 380.184,32.38 381.486,32.38 L383.46,32.38 L383.46,37 Z M404.88,30.112 C404.88,34.942 400.764,37.252 395.598,37.252 C392.154,37.252 389.046,36.874 386.274,34.102 L389.844,30.532 C391.65,32.338 394.002,32.59 395.682,32.59 C397.572,32.59 399.546,31.96 399.546,30.322 C399.546,29.23 398.958,28.474 397.236,28.306 L393.792,27.97 C389.844,27.592 387.408,25.87 387.408,21.838 C387.408,17.302 391.398,14.866 395.85,14.866 C399.252,14.866 402.108,15.454 404.208,17.428 L400.848,20.83 C399.588,19.696 397.656,19.36 395.766,19.36 C393.582,19.36 392.658,20.368 392.658,21.46 C392.658,22.258 392.994,23.182 394.926,23.35 L398.37,23.686 C402.696,24.106 404.88,26.416 404.88,30.112 Z M438.858,12.304 L431.046,12.304 L431.046,37 L425.208,37 L425.208,12.304 L417.396,12.304 L417.396,7.096 L438.858,7.096 L438.858,12.304 Z M459.186,16.924 L455.07,21.082 C454.23,20.242 453.516,19.78 452.172,19.78 C450.492,19.78 448.644,21.04 448.644,23.812 L448.644,37 L443.184,37 L443.184,15.118 L448.518,15.118 L448.518,17.218 C449.568,15.958 451.668,14.866 454.02,14.866 C456.162,14.866 457.674,15.412 459.186,16.924 Z M478.842,37 L473.508,37 L473.508,35.11 C472.038,36.58 470.652,37.21 468.132,37.21 C465.654,37.21 463.848,36.58 462.546,35.278 C461.37,34.06 460.74,32.296 460.74,30.364 C460.74,26.878 463.134,24.022 468.216,24.022 L473.382,24.022 L473.382,22.93 C473.382,20.536 472.206,19.486 469.308,19.486 C467.208,19.486 466.242,19.99 465.108,21.292 L461.622,17.89 C463.764,15.538 465.864,14.866 469.518,14.866 C475.65,14.866 478.842,17.47 478.842,22.594 L478.842,37 Z M473.382,28.936 L473.382,27.76 L469.056,27.76 C467.082,27.76 465.99,28.684 465.99,30.238 C465.99,31.75 466.998,32.758 469.14,32.758 C470.652,32.758 471.618,32.632 472.584,31.708 C473.172,31.162 473.382,30.28 473.382,28.936 Z M502.152,37 L496.818,37 L496.818,34.942 C495.306,36.622 493.71,37.252 491.4,37.252 C489.258,37.252 487.242,36.496 486.024,35.278 C483.84,33.094 483.798,29.314 483.798,26.038 C483.798,22.762 483.84,19.024 486.024,16.84 C487.242,15.622 489.216,14.866 491.358,14.866 C493.584,14.866 495.264,15.454 496.692,17.05 L496.692,7.096 L502.152,7.096 L502.152,37 Z M496.692,26.038 C496.692,22.468 496.23,19.78 492.954,19.78 C489.678,19.78 489.258,22.468 489.258,26.038 C489.258,29.608 489.678,32.338 492.954,32.338 C496.23,32.338 496.692,29.608 496.692,26.038 Z M513.786,11.38 L508.2,11.38 L508.2,6.928 L513.786,6.928 L513.786,11.38 Z M513.744,37 L508.284,37 L508.284,15.118 L513.744,15.118 L513.744,37 Z M538.02,37 L532.56,37 L532.56,23.77 C532.56,20.788 530.67,19.78 528.948,19.78 C527.226,19.78 525.294,20.788 525.294,23.77 L525.294,37 L519.834,37 L519.834,15.118 L525.168,15.118 L525.168,17.134 C526.596,15.622 528.612,14.866 530.628,14.866 C532.812,14.866 534.576,15.58 535.794,16.798 C537.558,18.562 538.02,20.62 538.02,23.014 L538.02,37 Z M561.078,36.202 C561.078,41.452 557.34,45.274 551.46,45.274 C548.1,45.274 545.79,44.602 543.522,42.418 L546.924,38.974 C548.142,40.15 549.36,40.654 551.208,40.654 C554.484,40.654 555.618,38.344 555.618,36.118 L555.618,33.892 C554.19,35.488 552.552,36.076 550.41,36.076 C548.268,36.076 546.42,35.362 545.202,34.144 C543.144,32.086 542.976,29.272 542.976,25.45 C542.976,21.628 543.144,18.856 545.202,16.798 C546.42,15.58 548.31,14.866 550.452,14.866 C552.762,14.866 554.274,15.496 555.786,17.176 L555.786,15.118 L561.078,15.118 L561.078,36.202 Z M555.618,25.45 C555.618,22.552 555.24,19.78 552.006,19.78 C548.772,19.78 548.436,22.552 548.436,25.45 C548.436,28.348 548.772,31.162 552.006,31.162 C555.24,31.162 555.618,28.348 555.618,25.45 Z M598.836,16.42 C598.836,21.502 595.14,25.744 588.966,25.744 L583.212,25.744 L583.212,37 L577.374,37 L577.374,7.096 L588.966,7.096 C595.14,7.096 598.836,11.338 598.836,16.42 Z M592.998,16.42 C592.998,13.984 591.318,12.304 588.672,12.304 L583.212,12.304 L583.212,20.494 L588.672,20.494 C591.318,20.494 592.998,18.856 592.998,16.42 Z M612.612,37 L609.504,37 C605.01,37 603.12,33.85 603.12,30.742 L603.12,7.096 L608.58,7.096 L608.58,30.406 C608.58,31.708 609.126,32.38 610.512,32.38 L612.612,32.38 L612.612,37 Z M633.528,37 L628.194,37 L628.194,35.11 C626.724,36.58 625.338,37.21 622.818,37.21 C620.34,37.21 618.534,36.58 617.232,35.278 C616.056,34.06 615.426,32.296 615.426,30.364 C615.426,26.878 617.82,24.022 622.902,24.022 L628.068,24.022 L628.068,22.93 C628.068,20.536 626.892,19.486 623.994,19.486 C621.894,19.486 620.928,19.99 619.794,21.292 L616.308,17.89 C618.45,15.538 620.55,14.866 624.204,14.866 C630.336,14.866 633.528,17.47 633.528,22.594 L633.528,37 Z M628.068,28.936 L628.068,27.76 L623.742,27.76 C621.768,27.76 620.676,28.684 620.676,30.238 C620.676,31.75 621.684,32.758 623.826,32.758 C625.338,32.758 626.304,32.632 627.27,31.708 C627.858,31.162 628.068,30.28 628.068,28.936 Z M649.236,37 L646.254,37 C641.802,37 639.912,33.85 639.912,30.742 L639.912,19.906 L637.602,19.906 L637.602,15.748 L639.912,15.748 L639.912,9.28 L645.372,9.28 L645.372,15.748 L649.236,15.748 L649.236,19.906 L645.372,19.906 L645.372,30.406 C645.372,31.666 645.96,32.38 647.262,32.38 L649.236,32.38 L649.236,37 Z M664.356,19.906 L660.324,19.906 L660.324,37 L654.864,37 L654.864,19.906 L652.596,19.906 L652.596,15.748 L654.864,15.748 L654.864,13.018 C654.864,9.91 656.796,6.76 661.248,6.76 L664.356,6.76 L664.356,11.38 L662.214,11.38 C660.912,11.38 660.324,12.094 660.324,13.354 L660.324,15.748 L664.356,15.748 L664.356,19.906 Z M686.154,26.038 C686.154,30.028 685.65,32.506 683.676,34.564 C682.332,35.992 680.106,37.252 676.872,37.252 C673.638,37.252 671.454,35.992 670.11,34.564 C668.136,32.506 667.632,30.028 667.632,26.038 C667.632,22.09 668.136,19.612 670.11,17.554 C671.454,16.126 673.638,14.866 676.872,14.866 C680.106,14.866 682.332,16.126 683.676,17.554 C685.65,19.612 686.154,22.09 686.154,26.038 Z M680.694,26.038 C680.694,23.77 680.568,21.88 679.434,20.746 C678.804,20.116 677.964,19.78 676.872,19.78 C675.78,19.78 674.982,20.116 674.352,20.746 C673.218,21.88 673.092,23.77 673.092,26.038 C673.092,28.306 673.218,30.238 674.352,31.372 C674.982,32.002 675.78,32.338 676.872,32.338 C677.964,32.338 678.804,32.002 679.434,31.372 C680.568,30.238 680.694,28.306 680.694,26.038 Z M707.364,16.924 L703.248,21.082 C702.408,20.242 701.694,19.78 700.35,19.78 C698.67,19.78 696.822,21.04 696.822,23.812 L696.822,37 L691.362,37 L691.362,15.118 L696.696,15.118 L696.696,17.218 C697.746,15.958 699.846,14.866 702.198,14.866 C704.34,14.866 705.852,15.412 707.364,16.924 Z M741.384,37 L735.924,37 L735.924,23.77 C735.924,20.788 734.034,19.78 732.312,19.78 C730.632,19.78 728.658,20.788 728.658,23.644 L728.658,37 L723.198,37 L723.198,23.77 C723.198,20.788 721.308,19.78 719.586,19.78 C717.864,19.78 715.932,20.788 715.932,23.77 L715.932,37 L710.472,37 L710.472,15.118 L715.806,15.118 L715.806,17.134 C717.234,15.664 719.25,14.866 721.266,14.866 C723.702,14.866 725.676,15.748 727.062,17.638 C728.91,15.706 730.884,14.866 733.614,14.866 C735.798,14.866 737.772,15.58 738.99,16.798 C740.754,18.562 741.384,20.62 741.384,23.014 L741.384,37 Z" id="Quality-Digital-Asse"></path>
            </g>
        </g>
    </g>
</svg>