<?xml version="1.0" encoding="UTF-8"?>
<svg width="437px" height="40px" viewBox="0 0 437 40" version="1.1" xmlns="http://www.w3.org/2000/svg" xmlns:xlink="http://www.w3.org/1999/xlink">
    <!-- Generator: Sketch 49 (51002) - http://www.bohemiancoding.com/sketch -->
    <title>优质数字资产交易平台@2x</title>
    <desc>Created with Sketch.</desc>
    <defs></defs>
    <g id="确定" stroke="none" stroke-width="1" fill="none" fill-rule="evenodd">
        <g id="首页-cn-" transform="translate(-241.000000, -134.000000)" fill="#2BB789">
            <path d="M267.398438,138.8125 L270.515625,135.367188 C273.031263,136.78907 275.328115,138.429678 277.40625,140.289062 L274.125,144.0625 C273.796873,143.734373 272.976569,143.07813 271.664062,142.09375 C269.914054,140.781243 268.492193,139.687504 267.398438,138.8125 Z M249.84375,135.039062 L255.09375,136.679688 C253.999995,140.070329 252.632821,143.351547 250.992188,146.523438 L250.992188,168.34375 C255.58596,164.40623 258.210934,158.390665 258.867188,150.296875 L252.46875,150.296875 L252.46875,145.210938 L258.867188,145.210938 C258.867188,144.007806 258.921874,142.312511 259.03125,140.125 L259.03125,135.203125 L264.28125,135.203125 L264.28125,136.679688 C264.171874,139.632827 264.117188,142.476549 264.117188,145.210938 L279.703125,145.210938 L279.703125,150.296875 L271.007812,150.296875 L271.007812,165.390625 C271.007812,166.593756 271.499995,167.195312 272.484375,167.195312 L273.140625,167.195312 C274.125005,167.195312 274.671874,166.70313 274.78125,165.71875 C274.890626,165.281248 274.999999,164.296883 275.109375,162.765625 C275.218751,161.562494 275.328124,160.578129 275.4375,159.8125 C276.968758,160.468753 278.609366,161.124997 280.359375,161.78125 C280.031248,164.078136 279.64844,166.320302 279.210938,168.507812 C278.66406,170.695323 276.914077,171.789062 273.960938,171.789062 L270.679688,171.789062 C267.398421,171.789062 265.757812,170.093767 265.757812,166.703125 L265.757812,150.296875 L264.117188,150.296875 C263.789061,160.359425 260.671905,167.906225 254.765625,172.9375 C253.453118,171.187491 252.195319,169.76563 250.992188,168.671875 L250.992188,173.101562 L245.742188,173.101562 L245.742188,155.054688 C245.632812,155.273439 245.414064,155.546873 245.085938,155.875 C244.648435,156.640629 243.937505,157.570307 242.953125,158.664062 C242.624998,156.2578 242.132816,153.906261 241.476562,151.609375 C244.429702,148.109357 247.218737,142.585975 249.84375,135.039062 Z M306.904688,157.1875 L312.31875,157.1875 C312.31875,159.593762 311.990628,161.726553 311.334375,163.585938 C315.053144,164.898444 319.373413,166.648427 324.295313,168.835938 L321.178125,173.265625 C317.240605,170.968739 313.248458,169.000008 309.201563,167.359375 C306.685925,169.875013 302.310969,171.89843 296.076563,173.429688 C295.092183,171.679679 294.217191,170.203131 293.451563,169 C298.810964,168.01562 302.365616,166.703133 304.115625,165.0625 C305.756258,163.531242 306.685937,160.906269 306.904688,157.1875 Z M295.748438,148.820312 L295.748438,144.390625 L306.4125,144.390625 L306.4125,141.4375 C304.553116,141.546876 301.873455,141.656249 298.373438,141.765625 C296.514053,141.875001 295.14688,141.929688 294.271875,141.929688 L294.271875,153.90625 C294.271875,162.765669 292.850014,169.273417 290.00625,173.429688 C289.349997,172.773434 288.201571,171.679695 286.560938,170.148438 C286.123435,169.820311 285.795314,169.546876 285.576563,169.328125 C287.873449,165.828107 289.021875,160.632847 289.021875,153.742188 L289.021875,137.007812 C297.99067,137.117188 308.709313,136.625005 321.178125,135.53125 L323.475,140.289062 C322.162494,140.398438 320.303137,140.507812 317.896875,140.617188 C315.053111,140.835939 312.975007,140.999999 311.6625,141.109375 L311.6625,144.390625 L322.81875,144.390625 L322.81875,148.820312 L311.6625,148.820312 L311.6625,151.445312 L321.50625,151.445312 L321.50625,165.0625 L316.420313,165.0625 L316.420313,155.875 L301.982813,155.875 L301.982813,165.0625 L296.896875,165.0625 L296.896875,151.445312 L306.4125,151.445312 L306.4125,148.820312 L295.748438,148.820312 Z M337.3875,162.601562 C338.700007,163.039065 340.012494,163.531247 341.325,164.078125 C342.30938,163.421872 343.293745,162.218759 344.278125,160.46875 L338.371875,160.46875 C338.043749,161.125003 337.715627,161.835934 337.3875,162.601562 Z M356.746875,147.179688 C357.184377,151.445334 358.059369,155.054673 359.371875,158.007812 C360.903133,154.617171 361.832811,150.625023 362.160938,146.03125 L357.075,146.03125 C356.856249,146.359377 356.746875,146.742185 356.746875,147.179688 Z M343.621875,151.609375 L343.621875,154.5625 L341.653125,154.5625 L340.66875,156.53125 L349.692188,156.53125 L349.692188,160.140625 C348.707808,162.328136 347.450008,164.242179 345.91875,165.882812 C347.121881,166.320315 348.434368,166.812497 349.85625,167.359375 L349.035938,168.507812 C351.879702,166.976555 354.340615,165.062511 356.41875,162.765625 C355.106244,160.140612 354.121879,157.242203 353.465625,154.070312 C353.028123,154.726566 352.535941,155.492183 351.989063,156.367188 C351.770312,156.039061 351.387503,155.437504 350.840625,154.5625 C350.512499,153.906247 350.239064,153.414064 350.020313,153.085938 L348.707813,154.890625 C347.06718,153.687494 345.371884,152.593755 343.621875,151.609375 Z M330.660938,146.851562 L330.660938,142.914062 L333.778125,142.914062 C333.012496,141.49218 332.082818,139.960946 330.989063,138.320312 L334.434375,136.1875 C335.30938,137.17188 336.403119,138.648428 337.715625,140.617188 L334.270313,142.914062 L338.535938,142.914062 L338.535938,135.203125 L343.621875,135.203125 L343.621875,142.914062 L347.723438,142.914062 L344.442188,140.617188 C345.098441,139.851559 345.973432,138.593759 347.067188,136.84375 C347.395314,136.515623 347.614062,136.242189 347.723438,136.023438 L351.332813,138.320312 C350.895311,139.085941 350.18438,140.17968 349.2,141.601562 C348.762498,142.14844 348.434376,142.585936 348.215625,142.914062 L350.348438,142.914062 L350.348438,146.851562 L343.621875,146.851562 L343.621875,149.476562 L344.934375,147.671875 C346.575008,148.656255 348.106243,149.531246 349.528125,150.296875 C351.606261,146.359355 353.465617,141.273469 355.10625,135.039062 L360.35625,135.53125 C359.918748,137.50001 359.371879,139.414053 358.715625,141.273438 L368.559375,141.273438 L368.559375,146.03125 L366.91875,146.03125 C366.481248,152.921909 365.0047,158.609353 362.489063,163.09375 C364.348447,165.171885 366.426551,166.812494 368.723438,168.015625 C367.739058,168.890629 366.590632,170.531238 365.278125,172.9375 C362.981239,171.296867 361.012508,169.546884 359.371875,167.6875 C356.965613,170.203138 354.450013,172.117181 351.825,173.429688 C350.84062,172.007805 349.692194,170.640632 348.379688,169.328125 L347.067188,171.625 C345.53593,170.749996 343.785948,169.875004 341.817188,169 C338.973424,170.859384 335.582832,172.171871 331.645313,172.9375 C331.207811,171.406242 330.551567,169.929695 329.676563,168.507812 C332.301576,168.07031 334.653115,167.523441 336.73125,166.867188 C334.981242,165.992183 333.121885,165.171879 331.153125,164.40625 C332.02813,163.093743 332.793747,161.781257 333.45,160.46875 L330.332813,160.46875 L330.332813,156.53125 L335.41875,156.53125 C335.528126,156.203123 335.746874,155.656254 336.075,154.890625 L336.567188,153.414062 L338.535938,153.578125 L338.535938,149.96875 C336.676553,151.93751 334.270328,153.796866 331.317188,155.546875 C330.77031,153.796866 330.168754,152.210945 329.5125,150.789062 C332.137513,149.804683 334.489052,148.492196 336.567188,146.851562 L330.660938,146.851562 Z M389.198438,136.1875 L395.925,135.039062 C396.253127,136.351569 396.690623,137.718743 397.2375,139.140625 L411.675,139.140625 L411.675,149.3125 L406.096875,149.3125 L406.096875,144.226562 L380.667188,144.226562 L380.667188,149.3125 L375.253125,149.3125 L375.253125,139.140625 L390.346875,139.140625 L389.854688,137.664062 C389.526561,137.007809 389.307813,136.515627 389.198438,136.1875 Z M374.432813,162.4375 L374.432813,157.351562 L391.33125,157.351562 L391.33125,155.710938 L396.745313,152.265625 L382.307813,152.265625 L382.307813,147.34375 L404.45625,147.34375 L404.45625,152.265625 L397.073438,157.1875 L397.073438,157.351562 L412.33125,157.351562 L412.33125,162.4375 L397.073438,162.4375 L397.073438,167.851562 C397.073438,171.35158 395.050021,173.101562 391.003125,173.101562 L384.604688,173.101562 C384.276561,171.351554 383.839066,169.601571 383.292188,167.851562 C385.151572,167.960938 386.956242,168.015625 388.70625,168.015625 C390.456259,168.015625 391.33125,167.250008 391.33125,165.71875 L391.33125,162.4375 L374.432813,162.4375 Z M418.696876,138.976562 L421.978126,135.039062 C424.712514,136.789071 426.790618,138.265619 428.212501,139.46875 C427.884374,139.687501 426.735948,141.109362 424.767188,143.734375 C423.017179,142.093742 420.993762,140.50782 418.696876,138.976562 Z M420.337501,153.90625 L418.040626,148.65625 L420.501563,147.179688 C423.454703,145.539054 425.587494,144.281254 426.900001,143.40625 C427.118752,143.843752 427.392186,144.499996 427.720313,145.375 C428.157815,146.140629 428.649998,147.124994 429.196876,148.328125 C425.587483,150.40626 422.634387,152.265617 420.337501,153.90625 Z M454.243817,168.1349 C454.478338,168.203724 454.715295,168.27334 454.954688,168.34375 C449.607207,166.660284 449.370248,166.590666 454.243817,168.1349 Z M454.243817,168.1349 C454.753094,168.296269 455.318176,168.475261 455.939063,168.671875 L453.314063,173.429688 C447.626535,171.351552 442.212526,169.60157 437.071876,168.179688 C434.446862,171.023452 429.032854,172.773434 420.829688,173.429688 C420.173435,171.89843 419.298444,170.257821 418.204688,168.507812 C424.54847,168.07031 428.978113,167.140632 431.493751,165.71875 C433.571886,164.624995 434.774999,162.601577 435.103126,159.648438 L440.845313,159.648438 C440.517186,161.289071 440.134378,162.765618 439.696876,164.078125 C442.343252,164.713255 447.192187,166.065501 454.243817,168.1349 Z M437.564063,137.664062 L455.775001,137.664062 L455.775001,141.4375 L453.150001,146.195312 L449.048438,144.71875 L450.360938,142.09375 L444.618751,142.09375 C444.509375,142.421877 444.345314,142.859372 444.126563,143.40625 C446.642201,146.796892 450.853096,148.765622 456.759376,149.3125 C455.884371,151.171884 455.118754,152.757806 454.462501,154.070312 C448.556221,153.195308 444.4547,151.062517 442.157813,147.671875 C440.079678,150.953141 436.525026,153.031246 431.493751,153.90625 L452.329688,153.90625 L452.329688,164.898438 L446.915626,164.898438 L446.915626,158.664062 L428.212501,158.664062 L428.212501,165.390625 L422.798438,165.390625 L422.798438,153.90625 L429.853126,153.90625 C429.74375,153.578123 429.415628,153.031254 428.868751,152.265625 C428.212497,151.281245 427.720315,150.460941 427.392188,149.804688 C434.610974,148.820308 438.657809,146.250021 439.532813,142.09375 L435.103126,142.09375 C434.118746,143.625008 433.13438,145.046868 432.150001,146.359375 C431.821874,146.140624 431.220317,145.757815 430.345313,145.210938 C429.251558,144.554684 428.431253,144.007815 427.884376,143.570312 C430.181262,141.054675 431.985932,138.210953 433.298438,135.039062 L438.548438,135.367188 C438.439063,135.585939 438.275002,135.968747 438.056251,136.515625 C437.837499,136.953127 437.673439,137.335936 437.564063,137.664062 Z M479.531251,149.96875 L477.562501,151.117188 L483.960938,151.117188 C485.601571,149.039052 487.24218,146.687513 488.882813,144.0625 L474.609376,144.0625 C475.046878,144.500002 475.703121,145.26562 476.578126,146.359375 C477.781257,147.890633 478.765622,149.093746 479.531251,149.96875 Z M466.078126,156.367188 L466.078126,151.117188 L473.625001,151.117188 L473.132813,150.625 C472.367184,149.64062 471.218758,148.273446 469.687501,146.523438 L473.789063,144.0625 L463.453126,144.0625 L463.453126,139.140625 L479.039063,139.140625 L478.546876,137.664062 C478.218749,136.789058 477.945314,136.187502 477.726563,135.859375 L483.960938,134.875 C484.289065,136.515633 484.671874,137.937494 485.109376,139.140625 L500.203126,139.140625 L500.203126,144.0625 L489.375001,144.0625 L494.460938,146.523438 C492.820305,148.492197 491.453131,150.023432 490.359376,151.117188 L499.546876,151.117188 L499.546876,156.039062 L471.164063,156.039062 L471.164063,157.023438 C471.164063,162.60159 469.468768,168.124973 466.078126,173.59375 C465.093746,172.499995 463.726572,171.132821 461.976563,169.492188 C464.492201,165.335917 465.859375,160.96096 466.078126,156.367188 Z M529.045313,148.820312 L532.654688,145.046875 C536.920335,148.000015 540.803108,150.843736 544.303126,153.578125 L540.201563,158.007812 C536.701546,154.726546 532.982833,151.664077 529.045313,148.820312 Z M506.896876,153.90625 C511.162522,150.95311 514.881235,147.945328 518.053126,144.882812 L522.318751,148.820312 C518.599982,152.101579 514.662522,155.273422 510.506251,158.335938 C510.178124,157.78906 509.467194,156.859382 508.373438,155.546875 C507.717185,154.890622 507.225002,154.343752 506.896876,153.90625 Z M506.568751,144.882812 L506.568751,139.960938 L522.318751,139.960938 C522.209375,139.523435 521.990627,138.976566 521.662501,138.320312 C521.334374,137.554684 521.115626,137.007814 521.006251,136.679688 L526.748438,134.875 C527.404692,136.187507 528.224996,137.882802 529.209376,139.960938 L544.303126,139.960938 L544.303126,144.882812 L506.568751,144.882812 Z M515.592188,156.039062 L519.857813,152.757812 C521.607822,155.710952 523.521865,158.171865 525.600001,160.140625 C527.896887,158.06249 529.701557,155.54689 531.014063,152.59375 L535.607813,155.710938 C533.96718,158.664077 532.107824,161.289051 530.029688,163.585938 C533.748457,165.773448 538.72497,167.195309 544.959376,167.851562 C544.631249,168.39844 544.139067,169.164058 543.482813,170.148438 C542.717185,171.57032 542.115628,172.554685 541.678126,173.101562 C535.990597,172.335934 530.631276,170.476577 525.600001,167.523438 C520.787477,170.367202 515.373468,172.281245 509.357813,173.265625 C508.70156,171.843743 507.607821,170.09376 506.076563,168.015625 C512.092218,167.249996 517.123418,165.718761 521.170313,163.421875 C518.982802,161.234364 517.123446,158.773451 515.592188,156.039062 Z M574.129689,167.851562 L574.621876,167.851562 C576.153134,168.070314 577.629681,168.179688 579.051564,168.179688 C580.36407,168.070312 581.075,167.195321 581.184376,165.554688 C581.512503,163.03905 581.676564,161.125007 581.676564,159.8125 L579.051564,159.8125 C577.739057,162.875015 576.098448,165.554676 574.129689,167.851562 Z M560.184376,148.984375 L579.543751,148.984375 L579.543751,146.6875 L560.184376,146.6875 L560.184376,148.984375 Z M579.543751,143.078125 L579.543751,140.617188 L560.184376,140.617188 L560.184376,143.078125 L579.543751,143.078125 Z M554.770314,153.414062 L554.770314,136.351562 L585.121876,136.351562 L585.121876,153.414062 L564.778126,153.414062 C564.340624,154.070316 563.848441,154.726559 563.301564,155.382812 L587.418751,155.382812 C587.418751,156.039066 587.364064,157.132805 587.254689,158.664062 C587.035937,161.835953 586.871877,164.40624 586.762501,166.375 C586.324999,170.750022 584.356269,172.9375 580.856251,172.9375 C580.309373,172.9375 579.434382,172.992187 578.231251,173.101562 L575.442189,173.101562 C575.332813,172.554685 575.114065,171.73438 574.785939,170.640625 C574.457812,169.54687 574.184377,168.726565 573.965626,168.179688 C571.996866,170.039072 569.700014,171.789054 567.075001,173.429688 C566.637499,173.101561 565.926568,172.609378 564.942189,171.953125 C563.848433,171.187496 562.973442,170.58594 562.317189,170.148438 C567.785966,167.523424 571.449992,164.078146 573.309376,159.8125 L569.371876,159.8125 C566.418736,164.953151 561.278163,169.109359 553.950001,172.28125 C553.074997,171.187495 551.817197,169.929695 550.176564,168.507812 C556.41097,166.210926 560.731239,163.312518 563.137501,159.8125 L559.200001,159.8125 C557.559368,161.234382 555.864072,162.546869 554.114064,163.75 C553.239059,162.76562 551.981259,161.50782 550.340626,159.976562 C553.621892,158.335929 556.410927,156.148451 558.707814,153.414062 L554.770314,153.414062 Z M597.229689,145.375 L601.331251,142.585938 C602.643758,144.117195 604.776549,146.742169 607.729689,150.460938 C608.276566,151.226566 608.714062,151.828123 609.042189,152.265625 L604.284376,155.382812 C601.659363,151.335917 599.307824,148.000013 597.229689,145.375 Z M626.596876,142.585938 L631.190626,145.703125 C628.346862,148.984391 625.448453,152.265609 622.495314,155.546875 L618.393751,152.265625 C621.456266,149.093734 624.190614,145.867204 626.596876,142.585938 Z M594.932814,161.289062 L594.932814,156.203125 L610.846876,156.203125 L610.846876,141.765625 L596.573439,141.765625 L596.573439,136.679688 L631.190626,136.679688 L631.190626,141.765625 L616.753126,141.765625 L616.753126,156.203125 L632.831251,156.203125 L632.831251,161.289062 L616.753126,161.289062 L616.753126,173.101562 L610.846876,173.101562 L610.846876,161.289062 L594.932814,161.289062 Z M667.579689,166.375 L667.579689,160.140625 L648.220314,160.140625 L648.220314,166.375 L667.579689,166.375 Z M662.657814,142.585938 L666.759376,139.796875 C670.696896,143.625019 674.360922,147.453106 677.751564,151.28125 L673.485939,154.890625 C673.267188,154.671874 672.939066,154.289065 672.501564,153.742188 C672.173437,153.304685 671.462507,152.484381 670.368751,151.28125 C659.212446,151.390626 649.532855,151.882808 641.329689,152.757812 L639.196876,148.164062 C644.337527,144.882796 649.423414,140.398466 654.454689,134.710938 L659.540626,137.335938 C655.821858,140.726579 651.939084,144.171857 647.892189,147.671875 C651.939084,147.453124 658.173397,147.234376 666.595314,147.015625 C665.282807,145.484367 663.97032,144.00782 662.657814,142.585938 Z M648.220314,173.265625 L642.806251,173.265625 L642.806251,155.21875 L672.993751,155.21875 L672.993751,173.265625 L667.579689,173.265625 L667.579689,170.96875 L648.220314,170.96875 L648.220314,173.265625 Z" id="优质数字资产交易平台"></path>
        </g>
    </g>
</svg>