<?xml version="1.0" encoding="UTF-8"?>
<svg width="13px" height="13px" viewBox="0 0 13 13" version="1.1" xmlns="http://www.w3.org/2000/svg" xmlns:xlink="http://www.w3.org/1999/xlink">
    <!-- Generator: Sketch 49 (51002) - http://www.bohemiancoding.com/sketch -->
    <title>search_assets</title>
    <desc>Created with Sketch.</desc>
    <defs></defs>
    <g id="assets" stroke="none" stroke-width="1" fill="none" fill-rule="evenodd">
        <g id="Artboard" transform="translate(-428.000000, -299.000000)" fill="#2BB789">
            <g id="资产管理" transform="translate(99.000000, 290.000000)">
                <path d="M338.750152,17.1643659 L342,20.4142136 L341.292893,21.1213203 L338.043046,17.8714727 C337.18111,18.5768174 336.079315,19 334.87868,19 C332.117256,19 329.87868,16.7614237 329.87868,14 C329.87868,11.2385763 332.117256,9 334.87868,9 C337.640103,9 339.87868,11.2385763 339.87868,14 C339.87868,15.2006351 339.455497,16.3024306 338.750152,17.1643659 Z M334.87868,18 C337.087819,18 338.87868,16.209139 338.87868,14 C338.87868,11.790861 337.087819,10 334.87868,10 C332.669541,10 330.87868,11.790861 330.87868,14 C330.87868,16.209139 332.669541,18 334.87868,18 Z" id="search_assets"></path>
            </g>
        </g>
    </g>
</svg>