<?xml version="1.0" encoding="UTF-8"?>
<svg width="12px" height="12px" viewBox="0 0 12 12" version="1.1" xmlns="http://www.w3.org/2000/svg" xmlns:xlink="http://www.w3.org/1999/xlink">
    <!-- Generator: Sketch 51.1 (57501) - http://www.bohemiancoding.com/sketch -->
    <title>query</title>
    <desc>Created with Sketch.</desc>
    <defs></defs>
    <g id="assets" stroke="none" stroke-width="1" fill="none" fill-rule="evenodd">
        <g id="Artboard" transform="translate(-482.000000, -298.000000)" fill="#2BB789" fill-rule="nonzero">
            <g id="资产管理" transform="translate(99.000000, 290.000000)">
                <path d="M389,20 C385.686292,20 383,17.3137085 383,14 C383,10.6862915 385.686292,8 389,8 C392.313708,8 395,10.6862915 395,14 C395,17.3137085 392.313708,20 389,20 Z M389.27,10 C388.55,10 387.99,10.22 387.59,10.66 C387.19,11.08 387,11.64 387,12.34 L387.79,12.34 C387.79,11.85 387.9,11.47 388.12,11.19 C388.36,10.86 388.73,10.7 389.23,10.7 C389.65,10.7 389.98,10.81 390.21,11.05 C390.43,11.27 390.55,11.58 390.55,11.98 C390.55,12.26 390.45,12.52 390.25,12.77 C390.19,12.85 390.07,12.97 389.91,13.13 C389.37,13.61 389.04,13.99 388.9,14.29 C388.78,14.54 388.72,14.83 388.72,15.16 L388.72,15.39 L389.52,15.39 L389.52,15.16 C389.52,14.89 389.58,14.65 389.71,14.43 C389.81,14.25 389.96,14.07 390.18,13.88 C390.62,13.49 390.89,13.23 390.99,13.11 C391.24,12.78 391.37,12.39 391.37,11.94 C391.37,11.34 391.18,10.87 390.81,10.53 C390.42,10.17 389.91,10 389.27,10 Z M389.12,16.09 C388.95,16.09 388.81,16.14 388.69,16.26 C388.57,16.37 388.52,16.51 388.52,16.68 C388.52,16.85 388.57,16.99 388.69,17.11 C388.81,17.22 388.95,17.28 389.12,17.28 C389.29,17.28 389.43,17.22 389.55,17.11 C389.67,17 389.73,16.86 389.73,16.68 C389.73,16.51 389.67,16.37 389.56,16.26 C389.44,16.14 389.29,16.09 389.12,16.09 Z" id="query"></path>
            </g>
        </g>
    </g>
</svg>