<?xml version="1.0" encoding="UTF-8"?>
<svg width="12px" height="12px" viewBox="0 0 12 12" version="1.1" xmlns="http://www.w3.org/2000/svg" xmlns:xlink="http://www.w3.org/1999/xlink">
    <!-- Generator: Sketch 51.1 (57501) - http://www.bohemiancoding.com/sketch -->
    <title>query_normal</title>
    <desc>Created with Sketch.</desc>
    <defs></defs>
    <g id="assets" stroke="none" stroke-width="1" fill="none" fill-rule="evenodd" opacity="0.5">
        <g id="Artboard" transform="translate(-536.000000, -298.000000)" fill="#FFFFFF" fill-rule="nonzero">
            <g id="资产管理" transform="translate(99.000000, 290.000000)">
                <path d="M443,20 C439.686292,20 437,17.3137085 437,14 C437,10.6862915 439.686292,8 443,8 C446.313708,8 449,10.6862915 449,14 C449,17.3137085 446.313708,20 443,20 Z M443.27,10 C442.55,10 441.99,10.22 441.59,10.66 C441.19,11.08 441,11.64 441,12.34 L441.79,12.34 C441.79,11.85 441.9,11.47 442.12,11.19 C442.36,10.86 442.73,10.7 443.23,10.7 C443.65,10.7 443.98,10.81 444.21,11.05 C444.43,11.27 444.55,11.58 444.55,11.98 C444.55,12.26 444.45,12.52 444.25,12.77 C444.19,12.85 444.07,12.97 443.91,13.13 C443.37,13.61 443.04,13.99 442.9,14.29 C442.78,14.54 442.72,14.83 442.72,15.16 L442.72,15.39 L443.52,15.39 L443.52,15.16 C443.52,14.89 443.58,14.65 443.71,14.43 C443.81,14.25 443.96,14.07 444.18,13.88 C444.62,13.49 444.89,13.23 444.99,13.11 C445.24,12.78 445.37,12.39 445.37,11.94 C445.37,11.34 445.18,10.87 444.81,10.53 C444.42,10.17 443.91,10 443.27,10 Z M443.12,16.09 C442.95,16.09 442.81,16.14 442.69,16.26 C442.57,16.37 442.52,16.51 442.52,16.68 C442.52,16.85 442.57,16.99 442.69,17.11 C442.81,17.22 442.95,17.28 443.12,17.28 C443.29,17.28 443.43,17.22 443.55,17.11 C443.67,17 443.73,16.86 443.73,16.68 C443.73,16.51 443.67,16.37 443.56,16.26 C443.44,16.14 443.29,16.09 443.12,16.09 Z" id="query_normal"></path>
            </g>
        </g>
    </g>
</svg>